<?xml version="1.0" encoding="UTF-8" standalone="no"?><svg xmlns="http://www.w3.org/2000/svg" xmlns:xlink="http://www.w3.org/1999/xlink" contentScriptType="application/ecmascript" contentStyleType="text/css" height="773px" preserveAspectRatio="none" style="width:1026px;height:773px;" version="1.1" viewBox="0 0 1026 773" width="1026px" zoomAndPan="magnify"><defs><filter height="300%" id="fn6y6cfalxu0i" width="300%" x="-1" y="-1"><feGaussianBlur result="blurOut" stdDeviation="2.0"/><feColorMatrix in="blurOut" result="blurOut2" type="matrix" values="0 0 0 0 0 0 0 0 0 0 0 0 0 0 0 0 0 0 .4 0"/><feOffset dx="4.0" dy="4.0" in="blurOut2" result="blurOut3"/><feBlend in="SourceGraphic" in2="blurOut3" mode="normal"/></filter></defs><g><!--MD5=[234319eec65dce97214bce33ac959acb]
class RegistOrganizationUI--><rect fill="#FEFECE" filter="url(#fn6y6cfalxu0i)" height="48" id="RegistOrganizationUI" style="stroke: #A80036; stroke-width: 1.5;" width="149" x="6" y="261"/><ellipse cx="21" cy="277" fill="#ADD1B2" rx="11" ry="11" style="stroke: #A80036; stroke-width: 1.0;"/><path d="M23,273.5 Q23.2031,273 23.4375,272.75 Q23.6719,272.5 23.9375,272.5 Q24.4063,272.5 24.7031,272.7813 Q25,273.0625 25,273.7188 L25,275.2813 Q25,275.9375 24.7188,276.2188 Q24.4375,276.5 24,276.5 Q23.6094,276.5 23.3594,276.3281 Q23.1094,276.1563 23,275.7031 Q22.9531,275.3906 22.7813,275.2188 Q22.4688,274.8906 21.9063,274.7031 Q21.3438,274.5 20.7813,274.5 Q20.0781,274.5 19.4844,274.7813 Q18.9063,275.0625 18.4531,275.6875 Q18,276.3125 18,277.1719 L18,278.0938 Q18,279.125 18.8438,279.8125 Q19.6875,280.5 21.1875,280.5 Q22.0781,280.5 22.7031,280.2969 Q23.0625,280.1875 23.4688,279.8281 Q23.7344,279.625 23.875,279.5625 Q24.0156,279.5 24.1875,279.5 Q24.5156,279.5 24.75,279.7656 Q25,280.0156 25,280.375 Q25,280.7188 24.6563,281.125 Q24.1563,281.7188 23.3594,282.0469 Q22.3125,282.5 21.0313,282.5 Q19.5313,282.5 18.3281,281.9063 Q17.3594,281.4375 16.6719,280.4219 Q16,279.4063 16,278.2031 L16,277.1094 Q16,275.8594 16.5938,274.7656 Q17.2031,273.6719 18.25,273.0938 Q19.3125,272.5 20.5,272.5 Q21.2188,272.5 21.8438,272.75 Q22.4688,273 23,273.5 Z "/><text fill="#000000" font-family="sans-serif" font-size="12" lengthAdjust="spacingAndGlyphs" textLength="117" x="35" y="281.9102">RegistOrganizationUI</text><line style="stroke: #A80036; stroke-width: 1.5;" x1="7" x2="154" y1="293" y2="293"/><line style="stroke: #A80036; stroke-width: 1.5;" x1="7" x2="154" y1="301" y2="301"/><!--MD5=[e03aa8c19959ac7f1f5e28215ab298cb]
class RegistOrganizationController--><rect fill="#FEFECE" filter="url(#fn6y6cfalxu0i)" height="89.5078" id="RegistOrganizationController" style="stroke: #A80036; stroke-width: 1.5;" width="191" x="216" y="240"/><ellipse cx="231" cy="256" fill="#ADD1B2" rx="11" ry="11" style="stroke: #A80036; stroke-width: 1.0;"/><path d="M233,252.5 Q233.2031,252 233.4375,251.75 Q233.6719,251.5 233.9375,251.5 Q234.4063,251.5 234.7031,251.7813 Q235,252.0625 235,252.7188 L235,254.2813 Q235,254.9375 234.7188,255.2188 Q234.4375,255.5 234,255.5 Q233.6094,255.5 233.3594,255.3281 Q233.1094,255.1563 233,254.7031 Q232.9531,254.3906 232.7813,254.2188 Q232.4688,253.8906 231.9063,253.7031 Q231.3438,253.5 230.7813,253.5 Q230.0781,253.5 229.4844,253.7813 Q228.9063,254.0625 228.4531,254.6875 Q228,255.3125 228,256.1719 L228,257.0938 Q228,258.125 228.8438,258.8125 Q229.6875,259.5 231.1875,259.5 Q232.0781,259.5 232.7031,259.2969 Q233.0625,259.1875 233.4688,258.8281 Q233.7344,258.625 233.875,258.5625 Q234.0156,258.5 234.1875,258.5 Q234.5156,258.5 234.75,258.7656 Q235,259.0156 235,259.375 Q235,259.7188 234.6563,260.125 Q234.1563,260.7188 233.3594,261.0469 Q232.3125,261.5 231.0313,261.5 Q229.5313,261.5 228.3281,260.9063 Q227.3594,260.4375 226.6719,259.4219 Q226,258.4063 226,257.2031 L226,256.1094 Q226,254.8594 226.5938,253.7656 Q227.2031,252.6719 228.25,252.0938 Q229.3125,251.5 230.5,251.5 Q231.2188,251.5 231.8438,251.75 Q232.4688,252 233,252.5 Z "/><text fill="#000000" font-family="sans-serif" font-size="12" lengthAdjust="spacingAndGlyphs" textLength="159" x="245" y="260.9102">RegistOrganizationController</text><line style="stroke: #A80036; stroke-width: 1.5;" x1="217" x2="406" y1="272" y2="272"/><line style="stroke: #A80036; stroke-width: 1.5;" x1="217" x2="406" y1="280" y2="280"/><text fill="#000000" font-family="sans-serif" font-size="11" lengthAdjust="spacingAndGlyphs" textLength="144" x="222" y="295.4189">+newOrganization(name, NIF)</text><text fill="#000000" font-family="sans-serif" font-size="11" lengthAdjust="spacingAndGlyphs" textLength="90" x="222" y="309.2549">+getOrganization()</text><text fill="#000000" font-family="sans-serif" font-size="11" lengthAdjust="spacingAndGlyphs" textLength="102" x="222" y="323.0908">+registOrganization()</text><!--MD5=[99b8db98afdc2c8404e39242ef4c1e65]
class Platform--><rect fill="#FEFECE" filter="url(#fn6y6cfalxu0i)" height="89.5078" id="Platform" style="stroke: #A80036; stroke-width: 1.5;" width="185" x="522" y="673"/><ellipse cx="587.25" cy="689" fill="#ADD1B2" rx="11" ry="11" style="stroke: #A80036; stroke-width: 1.0;"/><path d="M589.25,685.5 Q589.4531,685 589.6875,684.75 Q589.9219,684.5 590.1875,684.5 Q590.6563,684.5 590.9531,684.7813 Q591.25,685.0625 591.25,685.7188 L591.25,687.2813 Q591.25,687.9375 590.9688,688.2188 Q590.6875,688.5 590.25,688.5 Q589.8594,688.5 589.6094,688.3281 Q589.3594,688.1563 589.25,687.7031 Q589.2031,687.3906 589.0313,687.2188 Q588.7188,686.8906 588.1563,686.7031 Q587.5938,686.5 587.0313,686.5 Q586.3281,686.5 585.7344,686.7813 Q585.1563,687.0625 584.7031,687.6875 Q584.25,688.3125 584.25,689.1719 L584.25,690.0938 Q584.25,691.125 585.0938,691.8125 Q585.9375,692.5 587.4375,692.5 Q588.3281,692.5 588.9531,692.2969 Q589.3125,692.1875 589.7188,691.8281 Q589.9844,691.625 590.125,691.5625 Q590.2656,691.5 590.4375,691.5 Q590.7656,691.5 591,691.7656 Q591.25,692.0156 591.25,692.375 Q591.25,692.7188 590.9063,693.125 Q590.4063,693.7188 589.6094,694.0469 Q588.5625,694.5 587.2813,694.5 Q585.7813,694.5 584.5781,693.9063 Q583.6094,693.4375 582.9219,692.4219 Q582.25,691.4063 582.25,690.2031 L582.25,689.1094 Q582.25,687.8594 582.8438,686.7656 Q583.4531,685.6719 584.5,685.0938 Q585.5625,684.5 586.75,684.5 Q587.4688,684.5 588.0938,684.75 Q588.7188,685 589.25,685.5 Z "/><text fill="#000000" font-family="sans-serif" font-size="12" lengthAdjust="spacingAndGlyphs" textLength="46" x="607.75" y="693.9102">Platform</text><line style="stroke: #A80036; stroke-width: 1.5;" x1="523" x2="706" y1="705" y2="705"/><line style="stroke: #A80036; stroke-width: 1.5;" x1="523" x2="706" y1="713" y2="713"/><text fill="#000000" font-family="sans-serif" font-size="11" lengthAdjust="spacingAndGlyphs" textLength="126" x="528" y="728.4189">+getRegistOrganizations()</text><text fill="#000000" font-family="sans-serif" font-size="11" lengthAdjust="spacingAndGlyphs" textLength="173" x="528" y="742.2549">+getAlgorithmPasswordGenerator()</text><text fill="#000000" font-family="sans-serif" font-size="11" lengthAdjust="spacingAndGlyphs" textLength="123" x="528" y="756.0908">+getFacadeAutorization()</text><!--MD5=[e09e0019787cf83947156283bb671e06]
class RegistOrganization--><rect fill="#FEFECE" filter="url(#fn6y6cfalxu0i)" height="158.6875" id="RegistOrganization" style="stroke: #A80036; stroke-width: 1.5;" width="220" x="504.5" y="14.5"/><ellipse cx="557.75" cy="30.5" fill="#ADD1B2" rx="11" ry="11" style="stroke: #A80036; stroke-width: 1.0;"/><path d="M559.75,27 Q559.9531,26.5 560.1875,26.25 Q560.4219,26 560.6875,26 Q561.1563,26 561.4531,26.2813 Q561.75,26.5625 561.75,27.2188 L561.75,28.7813 Q561.75,29.4375 561.4688,29.7188 Q561.1875,30 560.75,30 Q560.3594,30 560.1094,29.8281 Q559.8594,29.6563 559.75,29.2031 Q559.7031,28.8906 559.5313,28.7188 Q559.2188,28.3906 558.6563,28.2031 Q558.0938,28 557.5313,28 Q556.8281,28 556.2344,28.2813 Q555.6563,28.5625 555.2031,29.1875 Q554.75,29.8125 554.75,30.6719 L554.75,31.5938 Q554.75,32.625 555.5938,33.3125 Q556.4375,34 557.9375,34 Q558.8281,34 559.4531,33.7969 Q559.8125,33.6875 560.2188,33.3281 Q560.4844,33.125 560.625,33.0625 Q560.7656,33 560.9375,33 Q561.2656,33 561.5,33.2656 Q561.75,33.5156 561.75,33.875 Q561.75,34.2188 561.4063,34.625 Q560.9063,35.2188 560.1094,35.5469 Q559.0625,36 557.7813,36 Q556.2813,36 555.0781,35.4063 Q554.1094,34.9375 553.4219,33.9219 Q552.75,32.9063 552.75,31.7031 L552.75,30.6094 Q552.75,29.3594 553.3438,28.2656 Q553.9531,27.1719 555,26.5938 Q556.0625,26 557.25,26 Q557.9688,26 558.5938,26.25 Q559.2188,26.5 559.75,27 Z "/><text fill="#000000" font-family="sans-serif" font-size="12" lengthAdjust="spacingAndGlyphs" textLength="105" x="578.25" y="35.4102">RegistOrganization</text><line style="stroke: #A80036; stroke-width: 1.5;" x1="505.5" x2="723.5" y1="46.5" y2="46.5"/><line style="stroke: #A80036; stroke-width: 1.5;" x1="505.5" x2="723.5" y1="54.5" y2="54.5"/><text fill="#000000" font-family="sans-serif" font-size="11" lengthAdjust="spacingAndGlyphs" textLength="208" x="510.5" y="69.9189">+Organization newOrganization(name, NIF)</text><text fill="#000000" font-family="sans-serif" font-size="11" lengthAdjust="spacingAndGlyphs" textLength="134" x="510.5" y="83.7549">+validatesOrganization(org)</text><text fill="#000000" font-family="sans-serif" font-size="11" lengthAdjust="spacingAndGlyphs" textLength="90" x="510.5" y="97.5908">+getOrganization()</text><text fill="#000000" font-family="sans-serif" font-size="11" lengthAdjust="spacingAndGlyphs" textLength="118" x="510.5" y="111.4268">+registOrganization(org)</text><text fill="#000000" font-family="sans-serif" font-size="11" lengthAdjust="spacingAndGlyphs" textLength="107" x="510.5" y="125.2627">-addOrganization(org)</text><text fill="#000000" font-family="sans-serif" font-size="11" lengthAdjust="spacingAndGlyphs" textLength="162" x="510.5" y="139.0986">+registManagerAsUser(manager)</text><text fill="#000000" font-family="sans-serif" font-size="11" lengthAdjust="spacingAndGlyphs" textLength="168" x="510.5" y="152.9346">+sendPassword(email, password)</text><text fill="#000000" font-family="sans-serif" font-size="11" lengthAdjust="spacingAndGlyphs" textLength="164" x="510.5" y="166.7705">+registCollaboratorAsUser(collab)</text><!--MD5=[86c7c362de55a38b660185a1328fe18d]
class Organization--><rect fill="#FEFECE" filter="url(#fn6y6cfalxu0i)" height="117.1797" id="Organization" style="stroke: #A80036; stroke-width: 1.5;" width="223" x="503" y="226.5"/><ellipse cx="575.75" cy="242.5" fill="#ADD1B2" rx="11" ry="11" style="stroke: #A80036; stroke-width: 1.0;"/><path d="M577.75,239 Q577.9531,238.5 578.1875,238.25 Q578.4219,238 578.6875,238 Q579.1563,238 579.4531,238.2813 Q579.75,238.5625 579.75,239.2188 L579.75,240.7813 Q579.75,241.4375 579.4688,241.7188 Q579.1875,242 578.75,242 Q578.3594,242 578.1094,241.8281 Q577.8594,241.6563 577.75,241.2031 Q577.7031,240.8906 577.5313,240.7188 Q577.2188,240.3906 576.6563,240.2031 Q576.0938,240 575.5313,240 Q574.8281,240 574.2344,240.2813 Q573.6563,240.5625 573.2031,241.1875 Q572.75,241.8125 572.75,242.6719 L572.75,243.5938 Q572.75,244.625 573.5938,245.3125 Q574.4375,246 575.9375,246 Q576.8281,246 577.4531,245.7969 Q577.8125,245.6875 578.2188,245.3281 Q578.4844,245.125 578.625,245.0625 Q578.7656,245 578.9375,245 Q579.2656,245 579.5,245.2656 Q579.75,245.5156 579.75,245.875 Q579.75,246.2188 579.4063,246.625 Q578.9063,247.2188 578.1094,247.5469 Q577.0625,248 575.7813,248 Q574.2813,248 573.0781,247.4063 Q572.1094,246.9375 571.4219,245.9219 Q570.75,244.9063 570.75,243.7031 L570.75,242.6094 Q570.75,241.3594 571.3438,240.2656 Q571.9531,239.1719 573,238.5938 Q574.0625,238 575.25,238 Q575.9688,238 576.5938,238.25 Q577.2188,238.5 577.75,239 Z "/><text fill="#000000" font-family="sans-serif" font-size="12" lengthAdjust="spacingAndGlyphs" textLength="69" x="596.25" y="247.4102">Organization</text><line style="stroke: #A80036; stroke-width: 1.5;" x1="504" x2="725" y1="258.5" y2="258.5"/><text fill="#000000" font-family="sans-serif" font-size="11" lengthAdjust="spacingAndGlyphs" textLength="61" x="509" y="273.9189">-String name</text><text fill="#000000" font-family="sans-serif" font-size="11" lengthAdjust="spacingAndGlyphs" textLength="50" x="509" y="287.7549">-String NIF</text><line style="stroke: #A80036; stroke-width: 1.5;" x1="504" x2="725" y1="294.1719" y2="294.1719"/><text fill="#000000" font-family="sans-serif" font-size="11" lengthAdjust="spacingAndGlyphs" textLength="122" x="509" y="309.5908">+Organization(name, NIF)</text><text fill="#000000" font-family="sans-serif" font-size="11" lengthAdjust="spacingAndGlyphs" textLength="179" x="509" y="323.4268">+Manager newManager(name, email)</text><text fill="#000000" font-family="sans-serif" font-size="11" lengthAdjust="spacingAndGlyphs" textLength="211" x="509" y="337.2627">+Collaborator newCollaborator(name, email)</text><!--MD5=[b24ed8d4ae84bae9290d9aab401637c7]
class Manager--><rect fill="#FEFECE" filter="url(#fn6y6cfalxu0i)" height="103.3438" id="Manager" style="stroke: #A80036; stroke-width: 1.5;" width="99" x="565" y="534.5"/><ellipse cx="588.55" cy="550.5" fill="#ADD1B2" rx="11" ry="11" style="stroke: #A80036; stroke-width: 1.0;"/><path d="M590.55,547 Q590.7531,546.5 590.9875,546.25 Q591.2219,546 591.4875,546 Q591.9563,546 592.2531,546.2813 Q592.55,546.5625 592.55,547.2188 L592.55,548.7813 Q592.55,549.4375 592.2688,549.7188 Q591.9875,550 591.55,550 Q591.1594,550 590.9094,549.8281 Q590.6594,549.6563 590.55,549.2031 Q590.5031,548.8906 590.3313,548.7188 Q590.0188,548.3906 589.4563,548.2031 Q588.8938,548 588.3313,548 Q587.6281,548 587.0344,548.2813 Q586.4563,548.5625 586.0031,549.1875 Q585.55,549.8125 585.55,550.6719 L585.55,551.5938 Q585.55,552.625 586.3938,553.3125 Q587.2375,554 588.7375,554 Q589.6281,554 590.2531,553.7969 Q590.6125,553.6875 591.0188,553.3281 Q591.2844,553.125 591.425,553.0625 Q591.5656,553 591.7375,553 Q592.0656,553 592.3,553.2656 Q592.55,553.5156 592.55,553.875 Q592.55,554.2188 592.2063,554.625 Q591.7063,555.2188 590.9094,555.5469 Q589.8625,556 588.5813,556 Q587.0813,556 585.8781,555.4063 Q584.9094,554.9375 584.2219,553.9219 Q583.55,552.9063 583.55,551.7031 L583.55,550.6094 Q583.55,549.3594 584.1438,548.2656 Q584.7531,547.1719 585.8,546.5938 Q586.8625,546 588.05,546 Q588.7688,546 589.3938,546.25 Q590.0188,546.5 590.55,547 Z "/><text fill="#000000" font-family="sans-serif" font-size="12" lengthAdjust="spacingAndGlyphs" textLength="48" x="604.45" y="555.4102">Manager</text><line style="stroke: #A80036; stroke-width: 1.5;" x1="566" x2="663" y1="566.5" y2="566.5"/><text fill="#000000" font-family="sans-serif" font-size="11" lengthAdjust="spacingAndGlyphs" textLength="61" x="571" y="581.9189">-String name</text><text fill="#000000" font-family="sans-serif" font-size="11" lengthAdjust="spacingAndGlyphs" textLength="59" x="571" y="595.7549">-String email</text><line style="stroke: #A80036; stroke-width: 1.5;" x1="566" x2="663" y1="602.1719" y2="602.1719"/><text fill="#000000" font-family="sans-serif" font-size="11" lengthAdjust="spacingAndGlyphs" textLength="87" x="571" y="617.5908">+String getName()</text><text fill="#000000" font-family="sans-serif" font-size="11" lengthAdjust="spacingAndGlyphs" textLength="84" x="571" y="631.4268">+String getEmail()</text><!--MD5=[4d548a0442e1badb0a0dbe1ee5d5c4f7]
class ExternAlgorithmPasswordGenerator--><rect fill="#FEFECE" filter="url(#fn6y6cfalxu0i)" height="70.0234" id="ExternAlgorithmPasswordGenerator" style="stroke: #A80036; stroke-width: 1.5;" width="228" x="787" y="8"/><ellipse cx="802" cy="28.0938" fill="#B4A7E5" rx="11" ry="11" style="stroke: #A80036; stroke-width: 1.0;"/><path d="M803,25.0938 L803,31.0938 L805,31.0938 L805.4844,31.0938 L806,31.7188 L806,32.0938 L806,32.4688 L805.4844,33.0938 L805,33.0938 L799,33.0938 L798.5156,33.0938 L798,32.4688 L798,32.0938 L798,31.7188 L798.5156,31.0938 L799,31.0938 L801,31.0938 L801,25.0938 L799,25.0938 L798.5156,25.0938 L798,24.4688 L798,24.0938 L798,23.7188 L798.5156,23.0938 L799,23.0938 L805,23.0938 L805.4844,23.0938 L806,23.7188 L806,24.0938 L806,24.4688 L805.4844,25.0938 L805,25.0938 L803,25.0938 Z "/><text fill="#000000" font-family="sans-serif" font-size="12" font-style="italic" lengthAdjust="spacingAndGlyphs" textLength="61" x="883.5" y="25.457">«interface»</text><text fill="#000000" font-family="sans-serif" font-size="12" font-style="italic" lengthAdjust="spacingAndGlyphs" textLength="196" x="816" y="40.5508">ExternAlgorithmPasswordGenerator</text><line style="stroke: #A80036; stroke-width: 1.5;" x1="788" x2="1014" y1="48.1875" y2="48.1875"/><line style="stroke: #A80036; stroke-width: 1.5;" x1="788" x2="1014" y1="56.1875" y2="56.1875"/><text fill="#000000" font-family="sans-serif" font-size="11" lengthAdjust="spacingAndGlyphs" textLength="194" x="793" y="71.6064">+String generatePassword(name, email)</text><!--MD5=[e2aca0b10af776de811a0a5eb9c054a8]
class FacadeAutorization--><rect fill="#FEFECE" filter="url(#fn6y6cfalxu0i)" height="61.8359" id="FacadeAutorization" style="stroke: #A80036; stroke-width: 1.5;" width="188" x="807" y="113"/><ellipse cx="845.4" cy="129" fill="#ADD1B2" rx="11" ry="11" style="stroke: #A80036; stroke-width: 1.0;"/><path d="M847.4,125.5 Q847.6031,125 847.8375,124.75 Q848.0719,124.5 848.3375,124.5 Q848.8063,124.5 849.1031,124.7813 Q849.4,125.0625 849.4,125.7188 L849.4,127.2813 Q849.4,127.9375 849.1188,128.2188 Q848.8375,128.5 848.4,128.5 Q848.0094,128.5 847.7594,128.3281 Q847.5094,128.1563 847.4,127.7031 Q847.3531,127.3906 847.1813,127.2188 Q846.8688,126.8906 846.3063,126.7031 Q845.7438,126.5 845.1813,126.5 Q844.4781,126.5 843.8844,126.7813 Q843.3063,127.0625 842.8531,127.6875 Q842.4,128.3125 842.4,129.1719 L842.4,130.0938 Q842.4,131.125 843.2438,131.8125 Q844.0875,132.5 845.5875,132.5 Q846.4781,132.5 847.1031,132.2969 Q847.4625,132.1875 847.8688,131.8281 Q848.1344,131.625 848.275,131.5625 Q848.4156,131.5 848.5875,131.5 Q848.9156,131.5 849.15,131.7656 Q849.4,132.0156 849.4,132.375 Q849.4,132.7188 849.0563,133.125 Q848.5563,133.7188 847.7594,134.0469 Q846.7125,134.5 845.4313,134.5 Q843.9313,134.5 842.7281,133.9063 Q841.7594,133.4375 841.0719,132.4219 Q840.4,131.4063 840.4,130.2031 L840.4,129.1094 Q840.4,127.8594 840.9938,126.7656 Q841.6031,125.6719 842.65,125.0938 Q843.7125,124.5 844.9,124.5 Q845.6188,124.5 846.2438,124.75 Q846.8688,125 847.4,125.5 Z "/><text fill="#000000" font-family="sans-serif" font-size="12" lengthAdjust="spacingAndGlyphs" textLength="104" x="864.6" y="133.9102">FacadeAutorization</text><line style="stroke: #A80036; stroke-width: 1.5;" x1="808" x2="994" y1="145" y2="145"/><line style="stroke: #A80036; stroke-width: 1.5;" x1="808" x2="994" y1="153" y2="153"/><text fill="#000000" font-family="sans-serif" font-size="11" lengthAdjust="spacingAndGlyphs" textLength="176" x="813" y="168.4189">+registUser(name, email, password)</text><!--MD5=[f483d6e5de34a60207b28a5563be5e8b]
class Collaborator--><rect fill="#FEFECE" filter="url(#fn6y6cfalxu0i)" height="103.3438" id="Collaborator" style="stroke: #A80036; stroke-width: 1.5;" width="100" x="564.5" y="396.5"/><ellipse cx="579.5" cy="412.5" fill="#ADD1B2" rx="11" ry="11" style="stroke: #A80036; stroke-width: 1.0;"/><path d="M581.5,409 Q581.7031,408.5 581.9375,408.25 Q582.1719,408 582.4375,408 Q582.9063,408 583.2031,408.2813 Q583.5,408.5625 583.5,409.2188 L583.5,410.7813 Q583.5,411.4375 583.2188,411.7188 Q582.9375,412 582.5,412 Q582.1094,412 581.8594,411.8281 Q581.6094,411.6563 581.5,411.2031 Q581.4531,410.8906 581.2813,410.7188 Q580.9688,410.3906 580.4063,410.2031 Q579.8438,410 579.2813,410 Q578.5781,410 577.9844,410.2813 Q577.4063,410.5625 576.9531,411.1875 Q576.5,411.8125 576.5,412.6719 L576.5,413.5938 Q576.5,414.625 577.3438,415.3125 Q578.1875,416 579.6875,416 Q580.5781,416 581.2031,415.7969 Q581.5625,415.6875 581.9688,415.3281 Q582.2344,415.125 582.375,415.0625 Q582.5156,415 582.6875,415 Q583.0156,415 583.25,415.2656 Q583.5,415.5156 583.5,415.875 Q583.5,416.2188 583.1563,416.625 Q582.6563,417.2188 581.8594,417.5469 Q580.8125,418 579.5313,418 Q578.0313,418 576.8281,417.4063 Q575.8594,416.9375 575.1719,415.9219 Q574.5,414.9063 574.5,413.7031 L574.5,412.6094 Q574.5,411.3594 575.0938,410.2656 Q575.7031,409.1719 576.75,408.5938 Q577.8125,408 579,408 Q579.7188,408 580.3438,408.25 Q580.9688,408.5 581.5,409 Z "/><text fill="#000000" font-family="sans-serif" font-size="12" lengthAdjust="spacingAndGlyphs" textLength="68" x="593.5" y="417.4102">Collaborator</text><line style="stroke: #A80036; stroke-width: 1.5;" x1="565.5" x2="663.5" y1="428.5" y2="428.5"/><text fill="#000000" font-family="sans-serif" font-size="11" lengthAdjust="spacingAndGlyphs" textLength="61" x="570.5" y="443.9189">-String name</text><text fill="#000000" font-family="sans-serif" font-size="11" lengthAdjust="spacingAndGlyphs" textLength="59" x="570.5" y="457.7549">-String email</text><line style="stroke: #A80036; stroke-width: 1.5;" x1="565.5" x2="663.5" y1="464.1719" y2="464.1719"/><text fill="#000000" font-family="sans-serif" font-size="11" lengthAdjust="spacingAndGlyphs" textLength="87" x="570.5" y="479.5908">+String getName()</text><text fill="#000000" font-family="sans-serif" font-size="11" lengthAdjust="spacingAndGlyphs" textLength="84" x="570.5" y="493.4268">+String getEmail()</text><!--MD5=[9d489c289d4e346f6e07a3431e5804e8]
link RegistOrganizationUI to RegistOrganizationController--><path d="M155.218,285 C172.906,285 192.087,285 210.738,285 " fill="none" id="RegistOrganizationUI-&gt;RegistOrganizationController" style="stroke: #A80036; stroke-width: 1.0; stroke-dasharray: 7.0,7.0;"/><polygon fill="#A80036" points="215.983,285,206.983,281,210.983,285,206.983,289,215.983,285" style="stroke: #A80036; stroke-width: 1.0;"/><!--MD5=[26677f82097ddef73535ed4399242291]
link RegistOrganizationController to RegistOrganization--><path d="M383.452,239.978 C418.249,217.897 461.007,190.765 500.18,165.907 " fill="none" id="RegistOrganizationController-&gt;RegistOrganization" style="stroke: #A80036; stroke-width: 1.0; stroke-dasharray: 7.0,7.0;"/><polygon fill="#A80036" points="504.448,163.199,494.706,164.6458,500.2268,165.8788,498.9937,171.3997,504.448,163.199" style="stroke: #A80036; stroke-width: 1.0;"/><!--MD5=[4e402fbe6d5742c1b052c631dbc42b19]
link RegistOrganizationController to Organization--><path d="M407.325,285 C435.995,285 467.803,285 497.682,285 " fill="none" id="RegistOrganizationController-&gt;Organization" style="stroke: #A80036; stroke-width: 1.0; stroke-dasharray: 7.0,7.0;"/><polygon fill="#A80036" points="502.848,285,493.848,281,497.848,285,493.848,289,502.848,285" style="stroke: #A80036; stroke-width: 1.0;"/><!--MD5=[5f24b9e410cd57157f4e3b8f516d0838]
link RegistOrganizationController to Platform--><path d="M326.285,330.189 C351.12,405.394 409.651,557.577 503,655 C508.027,660.247 513.588,665.1857 519.462,669.8092 " fill="none" id="RegistOrganizationController-&gt;Platform" style="stroke: #A80036; stroke-width: 1.0; stroke-dasharray: 7.0,7.0;"/><polygon fill="#A80036" points="523.576,672.9595,518.8625,664.3118,519.6063,669.9195,513.9986,670.6633,523.576,672.9595" style="stroke: #A80036; stroke-width: 1.0;"/><!--MD5=[38f7f6da25b5e44d4a08d05bb502c396]
link RegistOrganization to FacadeAutorization--><path d="M724.681,113.188 C750.096,117.655 777.002,122.383 801.904,126.76 " fill="none" id="RegistOrganization-&gt;FacadeAutorization" style="stroke: #A80036; stroke-width: 1.0; stroke-dasharray: 7.0,7.0;"/><polygon fill="#A80036" points="806.856,127.63,798.6845,122.1321,801.9315,126.7643,797.2993,130.0112,806.856,127.63" style="stroke: #A80036; stroke-width: 1.0;"/><!--MD5=[77ca69f230c444bafe2c0d1074a7a406]
link RegistOrganization to ExternAlgorithmPasswordGenerator--><path d="M724.681,74.428 C743.302,71.09 762.723,67.609 781.569,64.23 " fill="none" id="RegistOrganization-&gt;ExternAlgorithmPasswordGenerator" style="stroke: #A80036; stroke-width: 1.0; stroke-dasharray: 7.0,7.0;"/><polygon fill="#A80036" points="786.868,63.28,777.3031,60.932,781.9466,64.1629,778.7157,68.8063,786.868,63.28" style="stroke: #A80036; stroke-width: 1.0;"/><!--MD5=[b2767384522f615c85a28d92ddf7f4b1]
link RegistOrganization to Organization--><path d="M614.5,173.597 C614.5,189.491 614.5,205.99 614.5,221.265 " fill="none" id="RegistOrganization-&gt;Organization" style="stroke: #A80036; stroke-width: 1.0;"/><polygon fill="#A80036" points="614.5,226.396,618.5,217.396,614.5,221.396,610.5,217.396,614.5,226.396" style="stroke: #A80036; stroke-width: 1.0;"/><text fill="#000000" font-family="sans-serif" font-size="13" lengthAdjust="spacingAndGlyphs" textLength="82" x="561.5" y="205.4951">has registered</text><text fill="#000000" font-family="sans-serif" font-size="13" lengthAdjust="spacingAndGlyphs" textLength="7" x="607.1992" y="194.6485">1</text><text fill="#000000" font-family="sans-serif" font-size="13" lengthAdjust="spacingAndGlyphs" textLength="5" x="609.1953" y="215.7842">*</text><!--MD5=[bc039f41cf0b27fadee5cae63fc6e1fe]
link Organization to Manager--><path d="M526.321,343.629 C499.834,366.825 474.707,396.103 463,430 C443.021,487.848 509.093,534.987 560.248,561.783 " fill="none" id="Organization-&gt;Manager" style="stroke: #A80036; stroke-width: 1.0;"/><polygon fill="#A80036" points="564.836,564.154,558.6776,556.468,560.3943,561.8581,555.0042,563.5748,564.836,564.154" style="stroke: #A80036; stroke-width: 1.0;"/><text fill="#000000" font-family="sans-serif" font-size="13" lengthAdjust="spacingAndGlyphs" textLength="21" x="438" y="444.4951">has</text><polygon fill="#000000" points="444,453.3516,447,459.3516,450,453.3516,444,453.3516" style="stroke: #000000; stroke-width: 1.0;"/><text fill="#000000" font-family="sans-serif" font-size="13" lengthAdjust="spacingAndGlyphs" textLength="7" x="508.1476" y="365.255">1</text><text fill="#000000" font-family="sans-serif" font-size="13" lengthAdjust="spacingAndGlyphs" textLength="7" x="550.0275" y="575.6161">1</text><!--MD5=[45817597bcd7048073a670d966abfd17]
link Organization to Collaborator--><path d="M614.5,343.616 C614.5,359.128 614.5,375.843 614.5,391.253 " fill="none" id="Organization-&gt;Collaborator" style="stroke: #A80036; stroke-width: 1.0;"/><polygon fill="#A80036" points="614.5,396.426,618.5,387.426,614.5,391.426,610.5,387.426,614.5,396.426" style="stroke: #A80036; stroke-width: 1.0;"/><text fill="#000000" font-family="sans-serif" font-size="13" lengthAdjust="spacingAndGlyphs" textLength="21" x="585.5" y="375.4951">has</text><polygon fill="#000000" points="591.5,384.3516,594.5,390.3516,597.5,384.3516,591.5,384.3516" style="stroke: #000000; stroke-width: 1.0;"/><text fill="#000000" font-family="sans-serif" font-size="13" lengthAdjust="spacingAndGlyphs" textLength="7" x="607.0734" y="365.2404">1</text><text fill="#000000" font-family="sans-serif" font-size="13" lengthAdjust="spacingAndGlyphs" textLength="7" x="607.0078" y="385.5441">1</text><!--MD5=[0507ac7b636f02fa6724071ad73bc3bf]
@startuml

skinparam classAttributeIconSize 0

left to right direction

class RegistOrganizationUI {

}

class RegistOrganizationController {
    + newOrganization(name, NIF)
    + getOrganization()
    + registOrganization()
}

class Platform {
    + getRegistOrganizations()
    + getAlgorithmPasswordGenerator()
    + getFacadeAutorization()
}

class RegistOrganization {
    + Organization newOrganization(name, NIF)
    + validatesOrganization(org)
    + getOrganization()
    + registOrganization(org)
    - addOrganization(org)
    + registManagerAsUser(manager)
    + sendPassword(email, password)
    + registCollaboratorAsUser(collab)
}

class Organization {
    - String name
    - String NIF
    + Organization(name, NIF)
    + Manager newManager(name, email)
    + Collaborator newCollaborator(name, email)
}

class Manager {
    - String name
    - String email
    + String getName()
    + String getEmail()
}

Interface ExternAlgorithmPasswordGenerator << interface >>{
    + String generatePassword(name, email)
}

class FacadeAutorization {
    + registUser(name, email, password)
}

class Collaborator {
    - String name
    - String email
    + String getName()
    + String getEmail()
}

RegistOrganizationUI ..> RegistOrganizationController
RegistOrganizationController ..> RegistOrganization
RegistOrganizationController ..> Organization
RegistOrganizationController..> Platform
RegistOrganization ..> FacadeAutorization
RegistOrganization ..> ExternAlgorithmPasswordGenerator
RegistOrganization "1" -> "*" Organization : has registered
Organization "1" -> "1" Manager : has >
Organization "1" -> "1" Collaborator : has >

@enduml

PlantUML version 1.2020.07(Sun Apr 19 12:42:40 BST 2020)
(GPL source distribution)
Java Runtime: OpenJDK Runtime Environment
JVM: OpenJDK 64-Bit Server VM
Java Version: 11.0.6+8-b765.40
Operating System: Windows 10
Default Encoding: Cp1252
Language: pt
Country: PT
--></g></svg>