<?xml version="1.0" encoding="UTF-8" standalone="no"?><svg xmlns="http://www.w3.org/2000/svg" xmlns:xlink="http://www.w3.org/1999/xlink" contentScriptType="application/ecmascript" contentStyleType="text/css" height="363px" preserveAspectRatio="none" style="width:709px;height:363px;" version="1.1" viewBox="0 0 709 363" width="709px" zoomAndPan="magnify"><defs><filter height="300%" id="f1qh7onxgadfie" width="300%" x="-1" y="-1"><feGaussianBlur result="blurOut" stdDeviation="2.0"/><feColorMatrix in="blurOut" result="blurOut2" type="matrix" values="0 0 0 0 0 0 0 0 0 0 0 0 0 0 0 0 0 0 .4 0"/><feOffset dx="4.0" dy="4.0" in="blurOut2" result="blurOut3"/><feBlend in="SourceGraphic" in2="blurOut3" mode="normal"/></filter></defs><g><!--MD5=[4d548a0442e1badb0a0dbe1ee5d5c4f7]
class ExternAlgorithmPasswordGenerator--><rect fill="#FEFECE" filter="url(#f1qh7onxgadfie)" height="62.0234" id="ExternAlgorithmPasswordGenerator" style="stroke: #A80036; stroke-width: 1.5;" width="228" x="240.5" y="14.5"/><ellipse cx="255.5" cy="34.5938" fill="#B4A7E5" rx="11" ry="11" style="stroke: #A80036; stroke-width: 1.0;"/><path d="M256.5,31.5938 L256.5,37.5938 L258.5,37.5938 L258.9844,37.5938 L259.5,38.2188 L259.5,38.5938 L259.5,38.9688 L258.9844,39.5938 L258.5,39.5938 L252.5,39.5938 L252.0156,39.5938 L251.5,38.9688 L251.5,38.5938 L251.5,38.2188 L252.0156,37.5938 L252.5,37.5938 L254.5,37.5938 L254.5,31.5938 L252.5,31.5938 L252.0156,31.5938 L251.5,30.9688 L251.5,30.5938 L251.5,30.2188 L252.0156,29.5938 L252.5,29.5938 L258.5,29.5938 L258.9844,29.5938 L259.5,30.2188 L259.5,30.5938 L259.5,30.9688 L258.9844,31.5938 L258.5,31.5938 L256.5,31.5938 Z "/><text fill="#000000" font-family="sans-serif" font-size="12" font-style="italic" lengthAdjust="spacingAndGlyphs" textLength="61" x="337" y="31.957">«interface»</text><text fill="#000000" font-family="sans-serif" font-size="12" font-style="italic" lengthAdjust="spacingAndGlyphs" textLength="196" x="269.5" y="47.0508">ExternAlgorithmPasswordGenerator</text><line style="stroke: #A80036; stroke-width: 1.5;" x1="241.5" x2="467.5" y1="54.6875" y2="54.6875"/><text fill="#000000" font-family="sans-serif" font-size="11" lengthAdjust="spacingAndGlyphs" textLength="194" x="246.5" y="70.1064">+String generatePassword(name, email)</text><path d="M6,8 L6,83.4063 A0,0 0 0 0 6,83.4063 L205,83.4063 A0,0 0 0 0 205,83.4063 L205,49.5 L240.482,45.5 L205,41.5 L205,18 L195,8 L6,8 A0,0 0 0 0 6,8 " fill="#FBFB77" filter="url(#f1qh7onxgadfie)" style="stroke: #A80036; stroke-width: 1.0;"/><path d="M195,8 L195,18 L205,18 L195,8 " fill="#FBFB77" style="stroke: #A80036; stroke-width: 1.0;"/><text fill="#000000" font-family="sans-serif" font-size="13" lengthAdjust="spacingAndGlyphs" textLength="168" x="12" y="26.4951">This interface will be targeted</text><text fill="#000000" font-family="sans-serif" font-size="13" lengthAdjust="spacingAndGlyphs" textLength="162" x="12" y="42.8467">of multiple implementations,</text><text fill="#000000" font-family="sans-serif" font-size="13" lengthAdjust="spacingAndGlyphs" textLength="178" x="12" y="59.1982">one for each external algorithm</text><text fill="#000000" font-family="sans-serif" font-size="13" lengthAdjust="spacingAndGlyphs" textLength="145" x="12" y="75.5498">that has to be supported.</text><!--MD5=[38251375e96ad8345b412f5abd353179]
class AlgorithmPasswordGeneratorAdapter1--><rect fill="#FEFECE" filter="url(#f1qh7onxgadfie)" height="53.8359" id="AlgorithmPasswordGeneratorAdapter1" style="stroke: #A80036; stroke-width: 1.5;" width="268" x="55.5" y="143"/><ellipse cx="81.3" cy="159" fill="#ADD1B2" rx="11" ry="11" style="stroke: #A80036; stroke-width: 1.0;"/><path d="M83.3,155.5 Q83.5031,155 83.7375,154.75 Q83.9719,154.5 84.2375,154.5 Q84.7063,154.5 85.0031,154.7813 Q85.3,155.0625 85.3,155.7188 L85.3,157.2813 Q85.3,157.9375 85.0188,158.2188 Q84.7375,158.5 84.3,158.5 Q83.9094,158.5 83.6594,158.3281 Q83.4094,158.1563 83.3,157.7031 Q83.2531,157.3906 83.0813,157.2188 Q82.7688,156.8906 82.2063,156.7031 Q81.6438,156.5 81.0813,156.5 Q80.3781,156.5 79.7844,156.7813 Q79.2063,157.0625 78.7531,157.6875 Q78.3,158.3125 78.3,159.1719 L78.3,160.0938 Q78.3,161.125 79.1438,161.8125 Q79.9875,162.5 81.4875,162.5 Q82.3781,162.5 83.0031,162.2969 Q83.3625,162.1875 83.7688,161.8281 Q84.0344,161.625 84.175,161.5625 Q84.3156,161.5 84.4875,161.5 Q84.8156,161.5 85.05,161.7656 Q85.3,162.0156 85.3,162.375 Q85.3,162.7188 84.9563,163.125 Q84.4563,163.7188 83.6594,164.0469 Q82.6125,164.5 81.3313,164.5 Q79.8313,164.5 78.6281,163.9063 Q77.6594,163.4375 76.9719,162.4219 Q76.3,161.4063 76.3,160.2031 L76.3,159.1094 Q76.3,157.8594 76.8938,156.7656 Q77.5031,155.6719 78.55,155.0938 Q79.6125,154.5 80.8,154.5 Q81.5188,154.5 82.1438,154.75 Q82.7688,155 83.3,155.5 Z "/><text fill="#000000" font-family="sans-serif" font-size="12" lengthAdjust="spacingAndGlyphs" textLength="212" x="97.7" y="163.9102">AlgorithmPasswordGeneratorAdapter1</text><line style="stroke: #A80036; stroke-width: 1.5;" x1="56.5" x2="322.5" y1="175" y2="175"/><text fill="#000000" font-family="sans-serif" font-size="11" lengthAdjust="spacingAndGlyphs" textLength="256" x="61.5" y="190.4189">+String generatePassword(String name, String email)</text><!--MD5=[2cc39665afc822a2d77b2c5274402c29]
class ExternAlgorithm1API--><rect fill="#FEFECE" filter="url(#f1qh7onxgadfie)" height="67.6719" id="ExternAlgorithm1API" style="stroke: #A80036; stroke-width: 1.5;" width="315" x="18" y="270.5"/><ellipse cx="115.75" cy="286.5" fill="#ADD1B2" rx="11" ry="11" style="stroke: #A80036; stroke-width: 1.0;"/><path d="M117.75,283 Q117.9531,282.5 118.1875,282.25 Q118.4219,282 118.6875,282 Q119.1563,282 119.4531,282.2813 Q119.75,282.5625 119.75,283.2188 L119.75,284.7813 Q119.75,285.4375 119.4688,285.7188 Q119.1875,286 118.75,286 Q118.3594,286 118.1094,285.8281 Q117.8594,285.6563 117.75,285.2031 Q117.7031,284.8906 117.5313,284.7188 Q117.2188,284.3906 116.6563,284.2031 Q116.0938,284 115.5313,284 Q114.8281,284 114.2344,284.2813 Q113.6563,284.5625 113.2031,285.1875 Q112.75,285.8125 112.75,286.6719 L112.75,287.5938 Q112.75,288.625 113.5938,289.3125 Q114.4375,290 115.9375,290 Q116.8281,290 117.4531,289.7969 Q117.8125,289.6875 118.2188,289.3281 Q118.4844,289.125 118.625,289.0625 Q118.7656,289 118.9375,289 Q119.2656,289 119.5,289.2656 Q119.75,289.5156 119.75,289.875 Q119.75,290.2188 119.4063,290.625 Q118.9063,291.2188 118.1094,291.5469 Q117.0625,292 115.7813,292 Q114.2813,292 113.0781,291.4063 Q112.1094,290.9375 111.4219,289.9219 Q110.75,288.9063 110.75,287.7031 L110.75,286.6094 Q110.75,285.3594 111.3438,284.2656 Q111.9531,283.1719 113,282.5938 Q114.0625,282 115.25,282 Q115.9688,282 116.5938,282.25 Q117.2188,282.5 117.75,283 Z "/><text fill="#000000" font-family="sans-serif" font-size="12" lengthAdjust="spacingAndGlyphs" textLength="111" x="136.25" y="291.4102">ExternAlgorithm1API</text><line style="stroke: #A80036; stroke-width: 1.5;" x1="19" x2="332" y1="302.5" y2="302.5"/><text fill="#000000" font-family="sans-serif" font-size="11" lengthAdjust="spacingAndGlyphs" textLength="131" x="24" y="317.9189">+String randomPassword()</text><text fill="#000000" font-family="sans-serif" font-size="11" lengthAdjust="spacingAndGlyphs" textLength="303" x="24" y="331.7549">+String randomPassword(Integer minChars, Integer maxChars)</text><!--MD5=[67577be9c30b90e9ae5abc4c68f464f8]
class AlgorithmPasswordGeneratorAdapter2--><rect fill="#FEFECE" filter="url(#f1qh7onxgadfie)" height="53.8359" id="AlgorithmPasswordGeneratorAdapter2" style="stroke: #A80036; stroke-width: 1.5;" width="268" x="385.5" y="143"/><ellipse cx="411.3" cy="159" fill="#ADD1B2" rx="11" ry="11" style="stroke: #A80036; stroke-width: 1.0;"/><path d="M413.3,155.5 Q413.5031,155 413.7375,154.75 Q413.9719,154.5 414.2375,154.5 Q414.7063,154.5 415.0031,154.7813 Q415.3,155.0625 415.3,155.7188 L415.3,157.2813 Q415.3,157.9375 415.0188,158.2188 Q414.7375,158.5 414.3,158.5 Q413.9094,158.5 413.6594,158.3281 Q413.4094,158.1563 413.3,157.7031 Q413.2531,157.3906 413.0813,157.2188 Q412.7688,156.8906 412.2063,156.7031 Q411.6438,156.5 411.0813,156.5 Q410.3781,156.5 409.7844,156.7813 Q409.2063,157.0625 408.7531,157.6875 Q408.3,158.3125 408.3,159.1719 L408.3,160.0938 Q408.3,161.125 409.1438,161.8125 Q409.9875,162.5 411.4875,162.5 Q412.3781,162.5 413.0031,162.2969 Q413.3625,162.1875 413.7688,161.8281 Q414.0344,161.625 414.175,161.5625 Q414.3156,161.5 414.4875,161.5 Q414.8156,161.5 415.05,161.7656 Q415.3,162.0156 415.3,162.375 Q415.3,162.7188 414.9563,163.125 Q414.4563,163.7188 413.6594,164.0469 Q412.6125,164.5 411.3313,164.5 Q409.8313,164.5 408.6281,163.9063 Q407.6594,163.4375 406.9719,162.4219 Q406.3,161.4063 406.3,160.2031 L406.3,159.1094 Q406.3,157.8594 406.8938,156.7656 Q407.5031,155.6719 408.55,155.0938 Q409.6125,154.5 410.8,154.5 Q411.5188,154.5 412.1438,154.75 Q412.7688,155 413.3,155.5 Z "/><text fill="#000000" font-family="sans-serif" font-size="12" lengthAdjust="spacingAndGlyphs" textLength="212" x="427.7" y="163.9102">AlgorithmPasswordGeneratorAdapter2</text><line style="stroke: #A80036; stroke-width: 1.5;" x1="386.5" x2="652.5" y1="175" y2="175"/><text fill="#000000" font-family="sans-serif" font-size="11" lengthAdjust="spacingAndGlyphs" textLength="256" x="391.5" y="190.4189">+String generatePassword(String name, String email)</text><!--MD5=[bd84c5fdb95c0c5cbeb52473b93dd9c3]
class ExternAlgorithm2API--><rect fill="#FEFECE" filter="url(#f1qh7onxgadfie)" height="95.3438" id="ExternAlgorithm2API" style="stroke: #A80036; stroke-width: 1.5;" width="330" x="368.5" y="257"/><ellipse cx="473.75" cy="273" fill="#ADD1B2" rx="11" ry="11" style="stroke: #A80036; stroke-width: 1.0;"/><path d="M475.75,269.5 Q475.9531,269 476.1875,268.75 Q476.4219,268.5 476.6875,268.5 Q477.1563,268.5 477.4531,268.7813 Q477.75,269.0625 477.75,269.7188 L477.75,271.2813 Q477.75,271.9375 477.4688,272.2188 Q477.1875,272.5 476.75,272.5 Q476.3594,272.5 476.1094,272.3281 Q475.8594,272.1563 475.75,271.7031 Q475.7031,271.3906 475.5313,271.2188 Q475.2188,270.8906 474.6563,270.7031 Q474.0938,270.5 473.5313,270.5 Q472.8281,270.5 472.2344,270.7813 Q471.6563,271.0625 471.2031,271.6875 Q470.75,272.3125 470.75,273.1719 L470.75,274.0938 Q470.75,275.125 471.5938,275.8125 Q472.4375,276.5 473.9375,276.5 Q474.8281,276.5 475.4531,276.2969 Q475.8125,276.1875 476.2188,275.8281 Q476.4844,275.625 476.625,275.5625 Q476.7656,275.5 476.9375,275.5 Q477.2656,275.5 477.5,275.7656 Q477.75,276.0156 477.75,276.375 Q477.75,276.7188 477.4063,277.125 Q476.9063,277.7188 476.1094,278.0469 Q475.0625,278.5 473.7813,278.5 Q472.2813,278.5 471.0781,277.9063 Q470.1094,277.4375 469.4219,276.4219 Q468.75,275.4063 468.75,274.2031 L468.75,273.1094 Q468.75,271.8594 469.3438,270.7656 Q469.9531,269.6719 471,269.0938 Q472.0625,268.5 473.25,268.5 Q473.9688,268.5 474.5938,268.75 Q475.2188,269 475.75,269.5 Z "/><text fill="#000000" font-family="sans-serif" font-size="12" lengthAdjust="spacingAndGlyphs" textLength="111" x="494.25" y="277.9102">ExternAlgorithm2API</text><line style="stroke: #A80036; stroke-width: 1.5;" x1="369.5" x2="697.5" y1="289" y2="289"/><text fill="#000000" font-family="sans-serif" font-size="11" lengthAdjust="spacingAndGlyphs" textLength="160" x="374.5" y="304.4189">+Password generatePassword()</text><text fill="#000000" font-family="sans-serif" font-size="11" lengthAdjust="spacingAndGlyphs" textLength="242" x="374.5" y="318.2549">+Password generatePassword(String feedChars)</text><text fill="#000000" font-family="sans-serif" font-size="11" lengthAdjust="spacingAndGlyphs" textLength="230" x="374.5" y="332.0908">+Pasword generatePassword(Integer strength)</text><text fill="#000000" font-family="sans-serif" font-size="11" lengthAdjust="spacingAndGlyphs" textLength="318" x="374.5" y="345.9268">+Pasword generatePassword(Integer strength, String feedChars)</text><!--MD5=[5828793f7f117755287f1206ff4166b3]
reverse link ExternAlgorithmPasswordGenerator to AlgorithmPasswordGeneratorAdapter1--><path d="M297.606,88.739 C273.419,106.697 245.971,127.074 224.786,142.803 " fill="none" id="ExternAlgorithmPasswordGenerator&lt;-AlgorithmPasswordGeneratorAdapter1" style="stroke: #A80036; stroke-width: 1.0; stroke-dasharray: 7.0,7.0;"/><polygon fill="none" points="293.483,83.083,313.713,76.781,301.828,94.323,293.483,83.083" style="stroke: #A80036; stroke-width: 1.0;"/><!--MD5=[744de63ca76cb9470013175943508022]
link AlgorithmPasswordGeneratorAdapter1 to ExternAlgorithm1API--><path d="M186.734,197.178 C184.683,216.588 181.856,243.35 179.55,265.1674 " fill="none" id="AlgorithmPasswordGeneratorAdapter1-&gt;ExternAlgorithm1API" style="stroke: #A80036; stroke-width: 1.0;"/><polygon fill="#A80036" points="179.007,270.3131,183.9308,261.7834,179.5325,265.3408,175.9751,260.9425,179.007,270.3131" style="stroke: #A80036; stroke-width: 1.0;"/><!--MD5=[bb94a7bd63dc19a1796c95c85d980795]
reverse link ExternAlgorithmPasswordGenerator to AlgorithmPasswordGeneratorAdapter2--><path d="M411.394,88.739 C435.581,106.697 463.029,127.074 484.214,142.803 " fill="none" id="ExternAlgorithmPasswordGenerator&lt;-AlgorithmPasswordGeneratorAdapter2" style="stroke: #A80036; stroke-width: 1.0; stroke-dasharray: 7.0,7.0;"/><polygon fill="none" points="407.172,94.323,395.287,76.781,415.517,83.083,407.172,94.323" style="stroke: #A80036; stroke-width: 1.0;"/><!--MD5=[e1fddd7485769fabd727d03d6612b251]
link AlgorithmPasswordGeneratorAdapter2 to ExternAlgorithm2API--><path d="M522.266,197.178 C523.912,212.758 526.059,233.074 528.034,251.768 " fill="none" id="AlgorithmPasswordGeneratorAdapter2-&gt;ExternAlgorithm2API" style="stroke: #A80036; stroke-width: 1.0;"/><polygon fill="#A80036" points="528.586,256.9921,531.6185,247.6217,528.0608,252.0198,523.6627,248.4621,528.586,256.9921" style="stroke: #A80036; stroke-width: 1.0;"/><!--MD5=[27995a7453d65557c1facbe37185fce1]
@startuml

skinparam classAttributeIconSize 0
hide attributes

note left of ExternAlgorithmPasswordGenerator
This interface will be targeted
of multiple implementations,
one for each external algorithm
that has to be supported.
end note

interface ExternAlgorithmPasswordGenerator  << interface >>
{
 + String generatePassword(name, email)
}


class AlgorithmPasswordGeneratorAdapter1
{
+String generatePassword(String name, String email)
}

class ExternAlgorithm1API
{
    +String randomPassword()
    +String randomPassword(Integer minChars, Integer maxChars)
}

ExternAlgorithmPasswordGenerator <|.. AlgorithmPasswordGeneratorAdapter1
AlgorithmPasswordGeneratorAdapter1 -d->  ExternAlgorithm1API

class AlgorithmPasswordGeneratorAdapter2
{
+String generatePassword(String name, String email)
}

class ExternAlgorithm2API
{
    +Password generatePassword()
    +Password generatePassword(String feedChars)
    +Pasword generatePassword(Integer strength)
    +Pasword generatePassword(Integer strength, String feedChars)
}

ExternAlgorithmPasswordGenerator <|.. AlgorithmPasswordGeneratorAdapter2
AlgorithmPasswordGeneratorAdapter2 -d->  ExternAlgorithm2API


@enduml

PlantUML version 1.2020.07(Sun Apr 19 12:42:40 BST 2020)
(GPL source distribution)
Java Runtime: OpenJDK Runtime Environment
JVM: OpenJDK 64-Bit Server VM
Java Version: 11.0.6+8-b765.40
Operating System: Windows 10
Default Encoding: Cp1252
Language: pt
Country: PT
--></g></svg>