<?xml version="1.0" encoding="UTF-8" standalone="no"?><svg xmlns="http://www.w3.org/2000/svg" xmlns:xlink="http://www.w3.org/1999/xlink" contentScriptType="application/ecmascript" contentStyleType="text/css" height="759px" preserveAspectRatio="none" style="width:1026px;height:759px;" version="1.1" viewBox="0 0 1026 759" width="1026px" zoomAndPan="magnify"><defs><filter height="300%" id="f1egawqi9f2twd" width="300%" x="-1" y="-1"><feGaussianBlur result="blurOut" stdDeviation="2.0"/><feColorMatrix in="blurOut" result="blurOut2" type="matrix" values="0 0 0 0 0 0 0 0 0 0 0 0 0 0 0 0 0 0 .4 0"/><feOffset dx="4.0" dy="4.0" in="blurOut2" result="blurOut3"/><feBlend in="SourceGraphic" in2="blurOut3" mode="normal"/></filter></defs><g><!--MD5=[234319eec65dce97214bce33ac959acb]
class RegistOrganizationUI--><rect fill="#FEFECE" filter="url(#f1egawqi9f2twd)" height="48" id="RegistOrganizationUI" style="stroke: #A80036; stroke-width: 1.5;" width="149" x="6" y="254"/><ellipse cx="21" cy="270" fill="#ADD1B2" rx="11" ry="11" style="stroke: #A80036; stroke-width: 1.0;"/><path d="M23,266.5 Q23.2031,266 23.4375,265.75 Q23.6719,265.5 23.9375,265.5 Q24.4063,265.5 24.7031,265.7813 Q25,266.0625 25,266.7188 L25,268.2813 Q25,268.9375 24.7188,269.2188 Q24.4375,269.5 24,269.5 Q23.6094,269.5 23.3594,269.3281 Q23.1094,269.1563 23,268.7031 Q22.9531,268.3906 22.7813,268.2188 Q22.4688,267.8906 21.9063,267.7031 Q21.3438,267.5 20.7813,267.5 Q20.0781,267.5 19.4844,267.7813 Q18.9063,268.0625 18.4531,268.6875 Q18,269.3125 18,270.1719 L18,271.0938 Q18,272.125 18.8438,272.8125 Q19.6875,273.5 21.1875,273.5 Q22.0781,273.5 22.7031,273.2969 Q23.0625,273.1875 23.4688,272.8281 Q23.7344,272.625 23.875,272.5625 Q24.0156,272.5 24.1875,272.5 Q24.5156,272.5 24.75,272.7656 Q25,273.0156 25,273.375 Q25,273.7188 24.6563,274.125 Q24.1563,274.7188 23.3594,275.0469 Q22.3125,275.5 21.0313,275.5 Q19.5313,275.5 18.3281,274.9063 Q17.3594,274.4375 16.6719,273.4219 Q16,272.4063 16,271.2031 L16,270.1094 Q16,268.8594 16.5938,267.7656 Q17.2031,266.6719 18.25,266.0938 Q19.3125,265.5 20.5,265.5 Q21.2188,265.5 21.8438,265.75 Q22.4688,266 23,266.5 Z "/><text fill="#000000" font-family="sans-serif" font-size="12" lengthAdjust="spacingAndGlyphs" textLength="117" x="35" y="274.9102">RegistOrganizationUI</text><line style="stroke: #A80036; stroke-width: 1.5;" x1="7" x2="154" y1="286" y2="286"/><line style="stroke: #A80036; stroke-width: 1.5;" x1="7" x2="154" y1="294" y2="294"/><!--MD5=[e03aa8c19959ac7f1f5e28215ab298cb]
class RegistOrganizationController--><rect fill="#FEFECE" filter="url(#f1egawqi9f2twd)" height="89.5078" id="RegistOrganizationController" style="stroke: #A80036; stroke-width: 1.5;" width="191" x="216" y="233"/><ellipse cx="231" cy="249" fill="#ADD1B2" rx="11" ry="11" style="stroke: #A80036; stroke-width: 1.0;"/><path d="M233,245.5 Q233.2031,245 233.4375,244.75 Q233.6719,244.5 233.9375,244.5 Q234.4063,244.5 234.7031,244.7813 Q235,245.0625 235,245.7188 L235,247.2813 Q235,247.9375 234.7188,248.2188 Q234.4375,248.5 234,248.5 Q233.6094,248.5 233.3594,248.3281 Q233.1094,248.1563 233,247.7031 Q232.9531,247.3906 232.7813,247.2188 Q232.4688,246.8906 231.9063,246.7031 Q231.3438,246.5 230.7813,246.5 Q230.0781,246.5 229.4844,246.7813 Q228.9063,247.0625 228.4531,247.6875 Q228,248.3125 228,249.1719 L228,250.0938 Q228,251.125 228.8438,251.8125 Q229.6875,252.5 231.1875,252.5 Q232.0781,252.5 232.7031,252.2969 Q233.0625,252.1875 233.4688,251.8281 Q233.7344,251.625 233.875,251.5625 Q234.0156,251.5 234.1875,251.5 Q234.5156,251.5 234.75,251.7656 Q235,252.0156 235,252.375 Q235,252.7188 234.6563,253.125 Q234.1563,253.7188 233.3594,254.0469 Q232.3125,254.5 231.0313,254.5 Q229.5313,254.5 228.3281,253.9063 Q227.3594,253.4375 226.6719,252.4219 Q226,251.4063 226,250.2031 L226,249.1094 Q226,247.8594 226.5938,246.7656 Q227.2031,245.6719 228.25,245.0938 Q229.3125,244.5 230.5,244.5 Q231.2188,244.5 231.8438,244.75 Q232.4688,245 233,245.5 Z "/><text fill="#000000" font-family="sans-serif" font-size="12" lengthAdjust="spacingAndGlyphs" textLength="159" x="245" y="253.9102">RegistOrganizationController</text><line style="stroke: #A80036; stroke-width: 1.5;" x1="217" x2="406" y1="265" y2="265"/><line style="stroke: #A80036; stroke-width: 1.5;" x1="217" x2="406" y1="273" y2="273"/><text fill="#000000" font-family="sans-serif" font-size="11" lengthAdjust="spacingAndGlyphs" textLength="123" x="222" y="288.4189">+newOrganization(name)</text><text fill="#000000" font-family="sans-serif" font-size="11" lengthAdjust="spacingAndGlyphs" textLength="90" x="222" y="302.2549">+getOrganization()</text><text fill="#000000" font-family="sans-serif" font-size="11" lengthAdjust="spacingAndGlyphs" textLength="102" x="222" y="316.0908">+registOrganization()</text><!--MD5=[99b8db98afdc2c8404e39242ef4c1e65]
class Platform--><rect fill="#FEFECE" filter="url(#f1egawqi9f2twd)" height="89.5078" id="Platform" style="stroke: #A80036; stroke-width: 1.5;" width="185" x="522" y="659"/><ellipse cx="587.25" cy="675" fill="#ADD1B2" rx="11" ry="11" style="stroke: #A80036; stroke-width: 1.0;"/><path d="M589.25,671.5 Q589.4531,671 589.6875,670.75 Q589.9219,670.5 590.1875,670.5 Q590.6563,670.5 590.9531,670.7813 Q591.25,671.0625 591.25,671.7188 L591.25,673.2813 Q591.25,673.9375 590.9688,674.2188 Q590.6875,674.5 590.25,674.5 Q589.8594,674.5 589.6094,674.3281 Q589.3594,674.1563 589.25,673.7031 Q589.2031,673.3906 589.0313,673.2188 Q588.7188,672.8906 588.1563,672.7031 Q587.5938,672.5 587.0313,672.5 Q586.3281,672.5 585.7344,672.7813 Q585.1563,673.0625 584.7031,673.6875 Q584.25,674.3125 584.25,675.1719 L584.25,676.0938 Q584.25,677.125 585.0938,677.8125 Q585.9375,678.5 587.4375,678.5 Q588.3281,678.5 588.9531,678.2969 Q589.3125,678.1875 589.7188,677.8281 Q589.9844,677.625 590.125,677.5625 Q590.2656,677.5 590.4375,677.5 Q590.7656,677.5 591,677.7656 Q591.25,678.0156 591.25,678.375 Q591.25,678.7188 590.9063,679.125 Q590.4063,679.7188 589.6094,680.0469 Q588.5625,680.5 587.2813,680.5 Q585.7813,680.5 584.5781,679.9063 Q583.6094,679.4375 582.9219,678.4219 Q582.25,677.4063 582.25,676.2031 L582.25,675.1094 Q582.25,673.8594 582.8438,672.7656 Q583.4531,671.6719 584.5,671.0938 Q585.5625,670.5 586.75,670.5 Q587.4688,670.5 588.0938,670.75 Q588.7188,671 589.25,671.5 Z "/><text fill="#000000" font-family="sans-serif" font-size="12" lengthAdjust="spacingAndGlyphs" textLength="46" x="607.75" y="679.9102">Platform</text><line style="stroke: #A80036; stroke-width: 1.5;" x1="523" x2="706" y1="691" y2="691"/><line style="stroke: #A80036; stroke-width: 1.5;" x1="523" x2="706" y1="699" y2="699"/><text fill="#000000" font-family="sans-serif" font-size="11" lengthAdjust="spacingAndGlyphs" textLength="126" x="528" y="714.4189">+getRegistOrganizations()</text><text fill="#000000" font-family="sans-serif" font-size="11" lengthAdjust="spacingAndGlyphs" textLength="173" x="528" y="728.2549">+getAlgorithmPasswordGenerator()</text><text fill="#000000" font-family="sans-serif" font-size="11" lengthAdjust="spacingAndGlyphs" textLength="123" x="528" y="742.0908">+getFacadeAutorization()</text><!--MD5=[e09e0019787cf83947156283bb671e06]
class RegistOrganization--><rect fill="#FEFECE" filter="url(#f1egawqi9f2twd)" height="158.6875" id="RegistOrganization" style="stroke: #A80036; stroke-width: 1.5;" width="199" x="515" y="14.5"/><ellipse cx="557.9" cy="30.5" fill="#ADD1B2" rx="11" ry="11" style="stroke: #A80036; stroke-width: 1.0;"/><path d="M559.9,27 Q560.1031,26.5 560.3375,26.25 Q560.5719,26 560.8375,26 Q561.3063,26 561.6031,26.2813 Q561.9,26.5625 561.9,27.2188 L561.9,28.7813 Q561.9,29.4375 561.6188,29.7188 Q561.3375,30 560.9,30 Q560.5094,30 560.2594,29.8281 Q560.0094,29.6563 559.9,29.2031 Q559.8531,28.8906 559.6813,28.7188 Q559.3688,28.3906 558.8063,28.2031 Q558.2438,28 557.6813,28 Q556.9781,28 556.3844,28.2813 Q555.8063,28.5625 555.3531,29.1875 Q554.9,29.8125 554.9,30.6719 L554.9,31.5938 Q554.9,32.625 555.7438,33.3125 Q556.5875,34 558.0875,34 Q558.9781,34 559.6031,33.7969 Q559.9625,33.6875 560.3688,33.3281 Q560.6344,33.125 560.775,33.0625 Q560.9156,33 561.0875,33 Q561.4156,33 561.65,33.2656 Q561.9,33.5156 561.9,33.875 Q561.9,34.2188 561.5563,34.625 Q561.0563,35.2188 560.2594,35.5469 Q559.2125,36 557.9313,36 Q556.4313,36 555.2281,35.4063 Q554.2594,34.9375 553.5719,33.9219 Q552.9,32.9063 552.9,31.7031 L552.9,30.6094 Q552.9,29.3594 553.4938,28.2656 Q554.1031,27.1719 555.15,26.5938 Q556.2125,26 557.4,26 Q558.1188,26 558.7438,26.25 Q559.3688,26.5 559.9,27 Z "/><text fill="#000000" font-family="sans-serif" font-size="12" lengthAdjust="spacingAndGlyphs" textLength="105" x="578.1" y="35.4102">RegistOrganization</text><line style="stroke: #A80036; stroke-width: 1.5;" x1="516" x2="713" y1="46.5" y2="46.5"/><line style="stroke: #A80036; stroke-width: 1.5;" x1="516" x2="713" y1="54.5" y2="54.5"/><text fill="#000000" font-family="sans-serif" font-size="11" lengthAdjust="spacingAndGlyphs" textLength="187" x="521" y="69.9189">+Organization newOrganization(name)</text><text fill="#000000" font-family="sans-serif" font-size="11" lengthAdjust="spacingAndGlyphs" textLength="134" x="521" y="83.7549">+validatesOrganization(org)</text><text fill="#000000" font-family="sans-serif" font-size="11" lengthAdjust="spacingAndGlyphs" textLength="90" x="521" y="97.5908">+getOrganization()</text><text fill="#000000" font-family="sans-serif" font-size="11" lengthAdjust="spacingAndGlyphs" textLength="118" x="521" y="111.4268">+registOrganization(org)</text><text fill="#000000" font-family="sans-serif" font-size="11" lengthAdjust="spacingAndGlyphs" textLength="107" x="521" y="125.2627">-addOrganization(org)</text><text fill="#000000" font-family="sans-serif" font-size="11" lengthAdjust="spacingAndGlyphs" textLength="162" x="521" y="139.0986">+registManagerAsUser(manager)</text><text fill="#000000" font-family="sans-serif" font-size="11" lengthAdjust="spacingAndGlyphs" textLength="168" x="521" y="152.9346">+sendPassword(email, password)</text><text fill="#000000" font-family="sans-serif" font-size="11" lengthAdjust="spacingAndGlyphs" textLength="164" x="521" y="166.7705">+registCollaboratorAsUser(collab)</text><!--MD5=[86c7c362de55a38b660185a1328fe18d]
class Organization--><rect fill="#FEFECE" filter="url(#f1egawqi9f2twd)" height="103.3438" id="Organization" style="stroke: #A80036; stroke-width: 1.5;" width="223" x="503" y="226.5"/><ellipse cx="575.75" cy="242.5" fill="#ADD1B2" rx="11" ry="11" style="stroke: #A80036; stroke-width: 1.0;"/><path d="M577.75,239 Q577.9531,238.5 578.1875,238.25 Q578.4219,238 578.6875,238 Q579.1563,238 579.4531,238.2813 Q579.75,238.5625 579.75,239.2188 L579.75,240.7813 Q579.75,241.4375 579.4688,241.7188 Q579.1875,242 578.75,242 Q578.3594,242 578.1094,241.8281 Q577.8594,241.6563 577.75,241.2031 Q577.7031,240.8906 577.5313,240.7188 Q577.2188,240.3906 576.6563,240.2031 Q576.0938,240 575.5313,240 Q574.8281,240 574.2344,240.2813 Q573.6563,240.5625 573.2031,241.1875 Q572.75,241.8125 572.75,242.6719 L572.75,243.5938 Q572.75,244.625 573.5938,245.3125 Q574.4375,246 575.9375,246 Q576.8281,246 577.4531,245.7969 Q577.8125,245.6875 578.2188,245.3281 Q578.4844,245.125 578.625,245.0625 Q578.7656,245 578.9375,245 Q579.2656,245 579.5,245.2656 Q579.75,245.5156 579.75,245.875 Q579.75,246.2188 579.4063,246.625 Q578.9063,247.2188 578.1094,247.5469 Q577.0625,248 575.7813,248 Q574.2813,248 573.0781,247.4063 Q572.1094,246.9375 571.4219,245.9219 Q570.75,244.9063 570.75,243.7031 L570.75,242.6094 Q570.75,241.3594 571.3438,240.2656 Q571.9531,239.1719 573,238.5938 Q574.0625,238 575.25,238 Q575.9688,238 576.5938,238.25 Q577.2188,238.5 577.75,239 Z "/><text fill="#000000" font-family="sans-serif" font-size="12" lengthAdjust="spacingAndGlyphs" textLength="69" x="596.25" y="247.4102">Organization</text><line style="stroke: #A80036; stroke-width: 1.5;" x1="504" x2="725" y1="258.5" y2="258.5"/><text fill="#000000" font-family="sans-serif" font-size="11" lengthAdjust="spacingAndGlyphs" textLength="61" x="509" y="273.9189">-String name</text><line style="stroke: #A80036; stroke-width: 1.5;" x1="504" x2="725" y1="280.3359" y2="280.3359"/><text fill="#000000" font-family="sans-serif" font-size="11" lengthAdjust="spacingAndGlyphs" textLength="101" x="509" y="295.7549">+Organization(name)</text><text fill="#000000" font-family="sans-serif" font-size="11" lengthAdjust="spacingAndGlyphs" textLength="179" x="509" y="309.5908">+Manager newManager(name, email)</text><text fill="#000000" font-family="sans-serif" font-size="11" lengthAdjust="spacingAndGlyphs" textLength="211" x="509" y="323.4268">+Collaborator newCollaborator(name, email)</text><!--MD5=[b24ed8d4ae84bae9290d9aab401637c7]
class Manager--><rect fill="#FEFECE" filter="url(#f1egawqi9f2twd)" height="103.3438" id="Manager" style="stroke: #A80036; stroke-width: 1.5;" width="99" x="565" y="520.5"/><ellipse cx="588.55" cy="536.5" fill="#ADD1B2" rx="11" ry="11" style="stroke: #A80036; stroke-width: 1.0;"/><path d="M590.55,533 Q590.7531,532.5 590.9875,532.25 Q591.2219,532 591.4875,532 Q591.9563,532 592.2531,532.2813 Q592.55,532.5625 592.55,533.2188 L592.55,534.7813 Q592.55,535.4375 592.2688,535.7188 Q591.9875,536 591.55,536 Q591.1594,536 590.9094,535.8281 Q590.6594,535.6563 590.55,535.2031 Q590.5031,534.8906 590.3313,534.7188 Q590.0188,534.3906 589.4563,534.2031 Q588.8938,534 588.3313,534 Q587.6281,534 587.0344,534.2813 Q586.4563,534.5625 586.0031,535.1875 Q585.55,535.8125 585.55,536.6719 L585.55,537.5938 Q585.55,538.625 586.3938,539.3125 Q587.2375,540 588.7375,540 Q589.6281,540 590.2531,539.7969 Q590.6125,539.6875 591.0188,539.3281 Q591.2844,539.125 591.425,539.0625 Q591.5656,539 591.7375,539 Q592.0656,539 592.3,539.2656 Q592.55,539.5156 592.55,539.875 Q592.55,540.2188 592.2063,540.625 Q591.7063,541.2188 590.9094,541.5469 Q589.8625,542 588.5813,542 Q587.0813,542 585.8781,541.4063 Q584.9094,540.9375 584.2219,539.9219 Q583.55,538.9063 583.55,537.7031 L583.55,536.6094 Q583.55,535.3594 584.1438,534.2656 Q584.7531,533.1719 585.8,532.5938 Q586.8625,532 588.05,532 Q588.7688,532 589.3938,532.25 Q590.0188,532.5 590.55,533 Z "/><text fill="#000000" font-family="sans-serif" font-size="12" lengthAdjust="spacingAndGlyphs" textLength="48" x="604.45" y="541.4102">Manager</text><line style="stroke: #A80036; stroke-width: 1.5;" x1="566" x2="663" y1="552.5" y2="552.5"/><text fill="#000000" font-family="sans-serif" font-size="11" lengthAdjust="spacingAndGlyphs" textLength="61" x="571" y="567.9189">-String name</text><text fill="#000000" font-family="sans-serif" font-size="11" lengthAdjust="spacingAndGlyphs" textLength="59" x="571" y="581.7549">-String email</text><line style="stroke: #A80036; stroke-width: 1.5;" x1="566" x2="663" y1="588.1719" y2="588.1719"/><text fill="#000000" font-family="sans-serif" font-size="11" lengthAdjust="spacingAndGlyphs" textLength="87" x="571" y="603.5908">+String getName()</text><text fill="#000000" font-family="sans-serif" font-size="11" lengthAdjust="spacingAndGlyphs" textLength="84" x="571" y="617.4268">+String getEmail()</text><!--MD5=[4d548a0442e1badb0a0dbe1ee5d5c4f7]
class ExternAlgorithmPasswordGenerator--><rect fill="#FEFECE" filter="url(#f1egawqi9f2twd)" height="70.0234" id="ExternAlgorithmPasswordGenerator" style="stroke: #A80036; stroke-width: 1.5;" width="228" x="787" y="8"/><ellipse cx="802" cy="28.0938" fill="#B4A7E5" rx="11" ry="11" style="stroke: #A80036; stroke-width: 1.0;"/><path d="M803,25.0938 L803,31.0938 L805,31.0938 L805.4844,31.0938 L806,31.7188 L806,32.0938 L806,32.4688 L805.4844,33.0938 L805,33.0938 L799,33.0938 L798.5156,33.0938 L798,32.4688 L798,32.0938 L798,31.7188 L798.5156,31.0938 L799,31.0938 L801,31.0938 L801,25.0938 L799,25.0938 L798.5156,25.0938 L798,24.4688 L798,24.0938 L798,23.7188 L798.5156,23.0938 L799,23.0938 L805,23.0938 L805.4844,23.0938 L806,23.7188 L806,24.0938 L806,24.4688 L805.4844,25.0938 L805,25.0938 L803,25.0938 Z "/><text fill="#000000" font-family="sans-serif" font-size="12" font-style="italic" lengthAdjust="spacingAndGlyphs" textLength="61" x="883.5" y="25.457">«interface»</text><text fill="#000000" font-family="sans-serif" font-size="12" font-style="italic" lengthAdjust="spacingAndGlyphs" textLength="196" x="816" y="40.5508">ExternAlgorithmPasswordGenerator</text><line style="stroke: #A80036; stroke-width: 1.5;" x1="788" x2="1014" y1="48.1875" y2="48.1875"/><line style="stroke: #A80036; stroke-width: 1.5;" x1="788" x2="1014" y1="56.1875" y2="56.1875"/><text fill="#000000" font-family="sans-serif" font-size="11" lengthAdjust="spacingAndGlyphs" textLength="194" x="793" y="71.6064">+String generatePassword(name, email)</text><!--MD5=[e2aca0b10af776de811a0a5eb9c054a8]
class FacadeAutorization--><rect fill="#FEFECE" filter="url(#f1egawqi9f2twd)" height="61.8359" id="FacadeAutorization" style="stroke: #A80036; stroke-width: 1.5;" width="188" x="807" y="113"/><ellipse cx="845.4" cy="129" fill="#ADD1B2" rx="11" ry="11" style="stroke: #A80036; stroke-width: 1.0;"/><path d="M847.4,125.5 Q847.6031,125 847.8375,124.75 Q848.0719,124.5 848.3375,124.5 Q848.8063,124.5 849.1031,124.7813 Q849.4,125.0625 849.4,125.7188 L849.4,127.2813 Q849.4,127.9375 849.1188,128.2188 Q848.8375,128.5 848.4,128.5 Q848.0094,128.5 847.7594,128.3281 Q847.5094,128.1563 847.4,127.7031 Q847.3531,127.3906 847.1813,127.2188 Q846.8688,126.8906 846.3063,126.7031 Q845.7438,126.5 845.1813,126.5 Q844.4781,126.5 843.8844,126.7813 Q843.3063,127.0625 842.8531,127.6875 Q842.4,128.3125 842.4,129.1719 L842.4,130.0938 Q842.4,131.125 843.2438,131.8125 Q844.0875,132.5 845.5875,132.5 Q846.4781,132.5 847.1031,132.2969 Q847.4625,132.1875 847.8688,131.8281 Q848.1344,131.625 848.275,131.5625 Q848.4156,131.5 848.5875,131.5 Q848.9156,131.5 849.15,131.7656 Q849.4,132.0156 849.4,132.375 Q849.4,132.7188 849.0563,133.125 Q848.5563,133.7188 847.7594,134.0469 Q846.7125,134.5 845.4313,134.5 Q843.9313,134.5 842.7281,133.9063 Q841.7594,133.4375 841.0719,132.4219 Q840.4,131.4063 840.4,130.2031 L840.4,129.1094 Q840.4,127.8594 840.9938,126.7656 Q841.6031,125.6719 842.65,125.0938 Q843.7125,124.5 844.9,124.5 Q845.6188,124.5 846.2438,124.75 Q846.8688,125 847.4,125.5 Z "/><text fill="#000000" font-family="sans-serif" font-size="12" lengthAdjust="spacingAndGlyphs" textLength="104" x="864.6" y="133.9102">FacadeAutorization</text><line style="stroke: #A80036; stroke-width: 1.5;" x1="808" x2="994" y1="145" y2="145"/><line style="stroke: #A80036; stroke-width: 1.5;" x1="808" x2="994" y1="153" y2="153"/><text fill="#000000" font-family="sans-serif" font-size="11" lengthAdjust="spacingAndGlyphs" textLength="176" x="813" y="168.4189">+registUser(name, email, password)</text><!--MD5=[f483d6e5de34a60207b28a5563be5e8b]
class Collaborator--><rect fill="#FEFECE" filter="url(#f1egawqi9f2twd)" height="103.3438" id="Collaborator" style="stroke: #A80036; stroke-width: 1.5;" width="100" x="564.5" y="382.5"/><ellipse cx="579.5" cy="398.5" fill="#ADD1B2" rx="11" ry="11" style="stroke: #A80036; stroke-width: 1.0;"/><path d="M581.5,395 Q581.7031,394.5 581.9375,394.25 Q582.1719,394 582.4375,394 Q582.9063,394 583.2031,394.2813 Q583.5,394.5625 583.5,395.2188 L583.5,396.7813 Q583.5,397.4375 583.2188,397.7188 Q582.9375,398 582.5,398 Q582.1094,398 581.8594,397.8281 Q581.6094,397.6563 581.5,397.2031 Q581.4531,396.8906 581.2813,396.7188 Q580.9688,396.3906 580.4063,396.2031 Q579.8438,396 579.2813,396 Q578.5781,396 577.9844,396.2813 Q577.4063,396.5625 576.9531,397.1875 Q576.5,397.8125 576.5,398.6719 L576.5,399.5938 Q576.5,400.625 577.3438,401.3125 Q578.1875,402 579.6875,402 Q580.5781,402 581.2031,401.7969 Q581.5625,401.6875 581.9688,401.3281 Q582.2344,401.125 582.375,401.0625 Q582.5156,401 582.6875,401 Q583.0156,401 583.25,401.2656 Q583.5,401.5156 583.5,401.875 Q583.5,402.2188 583.1563,402.625 Q582.6563,403.2188 581.8594,403.5469 Q580.8125,404 579.5313,404 Q578.0313,404 576.8281,403.4063 Q575.8594,402.9375 575.1719,401.9219 Q574.5,400.9063 574.5,399.7031 L574.5,398.6094 Q574.5,397.3594 575.0938,396.2656 Q575.7031,395.1719 576.75,394.5938 Q577.8125,394 579,394 Q579.7188,394 580.3438,394.25 Q580.9688,394.5 581.5,395 Z "/><text fill="#000000" font-family="sans-serif" font-size="12" lengthAdjust="spacingAndGlyphs" textLength="68" x="593.5" y="403.4102">Collaborator</text><line style="stroke: #A80036; stroke-width: 1.5;" x1="565.5" x2="663.5" y1="414.5" y2="414.5"/><text fill="#000000" font-family="sans-serif" font-size="11" lengthAdjust="spacingAndGlyphs" textLength="61" x="570.5" y="429.9189">-String name</text><text fill="#000000" font-family="sans-serif" font-size="11" lengthAdjust="spacingAndGlyphs" textLength="59" x="570.5" y="443.7549">-String email</text><line style="stroke: #A80036; stroke-width: 1.5;" x1="565.5" x2="663.5" y1="450.1719" y2="450.1719"/><text fill="#000000" font-family="sans-serif" font-size="11" lengthAdjust="spacingAndGlyphs" textLength="87" x="570.5" y="465.5908">+String getName()</text><text fill="#000000" font-family="sans-serif" font-size="11" lengthAdjust="spacingAndGlyphs" textLength="84" x="570.5" y="479.4268">+String getEmail()</text><!--MD5=[9d489c289d4e346f6e07a3431e5804e8]
link RegistOrganizationUI to RegistOrganizationController--><path d="M155.218,278 C172.906,278 192.087,278 210.738,278 " fill="none" id="RegistOrganizationUI-&gt;RegistOrganizationController" style="stroke: #A80036; stroke-width: 1.0; stroke-dasharray: 7.0,7.0;"/><polygon fill="#A80036" points="215.983,278,206.983,274,210.983,278,206.983,282,215.983,278" style="stroke: #A80036; stroke-width: 1.0;"/><!--MD5=[26677f82097ddef73535ed4399242291]
link RegistOrganizationController to RegistOrganization--><path d="M386.133,232.989 C423.496,210.148 469.5,182.027 510.329,157.068 " fill="none" id="RegistOrganizationController-&gt;RegistOrganization" style="stroke: #A80036; stroke-width: 1.0; stroke-dasharray: 7.0,7.0;"/><polygon fill="#A80036" points="514.771,154.352,505.006,155.6348,510.5054,156.9605,509.1797,162.4598,514.771,154.352" style="stroke: #A80036; stroke-width: 1.0;"/><!--MD5=[4e402fbe6d5742c1b052c631dbc42b19]
link RegistOrganizationController to Organization--><path d="M407.325,278 C435.995,278 467.803,278 497.682,278 " fill="none" id="RegistOrganizationController-&gt;Organization" style="stroke: #A80036; stroke-width: 1.0; stroke-dasharray: 7.0,7.0;"/><polygon fill="#A80036" points="502.848,278,493.848,274,497.848,278,493.848,282,502.848,278" style="stroke: #A80036; stroke-width: 1.0;"/><!--MD5=[5f24b9e410cd57157f4e3b8f516d0838]
link RegistOrganizationController to Platform--><path d="M326.814,323.22 C352.146,397.299 411.04,545.775 503,641 C508.048,646.227 513.624,651.1514 519.509,655.7643 " fill="none" id="RegistOrganizationController-&gt;Platform" style="stroke: #A80036; stroke-width: 1.0; stroke-dasharray: 7.0,7.0;"/><polygon fill="#A80036" points="523.629,658.908,518.8999,650.2688,519.6538,655.8752,514.0474,656.6291,523.629,658.908" style="stroke: #A80036; stroke-width: 1.0;"/><!--MD5=[38f7f6da25b5e44d4a08d05bb502c396]
link RegistOrganization to FacadeAutorization--><path d="M714.206,111.347 C742.459,116.313 773.248,121.724 801.489,126.687 " fill="none" id="RegistOrganization-&gt;FacadeAutorization" style="stroke: #A80036; stroke-width: 1.0; stroke-dasharray: 7.0,7.0;"/><polygon fill="#A80036" points="806.732,127.608,798.5605,122.1101,801.8075,126.7423,797.1753,129.9892,806.732,127.608" style="stroke: #A80036; stroke-width: 1.0;"/><!--MD5=[77ca69f230c444bafe2c0d1074a7a406]
link RegistOrganization to ExternAlgorithmPasswordGenerator--><path d="M714.206,76.306 C735.99,72.401 759.281,68.225 781.75,64.198 " fill="none" id="RegistOrganization-&gt;ExternAlgorithmPasswordGenerator" style="stroke: #A80036; stroke-width: 1.0; stroke-dasharray: 7.0,7.0;"/><polygon fill="#A80036" points="786.833,63.286,777.2681,60.938,781.9116,64.1689,778.6807,68.8123,786.833,63.286" style="stroke: #A80036; stroke-width: 1.0;"/><!--MD5=[b2767384522f615c85a28d92ddf7f4b1]
link RegistOrganization to Organization--><path d="M614.5,173.549 C614.5,189.587 614.5,206.138 614.5,221.206 " fill="none" id="RegistOrganization-&gt;Organization" style="stroke: #A80036; stroke-width: 1.0;"/><polygon fill="#A80036" points="614.5,226.256,618.5,217.256,614.5,221.256,610.5,217.256,614.5,226.256" style="stroke: #A80036; stroke-width: 1.0;"/><text fill="#000000" font-family="sans-serif" font-size="13" lengthAdjust="spacingAndGlyphs" textLength="82" x="561.5" y="205.4951">has registered</text><text fill="#000000" font-family="sans-serif" font-size="13" lengthAdjust="spacingAndGlyphs" textLength="7" x="607.1992" y="194.5964">1</text><text fill="#000000" font-family="sans-serif" font-size="13" lengthAdjust="spacingAndGlyphs" textLength="5" x="609.1641" y="215.7235">*</text><!--MD5=[bc039f41cf0b27fadee5cae63fc6e1fe]
link Organization to Manager--><path d="M530.065,329.515 C502.086,351.975 475.021,381.194 463,416 C443.021,473.848 509.093,520.987 560.248,547.783 " fill="none" id="Organization-&gt;Manager" style="stroke: #A80036; stroke-width: 1.0;"/><polygon fill="#A80036" points="564.836,550.154,558.6776,542.468,560.3943,547.8581,555.0042,549.5748,564.836,550.154" style="stroke: #A80036; stroke-width: 1.0;"/><text fill="#000000" font-family="sans-serif" font-size="13" lengthAdjust="spacingAndGlyphs" textLength="21" x="438" y="430.4951">has</text><polygon fill="#000000" points="444,439.3516,447,445.3516,450,439.3516,444,439.3516" style="stroke: #000000; stroke-width: 1.0;"/><text fill="#000000" font-family="sans-serif" font-size="13" lengthAdjust="spacingAndGlyphs" textLength="7" x="510.6991" y="351.38">1</text><text fill="#000000" font-family="sans-serif" font-size="13" lengthAdjust="spacingAndGlyphs" textLength="7" x="550.0275" y="561.6161">1</text><!--MD5=[45817597bcd7048073a670d966abfd17]
link Organization to Collaborator--><path d="M614.5,329.725 C614.5,344.968 614.5,361.728 614.5,377.268 " fill="none" id="Organization-&gt;Collaborator" style="stroke: #A80036; stroke-width: 1.0;"/><polygon fill="#A80036" points="614.5,382.487,618.5,373.487,614.5,377.487,610.5,373.487,614.5,382.487" style="stroke: #A80036; stroke-width: 1.0;"/><text fill="#000000" font-family="sans-serif" font-size="13" lengthAdjust="spacingAndGlyphs" textLength="21" x="585.5" y="361.4951">has</text><polygon fill="#000000" points="591.5,370.3516,594.5,376.3516,597.5,370.3516,591.5,370.3516" style="stroke: #000000; stroke-width: 1.0;"/><text fill="#000000" font-family="sans-serif" font-size="13" lengthAdjust="spacingAndGlyphs" textLength="7" x="607.0297" y="351.2462">1</text><text fill="#000000" font-family="sans-serif" font-size="13" lengthAdjust="spacingAndGlyphs" textLength="7" x="607.0078" y="371.6137">1</text><!--MD5=[625afdfc52ed88ad6a7e42845dafc549]
@startuml

skinparam classAttributeIconSize 0

left to right direction

class RegistOrganizationUI {

}

class RegistOrganizationController {
    + newOrganization(name)
    + getOrganization()
    + registOrganization()
}

class Platform {
    + getRegistOrganizations()
    + getAlgorithmPasswordGenerator()
    + getFacadeAutorization()
}

class RegistOrganization {
    + Organization newOrganization(name)
    + validatesOrganization(org)
    + getOrganization()
    + registOrganization(org)
    - addOrganization(org)
    + registManagerAsUser(manager)
    + sendPassword(email, password)
    + registCollaboratorAsUser(collab)
}

class Organization {
    - String name
    + Organization(name)
    + Manager newManager(name, email)
    + Collaborator newCollaborator(name, email)
}

class Manager {
    - String name
    - String email
    + String getName()
    + String getEmail()
}

Interface ExternAlgorithmPasswordGenerator << interface >>{
    + String generatePassword(name, email)
}

class FacadeAutorization {
    + registUser(name, email, password)
}

class Collaborator {
    - String name
    - String email
    + String getName()
    + String getEmail()
}

RegistOrganizationUI ..> RegistOrganizationController
RegistOrganizationController ..> RegistOrganization
RegistOrganizationController ..> Organization
RegistOrganizationController..> Platform
RegistOrganization ..> FacadeAutorization
RegistOrganization ..> ExternAlgorithmPasswordGenerator
RegistOrganization "1" -> "*" Organization : has registered
Organization "1" -> "1" Manager : has >
Organization "1" -> "1" Collaborator : has >

@enduml

PlantUML version 1.2020.07(Sun Apr 19 12:42:40 BST 2020)
(GPL source distribution)
Java Runtime: OpenJDK Runtime Environment
JVM: OpenJDK 64-Bit Server VM
Java Version: 11.0.6+8-b765.40
Operating System: Windows 10
Default Encoding: Cp1252
Language: pt
Country: PT
--></g></svg>