<?xml version="1.0" encoding="UTF-8" standalone="no"?><svg xmlns="http://www.w3.org/2000/svg" xmlns:xlink="http://www.w3.org/1999/xlink" contentScriptType="application/ecmascript" contentStyleType="text/css" height="286px" preserveAspectRatio="none" style="width:1239px;height:286px;" version="1.1" viewBox="0 0 1239 286" width="1239px" zoomAndPan="magnify"><defs><filter height="300%" id="fb4euqa08nvio" width="300%" x="-1" y="-1"><feGaussianBlur result="blurOut" stdDeviation="2.0"/><feColorMatrix in="blurOut" result="blurOut2" type="matrix" values="0 0 0 0 0 0 0 0 0 0 0 0 0 0 0 0 0 0 .4 0"/><feOffset dx="4.0" dy="4.0" in="blurOut2" result="blurOut3"/><feBlend in="SourceGraphic" in2="blurOut3" mode="normal"/></filter></defs><g><!--MD5=[03dcba4cf8fb1a884adf843655d65df1]
class Plataform--><rect fill="#FEFECE" filter="url(#fb4euqa08nvio)" height="53.8359" id="Plataform" style="stroke: #A80036; stroke-width: 1.5;" width="113" x="6" y="179"/><ellipse cx="33.6" cy="195" fill="#ADD1B2" rx="11" ry="11" style="stroke: #A80036; stroke-width: 1.0;"/><path d="M35.6,191.5 Q35.8031,191 36.0375,190.75 Q36.2719,190.5 36.5375,190.5 Q37.0063,190.5 37.3031,190.7813 Q37.6,191.0625 37.6,191.7188 L37.6,193.2813 Q37.6,193.9375 37.3188,194.2188 Q37.0375,194.5 36.6,194.5 Q36.2094,194.5 35.9594,194.3281 Q35.7094,194.1563 35.6,193.7031 Q35.5531,193.3906 35.3813,193.2188 Q35.0688,192.8906 34.5063,192.7031 Q33.9438,192.5 33.3813,192.5 Q32.6781,192.5 32.0844,192.7813 Q31.5063,193.0625 31.0531,193.6875 Q30.6,194.3125 30.6,195.1719 L30.6,196.0938 Q30.6,197.125 31.4438,197.8125 Q32.2875,198.5 33.7875,198.5 Q34.6781,198.5 35.3031,198.2969 Q35.6625,198.1875 36.0688,197.8281 Q36.3344,197.625 36.475,197.5625 Q36.6156,197.5 36.7875,197.5 Q37.1156,197.5 37.35,197.7656 Q37.6,198.0156 37.6,198.375 Q37.6,198.7188 37.2563,199.125 Q36.7563,199.7188 35.9594,200.0469 Q34.9125,200.5 33.6313,200.5 Q32.1313,200.5 30.9281,199.9063 Q29.9594,199.4375 29.2719,198.4219 Q28.6,197.4063 28.6,196.2031 L28.6,195.1094 Q28.6,193.8594 29.1938,192.7656 Q29.8031,191.6719 30.85,191.0938 Q31.9125,190.5 33.1,190.5 Q33.8188,190.5 34.4438,190.75 Q35.0688,191 35.6,191.5 Z "/><text fill="#000000" font-family="sans-serif" font-size="12" lengthAdjust="spacingAndGlyphs" textLength="53" x="50.4" y="199.9102">Plataform</text><line style="stroke: #A80036; stroke-width: 1.5;" x1="7" x2="118" y1="211" y2="211"/><rect fill="none" height="6" style="stroke: #C82930; stroke-width: 1.0;" width="6" x="14" y="219"/><text fill="#000000" font-family="sans-serif" font-size="11" lengthAdjust="spacingAndGlyphs" textLength="87" x="26" y="226.4189">String designacao</text><!--MD5=[da547346deef918ea16944ba046651ef]
class Administrator--><rect fill="#FEFECE" filter="url(#fb4euqa08nvio)" height="53.8359" id="Administrator" style="stroke: #A80036; stroke-width: 1.5;" width="105" x="222" y="129"/><ellipse cx="237" cy="145" fill="#ADD1B2" rx="11" ry="11" style="stroke: #A80036; stroke-width: 1.0;"/><path d="M239,141.5 Q239.2031,141 239.4375,140.75 Q239.6719,140.5 239.9375,140.5 Q240.4063,140.5 240.7031,140.7813 Q241,141.0625 241,141.7188 L241,143.2813 Q241,143.9375 240.7188,144.2188 Q240.4375,144.5 240,144.5 Q239.6094,144.5 239.3594,144.3281 Q239.1094,144.1563 239,143.7031 Q238.9531,143.3906 238.7813,143.2188 Q238.4688,142.8906 237.9063,142.7031 Q237.3438,142.5 236.7813,142.5 Q236.0781,142.5 235.4844,142.7813 Q234.9063,143.0625 234.4531,143.6875 Q234,144.3125 234,145.1719 L234,146.0938 Q234,147.125 234.8438,147.8125 Q235.6875,148.5 237.1875,148.5 Q238.0781,148.5 238.7031,148.2969 Q239.0625,148.1875 239.4688,147.8281 Q239.7344,147.625 239.875,147.5625 Q240.0156,147.5 240.1875,147.5 Q240.5156,147.5 240.75,147.7656 Q241,148.0156 241,148.375 Q241,148.7188 240.6563,149.125 Q240.1563,149.7188 239.3594,150.0469 Q238.3125,150.5 237.0313,150.5 Q235.5313,150.5 234.3281,149.9063 Q233.3594,149.4375 232.6719,148.4219 Q232,147.4063 232,146.2031 L232,145.1094 Q232,143.8594 232.5938,142.7656 Q233.2031,141.6719 234.25,141.0938 Q235.3125,140.5 236.5,140.5 Q237.2188,140.5 237.8438,140.75 Q238.4688,141 239,141.5 Z "/><text fill="#000000" font-family="sans-serif" font-size="12" lengthAdjust="spacingAndGlyphs" textLength="73" x="251" y="149.9102">Administrator</text><line style="stroke: #A80036; stroke-width: 1.5;" x1="223" x2="326" y1="161" y2="161"/><rect fill="none" height="6" style="stroke: #C82930; stroke-width: 1.0;" width="6" x="230" y="169"/><text fill="#000000" font-family="sans-serif" font-size="11" lengthAdjust="spacingAndGlyphs" textLength="57" x="242" y="176.4189">String name</text><!--MD5=[86c7c362de55a38b660185a1328fe18d]
class Organization--><rect fill="#FEFECE" filter="url(#fb4euqa08nvio)" height="53.8359" id="Organization" style="stroke: #A80036; stroke-width: 1.5;" width="101" x="605" y="67"/><ellipse cx="620" cy="83" fill="#ADD1B2" rx="11" ry="11" style="stroke: #A80036; stroke-width: 1.0;"/><path d="M622,79.5 Q622.2031,79 622.4375,78.75 Q622.6719,78.5 622.9375,78.5 Q623.4063,78.5 623.7031,78.7813 Q624,79.0625 624,79.7188 L624,81.2813 Q624,81.9375 623.7188,82.2188 Q623.4375,82.5 623,82.5 Q622.6094,82.5 622.3594,82.3281 Q622.1094,82.1563 622,81.7031 Q621.9531,81.3906 621.7813,81.2188 Q621.4688,80.8906 620.9063,80.7031 Q620.3438,80.5 619.7813,80.5 Q619.0781,80.5 618.4844,80.7813 Q617.9063,81.0625 617.4531,81.6875 Q617,82.3125 617,83.1719 L617,84.0938 Q617,85.125 617.8438,85.8125 Q618.6875,86.5 620.1875,86.5 Q621.0781,86.5 621.7031,86.2969 Q622.0625,86.1875 622.4688,85.8281 Q622.7344,85.625 622.875,85.5625 Q623.0156,85.5 623.1875,85.5 Q623.5156,85.5 623.75,85.7656 Q624,86.0156 624,86.375 Q624,86.7188 623.6563,87.125 Q623.1563,87.7188 622.3594,88.0469 Q621.3125,88.5 620.0313,88.5 Q618.5313,88.5 617.3281,87.9063 Q616.3594,87.4375 615.6719,86.4219 Q615,85.4063 615,84.2031 L615,83.1094 Q615,81.8594 615.5938,80.7656 Q616.2031,79.6719 617.25,79.0938 Q618.3125,78.5 619.5,78.5 Q620.2188,78.5 620.8438,78.75 Q621.4688,79 622,79.5 Z "/><text fill="#000000" font-family="sans-serif" font-size="12" lengthAdjust="spacingAndGlyphs" textLength="69" x="634" y="87.9102">Organization</text><line style="stroke: #A80036; stroke-width: 1.5;" x1="606" x2="705" y1="99" y2="99"/><rect fill="none" height="6" style="stroke: #C82930; stroke-width: 1.0;" width="6" x="613" y="107"/><text fill="#000000" font-family="sans-serif" font-size="11" lengthAdjust="spacingAndGlyphs" textLength="57" x="625" y="114.4189">String name</text><!--MD5=[b24ed8d4ae84bae9290d9aab401637c7]
class Manager--><rect fill="#FEFECE" filter="url(#fb4euqa08nvio)" height="67.6719" id="Manager" style="stroke: #A80036; stroke-width: 1.5;" width="83" x="905.5" y="134"/><ellipse cx="921.85" cy="150" fill="#ADD1B2" rx="11" ry="11" style="stroke: #A80036; stroke-width: 1.0;"/><path d="M923.85,146.5 Q924.0531,146 924.2875,145.75 Q924.5219,145.5 924.7875,145.5 Q925.2563,145.5 925.5531,145.7813 Q925.85,146.0625 925.85,146.7188 L925.85,148.2813 Q925.85,148.9375 925.5688,149.2188 Q925.2875,149.5 924.85,149.5 Q924.4594,149.5 924.2094,149.3281 Q923.9594,149.1563 923.85,148.7031 Q923.8031,148.3906 923.6313,148.2188 Q923.3188,147.8906 922.7563,147.7031 Q922.1938,147.5 921.6313,147.5 Q920.9281,147.5 920.3344,147.7813 Q919.7563,148.0625 919.3031,148.6875 Q918.85,149.3125 918.85,150.1719 L918.85,151.0938 Q918.85,152.125 919.6938,152.8125 Q920.5375,153.5 922.0375,153.5 Q922.9281,153.5 923.5531,153.2969 Q923.9125,153.1875 924.3188,152.8281 Q924.5844,152.625 924.725,152.5625 Q924.8656,152.5 925.0375,152.5 Q925.3656,152.5 925.6,152.7656 Q925.85,153.0156 925.85,153.375 Q925.85,153.7188 925.5063,154.125 Q925.0063,154.7188 924.2094,155.0469 Q923.1625,155.5 921.8813,155.5 Q920.3813,155.5 919.1781,154.9063 Q918.2094,154.4375 917.5219,153.4219 Q916.85,152.4063 916.85,151.2031 L916.85,150.1094 Q916.85,148.8594 917.4438,147.7656 Q918.0531,146.6719 919.1,146.0938 Q920.1625,145.5 921.35,145.5 Q922.0688,145.5 922.6938,145.75 Q923.3188,146 923.85,146.5 Z "/><text fill="#000000" font-family="sans-serif" font-size="12" lengthAdjust="spacingAndGlyphs" textLength="48" x="936.15" y="154.9102">Manager</text><line style="stroke: #A80036; stroke-width: 1.5;" x1="906.5" x2="987.5" y1="166" y2="166"/><rect fill="none" height="6" style="stroke: #C82930; stroke-width: 1.0;" width="6" x="913.5" y="174"/><text fill="#000000" font-family="sans-serif" font-size="11" lengthAdjust="spacingAndGlyphs" textLength="57" x="925.5" y="181.4189">String name</text><rect fill="none" height="6" style="stroke: #C82930; stroke-width: 1.0;" width="6" x="913.5" y="187.8359"/><text fill="#000000" font-family="sans-serif" font-size="11" lengthAdjust="spacingAndGlyphs" textLength="55" x="925.5" y="195.2549">String email</text><!--MD5=[f483d6e5de34a60207b28a5563be5e8b]
class Collaborator--><rect fill="#FEFECE" filter="url(#fb4euqa08nvio)" height="67.6719" id="Collaborator" style="stroke: #A80036; stroke-width: 1.5;" width="100" x="897" y="24"/><ellipse cx="912" cy="40" fill="#ADD1B2" rx="11" ry="11" style="stroke: #A80036; stroke-width: 1.0;"/><path d="M914,36.5 Q914.2031,36 914.4375,35.75 Q914.6719,35.5 914.9375,35.5 Q915.4063,35.5 915.7031,35.7813 Q916,36.0625 916,36.7188 L916,38.2813 Q916,38.9375 915.7188,39.2188 Q915.4375,39.5 915,39.5 Q914.6094,39.5 914.3594,39.3281 Q914.1094,39.1563 914,38.7031 Q913.9531,38.3906 913.7813,38.2188 Q913.4688,37.8906 912.9063,37.7031 Q912.3438,37.5 911.7813,37.5 Q911.0781,37.5 910.4844,37.7813 Q909.9063,38.0625 909.4531,38.6875 Q909,39.3125 909,40.1719 L909,41.0938 Q909,42.125 909.8438,42.8125 Q910.6875,43.5 912.1875,43.5 Q913.0781,43.5 913.7031,43.2969 Q914.0625,43.1875 914.4688,42.8281 Q914.7344,42.625 914.875,42.5625 Q915.0156,42.5 915.1875,42.5 Q915.5156,42.5 915.75,42.7656 Q916,43.0156 916,43.375 Q916,43.7188 915.6563,44.125 Q915.1563,44.7188 914.3594,45.0469 Q913.3125,45.5 912.0313,45.5 Q910.5313,45.5 909.3281,44.9063 Q908.3594,44.4375 907.6719,43.4219 Q907,42.4063 907,41.2031 L907,40.1094 Q907,38.8594 907.5938,37.7656 Q908.2031,36.6719 909.25,36.0938 Q910.3125,35.5 911.5,35.5 Q912.2188,35.5 912.8438,35.75 Q913.4688,36 914,36.5 Z "/><text fill="#000000" font-family="sans-serif" font-size="12" lengthAdjust="spacingAndGlyphs" textLength="68" x="926" y="44.9102">Collaborator</text><line style="stroke: #A80036; stroke-width: 1.5;" x1="898" x2="996" y1="56" y2="56"/><rect fill="none" height="6" style="stroke: #C82930; stroke-width: 1.0;" width="6" x="905" y="64"/><text fill="#000000" font-family="sans-serif" font-size="11" lengthAdjust="spacingAndGlyphs" textLength="57" x="917" y="71.4189">String name</text><rect fill="none" height="6" style="stroke: #C82930; stroke-width: 1.0;" width="6" x="905" y="77.8359"/><text fill="#000000" font-family="sans-serif" font-size="11" lengthAdjust="spacingAndGlyphs" textLength="55" x="917" y="85.2549">String email</text><!--MD5=[3fd616f346a44cd59a91eb10b19e157c]
class User--><rect fill="#FEFECE" filter="url(#fb4euqa08nvio)" height="81.5078" id="User" style="stroke: #A80036; stroke-width: 1.5;" width="107" x="1121" y="127"/><ellipse cx="1157.6" cy="143" fill="#ADD1B2" rx="11" ry="11" style="stroke: #A80036; stroke-width: 1.0;"/><path d="M1159.6,139.5 Q1159.8031,139 1160.0375,138.75 Q1160.2719,138.5 1160.5375,138.5 Q1161.0063,138.5 1161.3031,138.7813 Q1161.6,139.0625 1161.6,139.7188 L1161.6,141.2813 Q1161.6,141.9375 1161.3188,142.2188 Q1161.0375,142.5 1160.6,142.5 Q1160.2094,142.5 1159.9594,142.3281 Q1159.7094,142.1563 1159.6,141.7031 Q1159.5531,141.3906 1159.3813,141.2188 Q1159.0688,140.8906 1158.5063,140.7031 Q1157.9438,140.5 1157.3813,140.5 Q1156.6781,140.5 1156.0844,140.7813 Q1155.5063,141.0625 1155.0531,141.6875 Q1154.6,142.3125 1154.6,143.1719 L1154.6,144.0938 Q1154.6,145.125 1155.4438,145.8125 Q1156.2875,146.5 1157.7875,146.5 Q1158.6781,146.5 1159.3031,146.2969 Q1159.6625,146.1875 1160.0688,145.8281 Q1160.3344,145.625 1160.475,145.5625 Q1160.6156,145.5 1160.7875,145.5 Q1161.1156,145.5 1161.35,145.7656 Q1161.6,146.0156 1161.6,146.375 Q1161.6,146.7188 1161.2563,147.125 Q1160.7563,147.7188 1159.9594,148.0469 Q1158.9125,148.5 1157.6313,148.5 Q1156.1313,148.5 1154.9281,147.9063 Q1153.9594,147.4375 1153.2719,146.4219 Q1152.6,145.4063 1152.6,144.2031 L1152.6,143.1094 Q1152.6,141.8594 1153.1938,140.7656 Q1153.8031,139.6719 1154.85,139.0938 Q1155.9125,138.5 1157.1,138.5 Q1157.8188,138.5 1158.4438,138.75 Q1159.0688,139 1159.6,139.5 Z "/><text fill="#000000" font-family="sans-serif" font-size="12" lengthAdjust="spacingAndGlyphs" textLength="27" x="1176.4" y="147.9102">User</text><line style="stroke: #A80036; stroke-width: 1.5;" x1="1122" x2="1227" y1="159" y2="159"/><rect fill="none" height="6" style="stroke: #C82930; stroke-width: 1.0;" width="6" x="1129" y="167"/><text fill="#000000" font-family="sans-serif" font-size="11" lengthAdjust="spacingAndGlyphs" textLength="57" x="1141" y="174.4189">String name</text><rect fill="none" height="6" style="stroke: #C82930; stroke-width: 1.0;" width="6" x="1129" y="180.8359"/><text fill="#000000" font-family="sans-serif" font-size="11" lengthAdjust="spacingAndGlyphs" textLength="55" x="1141" y="188.2549">String email</text><rect fill="none" height="6" style="stroke: #C82930; stroke-width: 1.0;" width="6" x="1129" y="194.6719"/><text fill="#000000" font-family="sans-serif" font-size="11" lengthAdjust="spacingAndGlyphs" textLength="81" x="1141" y="202.0908">String password</text><!--MD5=[0660a924d0a21be2bc0650ec0b563948]
class ExternAlgorithPasswordGenerator--><rect fill="#FEFECE" filter="url(#fb4euqa08nvio)" height="40" id="ExternAlgorithPasswordGenerator" style="stroke: #A80036; stroke-width: 1.5;" width="218" x="357" y="235"/><ellipse cx="372" cy="251" fill="#ADD1B2" rx="11" ry="11" style="stroke: #A80036; stroke-width: 1.0;"/><path d="M374,247.5 Q374.2031,247 374.4375,246.75 Q374.6719,246.5 374.9375,246.5 Q375.4063,246.5 375.7031,246.7813 Q376,247.0625 376,247.7188 L376,249.2813 Q376,249.9375 375.7188,250.2188 Q375.4375,250.5 375,250.5 Q374.6094,250.5 374.3594,250.3281 Q374.1094,250.1563 374,249.7031 Q373.9531,249.3906 373.7813,249.2188 Q373.4688,248.8906 372.9063,248.7031 Q372.3438,248.5 371.7813,248.5 Q371.0781,248.5 370.4844,248.7813 Q369.9063,249.0625 369.4531,249.6875 Q369,250.3125 369,251.1719 L369,252.0938 Q369,253.125 369.8438,253.8125 Q370.6875,254.5 372.1875,254.5 Q373.0781,254.5 373.7031,254.2969 Q374.0625,254.1875 374.4688,253.8281 Q374.7344,253.625 374.875,253.5625 Q375.0156,253.5 375.1875,253.5 Q375.5156,253.5 375.75,253.7656 Q376,254.0156 376,254.375 Q376,254.7188 375.6563,255.125 Q375.1563,255.7188 374.3594,256.0469 Q373.3125,256.5 372.0313,256.5 Q370.5313,256.5 369.3281,255.9063 Q368.3594,255.4375 367.6719,254.4219 Q367,253.4063 367,252.2031 L367,251.1094 Q367,249.8594 367.5938,248.7656 Q368.2031,247.6719 369.25,247.0938 Q370.3125,246.5 371.5,246.5 Q372.2188,246.5 372.8438,246.75 Q373.4688,247 374,247.5 Z "/><text fill="#000000" font-family="sans-serif" font-size="12" lengthAdjust="spacingAndGlyphs" textLength="186" x="386" y="255.9102">ExternAlgorithPasswordGenerator</text><line style="stroke: #A80036; stroke-width: 1.5;" x1="358" x2="574" y1="267" y2="267"/><!--MD5=[02d7805ecfb1cadeecdf5ea4f23bad69]
link Plataform to Administrator--><path d="M119.225,192.7322 C151.061,185.1522 190.712,175.7113 221.845,168.299 " fill="none" id="Plataform-Administrator" style="stroke: #A80036; stroke-width: 1.0;"/><text fill="#000000" font-family="sans-serif" font-size="13" lengthAdjust="spacingAndGlyphs" textLength="21" x="153.5" y="173.4951">has</text><polygon fill="#000000" points="177.5,166.6758,183.5,169.6758,177.5,172.6758,177.5,166.6758" style="stroke: #000000; stroke-width: 1.0;"/><text fill="#000000" font-family="sans-serif" font-size="13" lengthAdjust="spacingAndGlyphs" textLength="7" x="126.9413" y="205.5854">1</text><text fill="#000000" font-family="sans-serif" font-size="13" lengthAdjust="spacingAndGlyphs" textLength="5" x="209.0888" y="184.6849">*</text><!--MD5=[2a41c1af413c0662bf55a6b8913ea24f]
link Administrator to Organization--><path d="M327.008,147.574 C400.072,135.621 532.912,113.89 604.912,102.112 " fill="none" id="Administrator-Organization" style="stroke: #A80036; stroke-width: 1.0;"/><text fill="#000000" font-family="sans-serif" font-size="13" lengthAdjust="spacingAndGlyphs" textLength="39" x="440" y="104.4951">regists</text><polygon fill="#000000" points="482,97.6758,488,100.6758,482,103.6758,482,97.6758" style="stroke: #000000; stroke-width: 1.0;"/><text fill="#000000" font-family="sans-serif" font-size="13" lengthAdjust="spacingAndGlyphs" textLength="7" x="334.8841" y="142.7955">1</text><text fill="#000000" font-family="sans-serif" font-size="13" lengthAdjust="spacingAndGlyphs" textLength="20" x="577.1492" y="117.7045">1..*</text><!--MD5=[64d713fdb760e3b6b59069371d93ba85]
link Administrator to Manager--><path d="M327.277,156.927 C456.136,159.233 789.193,165.194 905.33,167.272 " fill="none" id="Administrator-Manager" style="stroke: #A80036; stroke-width: 1.0;"/><text fill="#000000" font-family="sans-serif" font-size="13" lengthAdjust="spacingAndGlyphs" textLength="39" x="629.5" y="158.4951">regists</text><polygon fill="#000000" points="671.5,151.6758,677.5,154.6758,671.5,157.6758,671.5,151.6758" style="stroke: #000000; stroke-width: 1.0;"/><text fill="#000000" font-family="sans-serif" font-size="13" lengthAdjust="spacingAndGlyphs" textLength="7" x="334.8392" y="171.6563">1</text><text fill="#000000" font-family="sans-serif" font-size="13" lengthAdjust="spacingAndGlyphs" textLength="20" x="877.418" y="181.9327">1..*</text><!--MD5=[757406b2e460220911d4cccaa97c87d9]
link Administrator to Collaborator--><path d="M297.561,128.949 C312.532,112.556 333.773,92.786 357,82 C540.555,-3.239 791.986,28.889 896.903,47.923 " fill="none" id="Administrator-Collaborator" style="stroke: #A80036; stroke-width: 1.0;"/><text fill="#000000" font-family="sans-serif" font-size="13" lengthAdjust="spacingAndGlyphs" textLength="39" x="629.5" y="22.4951">regists</text><polygon fill="#000000" points="671.5,15.6758,677.5,18.6758,671.5,21.6758,671.5,15.6758" style="stroke: #000000; stroke-width: 1.0;"/><text fill="#000000" font-family="sans-serif" font-size="13" lengthAdjust="spacingAndGlyphs" textLength="7" x="295.329" y="117.9633">1</text><text fill="#000000" font-family="sans-serif" font-size="13" lengthAdjust="spacingAndGlyphs" textLength="20" x="868.8275" y="61.1847">1..*</text><!--MD5=[6eb6e197a729f6ec2412743e0bdbca1d]
link Manager to User--><path d="M988.575,168 C1025.6,168 1080.54,168 1120.92,168 " fill="none" id="Manager-User" style="stroke: #A80036; stroke-width: 1.0;"/><text fill="#000000" font-family="sans-serif" font-size="13" lengthAdjust="spacingAndGlyphs" textLength="49" x="1028" y="164.4951">acts like</text><polygon fill="#000000" points="1080,157.6758,1086,160.6758,1080,163.6758,1080,157.6758" style="stroke: #000000; stroke-width: 1.0;"/><text fill="#000000" font-family="sans-serif" font-size="13" lengthAdjust="spacingAndGlyphs" textLength="7" x="996.604" y="182.9807">1</text><text fill="#000000" font-family="sans-serif" font-size="13" lengthAdjust="spacingAndGlyphs" textLength="7" x="1105.8931" y="182.6794">1</text><!--MD5=[04ce0ecdab38a3951889ff50c232570f]
link Collaborator to User--><path d="M997.208,82.004 C1033.75,99.831 1083.52,124.108 1120.86,142.322 " fill="none" id="Collaborator-User" style="stroke: #A80036; stroke-width: 1.0;"/><text fill="#000000" font-family="sans-serif" font-size="13" lengthAdjust="spacingAndGlyphs" textLength="49" x="1028" y="93.4951">acts like</text><polygon fill="#000000" points="1080,86.6758,1086,89.6758,1080,92.6758,1080,86.6758" style="stroke: #000000; stroke-width: 1.0;"/><text fill="#000000" font-family="sans-serif" font-size="13" lengthAdjust="spacingAndGlyphs" textLength="7" x="1005.0964" y="100.2496">1</text><text fill="#000000" font-family="sans-serif" font-size="13" lengthAdjust="spacingAndGlyphs" textLength="7" x="1105.8247" y="153.3905">1</text><!--MD5=[0ec211c1eb747b6cd5edc280fe78a698]
link Plataform to ExternAlgorithPasswordGenerator--><path d="M119.327,212.8132 C180.521,220.2815 280.184,232.4446 356.811,241.7964 " fill="none" id="Plataform-ExternAlgorithPasswordGenerator" style="stroke: #A80036; stroke-width: 1.0;"/><text fill="#000000" font-family="sans-serif" font-size="13" lengthAdjust="spacingAndGlyphs" textLength="28" x="150" y="213.4951">uses</text><polygon fill="#000000" points="181,206.6758,187,209.6758,181,212.6758,181,206.6758" style="stroke: #000000; stroke-width: 1.0;"/><text fill="#000000" font-family="sans-serif" font-size="13" lengthAdjust="spacingAndGlyphs" textLength="7" x="127.0564" y="228.2393">1</text><text fill="#000000" font-family="sans-serif" font-size="13" lengthAdjust="spacingAndGlyphs" textLength="7" x="341.8876" y="254.938">1</text><!--MD5=[ed9d49979460e8e775efeafe3b6efe7a]
link ExternAlgorithPasswordGenerator to User--><path d="M575.186,254.8088 C682.892,252.9925 852.537,245.7252 997,220 C1039.46,212.4395 1086.22,198.3922 1120.94,186.8022 " fill="none" id="ExternAlgorithPasswordGenerator-User" style="stroke: #A80036; stroke-width: 1.0;"/><text fill="#000000" font-family="sans-serif" font-size="13" lengthAdjust="spacingAndGlyphs" textLength="116" x="737" y="234.4951">generates password</text><polygon fill="#000000" points="856,227.6758,862,230.6758,856,233.6758,856,227.6758" style="stroke: #000000; stroke-width: 1.0;"/><text fill="#000000" font-family="sans-serif" font-size="13" lengthAdjust="spacingAndGlyphs" textLength="7" x="583.1092" y="268.8653">1</text><text fill="#000000" font-family="sans-serif" font-size="13" lengthAdjust="spacingAndGlyphs" textLength="5" x="1108.0566" y="204.1257">*</text><!--MD5=[bc039f41cf0b27fadee5cae63fc6e1fe]
link Organization to Manager--><path d="M706.267,106.721 C762.526,121.102 853.059,144.243 905.284,157.592 " fill="none" id="Organization-Manager" style="stroke: #A80036; stroke-width: 1.0;"/><text fill="#000000" font-family="sans-serif" font-size="13" lengthAdjust="spacingAndGlyphs" textLength="21" x="784.5" y="112.4951">has</text><polygon fill="#000000" points="808.5,105.6758,814.5,108.6758,808.5,111.6758,808.5,105.6758" style="stroke: #000000; stroke-width: 1.0;"/><text fill="#000000" font-family="sans-serif" font-size="13" lengthAdjust="spacingAndGlyphs" textLength="7" x="713.8983" y="123.1663">1</text><text fill="#000000" font-family="sans-serif" font-size="13" lengthAdjust="spacingAndGlyphs" textLength="7" x="890.5125" y="151.9817">1</text><!--MD5=[45817597bcd7048073a670d966abfd17]
link Organization to Collaborator--><path d="M706.267,87.811 C759.616,81.177 843.785,70.711 896.883,64.108 " fill="none" id="Organization-Collaborator" style="stroke: #A80036; stroke-width: 1.0;"/><text fill="#000000" font-family="sans-serif" font-size="13" lengthAdjust="spacingAndGlyphs" textLength="21" x="784.5" y="65.4951">has</text><polygon fill="#000000" points="808.5,58.6758,814.5,61.6758,808.5,64.6758,808.5,58.6758" style="stroke: #000000; stroke-width: 1.0;"/><text fill="#000000" font-family="sans-serif" font-size="13" lengthAdjust="spacingAndGlyphs" textLength="7" x="713.8983" y="101.597">1</text><text fill="#000000" font-family="sans-serif" font-size="13" lengthAdjust="spacingAndGlyphs" textLength="7" x="882.008" y="79.7251">1</text><!--MD5=[a0d154a7679b78fc451183783ac4eb08]
@startuml

hide methods
left to right direction

class Plataform {
    - String designacao
}

class Administrator {
    - String name
}

class Organization {
    - String name
}

class Manager {
    - String name
    - String email
}

class Collaborator {
    - String name
    - String email
}

class User {
    - String name
    - String email
    - String password
}
class ExternAlgorithPasswordGenerator {

}

Plataform "1" - - "*" Administrator : has >
Administrator "1" - - "1..*" Organization : regists >
Administrator "1" - - "1..*" Manager : regists >
Administrator "1" - - "1..*" Collaborator : regists >
Manager "1" - - "1" User : acts like >
Collaborator "1" - - "1" User : acts like >
Plataform "1" - - "1" ExternAlgorithPasswordGenerator : uses >
ExternAlgorithPasswordGenerator "1" - - "*" User : generates password >
Organization "1" - - "1" Manager : has >
Organization "1" - - "1" Collaborator : has >

@enduml

PlantUML version 1.2020.07(Sun Apr 19 12:42:40 BST 2020)
(GPL source distribution)
Java Runtime: OpenJDK Runtime Environment
JVM: OpenJDK 64-Bit Server VM
Java Version: 11.0.6+8-b765.40
Operating System: Windows 10
Default Encoding: Cp1252
Language: pt
Country: PT
--></g></svg>