<?xml version="1.0" encoding="UTF-8" standalone="no"?><svg xmlns="http://www.w3.org/2000/svg" xmlns:xlink="http://www.w3.org/1999/xlink" contentScriptType="application/ecmascript" contentStyleType="text/css" height="294px" preserveAspectRatio="none" style="width:1250px;height:294px;" version="1.1" viewBox="0 0 1250 294" width="1250px" zoomAndPan="magnify"><defs><filter height="300%" id="f18cnvtqiguk0g" width="300%" x="-1" y="-1"><feGaussianBlur result="blurOut" stdDeviation="2.0"/><feColorMatrix in="blurOut" result="blurOut2" type="matrix" values="0 0 0 0 0 0 0 0 0 0 0 0 0 0 0 0 0 0 .4 0"/><feOffset dx="4.0" dy="4.0" in="blurOut2" result="blurOut3"/><feBlend in="SourceGraphic" in2="blurOut3" mode="normal"/></filter></defs><g><!--MD5=[99b8db98afdc2c8404e39242ef4c1e65]
class Platform--><rect fill="#FEFECE" filter="url(#f18cnvtqiguk0g)" height="53.8359" id="Platform" style="stroke: #A80036; stroke-width: 1.5;" width="113" x="6" y="187"/><ellipse cx="36.75" cy="203" fill="#ADD1B2" rx="11" ry="11" style="stroke: #A80036; stroke-width: 1.0;"/><path d="M38.75,199.5 Q38.9531,199 39.1875,198.75 Q39.4219,198.5 39.6875,198.5 Q40.1563,198.5 40.4531,198.7813 Q40.75,199.0625 40.75,199.7188 L40.75,201.2813 Q40.75,201.9375 40.4688,202.2188 Q40.1875,202.5 39.75,202.5 Q39.3594,202.5 39.1094,202.3281 Q38.8594,202.1563 38.75,201.7031 Q38.7031,201.3906 38.5313,201.2188 Q38.2188,200.8906 37.6563,200.7031 Q37.0938,200.5 36.5313,200.5 Q35.8281,200.5 35.2344,200.7813 Q34.6563,201.0625 34.2031,201.6875 Q33.75,202.3125 33.75,203.1719 L33.75,204.0938 Q33.75,205.125 34.5938,205.8125 Q35.4375,206.5 36.9375,206.5 Q37.8281,206.5 38.4531,206.2969 Q38.8125,206.1875 39.2188,205.8281 Q39.4844,205.625 39.625,205.5625 Q39.7656,205.5 39.9375,205.5 Q40.2656,205.5 40.5,205.7656 Q40.75,206.0156 40.75,206.375 Q40.75,206.7188 40.4063,207.125 Q39.9063,207.7188 39.1094,208.0469 Q38.0625,208.5 36.7813,208.5 Q35.2813,208.5 34.0781,207.9063 Q33.1094,207.4375 32.4219,206.4219 Q31.75,205.4063 31.75,204.2031 L31.75,203.1094 Q31.75,201.8594 32.3438,200.7656 Q32.9531,199.6719 34,199.0938 Q35.0625,198.5 36.25,198.5 Q36.9688,198.5 37.5938,198.75 Q38.2188,199 38.75,199.5 Z "/><text fill="#000000" font-family="sans-serif" font-size="12" lengthAdjust="spacingAndGlyphs" textLength="46" x="54.25" y="207.9102">Platform</text><line style="stroke: #A80036; stroke-width: 1.5;" x1="7" x2="118" y1="219" y2="219"/><rect fill="none" height="6" style="stroke: #C82930; stroke-width: 1.0;" width="6" x="14" y="227"/><text fill="#000000" font-family="sans-serif" font-size="11" lengthAdjust="spacingAndGlyphs" textLength="87" x="26" y="234.4189">String designacao</text><!--MD5=[da547346deef918ea16944ba046651ef]
class Administrator--><rect fill="#FEFECE" filter="url(#f18cnvtqiguk0g)" height="53.8359" id="Administrator" style="stroke: #A80036; stroke-width: 1.5;" width="105" x="222" y="137"/><ellipse cx="237" cy="153" fill="#ADD1B2" rx="11" ry="11" style="stroke: #A80036; stroke-width: 1.0;"/><path d="M239,149.5 Q239.2031,149 239.4375,148.75 Q239.6719,148.5 239.9375,148.5 Q240.4063,148.5 240.7031,148.7813 Q241,149.0625 241,149.7188 L241,151.2813 Q241,151.9375 240.7188,152.2188 Q240.4375,152.5 240,152.5 Q239.6094,152.5 239.3594,152.3281 Q239.1094,152.1563 239,151.7031 Q238.9531,151.3906 238.7813,151.2188 Q238.4688,150.8906 237.9063,150.7031 Q237.3438,150.5 236.7813,150.5 Q236.0781,150.5 235.4844,150.7813 Q234.9063,151.0625 234.4531,151.6875 Q234,152.3125 234,153.1719 L234,154.0938 Q234,155.125 234.8438,155.8125 Q235.6875,156.5 237.1875,156.5 Q238.0781,156.5 238.7031,156.2969 Q239.0625,156.1875 239.4688,155.8281 Q239.7344,155.625 239.875,155.5625 Q240.0156,155.5 240.1875,155.5 Q240.5156,155.5 240.75,155.7656 Q241,156.0156 241,156.375 Q241,156.7188 240.6563,157.125 Q240.1563,157.7188 239.3594,158.0469 Q238.3125,158.5 237.0313,158.5 Q235.5313,158.5 234.3281,157.9063 Q233.3594,157.4375 232.6719,156.4219 Q232,155.4063 232,154.2031 L232,153.1094 Q232,151.8594 232.5938,150.7656 Q233.2031,149.6719 234.25,149.0938 Q235.3125,148.5 236.5,148.5 Q237.2188,148.5 237.8438,148.75 Q238.4688,149 239,149.5 Z "/><text fill="#000000" font-family="sans-serif" font-size="12" lengthAdjust="spacingAndGlyphs" textLength="73" x="251" y="157.9102">Administrator</text><line style="stroke: #A80036; stroke-width: 1.5;" x1="223" x2="326" y1="169" y2="169"/><rect fill="none" height="6" style="stroke: #C82930; stroke-width: 1.0;" width="6" x="230" y="177"/><text fill="#000000" font-family="sans-serif" font-size="11" lengthAdjust="spacingAndGlyphs" textLength="57" x="242" y="184.4189">String name</text><!--MD5=[86c7c362de55a38b660185a1328fe18d]
class Organization--><rect fill="#FEFECE" filter="url(#f18cnvtqiguk0g)" height="67.6719" id="Organization" style="stroke: #A80036; stroke-width: 1.5;" width="101" x="616" y="61"/><ellipse cx="631" cy="77" fill="#ADD1B2" rx="11" ry="11" style="stroke: #A80036; stroke-width: 1.0;"/><path d="M633,73.5 Q633.2031,73 633.4375,72.75 Q633.6719,72.5 633.9375,72.5 Q634.4063,72.5 634.7031,72.7813 Q635,73.0625 635,73.7188 L635,75.2813 Q635,75.9375 634.7188,76.2188 Q634.4375,76.5 634,76.5 Q633.6094,76.5 633.3594,76.3281 Q633.1094,76.1563 633,75.7031 Q632.9531,75.3906 632.7813,75.2188 Q632.4688,74.8906 631.9063,74.7031 Q631.3438,74.5 630.7813,74.5 Q630.0781,74.5 629.4844,74.7813 Q628.9063,75.0625 628.4531,75.6875 Q628,76.3125 628,77.1719 L628,78.0938 Q628,79.125 628.8438,79.8125 Q629.6875,80.5 631.1875,80.5 Q632.0781,80.5 632.7031,80.2969 Q633.0625,80.1875 633.4688,79.8281 Q633.7344,79.625 633.875,79.5625 Q634.0156,79.5 634.1875,79.5 Q634.5156,79.5 634.75,79.7656 Q635,80.0156 635,80.375 Q635,80.7188 634.6563,81.125 Q634.1563,81.7188 633.3594,82.0469 Q632.3125,82.5 631.0313,82.5 Q629.5313,82.5 628.3281,81.9063 Q627.3594,81.4375 626.6719,80.4219 Q626,79.4063 626,78.2031 L626,77.1094 Q626,75.8594 626.5938,74.7656 Q627.2031,73.6719 628.25,73.0938 Q629.3125,72.5 630.5,72.5 Q631.2188,72.5 631.8438,72.75 Q632.4688,73 633,73.5 Z "/><text fill="#000000" font-family="sans-serif" font-size="12" lengthAdjust="spacingAndGlyphs" textLength="69" x="645" y="81.9102">Organization</text><line style="stroke: #A80036; stroke-width: 1.5;" x1="617" x2="716" y1="93" y2="93"/><rect fill="none" height="6" style="stroke: #C82930; stroke-width: 1.0;" width="6" x="624" y="101"/><text fill="#000000" font-family="sans-serif" font-size="11" lengthAdjust="spacingAndGlyphs" textLength="57" x="636" y="108.4189">String name</text><rect fill="none" height="6" style="stroke: #C82930; stroke-width: 1.0;" width="6" x="624" y="114.8359"/><text fill="#000000" font-family="sans-serif" font-size="11" lengthAdjust="spacingAndGlyphs" textLength="46" x="636" y="122.2549">String NIF</text><!--MD5=[b24ed8d4ae84bae9290d9aab401637c7]
class Manager--><rect fill="#FEFECE" filter="url(#f18cnvtqiguk0g)" height="67.6719" id="Manager" style="stroke: #A80036; stroke-width: 1.5;" width="83" x="916.5" y="142"/><ellipse cx="932.85" cy="158" fill="#ADD1B2" rx="11" ry="11" style="stroke: #A80036; stroke-width: 1.0;"/><path d="M934.85,154.5 Q935.0531,154 935.2875,153.75 Q935.5219,153.5 935.7875,153.5 Q936.2563,153.5 936.5531,153.7813 Q936.85,154.0625 936.85,154.7188 L936.85,156.2813 Q936.85,156.9375 936.5688,157.2188 Q936.2875,157.5 935.85,157.5 Q935.4594,157.5 935.2094,157.3281 Q934.9594,157.1563 934.85,156.7031 Q934.8031,156.3906 934.6313,156.2188 Q934.3188,155.8906 933.7563,155.7031 Q933.1938,155.5 932.6313,155.5 Q931.9281,155.5 931.3344,155.7813 Q930.7563,156.0625 930.3031,156.6875 Q929.85,157.3125 929.85,158.1719 L929.85,159.0938 Q929.85,160.125 930.6938,160.8125 Q931.5375,161.5 933.0375,161.5 Q933.9281,161.5 934.5531,161.2969 Q934.9125,161.1875 935.3188,160.8281 Q935.5844,160.625 935.725,160.5625 Q935.8656,160.5 936.0375,160.5 Q936.3656,160.5 936.6,160.7656 Q936.85,161.0156 936.85,161.375 Q936.85,161.7188 936.5063,162.125 Q936.0063,162.7188 935.2094,163.0469 Q934.1625,163.5 932.8813,163.5 Q931.3813,163.5 930.1781,162.9063 Q929.2094,162.4375 928.5219,161.4219 Q927.85,160.4063 927.85,159.2031 L927.85,158.1094 Q927.85,156.8594 928.4438,155.7656 Q929.0531,154.6719 930.1,154.0938 Q931.1625,153.5 932.35,153.5 Q933.0688,153.5 933.6938,153.75 Q934.3188,154 934.85,154.5 Z "/><text fill="#000000" font-family="sans-serif" font-size="12" lengthAdjust="spacingAndGlyphs" textLength="48" x="947.15" y="162.9102">Manager</text><line style="stroke: #A80036; stroke-width: 1.5;" x1="917.5" x2="998.5" y1="174" y2="174"/><rect fill="none" height="6" style="stroke: #C82930; stroke-width: 1.0;" width="6" x="924.5" y="182"/><text fill="#000000" font-family="sans-serif" font-size="11" lengthAdjust="spacingAndGlyphs" textLength="57" x="936.5" y="189.4189">String name</text><rect fill="none" height="6" style="stroke: #C82930; stroke-width: 1.0;" width="6" x="924.5" y="195.8359"/><text fill="#000000" font-family="sans-serif" font-size="11" lengthAdjust="spacingAndGlyphs" textLength="55" x="936.5" y="203.2549">String email</text><!--MD5=[f483d6e5de34a60207b28a5563be5e8b]
class Collaborator--><rect fill="#FEFECE" filter="url(#f18cnvtqiguk0g)" height="67.6719" id="Collaborator" style="stroke: #A80036; stroke-width: 1.5;" width="100" x="908" y="32"/><ellipse cx="923" cy="48" fill="#ADD1B2" rx="11" ry="11" style="stroke: #A80036; stroke-width: 1.0;"/><path d="M925,44.5 Q925.2031,44 925.4375,43.75 Q925.6719,43.5 925.9375,43.5 Q926.4063,43.5 926.7031,43.7813 Q927,44.0625 927,44.7188 L927,46.2813 Q927,46.9375 926.7188,47.2188 Q926.4375,47.5 926,47.5 Q925.6094,47.5 925.3594,47.3281 Q925.1094,47.1563 925,46.7031 Q924.9531,46.3906 924.7813,46.2188 Q924.4688,45.8906 923.9063,45.7031 Q923.3438,45.5 922.7813,45.5 Q922.0781,45.5 921.4844,45.7813 Q920.9063,46.0625 920.4531,46.6875 Q920,47.3125 920,48.1719 L920,49.0938 Q920,50.125 920.8438,50.8125 Q921.6875,51.5 923.1875,51.5 Q924.0781,51.5 924.7031,51.2969 Q925.0625,51.1875 925.4688,50.8281 Q925.7344,50.625 925.875,50.5625 Q926.0156,50.5 926.1875,50.5 Q926.5156,50.5 926.75,50.7656 Q927,51.0156 927,51.375 Q927,51.7188 926.6563,52.125 Q926.1563,52.7188 925.3594,53.0469 Q924.3125,53.5 923.0313,53.5 Q921.5313,53.5 920.3281,52.9063 Q919.3594,52.4375 918.6719,51.4219 Q918,50.4063 918,49.2031 L918,48.1094 Q918,46.8594 918.5938,45.7656 Q919.2031,44.6719 920.25,44.0938 Q921.3125,43.5 922.5,43.5 Q923.2188,43.5 923.8438,43.75 Q924.4688,44 925,44.5 Z "/><text fill="#000000" font-family="sans-serif" font-size="12" lengthAdjust="spacingAndGlyphs" textLength="68" x="937" y="52.9102">Collaborator</text><line style="stroke: #A80036; stroke-width: 1.5;" x1="909" x2="1007" y1="64" y2="64"/><rect fill="none" height="6" style="stroke: #C82930; stroke-width: 1.0;" width="6" x="916" y="72"/><text fill="#000000" font-family="sans-serif" font-size="11" lengthAdjust="spacingAndGlyphs" textLength="57" x="928" y="79.4189">String name</text><rect fill="none" height="6" style="stroke: #C82930; stroke-width: 1.0;" width="6" x="916" y="85.8359"/><text fill="#000000" font-family="sans-serif" font-size="11" lengthAdjust="spacingAndGlyphs" textLength="55" x="928" y="93.2549">String email</text><!--MD5=[3fd616f346a44cd59a91eb10b19e157c]
class User--><rect fill="#FEFECE" filter="url(#f18cnvtqiguk0g)" height="81.5078" id="User" style="stroke: #A80036; stroke-width: 1.5;" width="107" x="1132" y="135"/><ellipse cx="1168.6" cy="151" fill="#ADD1B2" rx="11" ry="11" style="stroke: #A80036; stroke-width: 1.0;"/><path d="M1170.6,147.5 Q1170.8031,147 1171.0375,146.75 Q1171.2719,146.5 1171.5375,146.5 Q1172.0063,146.5 1172.3031,146.7813 Q1172.6,147.0625 1172.6,147.7188 L1172.6,149.2813 Q1172.6,149.9375 1172.3188,150.2188 Q1172.0375,150.5 1171.6,150.5 Q1171.2094,150.5 1170.9594,150.3281 Q1170.7094,150.1563 1170.6,149.7031 Q1170.5531,149.3906 1170.3813,149.2188 Q1170.0688,148.8906 1169.5063,148.7031 Q1168.9438,148.5 1168.3813,148.5 Q1167.6781,148.5 1167.0844,148.7813 Q1166.5063,149.0625 1166.0531,149.6875 Q1165.6,150.3125 1165.6,151.1719 L1165.6,152.0938 Q1165.6,153.125 1166.4438,153.8125 Q1167.2875,154.5 1168.7875,154.5 Q1169.6781,154.5 1170.3031,154.2969 Q1170.6625,154.1875 1171.0688,153.8281 Q1171.3344,153.625 1171.475,153.5625 Q1171.6156,153.5 1171.7875,153.5 Q1172.1156,153.5 1172.35,153.7656 Q1172.6,154.0156 1172.6,154.375 Q1172.6,154.7188 1172.2563,155.125 Q1171.7563,155.7188 1170.9594,156.0469 Q1169.9125,156.5 1168.6313,156.5 Q1167.1313,156.5 1165.9281,155.9063 Q1164.9594,155.4375 1164.2719,154.4219 Q1163.6,153.4063 1163.6,152.2031 L1163.6,151.1094 Q1163.6,149.8594 1164.1938,148.7656 Q1164.8031,147.6719 1165.85,147.0938 Q1166.9125,146.5 1168.1,146.5 Q1168.8188,146.5 1169.4438,146.75 Q1170.0688,147 1170.6,147.5 Z "/><text fill="#000000" font-family="sans-serif" font-size="12" lengthAdjust="spacingAndGlyphs" textLength="27" x="1187.4" y="155.9102">User</text><line style="stroke: #A80036; stroke-width: 1.5;" x1="1133" x2="1238" y1="167" y2="167"/><rect fill="none" height="6" style="stroke: #C82930; stroke-width: 1.0;" width="6" x="1140" y="175"/><text fill="#000000" font-family="sans-serif" font-size="11" lengthAdjust="spacingAndGlyphs" textLength="57" x="1152" y="182.4189">String name</text><rect fill="none" height="6" style="stroke: #C82930; stroke-width: 1.0;" width="6" x="1140" y="188.8359"/><text fill="#000000" font-family="sans-serif" font-size="11" lengthAdjust="spacingAndGlyphs" textLength="55" x="1152" y="196.2549">String email</text><rect fill="none" height="6" style="stroke: #C82930; stroke-width: 1.0;" width="6" x="1140" y="202.6719"/><text fill="#000000" font-family="sans-serif" font-size="11" lengthAdjust="spacingAndGlyphs" textLength="81" x="1152" y="210.0908">String password</text><!--MD5=[4d548a0442e1badb0a0dbe1ee5d5c4f7]
class ExternAlgorithmPasswordGenerator--><rect fill="#FEFECE" filter="url(#f18cnvtqiguk0g)" height="40" id="ExternAlgorithmPasswordGenerator" style="stroke: #A80036; stroke-width: 1.5;" width="229" x="357" y="243"/><ellipse cx="372" cy="259" fill="#ADD1B2" rx="11" ry="11" style="stroke: #A80036; stroke-width: 1.0;"/><path d="M374,255.5 Q374.2031,255 374.4375,254.75 Q374.6719,254.5 374.9375,254.5 Q375.4063,254.5 375.7031,254.7813 Q376,255.0625 376,255.7188 L376,257.2813 Q376,257.9375 375.7188,258.2188 Q375.4375,258.5 375,258.5 Q374.6094,258.5 374.3594,258.3281 Q374.1094,258.1563 374,257.7031 Q373.9531,257.3906 373.7813,257.2188 Q373.4688,256.8906 372.9063,256.7031 Q372.3438,256.5 371.7813,256.5 Q371.0781,256.5 370.4844,256.7813 Q369.9063,257.0625 369.4531,257.6875 Q369,258.3125 369,259.1719 L369,260.0938 Q369,261.125 369.8438,261.8125 Q370.6875,262.5 372.1875,262.5 Q373.0781,262.5 373.7031,262.2969 Q374.0625,262.1875 374.4688,261.8281 Q374.7344,261.625 374.875,261.5625 Q375.0156,261.5 375.1875,261.5 Q375.5156,261.5 375.75,261.7656 Q376,262.0156 376,262.375 Q376,262.7188 375.6563,263.125 Q375.1563,263.7188 374.3594,264.0469 Q373.3125,264.5 372.0313,264.5 Q370.5313,264.5 369.3281,263.9063 Q368.3594,263.4375 367.6719,262.4219 Q367,261.4063 367,260.2031 L367,259.1094 Q367,257.8594 367.5938,256.7656 Q368.2031,255.6719 369.25,255.0938 Q370.3125,254.5 371.5,254.5 Q372.2188,254.5 372.8438,254.75 Q373.4688,255 374,255.5 Z "/><text fill="#000000" font-family="sans-serif" font-size="12" lengthAdjust="spacingAndGlyphs" textLength="197" x="386" y="263.9102">ExternAlgorithmPasswordGenerator</text><line style="stroke: #A80036; stroke-width: 1.5;" x1="358" x2="585" y1="275" y2="275"/><!--MD5=[0f7004bed4496639b3a5258ab2ead378]
link Platform to Administrator--><path d="M119.225,200.7322 C151.061,193.1522 190.712,183.7113 221.845,176.299 " fill="none" id="Platform-Administrator" style="stroke: #A80036; stroke-width: 1.0;"/><text fill="#000000" font-family="sans-serif" font-size="13" lengthAdjust="spacingAndGlyphs" textLength="21" x="153.5" y="181.4951">has</text><polygon fill="#000000" points="177.5,174.6758,183.5,177.6758,177.5,180.6758,177.5,174.6758" style="stroke: #000000; stroke-width: 1.0;"/><text fill="#000000" font-family="sans-serif" font-size="13" lengthAdjust="spacingAndGlyphs" textLength="7" x="126.9413" y="213.5854">1</text><text fill="#000000" font-family="sans-serif" font-size="13" lengthAdjust="spacingAndGlyphs" textLength="5" x="209.0888" y="192.6849">*</text><!--MD5=[2a41c1af413c0662bf55a6b8913ea24f]
link Administrator to Organization--><path d="M327.289,154.837 C402.711,141.493 541.835,116.879 615.964,103.764 " fill="none" id="Administrator-Organization" style="stroke: #A80036; stroke-width: 1.0;"/><text fill="#000000" font-family="sans-serif" font-size="13" lengthAdjust="spacingAndGlyphs" textLength="39" x="445.5" y="106.4951">regists</text><polygon fill="#000000" points="487.5,99.6758,493.5,102.6758,487.5,105.6758,487.5,99.6758" style="stroke: #000000; stroke-width: 1.0;"/><text fill="#000000" font-family="sans-serif" font-size="13" lengthAdjust="spacingAndGlyphs" textLength="7" x="334.8528" y="168.2105">1</text><text fill="#000000" font-family="sans-serif" font-size="13" lengthAdjust="spacingAndGlyphs" textLength="20" x="587.8295" y="119.5574">1..*</text><!--MD5=[64d713fdb760e3b6b59069371d93ba85]
link Administrator to Manager--><path d="M327.003,164.907 C457.394,167.203 798.551,173.21 916.323,175.284 " fill="none" id="Administrator-Manager" style="stroke: #A80036; stroke-width: 1.0;"/><text fill="#000000" font-family="sans-serif" font-size="13" lengthAdjust="spacingAndGlyphs" textLength="39" x="640.5" y="166.4951">regists</text><polygon fill="#000000" points="682.5,159.6758,688.5,162.6758,682.5,165.6758,682.5,159.6758" style="stroke: #000000; stroke-width: 1.0;"/><text fill="#000000" font-family="sans-serif" font-size="13" lengthAdjust="spacingAndGlyphs" textLength="7" x="334.8784" y="179.6909">1</text><text fill="#000000" font-family="sans-serif" font-size="13" lengthAdjust="spacingAndGlyphs" textLength="20" x="888.41" y="189.9465">1..*</text><!--MD5=[757406b2e460220911d4cccaa97c87d9]
link Administrator to Collaborator--><path d="M295.586,136.912 C310.474,118.916 332.386,96.397 357,84 C541.755,-9.05 800.734,31.378 907.751,54.233 " fill="none" id="Administrator-Collaborator" style="stroke: #A80036; stroke-width: 1.0;"/><text fill="#000000" font-family="sans-serif" font-size="13" lengthAdjust="spacingAndGlyphs" textLength="39" x="640.5" y="22.4951">regists</text><polygon fill="#000000" points="682.5,15.6758,688.5,18.6758,682.5,21.6758,682.5,15.6758" style="stroke: #000000; stroke-width: 1.0;"/><text fill="#000000" font-family="sans-serif" font-size="13" lengthAdjust="spacingAndGlyphs" textLength="7" x="292.6528" y="126.3526">1</text><text fill="#000000" font-family="sans-serif" font-size="13" lengthAdjust="spacingAndGlyphs" textLength="20" x="880.0316" y="67.289">1..*</text><!--MD5=[6eb6e197a729f6ec2412743e0bdbca1d]
link Manager to User--><path d="M999.575,176 C1036.6,176 1091.54,176 1131.92,176 " fill="none" id="Manager-User" style="stroke: #A80036; stroke-width: 1.0;"/><text fill="#000000" font-family="sans-serif" font-size="13" lengthAdjust="spacingAndGlyphs" textLength="49" x="1039" y="172.4951">acts like</text><polygon fill="#000000" points="1091,165.6758,1097,168.6758,1091,171.6758,1091,165.6758" style="stroke: #000000; stroke-width: 1.0;"/><text fill="#000000" font-family="sans-serif" font-size="13" lengthAdjust="spacingAndGlyphs" textLength="7" x="1007.604" y="190.9807">1</text><text fill="#000000" font-family="sans-serif" font-size="13" lengthAdjust="spacingAndGlyphs" textLength="7" x="1116.8931" y="190.6794">1</text><!--MD5=[04ce0ecdab38a3951889ff50c232570f]
link Collaborator to User--><path d="M1008.21,90.004 C1044.75,107.831 1094.52,132.108 1131.86,150.322 " fill="none" id="Collaborator-User" style="stroke: #A80036; stroke-width: 1.0;"/><text fill="#000000" font-family="sans-serif" font-size="13" lengthAdjust="spacingAndGlyphs" textLength="49" x="1039" y="101.4951">acts like</text><polygon fill="#000000" points="1091,94.6758,1097,97.6758,1091,100.6758,1091,94.6758" style="stroke: #000000; stroke-width: 1.0;"/><text fill="#000000" font-family="sans-serif" font-size="13" lengthAdjust="spacingAndGlyphs" textLength="7" x="1016.0987" y="108.2496">1</text><text fill="#000000" font-family="sans-serif" font-size="13" lengthAdjust="spacingAndGlyphs" textLength="7" x="1116.8247" y="161.3905">1</text><!--MD5=[b92eeb14357d631d3ca6a7f02cf4ebe8]
link Platform to ExternAlgorithmPasswordGenerator--><path d="M119.238,220.7105 C180.088,228.0364 279.18,239.9664 356.628,249.2906 " fill="none" id="Platform-ExternAlgorithmPasswordGenerator" style="stroke: #A80036; stroke-width: 1.0;"/><text fill="#000000" font-family="sans-serif" font-size="13" lengthAdjust="spacingAndGlyphs" textLength="28" x="150" y="221.4951">uses</text><polygon fill="#000000" points="181,214.6758,187,217.6758,181,220.6758,181,214.6758" style="stroke: #000000; stroke-width: 1.0;"/><text fill="#000000" font-family="sans-serif" font-size="13" lengthAdjust="spacingAndGlyphs" textLength="7" x="126.956" y="236.1234">1</text><text fill="#000000" font-family="sans-serif" font-size="13" lengthAdjust="spacingAndGlyphs" textLength="7" x="342.0448" y="262.4312">1</text><!--MD5=[5e22abcf222e24edadfbe23454af495d]
link ExternAlgorithmPasswordGenerator to User--><path d="M586.201,262.8289 C695.204,260.9603 863.984,253.5953 1008,228 C1050.46,220.4538 1097.22,206.4057 1131.94,194.8118 " fill="none" id="ExternAlgorithmPasswordGenerator-User" style="stroke: #A80036; stroke-width: 1.0;"/><text fill="#000000" font-family="sans-serif" font-size="13" lengthAdjust="spacingAndGlyphs" textLength="116" x="748" y="242.4951">generates password</text><polygon fill="#000000" points="867,235.6758,873,238.6758,867,241.6758,867,235.6758" style="stroke: #000000; stroke-width: 1.0;"/><text fill="#000000" font-family="sans-serif" font-size="13" lengthAdjust="spacingAndGlyphs" textLength="7" x="594.1426" y="276.8618">1</text><text fill="#000000" font-family="sans-serif" font-size="13" lengthAdjust="spacingAndGlyphs" textLength="5" x="1119.0566" y="212.1367">*</text><!--MD5=[bc039f41cf0b27fadee5cae63fc6e1fe]
link Organization to Manager--><path d="M717.267,108.924 C773.526,124.665 864.059,149.996 916.284,164.608 " fill="none" id="Organization-Manager" style="stroke: #A80036; stroke-width: 1.0;"/><text fill="#000000" font-family="sans-serif" font-size="13" lengthAdjust="spacingAndGlyphs" textLength="21" x="795.5" y="115.4951">has</text><polygon fill="#000000" points="819.5,108.6758,825.5,111.6758,819.5,114.6758,819.5,108.6758" style="stroke: #000000; stroke-width: 1.0;"/><text fill="#000000" font-family="sans-serif" font-size="13" lengthAdjust="spacingAndGlyphs" textLength="7" x="724.8983" y="125.55">1</text><text fill="#000000" font-family="sans-serif" font-size="13" lengthAdjust="spacingAndGlyphs" textLength="7" x="901.5125" y="158.8285">1</text><!--MD5=[45817597bcd7048073a670d966abfd17]
link Organization to Collaborator--><path d="M717.267,90.015 C770.616,84.671 854.785,76.239 907.883,70.92 " fill="none" id="Organization-Collaborator" style="stroke: #A80036; stroke-width: 1.0;"/><text fill="#000000" font-family="sans-serif" font-size="13" lengthAdjust="spacingAndGlyphs" textLength="21" x="795.5" y="71.4951">has</text><polygon fill="#000000" points="819.5,64.6758,825.5,67.6758,819.5,70.6758,819.5,64.6758" style="stroke: #000000; stroke-width: 1.0;"/><text fill="#000000" font-family="sans-serif" font-size="13" lengthAdjust="spacingAndGlyphs" textLength="7" x="724.8983" y="103.9819">1</text><text fill="#000000" font-family="sans-serif" font-size="13" lengthAdjust="spacingAndGlyphs" textLength="7" x="893.008" y="86.3627">1</text><!--MD5=[ae372394889a922d8ce2011f70338789]
@startuml

hide methods
left to right direction

class Platform {
    - String designacao
}

class Administrator {
    - String name
}

class Organization {
    - String name
    - String NIF
}

class Manager {
    - String name
    - String email
}

class Collaborator {
    - String name
    - String email
}

class User {
    - String name
    - String email
    - String password
}
class ExternAlgorithmPasswordGenerator {

}

Platform "1" - - "*" Administrator : has >
Administrator "1" - - "1..*" Organization : regists >
Administrator "1" - - "1..*" Manager : regists >
Administrator "1" - - "1..*" Collaborator : regists >
Manager "1" - - "1" User : acts like >
Collaborator "1" - - "1" User : acts like >
Platform "1" - - "1" ExternAlgorithmPasswordGenerator : uses >
ExternAlgorithmPasswordGenerator "1" - - "*" User : generates password >
Organization "1" - - "1" Manager : has >
Organization "1" - - "1" Collaborator : has >

@enduml

PlantUML version 1.2020.07(Sun Apr 19 12:42:40 BST 2020)
(GPL source distribution)
Java Runtime: OpenJDK Runtime Environment
JVM: OpenJDK 64-Bit Server VM
Java Version: 11.0.6+8-b765.40
Operating System: Windows 10
Default Encoding: Cp1252
Language: pt
Country: PT
--></g></svg>