<?xml version="1.0" encoding="UTF-8" standalone="no"?><svg xmlns="http://www.w3.org/2000/svg" xmlns:xlink="http://www.w3.org/1999/xlink" contentScriptType="application/ecmascript" contentStyleType="text/css" height="469px" preserveAspectRatio="none" style="width:1579px;height:469px;" version="1.1" viewBox="0 0 1579 469" width="1579px" zoomAndPan="magnify"><defs><filter height="300%" id="f1wh3i0ukzl4ge" width="300%" x="-1" y="-1"><feGaussianBlur result="blurOut" stdDeviation="2.0"/><feColorMatrix in="blurOut" result="blurOut2" type="matrix" values="0 0 0 0 0 0 0 0 0 0 0 0 0 0 0 0 0 0 .4 0"/><feOffset dx="4.0" dy="4.0" in="blurOut2" result="blurOut3"/><feBlend in="SourceGraphic" in2="blurOut3" mode="normal"/></filter></defs><g><!--MD5=[b34797a66dc35cbf1d65f7e3ca75530e]
class Task--><rect fill="#FEFECE" filter="url(#f1wh3i0ukzl4ge)" height="109.1797" id="Task" style="stroke: #A80036; stroke-width: 1.5;" width="112" x="451" y="211.5"/><ellipse cx="489.85" cy="227.5" fill="#ADD1B2" rx="11" ry="11" style="stroke: #A80036; stroke-width: 1.0;"/><path d="M491.85,224 Q492.0531,223.5 492.2875,223.25 Q492.5219,223 492.7875,223 Q493.2563,223 493.5531,223.2813 Q493.85,223.5625 493.85,224.2188 L493.85,225.7813 Q493.85,226.4375 493.5688,226.7188 Q493.2875,227 492.85,227 Q492.4594,227 492.2094,226.8281 Q491.9594,226.6563 491.85,226.2031 Q491.8031,225.8906 491.6313,225.7188 Q491.3188,225.3906 490.7563,225.2031 Q490.1938,225 489.6313,225 Q488.9281,225 488.3344,225.2813 Q487.7563,225.5625 487.3031,226.1875 Q486.85,226.8125 486.85,227.6719 L486.85,228.5938 Q486.85,229.625 487.6938,230.3125 Q488.5375,231 490.0375,231 Q490.9281,231 491.5531,230.7969 Q491.9125,230.6875 492.3188,230.3281 Q492.5844,230.125 492.725,230.0625 Q492.8656,230 493.0375,230 Q493.3656,230 493.6,230.2656 Q493.85,230.5156 493.85,230.875 Q493.85,231.2188 493.5063,231.625 Q493.0063,232.2188 492.2094,232.5469 Q491.1625,233 489.8813,233 Q488.3813,233 487.1781,232.4063 Q486.2094,231.9375 485.5219,230.9219 Q484.85,229.9063 484.85,228.7031 L484.85,227.6094 Q484.85,226.3594 485.4438,225.2656 Q486.0531,224.1719 487.1,223.5938 Q488.1625,223 489.35,223 Q490.0688,223 490.6938,223.25 Q491.3188,223.5 491.85,224 Z "/><text fill="#000000" font-family="sans-serif" font-size="12" lengthAdjust="spacingAndGlyphs" textLength="27" x="509.15" y="232.4102">Task</text><line style="stroke: #A80036; stroke-width: 1.5;" x1="452" x2="562" y1="243.5" y2="243.5"/><text fill="#000000" font-family="sans-serif" font-size="11" lengthAdjust="spacingAndGlyphs" textLength="43" x="457" y="258.9189">-String id</text><text fill="#000000" font-family="sans-serif" font-size="11" lengthAdjust="spacingAndGlyphs" textLength="88" x="457" y="272.7549">-String description</text><text fill="#000000" font-family="sans-serif" font-size="11" lengthAdjust="spacingAndGlyphs" textLength="79" x="457" y="286.5908">-Integer duration</text><text fill="#000000" font-family="sans-serif" font-size="11" lengthAdjust="spacingAndGlyphs" textLength="100" x="457" y="300.4268">-Double costPerHour</text><text fill="#000000" font-family="sans-serif" font-size="11" lengthAdjust="spacingAndGlyphs" textLength="78" x="457" y="314.2627">-String category</text><!--MD5=[b645a18afb25b7e5623af7186d8eb36f]
class PaymentTransaction--><rect fill="#FEFECE" filter="url(#f1wh3i0ukzl4ge)" height="275.2109" id="PaymentTransaction" style="stroke: #A80036; stroke-width: 1.5;" width="149" x="983" y="57.5"/><ellipse cx="999.8" cy="73.5" fill="#ADD1B2" rx="11" ry="11" style="stroke: #A80036; stroke-width: 1.0;"/><path d="M1001.8,70 Q1002.0031,69.5 1002.2375,69.25 Q1002.4719,69 1002.7375,69 Q1003.2063,69 1003.5031,69.2813 Q1003.8,69.5625 1003.8,70.2188 L1003.8,71.7813 Q1003.8,72.4375 1003.5188,72.7188 Q1003.2375,73 1002.8,73 Q1002.4094,73 1002.1594,72.8281 Q1001.9094,72.6563 1001.8,72.2031 Q1001.7531,71.8906 1001.5813,71.7188 Q1001.2688,71.3906 1000.7063,71.2031 Q1000.1438,71 999.5813,71 Q998.8781,71 998.2844,71.2813 Q997.7063,71.5625 997.2531,72.1875 Q996.8,72.8125 996.8,73.6719 L996.8,74.5938 Q996.8,75.625 997.6438,76.3125 Q998.4875,77 999.9875,77 Q1000.8781,77 1001.5031,76.7969 Q1001.8625,76.6875 1002.2688,76.3281 Q1002.5344,76.125 1002.675,76.0625 Q1002.8156,76 1002.9875,76 Q1003.3156,76 1003.55,76.2656 Q1003.8,76.5156 1003.8,76.875 Q1003.8,77.2188 1003.4563,77.625 Q1002.9563,78.2188 1002.1594,78.5469 Q1001.1125,79 999.8313,79 Q998.3313,79 997.1281,78.4063 Q996.1594,77.9375 995.4719,76.9219 Q994.8,75.9063 994.8,74.7031 L994.8,73.6094 Q994.8,72.3594 995.3938,71.2656 Q996.0031,70.1719 997.05,69.5938 Q998.1125,69 999.3,69 Q1000.0188,69 1000.6438,69.25 Q1001.2688,69.5 1001.8,70 Z "/><text fill="#000000" font-family="sans-serif" font-size="12" lengthAdjust="spacingAndGlyphs" textLength="113" x="1014.2" y="78.4102">PaymentTransaction</text><line style="stroke: #A80036; stroke-width: 1.5;" x1="984" x2="1131" y1="89.5" y2="89.5"/><text fill="#000000" font-family="sans-serif" font-size="11" lengthAdjust="spacingAndGlyphs" textLength="69" x="989" y="104.9189">-String transID</text><text fill="#000000" font-family="sans-serif" font-size="11" lengthAdjust="spacingAndGlyphs" textLength="64" x="989" y="118.7549">-String taskID</text><text fill="#000000" font-family="sans-serif" font-size="11" lengthAdjust="spacingAndGlyphs" textLength="109" x="989" y="132.5908">-String taskDescription</text><text fill="#000000" font-family="sans-serif" font-size="11" lengthAdjust="spacingAndGlyphs" textLength="134" x="989" y="146.4268">-Integer taskAssignDuration</text><text fill="#000000" font-family="sans-serif" font-size="11" lengthAdjust="spacingAndGlyphs" textLength="121" x="989" y="160.2627">-Double taskCostPerHour</text><text fill="#000000" font-family="sans-serif" font-size="11" lengthAdjust="spacingAndGlyphs" textLength="99" x="989" y="174.0986">-String taskCategory</text><text fill="#000000" font-family="sans-serif" font-size="11" lengthAdjust="spacingAndGlyphs" textLength="75" x="989" y="187.9346">-String endDate</text><text fill="#000000" font-family="sans-serif" font-size="11" lengthAdjust="spacingAndGlyphs" textLength="66" x="989" y="201.7705">-Integer delay</text><text fill="#000000" font-family="sans-serif" font-size="11" lengthAdjust="spacingAndGlyphs" textLength="129" x="989" y="215.6064">-String descQualityOfWork</text><text fill="#000000" font-family="sans-serif" font-size="11" lengthAdjust="spacingAndGlyphs" textLength="94" x="989" y="229.4424">-String freelancerID</text><text fill="#000000" font-family="sans-serif" font-size="11" lengthAdjust="spacingAndGlyphs" textLength="112" x="989" y="243.2783">-String freelancerName</text><text fill="#000000" font-family="sans-serif" font-size="11" lengthAdjust="spacingAndGlyphs" textLength="117" x="989" y="257.1143">-String freelancerLvlExp</text><text fill="#000000" font-family="sans-serif" font-size="11" lengthAdjust="spacingAndGlyphs" textLength="109" x="989" y="270.9502">-String freelancerEmail</text><text fill="#000000" font-family="sans-serif" font-size="11" lengthAdjust="spacingAndGlyphs" textLength="100" x="989" y="284.7861">-String freelancerNIF</text><text fill="#000000" font-family="sans-serif" font-size="11" lengthAdjust="spacingAndGlyphs" textLength="109" x="989" y="298.6221">-String freelancerIBAN</text><text fill="#000000" font-family="sans-serif" font-size="11" lengthAdjust="spacingAndGlyphs" textLength="137" x="989" y="312.458">-Address freelanceAddress</text><text fill="#000000" font-family="sans-serif" font-size="11" lengthAdjust="spacingAndGlyphs" textLength="123" x="989" y="326.2939">-String freelancerCountry</text><!--MD5=[1f687b5315377fe49fca59b457947463]
class Freelancer--><rect fill="#FEFECE" filter="url(#f1wh3i0ukzl4ge)" height="150.6875" id="Freelancer" style="stroke: #A80036; stroke-width: 1.5;" width="91" x="1256" y="248.5"/><ellipse cx="1271" cy="264.5" fill="#ADD1B2" rx="11" ry="11" style="stroke: #A80036; stroke-width: 1.0;"/><path d="M1273,261 Q1273.2031,260.5 1273.4375,260.25 Q1273.6719,260 1273.9375,260 Q1274.4063,260 1274.7031,260.2813 Q1275,260.5625 1275,261.2188 L1275,262.7813 Q1275,263.4375 1274.7188,263.7188 Q1274.4375,264 1274,264 Q1273.6094,264 1273.3594,263.8281 Q1273.1094,263.6563 1273,263.2031 Q1272.9531,262.8906 1272.7813,262.7188 Q1272.4688,262.3906 1271.9063,262.2031 Q1271.3438,262 1270.7813,262 Q1270.0781,262 1269.4844,262.2813 Q1268.9063,262.5625 1268.4531,263.1875 Q1268,263.8125 1268,264.6719 L1268,265.5938 Q1268,266.625 1268.8438,267.3125 Q1269.6875,268 1271.1875,268 Q1272.0781,268 1272.7031,267.7969 Q1273.0625,267.6875 1273.4688,267.3281 Q1273.7344,267.125 1273.875,267.0625 Q1274.0156,267 1274.1875,267 Q1274.5156,267 1274.75,267.2656 Q1275,267.5156 1275,267.875 Q1275,268.2188 1274.6563,268.625 Q1274.1563,269.2188 1273.3594,269.5469 Q1272.3125,270 1271.0313,270 Q1269.5313,270 1268.3281,269.4063 Q1267.3594,268.9375 1266.6719,267.9219 Q1266,266.9063 1266,265.7031 L1266,264.6094 Q1266,263.3594 1266.5938,262.2656 Q1267.2031,261.1719 1268.25,260.5938 Q1269.3125,260 1270.5,260 Q1271.2188,260 1271.8438,260.25 Q1272.4688,260.5 1273,261 Z "/><text fill="#000000" font-family="sans-serif" font-size="12" lengthAdjust="spacingAndGlyphs" textLength="59" x="1285" y="269.4102">Freelancer</text><line style="stroke: #A80036; stroke-width: 1.5;" x1="1257" x2="1346" y1="280.5" y2="280.5"/><text fill="#000000" font-family="sans-serif" font-size="11" lengthAdjust="spacingAndGlyphs" textLength="61" x="1262" y="295.9189">-String name</text><text fill="#000000" font-family="sans-serif" font-size="11" lengthAdjust="spacingAndGlyphs" textLength="43" x="1262" y="309.7549">-String id</text><text fill="#000000" font-family="sans-serif" font-size="11" lengthAdjust="spacingAndGlyphs" textLength="63" x="1262" y="323.5908">-String lvlExp</text><text fill="#000000" font-family="sans-serif" font-size="11" lengthAdjust="spacingAndGlyphs" textLength="59" x="1262" y="337.4268">-String email</text><text fill="#000000" font-family="sans-serif" font-size="11" lengthAdjust="spacingAndGlyphs" textLength="47" x="1262" y="351.2627">-String nif</text><text fill="#000000" font-family="sans-serif" font-size="11" lengthAdjust="spacingAndGlyphs" textLength="55" x="1262" y="365.0986">-String iban</text><text fill="#000000" font-family="sans-serif" font-size="11" lengthAdjust="spacingAndGlyphs" textLength="75" x="1262" y="378.9346">-String address</text><text fill="#000000" font-family="sans-serif" font-size="11" lengthAdjust="spacingAndGlyphs" textLength="72" x="1262" y="392.7705">-String country</text><!--MD5=[f483d6e5de34a60207b28a5563be5e8b]
class Collaborator--><rect fill="#FEFECE" filter="url(#f1wh3i0ukzl4ge)" height="95.3438" id="Collaborator" style="stroke: #A80036; stroke-width: 1.5;" width="100" x="707" y="114.5"/><ellipse cx="722" cy="130.5" fill="#ADD1B2" rx="11" ry="11" style="stroke: #A80036; stroke-width: 1.0;"/><path d="M724,127 Q724.2031,126.5 724.4375,126.25 Q724.6719,126 724.9375,126 Q725.4063,126 725.7031,126.2813 Q726,126.5625 726,127.2188 L726,128.7813 Q726,129.4375 725.7188,129.7188 Q725.4375,130 725,130 Q724.6094,130 724.3594,129.8281 Q724.1094,129.6563 724,129.2031 Q723.9531,128.8906 723.7813,128.7188 Q723.4688,128.3906 722.9063,128.2031 Q722.3438,128 721.7813,128 Q721.0781,128 720.4844,128.2813 Q719.9063,128.5625 719.4531,129.1875 Q719,129.8125 719,130.6719 L719,131.5938 Q719,132.625 719.8438,133.3125 Q720.6875,134 722.1875,134 Q723.0781,134 723.7031,133.7969 Q724.0625,133.6875 724.4688,133.3281 Q724.7344,133.125 724.875,133.0625 Q725.0156,133 725.1875,133 Q725.5156,133 725.75,133.2656 Q726,133.5156 726,133.875 Q726,134.2188 725.6563,134.625 Q725.1563,135.2188 724.3594,135.5469 Q723.3125,136 722.0313,136 Q720.5313,136 719.3281,135.4063 Q718.3594,134.9375 717.6719,133.9219 Q717,132.9063 717,131.7031 L717,130.6094 Q717,129.3594 717.5938,128.2656 Q718.2031,127.1719 719.25,126.5938 Q720.3125,126 721.5,126 Q722.2188,126 722.8438,126.25 Q723.4688,126.5 724,127 Z "/><text fill="#000000" font-family="sans-serif" font-size="12" lengthAdjust="spacingAndGlyphs" textLength="68" x="736" y="135.4102">Collaborator</text><line style="stroke: #A80036; stroke-width: 1.5;" x1="708" x2="806" y1="146.5" y2="146.5"/><text fill="#000000" font-family="sans-serif" font-size="11" lengthAdjust="spacingAndGlyphs" textLength="61" x="713" y="161.9189">-String name</text><text fill="#000000" font-family="sans-serif" font-size="11" lengthAdjust="spacingAndGlyphs" textLength="74" x="713" y="175.7549">-String function</text><text fill="#000000" font-family="sans-serif" font-size="11" lengthAdjust="spacingAndGlyphs" textLength="82" x="713" y="189.5908">-String telephone</text><text fill="#000000" font-family="sans-serif" font-size="11" lengthAdjust="spacingAndGlyphs" textLength="59" x="713" y="203.4268">-String email</text><!--MD5=[3fd616f346a44cd59a91eb10b19e157c]
class User--><rect fill="#FEFECE" filter="url(#f1wh3i0ukzl4ge)" height="81.5078" id="User" style="stroke: #A80036; stroke-width: 1.5;" width="97" x="1471" y="69"/><ellipse cx="1503.1" cy="85" fill="#ADD1B2" rx="11" ry="11" style="stroke: #A80036; stroke-width: 1.0;"/><path d="M1505.1,81.5 Q1505.3031,81 1505.5375,80.75 Q1505.7719,80.5 1506.0375,80.5 Q1506.5063,80.5 1506.8031,80.7813 Q1507.1,81.0625 1507.1,81.7188 L1507.1,83.2813 Q1507.1,83.9375 1506.8188,84.2188 Q1506.5375,84.5 1506.1,84.5 Q1505.7094,84.5 1505.4594,84.3281 Q1505.2094,84.1563 1505.1,83.7031 Q1505.0531,83.3906 1504.8813,83.2188 Q1504.5688,82.8906 1504.0063,82.7031 Q1503.4438,82.5 1502.8813,82.5 Q1502.1781,82.5 1501.5844,82.7813 Q1501.0063,83.0625 1500.5531,83.6875 Q1500.1,84.3125 1500.1,85.1719 L1500.1,86.0938 Q1500.1,87.125 1500.9438,87.8125 Q1501.7875,88.5 1503.2875,88.5 Q1504.1781,88.5 1504.8031,88.2969 Q1505.1625,88.1875 1505.5688,87.8281 Q1505.8344,87.625 1505.975,87.5625 Q1506.1156,87.5 1506.2875,87.5 Q1506.6156,87.5 1506.85,87.7656 Q1507.1,88.0156 1507.1,88.375 Q1507.1,88.7188 1506.7563,89.125 Q1506.2563,89.7188 1505.4594,90.0469 Q1504.4125,90.5 1503.1313,90.5 Q1501.6313,90.5 1500.4281,89.9063 Q1499.4594,89.4375 1498.7719,88.4219 Q1498.1,87.4063 1498.1,86.2031 L1498.1,85.1094 Q1498.1,83.8594 1498.6938,82.7656 Q1499.3031,81.6719 1500.35,81.0938 Q1501.4125,80.5 1502.6,80.5 Q1503.3188,80.5 1503.9438,80.75 Q1504.5688,81 1505.1,81.5 Z "/><text fill="#000000" font-family="sans-serif" font-size="12" lengthAdjust="spacingAndGlyphs" textLength="27" x="1520.9" y="89.9102">User</text><line style="stroke: #A80036; stroke-width: 1.5;" x1="1472" x2="1567" y1="101" y2="101"/><text fill="#000000" font-family="sans-serif" font-size="11" lengthAdjust="spacingAndGlyphs" textLength="61" x="1477" y="116.4189">-String nome</text><text fill="#000000" font-family="sans-serif" font-size="11" lengthAdjust="spacingAndGlyphs" textLength="59" x="1477" y="130.2549">-String email</text><text fill="#000000" font-family="sans-serif" font-size="11" lengthAdjust="spacingAndGlyphs" textLength="85" x="1477" y="144.0908">-String password</text><!--MD5=[03dcba4cf8fb1a884adf843655d65df1]
class Plataform--><rect fill="#FEFECE" filter="url(#f1wh3i0ukzl4ge)" height="53.8359" id="Plataform" style="stroke: #A80036; stroke-width: 1.5;" width="102" x="6" y="345"/><ellipse cx="28.65" cy="361" fill="#ADD1B2" rx="11" ry="11" style="stroke: #A80036; stroke-width: 1.0;"/><path d="M30.65,357.5 Q30.8531,357 31.0875,356.75 Q31.3219,356.5 31.5875,356.5 Q32.0563,356.5 32.3531,356.7813 Q32.65,357.0625 32.65,357.7188 L32.65,359.2813 Q32.65,359.9375 32.3688,360.2188 Q32.0875,360.5 31.65,360.5 Q31.2594,360.5 31.0094,360.3281 Q30.7594,360.1563 30.65,359.7031 Q30.6031,359.3906 30.4313,359.2188 Q30.1188,358.8906 29.5563,358.7031 Q28.9938,358.5 28.4313,358.5 Q27.7281,358.5 27.1344,358.7813 Q26.5563,359.0625 26.1031,359.6875 Q25.65,360.3125 25.65,361.1719 L25.65,362.0938 Q25.65,363.125 26.4938,363.8125 Q27.3375,364.5 28.8375,364.5 Q29.7281,364.5 30.3531,364.2969 Q30.7125,364.1875 31.1188,363.8281 Q31.3844,363.625 31.525,363.5625 Q31.6656,363.5 31.8375,363.5 Q32.1656,363.5 32.4,363.7656 Q32.65,364.0156 32.65,364.375 Q32.65,364.7188 32.3063,365.125 Q31.8063,365.7188 31.0094,366.0469 Q29.9625,366.5 28.6813,366.5 Q27.1813,366.5 25.9781,365.9063 Q25.0094,365.4375 24.3219,364.4219 Q23.65,363.4063 23.65,362.2031 L23.65,361.1094 Q23.65,359.8594 24.2438,358.7656 Q24.8531,357.6719 25.9,357.0938 Q26.9625,356.5 28.15,356.5 Q28.8688,356.5 29.4938,356.75 Q30.1188,357 30.65,357.5 Z "/><text fill="#000000" font-family="sans-serif" font-size="12" lengthAdjust="spacingAndGlyphs" textLength="53" x="44.35" y="365.9102">Plataform</text><line style="stroke: #A80036; stroke-width: 1.5;" x1="7" x2="107" y1="377" y2="377"/><text fill="#000000" font-family="sans-serif" font-size="11" lengthAdjust="spacingAndGlyphs" textLength="90" x="12" y="392.4189">-String designation</text><!--MD5=[86c7c362de55a38b660185a1328fe18d]
class Organization--><rect fill="#FEFECE" filter="url(#f1wh3i0ukzl4ge)" height="109.1797" id="Organization" style="stroke: #A80036; stroke-width: 1.5;" width="101" x="254" y="118.5"/><ellipse cx="269" cy="134.5" fill="#ADD1B2" rx="11" ry="11" style="stroke: #A80036; stroke-width: 1.0;"/><path d="M271,131 Q271.2031,130.5 271.4375,130.25 Q271.6719,130 271.9375,130 Q272.4063,130 272.7031,130.2813 Q273,130.5625 273,131.2188 L273,132.7813 Q273,133.4375 272.7188,133.7188 Q272.4375,134 272,134 Q271.6094,134 271.3594,133.8281 Q271.1094,133.6563 271,133.2031 Q270.9531,132.8906 270.7813,132.7188 Q270.4688,132.3906 269.9063,132.2031 Q269.3438,132 268.7813,132 Q268.0781,132 267.4844,132.2813 Q266.9063,132.5625 266.4531,133.1875 Q266,133.8125 266,134.6719 L266,135.5938 Q266,136.625 266.8438,137.3125 Q267.6875,138 269.1875,138 Q270.0781,138 270.7031,137.7969 Q271.0625,137.6875 271.4688,137.3281 Q271.7344,137.125 271.875,137.0625 Q272.0156,137 272.1875,137 Q272.5156,137 272.75,137.2656 Q273,137.5156 273,137.875 Q273,138.2188 272.6563,138.625 Q272.1563,139.2188 271.3594,139.5469 Q270.3125,140 269.0313,140 Q267.5313,140 266.3281,139.4063 Q265.3594,138.9375 264.6719,137.9219 Q264,136.9063 264,135.7031 L264,134.6094 Q264,133.3594 264.5938,132.2656 Q265.2031,131.1719 266.25,130.5938 Q267.3125,130 268.5,130 Q269.2188,130 269.8438,130.25 Q270.4688,130.5 271,131 Z "/><text fill="#000000" font-family="sans-serif" font-size="12" lengthAdjust="spacingAndGlyphs" textLength="69" x="283" y="139.4102">Organization</text><line style="stroke: #A80036; stroke-width: 1.5;" x1="255" x2="354" y1="150.5" y2="150.5"/><text fill="#000000" font-family="sans-serif" font-size="11" lengthAdjust="spacingAndGlyphs" textLength="61" x="260" y="165.9189">-String name</text><text fill="#000000" font-family="sans-serif" font-size="11" lengthAdjust="spacingAndGlyphs" textLength="47" x="260" y="179.7549">-String nif</text><text fill="#000000" font-family="sans-serif" font-size="11" lengthAdjust="spacingAndGlyphs" textLength="74" x="260" y="193.5908">-String website</text><text fill="#000000" font-family="sans-serif" font-size="11" lengthAdjust="spacingAndGlyphs" textLength="82" x="260" y="207.4268">-String telephone</text><text fill="#000000" font-family="sans-serif" font-size="11" lengthAdjust="spacingAndGlyphs" textLength="59" x="260" y="221.2627">-String email</text><!--MD5=[69e497c3067133575d4453703547b8fd]
link Plataform to Organization--><path d="M91.3647,344.955 C133.186,311.055 205.242,252.647 253.624,213.429 " fill="none" id="Plataform-Organization" style="stroke: #A80036; stroke-width: 1.0;"/><text fill="#000000" font-family="sans-serif" font-size="13" lengthAdjust="spacingAndGlyphs" textLength="71" x="139" y="239.4951">has registed</text><polygon fill="#000000" points="213,232.6758,219,235.6758,213,238.6758,213,232.6758" style="stroke: #000000; stroke-width: 1.0;"/><text fill="#000000" font-family="sans-serif" font-size="13" lengthAdjust="spacingAndGlyphs" textLength="7" x="91.888" y="333.9707">1</text><text fill="#000000" font-family="sans-serif" font-size="13" lengthAdjust="spacingAndGlyphs" textLength="5" x="241.118" y="233.7465">*</text><!--MD5=[45817597bcd7048073a670d966abfd17]
link Organization to Collaborator--><path d="M355.092,170.844 C412.383,168.453 509.487,164.708 593,163 C631.196,162.219 674.436,161.983 706.778,161.935 " fill="none" id="Organization-Collaborator" style="stroke: #A80036; stroke-width: 1.0;"/><text fill="#000000" font-family="sans-serif" font-size="13" lengthAdjust="spacingAndGlyphs" textLength="75" x="463" y="159.4951">has manager</text><polygon fill="#000000" points="541,152.6758,547,155.6758,541,158.6758,541,152.6758" style="stroke: #000000; stroke-width: 1.0;"/><text fill="#000000" font-family="sans-serif" font-size="13" lengthAdjust="spacingAndGlyphs" textLength="7" x="363.0368" y="185.2101">1</text><text fill="#000000" font-family="sans-serif" font-size="13" lengthAdjust="spacingAndGlyphs" textLength="7" x="691.8876" y="176.5961">1</text><!--MD5=[45817597bcd7048073a670d966abfd17]
link Organization to Collaborator--><path d="M355.26,151.016 C364.964,147.47 375.177,144.235 385,142 C511.571,113.203 548.832,115.451 677,136 C686.837,137.577 697.111,140.193 706.871,143.173 " fill="none" id="Organization-Collaborator-1" style="stroke: #A80036; stroke-width: 1.0;"/><text fill="#000000" font-family="sans-serif" font-size="13" lengthAdjust="spacingAndGlyphs" textLength="21" x="490" y="117.4951">has</text><polygon fill="#000000" points="514,110.6758,520,113.6758,514,116.6758,514,110.6758" style="stroke: #000000; stroke-width: 1.0;"/><text fill="#000000" font-family="sans-serif" font-size="13" lengthAdjust="spacingAndGlyphs" textLength="7" x="362.8903" y="162.5567">1</text><text fill="#000000" font-family="sans-serif" font-size="13" lengthAdjust="spacingAndGlyphs" textLength="20" x="679.167" y="155.2814">1..*</text><!--MD5=[b4b6c1ff9c803d8207b36238c02005ea]
link Freelancer to Task--><path d="M1255.66,332.833 C1221.83,339.03 1174.2,346.763 1132,350 C920.831,366.1961 671.875,309.761 563.287,281.358 " fill="none" id="Freelancer-Task" style="stroke: #A80036; stroke-width: 1.0;"/><polygon fill="#000000" points="845,326.6758,839,329.6758,845,332.6758,845,326.6758" style="stroke: #000000; stroke-width: 1.0;"/><text fill="#000000" font-family="sans-serif" font-size="13" lengthAdjust="spacingAndGlyphs" textLength="101" x="851" y="333.4951">finishes/executes</text><text fill="#000000" font-family="sans-serif" font-size="13" lengthAdjust="spacingAndGlyphs" textLength="7" x="1241.1048" y="348.9565">1</text><text fill="#000000" font-family="sans-serif" font-size="13" lengthAdjust="spacingAndGlyphs" textLength="20" x="570.9514" y="297.5638">1..*</text><!--MD5=[f24cbd698439a42b2d62cde440643418]
link Task to PaymentTransaction--><path d="M563.293,273.311 C596.353,276.596 639.156,278.946 677,275 C784.655,263.776 906.746,235.104 982.695,215.322 " fill="none" id="Task-PaymentTransaction" style="stroke: #A80036; stroke-width: 1.0;"/><text fill="#000000" font-family="sans-serif" font-size="13" lengthAdjust="spacingAndGlyphs" textLength="56" x="722.5" y="251.4951">is paid by</text><polygon fill="#000000" points="781.5,244.6758,787.5,247.6758,781.5,250.6758,781.5,244.6758" style="stroke: #000000; stroke-width: 1.0;"/><text fill="#000000" font-family="sans-serif" font-size="13" lengthAdjust="spacingAndGlyphs" textLength="7" x="570.954" y="288.7788">1</text><text fill="#000000" font-family="sans-serif" font-size="13" lengthAdjust="spacingAndGlyphs" textLength="7" x="967.9869" y="231.612">1</text><!--MD5=[f6802b286771c18a16ea4be983074371]
link PaymentTransaction to Freelancer--><path d="M1132.09,234.23 C1172.42,255.726 1221.09,281.671 1255.72,300.128 " fill="none" id="PaymentTransaction-Freelancer" style="stroke: #A80036; stroke-width: 1.0;"/><text fill="#000000" font-family="sans-serif" font-size="13" lengthAdjust="spacingAndGlyphs" textLength="43" x="1166" y="247.4951">pays to</text><polygon fill="#000000" points="1212,240.6758,1218,243.6758,1212,246.6758,1212,240.6758" style="stroke: #000000; stroke-width: 1.0;"/><text fill="#000000" font-family="sans-serif" font-size="13" lengthAdjust="spacingAndGlyphs" textLength="7" x="1140.143" y="252.603">1</text><text fill="#000000" font-family="sans-serif" font-size="13" lengthAdjust="spacingAndGlyphs" textLength="7" x="1240.866" y="311.1464">1</text><!--MD5=[65ab54bb4516ebbc699d18e0b28e9aea]
link Freelancer to User--><path d="M1347.26,279.659 C1385.44,241.83 1439.91,187.866 1477.09,151.022 " fill="none" id="Freelancer-User" style="stroke: #A80036; stroke-width: 1.0;"/><text fill="#000000" font-family="sans-serif" font-size="13" lengthAdjust="spacingAndGlyphs" textLength="49" x="1378" y="187.4951">acts like</text><polygon fill="#000000" points="1430,180.6758,1436,183.6758,1430,186.6758,1430,180.6758" style="stroke: #000000; stroke-width: 1.0;"/><text fill="#000000" font-family="sans-serif" font-size="13" lengthAdjust="spacingAndGlyphs" textLength="22" x="1354.8871" y="288.3154">0..1</text><text fill="#000000" font-family="sans-serif" font-size="13" lengthAdjust="spacingAndGlyphs" textLength="7" x="1463.06" y="172.0882">1</text><!--MD5=[c32d3c60a61e5638fef4971a1b3a8306]
link Collaborator to PaymentTransaction--><path d="M807.291,167.449 C855.064,172.731 928.124,180.808 982.806,186.853 " fill="none" id="Collaborator-PaymentTransaction" style="stroke: #A80036; stroke-width: 1.0;"/><text fill="#000000" font-family="sans-serif" font-size="13" lengthAdjust="spacingAndGlyphs" textLength="43" x="867" y="166.4951">creates</text><polygon fill="#000000" points="913,159.6758,919,162.6758,913,165.6758,913,159.6758" style="stroke: #000000; stroke-width: 1.0;"/><text fill="#000000" font-family="sans-serif" font-size="13" lengthAdjust="spacingAndGlyphs" textLength="7" x="814.8554" y="182.8359">1</text><text fill="#000000" font-family="sans-serif" font-size="13" lengthAdjust="spacingAndGlyphs" textLength="20" x="954.9983" y="200.341">1..*</text><!--MD5=[4078351e3988aa35b1504a42837f2ab1]
link Organization to Task--><path d="M355.062,195.989 C384.053,209.436 420.719,226.443 450.653,240.328 " fill="none" id="Organization-Task" style="stroke: #A80036; stroke-width: 1.0;"/><text fill="#000000" font-family="sans-serif" font-size="13" lengthAdjust="spacingAndGlyphs" textLength="21" x="386" y="207.4951">has</text><polygon fill="#000000" points="410,200.6758,416,203.6758,410,206.6758,410,200.6758" style="stroke: #000000; stroke-width: 1.0;"/><text fill="#000000" font-family="sans-serif" font-size="13" lengthAdjust="spacingAndGlyphs" textLength="7" x="363.0024" y="214.0482">1</text><text fill="#000000" font-family="sans-serif" font-size="13" lengthAdjust="spacingAndGlyphs" textLength="5" x="438.1132" y="251.5699">*</text><!--MD5=[392f7804293287fa5662caa616132930]
link Task to Collaborator--><path d="M563.232,235.337 C573.032,230.306 583.23,225.329 593,221 C630.421,204.419 674.085,188.804 706.798,177.808 " fill="none" id="Task-Collaborator" style="stroke: #A80036; stroke-width: 1.0;"/><text fill="#000000" font-family="sans-serif" font-size="13" lengthAdjust="spacingAndGlyphs" textLength="69" x="594" y="184.4951">specified by</text><polygon fill="#000000" points="666,177.6758,672,180.6758,666,183.6758,666,177.6758" style="stroke: #000000; stroke-width: 1.0;"/><text fill="#000000" font-family="sans-serif" font-size="13" lengthAdjust="spacingAndGlyphs" textLength="5" x="571.1241" y="245.7983">*</text><text fill="#000000" font-family="sans-serif" font-size="13" lengthAdjust="spacingAndGlyphs" textLength="7" x="691.9105" y="194.8005">1</text><!--MD5=[f919d21ae7a75ef5ececc535e09d5009]
link Collaborator to Task--><path d="M722.234,209.902 C709.697,224.164 694.27,238.293 677,247 C641.936,264.678 597.69,269.115 563.268,269.299 " fill="none" id="Collaborator-Task" style="stroke: #A80036; stroke-width: 1.0;"/><polygon fill="#000000" points="608,236.6758,602,239.6758,608,242.6758,608,236.6758" style="stroke: #000000; stroke-width: 1.0;"/><text fill="#000000" font-family="sans-serif" font-size="13" lengthAdjust="spacingAndGlyphs" textLength="55" x="614" y="243.4951">publishes</text><text fill="#000000" font-family="sans-serif" font-size="13" lengthAdjust="spacingAndGlyphs" textLength="7" x="709.8528" y="231.2589">1</text><text fill="#000000" font-family="sans-serif" font-size="13" lengthAdjust="spacingAndGlyphs" textLength="20" x="570.9302" y="266.2605">1..*</text><!--MD5=[04ce0ecdab38a3951889ff50c232570f]
link Collaborator to User--><path d="M807.247,125.884 C850.927,96.241 917.747,56.552 983,40 C1159.54,-4.781 1376.49,58.7 1470.87,91.93 " fill="none" id="Collaborator-User" style="stroke: #A80036; stroke-width: 1.0;"/><text fill="#000000" font-family="sans-serif" font-size="13" lengthAdjust="spacingAndGlyphs" textLength="49" x="1163" y="22.4951">acts like</text><polygon fill="#000000" points="1215,15.6758,1221,18.6758,1215,21.6758,1215,15.6758" style="stroke: #000000; stroke-width: 1.0;"/><text fill="#000000" font-family="sans-serif" font-size="13" lengthAdjust="spacingAndGlyphs" textLength="22" x="815.0943" y="135.7773">0..1</text><text fill="#000000" font-family="sans-serif" font-size="13" lengthAdjust="spacingAndGlyphs" textLength="7" x="1455.8876" y="103.9477">1</text><!--MD5=[b84222977e65b0051251f49c6eaf9537]
link Plataform to Freelancer--><path d="M105.6858,399.1282 C153.963,424.0041 231.559,457 303.5,457 C303.5,457 303.5,457 1058.5,457 C1134.97,457 1210.09,405.3711 1255.86,366.4477 " fill="none" id="Plataform-Freelancer" style="stroke: #A80036; stroke-width: 1.0;"/><text fill="#000000" font-family="sans-serif" font-size="13" lengthAdjust="spacingAndGlyphs" textLength="53" x="602" y="453.4951">has/uses</text><polygon fill="#000000" points="658,446.6758,664,449.6758,658,452.6758,658,446.6758" style="stroke: #000000; stroke-width: 1.0;"/><text fill="#000000" font-family="sans-serif" font-size="13" lengthAdjust="spacingAndGlyphs" textLength="7" x="108.5702" y="420.364">1</text><text fill="#000000" font-family="sans-serif" font-size="13" lengthAdjust="spacingAndGlyphs" textLength="20" x="1228.0356" y="387.0837">1..*</text><!--MD5=[0e939c1cbcf4b2eae9c08fd0a45db72b]
@startuml
hide methods
left to right direction
skinparam classAttributeIconSize 0

class Task{
-String id
-String description
-Integer duration
-Double costPerHour
-String category
}

class PaymentTransaction{
-String transID
-String taskID
-String taskDescription
-Integer taskAssignDuration
-Double taskCostPerHour
-String taskCategory
-String endDate
-Integer delay
-String descQualityOfWork
-String freelancerID
-String freelancerName
-String freelancerLvlExp
-String freelancerEmail
-String freelancerNIF
-String freelancerIBAN
-Address freelanceAddress
-String freelancerCountry
}

class Freelancer{
-String name
-String id
-String lvlExp
-String email
-String nif
-String iban
-String address
-String country
}

class Collaborator{
-String name
-String function
-String telephone
-String email
}

class User{
-String nome
-String email
-String password
}

class Plataform{
-String designation
}

class Organization{
-String name
-String nif
-String website
-String telephone
-String email
}

Plataform "1" - - "*" Organization : has registed >
Organization "1" - - "1" Collaborator : has manager >
Organization "1" - - "1..*" Collaborator : has >
Freelancer "1" - - "1..*" Task : finishes/executes >
Task "1" - - "1" PaymentTransaction : is paid by >
PaymentTransaction "1" - - "1" Freelancer : pays to >
Freelancer "0..1" - - "1" User : acts like >
Collaborator "1" - - "1..*" PaymentTransaction : creates >
Organization "1" - - "*" Task :  has >
Task "*" - - "1" Collaborator : specified by >
Collaborator "1" - - "1..*" Task : publishes >
Collaborator "0..1" - - "1" User : acts like >
Plataform "1" - - "1..*" Freelancer : has/uses >

@enduml

PlantUML version 1.2020.09(Sun May 10 11:51:06 BST 2020)
(GPL source distribution)
Java Runtime: OpenJDK Runtime Environment
JVM: OpenJDK 64-Bit Server VM
Java Version: 11.0.6+8-b765.40
Operating System: Windows 10
Default Encoding: Cp1252
Language: pt
Country: PT
--></g></svg>