<?xml version="1.0" encoding="UTF-8" standalone="no"?><svg xmlns="http://www.w3.org/2000/svg" xmlns:xlink="http://www.w3.org/1999/xlink" contentScriptType="application/ecmascript" contentStyleType="text/css" height="1164px" preserveAspectRatio="none" style="width:969px;height:1164px;" version="1.1" viewBox="0 0 969 1164" width="969px" zoomAndPan="magnify"><defs><filter height="300%" id="f2v22dsqx9jax" width="300%" x="-1" y="-1"><feGaussianBlur result="blurOut" stdDeviation="2.0"/><feColorMatrix in="blurOut" result="blurOut2" type="matrix" values="0 0 0 0 0 0 0 0 0 0 0 0 0 0 0 0 0 0 .4 0"/><feOffset dx="4.0" dy="4.0" in="blurOut2" result="blurOut3"/><feBlend in="SourceGraphic" in2="blurOut3" mode="normal"/></filter></defs><g><!--MD5=[d10843e537364cf8fd3005bafbcb74b1]
class CreatePayTransUI--><rect fill="#FEFECE" filter="url(#f2v22dsqx9jax)" height="48" id="CreatePayTransUI" style="stroke: #A80036; stroke-width: 1.5;" width="133" x="582" y="8"/><ellipse cx="597" cy="24" fill="#ADD1B2" rx="11" ry="11" style="stroke: #A80036; stroke-width: 1.0;"/><path d="M599,20.5 Q599.2031,20 599.4375,19.75 Q599.6719,19.5 599.9375,19.5 Q600.4063,19.5 600.7031,19.7813 Q601,20.0625 601,20.7188 L601,22.2813 Q601,22.9375 600.7188,23.2188 Q600.4375,23.5 600,23.5 Q599.6094,23.5 599.3594,23.3281 Q599.1094,23.1563 599,22.7031 Q598.9531,22.3906 598.7813,22.2188 Q598.4688,21.8906 597.9063,21.7031 Q597.3438,21.5 596.7813,21.5 Q596.0781,21.5 595.4844,21.7813 Q594.9063,22.0625 594.4531,22.6875 Q594,23.3125 594,24.1719 L594,25.0938 Q594,26.125 594.8438,26.8125 Q595.6875,27.5 597.1875,27.5 Q598.0781,27.5 598.7031,27.2969 Q599.0625,27.1875 599.4688,26.8281 Q599.7344,26.625 599.875,26.5625 Q600.0156,26.5 600.1875,26.5 Q600.5156,26.5 600.75,26.7656 Q601,27.0156 601,27.375 Q601,27.7188 600.6563,28.125 Q600.1563,28.7188 599.3594,29.0469 Q598.3125,29.5 597.0313,29.5 Q595.5313,29.5 594.3281,28.9063 Q593.3594,28.4375 592.6719,27.4219 Q592,26.4063 592,25.2031 L592,24.1094 Q592,22.8594 592.5938,21.7656 Q593.2031,20.6719 594.25,20.0938 Q595.3125,19.5 596.5,19.5 Q597.2188,19.5 597.8438,19.75 Q598.4688,20 599,20.5 Z "/><text fill="#000000" font-family="sans-serif" font-size="12" lengthAdjust="spacingAndGlyphs" textLength="101" x="611" y="28.9102">CreatePayTransUI</text><line style="stroke: #A80036; stroke-width: 1.5;" x1="583" x2="714" y1="40" y2="40"/><line style="stroke: #A80036; stroke-width: 1.5;" x1="583" x2="714" y1="48" y2="48"/><!--MD5=[1f687b5315377fe49fca59b457947463]
class Freelancer--><rect fill="#FEFECE" filter="url(#f2v22dsqx9jax)" height="158.6875" id="Freelancer" style="stroke: #A80036; stroke-width: 1.5;" width="105" x="205" y="631"/><ellipse cx="226.3" cy="647" fill="#ADD1B2" rx="11" ry="11" style="stroke: #A80036; stroke-width: 1.0;"/><path d="M228.3,643.5 Q228.5031,643 228.7375,642.75 Q228.9719,642.5 229.2375,642.5 Q229.7063,642.5 230.0031,642.7813 Q230.3,643.0625 230.3,643.7188 L230.3,645.2813 Q230.3,645.9375 230.0188,646.2188 Q229.7375,646.5 229.3,646.5 Q228.9094,646.5 228.6594,646.3281 Q228.4094,646.1563 228.3,645.7031 Q228.2531,645.3906 228.0813,645.2188 Q227.7688,644.8906 227.2063,644.7031 Q226.6438,644.5 226.0813,644.5 Q225.3781,644.5 224.7844,644.7813 Q224.2063,645.0625 223.7531,645.6875 Q223.3,646.3125 223.3,647.1719 L223.3,648.0938 Q223.3,649.125 224.1438,649.8125 Q224.9875,650.5 226.4875,650.5 Q227.3781,650.5 228.0031,650.2969 Q228.3625,650.1875 228.7688,649.8281 Q229.0344,649.625 229.175,649.5625 Q229.3156,649.5 229.4875,649.5 Q229.8156,649.5 230.05,649.7656 Q230.3,650.0156 230.3,650.375 Q230.3,650.7188 229.9563,651.125 Q229.4563,651.7188 228.6594,652.0469 Q227.6125,652.5 226.3313,652.5 Q224.8313,652.5 223.6281,651.9063 Q222.6594,651.4375 221.9719,650.4219 Q221.3,649.4063 221.3,648.2031 L221.3,647.1094 Q221.3,645.8594 221.8938,644.7656 Q222.5031,643.6719 223.55,643.0938 Q224.6125,642.5 225.8,642.5 Q226.5188,642.5 227.1438,642.75 Q227.7688,643 228.3,643.5 Z "/><text fill="#000000" font-family="sans-serif" font-size="12" lengthAdjust="spacingAndGlyphs" textLength="59" x="241.7" y="651.9102">Freelancer</text><line style="stroke: #A80036; stroke-width: 1.5;" x1="206" x2="309" y1="663" y2="663"/><text fill="#000000" font-family="sans-serif" font-size="11" lengthAdjust="spacingAndGlyphs" textLength="93" x="211" y="678.4189">-String freelancerId</text><text fill="#000000" font-family="sans-serif" font-size="11" lengthAdjust="spacingAndGlyphs" textLength="61" x="211" y="692.2549">-String name</text><text fill="#000000" font-family="sans-serif" font-size="11" lengthAdjust="spacingAndGlyphs" textLength="63" x="211" y="706.0908">-String lvlExp</text><text fill="#000000" font-family="sans-serif" font-size="11" lengthAdjust="spacingAndGlyphs" textLength="59" x="211" y="719.9268">-String email</text><text fill="#000000" font-family="sans-serif" font-size="11" lengthAdjust="spacingAndGlyphs" textLength="47" x="211" y="733.7627">-String nif</text><text fill="#000000" font-family="sans-serif" font-size="11" lengthAdjust="spacingAndGlyphs" textLength="55" x="211" y="747.5986">-String iban</text><text fill="#000000" font-family="sans-serif" font-size="11" lengthAdjust="spacingAndGlyphs" textLength="75" x="211" y="761.4346">-String address</text><text fill="#000000" font-family="sans-serif" font-size="11" lengthAdjust="spacingAndGlyphs" textLength="72" x="211" y="775.2705">-String country</text><line style="stroke: #A80036; stroke-width: 1.5;" x1="206" x2="309" y1="781.6875" y2="781.6875"/><!--MD5=[139140af591ab1d97a5d53669350725d]
class CreatePayTransController--><rect fill="#FEFECE" filter="url(#f2v22dsqx9jax)" height="144.8516" id="CreatePayTransController" style="stroke: #A80036; stroke-width: 1.5;" width="388" x="454.5" y="117"/><ellipse cx="572.75" cy="133" fill="#ADD1B2" rx="11" ry="11" style="stroke: #A80036; stroke-width: 1.0;"/><path d="M574.75,129.5 Q574.9531,129 575.1875,128.75 Q575.4219,128.5 575.6875,128.5 Q576.1563,128.5 576.4531,128.7813 Q576.75,129.0625 576.75,129.7188 L576.75,131.2813 Q576.75,131.9375 576.4688,132.2188 Q576.1875,132.5 575.75,132.5 Q575.3594,132.5 575.1094,132.3281 Q574.8594,132.1563 574.75,131.7031 Q574.7031,131.3906 574.5313,131.2188 Q574.2188,130.8906 573.6563,130.7031 Q573.0938,130.5 572.5313,130.5 Q571.8281,130.5 571.2344,130.7813 Q570.6563,131.0625 570.2031,131.6875 Q569.75,132.3125 569.75,133.1719 L569.75,134.0938 Q569.75,135.125 570.5938,135.8125 Q571.4375,136.5 572.9375,136.5 Q573.8281,136.5 574.4531,136.2969 Q574.8125,136.1875 575.2188,135.8281 Q575.4844,135.625 575.625,135.5625 Q575.7656,135.5 575.9375,135.5 Q576.2656,135.5 576.5,135.7656 Q576.75,136.0156 576.75,136.375 Q576.75,136.7188 576.4063,137.125 Q575.9063,137.7188 575.1094,138.0469 Q574.0625,138.5 572.7813,138.5 Q571.2813,138.5 570.0781,137.9063 Q569.1094,137.4375 568.4219,136.4219 Q567.75,135.4063 567.75,134.2031 L567.75,133.1094 Q567.75,131.8594 568.3438,130.7656 Q568.9531,129.6719 570,129.0938 Q571.0625,128.5 572.25,128.5 Q572.9688,128.5 573.5938,128.75 Q574.2188,129 574.75,129.5 Z "/><text fill="#000000" font-family="sans-serif" font-size="12" lengthAdjust="spacingAndGlyphs" textLength="143" x="593.25" y="137.9102">CreatePayTransController</text><line style="stroke: #A80036; stroke-width: 1.5;" x1="455.5" x2="841.5" y1="149" y2="149"/><line style="stroke: #A80036; stroke-width: 1.5;" x1="455.5" x2="841.5" y1="157" y2="157"/><text fill="#000000" font-family="sans-serif" font-size="11" lengthAdjust="spacingAndGlyphs" textLength="104" x="460.5" y="172.4189">+getListFreelancers()</text><text fill="#000000" font-family="sans-serif" font-size="11" lengthAdjust="spacingAndGlyphs" textLength="103" x="460.5" y="186.2549">+getFreelancerByID()</text><text fill="#000000" font-family="sans-serif" font-size="11" lengthAdjust="spacingAndGlyphs" textLength="149" x="460.5" y="200.0908">+getListTasksByFreelancerID()</text><text fill="#000000" font-family="sans-serif" font-size="11" lengthAdjust="spacingAndGlyphs" textLength="74" x="460.5" y="213.9268">+getTaskByID()</text><text fill="#000000" font-family="sans-serif" font-size="11" lengthAdjust="spacingAndGlyphs" textLength="376" x="460.5" y="227.7627">+newPaymentTransaction(endDate,delay,descQualityOfWork,task,freelancer)</text><text fill="#000000" font-family="sans-serif" font-size="11" lengthAdjust="spacingAndGlyphs" textLength="335" x="460.5" y="241.5986">+amountCalculate(endDate,delay,descQualityOfWork,task,freelancer)</text><text fill="#000000" font-family="sans-serif" font-size="11" lengthAdjust="spacingAndGlyphs" textLength="145" x="460.5" y="255.4346">+registsPaymentTransaction()</text><!--MD5=[99b8db98afdc2c8404e39242ef4c1e65]
class Platform--><rect fill="#FEFECE" filter="url(#f2v22dsqx9jax)" height="75.6719" id="Platform" style="stroke: #A80036; stroke-width: 1.5;" width="132" x="421.5" y="323"/><ellipse cx="460.8" cy="339" fill="#ADD1B2" rx="11" ry="11" style="stroke: #A80036; stroke-width: 1.0;"/><path d="M462.8,335.5 Q463.0031,335 463.2375,334.75 Q463.4719,334.5 463.7375,334.5 Q464.2063,334.5 464.5031,334.7813 Q464.8,335.0625 464.8,335.7188 L464.8,337.2813 Q464.8,337.9375 464.5188,338.2188 Q464.2375,338.5 463.8,338.5 Q463.4094,338.5 463.1594,338.3281 Q462.9094,338.1563 462.8,337.7031 Q462.7531,337.3906 462.5813,337.2188 Q462.2688,336.8906 461.7063,336.7031 Q461.1438,336.5 460.5813,336.5 Q459.8781,336.5 459.2844,336.7813 Q458.7063,337.0625 458.2531,337.6875 Q457.8,338.3125 457.8,339.1719 L457.8,340.0938 Q457.8,341.125 458.6438,341.8125 Q459.4875,342.5 460.9875,342.5 Q461.8781,342.5 462.5031,342.2969 Q462.8625,342.1875 463.2688,341.8281 Q463.5344,341.625 463.675,341.5625 Q463.8156,341.5 463.9875,341.5 Q464.3156,341.5 464.55,341.7656 Q464.8,342.0156 464.8,342.375 Q464.8,342.7188 464.4563,343.125 Q463.9563,343.7188 463.1594,344.0469 Q462.1125,344.5 460.8313,344.5 Q459.3313,344.5 458.1281,343.9063 Q457.1594,343.4375 456.4719,342.4219 Q455.8,341.4063 455.8,340.2031 L455.8,339.1094 Q455.8,337.8594 456.3938,336.7656 Q457.0031,335.6719 458.05,335.0938 Q459.1125,334.5 460.3,334.5 Q461.0188,334.5 461.6438,334.75 Q462.2688,335 462.8,335.5 Z "/><text fill="#000000" font-family="sans-serif" font-size="12" lengthAdjust="spacingAndGlyphs" textLength="46" x="480.2" y="343.9102">Platform</text><line style="stroke: #A80036; stroke-width: 1.5;" x1="422.5" x2="552.5" y1="355" y2="355"/><line style="stroke: #A80036; stroke-width: 1.5;" x1="422.5" x2="552.5" y1="363" y2="363"/><text fill="#000000" font-family="sans-serif" font-size="11" lengthAdjust="spacingAndGlyphs" textLength="111" x="427.5" y="378.4189">+getRegistFreelancer()</text><text fill="#000000" font-family="sans-serif" font-size="11" lengthAdjust="spacingAndGlyphs" textLength="120" x="427.5" y="392.2549">+getRegistOrganization()</text><!--MD5=[8c32a229fce8023c0a6f77068d24861d]
class AplicationPOT--><rect fill="#FEFECE" filter="url(#f2v22dsqx9jax)" height="75.6719" id="AplicationPOT" style="stroke: #A80036; stroke-width: 1.5;" width="116" x="701.5" y="323"/><ellipse cx="719.65" cy="339" fill="#ADD1B2" rx="11" ry="11" style="stroke: #A80036; stroke-width: 1.0;"/><path d="M721.65,335.5 Q721.8531,335 722.0875,334.75 Q722.3219,334.5 722.5875,334.5 Q723.0563,334.5 723.3531,334.7813 Q723.65,335.0625 723.65,335.7188 L723.65,337.2813 Q723.65,337.9375 723.3688,338.2188 Q723.0875,338.5 722.65,338.5 Q722.2594,338.5 722.0094,338.3281 Q721.7594,338.1563 721.65,337.7031 Q721.6031,337.3906 721.4313,337.2188 Q721.1188,336.8906 720.5563,336.7031 Q719.9938,336.5 719.4313,336.5 Q718.7281,336.5 718.1344,336.7813 Q717.5563,337.0625 717.1031,337.6875 Q716.65,338.3125 716.65,339.1719 L716.65,340.0938 Q716.65,341.125 717.4938,341.8125 Q718.3375,342.5 719.8375,342.5 Q720.7281,342.5 721.3531,342.2969 Q721.7125,342.1875 722.1188,341.8281 Q722.3844,341.625 722.525,341.5625 Q722.6656,341.5 722.8375,341.5 Q723.1656,341.5 723.4,341.7656 Q723.65,342.0156 723.65,342.375 Q723.65,342.7188 723.3063,343.125 Q722.8063,343.7188 722.0094,344.0469 Q720.9625,344.5 719.6813,344.5 Q718.1813,344.5 716.9781,343.9063 Q716.0094,343.4375 715.3219,342.4219 Q714.65,341.4063 714.65,340.2031 L714.65,339.1094 Q714.65,337.8594 715.2438,336.7656 Q715.8531,335.6719 716.9,335.0938 Q717.9625,334.5 719.15,334.5 Q719.8688,334.5 720.4938,334.75 Q721.1188,335 721.65,335.5 Z "/><text fill="#000000" font-family="sans-serif" font-size="12" lengthAdjust="spacingAndGlyphs" textLength="77" x="734.35" y="343.9102">AplicationPOT</text><line style="stroke: #A80036; stroke-width: 1.5;" x1="702.5" x2="816.5" y1="355" y2="355"/><line style="stroke: #A80036; stroke-width: 1.5;" x1="702.5" x2="816.5" y1="363" y2="363"/><text fill="#000000" font-family="sans-serif" font-size="11" lengthAdjust="spacingAndGlyphs" textLength="70" x="707.5" y="378.4189">+getInstance()</text><text fill="#000000" font-family="sans-serif" font-size="11" lengthAdjust="spacingAndGlyphs" textLength="104" x="707.5" y="392.2549">+getCurrentSession()</text><!--MD5=[c5b08e60048ef1bcd788d24cf324082e]
class UserSession--><rect fill="#FEFECE" filter="url(#f2v22dsqx9jax)" height="61.8359" id="UserSession" style="stroke: #A80036; stroke-width: 1.5;" width="105" x="853" y="330"/><ellipse cx="868" cy="346" fill="#ADD1B2" rx="11" ry="11" style="stroke: #A80036; stroke-width: 1.0;"/><path d="M870,342.5 Q870.2031,342 870.4375,341.75 Q870.6719,341.5 870.9375,341.5 Q871.4063,341.5 871.7031,341.7813 Q872,342.0625 872,342.7188 L872,344.2813 Q872,344.9375 871.7188,345.2188 Q871.4375,345.5 871,345.5 Q870.6094,345.5 870.3594,345.3281 Q870.1094,345.1563 870,344.7031 Q869.9531,344.3906 869.7813,344.2188 Q869.4688,343.8906 868.9063,343.7031 Q868.3438,343.5 867.7813,343.5 Q867.0781,343.5 866.4844,343.7813 Q865.9063,344.0625 865.4531,344.6875 Q865,345.3125 865,346.1719 L865,347.0938 Q865,348.125 865.8438,348.8125 Q866.6875,349.5 868.1875,349.5 Q869.0781,349.5 869.7031,349.2969 Q870.0625,349.1875 870.4688,348.8281 Q870.7344,348.625 870.875,348.5625 Q871.0156,348.5 871.1875,348.5 Q871.5156,348.5 871.75,348.7656 Q872,349.0156 872,349.375 Q872,349.7188 871.6563,350.125 Q871.1563,350.7188 870.3594,351.0469 Q869.3125,351.5 868.0313,351.5 Q866.5313,351.5 865.3281,350.9063 Q864.3594,350.4375 863.6719,349.4219 Q863,348.4063 863,347.2031 L863,346.1094 Q863,344.8594 863.5938,343.7656 Q864.2031,342.6719 865.25,342.0938 Q866.3125,341.5 867.5,341.5 Q868.2188,341.5 868.8438,341.75 Q869.4688,342 870,342.5 Z "/><text fill="#000000" font-family="sans-serif" font-size="12" lengthAdjust="spacingAndGlyphs" textLength="73" x="882" y="350.9102">UserSession</text><line style="stroke: #A80036; stroke-width: 1.5;" x1="854" x2="957" y1="362" y2="362"/><line style="stroke: #A80036; stroke-width: 1.5;" x1="854" x2="957" y1="370" y2="370"/><text fill="#000000" font-family="sans-serif" font-size="11" lengthAdjust="spacingAndGlyphs" textLength="76" x="859" y="385.4189">+getUserEmail()</text><!--MD5=[b34797a66dc35cbf1d65f7e3ca75530e]
class Task--><rect fill="#FEFECE" filter="url(#f2v22dsqx9jax)" height="117.1797" id="Task" style="stroke: #A80036; stroke-width: 1.5;" width="100" x="653.5" y="1036"/><ellipse cx="686.95" cy="1052" fill="#ADD1B2" rx="11" ry="11" style="stroke: #A80036; stroke-width: 1.0;"/><path d="M688.95,1048.5 Q689.1531,1048 689.3875,1047.75 Q689.6219,1047.5 689.8875,1047.5 Q690.3563,1047.5 690.6531,1047.7813 Q690.95,1048.0625 690.95,1048.7188 L690.95,1050.2813 Q690.95,1050.9375 690.6688,1051.2188 Q690.3875,1051.5 689.95,1051.5 Q689.5594,1051.5 689.3094,1051.3281 Q689.0594,1051.1563 688.95,1050.7031 Q688.9031,1050.3906 688.7313,1050.2188 Q688.4188,1049.8906 687.8563,1049.7031 Q687.2938,1049.5 686.7313,1049.5 Q686.0281,1049.5 685.4344,1049.7813 Q684.8563,1050.0625 684.4031,1050.6875 Q683.95,1051.3125 683.95,1052.1719 L683.95,1053.0938 Q683.95,1054.125 684.7938,1054.8125 Q685.6375,1055.5 687.1375,1055.5 Q688.0281,1055.5 688.6531,1055.2969 Q689.0125,1055.1875 689.4188,1054.8281 Q689.6844,1054.625 689.825,1054.5625 Q689.9656,1054.5 690.1375,1054.5 Q690.4656,1054.5 690.7,1054.7656 Q690.95,1055.0156 690.95,1055.375 Q690.95,1055.7188 690.6063,1056.125 Q690.1063,1056.7188 689.3094,1057.0469 Q688.2625,1057.5 686.9813,1057.5 Q685.4813,1057.5 684.2781,1056.9063 Q683.3094,1056.4375 682.6219,1055.4219 Q681.95,1054.4063 681.95,1053.2031 L681.95,1052.1094 Q681.95,1050.8594 682.5438,1049.7656 Q683.1531,1048.6719 684.2,1048.0938 Q685.2625,1047.5 686.45,1047.5 Q687.1688,1047.5 687.7938,1047.75 Q688.4188,1048 688.95,1048.5 Z "/><text fill="#000000" font-family="sans-serif" font-size="12" lengthAdjust="spacingAndGlyphs" textLength="27" x="705.05" y="1056.9102">Task</text><line style="stroke: #A80036; stroke-width: 1.5;" x1="654.5" x2="752.5" y1="1068" y2="1068"/><text fill="#000000" font-family="sans-serif" font-size="11" lengthAdjust="spacingAndGlyphs" textLength="66" x="659.5" y="1083.4189">-String TaskId</text><text fill="#000000" font-family="sans-serif" font-size="11" lengthAdjust="spacingAndGlyphs" textLength="88" x="659.5" y="1097.2549">-String description</text><text fill="#000000" font-family="sans-serif" font-size="11" lengthAdjust="spacingAndGlyphs" textLength="74" x="659.5" y="1111.0908">-String duration</text><text fill="#000000" font-family="sans-serif" font-size="11" lengthAdjust="spacingAndGlyphs" textLength="56" x="659.5" y="1124.9268">-String cost</text><text fill="#000000" font-family="sans-serif" font-size="11" lengthAdjust="spacingAndGlyphs" textLength="78" x="659.5" y="1138.7627">-String category</text><line style="stroke: #A80036; stroke-width: 1.5;" x1="654.5" x2="752.5" y1="1145.1797" y2="1145.1797"/><!--MD5=[e09e0019787cf83947156283bb671e06]
class RegistOrganization--><rect fill="#FEFECE" filter="url(#f2v22dsqx9jax)" height="61.8359" id="RegistOrganization" style="stroke: #A80036; stroke-width: 1.5;" width="216" x="379.5" y="484"/><ellipse cx="430.75" cy="500" fill="#ADD1B2" rx="11" ry="11" style="stroke: #A80036; stroke-width: 1.0;"/><path d="M432.75,496.5 Q432.9531,496 433.1875,495.75 Q433.4219,495.5 433.6875,495.5 Q434.1563,495.5 434.4531,495.7813 Q434.75,496.0625 434.75,496.7188 L434.75,498.2813 Q434.75,498.9375 434.4688,499.2188 Q434.1875,499.5 433.75,499.5 Q433.3594,499.5 433.1094,499.3281 Q432.8594,499.1563 432.75,498.7031 Q432.7031,498.3906 432.5313,498.2188 Q432.2188,497.8906 431.6563,497.7031 Q431.0938,497.5 430.5313,497.5 Q429.8281,497.5 429.2344,497.7813 Q428.6563,498.0625 428.2031,498.6875 Q427.75,499.3125 427.75,500.1719 L427.75,501.0938 Q427.75,502.125 428.5938,502.8125 Q429.4375,503.5 430.9375,503.5 Q431.8281,503.5 432.4531,503.2969 Q432.8125,503.1875 433.2188,502.8281 Q433.4844,502.625 433.625,502.5625 Q433.7656,502.5 433.9375,502.5 Q434.2656,502.5 434.5,502.7656 Q434.75,503.0156 434.75,503.375 Q434.75,503.7188 434.4063,504.125 Q433.9063,504.7188 433.1094,505.0469 Q432.0625,505.5 430.7813,505.5 Q429.2813,505.5 428.0781,504.9063 Q427.1094,504.4375 426.4219,503.4219 Q425.75,502.4063 425.75,501.2031 L425.75,500.1094 Q425.75,498.8594 426.3438,497.7656 Q426.9531,496.6719 428,496.0938 Q429.0625,495.5 430.25,495.5 Q430.9688,495.5 431.5938,495.75 Q432.2188,496 432.75,496.5 Z "/><text fill="#000000" font-family="sans-serif" font-size="12" lengthAdjust="spacingAndGlyphs" textLength="105" x="451.25" y="504.9102">RegistOrganization</text><line style="stroke: #A80036; stroke-width: 1.5;" x1="380.5" x2="594.5" y1="516" y2="516"/><line style="stroke: #A80036; stroke-width: 1.5;" x1="380.5" x2="594.5" y1="524" y2="524"/><text fill="#000000" font-family="sans-serif" font-size="11" lengthAdjust="spacingAndGlyphs" textLength="204" x="385.5" y="539.4189">+getRegistOrganizationByUserEmail(email)</text><!--MD5=[eba5144af5135a87840971fc4358c553]
class RegistFreelancer--><rect fill="#FEFECE" filter="url(#f2v22dsqx9jax)" height="75.6719" id="RegistFreelancer" style="stroke: #A80036; stroke-width: 1.5;" width="173" x="171" y="477"/><ellipse cx="206.7" cy="493" fill="#ADD1B2" rx="11" ry="11" style="stroke: #A80036; stroke-width: 1.0;"/><path d="M208.7,489.5 Q208.9031,489 209.1375,488.75 Q209.3719,488.5 209.6375,488.5 Q210.1063,488.5 210.4031,488.7813 Q210.7,489.0625 210.7,489.7188 L210.7,491.2813 Q210.7,491.9375 210.4188,492.2188 Q210.1375,492.5 209.7,492.5 Q209.3094,492.5 209.0594,492.3281 Q208.8094,492.1563 208.7,491.7031 Q208.6531,491.3906 208.4813,491.2188 Q208.1688,490.8906 207.6063,490.7031 Q207.0438,490.5 206.4813,490.5 Q205.7781,490.5 205.1844,490.7813 Q204.6063,491.0625 204.1531,491.6875 Q203.7,492.3125 203.7,493.1719 L203.7,494.0938 Q203.7,495.125 204.5438,495.8125 Q205.3875,496.5 206.8875,496.5 Q207.7781,496.5 208.4031,496.2969 Q208.7625,496.1875 209.1688,495.8281 Q209.4344,495.625 209.575,495.5625 Q209.7156,495.5 209.8875,495.5 Q210.2156,495.5 210.45,495.7656 Q210.7,496.0156 210.7,496.375 Q210.7,496.7188 210.3563,497.125 Q209.8563,497.7188 209.0594,498.0469 Q208.0125,498.5 206.7313,498.5 Q205.2313,498.5 204.0281,497.9063 Q203.0594,497.4375 202.3719,496.4219 Q201.7,495.4063 201.7,494.2031 L201.7,493.1094 Q201.7,491.8594 202.2938,490.7656 Q202.9031,489.6719 203.95,489.0938 Q205.0125,488.5 206.2,488.5 Q206.9188,488.5 207.5438,488.75 Q208.1688,489 208.7,489.5 Z "/><text fill="#000000" font-family="sans-serif" font-size="12" lengthAdjust="spacingAndGlyphs" textLength="95" x="225.3" y="497.9102">RegistFreelancer</text><line style="stroke: #A80036; stroke-width: 1.5;" x1="172" x2="343" y1="509" y2="509"/><line style="stroke: #A80036; stroke-width: 1.5;" x1="172" x2="343" y1="517" y2="517"/><text fill="#000000" font-family="sans-serif" font-size="11" lengthAdjust="spacingAndGlyphs" textLength="104" x="177" y="532.4189">+getListFreelancers()</text><text fill="#000000" font-family="sans-serif" font-size="11" lengthAdjust="spacingAndGlyphs" textLength="161" x="177" y="546.2549">+getFreelancerById(freelancerID)</text><!--MD5=[86c7c362de55a38b660185a1328fe18d]
class Organization--><rect fill="#FEFECE" filter="url(#f2v22dsqx9jax)" height="75.6719" id="Organization" style="stroke: #A80036; stroke-width: 1.5;" width="156" x="529.5" y="672.5"/><ellipse cx="569.25" cy="688.5" fill="#ADD1B2" rx="11" ry="11" style="stroke: #A80036; stroke-width: 1.0;"/><path d="M571.25,685 Q571.4531,684.5 571.6875,684.25 Q571.9219,684 572.1875,684 Q572.6563,684 572.9531,684.2813 Q573.25,684.5625 573.25,685.2188 L573.25,686.7813 Q573.25,687.4375 572.9688,687.7188 Q572.6875,688 572.25,688 Q571.8594,688 571.6094,687.8281 Q571.3594,687.6563 571.25,687.2031 Q571.2031,686.8906 571.0313,686.7188 Q570.7188,686.3906 570.1563,686.2031 Q569.5938,686 569.0313,686 Q568.3281,686 567.7344,686.2813 Q567.1563,686.5625 566.7031,687.1875 Q566.25,687.8125 566.25,688.6719 L566.25,689.5938 Q566.25,690.625 567.0938,691.3125 Q567.9375,692 569.4375,692 Q570.3281,692 570.9531,691.7969 Q571.3125,691.6875 571.7188,691.3281 Q571.9844,691.125 572.125,691.0625 Q572.2656,691 572.4375,691 Q572.7656,691 573,691.2656 Q573.25,691.5156 573.25,691.875 Q573.25,692.2188 572.9063,692.625 Q572.4063,693.2188 571.6094,693.5469 Q570.5625,694 569.2813,694 Q567.7813,694 566.5781,693.4063 Q565.6094,692.9375 564.9219,691.9219 Q564.25,690.9063 564.25,689.7031 L564.25,688.6094 Q564.25,687.3594 564.8438,686.2656 Q565.4531,685.1719 566.5,684.5938 Q567.5625,684 568.75,684 Q569.4688,684 570.0938,684.25 Q570.7188,684.5 571.25,685 Z "/><text fill="#000000" font-family="sans-serif" font-size="12" lengthAdjust="spacingAndGlyphs" textLength="69" x="588.75" y="693.4102">Organization</text><line style="stroke: #A80036; stroke-width: 1.5;" x1="530.5" x2="684.5" y1="704.5" y2="704.5"/><line style="stroke: #A80036; stroke-width: 1.5;" x1="530.5" x2="684.5" y1="712.5" y2="712.5"/><text fill="#000000" font-family="sans-serif" font-size="11" lengthAdjust="spacingAndGlyphs" textLength="69" x="535.5" y="727.9189">+getTaskList()</text><text fill="#000000" font-family="sans-serif" font-size="11" lengthAdjust="spacingAndGlyphs" textLength="144" x="535.5" y="741.7549">+getPaymentTransactionList()</text><!--MD5=[cf2635f8a68afd84898027166f4516bc]
class TaskList--><rect fill="#FEFECE" filter="url(#f2v22dsqx9jax)" height="75.6719" id="TaskList" style="stroke: #A80036; stroke-width: 1.5;" width="220" x="593.5" y="875"/><ellipse cx="675.75" cy="891" fill="#ADD1B2" rx="11" ry="11" style="stroke: #A80036; stroke-width: 1.0;"/><path d="M677.75,887.5 Q677.9531,887 678.1875,886.75 Q678.4219,886.5 678.6875,886.5 Q679.1563,886.5 679.4531,886.7813 Q679.75,887.0625 679.75,887.7188 L679.75,889.2813 Q679.75,889.9375 679.4688,890.2188 Q679.1875,890.5 678.75,890.5 Q678.3594,890.5 678.1094,890.3281 Q677.8594,890.1563 677.75,889.7031 Q677.7031,889.3906 677.5313,889.2188 Q677.2188,888.8906 676.6563,888.7031 Q676.0938,888.5 675.5313,888.5 Q674.8281,888.5 674.2344,888.7813 Q673.6563,889.0625 673.2031,889.6875 Q672.75,890.3125 672.75,891.1719 L672.75,892.0938 Q672.75,893.125 673.5938,893.8125 Q674.4375,894.5 675.9375,894.5 Q676.8281,894.5 677.4531,894.2969 Q677.8125,894.1875 678.2188,893.8281 Q678.4844,893.625 678.625,893.5625 Q678.7656,893.5 678.9375,893.5 Q679.2656,893.5 679.5,893.7656 Q679.75,894.0156 679.75,894.375 Q679.75,894.7188 679.4063,895.125 Q678.9063,895.7188 678.1094,896.0469 Q677.0625,896.5 675.7813,896.5 Q674.2813,896.5 673.0781,895.9063 Q672.1094,895.4375 671.4219,894.4219 Q670.75,893.4063 670.75,892.2031 L670.75,891.1094 Q670.75,889.8594 671.3438,888.7656 Q671.9531,887.6719 673,887.0938 Q674.0625,886.5 675.25,886.5 Q675.9688,886.5 676.5938,886.75 Q677.2188,887 677.75,887.5 Z "/><text fill="#000000" font-family="sans-serif" font-size="12" lengthAdjust="spacingAndGlyphs" textLength="47" x="696.25" y="895.9102">TaskList</text><line style="stroke: #A80036; stroke-width: 1.5;" x1="594.5" x2="812.5" y1="907" y2="907"/><line style="stroke: #A80036; stroke-width: 1.5;" x1="594.5" x2="812.5" y1="915" y2="915"/><text fill="#000000" font-family="sans-serif" font-size="11" lengthAdjust="spacingAndGlyphs" textLength="208" x="599.5" y="930.4189">+getListTasksByFreelancerID(freelancerID)</text><text fill="#000000" font-family="sans-serif" font-size="11" lengthAdjust="spacingAndGlyphs" textLength="103" x="599.5" y="944.2549">+getTaskByID(taskID)</text><!--MD5=[ba54b1997298830925be59f10364c919]
class PaymentTransactionList--><rect fill="#FEFECE" filter="url(#f2v22dsqx9jax)" height="89.5078" id="PaymentTransactionList" style="stroke: #A80036; stroke-width: 1.5;" width="388" x="170.5" y="868"/><ellipse cx="293.75" cy="884" fill="#ADD1B2" rx="11" ry="11" style="stroke: #A80036; stroke-width: 1.0;"/><path d="M295.75,880.5 Q295.9531,880 296.1875,879.75 Q296.4219,879.5 296.6875,879.5 Q297.1563,879.5 297.4531,879.7813 Q297.75,880.0625 297.75,880.7188 L297.75,882.2813 Q297.75,882.9375 297.4688,883.2188 Q297.1875,883.5 296.75,883.5 Q296.3594,883.5 296.1094,883.3281 Q295.8594,883.1563 295.75,882.7031 Q295.7031,882.3906 295.5313,882.2188 Q295.2188,881.8906 294.6563,881.7031 Q294.0938,881.5 293.5313,881.5 Q292.8281,881.5 292.2344,881.7813 Q291.6563,882.0625 291.2031,882.6875 Q290.75,883.3125 290.75,884.1719 L290.75,885.0938 Q290.75,886.125 291.5938,886.8125 Q292.4375,887.5 293.9375,887.5 Q294.8281,887.5 295.4531,887.2969 Q295.8125,887.1875 296.2188,886.8281 Q296.4844,886.625 296.625,886.5625 Q296.7656,886.5 296.9375,886.5 Q297.2656,886.5 297.5,886.7656 Q297.75,887.0156 297.75,887.375 Q297.75,887.7188 297.4063,888.125 Q296.9063,888.7188 296.1094,889.0469 Q295.0625,889.5 293.7813,889.5 Q292.2813,889.5 291.0781,888.9063 Q290.1094,888.4375 289.4219,887.4219 Q288.75,886.4063 288.75,885.2031 L288.75,884.1094 Q288.75,882.8594 289.3438,881.7656 Q289.9531,880.6719 291,880.0938 Q292.0625,879.5 293.25,879.5 Q293.9688,879.5 294.5938,879.75 Q295.2188,880 295.75,880.5 Z "/><text fill="#000000" font-family="sans-serif" font-size="12" lengthAdjust="spacingAndGlyphs" textLength="133" x="314.25" y="888.9102">PaymentTransactionList</text><line style="stroke: #A80036; stroke-width: 1.5;" x1="171.5" x2="557.5" y1="900" y2="900"/><line style="stroke: #A80036; stroke-width: 1.5;" x1="171.5" x2="557.5" y1="908" y2="908"/><text fill="#000000" font-family="sans-serif" font-size="11" lengthAdjust="spacingAndGlyphs" textLength="376" x="176.5" y="923.4189">+newPaymentTransaction(endDate,delay,descQualityOfWork,task,freelancer)</text><text fill="#000000" font-family="sans-serif" font-size="11" lengthAdjust="spacingAndGlyphs" textLength="253" x="176.5" y="937.2549">+validatesPaymentTransaction(paymentTransaction)</text><text fill="#000000" font-family="sans-serif" font-size="11" lengthAdjust="spacingAndGlyphs" textLength="228" x="176.5" y="951.0908">+addPaymentTransaction(paymentTransaction)</text><!--MD5=[b645a18afb25b7e5623af7186d8eb36f]
class PaymentTransaction--><rect fill="#FEFECE" filter="url(#f2v22dsqx9jax)" height="75.6719" id="PaymentTransaction" style="stroke: #A80036; stroke-width: 1.5;" width="347" x="6" y="1056.5"/><ellipse cx="118.75" cy="1072.5" fill="#ADD1B2" rx="11" ry="11" style="stroke: #A80036; stroke-width: 1.0;"/><path d="M120.75,1069 Q120.9531,1068.5 121.1875,1068.25 Q121.4219,1068 121.6875,1068 Q122.1563,1068 122.4531,1068.2813 Q122.75,1068.5625 122.75,1069.2188 L122.75,1070.7813 Q122.75,1071.4375 122.4688,1071.7188 Q122.1875,1072 121.75,1072 Q121.3594,1072 121.1094,1071.8281 Q120.8594,1071.6563 120.75,1071.2031 Q120.7031,1070.8906 120.5313,1070.7188 Q120.2188,1070.3906 119.6563,1070.2031 Q119.0938,1070 118.5313,1070 Q117.8281,1070 117.2344,1070.2813 Q116.6563,1070.5625 116.2031,1071.1875 Q115.75,1071.8125 115.75,1072.6719 L115.75,1073.5938 Q115.75,1074.625 116.5938,1075.3125 Q117.4375,1076 118.9375,1076 Q119.8281,1076 120.4531,1075.7969 Q120.8125,1075.6875 121.2188,1075.3281 Q121.4844,1075.125 121.625,1075.0625 Q121.7656,1075 121.9375,1075 Q122.2656,1075 122.5,1075.2656 Q122.75,1075.5156 122.75,1075.875 Q122.75,1076.2188 122.4063,1076.625 Q121.9063,1077.2188 121.1094,1077.5469 Q120.0625,1078 118.7813,1078 Q117.2813,1078 116.0781,1077.4063 Q115.1094,1076.9375 114.4219,1075.9219 Q113.75,1074.9063 113.75,1073.7031 L113.75,1072.6094 Q113.75,1071.3594 114.3438,1070.2656 Q114.9531,1069.1719 116,1068.5938 Q117.0625,1068 118.25,1068 Q118.9688,1068 119.5938,1068.25 Q120.2188,1068.5 120.75,1069 Z "/><text fill="#000000" font-family="sans-serif" font-size="12" lengthAdjust="spacingAndGlyphs" textLength="113" x="139.25" y="1077.4102">PaymentTransaction</text><line style="stroke: #A80036; stroke-width: 1.5;" x1="7" x2="352" y1="1088.5" y2="1088.5"/><line style="stroke: #A80036; stroke-width: 1.5;" x1="7" x2="352" y1="1096.5" y2="1096.5"/><text fill="#000000" font-family="sans-serif" font-size="11" lengthAdjust="spacingAndGlyphs" textLength="287" x="12" y="1111.9189">+create(endDate,delay,descQualityOfWork,task,freelancer)</text><text fill="#000000" font-family="sans-serif" font-size="11" lengthAdjust="spacingAndGlyphs" textLength="335" x="12" y="1125.7549">+amountCalculate(endDate,delay,descQualityOfWork,task,freelancer)</text><!--MD5=[ee8b7fb62fe496044b0cc839ec695264]
link CreatePayTransUI to CreatePayTransController--><path d="M648.5,56.28 C648.5,71.2 648.5,91.49 648.5,111.7 " fill="none" id="CreatePayTransUI-&gt;CreatePayTransController" style="stroke: #A80036; stroke-width: 1.0; stroke-dasharray: 7.0,7.0;"/><polygon fill="#A80036" points="648.5,116.83,652.5257,107.8415,648.5143,111.83,644.5257,107.8186,648.5,116.83" style="stroke: #A80036; stroke-width: 1.0;"/><!--MD5=[98e4426292a7161b6e8cc82624e651a2]
link CreatePayTransController to Platform--><path d="M580.222,262.383 C561.896,281.677 542.704,301.881 526.567,318.87 " fill="none" id="CreatePayTransController-&gt;Platform" style="stroke: #A80036; stroke-width: 1.0; stroke-dasharray: 7.0,7.0;"/><polygon fill="#A80036" points="522.96,322.668,532.0579,318.8959,526.4029,319.0422,526.2566,313.3873,522.96,322.668" style="stroke: #A80036; stroke-width: 1.0;"/><!--MD5=[c7ce02ab5199c4ab3c48866f7f7cffb2]
link CreatePayTransController to UserSession--><path d="M757.119,262.138 C791.319,284.694 827.444,308.519 855.486,327.014 " fill="none" id="CreatePayTransController-&gt;UserSession" style="stroke: #A80036; stroke-width: 1.0; stroke-dasharray: 7.0,7.0;"/><polygon fill="#A80036" points="859.916,329.936,854.6049,321.6419,855.742,327.1833,850.2006,328.3204,859.916,329.936" style="stroke: #A80036; stroke-width: 1.0;"/><!--MD5=[41de00f410c78006faf6716184684852]
link CreatePayTransController to AplicationPOT--><path d="M695.574,262.383 C708.102,281.515 721.218,301.542 732.285,318.441 " fill="none" id="CreatePayTransController-&gt;AplicationPOT" style="stroke: #A80036; stroke-width: 1.0; stroke-dasharray: 7.0,7.0;"/><polygon fill="#A80036" points="735.053,322.668,733.4674,312.9476,732.3132,318.4855,726.7754,317.3313,735.053,322.668" style="stroke: #A80036; stroke-width: 1.0;"/><!--MD5=[736896ddd0b2c15ea62844344f935c15]
link Platform to RegistFreelancer--><path d="M431.236,399.183 C396.859,421.902 352.91,450.947 317.816,474.139 " fill="none" id="Platform-&gt;RegistFreelancer" style="stroke: #A80036; stroke-width: 1.0;"/><polygon fill="#A80036" points="313.582,476.937,323.2958,475.3114,317.7532,474.18,318.8846,468.6374,313.582,476.937" style="stroke: #A80036; stroke-width: 1.0;"/><polygon fill="#000000" points="387.5,436.6758,381.5,439.6758,387.5,442.6758,387.5,436.6758" style="stroke: #000000; stroke-width: 1.0;"/><text fill="#000000" font-family="sans-serif" font-size="13" lengthAdjust="spacingAndGlyphs" textLength="21" x="393.5" y="443.4951">has</text><text fill="#000000" font-family="sans-serif" font-size="13" lengthAdjust="spacingAndGlyphs" textLength="7" x="414.7111" y="420.0927">1</text><text fill="#000000" font-family="sans-serif" font-size="13" lengthAdjust="spacingAndGlyphs" textLength="7" x="316.2768" y="466.0019">1</text><!--MD5=[4671e899716b0dcf633e499c71dc2f16]
link Platform to RegistOrganization--><path d="M487.5,399.183 C487.5,423.369 487.5,454.725 487.5,478.556 " fill="none" id="Platform-&gt;RegistOrganization" style="stroke: #A80036; stroke-width: 1.0;"/><polygon fill="#A80036" points="487.5,483.828,491.5,474.828,487.5,478.828,483.5,474.828,487.5,483.828" style="stroke: #A80036; stroke-width: 1.0;"/><text fill="#000000" font-family="sans-serif" font-size="13" lengthAdjust="spacingAndGlyphs" textLength="21" x="488.5" y="443.4951">has</text><polygon fill="#000000" points="494.5,452.3516,497.5,458.3516,500.5,452.3516,494.5,452.3516" style="stroke: #000000; stroke-width: 1.0;"/><text fill="#000000" font-family="sans-serif" font-size="13" lengthAdjust="spacingAndGlyphs" textLength="7" x="479.9422" y="420.0927">1</text><text fill="#000000" font-family="sans-serif" font-size="13" lengthAdjust="spacingAndGlyphs" textLength="7" x="479.7781" y="473.2971">1</text><!--MD5=[b2767384522f615c85a28d92ddf7f4b1]
link RegistOrganization to Organization--><path d="M506.25,546.234 C526.52,578.919 558.963,631.235 581.646,667.811 " fill="none" id="RegistOrganization-&gt;Organization" style="stroke: #A80036; stroke-width: 1.0;"/><polygon fill="#A80036" points="584.363,672.191,583.0213,662.434,581.7288,667.9412,576.2216,666.6486,584.363,672.191" style="stroke: #A80036; stroke-width: 1.0;"/><text fill="#000000" font-family="sans-serif" font-size="13" lengthAdjust="spacingAndGlyphs" textLength="21" x="538.5" y="597.4951">has</text><polygon fill="#000000" points="544.5,606.3516,547.5,612.3516,550.5,606.3516,544.5,606.3516" style="stroke: #000000; stroke-width: 1.0;"/><text fill="#000000" font-family="sans-serif" font-size="13" lengthAdjust="spacingAndGlyphs" textLength="7" x="502.157" y="567.2572">1</text><text fill="#000000" font-family="sans-serif" font-size="13" lengthAdjust="spacingAndGlyphs" textLength="5" x="574.9566" y="661.7852">*</text><!--MD5=[f6c6e2e1edc8b9c679d946fd219df4da]
link CreatePayTransController to Organization--><path d="M642.842,262.12 C634.173,371.86 617.871,578.218 610.853,667.055 " fill="none" id="CreatePayTransController-&gt;Organization" style="stroke: #A80036; stroke-width: 1.0; stroke-dasharray: 7.0,7.0;"/><polygon fill="#A80036" points="610.445,672.222,615.1423,663.5655,610.8393,667.2376,607.1672,662.9346,610.445,672.222" style="stroke: #A80036; stroke-width: 1.0;"/><!--MD5=[12a648b87e57a40b1492f312537407ab]
link RegistFreelancer to Freelancer--><path d="M257.5,553.309 C257.5,573.9 257.5,600.357 257.5,625.622 " fill="none" id="RegistFreelancer-&gt;Freelancer" style="stroke: #A80036; stroke-width: 1.0;"/><polygon fill="#A80036" points="257.5,630.657,261.5,621.657,257.5,625.657,253.5,621.657,257.5,630.657" style="stroke: #A80036; stroke-width: 1.0;"/><text fill="#000000" font-family="sans-serif" font-size="13" lengthAdjust="spacingAndGlyphs" textLength="21" x="258.5" y="597.4951">has</text><polygon fill="#000000" points="264.5,606.3516,267.5,612.3516,270.5,606.3516,264.5,606.3516" style="stroke: #000000; stroke-width: 1.0;"/><text fill="#000000" font-family="sans-serif" font-size="13" lengthAdjust="spacingAndGlyphs" textLength="7" x="249.9422" y="574.2388">1</text><text fill="#000000" font-family="sans-serif" font-size="13" lengthAdjust="spacingAndGlyphs" textLength="5" x="252.2695" y="620.0847">*</text><!--MD5=[522c679f4dd7ba84a6aa9ac03f58229d]
link Organization to TaskList--><path d="M625.332,748.743 C641.834,783.208 666.337,834.382 683.498,870.225 " fill="none" id="Organization-&gt;TaskList" style="stroke: #A80036; stroke-width: 1.0;"/><polygon fill="#A80036" points="685.764,874.957,685.484,865.1121,683.6042,870.4475,678.2689,868.5677,685.764,874.957" style="stroke: #A80036; stroke-width: 1.0;"/><text fill="#000000" font-family="sans-serif" font-size="13" lengthAdjust="spacingAndGlyphs" textLength="21" x="668.5" y="834.4951">has</text><polygon fill="#000000" points="674.5,843.3516,677.5,849.3516,680.5,843.3516,674.5,843.3516" style="stroke: #000000; stroke-width: 1.0;"/><text fill="#000000" font-family="sans-serif" font-size="13" lengthAdjust="spacingAndGlyphs" textLength="7" x="620.6162" y="769.6623">1</text><text fill="#000000" font-family="sans-serif" font-size="13" lengthAdjust="spacingAndGlyphs" textLength="7" x="674.8486" y="864.0256">1</text><!--MD5=[322d55b5ad1658b7791494cedb432ac7]
link Organization to PaymentTransactionList--><path d="M562.647,748.508 C523.058,781.174 465.118,828.98 422.108,864.468 " fill="none" id="Organization-&gt;PaymentTransactionList" style="stroke: #A80036; stroke-width: 1.0;"/><polygon fill="#A80036" points="417.993,867.863,427.4807,865.2204,421.8496,864.6808,422.3892,859.0497,417.993,867.863" style="stroke: #A80036; stroke-width: 1.0;"/><polygon fill="#000000" points="479.5,827.6758,473.5,830.6758,479.5,833.6758,479.5,827.6758" style="stroke: #000000; stroke-width: 1.0;"/><text fill="#000000" font-family="sans-serif" font-size="13" lengthAdjust="spacingAndGlyphs" textLength="21" x="485.5" y="834.4951">has</text><text fill="#000000" font-family="sans-serif" font-size="13" lengthAdjust="spacingAndGlyphs" textLength="7" x="547.6385" y="769.6795">1</text><text fill="#000000" font-family="sans-serif" font-size="13" lengthAdjust="spacingAndGlyphs" textLength="7" x="418.6482" y="857.2861">1</text><!--MD5=[ad9e6b825fedf9daad488846d3a92887]
link PaymentTransactionList to PaymentTransaction--><path d="M318.77,958.371 C289.073,987.184 250.649,1024.466 221.685,1052.569 " fill="none" id="PaymentTransactionList-&gt;PaymentTransaction" style="stroke: #A80036; stroke-width: 1.0;"/><polygon fill="#A80036" points="217.843,1056.2973,227.0882,1052.9022,221.432,1052.816,221.5181,1047.1598,217.843,1056.2973" style="stroke: #A80036; stroke-width: 1.0;"/><polygon fill="#000000" points="291.5,995.6758,285.5,998.6758,291.5,1001.6758,291.5,995.6758" style="stroke: #000000; stroke-width: 1.0;"/><text fill="#000000" font-family="sans-serif" font-size="13" lengthAdjust="spacingAndGlyphs" textLength="21" x="297.5" y="1002.4951">has</text><text fill="#000000" font-family="sans-serif" font-size="13" lengthAdjust="spacingAndGlyphs" textLength="7" x="305.1547" y="979.0945">1</text><text fill="#000000" font-family="sans-serif" font-size="13" lengthAdjust="spacingAndGlyphs" textLength="5" x="219.2275" y="1045.6227">*</text><!--MD5=[d4655a198b6ba8077692ff201d0478c8]
link CreatePayTransController to PaymentTransaction--><path d="M454.167,215.717 C302.549,241.019 117.5,286.878 117.5,360 C117.5,360 117.5,360 117.5,914 C117.5,963.223 138.587,1016.083 156.165,1051.597 " fill="none" id="CreatePayTransController-&gt;PaymentTransaction" style="stroke: #A80036; stroke-width: 1.0; stroke-dasharray: 7.0,7.0;"/><polygon fill="#A80036" points="158.51,1056.2736,158.0502,1046.4355,156.2682,1051.8043,150.8994,1050.0223,158.51,1056.2736" style="stroke: #A80036; stroke-width: 1.0;"/><!--MD5=[14c738364c5fdafcb97ced6863906d7f]
link TaskList to Task--><path d="M703.5,951.193 C703.5,974.105 703.5,1004.073 703.5,1030.597 " fill="none" id="TaskList-&gt;Task" style="stroke: #A80036; stroke-width: 1.0;"/><polygon fill="#A80036" points="703.5,1035.852,707.5,1026.852,703.5,1030.852,699.5,1026.852,703.5,1035.852" style="stroke: #A80036; stroke-width: 1.0;"/><text fill="#000000" font-family="sans-serif" font-size="13" lengthAdjust="spacingAndGlyphs" textLength="21" x="704.5" y="1002.4951">has</text><polygon fill="#000000" points="710.5,1011.3516,713.5,1017.3516,716.5,1011.3516,710.5,1011.3516" style="stroke: #000000; stroke-width: 1.0;"/><text fill="#000000" font-family="sans-serif" font-size="13" lengthAdjust="spacingAndGlyphs" textLength="7" x="695.9422" y="972.1043">1</text><text fill="#000000" font-family="sans-serif" font-size="13" lengthAdjust="spacingAndGlyphs" textLength="7" x="696.0734" y="1025.2349">1</text><!--MD5=[44860a51ee4eab6779335cd2b36047d4]
@startuml
skinparam classAttributeIconSize 0

class CreatePayTransUI{
}

class Freelancer{
-String freelancerId
-String name
-String lvlExp
-String email
-String nif
-String iban
-String address
-String country
}

class CreatePayTransController{
+getListFreelancers()
+getFreelancerByID()
+getListTasksByFreelancerID()
+getTaskByID()
+newPaymentTransaction(endDate,delay,descQualityOfWork,task,freelancer)
+amountCalculate(endDate,delay,descQualityOfWork,task,freelancer)
+registsPaymentTransaction()
}

class Platform{
+getRegistFreelancer()
+getRegistOrganization()
}

class AplicationPOT{
+getInstance()
+getCurrentSession()
}

class UserSession{
+getUserEmail()
}

class Task{
-String TaskId
-String description
-String duration
-String cost
-String category
}

class RegistOrganization{
+getRegistOrganizationByUserEmail(email)
}

class RegistFreelancer{
+getListFreelancers()
+getFreelancerById(freelancerID)
}

class Organization{
+getTaskList()
+getPaymentTransactionList()
}

class TaskList{
+getListTasksByFreelancerID(freelancerID)
+getTaskByID(taskID)
}

class PaymentTransactionList{
+newPaymentTransaction(endDate,delay,descQualityOfWork,task,freelancer)
+validatesPaymentTransaction(paymentTransaction)
+addPaymentTransaction(paymentTransaction)
}

class PaymentTransaction{
+create(endDate,delay,descQualityOfWork,task,freelancer)
+amountCalculate(endDate,delay,descQualityOfWork,task,freelancer)
}

CreatePayTransUI ..> CreatePayTransController
CreatePayTransController ..> Platform
CreatePayTransController ..> UserSession
CreatePayTransController ..> AplicationPOT
Platform "1" - -> "1" RegistFreelancer : has >
Platform "1" - -> "1" RegistOrganization : has >
RegistOrganization "1" - -> "*" Organization : has >
CreatePayTransController ..> Organization
RegistFreelancer "1" - -> "*" Freelancer : has >
Organization "1" - -> "1" TaskList : has >
Organization "1" - -> "1" PaymentTransactionList : has >
PaymentTransactionList "1" - -> "*" PaymentTransaction : has >
CreatePayTransController ..> PaymentTransaction
TaskList "1" - -> "1" Task : has >
@enduml

PlantUML version 1.2020.09(Sun May 10 11:51:06 BST 2020)
(GPL source distribution)
Java Runtime: OpenJDK Runtime Environment
JVM: OpenJDK 64-Bit Server VM
Java Version: 11.0.7+10-b765.53
Operating System: Windows 10
Default Encoding: Cp1252
Language: pt
Country: PT
--></g></svg>