<?xml version="1.0" encoding="UTF-8" standalone="no"?><svg xmlns="http://www.w3.org/2000/svg" xmlns:xlink="http://www.w3.org/1999/xlink" contentScriptType="application/ecmascript" contentStyleType="text/css" height="453px" preserveAspectRatio="none" style="width:1588px;height:453px;" version="1.1" viewBox="0 0 1588 453" width="1588px" zoomAndPan="magnify"><defs><filter height="300%" id="fapqpgxl8ft6v" width="300%" x="-1" y="-1"><feGaussianBlur result="blurOut" stdDeviation="2.0"/><feColorMatrix in="blurOut" result="blurOut2" type="matrix" values="0 0 0 0 0 0 0 0 0 0 0 0 0 0 0 0 0 0 .4 0"/><feOffset dx="4.0" dy="4.0" in="blurOut2" result="blurOut3"/><feBlend in="SourceGraphic" in2="blurOut3" mode="normal"/></filter></defs><g><!--MD5=[b34797a66dc35cbf1d65f7e3ca75530e]
class Task--><rect fill="#FEFECE" filter="url(#fapqpgxl8ft6v)" height="123.0156" id="Task" style="stroke: #A80036; stroke-width: 1.5;" width="122" x="451" y="195.5"/><ellipse cx="494.35" cy="211.5" fill="#ADD1B2" rx="11" ry="11" style="stroke: #A80036; stroke-width: 1.0;"/><path d="M496.35,208 Q496.5531,207.5 496.7875,207.25 Q497.0219,207 497.2875,207 Q497.7563,207 498.0531,207.2813 Q498.35,207.5625 498.35,208.2188 L498.35,209.7813 Q498.35,210.4375 498.0688,210.7188 Q497.7875,211 497.35,211 Q496.9594,211 496.7094,210.8281 Q496.4594,210.6563 496.35,210.2031 Q496.3031,209.8906 496.1313,209.7188 Q495.8188,209.3906 495.2563,209.2031 Q494.6938,209 494.1313,209 Q493.4281,209 492.8344,209.2813 Q492.2563,209.5625 491.8031,210.1875 Q491.35,210.8125 491.35,211.6719 L491.35,212.5938 Q491.35,213.625 492.1938,214.3125 Q493.0375,215 494.5375,215 Q495.4281,215 496.0531,214.7969 Q496.4125,214.6875 496.8188,214.3281 Q497.0844,214.125 497.225,214.0625 Q497.3656,214 497.5375,214 Q497.8656,214 498.1,214.2656 Q498.35,214.5156 498.35,214.875 Q498.35,215.2188 498.0063,215.625 Q497.5063,216.2188 496.7094,216.5469 Q495.6625,217 494.3813,217 Q492.8813,217 491.6781,216.4063 Q490.7094,215.9375 490.0219,214.9219 Q489.35,213.9063 489.35,212.7031 L489.35,211.6094 Q489.35,210.3594 489.9438,209.2656 Q490.5531,208.1719 491.6,207.5938 Q492.6625,207 493.85,207 Q494.5688,207 495.1938,207.25 Q495.8188,207.5 496.35,208 Z "/><text fill="#000000" font-family="sans-serif" font-size="12" lengthAdjust="spacingAndGlyphs" textLength="27" x="514.65" y="216.4102">Task</text><line style="stroke: #A80036; stroke-width: 1.5;" x1="452" x2="572" y1="227.5" y2="227.5"/><text fill="#000000" font-family="sans-serif" font-size="11" lengthAdjust="spacingAndGlyphs" textLength="43" x="457" y="242.9189">-String id</text><text fill="#000000" font-family="sans-serif" font-size="11" lengthAdjust="spacingAndGlyphs" textLength="90" x="457" y="256.7549">-String designation</text><text fill="#000000" font-family="sans-serif" font-size="11" lengthAdjust="spacingAndGlyphs" textLength="98" x="457" y="270.5908">-String informalDesc</text><text fill="#000000" font-family="sans-serif" font-size="11" lengthAdjust="spacingAndGlyphs" textLength="97" x="457" y="284.4268">-String tecnicalDesc</text><text fill="#000000" font-family="sans-serif" font-size="11" lengthAdjust="spacingAndGlyphs" textLength="103" x="457" y="298.2627">-Integer EstimatedDur</text><text fill="#000000" font-family="sans-serif" font-size="11" lengthAdjust="spacingAndGlyphs" textLength="110" x="457" y="312.0986">-Double EstimatedPrice</text><!--MD5=[b645a18afb25b7e5623af7186d8eb36f]
class PaymentTransaction--><rect fill="#FEFECE" filter="url(#fapqpgxl8ft6v)" height="261.375" id="PaymentTransaction" style="stroke: #A80036; stroke-width: 1.5;" width="145" x="993" y="55.5"/><ellipse cx="1008" cy="71.5" fill="#ADD1B2" rx="11" ry="11" style="stroke: #A80036; stroke-width: 1.0;"/><path d="M1010,68 Q1010.2031,67.5 1010.4375,67.25 Q1010.6719,67 1010.9375,67 Q1011.4063,67 1011.7031,67.2813 Q1012,67.5625 1012,68.2188 L1012,69.7813 Q1012,70.4375 1011.7188,70.7188 Q1011.4375,71 1011,71 Q1010.6094,71 1010.3594,70.8281 Q1010.1094,70.6563 1010,70.2031 Q1009.9531,69.8906 1009.7813,69.7188 Q1009.4688,69.3906 1008.9063,69.2031 Q1008.3438,69 1007.7813,69 Q1007.0781,69 1006.4844,69.2813 Q1005.9063,69.5625 1005.4531,70.1875 Q1005,70.8125 1005,71.6719 L1005,72.5938 Q1005,73.625 1005.8438,74.3125 Q1006.6875,75 1008.1875,75 Q1009.0781,75 1009.7031,74.7969 Q1010.0625,74.6875 1010.4688,74.3281 Q1010.7344,74.125 1010.875,74.0625 Q1011.0156,74 1011.1875,74 Q1011.5156,74 1011.75,74.2656 Q1012,74.5156 1012,74.875 Q1012,75.2188 1011.6563,75.625 Q1011.1563,76.2188 1010.3594,76.5469 Q1009.3125,77 1008.0313,77 Q1006.5313,77 1005.3281,76.4063 Q1004.3594,75.9375 1003.6719,74.9219 Q1003,73.9063 1003,72.7031 L1003,71.6094 Q1003,70.3594 1003.5938,69.2656 Q1004.2031,68.1719 1005.25,67.5938 Q1006.3125,67 1007.5,67 Q1008.2188,67 1008.8438,67.25 Q1009.4688,67.5 1010,68 Z "/><text fill="#000000" font-family="sans-serif" font-size="12" lengthAdjust="spacingAndGlyphs" textLength="113" x="1022" y="76.4102">PaymentTransaction</text><line style="stroke: #A80036; stroke-width: 1.5;" x1="994" x2="1137" y1="87.5" y2="87.5"/><text fill="#000000" font-family="sans-serif" font-size="11" lengthAdjust="spacingAndGlyphs" textLength="66" x="999" y="102.9189">-String idTask</text><text fill="#000000" font-family="sans-serif" font-size="11" lengthAdjust="spacingAndGlyphs" textLength="82" x="999" y="116.7549">-String briefDesc</text><text fill="#000000" font-family="sans-serif" font-size="11" lengthAdjust="spacingAndGlyphs" textLength="79" x="999" y="130.5908">-Integer duration</text><text fill="#000000" font-family="sans-serif" font-size="11" lengthAdjust="spacingAndGlyphs" textLength="100" x="999" y="144.4268">-Double costPerHour</text><text fill="#000000" font-family="sans-serif" font-size="11" lengthAdjust="spacingAndGlyphs" textLength="78" x="999" y="158.2627">-String category</text><text fill="#000000" font-family="sans-serif" font-size="11" lengthAdjust="spacingAndGlyphs" textLength="75" x="999" y="172.0986">-String endDate</text><text fill="#000000" font-family="sans-serif" font-size="11" lengthAdjust="spacingAndGlyphs" textLength="66" x="999" y="185.9346">-Integer delay</text><text fill="#000000" font-family="sans-serif" font-size="11" lengthAdjust="spacingAndGlyphs" textLength="129" x="999" y="199.7705">-String descQualityOfWork</text><text fill="#000000" font-family="sans-serif" font-size="11" lengthAdjust="spacingAndGlyphs" textLength="95" x="999" y="213.6064">-String idFreelancer</text><text fill="#000000" font-family="sans-serif" font-size="11" lengthAdjust="spacingAndGlyphs" textLength="61" x="999" y="227.4424">-String name</text><text fill="#000000" font-family="sans-serif" font-size="11" lengthAdjust="spacingAndGlyphs" textLength="63" x="999" y="241.2783">-String lvlExp</text><text fill="#000000" font-family="sans-serif" font-size="11" lengthAdjust="spacingAndGlyphs" textLength="59" x="999" y="255.1143">-String email</text><text fill="#000000" font-family="sans-serif" font-size="11" lengthAdjust="spacingAndGlyphs" textLength="50" x="999" y="268.9502">-String NIF</text><text fill="#000000" font-family="sans-serif" font-size="11" lengthAdjust="spacingAndGlyphs" textLength="59" x="999" y="282.7861">-String IBAN</text><text fill="#000000" font-family="sans-serif" font-size="11" lengthAdjust="spacingAndGlyphs" textLength="69" x="999" y="296.6221">-String adress</text><text fill="#000000" font-family="sans-serif" font-size="11" lengthAdjust="spacingAndGlyphs" textLength="72" x="999" y="310.458">-String country</text><!--MD5=[1f687b5315377fe49fca59b457947463]
class Freelancer--><rect fill="#FEFECE" filter="url(#fapqpgxl8ft6v)" height="95.3438" id="Freelancer" style="stroke: #A80036; stroke-width: 1.5;" width="94" x="1262" y="262.5"/><ellipse cx="1278.35" cy="278.5" fill="#ADD1B2" rx="11" ry="11" style="stroke: #A80036; stroke-width: 1.0;"/><path d="M1280.35,275 Q1280.5531,274.5 1280.7875,274.25 Q1281.0219,274 1281.2875,274 Q1281.7563,274 1282.0531,274.2813 Q1282.35,274.5625 1282.35,275.2188 L1282.35,276.7813 Q1282.35,277.4375 1282.0688,277.7188 Q1281.7875,278 1281.35,278 Q1280.9594,278 1280.7094,277.8281 Q1280.4594,277.6563 1280.35,277.2031 Q1280.3031,276.8906 1280.1313,276.7188 Q1279.8188,276.3906 1279.2563,276.2031 Q1278.6938,276 1278.1313,276 Q1277.4281,276 1276.8344,276.2813 Q1276.2563,276.5625 1275.8031,277.1875 Q1275.35,277.8125 1275.35,278.6719 L1275.35,279.5938 Q1275.35,280.625 1276.1938,281.3125 Q1277.0375,282 1278.5375,282 Q1279.4281,282 1280.0531,281.7969 Q1280.4125,281.6875 1280.8188,281.3281 Q1281.0844,281.125 1281.225,281.0625 Q1281.3656,281 1281.5375,281 Q1281.8656,281 1282.1,281.2656 Q1282.35,281.5156 1282.35,281.875 Q1282.35,282.2188 1282.0063,282.625 Q1281.5063,283.2188 1280.7094,283.5469 Q1279.6625,284 1278.3813,284 Q1276.8813,284 1275.6781,283.4063 Q1274.7094,282.9375 1274.0219,281.9219 Q1273.35,280.9063 1273.35,279.7031 L1273.35,278.6094 Q1273.35,277.3594 1273.9438,276.2656 Q1274.5531,275.1719 1275.6,274.5938 Q1276.6625,274 1277.85,274 Q1278.5688,274 1279.1938,274.25 Q1279.8188,274.5 1280.35,275 Z "/><text fill="#000000" font-family="sans-serif" font-size="12" lengthAdjust="spacingAndGlyphs" textLength="59" x="1292.65" y="283.4102">Freelancer</text><line style="stroke: #A80036; stroke-width: 1.5;" x1="1263" x2="1355" y1="294.5" y2="294.5"/><text fill="#000000" font-family="sans-serif" font-size="11" lengthAdjust="spacingAndGlyphs" textLength="61" x="1268" y="309.9189">-String name</text><text fill="#000000" font-family="sans-serif" font-size="11" lengthAdjust="spacingAndGlyphs" textLength="50" x="1268" y="323.7549">-String NIF</text><text fill="#000000" font-family="sans-serif" font-size="11" lengthAdjust="spacingAndGlyphs" textLength="82" x="1268" y="337.5908">-String telephone</text><text fill="#000000" font-family="sans-serif" font-size="11" lengthAdjust="spacingAndGlyphs" textLength="59" x="1268" y="351.4268">-String email</text><!--MD5=[f483d6e5de34a60207b28a5563be5e8b]
class Collaborator--><rect fill="#FEFECE" filter="url(#fapqpgxl8ft6v)" height="95.3438" id="Collaborator" style="stroke: #A80036; stroke-width: 1.5;" width="100" x="717" y="98.5"/><ellipse cx="732" cy="114.5" fill="#ADD1B2" rx="11" ry="11" style="stroke: #A80036; stroke-width: 1.0;"/><path d="M734,111 Q734.2031,110.5 734.4375,110.25 Q734.6719,110 734.9375,110 Q735.4063,110 735.7031,110.2813 Q736,110.5625 736,111.2188 L736,112.7813 Q736,113.4375 735.7188,113.7188 Q735.4375,114 735,114 Q734.6094,114 734.3594,113.8281 Q734.1094,113.6563 734,113.2031 Q733.9531,112.8906 733.7813,112.7188 Q733.4688,112.3906 732.9063,112.2031 Q732.3438,112 731.7813,112 Q731.0781,112 730.4844,112.2813 Q729.9063,112.5625 729.4531,113.1875 Q729,113.8125 729,114.6719 L729,115.5938 Q729,116.625 729.8438,117.3125 Q730.6875,118 732.1875,118 Q733.0781,118 733.7031,117.7969 Q734.0625,117.6875 734.4688,117.3281 Q734.7344,117.125 734.875,117.0625 Q735.0156,117 735.1875,117 Q735.5156,117 735.75,117.2656 Q736,117.5156 736,117.875 Q736,118.2188 735.6563,118.625 Q735.1563,119.2188 734.3594,119.5469 Q733.3125,120 732.0313,120 Q730.5313,120 729.3281,119.4063 Q728.3594,118.9375 727.6719,117.9219 Q727,116.9063 727,115.7031 L727,114.6094 Q727,113.3594 727.5938,112.2656 Q728.2031,111.1719 729.25,110.5938 Q730.3125,110 731.5,110 Q732.2188,110 732.8438,110.25 Q733.4688,110.5 734,111 Z "/><text fill="#000000" font-family="sans-serif" font-size="12" lengthAdjust="spacingAndGlyphs" textLength="68" x="746" y="119.4102">Collaborator</text><line style="stroke: #A80036; stroke-width: 1.5;" x1="718" x2="816" y1="130.5" y2="130.5"/><text fill="#000000" font-family="sans-serif" font-size="11" lengthAdjust="spacingAndGlyphs" textLength="61" x="723" y="145.9189">-String name</text><text fill="#000000" font-family="sans-serif" font-size="11" lengthAdjust="spacingAndGlyphs" textLength="74" x="723" y="159.7549">-String function</text><text fill="#000000" font-family="sans-serif" font-size="11" lengthAdjust="spacingAndGlyphs" textLength="82" x="723" y="173.5908">-String telephone</text><text fill="#000000" font-family="sans-serif" font-size="11" lengthAdjust="spacingAndGlyphs" textLength="59" x="723" y="187.4268">-String email</text><!--MD5=[3fd616f346a44cd59a91eb10b19e157c]
class User--><rect fill="#FEFECE" filter="url(#fapqpgxl8ft6v)" height="81.5078" id="User" style="stroke: #A80036; stroke-width: 1.5;" width="97" x="1480" y="63"/><ellipse cx="1512.1" cy="79" fill="#ADD1B2" rx="11" ry="11" style="stroke: #A80036; stroke-width: 1.0;"/><path d="M1514.1,75.5 Q1514.3031,75 1514.5375,74.75 Q1514.7719,74.5 1515.0375,74.5 Q1515.5063,74.5 1515.8031,74.7813 Q1516.1,75.0625 1516.1,75.7188 L1516.1,77.2813 Q1516.1,77.9375 1515.8188,78.2188 Q1515.5375,78.5 1515.1,78.5 Q1514.7094,78.5 1514.4594,78.3281 Q1514.2094,78.1563 1514.1,77.7031 Q1514.0531,77.3906 1513.8813,77.2188 Q1513.5688,76.8906 1513.0063,76.7031 Q1512.4438,76.5 1511.8813,76.5 Q1511.1781,76.5 1510.5844,76.7813 Q1510.0063,77.0625 1509.5531,77.6875 Q1509.1,78.3125 1509.1,79.1719 L1509.1,80.0938 Q1509.1,81.125 1509.9438,81.8125 Q1510.7875,82.5 1512.2875,82.5 Q1513.1781,82.5 1513.8031,82.2969 Q1514.1625,82.1875 1514.5688,81.8281 Q1514.8344,81.625 1514.975,81.5625 Q1515.1156,81.5 1515.2875,81.5 Q1515.6156,81.5 1515.85,81.7656 Q1516.1,82.0156 1516.1,82.375 Q1516.1,82.7188 1515.7563,83.125 Q1515.2563,83.7188 1514.4594,84.0469 Q1513.4125,84.5 1512.1313,84.5 Q1510.6313,84.5 1509.4281,83.9063 Q1508.4594,83.4375 1507.7719,82.4219 Q1507.1,81.4063 1507.1,80.2031 L1507.1,79.1094 Q1507.1,77.8594 1507.6938,76.7656 Q1508.3031,75.6719 1509.35,75.0938 Q1510.4125,74.5 1511.6,74.5 Q1512.3188,74.5 1512.9438,74.75 Q1513.5688,75 1514.1,75.5 Z "/><text fill="#000000" font-family="sans-serif" font-size="12" lengthAdjust="spacingAndGlyphs" textLength="27" x="1529.9" y="83.9102">User</text><line style="stroke: #A80036; stroke-width: 1.5;" x1="1481" x2="1576" y1="95" y2="95"/><text fill="#000000" font-family="sans-serif" font-size="11" lengthAdjust="spacingAndGlyphs" textLength="61" x="1486" y="110.4189">-String nome</text><text fill="#000000" font-family="sans-serif" font-size="11" lengthAdjust="spacingAndGlyphs" textLength="59" x="1486" y="124.2549">-String email</text><text fill="#000000" font-family="sans-serif" font-size="11" lengthAdjust="spacingAndGlyphs" textLength="85" x="1486" y="138.0908">-String password</text><!--MD5=[03dcba4cf8fb1a884adf843655d65df1]
class Plataform--><rect fill="#FEFECE" filter="url(#fapqpgxl8ft6v)" height="53.8359" id="Plataform" style="stroke: #A80036; stroke-width: 1.5;" width="102" x="6" y="329"/><ellipse cx="28.65" cy="345" fill="#ADD1B2" rx="11" ry="11" style="stroke: #A80036; stroke-width: 1.0;"/><path d="M30.65,341.5 Q30.8531,341 31.0875,340.75 Q31.3219,340.5 31.5875,340.5 Q32.0563,340.5 32.3531,340.7813 Q32.65,341.0625 32.65,341.7188 L32.65,343.2813 Q32.65,343.9375 32.3688,344.2188 Q32.0875,344.5 31.65,344.5 Q31.2594,344.5 31.0094,344.3281 Q30.7594,344.1563 30.65,343.7031 Q30.6031,343.3906 30.4313,343.2188 Q30.1188,342.8906 29.5563,342.7031 Q28.9938,342.5 28.4313,342.5 Q27.7281,342.5 27.1344,342.7813 Q26.5563,343.0625 26.1031,343.6875 Q25.65,344.3125 25.65,345.1719 L25.65,346.0938 Q25.65,347.125 26.4938,347.8125 Q27.3375,348.5 28.8375,348.5 Q29.7281,348.5 30.3531,348.2969 Q30.7125,348.1875 31.1188,347.8281 Q31.3844,347.625 31.525,347.5625 Q31.6656,347.5 31.8375,347.5 Q32.1656,347.5 32.4,347.7656 Q32.65,348.0156 32.65,348.375 Q32.65,348.7188 32.3063,349.125 Q31.8063,349.7188 31.0094,350.0469 Q29.9625,350.5 28.6813,350.5 Q27.1813,350.5 25.9781,349.9063 Q25.0094,349.4375 24.3219,348.4219 Q23.65,347.4063 23.65,346.2031 L23.65,345.1094 Q23.65,343.8594 24.2438,342.7656 Q24.8531,341.6719 25.9,341.0938 Q26.9625,340.5 28.15,340.5 Q28.8688,340.5 29.4938,340.75 Q30.1188,341 30.65,341.5 Z "/><text fill="#000000" font-family="sans-serif" font-size="12" lengthAdjust="spacingAndGlyphs" textLength="53" x="44.35" y="349.9102">Plataform</text><line style="stroke: #A80036; stroke-width: 1.5;" x1="7" x2="107" y1="361" y2="361"/><text fill="#000000" font-family="sans-serif" font-size="11" lengthAdjust="spacingAndGlyphs" textLength="90" x="12" y="376.4189">-String designation</text><!--MD5=[86c7c362de55a38b660185a1328fe18d]
class Organization--><rect fill="#FEFECE" filter="url(#fapqpgxl8ft6v)" height="109.1797" id="Organization" style="stroke: #A80036; stroke-width: 1.5;" width="101" x="254" y="103.5"/><ellipse cx="269" cy="119.5" fill="#ADD1B2" rx="11" ry="11" style="stroke: #A80036; stroke-width: 1.0;"/><path d="M271,116 Q271.2031,115.5 271.4375,115.25 Q271.6719,115 271.9375,115 Q272.4063,115 272.7031,115.2813 Q273,115.5625 273,116.2188 L273,117.7813 Q273,118.4375 272.7188,118.7188 Q272.4375,119 272,119 Q271.6094,119 271.3594,118.8281 Q271.1094,118.6563 271,118.2031 Q270.9531,117.8906 270.7813,117.7188 Q270.4688,117.3906 269.9063,117.2031 Q269.3438,117 268.7813,117 Q268.0781,117 267.4844,117.2813 Q266.9063,117.5625 266.4531,118.1875 Q266,118.8125 266,119.6719 L266,120.5938 Q266,121.625 266.8438,122.3125 Q267.6875,123 269.1875,123 Q270.0781,123 270.7031,122.7969 Q271.0625,122.6875 271.4688,122.3281 Q271.7344,122.125 271.875,122.0625 Q272.0156,122 272.1875,122 Q272.5156,122 272.75,122.2656 Q273,122.5156 273,122.875 Q273,123.2188 272.6563,123.625 Q272.1563,124.2188 271.3594,124.5469 Q270.3125,125 269.0313,125 Q267.5313,125 266.3281,124.4063 Q265.3594,123.9375 264.6719,122.9219 Q264,121.9063 264,120.7031 L264,119.6094 Q264,118.3594 264.5938,117.2656 Q265.2031,116.1719 266.25,115.5938 Q267.3125,115 268.5,115 Q269.2188,115 269.8438,115.25 Q270.4688,115.5 271,116 Z "/><text fill="#000000" font-family="sans-serif" font-size="12" lengthAdjust="spacingAndGlyphs" textLength="69" x="283" y="124.4102">Organization</text><line style="stroke: #A80036; stroke-width: 1.5;" x1="255" x2="354" y1="135.5" y2="135.5"/><text fill="#000000" font-family="sans-serif" font-size="11" lengthAdjust="spacingAndGlyphs" textLength="61" x="260" y="150.9189">-String name</text><text fill="#000000" font-family="sans-serif" font-size="11" lengthAdjust="spacingAndGlyphs" textLength="50" x="260" y="164.7549">-String NIF</text><text fill="#000000" font-family="sans-serif" font-size="11" lengthAdjust="spacingAndGlyphs" textLength="74" x="260" y="178.5908">-String website</text><text fill="#000000" font-family="sans-serif" font-size="11" lengthAdjust="spacingAndGlyphs" textLength="82" x="260" y="192.4268">-String telephone</text><text fill="#000000" font-family="sans-serif" font-size="11" lengthAdjust="spacingAndGlyphs" textLength="59" x="260" y="206.2627">-String email</text><!--MD5=[69e497c3067133575d4453703547b8fd]
link Plataform to Organization--><path d="M91.621,328.884 C133.512,295.098 205.452,237.077 253.735,198.136 " fill="none" id="Plataform-Organization" style="stroke: #A80036; stroke-width: 1.0;"/><text fill="#000000" font-family="sans-serif" font-size="13" lengthAdjust="spacingAndGlyphs" textLength="71" x="139" y="223.4951">has registed</text><polygon fill="#000000" points="213,216.6758,219,219.6758,213,222.6758,213,216.6758" style="stroke: #000000; stroke-width: 1.0;"/><text fill="#000000" font-family="sans-serif" font-size="13" lengthAdjust="spacingAndGlyphs" textLength="7" x="91.8177" y="318.3182">1</text><text fill="#000000" font-family="sans-serif" font-size="13" lengthAdjust="spacingAndGlyphs" textLength="5" x="240.9117" y="218.7137">*</text><!--MD5=[45817597bcd7048073a670d966abfd17]
link Organization to Collaborator--><path d="M355.23,155.693 C414.294,153.061 515.802,148.879 603,147 C641.195,146.177 684.435,145.944 716.778,145.907 " fill="none" id="Organization-Collaborator" style="stroke: #A80036; stroke-width: 1.0;"/><text fill="#000000" font-family="sans-serif" font-size="13" lengthAdjust="spacingAndGlyphs" textLength="75" x="468" y="143.4951">has manager</text><polygon fill="#000000" points="546,136.6758,552,139.6758,546,142.6758,546,136.6758" style="stroke: #000000; stroke-width: 1.0;"/><text fill="#000000" font-family="sans-serif" font-size="13" lengthAdjust="spacingAndGlyphs" textLength="7" x="362.8561" y="170.0008">1</text><text fill="#000000" font-family="sans-serif" font-size="13" lengthAdjust="spacingAndGlyphs" textLength="7" x="701.8876" y="160.564">1</text><!--MD5=[45817597bcd7048073a670d966abfd17]
link Organization to Collaborator--><path d="M355.287,136.135 C364.989,132.578 375.194,129.309 385,127 C515.685,96.231 554.435,98.746 687,120 C696.837,121.577 707.111,124.193 716.871,127.173 " fill="none" id="Organization-Collaborator-1" style="stroke: #A80036; stroke-width: 1.0;"/><text fill="#000000" font-family="sans-serif" font-size="13" lengthAdjust="spacingAndGlyphs" textLength="21" x="495" y="100.4951">has</text><polygon fill="#000000" points="519,93.6758,525,96.6758,519,99.6758,519,93.6758" style="stroke: #000000; stroke-width: 1.0;"/><text fill="#000000" font-family="sans-serif" font-size="13" lengthAdjust="spacingAndGlyphs" textLength="7" x="362.9211" y="147.6924">1</text><text fill="#000000" font-family="sans-serif" font-size="13" lengthAdjust="spacingAndGlyphs" textLength="20" x="689.167" y="139.2814">1..*</text><!--MD5=[b4b6c1ff9c803d8207b36238c02005ea]
link Freelancer to Task--><path d="M1261.65,318.335 C1227.57,324.024 1180.07,331.045 1138,334 C929.698,348.6311 684.312,298.567 573.13,272.201 " fill="none" id="Freelancer-Task" style="stroke: #A80036; stroke-width: 1.0;"/><polygon fill="#000000" points="855,311.6758,849,314.6758,855,317.6758,855,311.6758" style="stroke: #000000; stroke-width: 1.0;"/><text fill="#000000" font-family="sans-serif" font-size="13" lengthAdjust="spacingAndGlyphs" textLength="101" x="861" y="318.4951">finishes/executes</text><text fill="#000000" font-family="sans-serif" font-size="13" lengthAdjust="spacingAndGlyphs" textLength="7" x="1246.8636" y="334.332">1</text><text fill="#000000" font-family="sans-serif" font-size="13" lengthAdjust="spacingAndGlyphs" textLength="20" x="580.9098" y="288.2521">1..*</text><!--MD5=[f24cbd698439a42b2d62cde440643418]
link Task to PaymentTransaction--><path d="M573.023,259.279 C583.032,259.579 593.308,259.839 603,260 C640.328,260.622 649.841,263.608 687,260 C794.686,249.545 917.253,222.689 992.743,204.376 " fill="none" id="Task-PaymentTransaction" style="stroke: #A80036; stroke-width: 1.0;"/><text fill="#000000" font-family="sans-serif" font-size="13" lengthAdjust="spacingAndGlyphs" textLength="56" x="732.5" y="237.4951">is paid by</text><polygon fill="#000000" points="791.5,230.6758,797.5,233.6758,791.5,236.6758,791.5,230.6758" style="stroke: #000000; stroke-width: 1.0;"/><text fill="#000000" font-family="sans-serif" font-size="13" lengthAdjust="spacingAndGlyphs" textLength="7" x="580.8867" y="274.0473">1</text><text fill="#000000" font-family="sans-serif" font-size="13" lengthAdjust="spacingAndGlyphs" textLength="7" x="977.879" y="220.5899">1</text><!--MD5=[f6802b286771c18a16ea4be983074371]
link PaymentTransaction to Freelancer--><path d="M1138.3,222.868 C1178.35,243.429 1227.03,268.428 1261.97,286.366 " fill="none" id="PaymentTransaction-Freelancer" style="stroke: #A80036; stroke-width: 1.0;"/><text fill="#000000" font-family="sans-serif" font-size="13" lengthAdjust="spacingAndGlyphs" textLength="43" x="1172" y="236.4951">pays to</text><polygon fill="#000000" points="1218,229.6758,1224,232.6758,1218,235.6758,1218,229.6758" style="stroke: #000000; stroke-width: 1.0;"/><text fill="#000000" font-family="sans-serif" font-size="13" lengthAdjust="spacingAndGlyphs" textLength="7" x="1146.1684" y="240.9889">1</text><text fill="#000000" font-family="sans-serif" font-size="13" lengthAdjust="spacingAndGlyphs" textLength="7" x="1246.9168" y="297.3701">1</text><!--MD5=[65ab54bb4516ebbc699d18e0b28e9aea]
link Freelancer to User--><path d="M1356.13,266.313 C1393.91,230.527 1446.99,180.251 1484.03,145.169 " fill="none" id="Freelancer-User" style="stroke: #A80036; stroke-width: 1.0;"/><text fill="#000000" font-family="sans-serif" font-size="13" lengthAdjust="spacingAndGlyphs" textLength="49" x="1387" y="178.4951">acts like</text><polygon fill="#000000" points="1439,171.6758,1445,174.6758,1439,177.6758,1439,171.6758" style="stroke: #000000; stroke-width: 1.0;"/><text fill="#000000" font-family="sans-serif" font-size="13" lengthAdjust="spacingAndGlyphs" textLength="22" x="1363.9412" y="275.0132">0..1</text><text fill="#000000" font-family="sans-serif" font-size="13" lengthAdjust="spacingAndGlyphs" textLength="7" x="1469.9844" y="165.9478">1</text><!--MD5=[c32d3c60a61e5638fef4971a1b3a8306]
link Collaborator to PaymentTransaction--><path d="M817.294,152.65 C865.213,159.115 938.517,169.004 992.871,176.337 " fill="none" id="Collaborator-PaymentTransaction" style="stroke: #A80036; stroke-width: 1.0;"/><text fill="#000000" font-family="sans-serif" font-size="13" lengthAdjust="spacingAndGlyphs" textLength="43" x="877" y="152.4951">creates</text><polygon fill="#000000" points="923,145.6758,929,148.6758,923,151.6758,923,145.6758" style="stroke: #000000; stroke-width: 1.0;"/><text fill="#000000" font-family="sans-serif" font-size="13" lengthAdjust="spacingAndGlyphs" textLength="7" x="824.8588" y="168.2058">1</text><text fill="#000000" font-family="sans-serif" font-size="13" lengthAdjust="spacingAndGlyphs" textLength="20" x="964.9954" y="189.6725">1..*</text><!--MD5=[4078351e3988aa35b1504a42837f2ab1]
link Organization to Task--><path d="M355.246,181.965 C383.992,195.814 420.36,213.334 450.723,227.961 " fill="none" id="Organization-Task" style="stroke: #A80036; stroke-width: 1.0;"/><text fill="#000000" font-family="sans-serif" font-size="13" lengthAdjust="spacingAndGlyphs" textLength="21" x="386" y="194.4951">has</text><polygon fill="#000000" points="410,187.6758,416,190.6758,410,193.6758,410,187.6758" style="stroke: #000000; stroke-width: 1.0;"/><text fill="#000000" font-family="sans-serif" font-size="13" lengthAdjust="spacingAndGlyphs" textLength="7" x="362.8743" y="199.9673">1</text><text fill="#000000" font-family="sans-serif" font-size="13" lengthAdjust="spacingAndGlyphs" textLength="5" x="437.9502" y="238.9125">*</text><!--MD5=[392f7804293287fa5662caa616132930]
link Task to Collaborator--><path d="M573.224,220.265 C583.025,214.852 593.184,209.569 603,205 C640.244,187.666 684.112,172.043 716.952,161.235 " fill="none" id="Task-Collaborator" style="stroke: #A80036; stroke-width: 1.0;"/><text fill="#000000" font-family="sans-serif" font-size="13" lengthAdjust="spacingAndGlyphs" textLength="69" x="604" y="167.4951">specified by</text><polygon fill="#000000" points="676,160.6758,682,163.6758,676,166.6758,676,160.6758" style="stroke: #000000; stroke-width: 1.0;"/><text fill="#000000" font-family="sans-serif" font-size="13" lengthAdjust="spacingAndGlyphs" textLength="5" x="580.9904" y="230.2785">*</text><text fill="#000000" font-family="sans-serif" font-size="13" lengthAdjust="spacingAndGlyphs" textLength="7" x="702.0871" y="178.1433">1</text><!--MD5=[f919d21ae7a75ef5ececc535e09d5009]
link Collaborator to Task--><path d="M732.045,193.536 C719.495,207.773 704.109,221.981 687,231 C652.145,249.374 608.235,255.833 573.246,257.719 " fill="none" id="Collaborator-Task" style="stroke: #A80036; stroke-width: 1.0;"/><polygon fill="#000000" points="618,220.6758,612,223.6758,618,226.6758,618,220.6758" style="stroke: #000000; stroke-width: 1.0;"/><text fill="#000000" font-family="sans-serif" font-size="13" lengthAdjust="spacingAndGlyphs" textLength="55" x="624" y="227.4951">publishes</text><text fill="#000000" font-family="sans-serif" font-size="13" lengthAdjust="spacingAndGlyphs" textLength="7" x="719.3969" y="215.1885">1</text><text fill="#000000" font-family="sans-serif" font-size="13" lengthAdjust="spacingAndGlyphs" textLength="20" x="581.0385" y="254.4361">1..*</text><!--MD5=[04ce0ecdab38a3951889ff50c232570f]
link Collaborator to User--><path d="M817,114.505 C861.058,88.181 928.57,52.662 993,38 C1169.87,-2.25 1385.62,56.406 1479.76,87.179 " fill="none" id="Collaborator-User" style="stroke: #A80036; stroke-width: 1.0;"/><text fill="#000000" font-family="sans-serif" font-size="13" lengthAdjust="spacingAndGlyphs" textLength="49" x="1169" y="22.4951">acts like</text><polygon fill="#000000" points="1221,15.6758,1227,18.6758,1221,21.6758,1221,15.6758" style="stroke: #000000; stroke-width: 1.0;"/><text fill="#000000" font-family="sans-serif" font-size="13" lengthAdjust="spacingAndGlyphs" textLength="22" x="824.8156" y="124.9903">0..1</text><text fill="#000000" font-family="sans-serif" font-size="13" lengthAdjust="spacingAndGlyphs" textLength="7" x="1465.0873" y="99.4405">1</text><!--MD5=[b84222977e65b0051251f49c6eaf9537]
link Plataform to Freelancer--><path d="M105.6858,383.1282 C153.963,408.0041 231.559,441 303.5,441 C303.5,441 303.5,441 1066.5,441 C1141.62,441 1215.72,391.4148 1261.62,353.2574 " fill="none" id="Plataform-Freelancer" style="stroke: #A80036; stroke-width: 1.0;"/><text fill="#000000" font-family="sans-serif" font-size="13" lengthAdjust="spacingAndGlyphs" textLength="53" x="612" y="437.4951">has/uses</text><polygon fill="#000000" points="668,430.6758,674,433.6758,668,436.6758,668,430.6758" style="stroke: #000000; stroke-width: 1.0;"/><text fill="#000000" font-family="sans-serif" font-size="13" lengthAdjust="spacingAndGlyphs" textLength="7" x="108.5702" y="404.364">1</text><text fill="#000000" font-family="sans-serif" font-size="13" lengthAdjust="spacingAndGlyphs" textLength="20" x="1233.9096" y="373.6408">1..*</text><!--MD5=[de294009c89e662dfa9d286675a051e5]
@startuml
hide methods
left to right direction
skinparam classAttributeIconSize 0

class Task{
-String id
-String designation
-String informalDesc
-String tecnicalDesc
-Integer EstimatedDur
-Double EstimatedPrice
}

class PaymentTransaction{
-String idTask
-String briefDesc
-Integer duration
-Double costPerHour
-String category
-String endDate
-Integer delay
-String descQualityOfWork
-String idFreelancer
-String name
-String lvlExp
-String email
-String NIF
-String IBAN
-String adress
-String country
}

class Freelancer{
-String name
-String NIF
-String telephone
-String email
}

class Collaborator{
-String name
-String function
-String telephone
-String email
}

class User{
-String nome
-String email
-String password
}

class Plataform{
-String designation
}

class Organization{
-String name
-String NIF
-String website
-String telephone
-String email
}

Plataform "1" - - "*" Organization : has registed >
Organization "1" - - "1" Collaborator : has manager >
Organization "1" - - "1..*" Collaborator : has >
Freelancer "1" - - "1..*" Task : finishes/executes >
Task "1" - - "1" PaymentTransaction : is paid by >
PaymentTransaction "1" - - "1" Freelancer : pays to >
Freelancer "0..1" - - "1" User : acts like >
Collaborator "1" - - "1..*" PaymentTransaction : creates >
Organization "1" - - "*" Task :  has >
Task "*" - - "1" Collaborator : specified by >
Collaborator "1" - - "1..*" Task : publishes >
Collaborator "0..1" - - "1" User : acts like >
Plataform "1" - - "1..*" Freelancer : has/uses >

@enduml

PlantUML version 1.2020.09(Sun May 10 11:51:06 BST 2020)
(GPL source distribution)
Java Runtime: OpenJDK Runtime Environment
JVM: OpenJDK 64-Bit Server VM
Java Version: 11.0.6+8-b765.40
Operating System: Windows 10
Default Encoding: Cp1252
Language: pt
Country: PT
--></g></svg>