<?xml version="1.0" encoding="UTF-8" standalone="no"?><svg xmlns="http://www.w3.org/2000/svg" xmlns:xlink="http://www.w3.org/1999/xlink" contentScriptType="application/ecmascript" contentStyleType="text/css" height="625.8px" preserveAspectRatio="none" style="width:1936px;height:625px;" version="1.1" viewBox="0 0 1936 625" width="1936.2px" zoomAndPan="magnify"><defs><filter height="300%" id="f19nruf8e9nfyc" width="300%" x="-1" y="-1"><feGaussianBlur result="blurOut" stdDeviation="2.8"/><feColorMatrix in="blurOut" result="blurOut2" type="matrix" values="0 0 0 0 0 0 0 0 0 0 0 0 0 0 0 0 0 0 .4 0"/><feOffset dx="5.6" dy="5.6" in="blurOut2" result="blurOut3"/><feBlend in="SourceGraphic" in2="blurOut3" mode="normal"/></filter></defs><g><!--MD5=[b34797a66dc35cbf1d65f7e3ca75530e]
class Task--><rect fill="#FEFECE" filter="url(#f19nruf8e9nfyc)" height="152.8516" id="Task" style="stroke: #A80036; stroke-width: 2.0999999999999996;" width="140" x="677.6" y="135.1"/><ellipse cx="724.43" cy="157.5" fill="#ADD1B2" rx="15.4" ry="15.4" style="stroke: #A80036; stroke-width: 1.4;"/><path d="M727.23,152.6 Q727.5144,151.9 727.8425,151.55 Q728.1706,151.2 728.5425,151.2 Q729.1988,151.2 729.6144,151.5938 Q730.03,151.9875 730.03,152.9063 L730.03,155.0938 Q730.03,156.0125 729.6363,156.4063 Q729.2425,156.8 728.63,156.8 Q728.0831,156.8 727.7331,156.5594 Q727.3831,156.3188 727.23,155.6844 Q727.1644,155.2469 726.9238,155.0063 Q726.4863,154.5469 725.6988,154.2844 Q724.9113,154 724.1238,154 Q723.1394,154 722.3081,154.3937 Q721.4988,154.7875 720.8644,155.6625 Q720.23,156.5375 720.23,157.7406 L720.23,159.0313 Q720.23,160.475 721.4113,161.4375 Q722.5925,162.4 724.6925,162.4 Q725.9394,162.4 726.8144,162.1156 Q727.3175,161.9625 727.8863,161.4594 Q728.2581,161.175 728.455,161.0875 Q728.6519,161 728.8925,161 Q729.3519,161 729.68,161.3719 Q730.03,161.7219 730.03,162.225 Q730.03,162.7062 729.5488,163.275 Q728.8488,164.1063 727.7331,164.5656 Q726.2675,165.2 724.4738,165.2 Q722.3738,165.2 720.6894,164.3687 Q719.3331,163.7125 718.3706,162.2906 Q717.43,160.8687 717.43,159.1844 L717.43,157.6531 Q717.43,155.9031 718.2613,154.3719 Q719.1144,152.8406 720.58,152.0313 Q722.0675,151.2 723.73,151.2 Q724.7363,151.2 725.6113,151.55 Q726.4863,151.9 727.23,152.6 Z "/><text fill="#000000" font-family="sans-serif" font-size="16.8" lengthAdjust="spacingAndGlyphs" textLength="37.8" x="749.77" y="164.3742">Task</text><line style="stroke: #A80036; stroke-width: 2.0999999999999996;" x1="679" x2="816.2" y1="179.9" y2="179.9"/><text fill="#000000" font-family="sans-serif" font-size="15.4" lengthAdjust="spacingAndGlyphs" textLength="92.4" x="686" y="201.4865">-String TaskId</text><text fill="#000000" font-family="sans-serif" font-size="15.4" lengthAdjust="spacingAndGlyphs" textLength="123.2" x="686" y="220.8568">-String description</text><text fill="#000000" font-family="sans-serif" font-size="15.4" lengthAdjust="spacingAndGlyphs" textLength="103.6" x="686" y="240.2271">-String duration</text><text fill="#000000" font-family="sans-serif" font-size="15.4" lengthAdjust="spacingAndGlyphs" textLength="78.4" x="686" y="259.5975">-String cost</text><text fill="#000000" font-family="sans-serif" font-size="15.4" lengthAdjust="spacingAndGlyphs" textLength="109.2" x="686" y="278.9678">-String category</text><!--MD5=[b645a18afb25b7e5623af7186d8eb36f]
class PaymentTransaction--><rect fill="#FEFECE" filter="url(#f19nruf8e9nfyc)" height="152.8516" id="PaymentTransaction" style="stroke: #A80036; stroke-width: 2.0999999999999996;" width="203" x="1405.6" y="277.9"/><ellipse cx="1426.6" cy="300.3" fill="#ADD1B2" rx="15.4" ry="15.4" style="stroke: #A80036; stroke-width: 1.4;"/><path d="M1429.4,295.4 Q1429.6844,294.7 1430.0125,294.35 Q1430.3406,294 1430.7125,294 Q1431.3687,294 1431.7844,294.3937 Q1432.2,294.7875 1432.2,295.7062 L1432.2,297.8937 Q1432.2,298.8125 1431.8062,299.2062 Q1431.4125,299.6 1430.8,299.6 Q1430.2531,299.6 1429.9031,299.3594 Q1429.5531,299.1188 1429.4,298.4844 Q1429.3344,298.0469 1429.0938,297.8063 Q1428.6563,297.3469 1427.8687,297.0844 Q1427.0813,296.8 1426.2937,296.8 Q1425.3094,296.8 1424.4781,297.1937 Q1423.6687,297.5875 1423.0344,298.4625 Q1422.4,299.3375 1422.4,300.5406 L1422.4,301.8312 Q1422.4,303.275 1423.5813,304.2375 Q1424.7625,305.2 1426.8625,305.2 Q1428.1094,305.2 1428.9844,304.9156 Q1429.4875,304.7625 1430.0562,304.2594 Q1430.4281,303.975 1430.625,303.8875 Q1430.8219,303.8 1431.0625,303.8 Q1431.5219,303.8 1431.85,304.1719 Q1432.2,304.5219 1432.2,305.025 Q1432.2,305.5062 1431.7188,306.075 Q1431.0188,306.9063 1429.9031,307.3656 Q1428.4375,308 1426.6438,308 Q1424.5437,308 1422.8594,307.1688 Q1421.5031,306.5125 1420.5406,305.0906 Q1419.6,303.6688 1419.6,301.9844 L1419.6,300.4531 Q1419.6,298.7031 1420.4312,297.1719 Q1421.2844,295.6406 1422.75,294.8312 Q1424.2375,294 1425.9,294 Q1426.9063,294 1427.7813,294.35 Q1428.6563,294.7 1429.4,295.4 Z "/><text fill="#000000" font-family="sans-serif" font-size="16.8" lengthAdjust="spacingAndGlyphs" textLength="158.2" x="1446.2" y="307.1742">PaymentTransaction</text><line style="stroke: #A80036; stroke-width: 2.0999999999999996;" x1="1407" x2="1607.2" y1="322.7" y2="322.7"/><text fill="#000000" font-family="sans-serif" font-size="15.4" lengthAdjust="spacingAndGlyphs" textLength="95.2" x="1414" y="344.2865">-String transId</text><text fill="#000000" font-family="sans-serif" font-size="15.4" lengthAdjust="spacingAndGlyphs" textLength="105" x="1414" y="363.6568">-String endDate</text><text fill="#000000" font-family="sans-serif" font-size="15.4" lengthAdjust="spacingAndGlyphs" textLength="92.4" x="1414" y="383.0271">-Integer delay</text><text fill="#000000" font-family="sans-serif" font-size="15.4" lengthAdjust="spacingAndGlyphs" textLength="180.6" x="1414" y="402.3975">-String descQualityOfWork</text><text fill="#000000" font-family="sans-serif" font-size="15.4" lengthAdjust="spacingAndGlyphs" textLength="130.2" x="1414" y="421.7678">-Double amountPay</text><!--MD5=[1f687b5315377fe49fca59b457947463]
class Freelancer--><rect fill="#FEFECE" filter="url(#f19nruf8e9nfyc)" height="210.9625" id="Freelancer" style="stroke: #A80036; stroke-width: 2.0999999999999996;" width="147" x="1773.8" y="248.5"/><ellipse cx="1803.62" cy="270.9" fill="#ADD1B2" rx="15.4" ry="15.4" style="stroke: #A80036; stroke-width: 1.4;"/><path d="M1806.42,266 Q1806.7044,265.3 1807.0325,264.95 Q1807.3606,264.6 1807.7325,264.6 Q1808.3887,264.6 1808.8044,264.9938 Q1809.22,265.3875 1809.22,266.3063 L1809.22,268.4938 Q1809.22,269.4125 1808.8262,269.8063 Q1808.4325,270.2 1807.82,270.2 Q1807.2731,270.2 1806.9231,269.9594 Q1806.5731,269.7188 1806.42,269.0844 Q1806.3544,268.6469 1806.1137,268.4063 Q1805.6762,267.9469 1804.8887,267.6844 Q1804.1012,267.4 1803.3137,267.4 Q1802.3294,267.4 1801.4981,267.7938 Q1800.6887,268.1875 1800.0544,269.0625 Q1799.42,269.9375 1799.42,271.1406 L1799.42,272.4313 Q1799.42,273.875 1800.6012,274.8375 Q1801.7825,275.8 1803.8825,275.8 Q1805.1294,275.8 1806.0044,275.5156 Q1806.5075,275.3625 1807.0762,274.8594 Q1807.4481,274.575 1807.645,274.4875 Q1807.8419,274.4 1808.0825,274.4 Q1808.5419,274.4 1808.87,274.7719 Q1809.22,275.1219 1809.22,275.625 Q1809.22,276.1063 1808.7387,276.675 Q1808.0387,277.5062 1806.9231,277.9656 Q1805.4575,278.6 1803.6637,278.6 Q1801.5637,278.6 1799.8794,277.7687 Q1798.5231,277.1125 1797.5606,275.6906 Q1796.62,274.2687 1796.62,272.5844 L1796.62,271.0531 Q1796.62,269.3031 1797.4512,267.7719 Q1798.3044,266.2406 1799.77,265.4313 Q1801.2575,264.6 1802.92,264.6 Q1803.9262,264.6 1804.8012,264.95 Q1805.6762,265.3 1806.42,266 Z "/><text fill="#000000" font-family="sans-serif" font-size="16.8" lengthAdjust="spacingAndGlyphs" textLength="82.6" x="1825.18" y="277.7742">Freelancer</text><line style="stroke: #A80036; stroke-width: 2.0999999999999996;" x1="1775.2" x2="1919.4" y1="293.3" y2="293.3"/><text fill="#000000" font-family="sans-serif" font-size="15.4" lengthAdjust="spacingAndGlyphs" textLength="130.2" x="1782.2" y="314.8865">-String freelancerId</text><text fill="#000000" font-family="sans-serif" font-size="15.4" lengthAdjust="spacingAndGlyphs" textLength="85.4" x="1782.2" y="334.2568">-String name</text><text fill="#000000" font-family="sans-serif" font-size="15.4" lengthAdjust="spacingAndGlyphs" textLength="88.2" x="1782.2" y="353.6271">-String lvlExp</text><text fill="#000000" font-family="sans-serif" font-size="15.4" lengthAdjust="spacingAndGlyphs" textLength="82.6" x="1782.2" y="372.9975">-String email</text><text fill="#000000" font-family="sans-serif" font-size="15.4" lengthAdjust="spacingAndGlyphs" textLength="65.8" x="1782.2" y="392.3678">-String nif</text><text fill="#000000" font-family="sans-serif" font-size="15.4" lengthAdjust="spacingAndGlyphs" textLength="77" x="1782.2" y="411.7381">-String iban</text><text fill="#000000" font-family="sans-serif" font-size="15.4" lengthAdjust="spacingAndGlyphs" textLength="105" x="1782.2" y="431.1084">-String address</text><text fill="#000000" font-family="sans-serif" font-size="15.4" lengthAdjust="spacingAndGlyphs" textLength="100.8" x="1782.2" y="450.4787">-String country</text><!--MD5=[f483d6e5de34a60207b28a5563be5e8b]
class Collaborator--><rect fill="#FEFECE" filter="url(#f19nruf8e9nfyc)" height="133.4813" id="Collaborator" style="stroke: #A80036; stroke-width: 2.0999999999999996;" width="140" x="1019.2" y="125.3"/><ellipse cx="1040.2" cy="147.7" fill="#ADD1B2" rx="15.4" ry="15.4" style="stroke: #A80036; stroke-width: 1.4;"/><path d="M1043,142.8 Q1043.2844,142.1 1043.6125,141.75 Q1043.9406,141.4 1044.3125,141.4 Q1044.9688,141.4 1045.3844,141.7938 Q1045.8,142.1875 1045.8,143.1063 L1045.8,145.2938 Q1045.8,146.2125 1045.4063,146.6063 Q1045.0125,147 1044.4,147 Q1043.8531,147 1043.5031,146.7594 Q1043.1531,146.5187 1043,145.8844 Q1042.9344,145.4469 1042.6938,145.2062 Q1042.2563,144.7469 1041.4688,144.4844 Q1040.6812,144.2 1039.8938,144.2 Q1038.9094,144.2 1038.0781,144.5938 Q1037.2688,144.9875 1036.6344,145.8625 Q1036,146.7375 1036,147.9406 L1036,149.2313 Q1036,150.675 1037.1812,151.6375 Q1038.3625,152.6 1040.4625,152.6 Q1041.7094,152.6 1042.5844,152.3156 Q1043.0875,152.1625 1043.6563,151.6594 Q1044.0281,151.375 1044.225,151.2875 Q1044.4219,151.2 1044.6625,151.2 Q1045.1219,151.2 1045.45,151.5719 Q1045.8,151.9219 1045.8,152.425 Q1045.8,152.9063 1045.3188,153.475 Q1044.6187,154.3062 1043.5031,154.7656 Q1042.0375,155.4 1040.2437,155.4 Q1038.1438,155.4 1036.4594,154.5688 Q1035.1031,153.9125 1034.1406,152.4906 Q1033.2,151.0688 1033.2,149.3844 L1033.2,147.8531 Q1033.2,146.1031 1034.0313,144.5719 Q1034.8844,143.0406 1036.35,142.2313 Q1037.8375,141.4 1039.5,141.4 Q1040.5063,141.4 1041.3813,141.75 Q1042.2563,142.1 1043,142.8 Z "/><text fill="#000000" font-family="sans-serif" font-size="16.8" lengthAdjust="spacingAndGlyphs" textLength="95.2" x="1059.8" y="154.5742">Collaborator</text><line style="stroke: #A80036; stroke-width: 2.0999999999999996;" x1="1020.6" x2="1157.8" y1="170.1" y2="170.1"/><text fill="#000000" font-family="sans-serif" font-size="15.4" lengthAdjust="spacingAndGlyphs" textLength="85.4" x="1027.6" y="191.6865">-String name</text><text fill="#000000" font-family="sans-serif" font-size="15.4" lengthAdjust="spacingAndGlyphs" textLength="103.6" x="1027.6" y="211.0568">-String function</text><text fill="#000000" font-family="sans-serif" font-size="15.4" lengthAdjust="spacingAndGlyphs" textLength="114.8" x="1027.6" y="230.4271">-String telephone</text><text fill="#000000" font-family="sans-serif" font-size="15.4" lengthAdjust="spacingAndGlyphs" textLength="82.6" x="1027.6" y="249.7975">-String email</text><!--MD5=[3fd616f346a44cd59a91eb10b19e157c]
class User--><rect fill="#FEFECE" filter="url(#f19nruf8e9nfyc)" height="114.1109" id="User" style="stroke: #A80036; stroke-width: 2.0999999999999996;" width="135.8" x="1439.2" y="113.4"/><ellipse cx="1484.14" cy="135.8" fill="#ADD1B2" rx="15.4" ry="15.4" style="stroke: #A80036; stroke-width: 1.4;"/><path d="M1486.94,130.9 Q1487.2244,130.2 1487.5525,129.85 Q1487.8806,129.5 1488.2525,129.5 Q1488.9087,129.5 1489.3244,129.8937 Q1489.74,130.2875 1489.74,131.2062 L1489.74,133.3937 Q1489.74,134.3125 1489.3462,134.7062 Q1488.9525,135.1 1488.34,135.1 Q1487.7931,135.1 1487.4431,134.8594 Q1487.0931,134.6187 1486.94,133.9844 Q1486.8744,133.5469 1486.6337,133.3063 Q1486.1962,132.8469 1485.4087,132.5844 Q1484.6212,132.3 1483.8337,132.3 Q1482.8494,132.3 1482.0181,132.6938 Q1481.2087,133.0875 1480.5744,133.9625 Q1479.94,134.8375 1479.94,136.0406 L1479.94,137.3312 Q1479.94,138.775 1481.1212,139.7375 Q1482.3025,140.7 1484.4025,140.7 Q1485.6494,140.7 1486.5244,140.4156 Q1487.0275,140.2625 1487.5962,139.7594 Q1487.9681,139.475 1488.165,139.3875 Q1488.3619,139.3 1488.6025,139.3 Q1489.0619,139.3 1489.39,139.6719 Q1489.74,140.0219 1489.74,140.525 Q1489.74,141.0063 1489.2587,141.575 Q1488.5587,142.4063 1487.4431,142.8656 Q1485.9775,143.5 1484.1837,143.5 Q1482.0837,143.5 1480.3994,142.6688 Q1479.0431,142.0125 1478.0806,140.5906 Q1477.14,139.1688 1477.14,137.4844 L1477.14,135.9531 Q1477.14,134.2031 1477.9712,132.6719 Q1478.8244,131.1406 1480.29,130.3312 Q1481.7775,129.5 1483.44,129.5 Q1484.4462,129.5 1485.3212,129.85 Q1486.1962,130.2 1486.94,130.9 Z "/><text fill="#000000" font-family="sans-serif" font-size="16.8" lengthAdjust="spacingAndGlyphs" textLength="37.8" x="1509.06" y="142.6742">User</text><line style="stroke: #A80036; stroke-width: 2.0999999999999996;" x1="1440.6" x2="1573.6" y1="158.2" y2="158.2"/><text fill="#000000" font-family="sans-serif" font-size="15.4" lengthAdjust="spacingAndGlyphs" textLength="85.4" x="1447.6" y="179.7865">-String nome</text><text fill="#000000" font-family="sans-serif" font-size="15.4" lengthAdjust="spacingAndGlyphs" textLength="82.6" x="1447.6" y="199.1568">-String email</text><text fill="#000000" font-family="sans-serif" font-size="15.4" lengthAdjust="spacingAndGlyphs" textLength="119" x="1447.6" y="218.5271">-String password</text><!--MD5=[03dcba4cf8fb1a884adf843655d65df1]
class Plataform--><rect fill="#FEFECE" filter="url(#f19nruf8e9nfyc)" height="75.3703" id="Plataform" style="stroke: #A80036; stroke-width: 2.0999999999999996;" width="142.8" x="8.4" y="490"/><ellipse cx="40.11" cy="512.4" fill="#ADD1B2" rx="15.4" ry="15.4" style="stroke: #A80036; stroke-width: 1.4;"/><path d="M42.91,507.5 Q43.1944,506.8 43.5225,506.45 Q43.8506,506.1 44.2225,506.1 Q44.8788,506.1 45.2944,506.4938 Q45.71,506.8875 45.71,507.8063 L45.71,509.9938 Q45.71,510.9125 45.3163,511.3063 Q44.9225,511.7 44.31,511.7 Q43.7631,511.7 43.4131,511.4594 Q43.0631,511.2187 42.91,510.5844 Q42.8444,510.1469 42.6038,509.9062 Q42.1663,509.4469 41.3788,509.1844 Q40.5912,508.9 39.8037,508.9 Q38.8194,508.9 37.9881,509.2938 Q37.1787,509.6875 36.5444,510.5625 Q35.91,511.4375 35.91,512.6406 L35.91,513.9313 Q35.91,515.375 37.0912,516.3375 Q38.2725,517.3 40.3725,517.3 Q41.6194,517.3 42.4944,517.0156 Q42.9975,516.8625 43.5663,516.3594 Q43.9381,516.075 44.135,515.9875 Q44.3319,515.9 44.5725,515.9 Q45.0319,515.9 45.36,516.2719 Q45.71,516.6219 45.71,517.125 Q45.71,517.6062 45.2288,518.175 Q44.5287,519.0063 43.4131,519.4656 Q41.9475,520.1 40.1537,520.1 Q38.0537,520.1 36.3694,519.2688 Q35.0131,518.6125 34.0506,517.1906 Q33.11,515.7688 33.11,514.0844 L33.11,512.5531 Q33.11,510.8031 33.9413,509.2719 Q34.7944,507.7406 36.26,506.9313 Q37.7475,506.1 39.41,506.1 Q40.4163,506.1 41.2913,506.45 Q42.1663,506.8 42.91,507.5 Z "/><text fill="#000000" font-family="sans-serif" font-size="16.8" lengthAdjust="spacingAndGlyphs" textLength="74.2" x="62.09" y="519.2742">Plataform</text><line style="stroke: #A80036; stroke-width: 2.0999999999999996;" x1="9.8" x2="149.8" y1="534.8" y2="534.8"/><text fill="#000000" font-family="sans-serif" font-size="15.4" lengthAdjust="spacingAndGlyphs" textLength="126" x="16.8" y="556.3865">-String designation</text><!--MD5=[86c7c362de55a38b660185a1328fe18d]
class Organization--><rect fill="#FEFECE" filter="url(#f19nruf8e9nfyc)" height="133.4813" id="Organization" style="stroke: #A80036; stroke-width: 2.0999999999999996;" width="187.6" x="355.6" y="336.7"/><ellipse cx="397.39" cy="359.1" fill="#ADD1B2" rx="15.4" ry="15.4" style="stroke: #A80036; stroke-width: 1.4;"/><path d="M400.19,354.2 Q400.4744,353.5 400.8025,353.15 Q401.1306,352.8 401.5025,352.8 Q402.1588,352.8 402.5744,353.1937 Q402.99,353.5875 402.99,354.5062 L402.99,356.6937 Q402.99,357.6125 402.5963,358.0062 Q402.2025,358.4 401.59,358.4 Q401.0431,358.4 400.6931,358.1594 Q400.3431,357.9188 400.19,357.2844 Q400.1244,356.8469 399.8838,356.6063 Q399.4463,356.1469 398.6588,355.8844 Q397.8713,355.6 397.0838,355.6 Q396.0994,355.6 395.2681,355.9938 Q394.4588,356.3875 393.8244,357.2625 Q393.19,358.1375 393.19,359.3406 L393.19,360.6312 Q393.19,362.075 394.3713,363.0375 Q395.5525,364 397.6525,364 Q398.8994,364 399.7744,363.7156 Q400.2775,363.5625 400.8463,363.0594 Q401.2181,362.775 401.415,362.6875 Q401.6119,362.6 401.8525,362.6 Q402.3119,362.6 402.64,362.9719 Q402.99,363.3219 402.99,363.825 Q402.99,364.3063 402.5088,364.875 Q401.8088,365.7062 400.6931,366.1656 Q399.2275,366.8 397.4338,366.8 Q395.3338,366.8 393.6494,365.9688 Q392.2931,365.3125 391.3306,363.8906 Q390.39,362.4688 390.39,360.7844 L390.39,359.2531 Q390.39,357.5031 391.2213,355.9719 Q392.0744,354.4406 393.54,353.6312 Q395.0275,352.8 396.69,352.8 Q397.6963,352.8 398.5713,353.15 Q399.4463,353.5 400.19,354.2 Z "/><text fill="#000000" font-family="sans-serif" font-size="16.8" lengthAdjust="spacingAndGlyphs" textLength="96.6" x="421.61" y="365.9742">Organization</text><line style="stroke: #A80036; stroke-width: 2.0999999999999996;" x1="357" x2="541.8" y1="381.5" y2="381.5"/><text fill="#000000" font-family="sans-serif" font-size="15.4" lengthAdjust="spacingAndGlyphs" textLength="85.4" x="364" y="403.0865">-String name</text><text fill="#000000" font-family="sans-serif" font-size="15.4" lengthAdjust="spacingAndGlyphs" textLength="70" x="364" y="422.4568">-String NIF</text><text fill="#000000" font-family="sans-serif" font-size="15.4" lengthAdjust="spacingAndGlyphs" textLength="170.8" x="364" y="441.8271">-Collaborator collaborator</text><text fill="#000000" font-family="sans-serif" font-size="15.4" lengthAdjust="spacingAndGlyphs" textLength="127.4" x="364" y="461.1975">-Manager manager</text><!--MD5=[69e497c3067133575d4453703547b8fd]
link Plataform to Organization--><path d="M151.4884,503.9233 C209.3182,484.2789 291.7642,456.2726 355.047,434.7756 " fill="none" id="Plataform-Organization" style="stroke: #A80036; stroke-width: 1.4;"/><text fill="#000000" font-family="sans-serif" font-size="18.2" lengthAdjust="spacingAndGlyphs" textLength="99.4" x="194.6" y="444.4932">has registed</text><polygon fill="#000000" points="298.2,434.9461,306.6,439.1461,298.2,443.3461,298.2,434.9461" style="stroke: #000000; stroke-width: 1.4;"/><text fill="#000000" font-family="sans-serif" font-size="18.2" lengthAdjust="spacingAndGlyphs" textLength="9.8" x="162.2586" y="521.0845">1</text><text fill="#000000" font-family="sans-serif" font-size="18.2" lengthAdjust="spacingAndGlyphs" textLength="7" x="337.3443" y="458.3479">*</text><!--MD5=[45817597bcd7048073a670d966abfd17]
link Organization to Collaborator--><path d="M543.2616,436.436 C661.2438,472.2311 863.604,510.2831 977.2,399 C1019.7894,357.2786 989.8742,323.5078 1019.2,271.6 C1021.7158,267.1466 1024.5032,262.7114 1027.4698,258.3462 " fill="none" id="Organization-Collaborator" style="stroke: #A80036; stroke-width: 1.4;"/><text fill="#000000" font-family="sans-serif" font-size="18.2" lengthAdjust="spacingAndGlyphs" textLength="105" x="686" y="461.2932">has manager</text><polygon fill="#000000" points="795.2,451.7461,803.6,455.9461,795.2,460.1461,795.2,451.7461" style="stroke: #000000; stroke-width: 1.4;"/><text fill="#000000" font-family="sans-serif" font-size="18.2" lengthAdjust="spacingAndGlyphs" textLength="9.8" x="554.6809" y="460.4677">1</text><text fill="#000000" font-family="sans-serif" font-size="18.2" lengthAdjust="spacingAndGlyphs" textLength="9.8" x="1007.8835" y="288.6591">1</text><!--MD5=[45817597bcd7048073a670d966abfd17]
link Organization to Collaborator--><path d="M543.2966,394.7986 C618.7286,386.0206 727.1992,368.9588 817.6,337.4 C889.7938,312.1972 965.9524,269.5 1018.9452,236.8394 " fill="none" id="Organization-Collaborator-1" style="stroke: #A80036; stroke-width: 1.4;"/><text fill="#000000" font-family="sans-serif" font-size="18.2" lengthAdjust="spacingAndGlyphs" textLength="29.4" x="723.8" y="332.4932">has</text><polygon fill="#000000" points="757.4,322.9461,765.8,327.1461,757.4,331.3461,757.4,322.9461" style="stroke: #000000; stroke-width: 1.4;"/><text fill="#000000" font-family="sans-serif" font-size="18.2" lengthAdjust="spacingAndGlyphs" textLength="9.8" x="554.1025" y="413.9985">1</text><text fill="#000000" font-family="sans-serif" font-size="18.2" lengthAdjust="spacingAndGlyphs" textLength="28" x="980.1501" y="262.9389">1..*</text><!--MD5=[b4b6c1ff9c803d8207b36238c02005ea]
link Freelancer to Task--><path d="M1782.788,248.087 C1741.432,189.5012 1681.568,122.1738 1608.6,89.6 C1369.354,-17.2032 1277.5392,57.1382 1019.2,100.8 C945.854,113.1956 928.0516,122.0842 859.6,151.2 C845.719,157.1038 831.2864,164.199 817.607,171.4132 " fill="none" id="Freelancer-Task" style="stroke: #A80036; stroke-width: 1.4;"/><polygon fill="#000000" points="1212.4,21.9461,1204,26.1461,1212.4,30.3461,1212.4,21.9461" style="stroke: #000000; stroke-width: 1.4;"/><text fill="#000000" font-family="sans-serif" font-size="18.2" lengthAdjust="spacingAndGlyphs" textLength="141.4" x="1220.8" y="31.4932">finishes/executes</text><text fill="#000000" font-family="sans-serif" font-size="18.2" lengthAdjust="spacingAndGlyphs" textLength="9.8" x="1766.3722" y="233.4431">1</text><text fill="#000000" font-family="sans-serif" font-size="18.2" lengthAdjust="spacingAndGlyphs" textLength="28" x="828.8954" y="186.4543">1..*</text><!--MD5=[f24cbd698439a42b2d62cde440643418]
link Task to PaymentTransaction--><path d="M818.1334,241.5112 C871.9032,263.5976 948.934,292.3592 1019.2,308 C1150.6684,337.2628 1306.1664,347.9994 1405.3368,351.9334 " fill="none" id="Task-PaymentTransaction" style="stroke: #A80036; stroke-width: 1.4;"/><text fill="#000000" font-family="sans-serif" font-size="18.2" lengthAdjust="spacingAndGlyphs" textLength="78.4" x="1040.9" y="303.0932">is paid by</text><polygon fill="#000000" points="1123.5,293.5461,1131.9,297.7461,1123.5,301.9461,1123.5,293.5461" style="stroke: #000000; stroke-width: 1.4;"/><text fill="#000000" font-family="sans-serif" font-size="18.2" lengthAdjust="spacingAndGlyphs" textLength="9.8" x="828.7412" y="266.2307">1</text><text fill="#000000" font-family="sans-serif" font-size="18.2" lengthAdjust="spacingAndGlyphs" textLength="9.8" x="1384.5372" y="371.7602">1</text><!--MD5=[f6802b286771c18a16ea4be983074371]
link PaymentTransaction to Freelancer--><path d="M1608.824,354.2 C1661.66,354.2 1725.262,354.2 1773.282,354.2 " fill="none" id="PaymentTransaction-Freelancer" style="stroke: #A80036; stroke-width: 1.4;"/><text fill="#000000" font-family="sans-serif" font-size="18.2" lengthAdjust="spacingAndGlyphs" textLength="60.2" x="1652" y="349.2932">pays to</text><polygon fill="#000000" points="1716.4,339.7461,1724.8,343.9461,1716.4,348.1461,1716.4,339.7461" style="stroke: #000000; stroke-width: 1.4;"/><text fill="#000000" font-family="sans-serif" font-size="18.2" lengthAdjust="spacingAndGlyphs" textLength="9.8" x="1619.8196" y="374.2606">1</text><text fill="#000000" font-family="sans-serif" font-size="18.2" lengthAdjust="spacingAndGlyphs" textLength="9.8" x="1752.8774" y="374.6606">1</text><!--MD5=[c32d3c60a61e5638fef4971a1b3a8306]
link Collaborator to PaymentTransaction--><path d="M1159.6116,218.799 C1226.6982,245.0462 1329.3238,285.1968 1405.4194,314.9678 " fill="none" id="Collaborator-PaymentTransaction" style="stroke: #A80036; stroke-width: 1.4;"/><text fill="#000000" font-family="sans-serif" font-size="18.2" lengthAdjust="spacingAndGlyphs" textLength="60.2" x="1243.2" y="230.2932">creates</text><polygon fill="#000000" points="1307.6,220.7461,1316,224.9461,1307.6,229.1461,1307.6,220.7461" style="stroke: #000000; stroke-width: 1.4;"/><text fill="#000000" font-family="sans-serif" font-size="18.2" lengthAdjust="spacingAndGlyphs" textLength="9.8" x="1170.2023" y="243.0647">1</text><text fill="#000000" font-family="sans-serif" font-size="18.2" lengthAdjust="spacingAndGlyphs" textLength="28" x="1366.3936" y="331.2006">1..*</text><!--MD5=[4078351e3988aa35b1504a42837f2ab1]
link Organization to Task--><path d="M543.4562,343.0392 C586.7708,314.9146 637.4578,282.0048 677.3144,256.1272 " fill="none" id="Organization-Task" style="stroke: #A80036; stroke-width: 1.4;"/><text fill="#000000" font-family="sans-serif" font-size="18.2" lengthAdjust="spacingAndGlyphs" textLength="29.4" x="586.6" y="279.2932">has</text><polygon fill="#000000" points="620.2,269.7461,628.6,273.9461,620.2,278.1461,620.2,269.7461" style="stroke: #000000; stroke-width: 1.4;"/><text fill="#000000" font-family="sans-serif" font-size="18.2" lengthAdjust="spacingAndGlyphs" textLength="9.8" x="554.2795" y="356.5779">1</text><text fill="#000000" font-family="sans-serif" font-size="18.2" lengthAdjust="spacingAndGlyphs" textLength="7" x="659.4771" y="283.2523">*</text><!--MD5=[392f7804293287fa5662caa616132930]
link Task to Collaborator--><path d="M817.6868,221.3456 C863.1364,226.3128 923.9482,229.8758 977.2,222.6 C990.8262,220.738 1005.1426,217.6426 1018.7856,214.1132 " fill="none" id="Task-Collaborator" style="stroke: #A80036; stroke-width: 1.4;"/><text fill="#000000" font-family="sans-serif" font-size="18.2" lengthAdjust="spacingAndGlyphs" textLength="96.6" x="861" y="217.6932">specified by</text><polygon fill="#000000" points="961.8,208.1461,970.2,212.3461,961.8,216.5461,961.8,208.1461" style="stroke: #000000; stroke-width: 1.4;"/><text fill="#000000" font-family="sans-serif" font-size="18.2" lengthAdjust="spacingAndGlyphs" textLength="7" x="828.9548" y="217.6651">*</text><text fill="#000000" font-family="sans-serif" font-size="18.2" lengthAdjust="spacingAndGlyphs" textLength="9.8" x="998.3945" y="237.7199">1</text><!--MD5=[f919d21ae7a75ef5ececc535e09d5009]
link Collaborator to Task--><path d="M1018.759,188.6598 C973.4256,187.3718 912.8784,187.1156 859.6,191.8 C846.0018,192.9956 831.5706,195.0032 817.7792,197.288 " fill="none" id="Collaborator-Task" style="stroke: #A80036; stroke-width: 1.4;"/><polygon fill="#000000" points="880.6,173.1461,872.2,177.3461,880.6,181.5461,880.6,173.1461" style="stroke: #000000; stroke-width: 1.4;"/><text fill="#000000" font-family="sans-serif" font-size="18.2" lengthAdjust="spacingAndGlyphs" textLength="77" x="889" y="182.6932">publishes</text><text fill="#000000" font-family="sans-serif" font-size="18.2" lengthAdjust="spacingAndGlyphs" textLength="9.8" x="998.3642" y="208.6871">1</text><text fill="#000000" font-family="sans-serif" font-size="18.2" lengthAdjust="spacingAndGlyphs" textLength="28" x="828.5647" y="215.8235">1..*</text><!--MD5=[04ce0ecdab38a3951889ff50c232570f]
link Collaborator to User--><path d="M1159.6116,188.3084 C1237.0722,184.3898 1361.913,178.0744 1438.584,174.195 " fill="none" id="Collaborator-User" style="stroke: #A80036; stroke-width: 1.4;"/><text fill="#000000" font-family="sans-serif" font-size="18.2" lengthAdjust="spacingAndGlyphs" textLength="68.6" x="1239" y="172.8932">acts like</text><polygon fill="#000000" points="1311.8,163.3461,1320.2,167.5461,1311.8,171.7461,1311.8,163.3461" style="stroke: #000000; stroke-width: 1.4;"/><text fill="#000000" font-family="sans-serif" font-size="18.2" lengthAdjust="spacingAndGlyphs" textLength="30.8" x="1170.6062" y="208.1899">0..1</text><text fill="#000000" font-family="sans-serif" font-size="18.2" lengthAdjust="spacingAndGlyphs" textLength="9.8" x="1418.001" y="195.3186">1</text><!--MD5=[b84222977e65b0051251f49c6eaf9537]
link Plataform to Freelancer--><path d="M151.865,553.047 C224.987,576.8836 342.9916,609 448,609 C448,609 448,609 1508.5,609 C1616.776,609 1712.284,524.413 1773.8,452.7124 " fill="none" id="Plataform-Freelancer" style="stroke: #A80036; stroke-width: 1.4;"/><text fill="#000000" font-family="sans-serif" font-size="18.2" lengthAdjust="spacingAndGlyphs" textLength="74.2" x="872.2" y="604.0932">has/uses</text><polygon fill="#000000" points="950.6,594.5461,959,598.7461,950.6,602.9461,950.6,594.5461" style="stroke: #000000; stroke-width: 1.4;"/><text fill="#000000" font-family="sans-serif" font-size="18.2" lengthAdjust="spacingAndGlyphs" textLength="9.8" x="162.2072" y="576.8863">1</text><text fill="#000000" font-family="sans-serif" font-size="18.2" lengthAdjust="spacingAndGlyphs" textLength="28" x="1734.5891" y="485.722">1..*</text><!--MD5=[e098ff6ed0817c95c8cd0782da3d1353]
@startuml
hide methods
left to right direction
skinparam classAttributeIconSize 0

class Task{
-String TaskId
-String description
-String duration
-String cost
-String category
}

class PaymentTransaction{
-String transId
-String endDate
-Integer delay
-String descQualityOfWork
-Double amountPay
}

class Freelancer{
-String freelancerId
-String name
-String lvlExp
-String email
-String nif
-String iban
-String address
-String country
}

class Collaborator{
-String name
-String function
-String telephone
-String email
}

class User{
-String nome
-String email
-String password
}

class Plataform{
-String designation
}

class Organization{
-String name
-String NIF
-Collaborator collaborator
-Manager manager
}

Plataform "1" - - "*" Organization : has registed >
Organization "1" - - "1" Collaborator : has manager >
Organization "1" - - "1..*" Collaborator : has >
Freelancer "1" - - "1..*" Task : finishes/executes >
Task "1" - - "1" PaymentTransaction : is paid by >
PaymentTransaction "1" - - "1" Freelancer : pays to >
Collaborator "1" - - "1..*" PaymentTransaction : creates >
Organization "1" - - "*" Task :  has >
Task "*" - - "1" Collaborator : specified by >
Collaborator "1" - - "1..*" Task : publishes >
Collaborator "0..1" - - "1" User : acts like >
Plataform "1" - - "1..*" Freelancer : has/uses >

@enduml

PlantUML version 1.2020.09(Sun May 10 11:51:06 BST 2020)
(GPL source distribution)
Java Runtime: OpenJDK Runtime Environment
JVM: OpenJDK 64-Bit Server VM
Java Version: 11.0.7+10-b765.53
Operating System: Windows 10
Default Encoding: Cp1252
Language: pt
Country: PT
--></g></svg>