<?xml version="1.0" encoding="UTF-8" standalone="no"?><svg xmlns="http://www.w3.org/2000/svg" xmlns:xlink="http://www.w3.org/1999/xlink" contentScriptType="application/ecmascript" contentStyleType="text/css" height="447px" preserveAspectRatio="none" style="width:1350px;height:447px;" version="1.1" viewBox="0 0 1350 447" width="1350px" zoomAndPan="magnify"><defs><filter height="300%" id="f1ult54hyg0k96" width="300%" x="-1" y="-1"><feGaussianBlur result="blurOut" stdDeviation="2.0"/><feColorMatrix in="blurOut" result="blurOut2" type="matrix" values="0 0 0 0 0 0 0 0 0 0 0 0 0 0 0 0 0 0 .4 0"/><feOffset dx="4.0" dy="4.0" in="blurOut2" result="blurOut3"/><feBlend in="SourceGraphic" in2="blurOut3" mode="normal"/></filter></defs><g><!--MD5=[b34797a66dc35cbf1d65f7e3ca75530e]
class Task--><rect fill="#FEFECE" filter="url(#f1ult54hyg0k96)" height="109.1797" id="Task" style="stroke: #A80036; stroke-width: 1.5;" width="100" x="451" y="96.5"/><ellipse cx="484.45" cy="112.5" fill="#ADD1B2" rx="11" ry="11" style="stroke: #A80036; stroke-width: 1.0;"/><path d="M486.45,109 Q486.6531,108.5 486.8875,108.25 Q487.1219,108 487.3875,108 Q487.8563,108 488.1531,108.2813 Q488.45,108.5625 488.45,109.2188 L488.45,110.7813 Q488.45,111.4375 488.1688,111.7188 Q487.8875,112 487.45,112 Q487.0594,112 486.8094,111.8281 Q486.5594,111.6563 486.45,111.2031 Q486.4031,110.8906 486.2313,110.7188 Q485.9188,110.3906 485.3563,110.2031 Q484.7938,110 484.2313,110 Q483.5281,110 482.9344,110.2813 Q482.3563,110.5625 481.9031,111.1875 Q481.45,111.8125 481.45,112.6719 L481.45,113.5938 Q481.45,114.625 482.2938,115.3125 Q483.1375,116 484.6375,116 Q485.5281,116 486.1531,115.7969 Q486.5125,115.6875 486.9188,115.3281 Q487.1844,115.125 487.325,115.0625 Q487.4656,115 487.6375,115 Q487.9656,115 488.2,115.2656 Q488.45,115.5156 488.45,115.875 Q488.45,116.2188 488.1063,116.625 Q487.6063,117.2188 486.8094,117.5469 Q485.7625,118 484.4813,118 Q482.9813,118 481.7781,117.4063 Q480.8094,116.9375 480.1219,115.9219 Q479.45,114.9063 479.45,113.7031 L479.45,112.6094 Q479.45,111.3594 480.0438,110.2656 Q480.6531,109.1719 481.7,108.5938 Q482.7625,108 483.95,108 Q484.6688,108 485.2938,108.25 Q485.9188,108.5 486.45,109 Z "/><text fill="#000000" font-family="sans-serif" font-size="12" lengthAdjust="spacingAndGlyphs" textLength="27" x="502.55" y="117.4102">Task</text><line style="stroke: #A80036; stroke-width: 1.5;" x1="452" x2="550" y1="128.5" y2="128.5"/><text fill="#000000" font-family="sans-serif" font-size="11" lengthAdjust="spacingAndGlyphs" textLength="66" x="457" y="143.9189">-String TaskId</text><text fill="#000000" font-family="sans-serif" font-size="11" lengthAdjust="spacingAndGlyphs" textLength="88" x="457" y="157.7549">-String description</text><text fill="#000000" font-family="sans-serif" font-size="11" lengthAdjust="spacingAndGlyphs" textLength="74" x="457" y="171.5908">-String duration</text><text fill="#000000" font-family="sans-serif" font-size="11" lengthAdjust="spacingAndGlyphs" textLength="56" x="457" y="185.4268">-String cost</text><text fill="#000000" font-family="sans-serif" font-size="11" lengthAdjust="spacingAndGlyphs" textLength="78" x="457" y="199.2627">-String category</text><!--MD5=[b645a18afb25b7e5623af7186d8eb36f]
class PaymentTransaction--><rect fill="#FEFECE" filter="url(#f1ult54hyg0k96)" height="109.1797" id="PaymentTransaction" style="stroke: #A80036; stroke-width: 1.5;" width="145" x="971" y="198.5"/><ellipse cx="986" cy="214.5" fill="#ADD1B2" rx="11" ry="11" style="stroke: #A80036; stroke-width: 1.0;"/><path d="M988,211 Q988.2031,210.5 988.4375,210.25 Q988.6719,210 988.9375,210 Q989.4063,210 989.7031,210.2813 Q990,210.5625 990,211.2188 L990,212.7813 Q990,213.4375 989.7188,213.7188 Q989.4375,214 989,214 Q988.6094,214 988.3594,213.8281 Q988.1094,213.6563 988,213.2031 Q987.9531,212.8906 987.7813,212.7188 Q987.4688,212.3906 986.9063,212.2031 Q986.3438,212 985.7813,212 Q985.0781,212 984.4844,212.2813 Q983.9063,212.5625 983.4531,213.1875 Q983,213.8125 983,214.6719 L983,215.5938 Q983,216.625 983.8438,217.3125 Q984.6875,218 986.1875,218 Q987.0781,218 987.7031,217.7969 Q988.0625,217.6875 988.4688,217.3281 Q988.7344,217.125 988.875,217.0625 Q989.0156,217 989.1875,217 Q989.5156,217 989.75,217.2656 Q990,217.5156 990,217.875 Q990,218.2188 989.6563,218.625 Q989.1563,219.2188 988.3594,219.5469 Q987.3125,220 986.0313,220 Q984.5313,220 983.3281,219.4063 Q982.3594,218.9375 981.6719,217.9219 Q981,216.9063 981,215.7031 L981,214.6094 Q981,213.3594 981.5938,212.2656 Q982.2031,211.1719 983.25,210.5938 Q984.3125,210 985.5,210 Q986.2188,210 986.8438,210.25 Q987.4688,210.5 988,211 Z "/><text fill="#000000" font-family="sans-serif" font-size="12" lengthAdjust="spacingAndGlyphs" textLength="113" x="1000" y="219.4102">PaymentTransaction</text><line style="stroke: #A80036; stroke-width: 1.5;" x1="972" x2="1115" y1="230.5" y2="230.5"/><text fill="#000000" font-family="sans-serif" font-size="11" lengthAdjust="spacingAndGlyphs" textLength="68" x="977" y="245.9189">-String transId</text><text fill="#000000" font-family="sans-serif" font-size="11" lengthAdjust="spacingAndGlyphs" textLength="75" x="977" y="259.7549">-String endDate</text><text fill="#000000" font-family="sans-serif" font-size="11" lengthAdjust="spacingAndGlyphs" textLength="66" x="977" y="273.5908">-Integer delay</text><text fill="#000000" font-family="sans-serif" font-size="11" lengthAdjust="spacingAndGlyphs" textLength="129" x="977" y="287.4268">-String descQualityOfWork</text><text fill="#000000" font-family="sans-serif" font-size="11" lengthAdjust="spacingAndGlyphs" textLength="93" x="977" y="301.2627">-Double amountPay</text><!--MD5=[1f687b5315377fe49fca59b457947463]
class Freelancer--><rect fill="#FEFECE" filter="url(#f1ult54hyg0k96)" height="150.6875" id="Freelancer" style="stroke: #A80036; stroke-width: 1.5;" width="105" x="1234" y="177.5"/><ellipse cx="1255.3" cy="193.5" fill="#ADD1B2" rx="11" ry="11" style="stroke: #A80036; stroke-width: 1.0;"/><path d="M1257.3,190 Q1257.5031,189.5 1257.7375,189.25 Q1257.9719,189 1258.2375,189 Q1258.7063,189 1259.0031,189.2813 Q1259.3,189.5625 1259.3,190.2188 L1259.3,191.7813 Q1259.3,192.4375 1259.0188,192.7188 Q1258.7375,193 1258.3,193 Q1257.9094,193 1257.6594,192.8281 Q1257.4094,192.6563 1257.3,192.2031 Q1257.2531,191.8906 1257.0813,191.7188 Q1256.7688,191.3906 1256.2063,191.2031 Q1255.6438,191 1255.0813,191 Q1254.3781,191 1253.7844,191.2813 Q1253.2063,191.5625 1252.7531,192.1875 Q1252.3,192.8125 1252.3,193.6719 L1252.3,194.5938 Q1252.3,195.625 1253.1438,196.3125 Q1253.9875,197 1255.4875,197 Q1256.3781,197 1257.0031,196.7969 Q1257.3625,196.6875 1257.7688,196.3281 Q1258.0344,196.125 1258.175,196.0625 Q1258.3156,196 1258.4875,196 Q1258.8156,196 1259.05,196.2656 Q1259.3,196.5156 1259.3,196.875 Q1259.3,197.2188 1258.9563,197.625 Q1258.4563,198.2188 1257.6594,198.5469 Q1256.6125,199 1255.3313,199 Q1253.8313,199 1252.6281,198.4063 Q1251.6594,197.9375 1250.9719,196.9219 Q1250.3,195.9063 1250.3,194.7031 L1250.3,193.6094 Q1250.3,192.3594 1250.8938,191.2656 Q1251.5031,190.1719 1252.55,189.5938 Q1253.6125,189 1254.8,189 Q1255.5188,189 1256.1438,189.25 Q1256.7688,189.5 1257.3,190 Z "/><text fill="#000000" font-family="sans-serif" font-size="12" lengthAdjust="spacingAndGlyphs" textLength="59" x="1270.7" y="198.4102">Freelancer</text><line style="stroke: #A80036; stroke-width: 1.5;" x1="1235" x2="1338" y1="209.5" y2="209.5"/><text fill="#000000" font-family="sans-serif" font-size="11" lengthAdjust="spacingAndGlyphs" textLength="93" x="1240" y="224.9189">-String freelancerId</text><text fill="#000000" font-family="sans-serif" font-size="11" lengthAdjust="spacingAndGlyphs" textLength="61" x="1240" y="238.7549">-String name</text><text fill="#000000" font-family="sans-serif" font-size="11" lengthAdjust="spacingAndGlyphs" textLength="63" x="1240" y="252.5908">-String lvlExp</text><text fill="#000000" font-family="sans-serif" font-size="11" lengthAdjust="spacingAndGlyphs" textLength="59" x="1240" y="266.4268">-String email</text><text fill="#000000" font-family="sans-serif" font-size="11" lengthAdjust="spacingAndGlyphs" textLength="47" x="1240" y="280.2627">-String nif</text><text fill="#000000" font-family="sans-serif" font-size="11" lengthAdjust="spacingAndGlyphs" textLength="55" x="1240" y="294.0986">-String iban</text><text fill="#000000" font-family="sans-serif" font-size="11" lengthAdjust="spacingAndGlyphs" textLength="75" x="1240" y="307.9346">-String address</text><text fill="#000000" font-family="sans-serif" font-size="11" lengthAdjust="spacingAndGlyphs" textLength="72" x="1240" y="321.7705">-String country</text><!--MD5=[f483d6e5de34a60207b28a5563be5e8b]
class Collaborator--><rect fill="#FEFECE" filter="url(#f1ult54hyg0k96)" height="95.3438" id="Collaborator" style="stroke: #A80036; stroke-width: 1.5;" width="100" x="695" y="89.5"/><ellipse cx="710" cy="105.5" fill="#ADD1B2" rx="11" ry="11" style="stroke: #A80036; stroke-width: 1.0;"/><path d="M712,102 Q712.2031,101.5 712.4375,101.25 Q712.6719,101 712.9375,101 Q713.4063,101 713.7031,101.2813 Q714,101.5625 714,102.2188 L714,103.7813 Q714,104.4375 713.7188,104.7188 Q713.4375,105 713,105 Q712.6094,105 712.3594,104.8281 Q712.1094,104.6563 712,104.2031 Q711.9531,103.8906 711.7813,103.7188 Q711.4688,103.3906 710.9063,103.2031 Q710.3438,103 709.7813,103 Q709.0781,103 708.4844,103.2813 Q707.9063,103.5625 707.4531,104.1875 Q707,104.8125 707,105.6719 L707,106.5938 Q707,107.625 707.8438,108.3125 Q708.6875,109 710.1875,109 Q711.0781,109 711.7031,108.7969 Q712.0625,108.6875 712.4688,108.3281 Q712.7344,108.125 712.875,108.0625 Q713.0156,108 713.1875,108 Q713.5156,108 713.75,108.2656 Q714,108.5156 714,108.875 Q714,109.2188 713.6563,109.625 Q713.1563,110.2188 712.3594,110.5469 Q711.3125,111 710.0313,111 Q708.5313,111 707.3281,110.4063 Q706.3594,109.9375 705.6719,108.9219 Q705,107.9063 705,106.7031 L705,105.6094 Q705,104.3594 705.5938,103.2656 Q706.2031,102.1719 707.25,101.5938 Q708.3125,101 709.5,101 Q710.2188,101 710.8438,101.25 Q711.4688,101.5 712,102 Z "/><text fill="#000000" font-family="sans-serif" font-size="12" lengthAdjust="spacingAndGlyphs" textLength="68" x="724" y="110.4102">Collaborator</text><line style="stroke: #A80036; stroke-width: 1.5;" x1="696" x2="794" y1="121.5" y2="121.5"/><text fill="#000000" font-family="sans-serif" font-size="11" lengthAdjust="spacingAndGlyphs" textLength="61" x="701" y="136.9189">-String name</text><text fill="#000000" font-family="sans-serif" font-size="11" lengthAdjust="spacingAndGlyphs" textLength="74" x="701" y="150.7549">-String function</text><text fill="#000000" font-family="sans-serif" font-size="11" lengthAdjust="spacingAndGlyphs" textLength="82" x="701" y="164.5908">-String telephone</text><text fill="#000000" font-family="sans-serif" font-size="11" lengthAdjust="spacingAndGlyphs" textLength="59" x="701" y="178.4268">-String email</text><!--MD5=[3fd616f346a44cd59a91eb10b19e157c]
class User--><rect fill="#FEFECE" filter="url(#f1ult54hyg0k96)" height="81.5078" id="User" style="stroke: #A80036; stroke-width: 1.5;" width="97" x="995" y="81"/><ellipse cx="1027.1" cy="97" fill="#ADD1B2" rx="11" ry="11" style="stroke: #A80036; stroke-width: 1.0;"/><path d="M1029.1,93.5 Q1029.3031,93 1029.5375,92.75 Q1029.7719,92.5 1030.0375,92.5 Q1030.5063,92.5 1030.8031,92.7813 Q1031.1,93.0625 1031.1,93.7188 L1031.1,95.2813 Q1031.1,95.9375 1030.8188,96.2188 Q1030.5375,96.5 1030.1,96.5 Q1029.7094,96.5 1029.4594,96.3281 Q1029.2094,96.1563 1029.1,95.7031 Q1029.0531,95.3906 1028.8813,95.2188 Q1028.5688,94.8906 1028.0063,94.7031 Q1027.4438,94.5 1026.8813,94.5 Q1026.1781,94.5 1025.5844,94.7813 Q1025.0063,95.0625 1024.5531,95.6875 Q1024.1,96.3125 1024.1,97.1719 L1024.1,98.0938 Q1024.1,99.125 1024.9438,99.8125 Q1025.7875,100.5 1027.2875,100.5 Q1028.1781,100.5 1028.8031,100.2969 Q1029.1625,100.1875 1029.5688,99.8281 Q1029.8344,99.625 1029.975,99.5625 Q1030.1156,99.5 1030.2875,99.5 Q1030.6156,99.5 1030.85,99.7656 Q1031.1,100.0156 1031.1,100.375 Q1031.1,100.7188 1030.7563,101.125 Q1030.2563,101.7188 1029.4594,102.0469 Q1028.4125,102.5 1027.1313,102.5 Q1025.6313,102.5 1024.4281,101.9063 Q1023.4594,101.4375 1022.7719,100.4219 Q1022.1,99.4063 1022.1,98.2031 L1022.1,97.1094 Q1022.1,95.8594 1022.6937,94.7656 Q1023.3031,93.6719 1024.35,93.0938 Q1025.4125,92.5 1026.6,92.5 Q1027.3188,92.5 1027.9438,92.75 Q1028.5688,93 1029.1,93.5 Z "/><text fill="#000000" font-family="sans-serif" font-size="12" lengthAdjust="spacingAndGlyphs" textLength="27" x="1044.9" y="101.9102">User</text><line style="stroke: #A80036; stroke-width: 1.5;" x1="996" x2="1091" y1="113" y2="113"/><text fill="#000000" font-family="sans-serif" font-size="11" lengthAdjust="spacingAndGlyphs" textLength="61" x="1001" y="128.4189">-String nome</text><text fill="#000000" font-family="sans-serif" font-size="11" lengthAdjust="spacingAndGlyphs" textLength="59" x="1001" y="142.2549">-String email</text><text fill="#000000" font-family="sans-serif" font-size="11" lengthAdjust="spacingAndGlyphs" textLength="85" x="1001" y="156.0908">-String password</text><!--MD5=[03dcba4cf8fb1a884adf843655d65df1]
class Plataform--><rect fill="#FEFECE" filter="url(#f1ult54hyg0k96)" height="53.8359" id="Plataform" style="stroke: #A80036; stroke-width: 1.5;" width="102" x="6" y="350"/><ellipse cx="28.65" cy="366" fill="#ADD1B2" rx="11" ry="11" style="stroke: #A80036; stroke-width: 1.0;"/><path d="M30.65,362.5 Q30.8531,362 31.0875,361.75 Q31.3219,361.5 31.5875,361.5 Q32.0563,361.5 32.3531,361.7813 Q32.65,362.0625 32.65,362.7188 L32.65,364.2813 Q32.65,364.9375 32.3688,365.2188 Q32.0875,365.5 31.65,365.5 Q31.2594,365.5 31.0094,365.3281 Q30.7594,365.1563 30.65,364.7031 Q30.6031,364.3906 30.4313,364.2188 Q30.1188,363.8906 29.5563,363.7031 Q28.9938,363.5 28.4313,363.5 Q27.7281,363.5 27.1344,363.7813 Q26.5563,364.0625 26.1031,364.6875 Q25.65,365.3125 25.65,366.1719 L25.65,367.0938 Q25.65,368.125 26.4938,368.8125 Q27.3375,369.5 28.8375,369.5 Q29.7281,369.5 30.3531,369.2969 Q30.7125,369.1875 31.1188,368.8281 Q31.3844,368.625 31.525,368.5625 Q31.6656,368.5 31.8375,368.5 Q32.1656,368.5 32.4,368.7656 Q32.65,369.0156 32.65,369.375 Q32.65,369.7188 32.3063,370.125 Q31.8063,370.7188 31.0094,371.0469 Q29.9625,371.5 28.6813,371.5 Q27.1813,371.5 25.9781,370.9063 Q25.0094,370.4375 24.3219,369.4219 Q23.65,368.4063 23.65,367.2031 L23.65,366.1094 Q23.65,364.8594 24.2438,363.7656 Q24.8531,362.6719 25.9,362.0938 Q26.9625,361.5 28.15,361.5 Q28.8688,361.5 29.4938,361.75 Q30.1188,362 30.65,362.5 Z "/><text fill="#000000" font-family="sans-serif" font-size="12" lengthAdjust="spacingAndGlyphs" textLength="53" x="44.35" y="370.9102">Plataform</text><line style="stroke: #A80036; stroke-width: 1.5;" x1="7" x2="107" y1="382" y2="382"/><text fill="#000000" font-family="sans-serif" font-size="11" lengthAdjust="spacingAndGlyphs" textLength="90" x="12" y="397.4189">-String designation</text><!--MD5=[86c7c362de55a38b660185a1328fe18d]
class Organization--><rect fill="#FEFECE" filter="url(#f1ult54hyg0k96)" height="109.1797" id="Organization" style="stroke: #A80036; stroke-width: 1.5;" width="101" x="254" y="233.5"/><ellipse cx="269" cy="249.5" fill="#ADD1B2" rx="11" ry="11" style="stroke: #A80036; stroke-width: 1.0;"/><path d="M271,246 Q271.2031,245.5 271.4375,245.25 Q271.6719,245 271.9375,245 Q272.4063,245 272.7031,245.2813 Q273,245.5625 273,246.2188 L273,247.7813 Q273,248.4375 272.7188,248.7188 Q272.4375,249 272,249 Q271.6094,249 271.3594,248.8281 Q271.1094,248.6563 271,248.2031 Q270.9531,247.8906 270.7813,247.7188 Q270.4688,247.3906 269.9063,247.2031 Q269.3438,247 268.7813,247 Q268.0781,247 267.4844,247.2813 Q266.9063,247.5625 266.4531,248.1875 Q266,248.8125 266,249.6719 L266,250.5938 Q266,251.625 266.8438,252.3125 Q267.6875,253 269.1875,253 Q270.0781,253 270.7031,252.7969 Q271.0625,252.6875 271.4688,252.3281 Q271.7344,252.125 271.875,252.0625 Q272.0156,252 272.1875,252 Q272.5156,252 272.75,252.2656 Q273,252.5156 273,252.875 Q273,253.2188 272.6563,253.625 Q272.1563,254.2188 271.3594,254.5469 Q270.3125,255 269.0313,255 Q267.5313,255 266.3281,254.4063 Q265.3594,253.9375 264.6719,252.9219 Q264,251.9063 264,250.7031 L264,249.6094 Q264,248.3594 264.5938,247.2656 Q265.2031,246.1719 266.25,245.5938 Q267.3125,245 268.5,245 Q269.2188,245 269.8438,245.25 Q270.4688,245.5 271,246 Z "/><text fill="#000000" font-family="sans-serif" font-size="12" lengthAdjust="spacingAndGlyphs" textLength="69" x="283" y="254.4102">Organization</text><line style="stroke: #A80036; stroke-width: 1.5;" x1="255" x2="354" y1="265.5" y2="265.5"/><text fill="#000000" font-family="sans-serif" font-size="11" lengthAdjust="spacingAndGlyphs" textLength="61" x="260" y="280.9189">-String name</text><text fill="#000000" font-family="sans-serif" font-size="11" lengthAdjust="spacingAndGlyphs" textLength="47" x="260" y="294.7549">-String nif</text><text fill="#000000" font-family="sans-serif" font-size="11" lengthAdjust="spacingAndGlyphs" textLength="74" x="260" y="308.5908">-String website</text><text fill="#000000" font-family="sans-serif" font-size="11" lengthAdjust="spacingAndGlyphs" textLength="82" x="260" y="322.4268">-String telephone</text><text fill="#000000" font-family="sans-serif" font-size="11" lengthAdjust="spacingAndGlyphs" textLength="59" x="260" y="336.2627">-String email</text><!--MD5=[69e497c3067133575d4453703547b8fd]
link Plataform to Organization--><path d="M108.273,358.7748 C150.778,343.3655 211.348,321.408 253.714,306.049 " fill="none" id="Plataform-Organization" style="stroke: #A80036; stroke-width: 1.0;"/><text fill="#000000" font-family="sans-serif" font-size="13" lengthAdjust="spacingAndGlyphs" textLength="71" x="139" y="315.4951">has registed</text><polygon fill="#000000" points="213,308.6758,219,311.6758,213,314.6758,213,308.6758" style="stroke: #000000; stroke-width: 1.0;"/><text fill="#000000" font-family="sans-serif" font-size="13" lengthAdjust="spacingAndGlyphs" textLength="7" x="115.9755" y="370.8683">1</text><text fill="#000000" font-family="sans-serif" font-size="13" lengthAdjust="spacingAndGlyphs" textLength="5" x="240.8876" y="323.3827">*</text><!--MD5=[45817597bcd7048073a670d966abfd17]
link Organization to Collaborator--><path d="M355.031,306.39 C432.728,331.665 582.851,365.477 665,285 C695.421,255.199 674.053,231.077 695,194 C696.797,190.819 698.788,187.651 700.907,184.533 " fill="none" id="Organization-Collaborator" style="stroke: #A80036; stroke-width: 1.0;"/><text fill="#000000" font-family="sans-serif" font-size="13" lengthAdjust="spacingAndGlyphs" textLength="75" x="457" y="326.4951">has manager</text><polygon fill="#000000" points="535,319.6758,541,322.6758,535,325.6758,535,319.6758" style="stroke: #000000; stroke-width: 1.0;"/><text fill="#000000" font-family="sans-serif" font-size="13" lengthAdjust="spacingAndGlyphs" textLength="7" x="362.9668" y="323.7738">1</text><text fill="#000000" font-family="sans-serif" font-size="13" lengthAdjust="spacingAndGlyphs" textLength="7" x="686.9168" y="206.1851">1</text><!--MD5=[45817597bcd7048073a670d966abfd17]
link Organization to Collaborator--><path d="M355.107,283.002 C405.54,276.888 485.377,264.339 551,241 C602.461,222.698 656.873,192.236 694.757,168.997 " fill="none" id="Organization-Collaborator-1" style="stroke: #A80036; stroke-width: 1.0;"/><text fill="#000000" font-family="sans-serif" font-size="13" lengthAdjust="spacingAndGlyphs" textLength="21" x="484" y="237.4951">has</text><polygon fill="#000000" points="508,230.6758,514,233.6758,508,236.6758,508,230.6758" style="stroke: #000000; stroke-width: 1.0;"/><text fill="#000000" font-family="sans-serif" font-size="13" lengthAdjust="spacingAndGlyphs" textLength="7" x="363.054" y="296.9507">1</text><text fill="#000000" font-family="sans-serif" font-size="13" lengthAdjust="spacingAndGlyphs" textLength="20" x="667.0384" y="187.6172">1..*</text><!--MD5=[b4b6c1ff9c803d8207b36238c02005ea]
link Freelancer to Task--><path d="M1240.42,177.205 C1210.88,135.358 1168.12,87.267 1116,64 C945.11,-12.288 879.528,40.813 695,72 C642.61,80.854 629.894,87.203 581,108 C571.085,112.217 560.776,117.285 551.005,122.438 " fill="none" id="Freelancer-Task" style="stroke: #A80036; stroke-width: 1.0;"/><polygon fill="#000000" points="833,15.6758,827,18.6758,833,21.6758,833,15.6758" style="stroke: #000000; stroke-width: 1.0;"/><text fill="#000000" font-family="sans-serif" font-size="13" lengthAdjust="spacingAndGlyphs" textLength="101" x="839" y="22.4951">finishes/executes</text><text fill="#000000" font-family="sans-serif" font-size="13" lengthAdjust="spacingAndGlyphs" textLength="7" x="1228.6944" y="166.7451">1</text><text fill="#000000" font-family="sans-serif" font-size="13" lengthAdjust="spacingAndGlyphs" textLength="20" x="559.0682" y="133.1816">1..*</text><!--MD5=[f24cbd698439a42b2d62cde440643418]
link Task to PaymentTransaction--><path d="M551.381,172.508 C589.788,188.284 644.81,208.828 695,220 C788.906,240.902 899.976,248.571 970.812,251.381 " fill="none" id="Task-PaymentTransaction" style="stroke: #A80036; stroke-width: 1.0;"/><text fill="#000000" font-family="sans-serif" font-size="13" lengthAdjust="spacingAndGlyphs" textLength="56" x="710.5" y="216.4951">is paid by</text><polygon fill="#000000" points="769.5,209.6758,775.5,212.6758,769.5,215.6758,769.5,209.6758" style="stroke: #000000; stroke-width: 1.0;"/><text fill="#000000" font-family="sans-serif" font-size="13" lengthAdjust="spacingAndGlyphs" textLength="7" x="558.958" y="190.1648">1</text><text fill="#000000" font-family="sans-serif" font-size="13" lengthAdjust="spacingAndGlyphs" textLength="7" x="955.9551" y="265.543">1</text><!--MD5=[f6802b286771c18a16ea4be983074371]
link PaymentTransaction to Freelancer--><path d="M1116.16,253 C1153.9,253 1199.33,253 1233.63,253 " fill="none" id="PaymentTransaction-Freelancer" style="stroke: #A80036; stroke-width: 1.0;"/><text fill="#000000" font-family="sans-serif" font-size="13" lengthAdjust="spacingAndGlyphs" textLength="43" x="1147" y="249.4951">pays to</text><polygon fill="#000000" points="1193,242.6758,1199,245.6758,1193,248.6758,1193,242.6758" style="stroke: #000000; stroke-width: 1.0;"/><text fill="#000000" font-family="sans-serif" font-size="13" lengthAdjust="spacingAndGlyphs" textLength="7" x="1124.014" y="267.329">1</text><text fill="#000000" font-family="sans-serif" font-size="13" lengthAdjust="spacingAndGlyphs" textLength="7" x="1219.0553" y="267.6147">1</text><!--MD5=[c32d3c60a61e5638fef4971a1b3a8306]
link Collaborator to PaymentTransaction--><path d="M795.294,156.285 C843.213,175.033 916.517,203.712 970.871,224.977 " fill="none" id="Collaborator-PaymentTransaction" style="stroke: #A80036; stroke-width: 1.0;"/><text fill="#000000" font-family="sans-serif" font-size="13" lengthAdjust="spacingAndGlyphs" textLength="43" x="855" y="164.4951">creates</text><polygon fill="#000000" points="901,157.6758,907,160.6758,901,163.6758,901,157.6758" style="stroke: #000000; stroke-width: 1.0;"/><text fill="#000000" font-family="sans-serif" font-size="13" lengthAdjust="spacingAndGlyphs" textLength="7" x="802.8588" y="173.6176">1</text><text fill="#000000" font-family="sans-serif" font-size="13" lengthAdjust="spacingAndGlyphs" textLength="20" x="942.9954" y="236.5719">1..*</text><!--MD5=[4078351e3988aa35b1504a42837f2ab1]
link Organization to Task--><path d="M355.084,253.075 C384.459,232.383 421.544,206.262 450.844,185.624 " fill="none" id="Organization-Task" style="stroke: #A80036; stroke-width: 1.0;"/><text fill="#000000" font-family="sans-serif" font-size="13" lengthAdjust="spacingAndGlyphs" textLength="21" x="386" y="203.4951">has</text><polygon fill="#000000" points="410,196.6758,416,199.6758,410,202.6758,410,196.6758" style="stroke: #000000; stroke-width: 1.0;"/><text fill="#000000" font-family="sans-serif" font-size="13" lengthAdjust="spacingAndGlyphs" textLength="7" x="363.0276" y="262.6281">1</text><text fill="#000000" font-family="sans-serif" font-size="13" lengthAdjust="spacingAndGlyphs" textLength="5" x="438.1102" y="205.3921">*</text><!--MD5=[392f7804293287fa5662caa616132930]
link Task to Collaborator--><path d="M551.062,158.104 C583.526,161.652 626.963,164.197 665,159 C674.733,157.67 684.959,155.459 694.704,152.938 " fill="none" id="Task-Collaborator" style="stroke: #A80036; stroke-width: 1.0;"/><text fill="#000000" font-family="sans-serif" font-size="13" lengthAdjust="spacingAndGlyphs" textLength="69" x="582" y="155.4951">specified by</text><polygon fill="#000000" points="654,148.6758,660,151.6758,654,154.6758,654,148.6758" style="stroke: #000000; stroke-width: 1.0;"/><text fill="#000000" font-family="sans-serif" font-size="13" lengthAdjust="spacingAndGlyphs" textLength="5" x="559.1106" y="155.4751">*</text><text fill="#000000" font-family="sans-serif" font-size="13" lengthAdjust="spacingAndGlyphs" textLength="7" x="680.1389" y="169.7999">1</text><!--MD5=[f919d21ae7a75ef5ececc535e09d5009]
link Collaborator to Task--><path d="M694.685,134.757 C662.304,133.837 619.056,133.654 581,137 C571.287,137.854 560.979,139.288 551.128,140.92 " fill="none" id="Collaborator-Task" style="stroke: #A80036; stroke-width: 1.0;"/><polygon fill="#000000" points="596,123.6758,590,126.6758,596,129.6758,596,123.6758" style="stroke: #000000; stroke-width: 1.0;"/><text fill="#000000" font-family="sans-serif" font-size="13" lengthAdjust="spacingAndGlyphs" textLength="55" x="602" y="130.4951">publishes</text><text fill="#000000" font-family="sans-serif" font-size="13" lengthAdjust="spacingAndGlyphs" textLength="7" x="680.1173" y="149.0622">1</text><text fill="#000000" font-family="sans-serif" font-size="13" lengthAdjust="spacingAndGlyphs" textLength="20" x="558.8319" y="154.1596">1..*</text><!--MD5=[04ce0ecdab38a3951889ff50c232570f]
link Collaborator to User--><path d="M795.294,134.506 C850.623,131.707 939.795,127.196 994.564,124.425 " fill="none" id="Collaborator-User" style="stroke: #A80036; stroke-width: 1.0;"/><text fill="#000000" font-family="sans-serif" font-size="13" lengthAdjust="spacingAndGlyphs" textLength="49" x="852" y="123.4951">acts like</text><polygon fill="#000000" points="904,116.6758,910,119.6758,904,122.6758,904,116.6758" style="stroke: #000000; stroke-width: 1.0;"/><text fill="#000000" font-family="sans-serif" font-size="13" lengthAdjust="spacingAndGlyphs" textLength="22" x="803.1473" y="148.7071">0..1</text><text fill="#000000" font-family="sans-serif" font-size="13" lengthAdjust="spacingAndGlyphs" textLength="7" x="979.8625" y="139.5133">1</text><!--MD5=[b84222977e65b0051251f49c6eaf9537]
link Plataform to Freelancer--><path d="M108.431,396.1521 C157.495,413.0462 234.523,435 303.5,435 C303.5,435 303.5,435 1044.5,435 C1121.84,435 1190.06,374.5807 1234,323.366 " fill="none" id="Plataform-Freelancer" style="stroke: #A80036; stroke-width: 1.0;"/><text fill="#000000" font-family="sans-serif" font-size="13" lengthAdjust="spacingAndGlyphs" textLength="53" x="590" y="431.4951">has/uses</text><polygon fill="#000000" points="646,424.6758,652,427.6758,646,430.6758,646,424.6758" style="stroke: #000000; stroke-width: 1.0;"/><text fill="#000000" font-family="sans-serif" font-size="13" lengthAdjust="spacingAndGlyphs" textLength="7" x="116.1557" y="413.5017">1</text><text fill="#000000" font-family="sans-serif" font-size="13" lengthAdjust="spacingAndGlyphs" textLength="20" x="1205.9922" y="346.9443">1..*</text><!--MD5=[8d0c3d8f737bbe81c499fffa09ad0835]
@startuml
hide methods
left to right direction
skinparam classAttributeIconSize 0

class Task{
-String TaskId
-String description
-String duration
-String cost
-String category
}

class PaymentTransaction{
-String transId
-String endDate
-Integer delay
-String descQualityOfWork
-Double amountPay
}

class Freelancer{
-String freelancerId
-String name
-String lvlExp
-String email
-String nif
-String iban
-String address
-String country
}

class Collaborator{
-String name
-String function
-String telephone
-String email
}

class User{
-String nome
-String email
-String password
}

class Plataform{
-String designation
}

class Organization{
-String name
-String nif
-String website
-String telephone
-String email
}

Plataform "1" - - "*" Organization : has registed >
Organization "1" - - "1" Collaborator : has manager >
Organization "1" - - "1..*" Collaborator : has >
Freelancer "1" - - "1..*" Task : finishes/executes >
Task "1" - - "1" PaymentTransaction : is paid by >
PaymentTransaction "1" - - "1" Freelancer : pays to >
Collaborator "1" - - "1..*" PaymentTransaction : creates >
Organization "1" - - "*" Task :  has >
Task "*" - - "1" Collaborator : specified by >
Collaborator "1" - - "1..*" Task : publishes >
Collaborator "0..1" - - "1" User : acts like >
Plataform "1" - - "1..*" Freelancer : has/uses >

@enduml

PlantUML version 1.2020.09(Sun May 10 11:51:06 BST 2020)
(GPL source distribution)
Java Runtime: OpenJDK Runtime Environment
JVM: OpenJDK 64-Bit Server VM
Java Version: 11.0.7+10-b765.53
Operating System: Windows 10
Default Encoding: Cp1252
Language: pt
Country: PT
--></g></svg>