<?xml version="1.0" encoding="UTF-8" standalone="no"?><svg xmlns="http://www.w3.org/2000/svg" xmlns:xlink="http://www.w3.org/1999/xlink" contentScriptType="application/ecmascript" contentStyleType="text/css" height="1122px" preserveAspectRatio="none" style="width:923px;height:1122px;" version="1.1" viewBox="0 0 923 1122" width="923px" zoomAndPan="magnify"><defs><filter height="300%" id="fq1jq6ptz8lkb" width="300%" x="-1" y="-1"><feGaussianBlur result="blurOut" stdDeviation="2.0"/><feColorMatrix in="blurOut" result="blurOut2" type="matrix" values="0 0 0 0 0 0 0 0 0 0 0 0 0 0 0 0 0 0 .4 0"/><feOffset dx="4.0" dy="4.0" in="blurOut2" result="blurOut3"/><feBlend in="SourceGraphic" in2="blurOut3" mode="normal"/></filter></defs><g><!--MD5=[d10843e537364cf8fd3005bafbcb74b1]
class CreatePayTransUI--><rect fill="#FEFECE" filter="url(#fq1jq6ptz8lkb)" height="48" id="CreatePayTransUI" style="stroke: #A80036; stroke-width: 1.5;" width="133" x="536" y="8"/><ellipse cx="551" cy="24" fill="#ADD1B2" rx="11" ry="11" style="stroke: #A80036; stroke-width: 1.0;"/><path d="M553,20.5 Q553.2031,20 553.4375,19.75 Q553.6719,19.5 553.9375,19.5 Q554.4063,19.5 554.7031,19.7813 Q555,20.0625 555,20.7188 L555,22.2813 Q555,22.9375 554.7188,23.2188 Q554.4375,23.5 554,23.5 Q553.6094,23.5 553.3594,23.3281 Q553.1094,23.1563 553,22.7031 Q552.9531,22.3906 552.7813,22.2188 Q552.4688,21.8906 551.9063,21.7031 Q551.3438,21.5 550.7813,21.5 Q550.0781,21.5 549.4844,21.7813 Q548.9063,22.0625 548.4531,22.6875 Q548,23.3125 548,24.1719 L548,25.0938 Q548,26.125 548.8438,26.8125 Q549.6875,27.5 551.1875,27.5 Q552.0781,27.5 552.7031,27.2969 Q553.0625,27.1875 553.4688,26.8281 Q553.7344,26.625 553.875,26.5625 Q554.0156,26.5 554.1875,26.5 Q554.5156,26.5 554.75,26.7656 Q555,27.0156 555,27.375 Q555,27.7188 554.6563,28.125 Q554.1563,28.7188 553.3594,29.0469 Q552.3125,29.5 551.0313,29.5 Q549.5313,29.5 548.3281,28.9063 Q547.3594,28.4375 546.6719,27.4219 Q546,26.4063 546,25.2031 L546,24.1094 Q546,22.8594 546.5938,21.7656 Q547.2031,20.6719 548.25,20.0938 Q549.3125,19.5 550.5,19.5 Q551.2188,19.5 551.8438,19.75 Q552.4688,20 553,20.5 Z "/><text fill="#000000" font-family="sans-serif" font-size="12" lengthAdjust="spacingAndGlyphs" textLength="101" x="565" y="28.9102">CreatePayTransUI</text><line style="stroke: #A80036; stroke-width: 1.5;" x1="537" x2="668" y1="40" y2="40"/><line style="stroke: #A80036; stroke-width: 1.5;" x1="537" x2="668" y1="48" y2="48"/><!--MD5=[1f687b5315377fe49fca59b457947463]
class Freelancer--><rect fill="#FEFECE" filter="url(#fq1jq6ptz8lkb)" height="158.6875" id="Freelancer" style="stroke: #A80036; stroke-width: 1.5;" width="105" x="182" y="589"/><ellipse cx="203.3" cy="605" fill="#ADD1B2" rx="11" ry="11" style="stroke: #A80036; stroke-width: 1.0;"/><path d="M205.3,601.5 Q205.5031,601 205.7375,600.75 Q205.9719,600.5 206.2375,600.5 Q206.7063,600.5 207.0031,600.7813 Q207.3,601.0625 207.3,601.7188 L207.3,603.2813 Q207.3,603.9375 207.0188,604.2188 Q206.7375,604.5 206.3,604.5 Q205.9094,604.5 205.6594,604.3281 Q205.4094,604.1563 205.3,603.7031 Q205.2531,603.3906 205.0813,603.2188 Q204.7688,602.8906 204.2063,602.7031 Q203.6438,602.5 203.0813,602.5 Q202.3781,602.5 201.7844,602.7813 Q201.2063,603.0625 200.7531,603.6875 Q200.3,604.3125 200.3,605.1719 L200.3,606.0938 Q200.3,607.125 201.1438,607.8125 Q201.9875,608.5 203.4875,608.5 Q204.3781,608.5 205.0031,608.2969 Q205.3625,608.1875 205.7688,607.8281 Q206.0344,607.625 206.175,607.5625 Q206.3156,607.5 206.4875,607.5 Q206.8156,607.5 207.05,607.7656 Q207.3,608.0156 207.3,608.375 Q207.3,608.7188 206.9563,609.125 Q206.4563,609.7188 205.6594,610.0469 Q204.6125,610.5 203.3313,610.5 Q201.8313,610.5 200.6281,609.9063 Q199.6594,609.4375 198.9719,608.4219 Q198.3,607.4063 198.3,606.2031 L198.3,605.1094 Q198.3,603.8594 198.8938,602.7656 Q199.5031,601.6719 200.55,601.0938 Q201.6125,600.5 202.8,600.5 Q203.5188,600.5 204.1438,600.75 Q204.7688,601 205.3,601.5 Z "/><text fill="#000000" font-family="sans-serif" font-size="12" lengthAdjust="spacingAndGlyphs" textLength="59" x="218.7" y="609.9102">Freelancer</text><line style="stroke: #A80036; stroke-width: 1.5;" x1="183" x2="286" y1="621" y2="621"/><text fill="#000000" font-family="sans-serif" font-size="11" lengthAdjust="spacingAndGlyphs" textLength="93" x="188" y="636.4189">-String freelancerId</text><text fill="#000000" font-family="sans-serif" font-size="11" lengthAdjust="spacingAndGlyphs" textLength="61" x="188" y="650.2549">-String name</text><text fill="#000000" font-family="sans-serif" font-size="11" lengthAdjust="spacingAndGlyphs" textLength="63" x="188" y="664.0908">-String lvlExp</text><text fill="#000000" font-family="sans-serif" font-size="11" lengthAdjust="spacingAndGlyphs" textLength="59" x="188" y="677.9268">-String email</text><text fill="#000000" font-family="sans-serif" font-size="11" lengthAdjust="spacingAndGlyphs" textLength="47" x="188" y="691.7627">-String nif</text><text fill="#000000" font-family="sans-serif" font-size="11" lengthAdjust="spacingAndGlyphs" textLength="55" x="188" y="705.5986">-String iban</text><text fill="#000000" font-family="sans-serif" font-size="11" lengthAdjust="spacingAndGlyphs" textLength="75" x="188" y="719.4346">-String address</text><text fill="#000000" font-family="sans-serif" font-size="11" lengthAdjust="spacingAndGlyphs" textLength="72" x="188" y="733.2705">-String country</text><line style="stroke: #A80036; stroke-width: 1.5;" x1="183" x2="286" y1="739.6875" y2="739.6875"/><!--MD5=[139140af591ab1d97a5d53669350725d]
class CreatePayTransController--><rect fill="#FEFECE" filter="url(#fq1jq6ptz8lkb)" height="117.1797" id="CreatePayTransController" style="stroke: #A80036; stroke-width: 1.5;" width="425" x="390" y="117"/><ellipse cx="526.75" cy="133" fill="#ADD1B2" rx="11" ry="11" style="stroke: #A80036; stroke-width: 1.0;"/><path d="M528.75,129.5 Q528.9531,129 529.1875,128.75 Q529.4219,128.5 529.6875,128.5 Q530.1563,128.5 530.4531,128.7813 Q530.75,129.0625 530.75,129.7188 L530.75,131.2813 Q530.75,131.9375 530.4688,132.2188 Q530.1875,132.5 529.75,132.5 Q529.3594,132.5 529.1094,132.3281 Q528.8594,132.1563 528.75,131.7031 Q528.7031,131.3906 528.5313,131.2188 Q528.2188,130.8906 527.6563,130.7031 Q527.0938,130.5 526.5313,130.5 Q525.8281,130.5 525.2344,130.7813 Q524.6563,131.0625 524.2031,131.6875 Q523.75,132.3125 523.75,133.1719 L523.75,134.0938 Q523.75,135.125 524.5938,135.8125 Q525.4375,136.5 526.9375,136.5 Q527.8281,136.5 528.4531,136.2969 Q528.8125,136.1875 529.2188,135.8281 Q529.4844,135.625 529.625,135.5625 Q529.7656,135.5 529.9375,135.5 Q530.2656,135.5 530.5,135.7656 Q530.75,136.0156 530.75,136.375 Q530.75,136.7188 530.4063,137.125 Q529.9063,137.7188 529.1094,138.0469 Q528.0625,138.5 526.7813,138.5 Q525.2813,138.5 524.0781,137.9063 Q523.1094,137.4375 522.4219,136.4219 Q521.75,135.4063 521.75,134.2031 L521.75,133.1094 Q521.75,131.8594 522.3438,130.7656 Q522.9531,129.6719 524,129.0938 Q525.0625,128.5 526.25,128.5 Q526.9688,128.5 527.5938,128.75 Q528.2188,129 528.75,129.5 Z "/><text fill="#000000" font-family="sans-serif" font-size="12" lengthAdjust="spacingAndGlyphs" textLength="143" x="547.25" y="137.9102">CreatePayTransController</text><line style="stroke: #A80036; stroke-width: 1.5;" x1="391" x2="814" y1="149" y2="149"/><line style="stroke: #A80036; stroke-width: 1.5;" x1="391" x2="814" y1="157" y2="157"/><text fill="#000000" font-family="sans-serif" font-size="11" lengthAdjust="spacingAndGlyphs" textLength="104" x="396" y="172.4189">+getListFreelancers()</text><text fill="#000000" font-family="sans-serif" font-size="11" lengthAdjust="spacingAndGlyphs" textLength="69" x="396" y="186.2549">+getListTask()</text><text fill="#000000" font-family="sans-serif" font-size="11" lengthAdjust="spacingAndGlyphs" textLength="413" x="396" y="200.0908">+newPaymentTransaction(trasnID,endDate,delay,descQualityOfWork,task,freelancer)</text><text fill="#000000" font-family="sans-serif" font-size="11" lengthAdjust="spacingAndGlyphs" textLength="329" x="396" y="213.9268">+amountCalculate(trasnID,delay,descQualityOfWork,task,freelancer)</text><text fill="#000000" font-family="sans-serif" font-size="11" lengthAdjust="spacingAndGlyphs" textLength="145" x="396" y="227.7627">+registsPaymentTransaction()</text><!--MD5=[99b8db98afdc2c8404e39242ef4c1e65]
class Platform--><rect fill="#FEFECE" filter="url(#fq1jq6ptz8lkb)" height="75.6719" id="Platform" style="stroke: #A80036; stroke-width: 1.5;" width="132" x="375.5" y="295"/><ellipse cx="414.8" cy="311" fill="#ADD1B2" rx="11" ry="11" style="stroke: #A80036; stroke-width: 1.0;"/><path d="M416.8,307.5 Q417.0031,307 417.2375,306.75 Q417.4719,306.5 417.7375,306.5 Q418.2063,306.5 418.5031,306.7813 Q418.8,307.0625 418.8,307.7188 L418.8,309.2813 Q418.8,309.9375 418.5188,310.2188 Q418.2375,310.5 417.8,310.5 Q417.4094,310.5 417.1594,310.3281 Q416.9094,310.1563 416.8,309.7031 Q416.7531,309.3906 416.5813,309.2188 Q416.2688,308.8906 415.7063,308.7031 Q415.1438,308.5 414.5813,308.5 Q413.8781,308.5 413.2844,308.7813 Q412.7063,309.0625 412.2531,309.6875 Q411.8,310.3125 411.8,311.1719 L411.8,312.0938 Q411.8,313.125 412.6438,313.8125 Q413.4875,314.5 414.9875,314.5 Q415.8781,314.5 416.5031,314.2969 Q416.8625,314.1875 417.2688,313.8281 Q417.5344,313.625 417.675,313.5625 Q417.8156,313.5 417.9875,313.5 Q418.3156,313.5 418.55,313.7656 Q418.8,314.0156 418.8,314.375 Q418.8,314.7188 418.4563,315.125 Q417.9563,315.7188 417.1594,316.0469 Q416.1125,316.5 414.8313,316.5 Q413.3313,316.5 412.1281,315.9063 Q411.1594,315.4375 410.4719,314.4219 Q409.8,313.4063 409.8,312.2031 L409.8,311.1094 Q409.8,309.8594 410.3938,308.7656 Q411.0031,307.6719 412.05,307.0938 Q413.1125,306.5 414.3,306.5 Q415.0188,306.5 415.6438,306.75 Q416.2688,307 416.8,307.5 Z "/><text fill="#000000" font-family="sans-serif" font-size="12" lengthAdjust="spacingAndGlyphs" textLength="46" x="434.2" y="315.9102">Platform</text><line style="stroke: #A80036; stroke-width: 1.5;" x1="376.5" x2="506.5" y1="327" y2="327"/><line style="stroke: #A80036; stroke-width: 1.5;" x1="376.5" x2="506.5" y1="335" y2="335"/><text fill="#000000" font-family="sans-serif" font-size="11" lengthAdjust="spacingAndGlyphs" textLength="111" x="381.5" y="350.4189">+getRegistFreelancer()</text><text fill="#000000" font-family="sans-serif" font-size="11" lengthAdjust="spacingAndGlyphs" textLength="120" x="381.5" y="364.2549">+getRegistOrganization()</text><!--MD5=[8c32a229fce8023c0a6f77068d24861d]
class AplicationPOT--><rect fill="#FEFECE" filter="url(#fq1jq6ptz8lkb)" height="75.6719" id="AplicationPOT" style="stroke: #A80036; stroke-width: 1.5;" width="116" x="655.5" y="295"/><ellipse cx="673.65" cy="311" fill="#ADD1B2" rx="11" ry="11" style="stroke: #A80036; stroke-width: 1.0;"/><path d="M675.65,307.5 Q675.8531,307 676.0875,306.75 Q676.3219,306.5 676.5875,306.5 Q677.0563,306.5 677.3531,306.7813 Q677.65,307.0625 677.65,307.7188 L677.65,309.2813 Q677.65,309.9375 677.3688,310.2188 Q677.0875,310.5 676.65,310.5 Q676.2594,310.5 676.0094,310.3281 Q675.7594,310.1563 675.65,309.7031 Q675.6031,309.3906 675.4313,309.2188 Q675.1188,308.8906 674.5563,308.7031 Q673.9938,308.5 673.4313,308.5 Q672.7281,308.5 672.1344,308.7813 Q671.5563,309.0625 671.1031,309.6875 Q670.65,310.3125 670.65,311.1719 L670.65,312.0938 Q670.65,313.125 671.4938,313.8125 Q672.3375,314.5 673.8375,314.5 Q674.7281,314.5 675.3531,314.2969 Q675.7125,314.1875 676.1188,313.8281 Q676.3844,313.625 676.525,313.5625 Q676.6656,313.5 676.8375,313.5 Q677.1656,313.5 677.4,313.7656 Q677.65,314.0156 677.65,314.375 Q677.65,314.7188 677.3063,315.125 Q676.8063,315.7188 676.0094,316.0469 Q674.9625,316.5 673.6813,316.5 Q672.1813,316.5 670.9781,315.9063 Q670.0094,315.4375 669.3219,314.4219 Q668.65,313.4063 668.65,312.2031 L668.65,311.1094 Q668.65,309.8594 669.2438,308.7656 Q669.8531,307.6719 670.9,307.0938 Q671.9625,306.5 673.15,306.5 Q673.8688,306.5 674.4938,306.75 Q675.1188,307 675.65,307.5 Z "/><text fill="#000000" font-family="sans-serif" font-size="12" lengthAdjust="spacingAndGlyphs" textLength="77" x="688.35" y="315.9102">AplicationPOT</text><line style="stroke: #A80036; stroke-width: 1.5;" x1="656.5" x2="770.5" y1="327" y2="327"/><line style="stroke: #A80036; stroke-width: 1.5;" x1="656.5" x2="770.5" y1="335" y2="335"/><text fill="#000000" font-family="sans-serif" font-size="11" lengthAdjust="spacingAndGlyphs" textLength="70" x="661.5" y="350.4189">+getInstance()</text><text fill="#000000" font-family="sans-serif" font-size="11" lengthAdjust="spacingAndGlyphs" textLength="104" x="661.5" y="364.2549">+getCurrentSession()</text><!--MD5=[c5b08e60048ef1bcd788d24cf324082e]
class UserSession--><rect fill="#FEFECE" filter="url(#fq1jq6ptz8lkb)" height="61.8359" id="UserSession" style="stroke: #A80036; stroke-width: 1.5;" width="105" x="807" y="302"/><ellipse cx="822" cy="318" fill="#ADD1B2" rx="11" ry="11" style="stroke: #A80036; stroke-width: 1.0;"/><path d="M824,314.5 Q824.2031,314 824.4375,313.75 Q824.6719,313.5 824.9375,313.5 Q825.4063,313.5 825.7031,313.7813 Q826,314.0625 826,314.7188 L826,316.2813 Q826,316.9375 825.7188,317.2188 Q825.4375,317.5 825,317.5 Q824.6094,317.5 824.3594,317.3281 Q824.1094,317.1563 824,316.7031 Q823.9531,316.3906 823.7813,316.2188 Q823.4688,315.8906 822.9063,315.7031 Q822.3438,315.5 821.7813,315.5 Q821.0781,315.5 820.4844,315.7813 Q819.9063,316.0625 819.4531,316.6875 Q819,317.3125 819,318.1719 L819,319.0938 Q819,320.125 819.8438,320.8125 Q820.6875,321.5 822.1875,321.5 Q823.0781,321.5 823.7031,321.2969 Q824.0625,321.1875 824.4688,320.8281 Q824.7344,320.625 824.875,320.5625 Q825.0156,320.5 825.1875,320.5 Q825.5156,320.5 825.75,320.7656 Q826,321.0156 826,321.375 Q826,321.7188 825.6563,322.125 Q825.1563,322.7188 824.3594,323.0469 Q823.3125,323.5 822.0313,323.5 Q820.5313,323.5 819.3281,322.9063 Q818.3594,322.4375 817.6719,321.4219 Q817,320.4063 817,319.2031 L817,318.1094 Q817,316.8594 817.5938,315.7656 Q818.2031,314.6719 819.25,314.0938 Q820.3125,313.5 821.5,313.5 Q822.2188,313.5 822.8438,313.75 Q823.4688,314 824,314.5 Z "/><text fill="#000000" font-family="sans-serif" font-size="12" lengthAdjust="spacingAndGlyphs" textLength="73" x="836" y="322.9102">UserSession</text><line style="stroke: #A80036; stroke-width: 1.5;" x1="808" x2="911" y1="334" y2="334"/><line style="stroke: #A80036; stroke-width: 1.5;" x1="808" x2="911" y1="342" y2="342"/><text fill="#000000" font-family="sans-serif" font-size="11" lengthAdjust="spacingAndGlyphs" textLength="76" x="813" y="357.4189">+getUserEmail()</text><!--MD5=[b34797a66dc35cbf1d65f7e3ca75530e]
class Task--><rect fill="#FEFECE" filter="url(#fq1jq6ptz8lkb)" height="117.1797" id="Task" style="stroke: #A80036; stroke-width: 1.5;" width="100" x="584.5" y="994"/><ellipse cx="617.95" cy="1010" fill="#ADD1B2" rx="11" ry="11" style="stroke: #A80036; stroke-width: 1.0;"/><path d="M619.95,1006.5 Q620.1531,1006 620.3875,1005.75 Q620.6219,1005.5 620.8875,1005.5 Q621.3563,1005.5 621.6531,1005.7813 Q621.95,1006.0625 621.95,1006.7188 L621.95,1008.2813 Q621.95,1008.9375 621.6688,1009.2188 Q621.3875,1009.5 620.95,1009.5 Q620.5594,1009.5 620.3094,1009.3281 Q620.0594,1009.1563 619.95,1008.7031 Q619.9031,1008.3906 619.7313,1008.2188 Q619.4188,1007.8906 618.8563,1007.7031 Q618.2938,1007.5 617.7313,1007.5 Q617.0281,1007.5 616.4344,1007.7813 Q615.8563,1008.0625 615.4031,1008.6875 Q614.95,1009.3125 614.95,1010.1719 L614.95,1011.0938 Q614.95,1012.125 615.7938,1012.8125 Q616.6375,1013.5 618.1375,1013.5 Q619.0281,1013.5 619.6531,1013.2969 Q620.0125,1013.1875 620.4188,1012.8281 Q620.6844,1012.625 620.825,1012.5625 Q620.9656,1012.5 621.1375,1012.5 Q621.4656,1012.5 621.7,1012.7656 Q621.95,1013.0156 621.95,1013.375 Q621.95,1013.7188 621.6063,1014.125 Q621.1063,1014.7188 620.3094,1015.0469 Q619.2625,1015.5 617.9813,1015.5 Q616.4813,1015.5 615.2781,1014.9063 Q614.3094,1014.4375 613.6219,1013.4219 Q612.95,1012.4063 612.95,1011.2031 L612.95,1010.1094 Q612.95,1008.8594 613.5438,1007.7656 Q614.1531,1006.6719 615.2,1006.0938 Q616.2625,1005.5 617.45,1005.5 Q618.1688,1005.5 618.7938,1005.75 Q619.4188,1006 619.95,1006.5 Z "/><text fill="#000000" font-family="sans-serif" font-size="12" lengthAdjust="spacingAndGlyphs" textLength="27" x="636.05" y="1014.9102">Task</text><line style="stroke: #A80036; stroke-width: 1.5;" x1="585.5" x2="683.5" y1="1026" y2="1026"/><text fill="#000000" font-family="sans-serif" font-size="11" lengthAdjust="spacingAndGlyphs" textLength="66" x="590.5" y="1041.4189">-String TaskId</text><text fill="#000000" font-family="sans-serif" font-size="11" lengthAdjust="spacingAndGlyphs" textLength="88" x="590.5" y="1055.2549">-String description</text><text fill="#000000" font-family="sans-serif" font-size="11" lengthAdjust="spacingAndGlyphs" textLength="74" x="590.5" y="1069.0908">-String duration</text><text fill="#000000" font-family="sans-serif" font-size="11" lengthAdjust="spacingAndGlyphs" textLength="56" x="590.5" y="1082.9268">-String cost</text><text fill="#000000" font-family="sans-serif" font-size="11" lengthAdjust="spacingAndGlyphs" textLength="78" x="590.5" y="1096.7627">-String category</text><line style="stroke: #A80036; stroke-width: 1.5;" x1="585.5" x2="683.5" y1="1103.1797" y2="1103.1797"/><!--MD5=[e09e0019787cf83947156283bb671e06]
class RegistOrganization--><rect fill="#FEFECE" filter="url(#fq1jq6ptz8lkb)" height="61.8359" id="RegistOrganization" style="stroke: #A80036; stroke-width: 1.5;" width="216" x="333.5" y="449"/><ellipse cx="384.75" cy="465" fill="#ADD1B2" rx="11" ry="11" style="stroke: #A80036; stroke-width: 1.0;"/><path d="M386.75,461.5 Q386.9531,461 387.1875,460.75 Q387.4219,460.5 387.6875,460.5 Q388.1563,460.5 388.4531,460.7813 Q388.75,461.0625 388.75,461.7188 L388.75,463.2813 Q388.75,463.9375 388.4688,464.2188 Q388.1875,464.5 387.75,464.5 Q387.3594,464.5 387.1094,464.3281 Q386.8594,464.1563 386.75,463.7031 Q386.7031,463.3906 386.5313,463.2188 Q386.2188,462.8906 385.6563,462.7031 Q385.0938,462.5 384.5313,462.5 Q383.8281,462.5 383.2344,462.7813 Q382.6563,463.0625 382.2031,463.6875 Q381.75,464.3125 381.75,465.1719 L381.75,466.0938 Q381.75,467.125 382.5938,467.8125 Q383.4375,468.5 384.9375,468.5 Q385.8281,468.5 386.4531,468.2969 Q386.8125,468.1875 387.2188,467.8281 Q387.4844,467.625 387.625,467.5625 Q387.7656,467.5 387.9375,467.5 Q388.2656,467.5 388.5,467.7656 Q388.75,468.0156 388.75,468.375 Q388.75,468.7188 388.4063,469.125 Q387.9063,469.7188 387.1094,470.0469 Q386.0625,470.5 384.7813,470.5 Q383.2813,470.5 382.0781,469.9063 Q381.1094,469.4375 380.4219,468.4219 Q379.75,467.4063 379.75,466.2031 L379.75,465.1094 Q379.75,463.8594 380.3438,462.7656 Q380.9531,461.6719 382,461.0938 Q383.0625,460.5 384.25,460.5 Q384.9688,460.5 385.5938,460.75 Q386.2188,461 386.75,461.5 Z "/><text fill="#000000" font-family="sans-serif" font-size="12" lengthAdjust="spacingAndGlyphs" textLength="105" x="405.25" y="469.9102">RegistOrganization</text><line style="stroke: #A80036; stroke-width: 1.5;" x1="334.5" x2="548.5" y1="481" y2="481"/><line style="stroke: #A80036; stroke-width: 1.5;" x1="334.5" x2="548.5" y1="489" y2="489"/><text fill="#000000" font-family="sans-serif" font-size="11" lengthAdjust="spacingAndGlyphs" textLength="204" x="339.5" y="504.4189">+getRegistOrganizationByUserEmail(email)</text><!--MD5=[eba5144af5135a87840971fc4358c553]
class RegistFreelancer--><rect fill="#FEFECE" filter="url(#fq1jq6ptz8lkb)" height="61.8359" id="RegistFreelancer" style="stroke: #A80036; stroke-width: 1.5;" width="127" x="171" y="449"/><ellipse cx="186" cy="465" fill="#ADD1B2" rx="11" ry="11" style="stroke: #A80036; stroke-width: 1.0;"/><path d="M188,461.5 Q188.2031,461 188.4375,460.75 Q188.6719,460.5 188.9375,460.5 Q189.4063,460.5 189.7031,460.7813 Q190,461.0625 190,461.7188 L190,463.2813 Q190,463.9375 189.7188,464.2188 Q189.4375,464.5 189,464.5 Q188.6094,464.5 188.3594,464.3281 Q188.1094,464.1563 188,463.7031 Q187.9531,463.3906 187.7813,463.2188 Q187.4688,462.8906 186.9063,462.7031 Q186.3438,462.5 185.7813,462.5 Q185.0781,462.5 184.4844,462.7813 Q183.9063,463.0625 183.4531,463.6875 Q183,464.3125 183,465.1719 L183,466.0938 Q183,467.125 183.8438,467.8125 Q184.6875,468.5 186.1875,468.5 Q187.0781,468.5 187.7031,468.2969 Q188.0625,468.1875 188.4688,467.8281 Q188.7344,467.625 188.875,467.5625 Q189.0156,467.5 189.1875,467.5 Q189.5156,467.5 189.75,467.7656 Q190,468.0156 190,468.375 Q190,468.7188 189.6563,469.125 Q189.1563,469.7188 188.3594,470.0469 Q187.3125,470.5 186.0313,470.5 Q184.5313,470.5 183.3281,469.9063 Q182.3594,469.4375 181.6719,468.4219 Q181,467.4063 181,466.2031 L181,465.1094 Q181,463.8594 181.5938,462.7656 Q182.2031,461.6719 183.25,461.0938 Q184.3125,460.5 185.5,460.5 Q186.2188,460.5 186.8438,460.75 Q187.4688,461 188,461.5 Z "/><text fill="#000000" font-family="sans-serif" font-size="12" lengthAdjust="spacingAndGlyphs" textLength="95" x="200" y="469.9102">RegistFreelancer</text><line style="stroke: #A80036; stroke-width: 1.5;" x1="172" x2="297" y1="481" y2="481"/><line style="stroke: #A80036; stroke-width: 1.5;" x1="172" x2="297" y1="489" y2="489"/><text fill="#000000" font-family="sans-serif" font-size="11" lengthAdjust="spacingAndGlyphs" textLength="104" x="177" y="504.4189">+getListFreelancers()</text><!--MD5=[86c7c362de55a38b660185a1328fe18d]
class Organization--><rect fill="#FEFECE" filter="url(#fq1jq6ptz8lkb)" height="75.6719" id="Organization" style="stroke: #A80036; stroke-width: 1.5;" width="156" x="483.5" y="630.5"/><ellipse cx="523.25" cy="646.5" fill="#ADD1B2" rx="11" ry="11" style="stroke: #A80036; stroke-width: 1.0;"/><path d="M525.25,643 Q525.4531,642.5 525.6875,642.25 Q525.9219,642 526.1875,642 Q526.6563,642 526.9531,642.2813 Q527.25,642.5625 527.25,643.2188 L527.25,644.7813 Q527.25,645.4375 526.9688,645.7188 Q526.6875,646 526.25,646 Q525.8594,646 525.6094,645.8281 Q525.3594,645.6563 525.25,645.2031 Q525.2031,644.8906 525.0313,644.7188 Q524.7188,644.3906 524.1563,644.2031 Q523.5938,644 523.0313,644 Q522.3281,644 521.7344,644.2813 Q521.1563,644.5625 520.7031,645.1875 Q520.25,645.8125 520.25,646.6719 L520.25,647.5938 Q520.25,648.625 521.0938,649.3125 Q521.9375,650 523.4375,650 Q524.3281,650 524.9531,649.7969 Q525.3125,649.6875 525.7188,649.3281 Q525.9844,649.125 526.125,649.0625 Q526.2656,649 526.4375,649 Q526.7656,649 527,649.2656 Q527.25,649.5156 527.25,649.875 Q527.25,650.2188 526.9063,650.625 Q526.4063,651.2188 525.6094,651.5469 Q524.5625,652 523.2813,652 Q521.7813,652 520.5781,651.4063 Q519.6094,650.9375 518.9219,649.9219 Q518.25,648.9063 518.25,647.7031 L518.25,646.6094 Q518.25,645.3594 518.8438,644.2656 Q519.4531,643.1719 520.5,642.5938 Q521.5625,642 522.75,642 Q523.4688,642 524.0938,642.25 Q524.7188,642.5 525.25,643 Z "/><text fill="#000000" font-family="sans-serif" font-size="12" lengthAdjust="spacingAndGlyphs" textLength="69" x="542.75" y="651.4102">Organization</text><line style="stroke: #A80036; stroke-width: 1.5;" x1="484.5" x2="638.5" y1="662.5" y2="662.5"/><line style="stroke: #A80036; stroke-width: 1.5;" x1="484.5" x2="638.5" y1="670.5" y2="670.5"/><text fill="#000000" font-family="sans-serif" font-size="11" lengthAdjust="spacingAndGlyphs" textLength="69" x="489.5" y="685.9189">+getTaskList()</text><text fill="#000000" font-family="sans-serif" font-size="11" lengthAdjust="spacingAndGlyphs" textLength="144" x="489.5" y="699.7549">+getPaymentTransactionList()</text><!--MD5=[cf2635f8a68afd84898027166f4516bc]
class TaskList--><rect fill="#FEFECE" filter="url(#fq1jq6ptz8lkb)" height="61.8359" id="TaskList" style="stroke: #A80036; stroke-width: 1.5;" width="81" x="594" y="840"/><ellipse cx="609.9" cy="856" fill="#ADD1B2" rx="11" ry="11" style="stroke: #A80036; stroke-width: 1.0;"/><path d="M611.9,852.5 Q612.1031,852 612.3375,851.75 Q612.5719,851.5 612.8375,851.5 Q613.3063,851.5 613.6031,851.7813 Q613.9,852.0625 613.9,852.7188 L613.9,854.2813 Q613.9,854.9375 613.6188,855.2188 Q613.3375,855.5 612.9,855.5 Q612.5094,855.5 612.2594,855.3281 Q612.0094,855.1563 611.9,854.7031 Q611.8531,854.3906 611.6813,854.2188 Q611.3688,853.8906 610.8063,853.7031 Q610.2438,853.5 609.6813,853.5 Q608.9781,853.5 608.3844,853.7813 Q607.8063,854.0625 607.3531,854.6875 Q606.9,855.3125 606.9,856.1719 L606.9,857.0938 Q606.9,858.125 607.7438,858.8125 Q608.5875,859.5 610.0875,859.5 Q610.9781,859.5 611.6031,859.2969 Q611.9625,859.1875 612.3688,858.8281 Q612.6344,858.625 612.775,858.5625 Q612.9156,858.5 613.0875,858.5 Q613.4156,858.5 613.65,858.7656 Q613.9,859.0156 613.9,859.375 Q613.9,859.7188 613.5563,860.125 Q613.0563,860.7188 612.2594,861.0469 Q611.2125,861.5 609.9313,861.5 Q608.4313,861.5 607.2281,860.9063 Q606.2594,860.4375 605.5719,859.4219 Q604.9,858.4063 604.9,857.2031 L604.9,856.1094 Q604.9,854.8594 605.4938,853.7656 Q606.1031,852.6719 607.15,852.0938 Q608.2125,851.5 609.4,851.5 Q610.1188,851.5 610.7438,851.75 Q611.3688,852 611.9,852.5 Z "/><text fill="#000000" font-family="sans-serif" font-size="12" lengthAdjust="spacingAndGlyphs" textLength="47" x="624.1" y="860.9102">TaskList</text><line style="stroke: #A80036; stroke-width: 1.5;" x1="595" x2="674" y1="872" y2="872"/><line style="stroke: #A80036; stroke-width: 1.5;" x1="595" x2="674" y1="880" y2="880"/><text fill="#000000" font-family="sans-serif" font-size="11" lengthAdjust="spacingAndGlyphs" textLength="69" x="600" y="895.4189">+getTaskList()</text><!--MD5=[ba54b1997298830925be59f10364c919]
class PaymentTransactionList--><rect fill="#FEFECE" filter="url(#fq1jq6ptz8lkb)" height="89.5078" id="PaymentTransactionList" style="stroke: #A80036; stroke-width: 1.5;" width="388" x="170.5" y="826"/><ellipse cx="293.75" cy="842" fill="#ADD1B2" rx="11" ry="11" style="stroke: #A80036; stroke-width: 1.0;"/><path d="M295.75,838.5 Q295.9531,838 296.1875,837.75 Q296.4219,837.5 296.6875,837.5 Q297.1563,837.5 297.4531,837.7813 Q297.75,838.0625 297.75,838.7188 L297.75,840.2813 Q297.75,840.9375 297.4688,841.2188 Q297.1875,841.5 296.75,841.5 Q296.3594,841.5 296.1094,841.3281 Q295.8594,841.1563 295.75,840.7031 Q295.7031,840.3906 295.5313,840.2188 Q295.2188,839.8906 294.6563,839.7031 Q294.0938,839.5 293.5313,839.5 Q292.8281,839.5 292.2344,839.7813 Q291.6563,840.0625 291.2031,840.6875 Q290.75,841.3125 290.75,842.1719 L290.75,843.0938 Q290.75,844.125 291.5938,844.8125 Q292.4375,845.5 293.9375,845.5 Q294.8281,845.5 295.4531,845.2969 Q295.8125,845.1875 296.2188,844.8281 Q296.4844,844.625 296.625,844.5625 Q296.7656,844.5 296.9375,844.5 Q297.2656,844.5 297.5,844.7656 Q297.75,845.0156 297.75,845.375 Q297.75,845.7188 297.4063,846.125 Q296.9063,846.7188 296.1094,847.0469 Q295.0625,847.5 293.7813,847.5 Q292.2813,847.5 291.0781,846.9063 Q290.1094,846.4375 289.4219,845.4219 Q288.75,844.4063 288.75,843.2031 L288.75,842.1094 Q288.75,840.8594 289.3438,839.7656 Q289.9531,838.6719 291,838.0938 Q292.0625,837.5 293.25,837.5 Q293.9688,837.5 294.5938,837.75 Q295.2188,838 295.75,838.5 Z "/><text fill="#000000" font-family="sans-serif" font-size="12" lengthAdjust="spacingAndGlyphs" textLength="133" x="314.25" y="846.9102">PaymentTransactionList</text><line style="stroke: #A80036; stroke-width: 1.5;" x1="171.5" x2="557.5" y1="858" y2="858"/><line style="stroke: #A80036; stroke-width: 1.5;" x1="171.5" x2="557.5" y1="866" y2="866"/><text fill="#000000" font-family="sans-serif" font-size="11" lengthAdjust="spacingAndGlyphs" textLength="376" x="176.5" y="881.4189">+newPaymentTransaction(endDate,delay,descQualityOfWork,task,freelancer)</text><text fill="#000000" font-family="sans-serif" font-size="11" lengthAdjust="spacingAndGlyphs" textLength="253" x="176.5" y="895.2549">+validatesPaymentTransaction(paymentTransaction)</text><text fill="#000000" font-family="sans-serif" font-size="11" lengthAdjust="spacingAndGlyphs" textLength="228" x="176.5" y="909.0908">+addPaymentTransaction(paymentTransaction)</text><!--MD5=[b645a18afb25b7e5623af7186d8eb36f]
class PaymentTransaction--><rect fill="#FEFECE" filter="url(#fq1jq6ptz8lkb)" height="75.6719" id="PaymentTransaction" style="stroke: #A80036; stroke-width: 1.5;" width="347" x="6" y="1014.5"/><ellipse cx="118.75" cy="1030.5" fill="#ADD1B2" rx="11" ry="11" style="stroke: #A80036; stroke-width: 1.0;"/><path d="M120.75,1027 Q120.9531,1026.5 121.1875,1026.25 Q121.4219,1026 121.6875,1026 Q122.1563,1026 122.4531,1026.2813 Q122.75,1026.5625 122.75,1027.2188 L122.75,1028.7813 Q122.75,1029.4375 122.4688,1029.7188 Q122.1875,1030 121.75,1030 Q121.3594,1030 121.1094,1029.8281 Q120.8594,1029.6563 120.75,1029.2031 Q120.7031,1028.8906 120.5313,1028.7188 Q120.2188,1028.3906 119.6563,1028.2031 Q119.0938,1028 118.5313,1028 Q117.8281,1028 117.2344,1028.2813 Q116.6563,1028.5625 116.2031,1029.1875 Q115.75,1029.8125 115.75,1030.6719 L115.75,1031.5938 Q115.75,1032.625 116.5938,1033.3125 Q117.4375,1034 118.9375,1034 Q119.8281,1034 120.4531,1033.7969 Q120.8125,1033.6875 121.2188,1033.3281 Q121.4844,1033.125 121.625,1033.0625 Q121.7656,1033 121.9375,1033 Q122.2656,1033 122.5,1033.2656 Q122.75,1033.5156 122.75,1033.875 Q122.75,1034.2188 122.4063,1034.625 Q121.9063,1035.2188 121.1094,1035.5469 Q120.0625,1036 118.7813,1036 Q117.2813,1036 116.0781,1035.4063 Q115.1094,1034.9375 114.4219,1033.9219 Q113.75,1032.9063 113.75,1031.7031 L113.75,1030.6094 Q113.75,1029.3594 114.3438,1028.2656 Q114.9531,1027.1719 116,1026.5938 Q117.0625,1026 118.25,1026 Q118.9688,1026 119.5938,1026.25 Q120.2188,1026.5 120.75,1027 Z "/><text fill="#000000" font-family="sans-serif" font-size="12" lengthAdjust="spacingAndGlyphs" textLength="113" x="139.25" y="1035.4102">PaymentTransaction</text><line style="stroke: #A80036; stroke-width: 1.5;" x1="7" x2="352" y1="1046.5" y2="1046.5"/><line style="stroke: #A80036; stroke-width: 1.5;" x1="7" x2="352" y1="1054.5" y2="1054.5"/><text fill="#000000" font-family="sans-serif" font-size="11" lengthAdjust="spacingAndGlyphs" textLength="324" x="12" y="1069.9189">+create(trasnID,endDate,delay,descQualityOfWork,task,freelancer)</text><text fill="#000000" font-family="sans-serif" font-size="11" lengthAdjust="spacingAndGlyphs" textLength="335" x="12" y="1083.7549">+amountCalculate(endDate,delay,descQualityOfWork,task,freelancer)</text><!--MD5=[ee8b7fb62fe496044b0cc839ec695264]
link CreatePayTransUI to CreatePayTransController--><path d="M602.5,56.05 C602.5,71.28 602.5,92.04 602.5,111.92 " fill="none" id="CreatePayTransUI-&gt;CreatePayTransController" style="stroke: #A80036; stroke-width: 1.0; stroke-dasharray: 7.0,7.0;"/><polygon fill="#A80036" points="602.5,116.952,606.5,107.952,602.5,111.952,598.5,107.952,602.5,116.952" style="stroke: #A80036; stroke-width: 1.0;"/><!--MD5=[98e4426292a7161b6e8cc82624e651a2]
link CreatePayTransController to Platform--><path d="M542.55,234.402 C523.1,253.187 501.935,273.629 484.025,290.928 " fill="none" id="CreatePayTransController-&gt;Platform" style="stroke: #A80036; stroke-width: 1.0; stroke-dasharray: 7.0,7.0;"/><polygon fill="#A80036" points="480.019,294.797,489.2707,291.4198,483.6147,291.3227,483.7119,285.6667,480.019,294.797" style="stroke: #A80036; stroke-width: 1.0;"/><!--MD5=[c7ce02ab5199c4ab3c48866f7f7cffb2]
link CreatePayTransController to UserSession--><path d="M697.832,234.181 C734.049,256.095 774.04,280.292 805.186,299.137 " fill="none" id="CreatePayTransController-&gt;UserSession" style="stroke: #A80036; stroke-width: 1.0; stroke-dasharray: 7.0,7.0;"/><polygon fill="#A80036" points="809.716,301.878,804.0874,293.796,805.4384,299.2892,799.9452,300.6402,809.716,301.878" style="stroke: #A80036; stroke-width: 1.0;"/><!--MD5=[41de00f410c78006faf6716184684852]
link CreatePayTransController to AplicationPOT--><path d="M643.832,234.402 C657.129,253.03 671.588,273.286 683.87,290.491 " fill="none" id="CreatePayTransController-&gt;AplicationPOT" style="stroke: #A80036; stroke-width: 1.0; stroke-dasharray: 7.0,7.0;"/><polygon fill="#A80036" points="686.944,294.797,684.9723,285.1475,684.0397,290.727,678.4602,289.7944,686.944,294.797" style="stroke: #A80036; stroke-width: 1.0;"/><!--MD5=[736896ddd0b2c15ea62844344f935c15]
link Platform to RegistFreelancer--><path d="M388.461,371.153 C355.559,394.2 313.65,423.557 281.866,445.821 " fill="none" id="Platform-&gt;RegistFreelancer" style="stroke: #A80036; stroke-width: 1.0;"/><polygon fill="#A80036" points="277.648,448.775,287.3145,446.8883,281.7434,445.9066,282.7251,440.3356,277.648,448.775" style="stroke: #A80036; stroke-width: 1.0;"/><polygon fill="#000000" points="352.5,408.6758,346.5,411.6758,352.5,414.6758,352.5,408.6758" style="stroke: #000000; stroke-width: 1.0;"/><text fill="#000000" font-family="sans-serif" font-size="13" lengthAdjust="spacingAndGlyphs" textLength="21" x="358.5" y="415.4951">has</text><text fill="#000000" font-family="sans-serif" font-size="13" lengthAdjust="spacingAndGlyphs" textLength="7" x="372.4501" y="392.0579">1</text><text fill="#000000" font-family="sans-serif" font-size="13" lengthAdjust="spacingAndGlyphs" textLength="7" x="278.8254" y="438.2331">1</text><!--MD5=[4671e899716b0dcf633e499c71dc2f16]
link Platform to RegistOrganization--><path d="M441.5,371.341 C441.5,393.559 441.5,421.588 441.5,443.477 " fill="none" id="Platform-&gt;RegistOrganization" style="stroke: #A80036; stroke-width: 1.0;"/><polygon fill="#A80036" points="441.5,448.617,445.5,439.617,441.5,443.617,437.5,439.617,441.5,448.617" style="stroke: #A80036; stroke-width: 1.0;"/><text fill="#000000" font-family="sans-serif" font-size="13" lengthAdjust="spacingAndGlyphs" textLength="21" x="442.5" y="415.4951">has</text><polygon fill="#000000" points="448.5,424.3516,451.5,430.3516,454.5,424.3516,448.5,424.3516" style="stroke: #000000; stroke-width: 1.0;"/><text fill="#000000" font-family="sans-serif" font-size="13" lengthAdjust="spacingAndGlyphs" textLength="7" x="433.9422" y="392.2759">1</text><text fill="#000000" font-family="sans-serif" font-size="13" lengthAdjust="spacingAndGlyphs" textLength="7" x="433.7781" y="438.0425">1</text><!--MD5=[b2767384522f615c85a28d92ddf7f4b1]
link RegistOrganization to Organization--><path d="M461.047,511.38 C481.068,542.496 512.338,591.094 534.669,625.8 " fill="none" id="RegistOrganization-&gt;Organization" style="stroke: #A80036; stroke-width: 1.0;"/><polygon fill="#A80036" points="537.621,630.388,536.114,620.6551,534.9151,626.1835,529.3868,624.9845,537.621,630.388" style="stroke: #A80036; stroke-width: 1.0;"/><text fill="#000000" font-family="sans-serif" font-size="13" lengthAdjust="spacingAndGlyphs" textLength="21" x="492.5" y="555.4951">has</text><polygon fill="#000000" points="498.5,564.3516,501.5,570.3516,504.5,564.3516,498.5,564.3516" style="stroke: #000000; stroke-width: 1.0;"/><text fill="#000000" font-family="sans-serif" font-size="13" lengthAdjust="spacingAndGlyphs" textLength="7" x="457.106" y="532.4311">1</text><text fill="#000000" font-family="sans-serif" font-size="13" lengthAdjust="spacingAndGlyphs" textLength="5" x="527.9222" y="619.73">*</text><!--MD5=[f6c6e2e1edc8b9c679d946fd219df4da]
link CreatePayTransController to Organization--><path d="M597.676,234.268 C589.333,334.184 572.396,537.009 565.042,625.087 " fill="none" id="CreatePayTransController-&gt;Organization" style="stroke: #A80036; stroke-width: 1.0; stroke-dasharray: 7.0,7.0;"/><polygon fill="#A80036" points="564.614,630.213,569.3509,621.5781,565.0311,625.2304,561.3788,620.9107,564.614,630.213" style="stroke: #A80036; stroke-width: 1.0;"/><!--MD5=[12a648b87e57a40b1492f312537407ab]
link RegistFreelancer to Freelancer--><path d="M234.5,511.38 C234.5,531.12 234.5,557.896 234.5,583.697 " fill="none" id="RegistFreelancer-&gt;Freelancer" style="stroke: #A80036; stroke-width: 1.0;"/><polygon fill="#A80036" points="234.5,588.842,238.5,579.842,234.5,583.842,230.5,579.842,234.5,588.842" style="stroke: #A80036; stroke-width: 1.0;"/><text fill="#000000" font-family="sans-serif" font-size="13" lengthAdjust="spacingAndGlyphs" textLength="21" x="235.5" y="555.4951">has</text><polygon fill="#000000" points="241.5,564.3516,244.5,570.3516,247.5,564.3516,241.5,564.3516" style="stroke: #000000; stroke-width: 1.0;"/><text fill="#000000" font-family="sans-serif" font-size="13" lengthAdjust="spacingAndGlyphs" textLength="7" x="226.8328" y="532.4311">1</text><text fill="#000000" font-family="sans-serif" font-size="13" lengthAdjust="spacingAndGlyphs" textLength="5" x="229.2617" y="578.0139">*</text><!--MD5=[522c679f4dd7ba84a6aa9ac03f58229d]
link Organization to TaskList--><path d="M575.06,706.743 C588.437,743.484 608.728,799.214 621.799,835.116 " fill="none" id="Organization-&gt;TaskList" style="stroke: #A80036; stroke-width: 1.0;"/><polygon fill="#A80036" points="623.515,839.828,624.1949,830.0026,621.8046,835.1297,616.6775,832.7393,623.515,839.828" style="stroke: #A80036; stroke-width: 1.0;"/><text fill="#000000" font-family="sans-serif" font-size="13" lengthAdjust="spacingAndGlyphs" textLength="21" x="608.5" y="792.4951">has</text><polygon fill="#000000" points="614.5,801.3516,617.5,807.3516,620.5,801.3516,614.5,801.3516" style="stroke: #000000; stroke-width: 1.0;"/><text fill="#000000" font-family="sans-serif" font-size="13" lengthAdjust="spacingAndGlyphs" textLength="7" x="569.6633" y="727.6623">1</text><text fill="#000000" font-family="sans-serif" font-size="13" lengthAdjust="spacingAndGlyphs" textLength="7" x="613.5275" y="829.2971">1</text><!--MD5=[322d55b5ad1658b7791494cedb432ac7]
link Organization to PaymentTransactionList--><path d="M524.907,706.743 C492.914,739.304 446.268,786.779 411.515,822.15 " fill="none" id="Organization-&gt;PaymentTransactionList" style="stroke: #A80036; stroke-width: 1.0;"/><polygon fill="#A80036" points="407.765,825.966,416.9263,822.3507,411.2697,822.3999,411.2205,816.7432,407.765,825.966" style="stroke: #A80036; stroke-width: 1.0;"/><text fill="#000000" font-family="sans-serif" font-size="13" lengthAdjust="spacingAndGlyphs" textLength="21" x="452.5" y="792.4951">has</text><polygon fill="#000000" points="458.5,801.3516,461.5,807.3516,464.5,801.3516,458.5,801.3516" style="stroke: #000000; stroke-width: 1.0;"/><text fill="#000000" font-family="sans-serif" font-size="13" lengthAdjust="spacingAndGlyphs" textLength="7" x="511.5172" y="727.6623">1</text><text fill="#000000" font-family="sans-serif" font-size="13" lengthAdjust="spacingAndGlyphs" textLength="7" x="407.1025" y="815.0761">1</text><!--MD5=[ad9e6b825fedf9daad488846d3a92887]
link PaymentTransactionList to PaymentTransaction--><path d="M318.77,916.371 C289.073,945.184 250.649,982.466 221.685,1010.569 " fill="none" id="PaymentTransactionList-&gt;PaymentTransaction" style="stroke: #A80036; stroke-width: 1.0;"/><polygon fill="#A80036" points="217.843,1014.2973,227.0882,1010.9022,221.432,1010.816,221.5181,1005.1598,217.843,1014.2973" style="stroke: #A80036; stroke-width: 1.0;"/><polygon fill="#000000" points="291.5,953.6758,285.5,956.6758,291.5,959.6758,291.5,953.6758" style="stroke: #000000; stroke-width: 1.0;"/><text fill="#000000" font-family="sans-serif" font-size="13" lengthAdjust="spacingAndGlyphs" textLength="21" x="297.5" y="960.4951">has</text><text fill="#000000" font-family="sans-serif" font-size="13" lengthAdjust="spacingAndGlyphs" textLength="7" x="305.1547" y="937.0945">1</text><text fill="#000000" font-family="sans-serif" font-size="13" lengthAdjust="spacingAndGlyphs" textLength="5" x="219.2275" y="1003.6227">*</text><!--MD5=[d4655a198b6ba8077692ff201d0478c8]
link CreatePayTransController to PaymentTransaction--><path d="M389.772,206.005 C259.458,230.275 117.5,270.767 117.5,332 C117.5,332 117.5,332 117.5,872 C117.5,921.223 138.587,974.083 156.165,1009.597 " fill="none" id="CreatePayTransController-&gt;PaymentTransaction" style="stroke: #A80036; stroke-width: 1.0; stroke-dasharray: 7.0,7.0;"/><polygon fill="#A80036" points="158.51,1014.2736,158.0502,1004.4355,156.2682,1009.8043,150.8994,1008.0223,158.51,1014.2736" style="stroke: #A80036; stroke-width: 1.0;"/><!--MD5=[14c738364c5fdafcb97ced6863906d7f]
link TaskList to Task--><path d="M634.5,902.044 C634.5,925.631 634.5,959.285 634.5,988.688 " fill="none" id="TaskList-&gt;Task" style="stroke: #A80036; stroke-width: 1.0;"/><polygon fill="#A80036" points="634.5,993.746,638.5,984.746,634.5,988.746,630.5,984.746,634.5,993.746" style="stroke: #A80036; stroke-width: 1.0;"/><text fill="#000000" font-family="sans-serif" font-size="13" lengthAdjust="spacingAndGlyphs" textLength="21" x="635.5" y="960.4951">has</text><polygon fill="#000000" points="641.5,969.3516,644.5,975.3516,647.5,969.3516,641.5,969.3516" style="stroke: #000000; stroke-width: 1.0;"/><text fill="#000000" font-family="sans-serif" font-size="13" lengthAdjust="spacingAndGlyphs" textLength="7" x="626.8109" y="923.2767">1</text><text fill="#000000" font-family="sans-serif" font-size="13" lengthAdjust="spacingAndGlyphs" textLength="7" x="627.0734" y="983.1159">1</text><!--MD5=[b04cf536cb34092c5bebe6d2a3b403d2]
@startuml
skinparam classAttributeIconSize 0

class CreatePayTransUI{
}

class Freelancer{
-String freelancerId
-String name
-String lvlExp
-String email
-String nif
-String iban
-String address
-String country
}

class CreatePayTransController{
+getListFreelancers()
+getListTask()
+newPaymentTransaction(trasnID,endDate,delay,descQualityOfWork,task,freelancer)
+amountCalculate(trasnID,delay,descQualityOfWork,task,freelancer)
+registsPaymentTransaction()
}

class Platform{
+getRegistFreelancer()
+getRegistOrganization()
}

class AplicationPOT{
+getInstance()
+getCurrentSession()
}

class UserSession{
+getUserEmail()
}

class Task{
-String TaskId
-String description
-String duration
-String cost
-String category
}

class RegistOrganization{
+getRegistOrganizationByUserEmail(email)
}

class RegistFreelancer{
+getListFreelancers()
}

class Organization{
+getTaskList()
+getPaymentTransactionList()
}

class TaskList{
+getTaskList()
}

class PaymentTransactionList{
+newPaymentTransaction(endDate,delay,descQualityOfWork,task,freelancer)
+validatesPaymentTransaction(paymentTransaction)
+addPaymentTransaction(paymentTransaction)
}

class PaymentTransaction{
+create(trasnID,endDate,delay,descQualityOfWork,task,freelancer)
+amountCalculate(endDate,delay,descQualityOfWork,task,freelancer)
}

CreatePayTransUI ..> CreatePayTransController
CreatePayTransController ..> Platform
CreatePayTransController ..> UserSession
CreatePayTransController ..> AplicationPOT
Platform "1" - -> "1" RegistFreelancer : has >
Platform "1" - -> "1" RegistOrganization : has >
RegistOrganization "1" - -> "*" Organization : has >
CreatePayTransController ..> Organization
RegistFreelancer "1" - -> "*" Freelancer : has >
Organization "1" - -> "1" TaskList : has >
Organization "1" - -> "1" PaymentTransactionList : has >
PaymentTransactionList "1" - -> "*" PaymentTransaction : has >
CreatePayTransController ..> PaymentTransaction
TaskList "1" - -> "1" Task : has >
@enduml

PlantUML version 1.2020.09(Sun May 10 11:51:06 BST 2020)
(GPL source distribution)
Java Runtime: OpenJDK Runtime Environment
JVM: OpenJDK 64-Bit Server VM
Java Version: 11.0.7+10-b765.53
Operating System: Windows 10
Default Encoding: Cp1252
Language: pt
Country: PT
--></g></svg>