<?xml version="1.0" encoding="UTF-8" standalone="no"?><svg xmlns="http://www.w3.org/2000/svg" xmlns:xlink="http://www.w3.org/1999/xlink" contentScriptType="application/ecmascript" contentStyleType="text/css" height="1112px" preserveAspectRatio="none" style="width:852px;height:1112px;" version="1.1" viewBox="0 0 852 1112" width="852px" zoomAndPan="magnify"><defs><filter height="300%" id="fywoatr8m6a25" width="300%" x="-1" y="-1"><feGaussianBlur result="blurOut" stdDeviation="2.0"/><feColorMatrix in="blurOut" result="blurOut2" type="matrix" values="0 0 0 0 0 0 0 0 0 0 0 0 0 0 0 0 0 0 .4 0"/><feOffset dx="4.0" dy="4.0" in="blurOut2" result="blurOut3"/><feBlend in="SourceGraphic" in2="blurOut3" mode="normal"/></filter></defs><g><!--MD5=[99b8db98afdc2c8404e39242ef4c1e65]
class Platform--><rect fill="#FEFECE" filter="url(#fywoatr8m6a25)" height="61.8359" id="Platform" style="stroke: #A80036; stroke-width: 1.5;" width="112" x="540" y="8"/><ellipse cx="570.3" cy="24" fill="#ADD1B2" rx="11" ry="11" style="stroke: #A80036; stroke-width: 1.0;"/><path d="M572.3,20.5 Q572.5031,20 572.7375,19.75 Q572.9719,19.5 573.2375,19.5 Q573.7063,19.5 574.0031,19.7813 Q574.3,20.0625 574.3,20.7188 L574.3,22.2813 Q574.3,22.9375 574.0188,23.2188 Q573.7375,23.5 573.3,23.5 Q572.9094,23.5 572.6594,23.3281 Q572.4094,23.1563 572.3,22.7031 Q572.2531,22.3906 572.0813,22.2188 Q571.7688,21.8906 571.2063,21.7031 Q570.6438,21.5 570.0813,21.5 Q569.3781,21.5 568.7844,21.7813 Q568.2063,22.0625 567.7531,22.6875 Q567.3,23.3125 567.3,24.1719 L567.3,25.0938 Q567.3,26.125 568.1438,26.8125 Q568.9875,27.5 570.4875,27.5 Q571.3781,27.5 572.0031,27.2969 Q572.3625,27.1875 572.7688,26.8281 Q573.0344,26.625 573.175,26.5625 Q573.3156,26.5 573.4875,26.5 Q573.8156,26.5 574.05,26.7656 Q574.3,27.0156 574.3,27.375 Q574.3,27.7188 573.9563,28.125 Q573.4563,28.7188 572.6594,29.0469 Q571.6125,29.5 570.3313,29.5 Q568.8313,29.5 567.6281,28.9063 Q566.6594,28.4375 565.9719,27.4219 Q565.3,26.4063 565.3,25.2031 L565.3,24.1094 Q565.3,22.8594 565.8938,21.7656 Q566.5031,20.6719 567.55,20.0938 Q568.6125,19.5 569.8,19.5 Q570.5188,19.5 571.1438,19.75 Q571.7688,20 572.3,20.5 Z "/><text fill="#000000" font-family="sans-serif" font-size="12" lengthAdjust="spacingAndGlyphs" textLength="46" x="587.7" y="28.9102">Platform</text><line style="stroke: #A80036; stroke-width: 1.5;" x1="541" x2="651" y1="40" y2="40"/><rect fill="none" height="6" style="stroke: #C82930; stroke-width: 1.0;" width="6" x="548" y="48"/><text fill="#000000" font-family="sans-serif" font-size="11" lengthAdjust="spacingAndGlyphs" textLength="86" x="560" y="55.4189">String designation</text><line style="stroke: #A80036; stroke-width: 1.5;" x1="541" x2="651" y1="61.8359" y2="61.8359"/><!--MD5=[86c7c362de55a38b660185a1328fe18d]
class Organization--><rect fill="#FEFECE" filter="url(#fywoatr8m6a25)" height="103.3438" id="Organization" style="stroke: #A80036; stroke-width: 1.5;" width="144" x="222" y="148"/><ellipse cx="256.35" cy="164" fill="#ADD1B2" rx="11" ry="11" style="stroke: #A80036; stroke-width: 1.0;"/><path d="M258.35,160.5 Q258.5531,160 258.7875,159.75 Q259.0219,159.5 259.2875,159.5 Q259.7563,159.5 260.0531,159.7813 Q260.35,160.0625 260.35,160.7188 L260.35,162.2813 Q260.35,162.9375 260.0688,163.2188 Q259.7875,163.5 259.35,163.5 Q258.9594,163.5 258.7094,163.3281 Q258.4594,163.1563 258.35,162.7031 Q258.3031,162.3906 258.1313,162.2188 Q257.8188,161.8906 257.2563,161.7031 Q256.6938,161.5 256.1313,161.5 Q255.4281,161.5 254.8344,161.7813 Q254.2563,162.0625 253.8031,162.6875 Q253.35,163.3125 253.35,164.1719 L253.35,165.0938 Q253.35,166.125 254.1938,166.8125 Q255.0375,167.5 256.5375,167.5 Q257.4281,167.5 258.0531,167.2969 Q258.4125,167.1875 258.8188,166.8281 Q259.0844,166.625 259.225,166.5625 Q259.3656,166.5 259.5375,166.5 Q259.8656,166.5 260.1,166.7656 Q260.35,167.0156 260.35,167.375 Q260.35,167.7188 260.0063,168.125 Q259.5063,168.7188 258.7094,169.0469 Q257.6625,169.5 256.3813,169.5 Q254.8813,169.5 253.6781,168.9063 Q252.7094,168.4375 252.0219,167.4219 Q251.35,166.4063 251.35,165.2031 L251.35,164.1094 Q251.35,162.8594 251.9438,161.7656 Q252.5531,160.6719 253.6,160.0938 Q254.6625,159.5 255.85,159.5 Q256.5688,159.5 257.1938,159.75 Q257.8188,160 258.35,160.5 Z "/><text fill="#000000" font-family="sans-serif" font-size="12" lengthAdjust="spacingAndGlyphs" textLength="69" x="274.65" y="168.9102">Organization</text><line style="stroke: #A80036; stroke-width: 1.5;" x1="223" x2="365" y1="180" y2="180"/><rect fill="none" height="6" style="stroke: #C82930; stroke-width: 1.0;" width="6" x="230" y="188"/><text fill="#000000" font-family="sans-serif" font-size="11" lengthAdjust="spacingAndGlyphs" textLength="57" x="242" y="195.4189">String name</text><rect fill="none" height="6" style="stroke: #C82930; stroke-width: 1.0;" width="6" x="230" y="201.8359"/><text fill="#000000" font-family="sans-serif" font-size="11" lengthAdjust="spacingAndGlyphs" textLength="46" x="242" y="209.2549">String NIF</text><rect fill="none" height="6" style="stroke: #C82930; stroke-width: 1.0;" width="6" x="230" y="215.6719"/><text fill="#000000" font-family="sans-serif" font-size="11" lengthAdjust="spacingAndGlyphs" textLength="118" x="242" y="223.0908">Collaborator collaborator</text><rect fill="none" height="6" style="stroke: #C82930; stroke-width: 1.0;" width="6" x="230" y="229.5078"/><text fill="#000000" font-family="sans-serif" font-size="11" lengthAdjust="spacingAndGlyphs" textLength="87" x="242" y="236.9268">Manager manager</text><line style="stroke: #A80036; stroke-width: 1.5;" x1="223" x2="365" y1="243.3438" y2="243.3438"/><!--MD5=[3fd616f346a44cd59a91eb10b19e157c]
class User--><rect fill="#FEFECE" filter="url(#fywoatr8m6a25)" height="89.5078" id="User" style="stroke: #A80036; stroke-width: 1.5;" width="107" x="566.5" y="544.5"/><ellipse cx="603.1" cy="560.5" fill="#ADD1B2" rx="11" ry="11" style="stroke: #A80036; stroke-width: 1.0;"/><path d="M605.1,557 Q605.3031,556.5 605.5375,556.25 Q605.7719,556 606.0375,556 Q606.5063,556 606.8031,556.2813 Q607.1,556.5625 607.1,557.2188 L607.1,558.7813 Q607.1,559.4375 606.8188,559.7188 Q606.5375,560 606.1,560 Q605.7094,560 605.4594,559.8281 Q605.2094,559.6563 605.1,559.2031 Q605.0531,558.8906 604.8813,558.7188 Q604.5688,558.3906 604.0063,558.2031 Q603.4438,558 602.8813,558 Q602.1781,558 601.5844,558.2813 Q601.0063,558.5625 600.5531,559.1875 Q600.1,559.8125 600.1,560.6719 L600.1,561.5938 Q600.1,562.625 600.9438,563.3125 Q601.7875,564 603.2875,564 Q604.1781,564 604.8031,563.7969 Q605.1625,563.6875 605.5688,563.3281 Q605.8344,563.125 605.975,563.0625 Q606.1156,563 606.2875,563 Q606.6156,563 606.85,563.2656 Q607.1,563.5156 607.1,563.875 Q607.1,564.2188 606.7563,564.625 Q606.2563,565.2188 605.4594,565.5469 Q604.4125,566 603.1313,566 Q601.6313,566 600.4281,565.4063 Q599.4594,564.9375 598.7719,563.9219 Q598.1,562.9063 598.1,561.7031 L598.1,560.6094 Q598.1,559.3594 598.6938,558.2656 Q599.3031,557.1719 600.35,556.5938 Q601.4125,556 602.6,556 Q603.3188,556 603.9438,556.25 Q604.5688,556.5 605.1,557 Z "/><text fill="#000000" font-family="sans-serif" font-size="12" lengthAdjust="spacingAndGlyphs" textLength="27" x="621.9" y="565.4102">User</text><line style="stroke: #A80036; stroke-width: 1.5;" x1="567.5" x2="672.5" y1="576.5" y2="576.5"/><rect fill="none" height="6" style="stroke: #C82930; stroke-width: 1.0;" width="6" x="574.5" y="584.5"/><text fill="#000000" font-family="sans-serif" font-size="11" lengthAdjust="spacingAndGlyphs" textLength="57" x="586.5" y="591.9189">String nome</text><rect fill="none" height="6" style="stroke: #C82930; stroke-width: 1.0;" width="6" x="574.5" y="598.3359"/><text fill="#000000" font-family="sans-serif" font-size="11" lengthAdjust="spacingAndGlyphs" textLength="55" x="586.5" y="605.7549">String email</text><rect fill="none" height="6" style="stroke: #C82930; stroke-width: 1.0;" width="6" x="574.5" y="612.1719"/><text fill="#000000" font-family="sans-serif" font-size="11" lengthAdjust="spacingAndGlyphs" textLength="81" x="586.5" y="619.5908">String password</text><line style="stroke: #A80036; stroke-width: 1.5;" x1="567.5" x2="672.5" y1="626.0078" y2="626.0078"/><!--MD5=[f483d6e5de34a60207b28a5563be5e8b]
class Collaborator--><rect fill="#FEFECE" filter="url(#fywoatr8m6a25)" height="103.3438" id="Collaborator" style="stroke: #A80036; stroke-width: 1.5;" width="107" x="209.5" y="329"/><ellipse cx="227.65" cy="345" fill="#ADD1B2" rx="11" ry="11" style="stroke: #A80036; stroke-width: 1.0;"/><path d="M229.65,341.5 Q229.8531,341 230.0875,340.75 Q230.3219,340.5 230.5875,340.5 Q231.0563,340.5 231.3531,340.7813 Q231.65,341.0625 231.65,341.7188 L231.65,343.2813 Q231.65,343.9375 231.3688,344.2188 Q231.0875,344.5 230.65,344.5 Q230.2594,344.5 230.0094,344.3281 Q229.7594,344.1563 229.65,343.7031 Q229.6031,343.3906 229.4313,343.2188 Q229.1188,342.8906 228.5563,342.7031 Q227.9938,342.5 227.4313,342.5 Q226.7281,342.5 226.1344,342.7813 Q225.5563,343.0625 225.1031,343.6875 Q224.65,344.3125 224.65,345.1719 L224.65,346.0938 Q224.65,347.125 225.4938,347.8125 Q226.3375,348.5 227.8375,348.5 Q228.7281,348.5 229.3531,348.2969 Q229.7125,348.1875 230.1188,347.8281 Q230.3844,347.625 230.525,347.5625 Q230.6656,347.5 230.8375,347.5 Q231.1656,347.5 231.4,347.7656 Q231.65,348.0156 231.65,348.375 Q231.65,348.7188 231.3063,349.125 Q230.8063,349.7188 230.0094,350.0469 Q228.9625,350.5 227.6813,350.5 Q226.1813,350.5 224.9781,349.9063 Q224.0094,349.4375 223.3219,348.4219 Q222.65,347.4063 222.65,346.2031 L222.65,345.1094 Q222.65,343.8594 223.2438,342.7656 Q223.8531,341.6719 224.9,341.0938 Q225.9625,340.5 227.15,340.5 Q227.8688,340.5 228.4938,340.75 Q229.1188,341 229.65,341.5 Z "/><text fill="#000000" font-family="sans-serif" font-size="12" lengthAdjust="spacingAndGlyphs" textLength="68" x="242.35" y="349.9102">Collaborator</text><line style="stroke: #A80036; stroke-width: 1.5;" x1="210.5" x2="315.5" y1="361" y2="361"/><rect fill="none" height="6" style="stroke: #C82930; stroke-width: 1.0;" width="6" x="217.5" y="369"/><text fill="#000000" font-family="sans-serif" font-size="11" lengthAdjust="spacingAndGlyphs" textLength="57" x="229.5" y="376.4189">String name</text><rect fill="none" height="6" style="stroke: #C82930; stroke-width: 1.0;" width="6" x="217.5" y="382.8359"/><text fill="#000000" font-family="sans-serif" font-size="11" lengthAdjust="spacingAndGlyphs" textLength="55" x="229.5" y="390.2549">String email</text><rect fill="none" height="6" style="stroke: #C82930; stroke-width: 1.0;" width="6" x="217.5" y="396.6719"/><text fill="#000000" font-family="sans-serif" font-size="11" lengthAdjust="spacingAndGlyphs" textLength="81" x="229.5" y="404.0908">String password</text><rect fill="none" height="6" style="stroke: #C82930; stroke-width: 1.0;" width="6" x="217.5" y="410.5078"/><text fill="#000000" font-family="sans-serif" font-size="11" lengthAdjust="spacingAndGlyphs" textLength="48" x="229.5" y="417.9268">User user</text><line style="stroke: #A80036; stroke-width: 1.5;" x1="210.5" x2="315.5" y1="424.3438" y2="424.3438"/><!--MD5=[1f687b5315377fe49fca59b457947463]
class Freelancer--><rect fill="#FEFECE" filter="url(#fywoatr8m6a25)" height="158.6875" id="Freelancer" style="stroke: #A80036; stroke-width: 1.5;" width="145" x="418.5" y="747"/><ellipse cx="457.8" cy="763" fill="#ADD1B2" rx="11" ry="11" style="stroke: #A80036; stroke-width: 1.0;"/><path d="M459.8,759.5 Q460.0031,759 460.2375,758.75 Q460.4719,758.5 460.7375,758.5 Q461.2063,758.5 461.5031,758.7813 Q461.8,759.0625 461.8,759.7188 L461.8,761.2813 Q461.8,761.9375 461.5188,762.2188 Q461.2375,762.5 460.8,762.5 Q460.4094,762.5 460.1594,762.3281 Q459.9094,762.1563 459.8,761.7031 Q459.7531,761.3906 459.5813,761.2188 Q459.2688,760.8906 458.7063,760.7031 Q458.1438,760.5 457.5813,760.5 Q456.8781,760.5 456.2844,760.7813 Q455.7063,761.0625 455.2531,761.6875 Q454.8,762.3125 454.8,763.1719 L454.8,764.0938 Q454.8,765.125 455.6438,765.8125 Q456.4875,766.5 457.9875,766.5 Q458.8781,766.5 459.5031,766.2969 Q459.8625,766.1875 460.2688,765.8281 Q460.5344,765.625 460.675,765.5625 Q460.8156,765.5 460.9875,765.5 Q461.3156,765.5 461.55,765.7656 Q461.8,766.0156 461.8,766.375 Q461.8,766.7188 461.4563,767.125 Q460.9563,767.7188 460.1594,768.0469 Q459.1125,768.5 457.8313,768.5 Q456.3313,768.5 455.1281,767.9063 Q454.1594,767.4375 453.4719,766.4219 Q452.8,765.4063 452.8,764.2031 L452.8,763.1094 Q452.8,761.8594 453.3938,760.7656 Q454.0031,759.6719 455.05,759.0938 Q456.1125,758.5 457.3,758.5 Q458.0188,758.5 458.6438,758.75 Q459.2688,759 459.8,759.5 Z "/><text fill="#000000" font-family="sans-serif" font-size="12" lengthAdjust="spacingAndGlyphs" textLength="59" x="477.2" y="767.9102">Freelancer</text><line style="stroke: #A80036; stroke-width: 1.5;" x1="419.5" x2="562.5" y1="779" y2="779"/><rect fill="none" height="6" style="stroke: #C82930; stroke-width: 1.0;" width="6" x="426.5" y="787"/><text fill="#000000" font-family="sans-serif" font-size="11" lengthAdjust="spacingAndGlyphs" textLength="39" x="438.5" y="794.4189">String id</text><rect fill="none" height="6" style="stroke: #C82930; stroke-width: 1.0;" width="6" x="426.5" y="800.8359"/><text fill="#000000" font-family="sans-serif" font-size="11" lengthAdjust="spacingAndGlyphs" textLength="57" x="438.5" y="808.2549">String name</text><rect fill="none" height="6" style="stroke: #C82930; stroke-width: 1.0;" width="6" x="426.5" y="814.6719"/><text fill="#000000" font-family="sans-serif" font-size="11" lengthAdjust="spacingAndGlyphs" textLength="110" x="438.5" y="822.0908">String levelOfExpertise</text><rect fill="none" height="6" style="stroke: #C82930; stroke-width: 1.0;" width="6" x="426.5" y="828.5078"/><text fill="#000000" font-family="sans-serif" font-size="11" lengthAdjust="spacingAndGlyphs" textLength="55" x="438.5" y="835.9268">String email</text><rect fill="none" height="6" style="stroke: #C82930; stroke-width: 1.0;" width="6" x="426.5" y="842.3438"/><text fill="#000000" font-family="sans-serif" font-size="11" lengthAdjust="spacingAndGlyphs" textLength="46" x="438.5" y="849.7627">String NIF</text><rect fill="none" height="6" style="stroke: #C82930; stroke-width: 1.0;" width="6" x="426.5" y="856.1797"/><text fill="#000000" font-family="sans-serif" font-size="11" lengthAdjust="spacingAndGlyphs" textLength="119" x="438.5" y="863.5986">String bankAccountIBAN</text><rect fill="none" height="6" style="stroke: #C82930; stroke-width: 1.0;" width="6" x="426.5" y="870.0156"/><text fill="#000000" font-family="sans-serif" font-size="11" lengthAdjust="spacingAndGlyphs" textLength="71" x="438.5" y="877.4346">String address</text><rect fill="none" height="6" style="stroke: #C82930; stroke-width: 1.0;" width="6" x="426.5" y="883.8516"/><text fill="#000000" font-family="sans-serif" font-size="11" lengthAdjust="spacingAndGlyphs" textLength="68" x="438.5" y="891.2705">String country</text><line style="stroke: #A80036; stroke-width: 1.5;" x1="419.5" x2="562.5" y1="897.6875" y2="897.6875"/><!--MD5=[b24ed8d4ae84bae9290d9aab401637c7]
class Manager--><rect fill="#FEFECE" filter="url(#fywoatr8m6a25)" height="103.3438" id="Manager" style="stroke: #A80036; stroke-width: 1.5;" width="107" x="461.5" y="329"/><ellipse cx="488.65" cy="345" fill="#ADD1B2" rx="11" ry="11" style="stroke: #A80036; stroke-width: 1.0;"/><path d="M490.65,341.5 Q490.8531,341 491.0875,340.75 Q491.3219,340.5 491.5875,340.5 Q492.0563,340.5 492.3531,340.7813 Q492.65,341.0625 492.65,341.7188 L492.65,343.2813 Q492.65,343.9375 492.3688,344.2188 Q492.0875,344.5 491.65,344.5 Q491.2594,344.5 491.0094,344.3281 Q490.7594,344.1563 490.65,343.7031 Q490.6031,343.3906 490.4313,343.2188 Q490.1188,342.8906 489.5563,342.7031 Q488.9938,342.5 488.4313,342.5 Q487.7281,342.5 487.1344,342.7813 Q486.5563,343.0625 486.1031,343.6875 Q485.65,344.3125 485.65,345.1719 L485.65,346.0938 Q485.65,347.125 486.4938,347.8125 Q487.3375,348.5 488.8375,348.5 Q489.7281,348.5 490.3531,348.2969 Q490.7125,348.1875 491.1188,347.8281 Q491.3844,347.625 491.525,347.5625 Q491.6656,347.5 491.8375,347.5 Q492.1656,347.5 492.4,347.7656 Q492.65,348.0156 492.65,348.375 Q492.65,348.7188 492.3063,349.125 Q491.8063,349.7188 491.0094,350.0469 Q489.9625,350.5 488.6813,350.5 Q487.1813,350.5 485.9781,349.9063 Q485.0094,349.4375 484.3219,348.4219 Q483.65,347.4063 483.65,346.2031 L483.65,345.1094 Q483.65,343.8594 484.2438,342.7656 Q484.8531,341.6719 485.9,341.0938 Q486.9625,340.5 488.15,340.5 Q488.8688,340.5 489.4938,340.75 Q490.1188,341 490.65,341.5 Z "/><text fill="#000000" font-family="sans-serif" font-size="12" lengthAdjust="spacingAndGlyphs" textLength="48" x="505.35" y="349.9102">Manager</text><line style="stroke: #A80036; stroke-width: 1.5;" x1="462.5" x2="567.5" y1="361" y2="361"/><rect fill="none" height="6" style="stroke: #C82930; stroke-width: 1.0;" width="6" x="469.5" y="369"/><text fill="#000000" font-family="sans-serif" font-size="11" lengthAdjust="spacingAndGlyphs" textLength="57" x="481.5" y="376.4189">String name</text><rect fill="none" height="6" style="stroke: #C82930; stroke-width: 1.0;" width="6" x="469.5" y="382.8359"/><text fill="#000000" font-family="sans-serif" font-size="11" lengthAdjust="spacingAndGlyphs" textLength="55" x="481.5" y="390.2549">String email</text><rect fill="none" height="6" style="stroke: #C82930; stroke-width: 1.0;" width="6" x="469.5" y="396.6719"/><text fill="#000000" font-family="sans-serif" font-size="11" lengthAdjust="spacingAndGlyphs" textLength="81" x="481.5" y="404.0908">String password</text><rect fill="none" height="6" style="stroke: #C82930; stroke-width: 1.0;" width="6" x="469.5" y="410.5078"/><text fill="#000000" font-family="sans-serif" font-size="11" lengthAdjust="spacingAndGlyphs" textLength="48" x="481.5" y="417.9268">User user</text><line style="stroke: #A80036; stroke-width: 1.5;" x1="462.5" x2="567.5" y1="424.3438" y2="424.3438"/><!--MD5=[b645a18afb25b7e5623af7186d8eb36f]
class PaymentTransaction--><rect fill="#FEFECE" filter="url(#fywoatr8m6a25)" height="158.6875" id="PaymentTransaction" style="stroke: #A80036; stroke-width: 1.5;" width="151" x="319.5" y="510"/><ellipse cx="337.2" cy="526" fill="#ADD1B2" rx="11" ry="11" style="stroke: #A80036; stroke-width: 1.0;"/><path d="M339.2,522.5 Q339.4031,522 339.6375,521.75 Q339.8719,521.5 340.1375,521.5 Q340.6063,521.5 340.9031,521.7813 Q341.2,522.0625 341.2,522.7188 L341.2,524.2813 Q341.2,524.9375 340.9188,525.2188 Q340.6375,525.5 340.2,525.5 Q339.8094,525.5 339.5594,525.3281 Q339.3094,525.1563 339.2,524.7031 Q339.1531,524.3906 338.9813,524.2188 Q338.6688,523.8906 338.1063,523.7031 Q337.5438,523.5 336.9813,523.5 Q336.2781,523.5 335.6844,523.7813 Q335.1063,524.0625 334.6531,524.6875 Q334.2,525.3125 334.2,526.1719 L334.2,527.0938 Q334.2,528.125 335.0438,528.8125 Q335.8875,529.5 337.3875,529.5 Q338.2781,529.5 338.9031,529.2969 Q339.2625,529.1875 339.6688,528.8281 Q339.9344,528.625 340.075,528.5625 Q340.2156,528.5 340.3875,528.5 Q340.7156,528.5 340.95,528.7656 Q341.2,529.0156 341.2,529.375 Q341.2,529.7188 340.8563,530.125 Q340.3563,530.7188 339.5594,531.0469 Q338.5125,531.5 337.2313,531.5 Q335.7313,531.5 334.5281,530.9063 Q333.5594,530.4375 332.8719,529.4219 Q332.2,528.4063 332.2,527.2031 L332.2,526.1094 Q332.2,524.8594 332.7938,523.7656 Q333.4031,522.6719 334.45,522.0938 Q335.5125,521.5 336.7,521.5 Q337.4188,521.5 338.0438,521.75 Q338.6688,522 339.2,522.5 Z "/><text fill="#000000" font-family="sans-serif" font-size="12" lengthAdjust="spacingAndGlyphs" textLength="113" x="351.8" y="530.9102">PaymentTransaction</text><line style="stroke: #A80036; stroke-width: 1.5;" x1="320.5" x2="469.5" y1="542" y2="542"/><rect fill="none" height="6" style="stroke: #C82930; stroke-width: 1.0;" width="6" x="327.5" y="550"/><text fill="#000000" font-family="sans-serif" font-size="11" lengthAdjust="spacingAndGlyphs" textLength="64" x="339.5" y="557.4189">String transId</text><rect fill="none" height="6" style="stroke: #C82930; stroke-width: 1.0;" width="6" x="327.5" y="563.8359"/><text fill="#000000" font-family="sans-serif" font-size="11" lengthAdjust="spacingAndGlyphs" textLength="65" x="339.5" y="571.2549">Date endDate</text><rect fill="none" height="6" style="stroke: #C82930; stroke-width: 1.0;" width="6" x="327.5" y="577.6719"/><text fill="#000000" font-family="sans-serif" font-size="11" lengthAdjust="spacingAndGlyphs" textLength="61" x="339.5" y="585.0908">double delay</text><rect fill="none" height="6" style="stroke: #C82930; stroke-width: 1.0;" width="6" x="327.5" y="591.5078"/><text fill="#000000" font-family="sans-serif" font-size="11" lengthAdjust="spacingAndGlyphs" textLength="125" x="339.5" y="598.9268">String descQualityOfWork</text><rect fill="none" height="6" style="stroke: #C82930; stroke-width: 1.0;" width="6" x="327.5" y="605.3438"/><text fill="#000000" font-family="sans-serif" font-size="11" lengthAdjust="spacingAndGlyphs" textLength="88" x="339.5" y="612.7627">double amountPay</text><rect fill="none" height="6" style="stroke: #C82930; stroke-width: 1.0;" width="6" x="327.5" y="619.1797"/><text fill="#000000" font-family="sans-serif" font-size="11" lengthAdjust="spacingAndGlyphs" textLength="105" x="339.5" y="626.5986">Freelancer freelancer</text><rect fill="none" height="6" style="stroke: #C82930; stroke-width: 1.0;" width="6" x="327.5" y="633.0156"/><text fill="#000000" font-family="sans-serif" font-size="11" lengthAdjust="spacingAndGlyphs" textLength="46" x="339.5" y="640.4346">Task task</text><rect fill="none" height="6" style="stroke: #C82930; stroke-width: 1.0;" width="6" x="327.5" y="646.8516"/><text fill="#000000" font-family="sans-serif" font-size="11" lengthAdjust="spacingAndGlyphs" textLength="76" x="339.5" y="654.2705">Date dateToPay</text><line style="stroke: #A80036; stroke-width: 1.5;" x1="320.5" x2="469.5" y1="660.6875" y2="660.6875"/><!--MD5=[b34797a66dc35cbf1d65f7e3ca75530e]
class Task--><rect fill="#FEFECE" filter="url(#fywoatr8m6a25)" height="117.1797" id="Task" style="stroke: #A80036; stroke-width: 1.5;" width="121" x="144.5" y="984"/><ellipse cx="187.4" cy="1000" fill="#ADD1B2" rx="11" ry="11" style="stroke: #A80036; stroke-width: 1.0;"/><path d="M189.4,996.5 Q189.6031,996 189.8375,995.75 Q190.0719,995.5 190.3375,995.5 Q190.8063,995.5 191.1031,995.7813 Q191.4,996.0625 191.4,996.7188 L191.4,998.2813 Q191.4,998.9375 191.1188,999.2188 Q190.8375,999.5 190.4,999.5 Q190.0094,999.5 189.7594,999.3281 Q189.5094,999.1563 189.4,998.7031 Q189.3531,998.3906 189.1813,998.2188 Q188.8688,997.8906 188.3063,997.7031 Q187.7438,997.5 187.1813,997.5 Q186.4781,997.5 185.8844,997.7813 Q185.3063,998.0625 184.8531,998.6875 Q184.4,999.3125 184.4,1000.1719 L184.4,1001.0938 Q184.4,1002.125 185.2438,1002.8125 Q186.0875,1003.5 187.5875,1003.5 Q188.4781,1003.5 189.1031,1003.2969 Q189.4625,1003.1875 189.8688,1002.8281 Q190.1344,1002.625 190.275,1002.5625 Q190.4156,1002.5 190.5875,1002.5 Q190.9156,1002.5 191.15,1002.7656 Q191.4,1003.0156 191.4,1003.375 Q191.4,1003.7188 191.0563,1004.125 Q190.5563,1004.7188 189.7594,1005.0469 Q188.7125,1005.5 187.4313,1005.5 Q185.9313,1005.5 184.7281,1004.9063 Q183.7594,1004.4375 183.0719,1003.4219 Q182.4,1002.4063 182.4,1001.2031 L182.4,1000.1094 Q182.4,998.8594 182.9938,997.7656 Q183.6031,996.6719 184.65,996.0938 Q185.7125,995.5 186.9,995.5 Q187.6188,995.5 188.2438,995.75 Q188.8688,996 189.4,996.5 Z "/><text fill="#000000" font-family="sans-serif" font-size="12" lengthAdjust="spacingAndGlyphs" textLength="27" x="207.6" y="1004.9102">Task</text><line style="stroke: #A80036; stroke-width: 1.5;" x1="145.5" x2="264.5" y1="1016" y2="1016"/><rect fill="none" height="6" style="stroke: #C82930; stroke-width: 1.0;" width="6" x="152.5" y="1024"/><text fill="#000000" font-family="sans-serif" font-size="11" lengthAdjust="spacingAndGlyphs" textLength="39" x="164.5" y="1031.4189">String id</text><rect fill="none" height="6" style="stroke: #C82930; stroke-width: 1.0;" width="6" x="152.5" y="1037.8359"/><text fill="#000000" font-family="sans-serif" font-size="11" lengthAdjust="spacingAndGlyphs" textLength="84" x="164.5" y="1045.2549">String description</text><rect fill="none" height="6" style="stroke: #C82930; stroke-width: 1.0;" width="6" x="152.5" y="1051.6719"/><text fill="#000000" font-family="sans-serif" font-size="11" lengthAdjust="spacingAndGlyphs" textLength="94" x="164.5" y="1059.0908">double timeDuration</text><rect fill="none" height="6" style="stroke: #C82930; stroke-width: 1.0;" width="6" x="152.5" y="1065.5078"/><text fill="#000000" font-family="sans-serif" font-size="11" lengthAdjust="spacingAndGlyphs" textLength="95" x="164.5" y="1072.9268">double costPerHour</text><rect fill="none" height="6" style="stroke: #C82930; stroke-width: 1.0;" width="6" x="152.5" y="1079.3438"/><text fill="#000000" font-family="sans-serif" font-size="11" lengthAdjust="spacingAndGlyphs" textLength="74" x="164.5" y="1086.7627">String category</text><line style="stroke: #A80036; stroke-width: 1.5;" x1="145.5" x2="264.5" y1="1093.1797" y2="1093.1797"/><!--MD5=[da547346deef918ea16944ba046651ef]
class Administrator--><rect fill="#FEFECE" filter="url(#fywoatr8m6a25)" height="48" id="Administrator" style="stroke: #A80036; stroke-width: 1.5;" width="105" x="543.5" y="175.5"/><ellipse cx="558.5" cy="191.5" fill="#ADD1B2" rx="11" ry="11" style="stroke: #A80036; stroke-width: 1.0;"/><path d="M560.5,188 Q560.7031,187.5 560.9375,187.25 Q561.1719,187 561.4375,187 Q561.9063,187 562.2031,187.2813 Q562.5,187.5625 562.5,188.2188 L562.5,189.7813 Q562.5,190.4375 562.2188,190.7188 Q561.9375,191 561.5,191 Q561.1094,191 560.8594,190.8281 Q560.6094,190.6563 560.5,190.2031 Q560.4531,189.8906 560.2813,189.7188 Q559.9688,189.3906 559.4063,189.2031 Q558.8438,189 558.2813,189 Q557.5781,189 556.9844,189.2813 Q556.4063,189.5625 555.9531,190.1875 Q555.5,190.8125 555.5,191.6719 L555.5,192.5938 Q555.5,193.625 556.3438,194.3125 Q557.1875,195 558.6875,195 Q559.5781,195 560.2031,194.7969 Q560.5625,194.6875 560.9688,194.3281 Q561.2344,194.125 561.375,194.0625 Q561.5156,194 561.6875,194 Q562.0156,194 562.25,194.2656 Q562.5,194.5156 562.5,194.875 Q562.5,195.2188 562.1563,195.625 Q561.6563,196.2188 560.8594,196.5469 Q559.8125,197 558.5313,197 Q557.0313,197 555.8281,196.4063 Q554.8594,195.9375 554.1719,194.9219 Q553.5,193.9063 553.5,192.7031 L553.5,191.6094 Q553.5,190.3594 554.0938,189.2656 Q554.7031,188.1719 555.75,187.5938 Q556.8125,187 558,187 Q558.7188,187 559.3438,187.25 Q559.9688,187.5 560.5,188 Z "/><text fill="#000000" font-family="sans-serif" font-size="12" lengthAdjust="spacingAndGlyphs" textLength="73" x="572.5" y="196.4102">Administrator</text><line style="stroke: #A80036; stroke-width: 1.5;" x1="544.5" x2="647.5" y1="207.5" y2="207.5"/><line style="stroke: #A80036; stroke-width: 1.5;" x1="544.5" x2="647.5" y1="215.5" y2="215.5"/><!--MD5=[22697d4d863c2e08ab1d60ca0d61f844]
link Platform to Freelancer--><path d="M652.053,53.85 C717.527,73.78 817,117.407 817,198.5 C817,198.5 817,198.5 817,590.5 C817,714.515 659.835,779.608 563.755,807.814 " fill="none" id="Platform-Freelancer" style="stroke: #A80036; stroke-width: 1.0;"/><text fill="#000000" font-family="sans-serif" font-size="13" lengthAdjust="spacingAndGlyphs" textLength="21" x="818" y="385.9951">has</text><polygon fill="#000000" points="824,394.8516,827,400.8516,830,394.8516,824,394.8516" style="stroke: #000000; stroke-width: 1.0;"/><text fill="#000000" font-family="sans-serif" font-size="13" lengthAdjust="spacingAndGlyphs" textLength="7" x="660.0554" y="52.3002">1</text><text fill="#000000" font-family="sans-serif" font-size="13" lengthAdjust="spacingAndGlyphs" textLength="5" x="571.5157" y="802.5914">*</text><!--MD5=[7640e466c042ba2d6f9c19c816f7f0fc]
link Platform to Organization--><path d="M539.904,69.44 C490.863,95.18 419.361,132.706 366.087,160.666 " fill="none" id="Platform-Organization" style="stroke: #A80036; stroke-width: 1.0;"/><polygon fill="#000000" points="489,107.6758,483,110.6758,489,113.6758,489,107.6758" style="stroke: #000000; stroke-width: 1.0;"/><text fill="#000000" font-family="sans-serif" font-size="13" lengthAdjust="spacingAndGlyphs" textLength="71" x="495" y="114.4951">has registed</text><text fill="#000000" font-family="sans-serif" font-size="13" lengthAdjust="spacingAndGlyphs" textLength="7" x="524.8958" y="69.9851">1</text><text fill="#000000" font-family="sans-serif" font-size="13" lengthAdjust="spacingAndGlyphs" textLength="5" x="373.7788" y="153.3318">*</text><!--MD5=[0f7004bed4496639b3a5258ab2ead378]
link Platform to Administrator--><path d="M596,70.19 C596,100.72 596,147.288 596,175.126 " fill="none" id="Platform-Administrator" style="stroke: #A80036; stroke-width: 1.0;"/><text fill="#000000" font-family="sans-serif" font-size="13" lengthAdjust="spacingAndGlyphs" textLength="21" x="597" y="114.4951">has</text><polygon fill="#000000" points="603,123.3516,606,129.3516,609,123.3516,603,123.3516" style="stroke: #000000; stroke-width: 1.0;"/><text fill="#000000" font-family="sans-serif" font-size="13" lengthAdjust="spacingAndGlyphs" textLength="7" x="588.3109" y="91.4514">1</text><text fill="#000000" font-family="sans-serif" font-size="13" lengthAdjust="spacingAndGlyphs" textLength="5" x="590.3906" y="164.7728">*</text><!--MD5=[edc107c0a572352bcd12c9afaba4390b]
link Administrator to User--><path d="M607.929,223.534 C631.122,271.136 678.544,383.943 661,480 C657.002,501.889 648.817,525.097 640.804,544.407 " fill="none" id="Administrator-User" style="stroke: #A80036; stroke-width: 1.0;"/><text fill="#000000" font-family="sans-serif" font-size="13" lengthAdjust="spacingAndGlyphs" textLength="25" x="666" y="385.9951">acts</text><polygon fill="#000000" points="674,394.8516,677,400.8516,680,394.8516,674,394.8516" style="stroke: #000000; stroke-width: 1.0;"/><text fill="#000000" font-family="sans-serif" font-size="13" lengthAdjust="spacingAndGlyphs" textLength="7" x="602.9836" y="244.8803">1</text><text fill="#000000" font-family="sans-serif" font-size="13" lengthAdjust="spacingAndGlyphs" textLength="7" x="636.5618" y="533.5077">1</text><!--MD5=[45817597bcd7048073a670d966abfd17]
link Organization to Collaborator--><path d="M285.2,251.315 C280.993,275.605 275.971,304.602 271.769,328.868 " fill="none" id="Organization-Collaborator" style="stroke: #A80036; stroke-width: 1.0;"/><text fill="#000000" font-family="sans-serif" font-size="13" lengthAdjust="spacingAndGlyphs" textLength="75" x="281" y="295.4951">has manager</text><polygon fill="#000000" points="314,304.3516,317,310.3516,320,304.3516,314,304.3516" style="stroke: #000000; stroke-width: 1.0;"/><text fill="#000000" font-family="sans-serif" font-size="13" lengthAdjust="spacingAndGlyphs" textLength="7" x="276.5472" y="272.8483">1</text><text fill="#000000" font-family="sans-serif" font-size="13" lengthAdjust="spacingAndGlyphs" textLength="7" x="265.51" y="317.9779">1</text><!--MD5=[45817597bcd7048073a670d966abfd17]
link Organization to Collaborator--><path d="M249.007,251.001 C242.846,260.409 237.457,270.577 234,281 C228.865,296.482 231.106,313.48 236.105,328.933 " fill="none" id="Organization-Collaborator-1" style="stroke: #A80036; stroke-width: 1.0;"/><text fill="#000000" font-family="sans-serif" font-size="13" lengthAdjust="spacingAndGlyphs" textLength="21" x="235" y="295.4951">has</text><polygon fill="#000000" points="241,304.3516,244,310.3516,247,304.3516,241,304.3516" style="stroke: #000000; stroke-width: 1.0;"/><text fill="#000000" font-family="sans-serif" font-size="13" lengthAdjust="spacingAndGlyphs" textLength="7" x="235.1877" y="272.864">1</text><text fill="#000000" font-family="sans-serif" font-size="13" lengthAdjust="spacingAndGlyphs" textLength="20" x="210.9166" y="318.0521">1..*</text><!--MD5=[b4b6c1ff9c803d8207b36238c02005ea]
link Freelancer to Task--><path d="M418.368,890.285 C393.365,911.158 364.887,934.132 338,954 C314.882,971.083 288.597,988.727 265.534,1003.6566 " fill="none" id="Freelancer-Task" style="stroke: #A80036; stroke-width: 1.0;"/><polygon fill="#000000" points="368,943.6758,362,946.6758,368,949.6758,368,943.6758" style="stroke: #000000; stroke-width: 1.0;"/><text fill="#000000" font-family="sans-serif" font-size="13" lengthAdjust="spacingAndGlyphs" textLength="101" x="374" y="950.4951">finishes/executes</text><text fill="#000000" font-family="sans-serif" font-size="13" lengthAdjust="spacingAndGlyphs" textLength="7" x="403.5169" y="893.5672">1</text><text fill="#000000" font-family="sans-serif" font-size="13" lengthAdjust="spacingAndGlyphs" textLength="20" x="273.6895" y="995.7458">1..*</text><!--MD5=[f24cbd698439a42b2d62cde440643418]
link Task to PaymentTransaction--><path d="M229.281,983.865 C262.983,903.868 324.054,758.903 361.905,669.058 " fill="none" id="Task-PaymentTransaction" style="stroke: #A80036; stroke-width: 1.0;"/><polygon fill="#000000" points="353.5,828.5,356.5,822.5,359.5,828.5,353.5,828.5" style="stroke: #000000; stroke-width: 1.0;"/><text fill="#000000" font-family="sans-serif" font-size="13" lengthAdjust="spacingAndGlyphs" textLength="56" x="330" y="844.9951">is paid by</text><text fill="#000000" font-family="sans-serif" font-size="13" lengthAdjust="spacingAndGlyphs" textLength="7" x="224.8137" y="973.2495">1</text><text fill="#000000" font-family="sans-serif" font-size="13" lengthAdjust="spacingAndGlyphs" textLength="7" x="351.7601" y="690.1062">1</text><!--MD5=[f6802b286771c18a16ea4be983074371]
link PaymentTransaction to Freelancer--><path d="M427.1,669.078 C437.348,694.163 448.685,721.916 458.93,746.996 " fill="none" id="PaymentTransaction-Freelancer" style="stroke: #A80036; stroke-width: 1.0;"/><text fill="#000000" font-family="sans-serif" font-size="13" lengthAdjust="spacingAndGlyphs" textLength="43" x="447" y="713.4951">pays to</text><polygon fill="#000000" points="464,722.3516,467,728.3516,470,722.3516,464,722.3516" style="stroke: #000000; stroke-width: 1.0;"/><text fill="#000000" font-family="sans-serif" font-size="13" lengthAdjust="spacingAndGlyphs" textLength="7" x="422.5578" y="690.1279">1</text><text fill="#000000" font-family="sans-serif" font-size="13" lengthAdjust="spacingAndGlyphs" textLength="7" x="448.5397" y="736.1825">1</text><!--MD5=[c32d3c60a61e5638fef4971a1b3a8306]
link Collaborator to PaymentTransaction--><path d="M252.582,432.235 C251.593,448.182 253.013,465.42 260,480 C272.865,506.845 295.969,529.153 319.469,546.419 " fill="none" id="Collaborator-PaymentTransaction" style="stroke: #A80036; stroke-width: 1.0;"/><text fill="#000000" font-family="sans-serif" font-size="13" lengthAdjust="spacingAndGlyphs" textLength="43" x="261" y="476.4951">creates</text><polygon fill="#000000" points="278,485.3516,281,491.3516,284,485.3516,278,485.3516" style="stroke: #000000; stroke-width: 1.0;"/><text fill="#000000" font-family="sans-serif" font-size="13" lengthAdjust="spacingAndGlyphs" textLength="7" x="243.7118" y="453.7575">1</text><text fill="#000000" font-family="sans-serif" font-size="13" lengthAdjust="spacingAndGlyphs" textLength="20" x="291.5841" y="539.2357">1..*</text><!--MD5=[4078351e3988aa35b1504a42837f2ab1]
link Organization to Task--><path d="M221.697,212.879 C136.386,232.113 6,278.095 6,379.5 C6,379.5 6,379.5 6,827.5 C6,909.816 85.936,973.751 144.483,1009.5396 " fill="none" id="Organization-Task" style="stroke: #A80036; stroke-width: 1.0;"/><text fill="#000000" font-family="sans-serif" font-size="13" lengthAdjust="spacingAndGlyphs" textLength="21" x="7" y="594.9951">has</text><polygon fill="#000000" points="13,603.8516,16,609.8516,19,603.8516,13,603.8516" style="stroke: #000000; stroke-width: 1.0;"/><text fill="#000000" font-family="sans-serif" font-size="13" lengthAdjust="spacingAndGlyphs" textLength="7" x="206.8798" y="210.9292">1</text><text fill="#000000" font-family="sans-serif" font-size="13" lengthAdjust="spacingAndGlyphs" textLength="5" x="131.4089" y="1001.7981">*</text><!--MD5=[392f7804293287fa5662caa616132930]
link Task to Collaborator--><path d="M206.819,983.68 C210.635,879.146 221.343,651.931 247,462 C248.316,452.257 250.085,441.917 251.967,432.011 " fill="none" id="Task-Collaborator" style="stroke: #A80036; stroke-width: 1.0;"/><polygon fill="#000000" points="254,710,257,704,260,710,254,710" style="stroke: #000000; stroke-width: 1.0;"/><text fill="#000000" font-family="sans-serif" font-size="13" lengthAdjust="spacingAndGlyphs" textLength="69" x="224" y="726.4951">specified by</text><text fill="#000000" font-family="sans-serif" font-size="13" lengthAdjust="spacingAndGlyphs" textLength="5" x="201.736" y="973.0419">*</text><text fill="#000000" font-family="sans-serif" font-size="13" lengthAdjust="spacingAndGlyphs" textLength="7" x="250.9077" y="453.8754">1</text><!--MD5=[f919d21ae7a75ef5ececc535e09d5009]
link Collaborator to Task--><path d="M237.517,432.124 C208.193,493.464 161.794,600.822 144,699 C125.85,799.138 158.02,915.836 182.132,983.911 " fill="none" id="Collaborator-Task" style="stroke: #A80036; stroke-width: 1.0;"/><text fill="#000000" font-family="sans-serif" font-size="13" lengthAdjust="spacingAndGlyphs" textLength="55" x="145" y="713.4951">publishes</text><polygon fill="#000000" points="168,722.3516,171,728.3516,174,722.3516,168,722.3516" style="stroke: #000000; stroke-width: 1.0;"/><text fill="#000000" font-family="sans-serif" font-size="13" lengthAdjust="spacingAndGlyphs" textLength="7" x="226.4413" y="454.0043">1</text><text fill="#000000" font-family="sans-serif" font-size="13" lengthAdjust="spacingAndGlyphs" textLength="20" x="158.1262" y="973.3011">1..*</text><!--MD5=[04ce0ecdab38a3951889ff50c232570f]
link Collaborator to User--><path d="M311.829,432.218 C330.779,449.483 353.554,467.546 377,480 C422.132,503.973 440.935,490.088 488,510 C514.888,521.376 542.925,537.382 566.208,551.976 " fill="none" id="Collaborator-User" style="stroke: #A80036; stroke-width: 1.0;"/><text fill="#000000" font-family="sans-serif" font-size="13" lengthAdjust="spacingAndGlyphs" textLength="49" x="378" y="476.4951">acts like</text><polygon fill="#000000" points="430,469.6758,436,472.6758,430,475.6758,430,469.6758" style="stroke: #000000; stroke-width: 1.0;"/><text fill="#000000" font-family="sans-serif" font-size="13" lengthAdjust="spacingAndGlyphs" textLength="22" x="294.9123" y="453.7382">0..1</text><text fill="#000000" font-family="sans-serif" font-size="13" lengthAdjust="spacingAndGlyphs" textLength="7" x="551.5094" y="543.4105">1</text><!--MD5=[bc039f41cf0b27fadee5cae63fc6e1fe]
link Organization to Manager--><path d="M356.444,251.076 C389.503,277.853 429.689,310.402 461.332,336.031 " fill="none" id="Organization-Manager" style="stroke: #A80036; stroke-width: 1.0;"/><text fill="#000000" font-family="sans-serif" font-size="13" lengthAdjust="spacingAndGlyphs" textLength="21" x="413" y="295.4951">has</text><polygon fill="#000000" points="437,288.6758,443,291.6758,437,294.6758,437,288.6758" style="stroke: #000000; stroke-width: 1.0;"/><text fill="#000000" font-family="sans-serif" font-size="13" lengthAdjust="spacingAndGlyphs" textLength="7" x="357.733" y="272.9495">1</text><text fill="#000000" font-family="sans-serif" font-size="13" lengthAdjust="spacingAndGlyphs" textLength="7" x="446.65" y="326.4761">1</text><!--MD5=[6eb6e197a729f6ec2412743e0bdbca1d]
link Manager to User--><path d="M561.452,432.227 C568.666,441.684 575.527,451.81 581,462 C594.865,487.814 604.593,519.293 610.866,544.391 " fill="none" id="Manager-User" style="stroke: #A80036; stroke-width: 1.0;"/><text fill="#000000" font-family="sans-serif" font-size="13" lengthAdjust="spacingAndGlyphs" textLength="49" x="590" y="476.4951">acts like</text><polygon fill="#000000" points="610,485.3516,613,491.3516,616,485.3516,610,485.3516" style="stroke: #000000; stroke-width: 1.0;"/><text fill="#000000" font-family="sans-serif" font-size="13" lengthAdjust="spacingAndGlyphs" textLength="7" x="560.2237" y="453.7485">1</text><text fill="#000000" font-family="sans-serif" font-size="13" lengthAdjust="spacingAndGlyphs" textLength="7" x="601.8525" y="533.4891">1</text><!--MD5=[07c33ebd6bf1a7067fcb1cdb0e1b530a]
link Manager to PaymentTransaction--><path d="M477.3,432.244 C470.601,441.948 463.89,452.154 458,462 C448.932,477.16 439.981,493.798 431.799,509.885 " fill="none" id="Manager-PaymentTransaction" style="stroke: #A80036; stroke-width: 1.0;"/><text fill="#000000" font-family="sans-serif" font-size="13" lengthAdjust="spacingAndGlyphs" textLength="100" x="459" y="476.4951">chooses the date</text><polygon fill="#000000" points="504.5,485.3516,507.5,491.3516,510.5,485.3516,504.5,485.3516" style="stroke: #000000; stroke-width: 1.0;"/><text fill="#000000" font-family="sans-serif" font-size="13" lengthAdjust="spacingAndGlyphs" textLength="7" x="464.7638" y="453.7677">1</text><text fill="#000000" font-family="sans-serif" font-size="13" lengthAdjust="spacingAndGlyphs" textLength="20" x="414.3533" y="499.061">1..*</text><!--MD5=[64d713fdb760e3b6b59069371d93ba85]
link Administrator to Manager--><path d="M587.529,223.872 C580.044,244.012 568.551,273.744 557,299 C552.542,308.748 547.489,318.997 542.471,328.794 " fill="none" id="Administrator-Manager" style="stroke: #A80036; stroke-width: 1.0;"/><text fill="#000000" font-family="sans-serif" font-size="13" lengthAdjust="spacingAndGlyphs" textLength="41" x="566" y="295.4951">defines</text><polygon fill="#000000" points="582,304.3516,585,310.3516,588,304.3516,582,304.3516" style="stroke: #000000; stroke-width: 1.0;"/><text fill="#000000" font-family="sans-serif" font-size="13" lengthAdjust="spacingAndGlyphs" textLength="7" x="577.7607" y="244.8938">1</text><text fill="#000000" font-family="sans-serif" font-size="13" lengthAdjust="spacingAndGlyphs" textLength="20" x="524.8187" y="318.2666">1..*</text><!--MD5=[757406b2e460220911d4cccaa97c87d9]
link Administrator to Collaborator--><path d="M567.184,223.596 C539.701,244.927 496.593,276.605 456,299 C410.861,323.903 356.416,345.947 316.877,360.642 " fill="none" id="Administrator-Collaborator" style="stroke: #A80036; stroke-width: 1.0;"/><polygon fill="#000000" points="493,288.6758,487,291.6758,493,294.6758,493,288.6758" style="stroke: #000000; stroke-width: 1.0;"/><text fill="#000000" font-family="sans-serif" font-size="13" lengthAdjust="spacingAndGlyphs" textLength="41" x="499" y="295.4951">defines</text><text fill="#000000" font-family="sans-serif" font-size="13" lengthAdjust="spacingAndGlyphs" textLength="7" x="552.307" y="244.9574">1</text><text fill="#000000" font-family="sans-serif" font-size="13" lengthAdjust="spacingAndGlyphs" textLength="20" x="324.662" y="354.7424">1..*</text><!--MD5=[6d959097169fa5ba0f848d79b8467d94]
@startuml

class Platform{
-String designation
}

class Organization{
-String name
-String NIF
-Collaborator collaborator
-Manager manager
}


class User{
-String nome
-String email
-String password
}



class Collaborator{
-String name
-String email
-String password
-User user
}


class Freelancer{
-String id
-String name
-String levelOfExpertise
-String email
-String NIF
-String bankAccountIBAN
-String address
-String country
}

class Manager{
-String name
-String email
-String password
-User user
}

class PaymentTransaction{
-String transId
-Date endDate
-double delay
-String descQualityOfWork
-double amountPay
-Freelancer freelancer
-Task task
-Date dateToPay
}

class Task{
-String id
-String description
-double timeDuration
-double costPerHour
-String category
}

class Administrator{

}


Platform "1" - - "*" Freelancer : has >
Platform "1" - - "*" Organization : has registed >
Platform "1" - - "*" Administrator : has >
Administrator "1" - - "1" User : acts >
Organization "1" - - "1" Collaborator : has manager >
Organization "1" - - "1..*" Collaborator : has >
Freelancer "1" - - "1..*" Task : finishes/executes >
Task "1" - - "1" PaymentTransaction : is paid by >
PaymentTransaction "1" - - "1" Freelancer : pays to >
Collaborator "1" - - "1..*" PaymentTransaction : creates >
Organization "1" - - "*" Task :  has >
Task "*" - - "1" Collaborator : specified by >
Collaborator "1" - - "1..*" Task : publishes >
Collaborator "0..1" - - "1" User : acts like >
Organization "1" - - "1" Manager : has >
Manager "1" - - "1" User : acts like >
Manager "1" - - "1..*" PaymentTransaction : chooses the date >
Administrator "1" - - "1..*" Manager : defines >
Administrator "1" - - "1..*" Collaborator : defines >



@enduml

PlantUML version 1.2020.09(Sun May 10 11:51:06 BST 2020)
(GPL source distribution)
Java Runtime: OpenJDK Runtime Environment
JVM: OpenJDK 64-Bit Server VM
Java Version: 11.0.7+10-b765.53
Operating System: Windows 10
Default Encoding: Cp1252
Language: pt
Country: PT
--></g></svg>