<?xml version="1.0" encoding="UTF-8" standalone="no"?><svg xmlns="http://www.w3.org/2000/svg" xmlns:xlink="http://www.w3.org/1999/xlink" contentScriptType="application/ecmascript" contentStyleType="text/css" height="546.25px" preserveAspectRatio="none" style="width:1726px;height:546px;" version="1.1" viewBox="0 0 1726 546" width="1726.25px" zoomAndPan="magnify"><defs><filter height="300%" id="fy9ib8o3e1kol" width="300%" x="-1" y="-1"><feGaussianBlur result="blurOut" stdDeviation="2.5"/><feColorMatrix in="blurOut" result="blurOut2" type="matrix" values="0 0 0 0 0 0 0 0 0 0 0 0 0 0 0 0 0 0 .4 0"/><feOffset dx="5.0" dy="5.0" in="blurOut2" result="blurOut3"/><feBlend in="SourceGraphic" in2="blurOut3" mode="normal"/></filter></defs><g><!--MD5=[8c0a1b052d1b0dc6eb29862f9d459289]
class RegisterFreelancerUI--><rect fill="#FEFECE" filter="url(#fy9ib8o3e1kol)" height="60" id="RegisterFreelancerUI" style="stroke: #A80036; stroke-width: 1.875;" width="187.5" x="580" y="10"/><ellipse cx="598.75" cy="30" fill="#ADD1B2" rx="13.75" ry="13.75" style="stroke: #A80036; stroke-width: 1.25;"/><path d="M601.25,25.625 Q601.5039,25 601.7969,24.6875 Q602.0898,24.375 602.4219,24.375 Q603.0078,24.375 603.3789,24.7266 Q603.75,25.0781 603.75,25.8984 L603.75,27.8516 Q603.75,28.6719 603.3984,29.0234 Q603.0469,29.375 602.5,29.375 Q602.0117,29.375 601.6992,29.1602 Q601.3867,28.9453 601.25,28.3789 Q601.1914,27.9883 600.9766,27.7734 Q600.5859,27.3633 599.8828,27.1289 Q599.1797,26.875 598.4766,26.875 Q597.5977,26.875 596.8555,27.2266 Q596.1328,27.5781 595.5664,28.3594 Q595,29.1406 595,30.2148 L595,31.3672 Q595,32.6563 596.0547,33.5156 Q597.1094,34.375 598.9844,34.375 Q600.0977,34.375 600.8789,34.1211 Q601.3281,33.9844 601.8359,33.5352 Q602.168,33.2813 602.3438,33.2031 Q602.5195,33.125 602.7344,33.125 Q603.1445,33.125 603.4375,33.457 Q603.75,33.7695 603.75,34.2188 Q603.75,34.6484 603.3203,35.1563 Q602.6953,35.8984 601.6992,36.3086 Q600.3906,36.875 598.7891,36.875 Q596.9141,36.875 595.4102,36.1328 Q594.1992,35.5469 593.3398,34.2773 Q592.5,33.0078 592.5,31.5039 L592.5,30.1367 Q592.5,28.5742 593.2422,27.207 Q594.0039,25.8398 595.3125,25.1172 Q596.6406,24.375 598.125,24.375 Q599.0234,24.375 599.8047,24.6875 Q600.5859,25 601.25,25.625 Z "/><text fill="#000000" font-family="sans-serif" font-size="15" lengthAdjust="spacingAndGlyphs" textLength="147.5" x="616.25" y="36.1377">RegisterFreelancerUI</text><line style="stroke: #A80036; stroke-width: 1.875;" x1="581.25" x2="766.25" y1="50" y2="50"/><line style="stroke: #A80036; stroke-width: 1.875;" x1="581.25" x2="766.25" y1="60" y2="60"/><!--MD5=[98ab5b16b76df8bafec1c77ae86b6459]
class RegisterFreelancerController--><rect fill="#FEFECE" filter="url(#fy9ib8o3e1kol)" height="94.5898" id="RegisterFreelancerController" style="stroke: #A80036; stroke-width: 1.875;" width="598.75" x="374.375" y="146.25"/><ellipse cx="568.4375" cy="166.25" fill="#ADD1B2" rx="13.75" ry="13.75" style="stroke: #A80036; stroke-width: 1.25;"/><path d="M570.9375,161.875 Q571.1914,161.25 571.4844,160.9375 Q571.7773,160.625 572.1094,160.625 Q572.6953,160.625 573.0664,160.9766 Q573.4375,161.3281 573.4375,162.1484 L573.4375,164.1016 Q573.4375,164.9219 573.0859,165.2734 Q572.7344,165.625 572.1875,165.625 Q571.6992,165.625 571.3867,165.4102 Q571.0742,165.1953 570.9375,164.6289 Q570.8789,164.2383 570.6641,164.0234 Q570.2734,163.6133 569.5703,163.3789 Q568.8672,163.125 568.1641,163.125 Q567.2852,163.125 566.543,163.4766 Q565.8203,163.8281 565.2539,164.6094 Q564.6875,165.3906 564.6875,166.4648 L564.6875,167.6172 Q564.6875,168.9063 565.7422,169.7656 Q566.7969,170.625 568.6719,170.625 Q569.7852,170.625 570.5664,170.3711 Q571.0156,170.2344 571.5234,169.7852 Q571.8555,169.5313 572.0313,169.4531 Q572.207,169.375 572.4219,169.375 Q572.832,169.375 573.125,169.707 Q573.4375,170.0195 573.4375,170.4688 Q573.4375,170.8984 573.0078,171.4063 Q572.3828,172.1484 571.3867,172.5586 Q570.0781,173.125 568.4766,173.125 Q566.6016,173.125 565.0977,172.3828 Q563.8867,171.7969 563.0273,170.5273 Q562.1875,169.2578 562.1875,167.7539 L562.1875,166.3867 Q562.1875,164.8242 562.9297,163.457 Q563.6914,162.0898 565,161.3672 Q566.3281,160.625 567.8125,160.625 Q568.7109,160.625 569.4922,160.9375 Q570.2734,161.25 570.9375,161.875 Z "/><text fill="#000000" font-family="sans-serif" font-size="15" lengthAdjust="spacingAndGlyphs" textLength="200" x="594.0625" y="172.3877">RegisterFreelancerController</text><line style="stroke: #A80036; stroke-width: 1.875;" x1="375.625" x2="971.875" y1="186.25" y2="186.25"/><line style="stroke: #A80036; stroke-width: 1.875;" x1="375.625" x2="971.875" y1="196.25" y2="196.25"/><text fill="#000000" font-family="sans-serif" font-size="13.75" lengthAdjust="spacingAndGlyphs" textLength="583.75" x="381.875" y="215.5237">+newFreelancer(id, name, level of expertise, e-mail, NIF, bank account (IBAN), address, country)</text><text fill="#000000" font-family="sans-serif" font-size="13.75" lengthAdjust="spacingAndGlyphs" textLength="116.25" x="381.875" y="232.8186">+registFreelancer()</text><!--MD5=[99b8db98afdc2c8404e39242ef4c1e65]
class Platform--><rect fill="#FEFECE" filter="url(#fy9ib8o3e1kol)" height="94.5898" id="Platform" style="stroke: #A80036; stroke-width: 1.875;" width="260" x="7.5" y="378.125"/><ellipse cx="103.4375" cy="398.125" fill="#ADD1B2" rx="13.75" ry="13.75" style="stroke: #A80036; stroke-width: 1.25;"/><path d="M105.9375,393.75 Q106.1914,393.125 106.4844,392.8125 Q106.7773,392.5 107.1094,392.5 Q107.6953,392.5 108.0664,392.8516 Q108.4375,393.2031 108.4375,394.0234 L108.4375,395.9766 Q108.4375,396.7969 108.0859,397.1484 Q107.7344,397.5 107.1875,397.5 Q106.6992,397.5 106.3867,397.2852 Q106.0742,397.0703 105.9375,396.5039 Q105.8789,396.1133 105.6641,395.8984 Q105.2734,395.4883 104.5703,395.2539 Q103.8672,395 103.1641,395 Q102.2852,395 101.543,395.3516 Q100.8203,395.7031 100.2539,396.4844 Q99.6875,397.2656 99.6875,398.3398 L99.6875,399.4922 Q99.6875,400.7813 100.7422,401.6406 Q101.7969,402.5 103.6719,402.5 Q104.7852,402.5 105.5664,402.2461 Q106.0156,402.1094 106.5234,401.6602 Q106.8555,401.4063 107.0313,401.3281 Q107.207,401.25 107.4219,401.25 Q107.832,401.25 108.125,401.582 Q108.4375,401.8945 108.4375,402.3438 Q108.4375,402.7734 108.0078,403.2813 Q107.3828,404.0234 106.3867,404.4336 Q105.0781,405 103.4766,405 Q101.6016,405 100.0977,404.2578 Q98.8867,403.6719 98.0273,402.4023 Q97.1875,401.1328 97.1875,399.6289 L97.1875,398.2617 Q97.1875,396.6992 97.9297,395.332 Q98.6914,393.9648 100,393.2422 Q101.3281,392.5 102.8125,392.5 Q103.7109,392.5 104.4922,392.8125 Q105.2734,393.125 105.9375,393.75 Z "/><text fill="#000000" font-family="sans-serif" font-size="15" lengthAdjust="spacingAndGlyphs" textLength="57.5" x="129.0625" y="404.2627">Platform</text><line style="stroke: #A80036; stroke-width: 1.875;" x1="8.75" x2="266.25" y1="418.125" y2="418.125"/><text fill="#000000" font-family="sans-serif" font-size="13.75" lengthAdjust="spacingAndGlyphs" textLength="112.5" x="15" y="437.3987">-String designation</text><line style="stroke: #A80036; stroke-width: 1.875;" x1="8.75" x2="266.25" y1="445.4199" y2="445.4199"/><text fill="#000000" font-family="sans-serif" font-size="13.75" lengthAdjust="spacingAndGlyphs" textLength="245" x="15" y="464.6936">+RegistFreelancer getRegistFreelancer()</text><!--MD5=[eba5144af5135a87840971fc4358c553]
class RegistFreelancer--><rect fill="#FEFECE" filter="url(#fy9ib8o3e1kol)" height="129.1797" id="RegistFreelancer" style="stroke: #A80036; stroke-width: 1.875;" width="667.5" x="340" y="361.25"/><ellipse cx="609.0625" cy="381.25" fill="#ADD1B2" rx="13.75" ry="13.75" style="stroke: #A80036; stroke-width: 1.25;"/><path d="M611.5625,376.875 Q611.8164,376.25 612.1094,375.9375 Q612.4023,375.625 612.7344,375.625 Q613.3203,375.625 613.6914,375.9766 Q614.0625,376.3281 614.0625,377.1484 L614.0625,379.1016 Q614.0625,379.9219 613.7109,380.2734 Q613.3594,380.625 612.8125,380.625 Q612.3242,380.625 612.0117,380.4102 Q611.6992,380.1953 611.5625,379.6289 Q611.5039,379.2383 611.2891,379.0234 Q610.8984,378.6133 610.1953,378.3789 Q609.4922,378.125 608.7891,378.125 Q607.9102,378.125 607.168,378.4766 Q606.4453,378.8281 605.8789,379.6094 Q605.3125,380.3906 605.3125,381.4648 L605.3125,382.6172 Q605.3125,383.9063 606.3672,384.7656 Q607.4219,385.625 609.2969,385.625 Q610.4102,385.625 611.1914,385.3711 Q611.6406,385.2344 612.1484,384.7852 Q612.4805,384.5313 612.6563,384.4531 Q612.832,384.375 613.0469,384.375 Q613.457,384.375 613.75,384.707 Q614.0625,385.0195 614.0625,385.4688 Q614.0625,385.8984 613.6328,386.4063 Q613.0078,387.1484 612.0117,387.5586 Q610.7031,388.125 609.1016,388.125 Q607.2266,388.125 605.7227,387.3828 Q604.5117,386.7969 603.6523,385.5273 Q602.8125,384.2578 602.8125,382.7539 L602.8125,381.3867 Q602.8125,379.8242 603.5547,378.457 Q604.3164,377.0898 605.625,376.3672 Q606.9531,375.625 608.4375,375.625 Q609.3359,375.625 610.1172,375.9375 Q610.8984,376.25 611.5625,376.875 Z "/><text fill="#000000" font-family="sans-serif" font-size="15" lengthAdjust="spacingAndGlyphs" textLength="118.75" x="634.6875" y="387.3877">RegistFreelancer</text><line style="stroke: #A80036; stroke-width: 1.875;" x1="341.25" x2="1006.25" y1="401.25" y2="401.25"/><line style="stroke: #A80036; stroke-width: 1.875;" x1="341.25" x2="1006.25" y1="411.25" y2="411.25"/><text fill="#000000" font-family="sans-serif" font-size="13.75" lengthAdjust="spacingAndGlyphs" textLength="652.5" x="347.5" y="430.5237">+Freelancer newFreelancer(id, name, level of expertise, e-mail, NIF, bank account (IBAN), address, country)</text><text fill="#000000" font-family="sans-serif" font-size="13.75" lengthAdjust="spacingAndGlyphs" textLength="178.75" x="347.5" y="447.8186">+registFreelancer(freelancer)</text><text fill="#000000" font-family="sans-serif" font-size="13.75" lengthAdjust="spacingAndGlyphs" textLength="201.25" x="347.5" y="465.1135">+validationFreelancer(freelancer)</text><text fill="#000000" font-family="sans-serif" font-size="13.75" lengthAdjust="spacingAndGlyphs" textLength="167.5" x="347.5" y="482.4084">+addFreelancer(freelancer)</text><!--MD5=[1f687b5315377fe49fca59b457947463]
class Freelancer--><rect fill="#FEFECE" filter="url(#fy9ib8o3e1kol)" height="215.6543" id="Freelancer" style="stroke: #A80036; stroke-width: 1.875;" width="571.25" x="1141.875" y="317.5"/><ellipse cx="1385.3125" cy="337.5" fill="#ADD1B2" rx="13.75" ry="13.75" style="stroke: #A80036; stroke-width: 1.25;"/><path d="M1387.8125,333.125 Q1388.0664,332.5 1388.3594,332.1875 Q1388.6523,331.875 1388.9844,331.875 Q1389.5703,331.875 1389.9414,332.2266 Q1390.3125,332.5781 1390.3125,333.3984 L1390.3125,335.3516 Q1390.3125,336.1719 1389.9609,336.5234 Q1389.6094,336.875 1389.0625,336.875 Q1388.5742,336.875 1388.2617,336.6602 Q1387.9492,336.4453 1387.8125,335.8789 Q1387.7539,335.4883 1387.5391,335.2734 Q1387.1484,334.8633 1386.4453,334.6289 Q1385.7422,334.375 1385.0391,334.375 Q1384.1602,334.375 1383.418,334.7266 Q1382.6953,335.0781 1382.1289,335.8594 Q1381.5625,336.6406 1381.5625,337.7148 L1381.5625,338.8672 Q1381.5625,340.1563 1382.6172,341.0156 Q1383.6719,341.875 1385.5469,341.875 Q1386.6602,341.875 1387.4414,341.6211 Q1387.8906,341.4844 1388.3984,341.0352 Q1388.7305,340.7813 1388.9063,340.7031 Q1389.082,340.625 1389.2969,340.625 Q1389.707,340.625 1390,340.957 Q1390.3125,341.2695 1390.3125,341.7188 Q1390.3125,342.1484 1389.8828,342.6563 Q1389.2578,343.3984 1388.2617,343.8086 Q1386.9531,344.375 1385.3516,344.375 Q1383.4766,344.375 1381.9727,343.6328 Q1380.7617,343.0469 1379.9023,341.7773 Q1379.0625,340.5078 1379.0625,339.0039 L1379.0625,337.6367 Q1379.0625,336.0742 1379.8047,334.707 Q1380.5664,333.3398 1381.875,332.6172 Q1383.2031,331.875 1384.6875,331.875 Q1385.5859,331.875 1386.3672,332.1875 Q1387.1484,332.5 1387.8125,333.125 Z "/><text fill="#000000" font-family="sans-serif" font-size="15" lengthAdjust="spacingAndGlyphs" textLength="73.75" x="1410.9375" y="343.6377">Freelancer</text><line style="stroke: #A80036; stroke-width: 1.875;" x1="1143.125" x2="1711.875" y1="357.5" y2="357.5"/><text fill="#000000" font-family="sans-serif" font-size="13.75" lengthAdjust="spacingAndGlyphs" textLength="53.75" x="1149.375" y="376.7737">-String id</text><text fill="#000000" font-family="sans-serif" font-size="13.75" lengthAdjust="spacingAndGlyphs" textLength="76.25" x="1149.375" y="394.0686">-String name</text><text fill="#000000" font-family="sans-serif" font-size="13.75" lengthAdjust="spacingAndGlyphs" textLength="142.5" x="1149.375" y="411.3635">-String levelOfExpertise</text><text fill="#000000" font-family="sans-serif" font-size="13.75" lengthAdjust="spacingAndGlyphs" textLength="73.75" x="1149.375" y="428.6584">-String email</text><text fill="#000000" font-family="sans-serif" font-size="13.75" lengthAdjust="spacingAndGlyphs" textLength="62.5" x="1149.375" y="445.9534">-String NIF</text><text fill="#000000" font-family="sans-serif" font-size="13.75" lengthAdjust="spacingAndGlyphs" textLength="153.75" x="1149.375" y="463.2483">-String bankAccountIBAN</text><text fill="#000000" font-family="sans-serif" font-size="13.75" lengthAdjust="spacingAndGlyphs" textLength="93.75" x="1149.375" y="480.5432">-String address</text><text fill="#000000" font-family="sans-serif" font-size="13.75" lengthAdjust="spacingAndGlyphs" textLength="90" x="1149.375" y="497.8381">-String country</text><line style="stroke: #A80036; stroke-width: 1.875;" x1="1143.125" x2="1711.875" y1="505.8594" y2="505.8594"/><text fill="#000000" font-family="sans-serif" font-size="13.75" lengthAdjust="spacingAndGlyphs" textLength="556.25" x="1149.375" y="525.1331">+Freelancer(id, name, level of expertise, e-mail, NIF, bank account (IBAN), address, country)</text><!--MD5=[e15b53ec274e70a190c6400a3b603543]
link RegisterFreelancerUI to RegisterFreelancerController--><path d="M673.75,70.055 C673.75,89.6413 673.75,116.135 673.75,139.4688 " fill="none" id="RegisterFreelancerUI-&gt;RegisterFreelancerController" style="stroke: #A80036; stroke-width: 1.25; stroke-dasharray: 7.0,7.0;"/><polygon fill="#A80036" points="673.75,145.9588,678.75,134.7088,673.75,139.7088,668.75,134.7088,673.75,145.9588" style="stroke: #A80036; stroke-width: 1.25;"/><!--MD5=[03614540c7cc936fb08a9f3774f6e355]
link RegisterFreelancerController to RegistFreelancer--><path d="M673.75,241.4175 C673.75,273.9625 673.75,318.0413 673.75,354.7775 " fill="none" id="RegisterFreelancerController-&gt;RegistFreelancer" style="stroke: #A80036; stroke-width: 1.25; stroke-dasharray: 7.0,7.0;"/><polygon fill="#A80036" points="673.75,361.0762,678.75,349.8262,673.75,354.8262,668.75,349.8262,673.75,361.0762" style="stroke: #A80036; stroke-width: 1.25;"/><!--MD5=[95c1d6a713735939afe52f296abf7914]
link RegisterFreelancerController to Freelancer--><path d="M825.8288,241.28 C914.7775,268.3475 1030.0525,303.4275 1135.8675,335.6275 " fill="none" id="RegisterFreelancerController-&gt;Freelancer" style="stroke: #A80036; stroke-width: 1.25; stroke-dasharray: 7.0,7.0;"/><polygon fill="#A80036" points="1141.8575,337.4513,1132.5508,329.3922,1135.8783,335.6314,1129.6391,338.9589,1141.8575,337.4513" style="stroke: #A80036; stroke-width: 1.25;"/><!--MD5=[3527abece0f63d4bc1c2480af2924c67]
link RegisterFreelancerController to Platform--><path d="M516.725,241.3137 C453.6638,261.8813 381.0088,288.1038 317.5,317.5 C282.1125,333.88 244.77,355.3025 213.3275,374.6638 " fill="none" id="RegisterFreelancerController-&gt;Platform" style="stroke: #A80036; stroke-width: 1.25; stroke-dasharray: 7.0,7.0;"/><polygon fill="#A80036" points="207.9313,378.0025,220.1293,376.338,213.2469,374.7152,214.8697,367.8329,207.9313,378.0025" style="stroke: #A80036; stroke-width: 1.25;"/><!--MD5=[736896ddd0b2c15ea62844344f935c15]
link Platform to RegistFreelancer--><path d="M267.6538,425.625 C288.3388,425.625 310.5288,425.625 333.4825,425.625 " fill="none" id="Platform-&gt;RegistFreelancer" style="stroke: #A80036; stroke-width: 1.25;"/><polygon fill="#A80036" points="339.9763,425.625,328.7263,420.625,333.7263,425.625,328.7263,430.625,339.9763,425.625" style="stroke: #A80036; stroke-width: 1.25;"/><text fill="#000000" font-family="sans-serif" font-size="16.25" lengthAdjust="spacingAndGlyphs" textLength="26.25" x="290.625" y="417.4939">has</text><text fill="#000000" font-family="sans-serif" font-size="16.25" lengthAdjust="spacingAndGlyphs" textLength="8.75" x="277.5332" y="421.7907">1</text><text fill="#000000" font-family="sans-serif" font-size="16.25" lengthAdjust="spacingAndGlyphs" textLength="8.75" x="321.1875" y="422.1972">1</text><!--MD5=[12a648b87e57a40b1492f312537407ab]
link RegistFreelancer to Freelancer--><path d="M1007.6475,425.625 C1050.0713,425.625 1093.2325,425.625 1134.94,425.625 " fill="none" id="RegistFreelancer-&gt;Freelancer" style="stroke: #A80036; stroke-width: 1.25;"/><polygon fill="#A80036" points="1141.6213,425.625,1130.3713,420.625,1135.3713,425.625,1130.3713,430.625,1141.6213,425.625" style="stroke: #A80036; stroke-width: 1.25;"/><text fill="#000000" font-family="sans-serif" font-size="16.25" lengthAdjust="spacingAndGlyphs" textLength="88.75" x="1030.3125" y="417.4939">has registed</text><text fill="#000000" font-family="sans-serif" font-size="16.25" lengthAdjust="spacingAndGlyphs" textLength="8.75" x="1017.69" y="422.1972">1</text><text fill="#000000" font-family="sans-serif" font-size="16.25" lengthAdjust="spacingAndGlyphs" textLength="6.25" x="1125.8883" y="422.1828">*</text><!--MD5=[a94aff404ebe0a009c6e89863ef749c1]
@startuml
skinparam classAttributeIconSize 0
top to bottom direction

class RegisterFreelancerUI{
}

class RegisterFreelancerController{
    +newFreelancer(id, name, level of expertise, e-mail, NIF, bank account (IBAN), address, country)
    +registFreelancer()

}

class Platform{
    -String designation

    +RegistFreelancer getRegistFreelancer()
}

class RegistFreelancer{
    +Freelancer newFreelancer(id, name, level of expertise, e-mail, NIF, bank account (IBAN), address, country)
    +registFreelancer(freelancer)
    +validationFreelancer(freelancer)
    +addFreelancer(freelancer)
}

class Freelancer{
     -String id
     -String name
     -String levelOfExpertise
     -String email
     -String NIF
     -String bankAccountIBAN
     -String address
     -String country

     +Freelancer(id, name, level of expertise, e-mail, NIF, bank account (IBAN), address, country)
}


RegisterFreelancerUI ..> RegisterFreelancerController

RegisterFreelancerController ..> RegistFreelancer
RegisterFreelancerController ..> Freelancer
RegisterFreelancerController ..> Platform

Platform "1" -> "1" RegistFreelancer : has

RegistFreelancer "1" -> "*" Freelancer : has registed



@enduml

PlantUML version 1.2020.09(Sun May 10 11:51:06 BST 2020)
(GPL source distribution)
Java Runtime: OpenJDK Runtime Environment
JVM: OpenJDK 64-Bit Server VM
Java Version: 11.0.6+8-b765.40
Operating System: Windows 10
Default Encoding: Cp1252
Language: pt
Country: PT
--></g></svg>