<?xml version="1.0" encoding="UTF-8" standalone="no"?><svg xmlns="http://www.w3.org/2000/svg" xmlns:xlink="http://www.w3.org/1999/xlink" contentScriptType="application/ecmascript" contentStyleType="text/css" height="220px" preserveAspectRatio="none" style="width:936px;height:220px;" version="1.1" viewBox="0 0 936 220" width="936.25px" zoomAndPan="magnify"><defs><filter height="300%" id="f1b5h7zxnlqira" width="300%" x="-1" y="-1"><feGaussianBlur result="blurOut" stdDeviation="2.5"/><feColorMatrix in="blurOut" result="blurOut2" type="matrix" values="0 0 0 0 0 0 0 0 0 0 0 0 0 0 0 0 0 0 .4 0"/><feOffset dx="5.0" dy="5.0" in="blurOut2" result="blurOut3"/><feBlend in="SourceGraphic" in2="blurOut3" mode="normal"/></filter></defs><g><!--MD5=[99b8db98afdc2c8404e39242ef4c1e65]
class Platform--><rect fill="#FEFECE" filter="url(#f1b5h7zxnlqira)" height="67.2949" id="Platform" style="stroke: #A80036; stroke-width: 1.875;" width="128.75" x="7.5" y="62.5"/><ellipse cx="40.3125" cy="82.5" fill="#ADD1B2" rx="13.75" ry="13.75" style="stroke: #A80036; stroke-width: 1.25;"/><path d="M42.8125,78.125 Q43.0664,77.5 43.3594,77.1875 Q43.6523,76.875 43.9844,76.875 Q44.5703,76.875 44.9414,77.2266 Q45.3125,77.5781 45.3125,78.3984 L45.3125,80.3516 Q45.3125,81.1719 44.9609,81.5234 Q44.6094,81.875 44.0625,81.875 Q43.5742,81.875 43.2617,81.6602 Q42.9492,81.4453 42.8125,80.8789 Q42.7539,80.4883 42.5391,80.2734 Q42.1484,79.8633 41.4453,79.6289 Q40.7422,79.375 40.0391,79.375 Q39.1602,79.375 38.418,79.7266 Q37.6953,80.0781 37.1289,80.8594 Q36.5625,81.6406 36.5625,82.7148 L36.5625,83.8672 Q36.5625,85.1563 37.6172,86.0156 Q38.6719,86.875 40.5469,86.875 Q41.6602,86.875 42.4414,86.6211 Q42.8906,86.4844 43.3984,86.0352 Q43.7305,85.7813 43.9063,85.7031 Q44.082,85.625 44.2969,85.625 Q44.707,85.625 45,85.957 Q45.3125,86.2695 45.3125,86.7188 Q45.3125,87.1484 44.8828,87.6563 Q44.2578,88.3984 43.2617,88.8086 Q41.9531,89.375 40.3516,89.375 Q38.4766,89.375 36.9727,88.6328 Q35.7617,88.0469 34.9023,86.7773 Q34.0625,85.5078 34.0625,84.0039 L34.0625,82.6367 Q34.0625,81.0742 34.8047,79.707 Q35.5664,78.3398 36.875,77.6172 Q38.2031,76.875 39.6875,76.875 Q40.5859,76.875 41.3672,77.1875 Q42.1484,77.5 42.8125,78.125 Z "/><text fill="#000000" font-family="sans-serif" font-size="15" lengthAdjust="spacingAndGlyphs" textLength="57.5" x="60.9375" y="88.6377">Platform</text><line style="stroke: #A80036; stroke-width: 1.875;" x1="8.75" x2="135" y1="102.5" y2="102.5"/><text fill="#000000" font-family="sans-serif" font-size="13.75" lengthAdjust="spacingAndGlyphs" textLength="113.75" x="15" y="121.7737">-String designacao</text><!--MD5=[f483d6e5de34a60207b28a5563be5e8b]
class Collaborator--><rect fill="#FEFECE" filter="url(#f1b5h7zxnlqira)" height="84.5898" id="Collaborator" style="stroke: #A80036; stroke-width: 1.875;" width="125" x="502.5" y="122.5"/><ellipse cx="521.25" cy="142.5" fill="#ADD1B2" rx="13.75" ry="13.75" style="stroke: #A80036; stroke-width: 1.25;"/><path d="M523.75,138.125 Q524.0039,137.5 524.2969,137.1875 Q524.5898,136.875 524.9219,136.875 Q525.5078,136.875 525.8789,137.2266 Q526.25,137.5781 526.25,138.3984 L526.25,140.3516 Q526.25,141.1719 525.8984,141.5234 Q525.5469,141.875 525,141.875 Q524.5117,141.875 524.1992,141.6602 Q523.8867,141.4453 523.75,140.8789 Q523.6914,140.4883 523.4766,140.2734 Q523.0859,139.8633 522.3828,139.6289 Q521.6797,139.375 520.9766,139.375 Q520.0977,139.375 519.3555,139.7266 Q518.6328,140.0781 518.0664,140.8594 Q517.5,141.6406 517.5,142.7148 L517.5,143.8672 Q517.5,145.1563 518.5547,146.0156 Q519.6094,146.875 521.4844,146.875 Q522.5977,146.875 523.3789,146.6211 Q523.8281,146.4844 524.3359,146.0352 Q524.668,145.7813 524.8438,145.7031 Q525.0195,145.625 525.2344,145.625 Q525.6445,145.625 525.9375,145.957 Q526.25,146.2695 526.25,146.7188 Q526.25,147.1484 525.8203,147.6563 Q525.1953,148.3984 524.1992,148.8086 Q522.8906,149.375 521.2891,149.375 Q519.4141,149.375 517.9102,148.6328 Q516.6992,148.0469 515.8398,146.7773 Q515,145.5078 515,144.0039 L515,142.6367 Q515,141.0742 515.7422,139.707 Q516.5039,138.3398 517.8125,137.6172 Q519.1406,136.875 520.625,136.875 Q521.5234,136.875 522.3047,137.1875 Q523.0859,137.5 523.75,138.125 Z "/><text fill="#000000" font-family="sans-serif" font-size="15" lengthAdjust="spacingAndGlyphs" textLength="85" x="538.75" y="148.6377">Collaborator</text><line style="stroke: #A80036; stroke-width: 1.875;" x1="503.75" x2="626.25" y1="162.5" y2="162.5"/><text fill="#000000" font-family="sans-serif" font-size="13.75" lengthAdjust="spacingAndGlyphs" textLength="76.25" x="510" y="181.7737">-String name</text><text fill="#000000" font-family="sans-serif" font-size="13.75" lengthAdjust="spacingAndGlyphs" textLength="73.75" x="510" y="199.0686">-String email</text><!--MD5=[1f687b5315377fe49fca59b457947463]
class Freelancer--><rect fill="#FEFECE" filter="url(#f1b5h7zxnlqira)" height="171.0645" id="Freelancer" style="stroke: #A80036; stroke-width: 1.875;" width="168.75" x="753.75" y="10.625"/><ellipse cx="797.25" cy="30.625" fill="#ADD1B2" rx="13.75" ry="13.75" style="stroke: #A80036; stroke-width: 1.25;"/><path d="M799.75,26.25 Q800.0039,25.625 800.2969,25.3125 Q800.5898,25 800.9219,25 Q801.5078,25 801.8789,25.3516 Q802.25,25.7031 802.25,26.5234 L802.25,28.4766 Q802.25,29.2969 801.8984,29.6484 Q801.5469,30 801,30 Q800.5117,30 800.1992,29.7852 Q799.8867,29.5703 799.75,29.0039 Q799.6914,28.6133 799.4766,28.3984 Q799.0859,27.9883 798.3828,27.7539 Q797.6797,27.5 796.9766,27.5 Q796.0977,27.5 795.3555,27.8516 Q794.6328,28.2031 794.0664,28.9844 Q793.5,29.7656 793.5,30.8398 L793.5,31.9922 Q793.5,33.2813 794.5547,34.1406 Q795.6094,35 797.4844,35 Q798.5977,35 799.3789,34.7461 Q799.8281,34.6094 800.3359,34.1602 Q800.668,33.9063 800.8438,33.8281 Q801.0195,33.75 801.2344,33.75 Q801.6445,33.75 801.9375,34.082 Q802.25,34.3945 802.25,34.8438 Q802.25,35.2734 801.8203,35.7813 Q801.1953,36.5234 800.1992,36.9336 Q798.8906,37.5 797.2891,37.5 Q795.4141,37.5 793.9102,36.7578 Q792.6992,36.1719 791.8398,34.9023 Q791,33.6328 791,32.1289 L791,30.7617 Q791,29.1992 791.7422,27.832 Q792.5039,26.4648 793.8125,25.7422 Q795.1406,25 796.625,25 Q797.5234,25 798.3047,25.3125 Q799.0859,25.625 799.75,26.25 Z "/><text fill="#000000" font-family="sans-serif" font-size="15" lengthAdjust="spacingAndGlyphs" textLength="73.75" x="820.25" y="36.7627">Freelancer</text><line style="stroke: #A80036; stroke-width: 1.875;" x1="755" x2="921.25" y1="50.625" y2="50.625"/><text fill="#000000" font-family="sans-serif" font-size="13.75" lengthAdjust="spacingAndGlyphs" textLength="53.75" x="761.25" y="69.8987">-String id</text><text fill="#000000" font-family="sans-serif" font-size="13.75" lengthAdjust="spacingAndGlyphs" textLength="76.25" x="761.25" y="87.1936">-String name</text><text fill="#000000" font-family="sans-serif" font-size="13.75" lengthAdjust="spacingAndGlyphs" textLength="142.5" x="761.25" y="104.4885">-String levelOfExpertise</text><text fill="#000000" font-family="sans-serif" font-size="13.75" lengthAdjust="spacingAndGlyphs" textLength="62.5" x="761.25" y="121.7834">-String NIF</text><text fill="#000000" font-family="sans-serif" font-size="13.75" lengthAdjust="spacingAndGlyphs" textLength="153.75" x="761.25" y="139.0784">-String bankAccountIBAN</text><text fill="#000000" font-family="sans-serif" font-size="13.75" lengthAdjust="spacingAndGlyphs" textLength="93.75" x="761.25" y="156.3733">-String address</text><text fill="#000000" font-family="sans-serif" font-size="13.75" lengthAdjust="spacingAndGlyphs" textLength="90" x="761.25" y="173.6682">-String country</text><!--MD5=[86c7c362de55a38b660185a1328fe18d]
class Organization--><rect fill="#FEFECE" filter="url(#f1b5h7zxnlqira)" height="67.2949" id="Organization" style="stroke: #A80036; stroke-width: 1.875;" width="126.25" x="256.25" y="125"/><ellipse cx="275" cy="145" fill="#ADD1B2" rx="13.75" ry="13.75" style="stroke: #A80036; stroke-width: 1.25;"/><path d="M277.5,140.625 Q277.7539,140 278.0469,139.6875 Q278.3398,139.375 278.6719,139.375 Q279.2578,139.375 279.6289,139.7266 Q280,140.0781 280,140.8984 L280,142.8516 Q280,143.6719 279.6484,144.0234 Q279.2969,144.375 278.75,144.375 Q278.2617,144.375 277.9492,144.1602 Q277.6367,143.9453 277.5,143.3789 Q277.4414,142.9883 277.2266,142.7734 Q276.8359,142.3633 276.1328,142.1289 Q275.4297,141.875 274.7266,141.875 Q273.8477,141.875 273.1055,142.2266 Q272.3828,142.5781 271.8164,143.3594 Q271.25,144.1406 271.25,145.2148 L271.25,146.3672 Q271.25,147.6563 272.3047,148.5156 Q273.3594,149.375 275.2344,149.375 Q276.3477,149.375 277.1289,149.1211 Q277.5781,148.9844 278.0859,148.5352 Q278.418,148.2813 278.5938,148.2031 Q278.7695,148.125 278.9844,148.125 Q279.3945,148.125 279.6875,148.457 Q280,148.7695 280,149.2188 Q280,149.6484 279.5703,150.1563 Q278.9453,150.8984 277.9492,151.3086 Q276.6406,151.875 275.0391,151.875 Q273.1641,151.875 271.6602,151.1328 Q270.4492,150.5469 269.5898,149.2773 Q268.75,148.0078 268.75,146.5039 L268.75,145.1367 Q268.75,143.5742 269.4922,142.207 Q270.2539,140.8398 271.5625,140.1172 Q272.8906,139.375 274.375,139.375 Q275.2734,139.375 276.0547,139.6875 Q276.8359,140 277.5,140.625 Z "/><text fill="#000000" font-family="sans-serif" font-size="15" lengthAdjust="spacingAndGlyphs" textLength="86.25" x="292.5" y="151.1377">Organization</text><line style="stroke: #A80036; stroke-width: 1.875;" x1="257.5" x2="381.25" y1="165" y2="165"/><text fill="#000000" font-family="sans-serif" font-size="13.75" lengthAdjust="spacingAndGlyphs" textLength="76.25" x="263.75" y="184.2737">-String name</text><!--MD5=[22697d4d863c2e08ab1d60ca0d61f844]
link Platform to Freelancer--><path d="M136.455,93.53 C148.82,93.1006 161.69,92.7246 173.75,92.5 C193.7463,92.1275 198.75,92.4394 218.75,92.5 C410.0388,93.0803 634.6213,94.6705 753.3938,95.583 " fill="none" id="Platform-Freelancer" style="stroke: #A80036; stroke-width: 1.25;"/><text fill="#000000" font-family="sans-serif" font-size="16.25" lengthAdjust="spacingAndGlyphs" textLength="26.25" x="421.25" y="89.3689">has</text><polygon fill="#000000" points="451.25,80.8447,458.75,84.5947,451.25,88.3447,451.25,80.8447" style="stroke: #000000; stroke-width: 1.25;"/><text fill="#000000" font-family="sans-serif" font-size="16.25" lengthAdjust="spacingAndGlyphs" textLength="8.75" x="146.1518" y="88.6555">1</text><text fill="#000000" font-family="sans-serif" font-size="16.25" lengthAdjust="spacingAndGlyphs" textLength="6.25" x="737.5345" y="113.5069">*</text><!--MD5=[7640e466c042ba2d6f9c19c816f7f0fc]
link Platform to Organization--><path d="M136.5375,112.4266 C173.4,121.8305 219.6513,133.6291 256.2488,142.9654 " fill="none" id="Platform-Organization" style="stroke: #A80036; stroke-width: 1.25;"/><text fill="#000000" font-family="sans-serif" font-size="16.25" lengthAdjust="spacingAndGlyphs" textLength="26.25" x="175" y="120.6189">has</text><polygon fill="#000000" points="205,112.0947,212.5,115.8447,205,119.5947,205,112.0947" style="stroke: #000000; stroke-width: 1.25;"/><text fill="#000000" font-family="sans-serif" font-size="16.25" lengthAdjust="spacingAndGlyphs" textLength="8.75" x="146.2459" y="133.0219">1</text><text fill="#000000" font-family="sans-serif" font-size="16.25" lengthAdjust="spacingAndGlyphs" textLength="6.25" x="239.854" y="158.9978">*</text><!--MD5=[45817597bcd7048073a670d966abfd17]
link Organization to Collaborator--><path d="M382.605,160.3432 C419.3238,161.2873 465.68,162.4789 502.305,163.4204 " fill="none" id="Organization-Collaborator" style="stroke: #A80036; stroke-width: 1.25;"/><text fill="#000000" font-family="sans-serif" font-size="16.25" lengthAdjust="spacingAndGlyphs" textLength="26.25" x="421.25" y="156.8689">has</text><polygon fill="#000000" points="451.25,148.3447,458.75,152.0947,451.25,155.8447,451.25,148.3447" style="stroke: #000000; stroke-width: 1.25;"/><text fill="#000000" font-family="sans-serif" font-size="16.25" lengthAdjust="spacingAndGlyphs" textLength="8.75" x="392.5345" y="178.9622">1</text><text fill="#000000" font-family="sans-serif" font-size="16.25" lengthAdjust="spacingAndGlyphs" textLength="8.75" x="483.7041" y="181.5884">1</text><!--MD5=[d2c3650dbd07e79cdad2ffd4a879dec6]
link Collaborator to Freelancer--><path d="M627.6588,149.3995 C664.9313,139.931 712.9938,127.721 753.6525,117.3921 " fill="none" id="Collaborator-Freelancer" style="stroke: #A80036; stroke-width: 1.25;"/><text fill="#000000" font-family="sans-serif" font-size="16.25" lengthAdjust="spacingAndGlyphs" textLength="48.75" x="666.25" y="124.3689">regists</text><text fill="#000000" font-family="sans-serif" font-size="16.25" lengthAdjust="spacingAndGlyphs" textLength="8.75" x="637.5043" y="165.5082">1</text><text fill="#000000" font-family="sans-serif" font-size="16.25" lengthAdjust="spacingAndGlyphs" textLength="6.25" x="737.274" y="137.898">*</text><!--MD5=[536c04c6e136125ff71d2d786419fe59]
@startuml
skinparam classAttributeIconSize 0
hide methods
left to right direction

class Platform {
  -String designacao
}

class Collaborator{
   -String name
   -String email
}
class Freelancer {
  -String id
  -String name
  -String levelOfExpertise
  -String NIF
  -String bankAccountIBAN
  -String address
  -String country
}

class Organization{
  -String name
}


Platform "1" - - "*" Freelancer : has  >
Platform "1" - - "*" Organization : has >
Organization "1" - - "1" Collaborator : has >
Collaborator "1" - - "*" Freelancer : regists



@enduml

PlantUML version 1.2020.09(Sun May 10 11:51:06 BST 2020)
(GPL source distribution)
Java Runtime: OpenJDK Runtime Environment
JVM: OpenJDK 64-Bit Server VM
Java Version: 11.0.6+8-b765.40
Operating System: Windows 10
Default Encoding: Cp1252
Language: pt
Country: PT
--></g></svg>