<?xml version="1.0" encoding="UTF-8" standalone="no"?><svg xmlns="http://www.w3.org/2000/svg" xmlns:xlink="http://www.w3.org/1999/xlink" contentScriptType="application/ecmascript" contentStyleType="text/css" height="317.25px" preserveAspectRatio="none" style="width:1062px;height:317px;" version="1.1" viewBox="0 0 1062 317" width="1062.75px" zoomAndPan="magnify"><defs><filter height="300%" id="f1whh1vckcf59w" width="300%" x="-1" y="-1"><feGaussianBlur result="blurOut" stdDeviation="1.5"/><feColorMatrix in="blurOut" result="blurOut2" type="matrix" values="0 0 0 0 0 0 0 0 0 0 0 0 0 0 0 0 0 0 .4 0"/><feOffset dx="3.0" dy="3.0" in="blurOut2" result="blurOut3"/><feBlend in="SourceGraphic" in2="blurOut3" mode="normal"/></filter></defs><g><!--MD5=[8c0a1b052d1b0dc6eb29862f9d459289]
class RegisterFreelancerUI--><rect fill="#FEFECE" filter="url(#f1whh1vckcf59w)" height="36" id="RegisterFreelancerUI" style="stroke: #A80036; stroke-width: 1.125;" width="112.5" x="354.75" y="6"/><ellipse cx="366" cy="18" fill="#ADD1B2" rx="8.25" ry="8.25" style="stroke: #A80036; stroke-width: 0.75;"/><path d="M367.5,15.375 Q367.6523,15 367.8281,14.8125 Q368.0039,14.625 368.2031,14.625 Q368.5547,14.625 368.7773,14.8359 Q369,15.0469 369,15.5391 L369,16.7109 Q369,17.2031 368.7891,17.4141 Q368.5781,17.625 368.25,17.625 Q367.957,17.625 367.7695,17.4961 Q367.582,17.3672 367.5,17.0273 Q367.4648,16.793 367.3359,16.6641 Q367.1016,16.418 366.6797,16.2773 Q366.2578,16.125 365.8359,16.125 Q365.3086,16.125 364.8633,16.3359 Q364.4297,16.5469 364.0898,17.0156 Q363.75,17.4844 363.75,18.1289 L363.75,18.8203 Q363.75,19.5938 364.3828,20.1094 Q365.0156,20.625 366.1406,20.625 Q366.8086,20.625 367.2773,20.4727 Q367.5469,20.3906 367.8516,20.1211 Q368.0508,19.9688 368.1563,19.9219 Q368.2617,19.875 368.3906,19.875 Q368.6367,19.875 368.8125,20.0742 Q369,20.2617 369,20.5313 Q369,20.7891 368.7422,21.0938 Q368.3672,21.5391 367.7695,21.7852 Q366.9844,22.125 366.0234,22.125 Q364.8984,22.125 363.9961,21.6797 Q363.2695,21.3281 362.7539,20.5664 Q362.25,19.8047 362.25,18.9023 L362.25,18.082 Q362.25,17.1445 362.6953,16.3242 Q363.1523,15.5039 363.9375,15.0703 Q364.7344,14.625 365.625,14.625 Q366.1641,14.625 366.6328,14.8125 Q367.1016,15 367.5,15.375 Z "/><text fill="#000000" font-family="sans-serif" font-size="9" lengthAdjust="spacingAndGlyphs" textLength="88.5" x="376.5" y="21.6826">RegisterFreelancerUI</text><line style="stroke: #A80036; stroke-width: 1.125;" x1="355.5" x2="466.5" y1="30" y2="30"/><line style="stroke: #A80036; stroke-width: 1.125;" x1="355.5" x2="466.5" y1="36" y2="36"/><!--MD5=[98ab5b16b76df8bafec1c77ae86b6459]
class RegisterFreelancerController--><rect fill="#FEFECE" filter="url(#f1whh1vckcf59w)" height="56.7539" id="RegisterFreelancerController" style="stroke: #A80036; stroke-width: 1.125;" width="372.75" x="224.625" y="87.75"/><ellipse cx="347.8125" cy="99.75" fill="#ADD1B2" rx="8.25" ry="8.25" style="stroke: #A80036; stroke-width: 0.75;"/><path d="M349.3125,97.125 Q349.4648,96.75 349.6406,96.5625 Q349.8164,96.375 350.0156,96.375 Q350.3672,96.375 350.5898,96.5859 Q350.8125,96.7969 350.8125,97.2891 L350.8125,98.4609 Q350.8125,98.9531 350.6016,99.1641 Q350.3906,99.375 350.0625,99.375 Q349.7695,99.375 349.582,99.2461 Q349.3945,99.1172 349.3125,98.7773 Q349.2773,98.543 349.1484,98.4141 Q348.9141,98.168 348.4922,98.0273 Q348.0703,97.875 347.6484,97.875 Q347.1211,97.875 346.6758,98.0859 Q346.2422,98.2969 345.9023,98.7656 Q345.5625,99.2344 345.5625,99.8789 L345.5625,100.5703 Q345.5625,101.3438 346.1953,101.8594 Q346.8281,102.375 347.9531,102.375 Q348.6211,102.375 349.0898,102.2227 Q349.3594,102.1406 349.6641,101.8711 Q349.8633,101.7188 349.9688,101.6719 Q350.0742,101.625 350.2031,101.625 Q350.4492,101.625 350.625,101.8242 Q350.8125,102.0117 350.8125,102.2813 Q350.8125,102.5391 350.5547,102.8438 Q350.1797,103.2891 349.582,103.5352 Q348.7969,103.875 347.8359,103.875 Q346.7109,103.875 345.8086,103.4297 Q345.082,103.0781 344.5664,102.3164 Q344.0625,101.5547 344.0625,100.6523 L344.0625,99.832 Q344.0625,98.8945 344.5078,98.0742 Q344.9648,97.2539 345.75,96.8203 Q346.5469,96.375 347.4375,96.375 Q347.9766,96.375 348.4453,96.5625 Q348.9141,96.75 349.3125,97.125 Z "/><text fill="#000000" font-family="sans-serif" font-size="9" lengthAdjust="spacingAndGlyphs" textLength="120" x="363.1875" y="103.4326">RegisterFreelancerController</text><line style="stroke: #A80036; stroke-width: 1.125;" x1="225.375" x2="596.625" y1="111.75" y2="111.75"/><line style="stroke: #A80036; stroke-width: 1.125;" x1="225.375" x2="596.625" y1="117.75" y2="117.75"/><text fill="#000000" font-family="sans-serif" font-size="8.25" lengthAdjust="spacingAndGlyphs" textLength="363.75" x="229.125" y="129.3142">+newFreelancer(id, name, level of expertise, e-mail, NIF, bank account (IBAN), address and country)</text><text fill="#000000" font-family="sans-serif" font-size="8.25" lengthAdjust="spacingAndGlyphs" textLength="69.75" x="229.125" y="139.6912">+registFreelancer()</text><!--MD5=[03dcba4cf8fb1a884adf843655d65df1]
class Plataform--><rect fill="#FEFECE" filter="url(#f1whh1vckcf59w)" height="56.7539" id="Plataform" style="stroke: #A80036; stroke-width: 1.125;" width="156" x="4.5" y="221.625"/><ellipse cx="59.4375" cy="233.625" fill="#ADD1B2" rx="8.25" ry="8.25" style="stroke: #A80036; stroke-width: 0.75;"/><path d="M60.9375,231 Q61.0898,230.625 61.2656,230.4375 Q61.4414,230.25 61.6406,230.25 Q61.9922,230.25 62.2148,230.4609 Q62.4375,230.6719 62.4375,231.1641 L62.4375,232.3359 Q62.4375,232.8281 62.2266,233.0391 Q62.0156,233.25 61.6875,233.25 Q61.3945,233.25 61.207,233.1211 Q61.0195,232.9922 60.9375,232.6523 Q60.9023,232.418 60.7734,232.2891 Q60.5391,232.043 60.1172,231.9023 Q59.6953,231.75 59.2734,231.75 Q58.7461,231.75 58.3008,231.9609 Q57.8672,232.1719 57.5273,232.6406 Q57.1875,233.1094 57.1875,233.7539 L57.1875,234.4453 Q57.1875,235.2188 57.8203,235.7344 Q58.4531,236.25 59.5781,236.25 Q60.2461,236.25 60.7148,236.0977 Q60.9844,236.0156 61.2891,235.7461 Q61.4883,235.5938 61.5938,235.5469 Q61.6992,235.5 61.8281,235.5 Q62.0742,235.5 62.25,235.6992 Q62.4375,235.8867 62.4375,236.1563 Q62.4375,236.4141 62.1797,236.7188 Q61.8047,237.1641 61.207,237.4102 Q60.4219,237.75 59.4609,237.75 Q58.3359,237.75 57.4336,237.3047 Q56.707,236.9531 56.1914,236.1914 Q55.6875,235.4297 55.6875,234.5273 L55.6875,233.707 Q55.6875,232.7695 56.1328,231.9492 Q56.5898,231.1289 57.375,230.6953 Q58.1719,230.25 59.0625,230.25 Q59.6016,230.25 60.0703,230.4375 Q60.5391,230.625 60.9375,231 Z "/><text fill="#000000" font-family="sans-serif" font-size="9" lengthAdjust="spacingAndGlyphs" textLength="39.75" x="74.8125" y="237.3076">Plataform</text><line style="stroke: #A80036; stroke-width: 1.125;" x1="5.25" x2="159.75" y1="245.625" y2="245.625"/><text fill="#000000" font-family="sans-serif" font-size="8.25" lengthAdjust="spacingAndGlyphs" textLength="67.5" x="9" y="257.1892">-String designation</text><line style="stroke: #A80036; stroke-width: 1.125;" x1="5.25" x2="159.75" y1="262.002" y2="262.002"/><text fill="#000000" font-family="sans-serif" font-size="8.25" lengthAdjust="spacingAndGlyphs" textLength="147" x="9" y="273.5662">+RegistFreelancer getRegistFreelancer()</text><!--MD5=[eba5144af5135a87840971fc4358c553]
class RegistFreelancer--><rect fill="#FEFECE" filter="url(#f1whh1vckcf59w)" height="77.5078" id="RegistFreelancer" style="stroke: #A80036; stroke-width: 1.125;" width="414" x="204" y="211.5"/><ellipse cx="372.1875" cy="223.5" fill="#ADD1B2" rx="8.25" ry="8.25" style="stroke: #A80036; stroke-width: 0.75;"/><path d="M373.6875,220.875 Q373.8398,220.5 374.0156,220.3125 Q374.1914,220.125 374.3906,220.125 Q374.7422,220.125 374.9648,220.3359 Q375.1875,220.5469 375.1875,221.0391 L375.1875,222.2109 Q375.1875,222.7031 374.9766,222.9141 Q374.7656,223.125 374.4375,223.125 Q374.1445,223.125 373.957,222.9961 Q373.7695,222.8672 373.6875,222.5273 Q373.6523,222.293 373.5234,222.1641 Q373.2891,221.918 372.8672,221.7773 Q372.4453,221.625 372.0234,221.625 Q371.4961,221.625 371.0508,221.8359 Q370.6172,222.0469 370.2773,222.5156 Q369.9375,222.9844 369.9375,223.6289 L369.9375,224.3203 Q369.9375,225.0938 370.5703,225.6094 Q371.2031,226.125 372.3281,226.125 Q372.9961,226.125 373.4648,225.9727 Q373.7344,225.8906 374.0391,225.6211 Q374.2383,225.4688 374.3438,225.4219 Q374.4492,225.375 374.5781,225.375 Q374.8242,225.375 375,225.5742 Q375.1875,225.7617 375.1875,226.0313 Q375.1875,226.2891 374.9297,226.5938 Q374.5547,227.0391 373.957,227.2852 Q373.1719,227.625 372.2109,227.625 Q371.0859,227.625 370.1836,227.1797 Q369.457,226.8281 368.9414,226.0664 Q368.4375,225.3047 368.4375,224.4023 L368.4375,223.582 Q368.4375,222.6445 368.8828,221.8242 Q369.3398,221.0039 370.125,220.5703 Q370.9219,220.125 371.8125,220.125 Q372.3516,220.125 372.8203,220.3125 Q373.2891,220.5 373.6875,220.875 Z "/><text fill="#000000" font-family="sans-serif" font-size="9" lengthAdjust="spacingAndGlyphs" textLength="71.25" x="387.5625" y="227.1826">RegistFreelancer</text><line style="stroke: #A80036; stroke-width: 1.125;" x1="204.75" x2="617.25" y1="235.5" y2="235.5"/><line style="stroke: #A80036; stroke-width: 1.125;" x1="204.75" x2="617.25" y1="241.5" y2="241.5"/><text fill="#000000" font-family="sans-serif" font-size="8.25" lengthAdjust="spacingAndGlyphs" textLength="405" x="208.5" y="253.0642">+Freelancer newFreelancer(id, name, level of expertise, e-mail, NIF, bank account (IBAN), address and country)</text><text fill="#000000" font-family="sans-serif" font-size="8.25" lengthAdjust="spacingAndGlyphs" textLength="107.25" x="208.5" y="263.4412">+registFreelancer(freelancer)</text><text fill="#000000" font-family="sans-serif" font-size="8.25" lengthAdjust="spacingAndGlyphs" textLength="120.75" x="208.5" y="273.8181">+validationFreelancer(freelancer)</text><text fill="#000000" font-family="sans-serif" font-size="8.25" lengthAdjust="spacingAndGlyphs" textLength="100.5" x="208.5" y="284.1951">+addFreelancer(freelancer)</text><!--MD5=[1f687b5315377fe49fca59b457947463]
class Freelancer--><rect fill="#FEFECE" filter="url(#f1whh1vckcf59w)" height="119.0156" id="Freelancer" style="stroke: #A80036; stroke-width: 1.125;" width="356.25" x="698.625" y="190.5"/><ellipse cx="851.4375" cy="202.5" fill="#ADD1B2" rx="8.25" ry="8.25" style="stroke: #A80036; stroke-width: 0.75;"/><path d="M852.9375,199.875 Q853.0898,199.5 853.2656,199.3125 Q853.4414,199.125 853.6406,199.125 Q853.9922,199.125 854.2148,199.3359 Q854.4375,199.5469 854.4375,200.0391 L854.4375,201.2109 Q854.4375,201.7031 854.2266,201.9141 Q854.0156,202.125 853.6875,202.125 Q853.3945,202.125 853.207,201.9961 Q853.0195,201.8672 852.9375,201.5273 Q852.9023,201.293 852.7734,201.1641 Q852.5391,200.918 852.1172,200.7773 Q851.6953,200.625 851.2734,200.625 Q850.7461,200.625 850.3008,200.8359 Q849.8672,201.0469 849.5273,201.5156 Q849.1875,201.9844 849.1875,202.6289 L849.1875,203.3203 Q849.1875,204.0938 849.8203,204.6094 Q850.4531,205.125 851.5781,205.125 Q852.2461,205.125 852.7148,204.9727 Q852.9844,204.8906 853.2891,204.6211 Q853.4883,204.4688 853.5938,204.4219 Q853.6992,204.375 853.8281,204.375 Q854.0742,204.375 854.25,204.5742 Q854.4375,204.7617 854.4375,205.0313 Q854.4375,205.2891 854.1797,205.5938 Q853.8047,206.0391 853.207,206.2852 Q852.4219,206.625 851.4609,206.625 Q850.3359,206.625 849.4336,206.1797 Q848.707,205.8281 848.1914,205.0664 Q847.6875,204.3047 847.6875,203.4023 L847.6875,202.582 Q847.6875,201.6445 848.1328,200.8242 Q848.5898,200.0039 849.375,199.5703 Q850.1719,199.125 851.0625,199.125 Q851.6016,199.125 852.0703,199.3125 Q852.5391,199.5 852.9375,199.875 Z "/><text fill="#000000" font-family="sans-serif" font-size="9" lengthAdjust="spacingAndGlyphs" textLength="44.25" x="866.8125" y="206.1826">Freelancer</text><line style="stroke: #A80036; stroke-width: 1.125;" x1="699.375" x2="1054.125" y1="214.5" y2="214.5"/><text fill="#000000" font-family="sans-serif" font-size="8.25" lengthAdjust="spacingAndGlyphs" textLength="32.25" x="703.125" y="226.0642">-String id</text><text fill="#000000" font-family="sans-serif" font-size="8.25" lengthAdjust="spacingAndGlyphs" textLength="45.75" x="703.125" y="236.4412">-String name</text><text fill="#000000" font-family="sans-serif" font-size="8.25" lengthAdjust="spacingAndGlyphs" textLength="85.5" x="703.125" y="246.8181">-String levelOfExpertise</text><text fill="#000000" font-family="sans-serif" font-size="8.25" lengthAdjust="spacingAndGlyphs" textLength="37.5" x="703.125" y="257.1951">-String NIF</text><text fill="#000000" font-family="sans-serif" font-size="8.25" lengthAdjust="spacingAndGlyphs" textLength="92.25" x="703.125" y="267.572">-String bankAccountIBAN</text><text fill="#000000" font-family="sans-serif" font-size="8.25" lengthAdjust="spacingAndGlyphs" textLength="56.25" x="703.125" y="277.949">-String address</text><text fill="#000000" font-family="sans-serif" font-size="8.25" lengthAdjust="spacingAndGlyphs" textLength="54" x="703.125" y="288.3259">-String country</text><line style="stroke: #A80036; stroke-width: 1.125;" x1="699.375" x2="1054.125" y1="293.1387" y2="293.1387"/><text fill="#000000" font-family="sans-serif" font-size="8.25" lengthAdjust="spacingAndGlyphs" textLength="347.25" x="703.125" y="304.7029">+Freelancer(id, name, level of expertise, e-mail, NIF, bank account (IBAN), address and country)</text><!--MD5=[e15b53ec274e70a190c6400a3b603543]
link RegisterFreelancerUI to RegisterFreelancerController--><path d="M411,42.033 C411,53.7848 411,69.681 411,83.6812 " fill="none" id="RegisterFreelancerUI-&gt;RegisterFreelancerController" style="stroke: #A80036; stroke-width: 0.75; stroke-dasharray: 7.0,7.0;"/><polygon fill="#A80036" points="411,87.5753,414,80.8253,411,83.8253,408,80.8253,411,87.5753" style="stroke: #A80036; stroke-width: 0.75;"/><!--MD5=[03614540c7cc936fb08a9f3774f6e355]
link RegisterFreelancerController to RegistFreelancer--><path d="M411,144.75 C411,162.9495 411,187.083 411,207.585 " fill="none" id="RegisterFreelancerController-&gt;RegistFreelancer" style="stroke: #A80036; stroke-width: 0.75; stroke-dasharray: 7.0,7.0;"/><polygon fill="#A80036" points="411,211.3687,414,204.6187,411,207.6187,408,204.6187,411,211.3687" style="stroke: #A80036; stroke-width: 0.75;"/><!--MD5=[95c1d6a713735939afe52f296abf7914]
link RegisterFreelancerController to Freelancer--><path d="M508.6365,144.75 C562.578,160.0815 631.3343,179.6228 694.7873,197.658 " fill="none" id="RegisterFreelancerController-&gt;Freelancer" style="stroke: #A80036; stroke-width: 0.75; stroke-dasharray: 7.0,7.0;"/><polygon fill="#A80036" points="698.5733,198.7335,692.9006,194.0023,694.9661,197.7082,691.2602,199.7737,698.5733,198.7335" style="stroke: #A80036; stroke-width: 0.75;"/><!--MD5=[20d20732443a61c1b15c48924763846d]
link RegisterFreelancerController to Plataform--><path d="M315.4613,144.7718 C276.1598,157.2398 230.553,173.0715 190.5,190.5 C171.0518,198.9623 150.4388,209.7203 132.4913,219.7185 " fill="none" id="RegisterFreelancerController-&gt;Plataform" style="stroke: #A80036; stroke-width: 0.75; stroke-dasharray: 7.0,7.0;"/><polygon fill="#A80036" points="129.1718,221.5763,136.5272,220.898,132.4442,219.745,133.5972,215.662,129.1718,221.5763" style="stroke: #A80036; stroke-width: 0.75;"/><!--MD5=[8348708c56846acade589b8f69c78e21]
link Plataform to RegistFreelancer--><path d="M160.5585,250.125 C172.9597,250.125 186.2753,250.125 200.0708,250.125 " fill="none" id="Plataform-&gt;RegistFreelancer" style="stroke: #A80036; stroke-width: 0.75;"/><polygon fill="#A80036" points="203.9738,250.125,197.2238,247.125,200.2238,250.125,197.2238,253.125,203.9738,250.125" style="stroke: #A80036; stroke-width: 0.75;"/><text fill="#000000" font-family="sans-serif" font-size="9.75" lengthAdjust="spacingAndGlyphs" textLength="15.75" x="174.375" y="245.2463">has</text><text fill="#000000" font-family="sans-serif" font-size="9.75" lengthAdjust="spacingAndGlyphs" textLength="5.25" x="166.4837" y="247.8244">1</text><text fill="#000000" font-family="sans-serif" font-size="9.75" lengthAdjust="spacingAndGlyphs" textLength="5.25" x="192.4997" y="248.0683">1</text><!--MD5=[12a648b87e57a40b1492f312537407ab]
link RegistFreelancer to Freelancer--><path d="M618.336,250.125 C643.6845,250.125 669.441,250.125 694.3853,250.125 " fill="none" id="RegistFreelancer-&gt;Freelancer" style="stroke: #A80036; stroke-width: 0.75;"/><polygon fill="#A80036" points="698.3812,250.125,691.6312,247.125,694.6312,250.125,691.6312,253.125,698.3812,250.125" style="stroke: #A80036; stroke-width: 0.75;"/><text fill="#000000" font-family="sans-serif" font-size="9.75" lengthAdjust="spacingAndGlyphs" textLength="53.25" x="631.6875" y="245.2463">has registed</text><text fill="#000000" font-family="sans-serif" font-size="9.75" lengthAdjust="spacingAndGlyphs" textLength="5.25" x="623.9131" y="248.087">1</text><text fill="#000000" font-family="sans-serif" font-size="9.75" lengthAdjust="spacingAndGlyphs" textLength="3.75" x="688.717" y="248.0576">*</text><!--MD5=[a7e4e4261311a9fa48f59100e2df8fa8]
@startuml
skinparam classAttributeIconSize 0
top to bottom direction

class RegisterFreelancerUI{
}

class RegisterFreelancerController{
    +newFreelancer(id, name, level of expertise, e-mail, NIF, bank account (IBAN), address and country)
    +registFreelancer()

}

class Plataform{
    -String designation

    +RegistFreelancer getRegistFreelancer()
}

class RegistFreelancer{
    +Freelancer newFreelancer(id, name, level of expertise, e-mail, NIF, bank account (IBAN), address and country)
    +registFreelancer(freelancer)
    +validationFreelancer(freelancer)
    +addFreelancer(freelancer)
}

class Freelancer{
     -String id
     -String name
     -String levelOfExpertise
     -String NIF
     -String bankAccountIBAN
     -String address
     -String country

     +Freelancer(id, name, level of expertise, e-mail, NIF, bank account (IBAN), address and country)
}


RegisterFreelancerUI ..> RegisterFreelancerController

RegisterFreelancerController ..> RegistFreelancer
RegisterFreelancerController ..> Freelancer
RegisterFreelancerController ..> Plataform

Plataform "1" -> "1" RegistFreelancer : has

RegistFreelancer "1" -> "*" Freelancer : has registed



@enduml

PlantUML version 1.2020.09(Sun May 10 11:51:06 BST 2020)
(GPL source distribution)
Java Runtime: OpenJDK Runtime Environment
JVM: OpenJDK 64-Bit Server VM
Java Version: 11.0.6+8-b765.40
Operating System: Windows 10
Default Encoding: Cp1252
Language: pt
Country: PT
--></g></svg>