<?xml version="1.0" encoding="UTF-8" standalone="no"?><svg xmlns="http://www.w3.org/2000/svg" xmlns:xlink="http://www.w3.org/1999/xlink" contentScriptType="application/ecmascript" contentStyleType="text/css" height="528.75px" preserveAspectRatio="none" style="width:1771px;height:528px;" version="1.1" viewBox="0 0 1771 528" width="1771.25px" zoomAndPan="magnify"><defs><filter height="300%" id="f1frz63fgzcg3x" width="300%" x="-1" y="-1"><feGaussianBlur result="blurOut" stdDeviation="2.5"/><feColorMatrix in="blurOut" result="blurOut2" type="matrix" values="0 0 0 0 0 0 0 0 0 0 0 0 0 0 0 0 0 0 .4 0"/><feOffset dx="5.0" dy="5.0" in="blurOut2" result="blurOut3"/><feBlend in="SourceGraphic" in2="blurOut3" mode="normal"/></filter></defs><g><!--MD5=[8c0a1b052d1b0dc6eb29862f9d459289]
class RegisterFreelancerUI--><rect fill="#FEFECE" filter="url(#f1frz63fgzcg3x)" height="60" id="RegisterFreelancerUI" style="stroke: #A80036; stroke-width: 1.875;" width="187.5" x="591.25" y="10"/><ellipse cx="610" cy="30" fill="#ADD1B2" rx="13.75" ry="13.75" style="stroke: #A80036; stroke-width: 1.25;"/><path d="M612.5,25.625 Q612.7539,25 613.0469,24.6875 Q613.3398,24.375 613.6719,24.375 Q614.2578,24.375 614.6289,24.7266 Q615,25.0781 615,25.8984 L615,27.8516 Q615,28.6719 614.6484,29.0234 Q614.2969,29.375 613.75,29.375 Q613.2617,29.375 612.9492,29.1602 Q612.6367,28.9453 612.5,28.3789 Q612.4414,27.9883 612.2266,27.7734 Q611.8359,27.3633 611.1328,27.1289 Q610.4297,26.875 609.7266,26.875 Q608.8477,26.875 608.1055,27.2266 Q607.3828,27.5781 606.8164,28.3594 Q606.25,29.1406 606.25,30.2148 L606.25,31.3672 Q606.25,32.6563 607.3047,33.5156 Q608.3594,34.375 610.2344,34.375 Q611.3477,34.375 612.1289,34.1211 Q612.5781,33.9844 613.0859,33.5352 Q613.418,33.2813 613.5938,33.2031 Q613.7695,33.125 613.9844,33.125 Q614.3945,33.125 614.6875,33.457 Q615,33.7695 615,34.2188 Q615,34.6484 614.5703,35.1563 Q613.9453,35.8984 612.9492,36.3086 Q611.6406,36.875 610.0391,36.875 Q608.1641,36.875 606.6602,36.1328 Q605.4492,35.5469 604.5898,34.2773 Q603.75,33.0078 603.75,31.5039 L603.75,30.1367 Q603.75,28.5742 604.4922,27.207 Q605.2539,25.8398 606.5625,25.1172 Q607.8906,24.375 609.375,24.375 Q610.2734,24.375 611.0547,24.6875 Q611.8359,25 612.5,25.625 Z "/><text fill="#000000" font-family="sans-serif" font-size="15" lengthAdjust="spacingAndGlyphs" textLength="147.5" x="627.5" y="36.1377">RegisterFreelancerUI</text><line style="stroke: #A80036; stroke-width: 1.875;" x1="592.5" x2="777.5" y1="50" y2="50"/><line style="stroke: #A80036; stroke-width: 1.875;" x1="592.5" x2="777.5" y1="60" y2="60"/><!--MD5=[98ab5b16b76df8bafec1c77ae86b6459]
class RegisterFreelancerController--><rect fill="#FEFECE" filter="url(#f1frz63fgzcg3x)" height="94.5898" id="RegisterFreelancerController" style="stroke: #A80036; stroke-width: 1.875;" width="621.25" x="374.375" y="146.25"/><ellipse cx="579.6875" cy="166.25" fill="#ADD1B2" rx="13.75" ry="13.75" style="stroke: #A80036; stroke-width: 1.25;"/><path d="M582.1875,161.875 Q582.4414,161.25 582.7344,160.9375 Q583.0273,160.625 583.3594,160.625 Q583.9453,160.625 584.3164,160.9766 Q584.6875,161.3281 584.6875,162.1484 L584.6875,164.1016 Q584.6875,164.9219 584.3359,165.2734 Q583.9844,165.625 583.4375,165.625 Q582.9492,165.625 582.6367,165.4102 Q582.3242,165.1953 582.1875,164.6289 Q582.1289,164.2383 581.9141,164.0234 Q581.5234,163.6133 580.8203,163.3789 Q580.1172,163.125 579.4141,163.125 Q578.5352,163.125 577.793,163.4766 Q577.0703,163.8281 576.5039,164.6094 Q575.9375,165.3906 575.9375,166.4648 L575.9375,167.6172 Q575.9375,168.9063 576.9922,169.7656 Q578.0469,170.625 579.9219,170.625 Q581.0352,170.625 581.8164,170.3711 Q582.2656,170.2344 582.7734,169.7852 Q583.1055,169.5313 583.2813,169.4531 Q583.457,169.375 583.6719,169.375 Q584.082,169.375 584.375,169.707 Q584.6875,170.0195 584.6875,170.4688 Q584.6875,170.8984 584.2578,171.4063 Q583.6328,172.1484 582.6367,172.5586 Q581.3281,173.125 579.7266,173.125 Q577.8516,173.125 576.3477,172.3828 Q575.1367,171.7969 574.2773,170.5273 Q573.4375,169.2578 573.4375,167.7539 L573.4375,166.3867 Q573.4375,164.8242 574.1797,163.457 Q574.9414,162.0898 576.25,161.3672 Q577.5781,160.625 579.0625,160.625 Q579.9609,160.625 580.7422,160.9375 Q581.5234,161.25 582.1875,161.875 Z "/><text fill="#000000" font-family="sans-serif" font-size="15" lengthAdjust="spacingAndGlyphs" textLength="200" x="605.3125" y="172.3877">RegisterFreelancerController</text><line style="stroke: #A80036; stroke-width: 1.875;" x1="375.625" x2="994.375" y1="186.25" y2="186.25"/><line style="stroke: #A80036; stroke-width: 1.875;" x1="375.625" x2="994.375" y1="196.25" y2="196.25"/><text fill="#000000" font-family="sans-serif" font-size="13.75" lengthAdjust="spacingAndGlyphs" textLength="606.25" x="381.875" y="215.5237">+newFreelancer(id, name, level of expertise, e-mail, NIF, bank account (IBAN), address and country)</text><text fill="#000000" font-family="sans-serif" font-size="13.75" lengthAdjust="spacingAndGlyphs" textLength="116.25" x="381.875" y="232.8186">+registFreelancer()</text><!--MD5=[99b8db98afdc2c8404e39242ef4c1e65]
class Platform--><rect fill="#FEFECE" filter="url(#f1frz63fgzcg3x)" height="94.5898" id="Platform" style="stroke: #A80036; stroke-width: 1.875;" width="260" x="7.5" y="369.375"/><ellipse cx="103.4375" cy="389.375" fill="#ADD1B2" rx="13.75" ry="13.75" style="stroke: #A80036; stroke-width: 1.25;"/><path d="M105.9375,385 Q106.1914,384.375 106.4844,384.0625 Q106.7773,383.75 107.1094,383.75 Q107.6953,383.75 108.0664,384.1016 Q108.4375,384.4531 108.4375,385.2734 L108.4375,387.2266 Q108.4375,388.0469 108.0859,388.3984 Q107.7344,388.75 107.1875,388.75 Q106.6992,388.75 106.3867,388.5352 Q106.0742,388.3203 105.9375,387.7539 Q105.8789,387.3633 105.6641,387.1484 Q105.2734,386.7383 104.5703,386.5039 Q103.8672,386.25 103.1641,386.25 Q102.2852,386.25 101.543,386.6016 Q100.8203,386.9531 100.2539,387.7344 Q99.6875,388.5156 99.6875,389.5898 L99.6875,390.7422 Q99.6875,392.0313 100.7422,392.8906 Q101.7969,393.75 103.6719,393.75 Q104.7852,393.75 105.5664,393.4961 Q106.0156,393.3594 106.5234,392.9102 Q106.8555,392.6563 107.0313,392.5781 Q107.207,392.5 107.4219,392.5 Q107.832,392.5 108.125,392.832 Q108.4375,393.1445 108.4375,393.5938 Q108.4375,394.0234 108.0078,394.5313 Q107.3828,395.2734 106.3867,395.6836 Q105.0781,396.25 103.4766,396.25 Q101.6016,396.25 100.0977,395.5078 Q98.8867,394.9219 98.0273,393.6523 Q97.1875,392.3828 97.1875,390.8789 L97.1875,389.5117 Q97.1875,387.9492 97.9297,386.582 Q98.6914,385.2148 100,384.4922 Q101.3281,383.75 102.8125,383.75 Q103.7109,383.75 104.4922,384.0625 Q105.2734,384.375 105.9375,385 Z "/><text fill="#000000" font-family="sans-serif" font-size="15" lengthAdjust="spacingAndGlyphs" textLength="57.5" x="129.0625" y="395.5127">Platform</text><line style="stroke: #A80036; stroke-width: 1.875;" x1="8.75" x2="266.25" y1="409.375" y2="409.375"/><text fill="#000000" font-family="sans-serif" font-size="13.75" lengthAdjust="spacingAndGlyphs" textLength="112.5" x="15" y="428.6487">-String designation</text><line style="stroke: #A80036; stroke-width: 1.875;" x1="8.75" x2="266.25" y1="436.6699" y2="436.6699"/><text fill="#000000" font-family="sans-serif" font-size="13.75" lengthAdjust="spacingAndGlyphs" textLength="245" x="15" y="455.9436">+RegistFreelancer getRegistFreelancer()</text><!--MD5=[eba5144af5135a87840971fc4358c553]
class RegistFreelancer--><rect fill="#FEFECE" filter="url(#f1frz63fgzcg3x)" height="129.1797" id="RegistFreelancer" style="stroke: #A80036; stroke-width: 1.875;" width="690" x="340" y="352.5"/><ellipse cx="620.3125" cy="372.5" fill="#ADD1B2" rx="13.75" ry="13.75" style="stroke: #A80036; stroke-width: 1.25;"/><path d="M622.8125,368.125 Q623.0664,367.5 623.3594,367.1875 Q623.6523,366.875 623.9844,366.875 Q624.5703,366.875 624.9414,367.2266 Q625.3125,367.5781 625.3125,368.3984 L625.3125,370.3516 Q625.3125,371.1719 624.9609,371.5234 Q624.6094,371.875 624.0625,371.875 Q623.5742,371.875 623.2617,371.6602 Q622.9492,371.4453 622.8125,370.8789 Q622.7539,370.4883 622.5391,370.2734 Q622.1484,369.8633 621.4453,369.6289 Q620.7422,369.375 620.0391,369.375 Q619.1602,369.375 618.418,369.7266 Q617.6953,370.0781 617.1289,370.8594 Q616.5625,371.6406 616.5625,372.7148 L616.5625,373.8672 Q616.5625,375.1563 617.6172,376.0156 Q618.6719,376.875 620.5469,376.875 Q621.6602,376.875 622.4414,376.6211 Q622.8906,376.4844 623.3984,376.0352 Q623.7305,375.7813 623.9063,375.7031 Q624.082,375.625 624.2969,375.625 Q624.707,375.625 625,375.957 Q625.3125,376.2695 625.3125,376.7188 Q625.3125,377.1484 624.8828,377.6563 Q624.2578,378.3984 623.2617,378.8086 Q621.9531,379.375 620.3516,379.375 Q618.4766,379.375 616.9727,378.6328 Q615.7617,378.0469 614.9023,376.7773 Q614.0625,375.5078 614.0625,374.0039 L614.0625,372.6367 Q614.0625,371.0742 614.8047,369.707 Q615.5664,368.3398 616.875,367.6172 Q618.2031,366.875 619.6875,366.875 Q620.5859,366.875 621.3672,367.1875 Q622.1484,367.5 622.8125,368.125 Z "/><text fill="#000000" font-family="sans-serif" font-size="15" lengthAdjust="spacingAndGlyphs" textLength="118.75" x="645.9375" y="378.6377">RegistFreelancer</text><line style="stroke: #A80036; stroke-width: 1.875;" x1="341.25" x2="1028.75" y1="392.5" y2="392.5"/><line style="stroke: #A80036; stroke-width: 1.875;" x1="341.25" x2="1028.75" y1="402.5" y2="402.5"/><text fill="#000000" font-family="sans-serif" font-size="13.75" lengthAdjust="spacingAndGlyphs" textLength="675" x="347.5" y="421.7737">+Freelancer newFreelancer(id, name, level of expertise, e-mail, NIF, bank account (IBAN), address and country)</text><text fill="#000000" font-family="sans-serif" font-size="13.75" lengthAdjust="spacingAndGlyphs" textLength="178.75" x="347.5" y="439.0686">+registFreelancer(freelancer)</text><text fill="#000000" font-family="sans-serif" font-size="13.75" lengthAdjust="spacingAndGlyphs" textLength="201.25" x="347.5" y="456.3635">+validationFreelancer(freelancer)</text><text fill="#000000" font-family="sans-serif" font-size="13.75" lengthAdjust="spacingAndGlyphs" textLength="167.5" x="347.5" y="473.6584">+addFreelancer(freelancer)</text><!--MD5=[1f687b5315377fe49fca59b457947463]
class Freelancer--><rect fill="#FEFECE" filter="url(#f1frz63fgzcg3x)" height="198.3594" id="Freelancer" style="stroke: #A80036; stroke-width: 1.875;" width="593.75" x="1164.375" y="317.5"/><ellipse cx="1419.0625" cy="337.5" fill="#ADD1B2" rx="13.75" ry="13.75" style="stroke: #A80036; stroke-width: 1.25;"/><path d="M1421.5625,333.125 Q1421.8164,332.5 1422.1094,332.1875 Q1422.4023,331.875 1422.7344,331.875 Q1423.3203,331.875 1423.6914,332.2266 Q1424.0625,332.5781 1424.0625,333.3984 L1424.0625,335.3516 Q1424.0625,336.1719 1423.7109,336.5234 Q1423.3594,336.875 1422.8125,336.875 Q1422.3242,336.875 1422.0117,336.6602 Q1421.6992,336.4453 1421.5625,335.8789 Q1421.5039,335.4883 1421.2891,335.2734 Q1420.8984,334.8633 1420.1953,334.6289 Q1419.4922,334.375 1418.7891,334.375 Q1417.9102,334.375 1417.168,334.7266 Q1416.4453,335.0781 1415.8789,335.8594 Q1415.3125,336.6406 1415.3125,337.7148 L1415.3125,338.8672 Q1415.3125,340.1563 1416.3672,341.0156 Q1417.4219,341.875 1419.2969,341.875 Q1420.4102,341.875 1421.1914,341.6211 Q1421.6406,341.4844 1422.1484,341.0352 Q1422.4805,340.7813 1422.6563,340.7031 Q1422.832,340.625 1423.0469,340.625 Q1423.457,340.625 1423.75,340.957 Q1424.0625,341.2695 1424.0625,341.7188 Q1424.0625,342.1484 1423.6328,342.6563 Q1423.0078,343.3984 1422.0117,343.8086 Q1420.7031,344.375 1419.1016,344.375 Q1417.2266,344.375 1415.7227,343.6328 Q1414.5117,343.0469 1413.6523,341.7773 Q1412.8125,340.5078 1412.8125,339.0039 L1412.8125,337.6367 Q1412.8125,336.0742 1413.5547,334.707 Q1414.3164,333.3398 1415.625,332.6172 Q1416.9531,331.875 1418.4375,331.875 Q1419.3359,331.875 1420.1172,332.1875 Q1420.8984,332.5 1421.5625,333.125 Z "/><text fill="#000000" font-family="sans-serif" font-size="15" lengthAdjust="spacingAndGlyphs" textLength="73.75" x="1444.6875" y="343.6377">Freelancer</text><line style="stroke: #A80036; stroke-width: 1.875;" x1="1165.625" x2="1756.875" y1="357.5" y2="357.5"/><text fill="#000000" font-family="sans-serif" font-size="13.75" lengthAdjust="spacingAndGlyphs" textLength="53.75" x="1171.875" y="376.7737">-String id</text><text fill="#000000" font-family="sans-serif" font-size="13.75" lengthAdjust="spacingAndGlyphs" textLength="76.25" x="1171.875" y="394.0686">-String name</text><text fill="#000000" font-family="sans-serif" font-size="13.75" lengthAdjust="spacingAndGlyphs" textLength="142.5" x="1171.875" y="411.3635">-String levelOfExpertise</text><text fill="#000000" font-family="sans-serif" font-size="13.75" lengthAdjust="spacingAndGlyphs" textLength="62.5" x="1171.875" y="428.6584">-String NIF</text><text fill="#000000" font-family="sans-serif" font-size="13.75" lengthAdjust="spacingAndGlyphs" textLength="153.75" x="1171.875" y="445.9534">-String bankAccountIBAN</text><text fill="#000000" font-family="sans-serif" font-size="13.75" lengthAdjust="spacingAndGlyphs" textLength="93.75" x="1171.875" y="463.2483">-String address</text><text fill="#000000" font-family="sans-serif" font-size="13.75" lengthAdjust="spacingAndGlyphs" textLength="90" x="1171.875" y="480.5432">-String country</text><line style="stroke: #A80036; stroke-width: 1.875;" x1="1165.625" x2="1756.875" y1="488.5645" y2="488.5645"/><text fill="#000000" font-family="sans-serif" font-size="13.75" lengthAdjust="spacingAndGlyphs" textLength="578.75" x="1171.875" y="507.8381">+Freelancer(id, name, level of expertise, e-mail, NIF, bank account (IBAN), address and country)</text><!--MD5=[e15b53ec274e70a190c6400a3b603543]
link RegisterFreelancerUI to RegisterFreelancerController--><path d="M685,70.055 C685,89.6413 685,116.135 685,139.4688 " fill="none" id="RegisterFreelancerUI-&gt;RegisterFreelancerController" style="stroke: #A80036; stroke-width: 1.25; stroke-dasharray: 7.0,7.0;"/><polygon fill="#A80036" points="685,145.9588,690,134.7088,685,139.7088,680,134.7088,685,145.9588" style="stroke: #A80036; stroke-width: 1.25;"/><!--MD5=[03614540c7cc936fb08a9f3774f6e355]
link RegisterFreelancerController to RegistFreelancer--><path d="M685,241.25 C685,271.5825 685,311.805 685,345.975 " fill="none" id="RegisterFreelancerController-&gt;RegistFreelancer" style="stroke: #A80036; stroke-width: 1.25; stroke-dasharray: 7.0,7.0;"/><polygon fill="#A80036" points="685,352.2813,690,341.0313,685,346.0313,680,341.0313,685,352.2813" style="stroke: #A80036; stroke-width: 1.25;"/><!--MD5=[95c1d6a713735939afe52f296abf7914]
link RegisterFreelancerController to Freelancer--><path d="M847.7275,241.25 C937.63,266.8025 1052.2238,299.3713 1157.9788,329.43 " fill="none" id="RegisterFreelancerController-&gt;Freelancer" style="stroke: #A80036; stroke-width: 1.25; stroke-dasharray: 7.0,7.0;"/><polygon fill="#A80036" points="1164.2888,331.2225,1154.8344,323.3372,1158.2769,329.5137,1152.1004,332.9562,1164.2888,331.2225" style="stroke: #A80036; stroke-width: 1.25;"/><!--MD5=[3527abece0f63d4bc1c2480af2924c67]
link RegisterFreelancerController to Platform--><path d="M525.7688,241.2863 C460.2663,262.0662 384.255,288.4525 317.5,317.5 C285.0863,331.6038 250.7313,349.5338 220.8188,366.1975 " fill="none" id="RegisterFreelancerController-&gt;Platform" style="stroke: #A80036; stroke-width: 1.25; stroke-dasharray: 7.0,7.0;"/><polygon fill="#A80036" points="215.2863,369.2938,227.5453,368.1633,220.7404,366.2417,222.662,359.4367,215.2863,369.2938" style="stroke: #A80036; stroke-width: 1.25;"/><!--MD5=[736896ddd0b2c15ea62844344f935c15]
link Platform to RegistFreelancer--><path d="M267.5975,416.875 C288.2663,416.875 310.4588,416.875 333.4513,416.875 " fill="none" id="Platform-&gt;RegistFreelancer" style="stroke: #A80036; stroke-width: 1.25;"/><polygon fill="#A80036" points="339.9562,416.875,328.7062,411.875,333.7062,416.875,328.7062,421.875,339.9562,416.875" style="stroke: #A80036; stroke-width: 1.25;"/><text fill="#000000" font-family="sans-serif" font-size="16.25" lengthAdjust="spacingAndGlyphs" textLength="26.25" x="290.625" y="408.7439">has</text><text fill="#000000" font-family="sans-serif" font-size="16.25" lengthAdjust="spacingAndGlyphs" textLength="8.75" x="277.4728" y="413.0407">1</text><text fill="#000000" font-family="sans-serif" font-size="16.25" lengthAdjust="spacingAndGlyphs" textLength="8.75" x="320.8329" y="413.4472">1</text><!--MD5=[12a648b87e57a40b1492f312537407ab]
link RegistFreelancer to Freelancer--><path d="M1030.56,416.875 C1072.8075,416.875 1115.735,416.875 1157.3088,416.875 " fill="none" id="RegistFreelancer-&gt;Freelancer" style="stroke: #A80036; stroke-width: 1.25;"/><polygon fill="#A80036" points="1163.9688,416.875,1152.7188,411.875,1157.7188,416.875,1152.7188,421.875,1163.9688,416.875" style="stroke: #A80036; stroke-width: 1.25;"/><text fill="#000000" font-family="sans-serif" font-size="16.25" lengthAdjust="spacingAndGlyphs" textLength="88.75" x="1052.8125" y="408.7439">has registed</text><text fill="#000000" font-family="sans-serif" font-size="16.25" lengthAdjust="spacingAndGlyphs" textLength="8.75" x="1039.8551" y="413.4784">1</text><text fill="#000000" font-family="sans-serif" font-size="16.25" lengthAdjust="spacingAndGlyphs" textLength="6.25" x="1147.8617" y="413.4294">*</text><!--MD5=[c4176fcb9cb8be45a2e5522f00a74160]
@startuml
skinparam classAttributeIconSize 0
top to bottom direction

class RegisterFreelancerUI{
}

class RegisterFreelancerController{
    +newFreelancer(id, name, level of expertise, e-mail, NIF, bank account (IBAN), address and country)
    +registFreelancer()

}

class Platform{
    -String designation

    +RegistFreelancer getRegistFreelancer()
}

class RegistFreelancer{
    +Freelancer newFreelancer(id, name, level of expertise, e-mail, NIF, bank account (IBAN), address and country)
    +registFreelancer(freelancer)
    +validationFreelancer(freelancer)
    +addFreelancer(freelancer)
}

class Freelancer{
     -String id
     -String name
     -String levelOfExpertise
     -String NIF
     -String bankAccountIBAN
     -String address
     -String country

     +Freelancer(id, name, level of expertise, e-mail, NIF, bank account (IBAN), address and country)
}


RegisterFreelancerUI ..> RegisterFreelancerController

RegisterFreelancerController ..> RegistFreelancer
RegisterFreelancerController ..> Freelancer
RegisterFreelancerController ..> Platform

Platform "1" -> "1" RegistFreelancer : has

RegistFreelancer "1" -> "*" Freelancer : has registed



@enduml

PlantUML version 1.2020.09(Sun May 10 11:51:06 BST 2020)
(GPL source distribution)
Java Runtime: OpenJDK Runtime Environment
JVM: OpenJDK 64-Bit Server VM
Java Version: 11.0.6+8-b765.40
Operating System: Windows 10
Default Encoding: Cp1252
Language: pt
Country: PT
--></g></svg>