<?xml version="1.0" encoding="UTF-8" standalone="no"?><svg xmlns="http://www.w3.org/2000/svg" xmlns:xlink="http://www.w3.org/1999/xlink" contentScriptType="application/ecmascript" contentStyleType="text/css" height="228.75px" preserveAspectRatio="none" style="width:935px;height:228px;" version="1.1" viewBox="0 0 935 228" width="935px" zoomAndPan="magnify"><defs><filter height="300%" id="f1j5t86p3b0qne" width="300%" x="-1" y="-1"><feGaussianBlur result="blurOut" stdDeviation="2.5"/><feColorMatrix in="blurOut" result="blurOut2" type="matrix" values="0 0 0 0 0 0 0 0 0 0 0 0 0 0 0 0 0 0 .4 0"/><feOffset dx="5.0" dy="5.0" in="blurOut2" result="blurOut3"/><feBlend in="SourceGraphic" in2="blurOut3" mode="normal"/></filter></defs><g><!--MD5=[99b8db98afdc2c8404e39242ef4c1e65]
class Platform--><rect fill="#FEFECE" filter="url(#f1j5t86p3b0qne)" height="67.2949" id="Platform" style="stroke: #A80036; stroke-width: 1.875;" width="127.5" x="7.5" y="71.25"/><ellipse cx="39.75" cy="91.25" fill="#ADD1B2" rx="13.75" ry="13.75" style="stroke: #A80036; stroke-width: 1.25;"/><path d="M42.25,86.875 Q42.5039,86.25 42.7969,85.9375 Q43.0898,85.625 43.4219,85.625 Q44.0078,85.625 44.3789,85.9766 Q44.75,86.3281 44.75,87.1484 L44.75,89.1016 Q44.75,89.9219 44.3984,90.2734 Q44.0469,90.625 43.5,90.625 Q43.0117,90.625 42.6992,90.4102 Q42.3867,90.1953 42.25,89.6289 Q42.1914,89.2383 41.9766,89.0234 Q41.5859,88.6133 40.8828,88.3789 Q40.1797,88.125 39.4766,88.125 Q38.5977,88.125 37.8555,88.4766 Q37.1328,88.8281 36.5664,89.6094 Q36,90.3906 36,91.4648 L36,92.6172 Q36,93.9063 37.0547,94.7656 Q38.1094,95.625 39.9844,95.625 Q41.0977,95.625 41.8789,95.3711 Q42.3281,95.2344 42.8359,94.7852 Q43.168,94.5313 43.3438,94.4531 Q43.5195,94.375 43.7344,94.375 Q44.1445,94.375 44.4375,94.707 Q44.75,95.0195 44.75,95.4688 Q44.75,95.8984 44.3203,96.4063 Q43.6953,97.1484 42.6992,97.5586 Q41.3906,98.125 39.7891,98.125 Q37.9141,98.125 36.4102,97.3828 Q35.1992,96.7969 34.3398,95.5273 Q33.5,94.2578 33.5,92.7539 L33.5,91.3867 Q33.5,89.8242 34.2422,88.457 Q35.0039,87.0898 36.3125,86.3672 Q37.6406,85.625 39.125,85.625 Q40.0234,85.625 40.8047,85.9375 Q41.5859,86.25 42.25,86.875 Z "/><text fill="#000000" font-family="sans-serif" font-size="15" lengthAdjust="spacingAndGlyphs" textLength="57.5" x="60.25" y="97.3877">Platform</text><line style="stroke: #A80036; stroke-width: 1.875;" x1="8.75" x2="133.75" y1="111.25" y2="111.25"/><text fill="#000000" font-family="sans-serif" font-size="13.75" lengthAdjust="spacingAndGlyphs" textLength="112.5" x="15" y="130.5237">-String designation</text><!--MD5=[f483d6e5de34a60207b28a5563be5e8b]
class Collaborator--><rect fill="#FEFECE" filter="url(#f1j5t86p3b0qne)" height="84.5898" id="Collaborator" style="stroke: #A80036; stroke-width: 1.875;" width="125" x="501.25" y="131.25"/><ellipse cx="520" cy="151.25" fill="#ADD1B2" rx="13.75" ry="13.75" style="stroke: #A80036; stroke-width: 1.25;"/><path d="M522.5,146.875 Q522.7539,146.25 523.0469,145.9375 Q523.3398,145.625 523.6719,145.625 Q524.2578,145.625 524.6289,145.9766 Q525,146.3281 525,147.1484 L525,149.1016 Q525,149.9219 524.6484,150.2734 Q524.2969,150.625 523.75,150.625 Q523.2617,150.625 522.9492,150.4102 Q522.6367,150.1953 522.5,149.6289 Q522.4414,149.2383 522.2266,149.0234 Q521.8359,148.6133 521.1328,148.3789 Q520.4297,148.125 519.7266,148.125 Q518.8477,148.125 518.1055,148.4766 Q517.3828,148.8281 516.8164,149.6094 Q516.25,150.3906 516.25,151.4648 L516.25,152.6172 Q516.25,153.9063 517.3047,154.7656 Q518.3594,155.625 520.2344,155.625 Q521.3477,155.625 522.1289,155.3711 Q522.5781,155.2344 523.0859,154.7852 Q523.418,154.5313 523.5938,154.4531 Q523.7695,154.375 523.9844,154.375 Q524.3945,154.375 524.6875,154.707 Q525,155.0195 525,155.4688 Q525,155.8984 524.5703,156.4063 Q523.9453,157.1484 522.9492,157.5586 Q521.6406,158.125 520.0391,158.125 Q518.1641,158.125 516.6602,157.3828 Q515.4492,156.7969 514.5898,155.5273 Q513.75,154.2578 513.75,152.7539 L513.75,151.3867 Q513.75,149.8242 514.4922,148.457 Q515.2539,147.0898 516.5625,146.3672 Q517.8906,145.625 519.375,145.625 Q520.2734,145.625 521.0547,145.9375 Q521.8359,146.25 522.5,146.875 Z "/><text fill="#000000" font-family="sans-serif" font-size="15" lengthAdjust="spacingAndGlyphs" textLength="85" x="537.5" y="157.3877">Collaborator</text><line style="stroke: #A80036; stroke-width: 1.875;" x1="502.5" x2="625" y1="171.25" y2="171.25"/><text fill="#000000" font-family="sans-serif" font-size="13.75" lengthAdjust="spacingAndGlyphs" textLength="76.25" x="508.75" y="190.5237">-String name</text><text fill="#000000" font-family="sans-serif" font-size="13.75" lengthAdjust="spacingAndGlyphs" textLength="73.75" x="508.75" y="207.8186">-String email</text><!--MD5=[1f687b5315377fe49fca59b457947463]
class Freelancer--><rect fill="#FEFECE" filter="url(#f1j5t86p3b0qne)" height="188.3594" id="Freelancer" style="stroke: #A80036; stroke-width: 1.875;" width="168.75" x="752.5" y="10.625"/><ellipse cx="796" cy="30.625" fill="#ADD1B2" rx="13.75" ry="13.75" style="stroke: #A80036; stroke-width: 1.25;"/><path d="M798.5,26.25 Q798.7539,25.625 799.0469,25.3125 Q799.3398,25 799.6719,25 Q800.2578,25 800.6289,25.3516 Q801,25.7031 801,26.5234 L801,28.4766 Q801,29.2969 800.6484,29.6484 Q800.2969,30 799.75,30 Q799.2617,30 798.9492,29.7852 Q798.6367,29.5703 798.5,29.0039 Q798.4414,28.6133 798.2266,28.3984 Q797.8359,27.9883 797.1328,27.7539 Q796.4297,27.5 795.7266,27.5 Q794.8477,27.5 794.1055,27.8516 Q793.3828,28.2031 792.8164,28.9844 Q792.25,29.7656 792.25,30.8398 L792.25,31.9922 Q792.25,33.2813 793.3047,34.1406 Q794.3594,35 796.2344,35 Q797.3477,35 798.1289,34.7461 Q798.5781,34.6094 799.0859,34.1602 Q799.418,33.9063 799.5938,33.8281 Q799.7695,33.75 799.9844,33.75 Q800.3945,33.75 800.6875,34.082 Q801,34.3945 801,34.8438 Q801,35.2734 800.5703,35.7813 Q799.9453,36.5234 798.9492,36.9336 Q797.6406,37.5 796.0391,37.5 Q794.1641,37.5 792.6602,36.7578 Q791.4492,36.1719 790.5898,34.9023 Q789.75,33.6328 789.75,32.1289 L789.75,30.7617 Q789.75,29.1992 790.4922,27.832 Q791.2539,26.4648 792.5625,25.7422 Q793.8906,25 795.375,25 Q796.2734,25 797.0547,25.3125 Q797.8359,25.625 798.5,26.25 Z "/><text fill="#000000" font-family="sans-serif" font-size="15" lengthAdjust="spacingAndGlyphs" textLength="73.75" x="819" y="36.7627">Freelancer</text><line style="stroke: #A80036; stroke-width: 1.875;" x1="753.75" x2="920" y1="50.625" y2="50.625"/><text fill="#000000" font-family="sans-serif" font-size="13.75" lengthAdjust="spacingAndGlyphs" textLength="53.75" x="760" y="69.8987">-String id</text><text fill="#000000" font-family="sans-serif" font-size="13.75" lengthAdjust="spacingAndGlyphs" textLength="76.25" x="760" y="87.1936">-String name</text><text fill="#000000" font-family="sans-serif" font-size="13.75" lengthAdjust="spacingAndGlyphs" textLength="142.5" x="760" y="104.4885">-String levelOfExpertise</text><text fill="#000000" font-family="sans-serif" font-size="13.75" lengthAdjust="spacingAndGlyphs" textLength="73.75" x="760" y="121.7834">-String email</text><text fill="#000000" font-family="sans-serif" font-size="13.75" lengthAdjust="spacingAndGlyphs" textLength="62.5" x="760" y="139.0784">-String NIF</text><text fill="#000000" font-family="sans-serif" font-size="13.75" lengthAdjust="spacingAndGlyphs" textLength="153.75" x="760" y="156.3733">-String bankAccountIBAN</text><text fill="#000000" font-family="sans-serif" font-size="13.75" lengthAdjust="spacingAndGlyphs" textLength="93.75" x="760" y="173.6682">-String address</text><text fill="#000000" font-family="sans-serif" font-size="13.75" lengthAdjust="spacingAndGlyphs" textLength="90" x="760" y="190.9631">-String country</text><!--MD5=[86c7c362de55a38b660185a1328fe18d]
class Organization--><rect fill="#FEFECE" filter="url(#f1j5t86p3b0qne)" height="84.5898" id="Organization" style="stroke: #A80036; stroke-width: 1.875;" width="126.25" x="255" y="131.25"/><ellipse cx="273.75" cy="151.25" fill="#ADD1B2" rx="13.75" ry="13.75" style="stroke: #A80036; stroke-width: 1.25;"/><path d="M276.25,146.875 Q276.5039,146.25 276.7969,145.9375 Q277.0898,145.625 277.4219,145.625 Q278.0078,145.625 278.3789,145.9766 Q278.75,146.3281 278.75,147.1484 L278.75,149.1016 Q278.75,149.9219 278.3984,150.2734 Q278.0469,150.625 277.5,150.625 Q277.0117,150.625 276.6992,150.4102 Q276.3867,150.1953 276.25,149.6289 Q276.1914,149.2383 275.9766,149.0234 Q275.5859,148.6133 274.8828,148.3789 Q274.1797,148.125 273.4766,148.125 Q272.5977,148.125 271.8555,148.4766 Q271.1328,148.8281 270.5664,149.6094 Q270,150.3906 270,151.4648 L270,152.6172 Q270,153.9063 271.0547,154.7656 Q272.1094,155.625 273.9844,155.625 Q275.0977,155.625 275.8789,155.3711 Q276.3281,155.2344 276.8359,154.7852 Q277.168,154.5313 277.3438,154.4531 Q277.5195,154.375 277.7344,154.375 Q278.1445,154.375 278.4375,154.707 Q278.75,155.0195 278.75,155.4688 Q278.75,155.8984 278.3203,156.4063 Q277.6953,157.1484 276.6992,157.5586 Q275.3906,158.125 273.7891,158.125 Q271.9141,158.125 270.4102,157.3828 Q269.1992,156.7969 268.3398,155.5273 Q267.5,154.2578 267.5,152.7539 L267.5,151.3867 Q267.5,149.8242 268.2422,148.457 Q269.0039,147.0898 270.3125,146.3672 Q271.6406,145.625 273.125,145.625 Q274.0234,145.625 274.8047,145.9375 Q275.5859,146.25 276.25,146.875 Z "/><text fill="#000000" font-family="sans-serif" font-size="15" lengthAdjust="spacingAndGlyphs" textLength="86.25" x="291.25" y="157.3877">Organization</text><line style="stroke: #A80036; stroke-width: 1.875;" x1="256.25" x2="380" y1="171.25" y2="171.25"/><text fill="#000000" font-family="sans-serif" font-size="13.75" lengthAdjust="spacingAndGlyphs" textLength="76.25" x="262.5" y="190.5237">-String name</text><text fill="#000000" font-family="sans-serif" font-size="13.75" lengthAdjust="spacingAndGlyphs" textLength="62.5" x="262.5" y="207.8186">-String NIF</text><!--MD5=[22697d4d863c2e08ab1d60ca0d61f844]
link Platform to Freelancer--><path d="M135.4363,102.28 C147.725,101.8506 160.515,101.4746 172.5,101.25 C192.4963,100.8753 197.5,101.1894 217.5,101.25 C408.7888,101.8303 633.3713,103.4205 752.1438,104.333 " fill="none" id="Platform-Freelancer" style="stroke: #A80036; stroke-width: 1.25;"/><text fill="#000000" font-family="sans-serif" font-size="16.25" lengthAdjust="spacingAndGlyphs" textLength="26.25" x="420" y="98.1189">has</text><polygon fill="#000000" points="450,89.5947,457.5,93.3447,450,97.0947,450,89.5947" style="stroke: #000000; stroke-width: 1.25;"/><text fill="#000000" font-family="sans-serif" font-size="16.25" lengthAdjust="spacingAndGlyphs" textLength="8.75" x="145.0777" y="120.218">1</text><text fill="#000000" font-family="sans-serif" font-size="16.25" lengthAdjust="spacingAndGlyphs" textLength="6.25" x="736.2845" y="122.2681">*</text><!--MD5=[7640e466c042ba2d6f9c19c816f7f0fc]
link Platform to Organization--><path d="M135.115,122.6155 C171.8838,132.9595 218.18,145.9841 254.8463,156.2994 " fill="none" id="Platform-Organization" style="stroke: #A80036; stroke-width: 1.25;"/><text fill="#000000" font-family="sans-serif" font-size="16.25" lengthAdjust="spacingAndGlyphs" textLength="26.25" x="173.75" y="129.3689">has</text><polygon fill="#000000" points="203.75,120.8447,211.25,124.5947,203.75,128.3447,203.75,120.8447" style="stroke: #000000; stroke-width: 1.25;"/><text fill="#000000" font-family="sans-serif" font-size="16.25" lengthAdjust="spacingAndGlyphs" textLength="8.75" x="145.1378" y="143.5878">1</text><text fill="#000000" font-family="sans-serif" font-size="16.25" lengthAdjust="spacingAndGlyphs" textLength="6.25" x="238.8432" y="172.1364">*</text><!--MD5=[45817597bcd7048073a670d966abfd17]
link Organization to Collaborator--><path d="M381.355,173.75 C418.0738,173.75 464.43,173.75 501.055,173.75 " fill="none" id="Organization-Collaborator" style="stroke: #A80036; stroke-width: 1.25;"/><text fill="#000000" font-family="sans-serif" font-size="16.25" lengthAdjust="spacingAndGlyphs" textLength="26.25" x="420" y="169.3689">has</text><polygon fill="#000000" points="450,160.8447,457.5,164.5947,450,168.3447,450,160.8447" style="stroke: #000000; stroke-width: 1.25;"/><text fill="#000000" font-family="sans-serif" font-size="16.25" lengthAdjust="spacingAndGlyphs" textLength="8.75" x="391.2845" y="192.15">1</text><text fill="#000000" font-family="sans-serif" font-size="16.25" lengthAdjust="spacingAndGlyphs" textLength="8.75" x="482.4541" y="192.15">1</text><!--MD5=[d2c3650dbd07e79cdad2ffd4a879dec6]
link Collaborator to Freelancer--><path d="M626.4088,158.1495 C663.6813,148.681 711.7438,136.471 752.4025,126.1421 " fill="none" id="Collaborator-Freelancer" style="stroke: #A80036; stroke-width: 1.25;"/><text fill="#000000" font-family="sans-serif" font-size="16.25" lengthAdjust="spacingAndGlyphs" textLength="48.75" x="665" y="133.1189">regists</text><text fill="#000000" font-family="sans-serif" font-size="16.25" lengthAdjust="spacingAndGlyphs" textLength="8.75" x="636.2543" y="174.2582">1</text><text fill="#000000" font-family="sans-serif" font-size="16.25" lengthAdjust="spacingAndGlyphs" textLength="6.25" x="736.024" y="146.6598">*</text><!--MD5=[8aac51c488410024fd660a888fc1cf00]
@startuml
skinparam classAttributeIconSize 0
hide methods
left to right direction

class Platform {
  -String designation
}

class Collaborator{
   -String name
   -String email
}
class Freelancer {
  -String id
  -String name
  -String levelOfExpertise
  -String email
  -String NIF
  -String bankAccountIBAN
  -String address
  -String country
}

class Organization{
  -String name
  -String NIF
}


Platform "1" - - "*" Freelancer : has  >
Platform "1" - - "*" Organization : has >
Organization "1" - - "1" Collaborator : has >
Collaborator "1" - - "*" Freelancer : regists



@enduml

PlantUML version 1.2020.09(Sun May 10 11:51:06 BST 2020)
(GPL source distribution)
Java Runtime: OpenJDK Runtime Environment
JVM: OpenJDK 64-Bit Server VM
Java Version: 11.0.6+8-b765.40
Operating System: Windows 10
Default Encoding: Cp1252
Language: pt
Country: PT
--></g></svg>