<?xml version="1.0" encoding="UTF-8" standalone="no"?><svg xmlns="http://www.w3.org/2000/svg" xmlns:xlink="http://www.w3.org/1999/xlink" contentScriptType="application/ecmascript" contentStyleType="text/css" height="610.4px" preserveAspectRatio="none" style="width:2032px;height:610px;" version="1.1" viewBox="0 0 2032 610" width="2032.8px" zoomAndPan="magnify"><defs><filter height="300%" id="fntclnytowmf3" width="300%" x="-1" y="-1"><feGaussianBlur result="blurOut" stdDeviation="2.8"/><feColorMatrix in="blurOut" result="blurOut2" type="matrix" values="0 0 0 0 0 0 0 0 0 0 0 0 0 0 0 0 0 0 .4 0"/><feOffset dx="5.6" dy="5.6" in="blurOut2" result="blurOut3"/><feBlend in="SourceGraphic" in2="blurOut3" mode="normal"/></filter></defs><g><!--MD5=[99b8db98afdc2c8404e39242ef4c1e65]
class Platform--><rect fill="#FEFECE" filter="url(#fntclnytowmf3)" height="125.3109" id="Platform" style="stroke: #A80036; stroke-width: 2.0999999999999996;" width="196" x="8.4" y="29.4"/><ellipse cx="68.46" cy="51.8" fill="#ADD1B2" rx="15.4" ry="15.4" style="stroke: #A80036; stroke-width: 1.4;"/><path d="M71.26,46.9 Q71.5444,46.2 71.8725,45.85 Q72.2006,45.5 72.5725,45.5 Q73.2287,45.5 73.6444,45.8938 Q74.06,46.2875 74.06,47.2063 L74.06,49.3938 Q74.06,50.3125 73.6662,50.7063 Q73.2725,51.1 72.66,51.1 Q72.1131,51.1 71.7631,50.8594 Q71.4131,50.6188 71.26,49.9844 Q71.1944,49.5469 70.9538,49.3063 Q70.5163,48.8469 69.7287,48.5844 Q68.9413,48.3 68.1537,48.3 Q67.1694,48.3 66.3381,48.6937 Q65.5287,49.0875 64.8944,49.9625 Q64.26,50.8375 64.26,52.0406 L64.26,53.3313 Q64.26,54.775 65.4413,55.7375 Q66.6225,56.7 68.7225,56.7 Q69.9694,56.7 70.8444,56.4156 Q71.3475,56.2625 71.9162,55.7594 Q72.2881,55.475 72.485,55.3875 Q72.6819,55.3 72.9225,55.3 Q73.3819,55.3 73.71,55.6719 Q74.06,56.0219 74.06,56.525 Q74.06,57.0062 73.5788,57.575 Q72.8788,58.4062 71.7631,58.8656 Q70.2975,59.5 68.5038,59.5 Q66.4037,59.5 64.7194,58.6687 Q63.3631,58.0125 62.4006,56.5906 Q61.46,55.1687 61.46,53.4844 L61.46,51.9531 Q61.46,50.2031 62.2912,48.6719 Q63.1444,47.1406 64.61,46.3313 Q66.0975,45.5 67.76,45.5 Q68.7663,45.5 69.6413,45.85 Q70.5163,46.2 71.26,46.9 Z "/><text fill="#000000" font-family="sans-serif" font-size="16.8" lengthAdjust="spacingAndGlyphs" textLength="64.4" x="96.74" y="58.6742">Platform</text><line style="stroke: #A80036; stroke-width: 2.0999999999999996;" x1="9.8" x2="203" y1="74.2" y2="74.2"/><rect fill="none" height="8.4" style="stroke: #C82930; stroke-width: 1.4;" width="8.4" x="19.6" y="85.4"/><text fill="#000000" font-family="sans-serif" font-size="15.4" lengthAdjust="spacingAndGlyphs" textLength="120.4" x="36.4" y="95.7865">String designation</text><line style="stroke: #A80036; stroke-width: 2.0999999999999996;" x1="9.8" x2="203" y1="104.7703" y2="104.7703"/><ellipse cx="23.8" cy="120.1703" fill="#84BE84" rx="4.2" ry="4.2" style="stroke: #038048; stroke-width: 1.4;"/><text fill="#000000" font-family="sans-serif" font-size="15.4" lengthAdjust="spacingAndGlyphs" textLength="147" x="36.4" y="126.3568">getRegistFreelancer()</text><ellipse cx="23.8" cy="139.5406" fill="#84BE84" rx="4.2" ry="4.2" style="stroke: #038048; stroke-width: 1.4;"/><text fill="#000000" font-family="sans-serif" font-size="15.4" lengthAdjust="spacingAndGlyphs" textLength="159.6" x="36.4" y="145.7271">getRegistOrganization()</text><!--MD5=[eba5144af5135a87840971fc4358c553]
class RegistFreelancer--><rect fill="#FEFECE" filter="url(#fntclnytowmf3)" height="67.2" id="RegistFreelancer" style="stroke: #A80036; stroke-width: 2.0999999999999996;" width="177.8" x="1121.4" y="11.2"/><ellipse cx="1142.4" cy="33.6" fill="#ADD1B2" rx="15.4" ry="15.4" style="stroke: #A80036; stroke-width: 1.4;"/><path d="M1145.2,28.7 Q1145.4844,28 1145.8125,27.65 Q1146.1406,27.3 1146.5125,27.3 Q1147.1687,27.3 1147.5844,27.6937 Q1148,28.0875 1148,29.0062 L1148,31.1937 Q1148,32.1125 1147.6062,32.5063 Q1147.2125,32.9 1146.6,32.9 Q1146.0531,32.9 1145.7031,32.6594 Q1145.3531,32.4187 1145.2,31.7844 Q1145.1344,31.3469 1144.8938,31.1063 Q1144.4563,30.6469 1143.6687,30.3844 Q1142.8813,30.1 1142.0938,30.1 Q1141.1094,30.1 1140.2781,30.4938 Q1139.4688,30.8875 1138.8344,31.7625 Q1138.2,32.6375 1138.2,33.8406 L1138.2,35.1312 Q1138.2,36.575 1139.3813,37.5375 Q1140.5625,38.5 1142.6625,38.5 Q1143.9094,38.5 1144.7844,38.2156 Q1145.2875,38.0625 1145.8562,37.5594 Q1146.2281,37.275 1146.425,37.1875 Q1146.6219,37.1 1146.8625,37.1 Q1147.3219,37.1 1147.65,37.4719 Q1148,37.8219 1148,38.325 Q1148,38.8063 1147.5188,39.375 Q1146.8188,40.2063 1145.7031,40.6656 Q1144.2375,41.3 1142.4438,41.3 Q1140.3438,41.3 1138.6594,40.4688 Q1137.3031,39.8125 1136.3406,38.3906 Q1135.4,36.9688 1135.4,35.2844 L1135.4,33.7531 Q1135.4,32.0031 1136.2312,30.4719 Q1137.0844,28.9406 1138.55,28.1312 Q1140.0375,27.3 1141.7,27.3 Q1142.7063,27.3 1143.5813,27.65 Q1144.4563,28 1145.2,28.7 Z "/><text fill="#000000" font-family="sans-serif" font-size="16.8" lengthAdjust="spacingAndGlyphs" textLength="133" x="1162" y="40.4742">RegistFreelancer</text><line style="stroke: #A80036; stroke-width: 2.0999999999999996;" x1="1122.8" x2="1297.8" y1="56" y2="56"/><line style="stroke: #A80036; stroke-width: 2.0999999999999996;" x1="1122.8" x2="1297.8" y1="67.2" y2="67.2"/><!--MD5=[ba54b1997298830925be59f10364c919]
class PaymentTransactionList--><rect fill="#FEFECE" filter="url(#fntclnytowmf3)" height="86.5703" id="PaymentTransactionList" style="stroke: #A80036; stroke-width: 2.0999999999999996;" width="231" x="1341.2" y="131.6"/><ellipse cx="1362.2" cy="154" fill="#ADD1B2" rx="15.4" ry="15.4" style="stroke: #A80036; stroke-width: 1.4;"/><path d="M1365,149.1 Q1365.2844,148.4 1365.6125,148.05 Q1365.9406,147.7 1366.3125,147.7 Q1366.9688,147.7 1367.3844,148.0938 Q1367.8,148.4875 1367.8,149.4063 L1367.8,151.5938 Q1367.8,152.5125 1367.4063,152.9063 Q1367.0125,153.3 1366.4,153.3 Q1365.8531,153.3 1365.5031,153.0594 Q1365.1531,152.8188 1365,152.1844 Q1364.9344,151.7469 1364.6938,151.5063 Q1364.2563,151.0469 1363.4688,150.7844 Q1362.6812,150.5 1361.8938,150.5 Q1360.9094,150.5 1360.0781,150.8937 Q1359.2688,151.2875 1358.6344,152.1625 Q1358,153.0375 1358,154.2406 L1358,155.5313 Q1358,156.975 1359.1812,157.9375 Q1360.3625,158.9 1362.4625,158.9 Q1363.7094,158.9 1364.5844,158.6156 Q1365.0875,158.4625 1365.6563,157.9594 Q1366.0281,157.675 1366.225,157.5875 Q1366.4219,157.5 1366.6625,157.5 Q1367.1219,157.5 1367.45,157.8719 Q1367.8,158.2219 1367.8,158.725 Q1367.8,159.2062 1367.3188,159.775 Q1366.6187,160.6063 1365.5031,161.0656 Q1364.0375,161.7 1362.2437,161.7 Q1360.1438,161.7 1358.4594,160.8687 Q1357.1031,160.2125 1356.1406,158.7906 Q1355.2,157.3687 1355.2,155.6844 L1355.2,154.1531 Q1355.2,152.4031 1356.0313,150.8719 Q1356.8844,149.3406 1358.35,148.5313 Q1359.8375,147.7 1361.5,147.7 Q1362.5063,147.7 1363.3813,148.05 Q1364.2563,148.4 1365,149.1 Z "/><text fill="#000000" font-family="sans-serif" font-size="16.8" lengthAdjust="spacingAndGlyphs" textLength="186.2" x="1381.8" y="160.8742">PaymentTransactionList</text><line style="stroke: #A80036; stroke-width: 2.0999999999999996;" x1="1342.6" x2="1570.8" y1="176.4" y2="176.4"/><line style="stroke: #A80036; stroke-width: 2.0999999999999996;" x1="1342.6" x2="1570.8" y1="187.6" y2="187.6"/><ellipse cx="1356.6" cy="203" fill="#84BE84" rx="4.2" ry="4.2" style="stroke: #038048; stroke-width: 1.4;"/><text fill="#000000" font-family="sans-serif" font-size="15.4" lengthAdjust="spacingAndGlyphs" textLength="169.4" x="1369.2" y="209.1865">getPaymnetTransaction()</text><!--MD5=[1f687b5315377fe49fca59b457947463]
class Freelancer--><rect fill="#FEFECE" filter="url(#fntclnytowmf3)" height="125.3109" id="Freelancer" style="stroke: #A80036; stroke-width: 2.0999999999999996;" width="127.4" x="1890" y="46.2"/><ellipse cx="1911" cy="68.6" fill="#ADD1B2" rx="15.4" ry="15.4" style="stroke: #A80036; stroke-width: 1.4;"/><path d="M1913.8,63.7 Q1914.0844,63 1914.4125,62.65 Q1914.7406,62.3 1915.1125,62.3 Q1915.7688,62.3 1916.1844,62.6937 Q1916.6,63.0875 1916.6,64.0063 L1916.6,66.1938 Q1916.6,67.1125 1916.2063,67.5063 Q1915.8125,67.9 1915.2,67.9 Q1914.6531,67.9 1914.3031,67.6594 Q1913.9531,67.4187 1913.8,66.7844 Q1913.7344,66.3469 1913.4937,66.1063 Q1913.0562,65.6469 1912.2688,65.3844 Q1911.4812,65.1 1910.6938,65.1 Q1909.7094,65.1 1908.8781,65.4937 Q1908.0688,65.8875 1907.4344,66.7625 Q1906.8,67.6375 1906.8,68.8406 L1906.8,70.1313 Q1906.8,71.575 1907.9812,72.5375 Q1909.1625,73.5 1911.2625,73.5 Q1912.5094,73.5 1913.3844,73.2156 Q1913.8875,73.0625 1914.4563,72.5594 Q1914.8281,72.275 1915.025,72.1875 Q1915.2219,72.1 1915.4625,72.1 Q1915.9219,72.1 1916.25,72.4719 Q1916.6,72.8219 1916.6,73.325 Q1916.6,73.8062 1916.1187,74.375 Q1915.4187,75.2063 1914.3031,75.6656 Q1912.8375,76.3 1911.0437,76.3 Q1908.9438,76.3 1907.2594,75.4688 Q1905.9031,74.8125 1904.9406,73.3906 Q1904,71.9688 1904,70.2844 L1904,68.7531 Q1904,67.0031 1904.8313,65.4719 Q1905.6844,63.9406 1907.15,63.1312 Q1908.6375,62.3 1910.3,62.3 Q1911.3062,62.3 1912.1812,62.65 Q1913.0562,63 1913.8,63.7 Z "/><text fill="#000000" font-family="sans-serif" font-size="16.8" lengthAdjust="spacingAndGlyphs" textLength="82.6" x="1930.6" y="75.4742">Freelancer</text><line style="stroke: #A80036; stroke-width: 2.0999999999999996;" x1="1891.4" x2="2016" y1="91" y2="91"/><line style="stroke: #A80036; stroke-width: 2.0999999999999996;" x1="1891.4" x2="2016" y1="102.2" y2="102.2"/><ellipse cx="1905.4" cy="117.6" fill="#84BE84" rx="4.2" ry="4.2" style="stroke: #038048; stroke-width: 1.4;"/><text fill="#000000" font-family="sans-serif" font-size="15.4" lengthAdjust="spacingAndGlyphs" textLength="60.2" x="1918" y="123.7865">getIban()</text><ellipse cx="1905.4" cy="136.9703" fill="#84BE84" rx="4.2" ry="4.2" style="stroke: #038048; stroke-width: 1.4;"/><text fill="#000000" font-family="sans-serif" font-size="15.4" lengthAdjust="spacingAndGlyphs" textLength="85.4" x="1918" y="143.1568">getCountry()</text><ellipse cx="1905.4" cy="156.3406" fill="#84BE84" rx="4.2" ry="4.2" style="stroke: #038048; stroke-width: 1.4;"/><text fill="#000000" font-family="sans-serif" font-size="15.4" lengthAdjust="spacingAndGlyphs" textLength="65.8" x="1918" y="162.5271">getEmail()</text><!--MD5=[e09e0019787cf83947156283bb671e06]
class RegistOrganization--><rect fill="#FEFECE" filter="url(#fntclnytowmf3)" height="86.5703" id="RegistOrganization" style="stroke: #A80036; stroke-width: 2.0999999999999996;" width="271.6" x="331.8" y="144.2"/><ellipse cx="388.71" cy="166.6" fill="#ADD1B2" rx="15.4" ry="15.4" style="stroke: #A80036; stroke-width: 1.4;"/><path d="M391.51,161.7 Q391.7944,161 392.1225,160.65 Q392.4506,160.3 392.8225,160.3 Q393.4787,160.3 393.8944,160.6938 Q394.31,161.0875 394.31,162.0063 L394.31,164.1938 Q394.31,165.1125 393.9162,165.5063 Q393.5225,165.9 392.91,165.9 Q392.3631,165.9 392.0131,165.6594 Q391.6631,165.4188 391.51,164.7844 Q391.4444,164.3469 391.2037,164.1063 Q390.7662,163.6469 389.9787,163.3844 Q389.1912,163.1 388.4037,163.1 Q387.4194,163.1 386.5881,163.4937 Q385.7787,163.8875 385.1444,164.7625 Q384.51,165.6375 384.51,166.8406 L384.51,168.1313 Q384.51,169.575 385.6912,170.5375 Q386.8725,171.5 388.9725,171.5 Q390.2194,171.5 391.0944,171.2156 Q391.5975,171.0625 392.1662,170.5594 Q392.5381,170.275 392.735,170.1875 Q392.9319,170.1 393.1725,170.1 Q393.6319,170.1 393.96,170.4719 Q394.31,170.8219 394.31,171.325 Q394.31,171.8062 393.8287,172.375 Q393.1287,173.2062 392.0131,173.6656 Q390.5475,174.3 388.7537,174.3 Q386.6537,174.3 384.9694,173.4688 Q383.6131,172.8125 382.6506,171.3906 Q381.71,169.9688 381.71,168.2844 L381.71,166.7531 Q381.71,165.0031 382.5412,163.4719 Q383.3944,161.9406 384.86,161.1313 Q386.3475,160.3 388.01,160.3 Q389.0162,160.3 389.8912,160.65 Q390.7662,161 391.51,161.7 Z "/><text fill="#000000" font-family="sans-serif" font-size="16.8" lengthAdjust="spacingAndGlyphs" textLength="147" x="416.29" y="173.4742">RegistOrganization</text><line style="stroke: #A80036; stroke-width: 2.0999999999999996;" x1="333.2" x2="602" y1="189" y2="189"/><line style="stroke: #A80036; stroke-width: 2.0999999999999996;" x1="333.2" x2="602" y1="200.2" y2="200.2"/><ellipse cx="347.2" cy="215.6" fill="#84BE84" rx="4.2" ry="4.2" style="stroke: #038048; stroke-width: 1.4;"/><text fill="#000000" font-family="sans-serif" font-size="15.4" lengthAdjust="spacingAndGlyphs" textLength="235.2" x="359.8" y="221.7865">getOrganizationByUserEmail(email)</text><!--MD5=[86c7c362de55a38b660185a1328fe18d]
class Organization--><rect fill="#FEFECE" filter="url(#fntclnytowmf3)" height="164.0516" id="Organization" style="stroke: #A80036; stroke-width: 2.0999999999999996;" width="229.6" x="793.8" y="116.9"/><ellipse cx="854.49" cy="139.3" fill="#ADD1B2" rx="15.4" ry="15.4" style="stroke: #A80036; stroke-width: 1.4;"/><path d="M857.29,134.4 Q857.5744,133.7 857.9025,133.35 Q858.2306,133 858.6025,133 Q859.2588,133 859.6744,133.3937 Q860.09,133.7875 860.09,134.7062 L860.09,136.8937 Q860.09,137.8125 859.6963,138.2062 Q859.3025,138.6 858.69,138.6 Q858.1431,138.6 857.7931,138.3594 Q857.4431,138.1187 857.29,137.4844 Q857.2244,137.0469 856.9838,136.8062 Q856.5463,136.3469 855.7588,136.0844 Q854.9712,135.8 854.1838,135.8 Q853.1994,135.8 852.3681,136.1938 Q851.5588,136.5875 850.9244,137.4625 Q850.29,138.3375 850.29,139.5406 L850.29,140.8312 Q850.29,142.275 851.4712,143.2375 Q852.6525,144.2 854.7525,144.2 Q855.9994,144.2 856.8744,143.9156 Q857.3775,143.7625 857.9463,143.2594 Q858.3181,142.975 858.515,142.8875 Q858.7119,142.8 858.9525,142.8 Q859.4119,142.8 859.74,143.1719 Q860.09,143.5219 860.09,144.025 Q860.09,144.5063 859.6088,145.075 Q858.9087,145.9063 857.7931,146.3656 Q856.3275,147 854.5337,147 Q852.4338,147 850.7494,146.1688 Q849.3931,145.5125 848.4306,144.0906 Q847.49,142.6688 847.49,140.9844 L847.49,139.4531 Q847.49,137.7031 848.3213,136.1719 Q849.1744,134.6406 850.64,133.8312 Q852.1275,133 853.79,133 Q854.7963,133 855.6713,133.35 Q856.5463,133.7 857.29,134.4 Z "/><text fill="#000000" font-family="sans-serif" font-size="16.8" lengthAdjust="spacingAndGlyphs" textLength="96.6" x="882.91" y="146.1742">Organization</text><line style="stroke: #A80036; stroke-width: 2.0999999999999996;" x1="795.2" x2="1022" y1="161.7" y2="161.7"/><rect fill="none" height="8.4" style="stroke: #C82930; stroke-width: 1.4;" width="8.4" x="805" y="172.9"/><text fill="#000000" font-family="sans-serif" font-size="15.4" lengthAdjust="spacingAndGlyphs" textLength="79.8" x="821.8" y="183.2865">String name</text><rect fill="none" height="8.4" style="stroke: #C82930; stroke-width: 1.4;" width="8.4" x="805" y="192.2703"/><text fill="#000000" font-family="sans-serif" font-size="15.4" lengthAdjust="spacingAndGlyphs" textLength="64.4" x="821.8" y="202.6568">String NIF</text><rect fill="none" height="8.4" style="stroke: #C82930; stroke-width: 1.4;" width="8.4" x="805" y="211.6406"/><text fill="#000000" font-family="sans-serif" font-size="15.4" lengthAdjust="spacingAndGlyphs" textLength="165.2" x="821.8" y="222.0271">Collaborator collaborator</text><rect fill="none" height="8.4" style="stroke: #C82930; stroke-width: 1.4;" width="8.4" x="805" y="231.0109"/><text fill="#000000" font-family="sans-serif" font-size="15.4" lengthAdjust="spacingAndGlyphs" textLength="121.8" x="821.8" y="241.3975">Manager manager</text><line style="stroke: #A80036; stroke-width: 2.0999999999999996;" x1="795.2" x2="1022" y1="250.3813" y2="250.3813"/><ellipse cx="809.2" cy="265.7813" fill="#84BE84" rx="4.2" ry="4.2" style="stroke: #038048; stroke-width: 1.4;"/><text fill="#000000" font-family="sans-serif" font-size="15.4" lengthAdjust="spacingAndGlyphs" textLength="193.2" x="821.8" y="271.9678">getPaymnetTransactionList()</text><!--MD5=[11b76bc78fb98d2066fc08e27936fbcb]
class TaskPaymentAutomatically--><rect fill="#FEFECE" filter="url(#fntclnytowmf3)" height="105.9406" id="TaskPaymentAutomatically" style="stroke: #A80036; stroke-width: 2.0999999999999996;" width="270.2" x="773.5" y="354.2"/><ellipse cx="803.32" cy="376.6" fill="#ADD1B2" rx="15.4" ry="15.4" style="stroke: #A80036; stroke-width: 1.4;"/><path d="M806.12,371.7 Q806.4044,371 806.7325,370.65 Q807.0606,370.3 807.4325,370.3 Q808.0887,370.3 808.5044,370.6937 Q808.92,371.0875 808.92,372.0062 L808.92,374.1937 Q808.92,375.1125 808.5262,375.5062 Q808.1325,375.9 807.52,375.9 Q806.9731,375.9 806.6231,375.6594 Q806.2731,375.4188 806.12,374.7844 Q806.0544,374.3469 805.8137,374.1063 Q805.3762,373.6469 804.5887,373.3844 Q803.8012,373.1 803.0137,373.1 Q802.0294,373.1 801.1981,373.4938 Q800.3887,373.8875 799.7544,374.7625 Q799.12,375.6375 799.12,376.8406 L799.12,378.1312 Q799.12,379.575 800.3012,380.5375 Q801.4825,381.5 803.5825,381.5 Q804.8294,381.5 805.7044,381.2156 Q806.2075,381.0625 806.7762,380.5594 Q807.1481,380.275 807.345,380.1875 Q807.5419,380.1 807.7825,380.1 Q808.2419,380.1 808.57,380.4719 Q808.92,380.8219 808.92,381.325 Q808.92,381.8063 808.4387,382.375 Q807.7387,383.2062 806.6231,383.6656 Q805.1575,384.3 803.3637,384.3 Q801.2637,384.3 799.5794,383.4688 Q798.2231,382.8125 797.2606,381.3906 Q796.32,379.9688 796.32,378.2844 L796.32,376.7531 Q796.32,375.0031 797.1512,373.4719 Q798.0044,371.9406 799.47,371.1312 Q800.9575,370.3 802.62,370.3 Q803.6262,370.3 804.5012,370.65 Q805.3762,371 806.12,371.7 Z "/><text fill="#000000" font-family="sans-serif" font-size="16.8" lengthAdjust="spacingAndGlyphs" textLength="205.8" x="824.88" y="383.4742">TaskPaymentAutomatically</text><line style="stroke: #A80036; stroke-width: 2.0999999999999996;" x1="774.9" x2="1042.3" y1="399" y2="399"/><line style="stroke: #A80036; stroke-width: 2.0999999999999996;" x1="774.9" x2="1042.3" y1="410.2" y2="410.2"/><ellipse cx="788.9" cy="425.6" fill="#84BE84" rx="4.2" ry="4.2" style="stroke: #038048; stroke-width: 1.4;"/><text fill="#000000" font-family="sans-serif" font-size="15.4" lengthAdjust="spacingAndGlyphs" textLength="33.6" x="801.5" y="431.7865">run()</text><ellipse cx="788.9" cy="444.9703" fill="#84BE84" rx="4.2" ry="4.2" style="stroke: #038048; stroke-width: 1.4;"/><text fill="#000000" font-family="sans-serif" font-size="15.4" lengthAdjust="spacingAndGlyphs" textLength="233.8" x="801.5" y="451.1568">getCoinSymbolByCountry(country)</text><!--MD5=[064a30a6632acbc5ed679f21cf2c61e3]
class CoinCurrencieConvert--><rect fill="#FEFECE" filter="url(#fntclnytowmf3)" height="86.5703" id="CoinCurrencieConvert" style="stroke: #A80036; stroke-width: 2.0999999999999996;" width="341.6" x="737.8" y="509.6"/><ellipse cx="817.25" cy="532" fill="#ADD1B2" rx="15.4" ry="15.4" style="stroke: #A80036; stroke-width: 1.4;"/><path d="M820.05,527.1 Q820.3344,526.4 820.6625,526.05 Q820.9906,525.7 821.3625,525.7 Q822.0188,525.7 822.4344,526.0938 Q822.85,526.4875 822.85,527.4063 L822.85,529.5938 Q822.85,530.5125 822.4563,530.9063 Q822.0625,531.3 821.45,531.3 Q820.9031,531.3 820.5531,531.0594 Q820.2031,530.8188 820.05,530.1844 Q819.9844,529.7469 819.7438,529.5063 Q819.3063,529.0469 818.5188,528.7844 Q817.7312,528.5 816.9437,528.5 Q815.9594,528.5 815.1281,528.8938 Q814.3187,529.2875 813.6844,530.1625 Q813.05,531.0375 813.05,532.2406 L813.05,533.5313 Q813.05,534.975 814.2312,535.9375 Q815.4125,536.9 817.5125,536.9 Q818.7594,536.9 819.6344,536.6156 Q820.1375,536.4625 820.7063,535.9594 Q821.0781,535.675 821.275,535.5875 Q821.4719,535.5 821.7125,535.5 Q822.1719,535.5 822.5,535.8719 Q822.85,536.2219 822.85,536.725 Q822.85,537.2063 822.3688,537.775 Q821.6687,538.6062 820.5531,539.0656 Q819.0875,539.7 817.2937,539.7 Q815.1937,539.7 813.5094,538.8688 Q812.1531,538.2125 811.1906,536.7906 Q810.25,535.3688 810.25,533.6844 L810.25,532.1531 Q810.25,530.4031 811.0813,528.8719 Q811.9344,527.3406 813.4,526.5313 Q814.8875,525.7 816.55,525.7 Q817.5563,525.7 818.4313,526.05 Q819.3063,526.4 820.05,527.1 Z "/><text fill="#000000" font-family="sans-serif" font-size="16.8" lengthAdjust="spacingAndGlyphs" textLength="170.8" x="845.95" y="538.8742">CoinCurrencieConvert</text><line style="stroke: #A80036; stroke-width: 2.0999999999999996;" x1="739.2" x2="1078" y1="554.4" y2="554.4"/><line style="stroke: #A80036; stroke-width: 2.0999999999999996;" x1="739.2" x2="1078" y1="565.6" y2="565.6"/><ellipse cx="753.2" cy="581" fill="#84BE84" rx="4.2" ry="4.2" style="stroke: #038048; stroke-width: 1.4;"/><text fill="#000000" font-family="sans-serif" font-size="15.4" lengthAdjust="spacingAndGlyphs" textLength="305.2" x="765.8" y="587.1865">convertCoinCurrencie(country,amountToPay)</text><!--MD5=[9f9dc61297fa1bffa9adfb9e40fe8f7e]
link Organization to TaskPaymentAutomatically--><path d="M908.6,280.7014 C908.6,302.5372 908.6,325.7464 908.6,346.255 " fill="none" id="Organization-&gt;TaskPaymentAutomatically" style="stroke: #A80036; stroke-width: 1.4;"/><polygon fill="#A80036" points="908.6,353.6806,914.2,341.0806,908.6,346.6806,903,341.0806,908.6,353.6806" style="stroke: #A80036; stroke-width: 1.4;"/><text fill="#000000" font-family="sans-serif" font-size="18.2" lengthAdjust="spacingAndGlyphs" textLength="29.4" x="868" y="325.1432">has</text><polygon fill="#000000" points="876.4,337.5422,880.6,345.9422,884.8,337.5422,876.4,337.5422" style="stroke: #000000; stroke-width: 1.4;"/><text fill="#000000" font-family="sans-serif" font-size="18.2" lengthAdjust="spacingAndGlyphs" textLength="9.8" x="898.2028" y="310.956">1</text><text fill="#000000" font-family="sans-serif" font-size="18.2" lengthAdjust="spacingAndGlyphs" textLength="9.8" x="897.9578" y="339.0975">1</text><!--MD5=[59a9eec85280a73782d2b53d9bb28ea8]
link TaskPaymentAutomatically to CoinCurrencieConvert--><path d="M908.6,460.6892 C908.6,474.461 908.6,488.2328 908.6,502.0044 " fill="none" id="TaskPaymentAutomatically-&gt;CoinCurrencieConvert" style="stroke: #A80036; stroke-width: 1.4;"/><polygon fill="#A80036" points="908.6,509.2062,914.2,496.6062,908.6,502.2062,903,496.6062,908.6,509.2062" style="stroke: #A80036; stroke-width: 1.4;"/><!--MD5=[4671e899716b0dcf633e499c71dc2f16]
link Platform to RegistOrganization--><path d="M204.7878,118.1628 C243.7624,128.5144 289.3604,140.6272 331.4626,151.8104 " fill="none" id="Platform-RegistOrganization" style="stroke: #A80036; stroke-width: 1.4;"/><text fill="#000000" font-family="sans-serif" font-size="18.2" lengthAdjust="spacingAndGlyphs" textLength="40.6" x="247.8" y="125.2932">has&gt;</text><text fill="#000000" font-family="sans-serif" font-size="18.2" lengthAdjust="spacingAndGlyphs" textLength="9.8" x="215.4394" y="140.9287">1</text><text fill="#000000" font-family="sans-serif" font-size="18.2" lengthAdjust="spacingAndGlyphs" textLength="9.8" x="310.8644" y="168.8486">1</text><!--MD5=[b2767384522f615c85a28d92ddf7f4b1]
link RegistOrganization to Organization--><path d="M603.4518,191.037 C664.335,192.5924 735.5236,194.4124 793.674,195.8978 " fill="none" id="RegistOrganization-Organization" style="stroke: #A80036; stroke-width: 1.4;"/><text fill="#000000" font-family="sans-serif" font-size="18.2" lengthAdjust="spacingAndGlyphs" textLength="29.4" x="646.8" y="186.8932">has</text><polygon fill="#000000" points="680.4,177.3461,688.8,181.5461,680.4,185.7461,680.4,177.3461" style="stroke: #000000; stroke-width: 1.4;"/><text fill="#000000" font-family="sans-serif" font-size="18.2" lengthAdjust="spacingAndGlyphs" textLength="9.8" x="614.668" y="211.1253">1</text><text fill="#000000" font-family="sans-serif" font-size="18.2" lengthAdjust="spacingAndGlyphs" textLength="9.8" x="772.8275" y="215.567">1</text><!--MD5=[736896ddd0b2c15ea62844344f935c15]
link Platform to RegistFreelancer--><path d="M204.5498,88.2182 C416.2998,79.0636 918.0766,57.372 1121.2348,48.5898 " fill="none" id="Platform-RegistFreelancer" style="stroke: #A80036; stroke-width: 1.4;"/><text fill="#000000" font-family="sans-serif" font-size="18.2" lengthAdjust="spacingAndGlyphs" textLength="29.4" x="443.8" y="66.4932">has</text><polygon fill="#000000" points="477.4,56.9461,485.8,61.1461,477.4,65.3461,477.4,56.9461" style="stroke: #000000; stroke-width: 1.4;"/><text fill="#000000" font-family="sans-serif" font-size="18.2" lengthAdjust="spacingAndGlyphs" textLength="9.8" x="215.8209" y="107.9436">1</text><text fill="#000000" font-family="sans-serif" font-size="18.2" lengthAdjust="spacingAndGlyphs" textLength="9.8" x="1100.5701" y="69.2446">1</text><!--MD5=[322d55b5ad1658b7791494cedb432ac7]
link Organization to PaymentTransactionList--><path d="M1023.6492,193.8398 C1116.6638,189.7798 1247.631,184.0636 1340.8598,179.9952 " fill="none" id="Organization-PaymentTransactionList" style="stroke: #A80036; stroke-width: 1.4;"/><text fill="#000000" font-family="sans-serif" font-size="18.2" lengthAdjust="spacingAndGlyphs" textLength="29.4" x="1186.5" y="177.0932">has</text><polygon fill="#000000" points="1220.1,167.5461,1228.5,171.7461,1220.1,175.9461,1220.1,167.5461" style="stroke: #000000; stroke-width: 1.4;"/><text fill="#000000" font-family="sans-serif" font-size="18.2" lengthAdjust="spacingAndGlyphs" textLength="9.8" x="1034.707" y="213.3193">1</text><text fill="#000000" font-family="sans-serif" font-size="18.2" lengthAdjust="spacingAndGlyphs" textLength="9.8" x="1320.3064" y="200.3629">1</text><!--MD5=[12a648b87e57a40b1492f312537407ab]
link RegistFreelancer to Freelancer--><path d="M1299.648,45.9564 C1422.848,48.5856 1653.554,57.1984 1848,85.4 C1861.608,87.3726 1876.056,90.1936 1889.734,93.2078 " fill="none" id="RegistFreelancer-Freelancer" style="stroke: #A80036; stroke-width: 1.4;"/><text fill="#000000" font-family="sans-serif" font-size="18.2" lengthAdjust="spacingAndGlyphs" textLength="29.4" x="1615.6" y="56.6932">has</text><polygon fill="#000000" points="1649.2,47.1461,1657.6,51.3461,1649.2,55.5461,1649.2,47.1461" style="stroke: #000000; stroke-width: 1.4;"/><text fill="#000000" font-family="sans-serif" font-size="18.2" lengthAdjust="spacingAndGlyphs" textLength="9.8" x="1310.5454" y="66.3067">1</text><text fill="#000000" font-family="sans-serif" font-size="18.2" lengthAdjust="spacingAndGlyphs" textLength="7" x="1871.9816" y="111.4313">*</text><!--MD5=[c39c2761517713b385c310889791329a]
link PaymentTransactionList to Freelancer--><path d="M1572.718,159.7386 C1671.376,146.6024 1810.046,128.1406 1889.58,117.551 " fill="none" id="PaymentTransactionList-Freelancer" style="stroke: #A80036; stroke-width: 1.4;"/><text fill="#000000" font-family="sans-serif" font-size="18.2" lengthAdjust="spacingAndGlyphs" textLength="77" x="1708" y="123.8932">relative to</text><polygon fill="#000000" points="1789.2,114.3461,1797.6,118.5461,1789.2,122.7461,1789.2,114.3461" style="stroke: #000000; stroke-width: 1.4;"/><text fill="#000000" font-family="sans-serif" font-size="18.2" lengthAdjust="spacingAndGlyphs" textLength="9.8" x="1583.4873" y="178.3022">1</text><text fill="#000000" font-family="sans-serif" font-size="18.2" lengthAdjust="spacingAndGlyphs" textLength="9.8" x="1869.2113" y="139.5284">1</text><!--MD5=[1aa74c809cc8cbcfa9aadb519b413202]
@startuml
left to right direction
class Platform {
-String designation
+getRegistFreelancer()
+getRegistOrganization()
}

class RegistFreelancer{

}

class PaymentTransactionList {
    +getPaymnetTransaction()
}

class Freelancer {
    +getIban()
    +getCountry()
    +getEmail()
}

class RegistOrganization{
    +getOrganizationByUserEmail(email)
}

class Organization {
    +getPaymnetTransactionList()
}
class TaskPaymentAutomatically {
     +run()
     +getCoinSymbolByCountry(country)
}


class CoinCurrencieConvert {
    +convertCoinCurrencie(country,amountToPay)
}
class Organization {
   -String name
   -String NIF
   -Collaborator collaborator
   -Manager manager
}


Organization "1" -> "1" TaskPaymentAutomatically : has >
TaskPaymentAutomatically -> CoinCurrencieConvert
Platform "1" - - "1" RegistOrganization : has>
RegistOrganization "1" - - "1" Organization : has >
Platform "1" - - - "1" RegistFreelancer: has >
Organization "1" - - "1" PaymentTransactionList: has >
RegistFreelancer "1" - - - "*" Freelancer: has >
PaymentTransactionList "1" - - - "1" Freelancer: relative to >

@enduml

PlantUML version 1.2020.09(Sun May 10 11:51:06 BST 2020)
(GPL source distribution)
Java Runtime: OpenJDK Runtime Environment
JVM: OpenJDK 64-Bit Server VM
Java Version: 11.0.7+10-b765.53
Operating System: Windows 10
Default Encoding: Cp1252
Language: pt
Country: PT
--></g></svg>