<?xml version="1.0" encoding="UTF-8" standalone="no"?><svg xmlns="http://www.w3.org/2000/svg" xmlns:xlink="http://www.w3.org/1999/xlink" contentScriptType="application/ecmascript" contentStyleType="text/css" height="709.8px" preserveAspectRatio="none" style="width:1936px;height:709px;" version="1.1" viewBox="0 0 1936 709" width="1936.2px" zoomAndPan="magnify"><defs><filter height="300%" id="fp5oo4p86ciaw" width="300%" x="-1" y="-1"><feGaussianBlur result="blurOut" stdDeviation="2.8"/><feColorMatrix in="blurOut" result="blurOut2" type="matrix" values="0 0 0 0 0 0 0 0 0 0 0 0 0 0 0 0 0 0 .4 0"/><feOffset dx="5.6" dy="5.6" in="blurOut2" result="blurOut3"/><feBlend in="SourceGraphic" in2="blurOut3" mode="normal"/></filter></defs><g><!--MD5=[b34797a66dc35cbf1d65f7e3ca75530e]
class Task--><rect fill="#FEFECE" filter="url(#fp5oo4p86ciaw)" height="152.8516" id="Task" style="stroke: #A80036; stroke-width: 2.0999999999999996;" width="140" x="677.6" y="345.8"/><ellipse cx="724.43" cy="368.2" fill="#ADD1B2" rx="15.4" ry="15.4" style="stroke: #A80036; stroke-width: 1.4;"/><path d="M727.23,363.3 Q727.5144,362.6 727.8425,362.25 Q728.1706,361.9 728.5425,361.9 Q729.1988,361.9 729.6144,362.2938 Q730.03,362.6875 730.03,363.6063 L730.03,365.7938 Q730.03,366.7125 729.6363,367.1063 Q729.2425,367.5 728.63,367.5 Q728.0831,367.5 727.7331,367.2594 Q727.3831,367.0187 727.23,366.3844 Q727.1644,365.9469 726.9238,365.7062 Q726.4863,365.2469 725.6988,364.9844 Q724.9113,364.7 724.1238,364.7 Q723.1394,364.7 722.3081,365.0938 Q721.4988,365.4875 720.8644,366.3625 Q720.23,367.2375 720.23,368.4406 L720.23,369.7313 Q720.23,371.175 721.4113,372.1375 Q722.5925,373.1 724.6925,373.1 Q725.9394,373.1 726.8144,372.8156 Q727.3175,372.6625 727.8863,372.1594 Q728.2581,371.875 728.455,371.7875 Q728.6519,371.7 728.8925,371.7 Q729.3519,371.7 729.68,372.0719 Q730.03,372.4219 730.03,372.925 Q730.03,373.4063 729.5488,373.975 Q728.8488,374.8063 727.7331,375.2656 Q726.2675,375.9 724.4738,375.9 Q722.3738,375.9 720.6894,375.0687 Q719.3331,374.4125 718.3706,372.9906 Q717.43,371.5687 717.43,369.8844 L717.43,368.3531 Q717.43,366.6031 718.2613,365.0719 Q719.1144,363.5406 720.58,362.7313 Q722.0675,361.9 723.73,361.9 Q724.7363,361.9 725.6113,362.25 Q726.4863,362.6 727.23,363.3 Z "/><text fill="#000000" font-family="sans-serif" font-size="16.8" lengthAdjust="spacingAndGlyphs" textLength="37.8" x="749.77" y="375.0742">Task</text><line style="stroke: #A80036; stroke-width: 2.0999999999999996;" x1="679" x2="816.2" y1="390.6" y2="390.6"/><text fill="#000000" font-family="sans-serif" font-size="15.4" lengthAdjust="spacingAndGlyphs" textLength="92.4" x="686" y="412.1865">-String TaskId</text><text fill="#000000" font-family="sans-serif" font-size="15.4" lengthAdjust="spacingAndGlyphs" textLength="123.2" x="686" y="431.5568">-String description</text><text fill="#000000" font-family="sans-serif" font-size="15.4" lengthAdjust="spacingAndGlyphs" textLength="103.6" x="686" y="450.9271">-String duration</text><text fill="#000000" font-family="sans-serif" font-size="15.4" lengthAdjust="spacingAndGlyphs" textLength="78.4" x="686" y="470.2975">-String cost</text><text fill="#000000" font-family="sans-serif" font-size="15.4" lengthAdjust="spacingAndGlyphs" textLength="109.2" x="686" y="489.6678">-String category</text><!--MD5=[b645a18afb25b7e5623af7186d8eb36f]
class PaymentTransaction--><rect fill="#FEFECE" filter="url(#fp5oo4p86ciaw)" height="172.2219" id="PaymentTransaction" style="stroke: #A80036; stroke-width: 2.0999999999999996;" width="203" x="1405.6" y="343"/><ellipse cx="1426.6" cy="365.4" fill="#ADD1B2" rx="15.4" ry="15.4" style="stroke: #A80036; stroke-width: 1.4;"/><path d="M1429.4,360.5 Q1429.6844,359.8 1430.0125,359.45 Q1430.3406,359.1 1430.7125,359.1 Q1431.3687,359.1 1431.7844,359.4938 Q1432.2,359.8875 1432.2,360.8063 L1432.2,362.9938 Q1432.2,363.9125 1431.8062,364.3063 Q1431.4125,364.7 1430.8,364.7 Q1430.2531,364.7 1429.9031,364.4594 Q1429.5531,364.2188 1429.4,363.5844 Q1429.3344,363.1469 1429.0938,362.9063 Q1428.6563,362.4469 1427.8687,362.1844 Q1427.0813,361.9 1426.2937,361.9 Q1425.3094,361.9 1424.4781,362.2938 Q1423.6687,362.6875 1423.0344,363.5625 Q1422.4,364.4375 1422.4,365.6406 L1422.4,366.9313 Q1422.4,368.375 1423.5813,369.3375 Q1424.7625,370.3 1426.8625,370.3 Q1428.1094,370.3 1428.9844,370.0156 Q1429.4875,369.8625 1430.0562,369.3594 Q1430.4281,369.075 1430.625,368.9875 Q1430.8219,368.9 1431.0625,368.9 Q1431.5219,368.9 1431.85,369.2719 Q1432.2,369.6219 1432.2,370.125 Q1432.2,370.6063 1431.7188,371.175 Q1431.0188,372.0062 1429.9031,372.4656 Q1428.4375,373.1 1426.6438,373.1 Q1424.5437,373.1 1422.8594,372.2687 Q1421.5031,371.6125 1420.5406,370.1906 Q1419.6,368.7687 1419.6,367.0844 L1419.6,365.5531 Q1419.6,363.8031 1420.4312,362.2719 Q1421.2844,360.7406 1422.75,359.9313 Q1424.2375,359.1 1425.9,359.1 Q1426.9063,359.1 1427.7813,359.45 Q1428.6563,359.8 1429.4,360.5 Z "/><text fill="#000000" font-family="sans-serif" font-size="16.8" lengthAdjust="spacingAndGlyphs" textLength="158.2" x="1446.2" y="372.2742">PaymentTransaction</text><line style="stroke: #A80036; stroke-width: 2.0999999999999996;" x1="1407" x2="1607.2" y1="387.8" y2="387.8"/><text fill="#000000" font-family="sans-serif" font-size="15.4" lengthAdjust="spacingAndGlyphs" textLength="95.2" x="1414" y="409.3865">-String transId</text><text fill="#000000" font-family="sans-serif" font-size="15.4" lengthAdjust="spacingAndGlyphs" textLength="105" x="1414" y="428.7568">-String endDate</text><text fill="#000000" font-family="sans-serif" font-size="15.4" lengthAdjust="spacingAndGlyphs" textLength="92.4" x="1414" y="448.1271">-Integer delay</text><text fill="#000000" font-family="sans-serif" font-size="15.4" lengthAdjust="spacingAndGlyphs" textLength="180.6" x="1414" y="467.4975">-String descQualityOfWork</text><text fill="#000000" font-family="sans-serif" font-size="15.4" lengthAdjust="spacingAndGlyphs" textLength="130.2" x="1414" y="486.8678">-Double amountPay</text><text fill="#000000" font-family="sans-serif" font-size="15.4" lengthAdjust="spacingAndGlyphs" textLength="112" x="1414" y="506.2381">-Date dateToPay</text><!--MD5=[1f687b5315377fe49fca59b457947463]
class Freelancer--><rect fill="#FEFECE" filter="url(#fp5oo4p86ciaw)" height="210.9625" id="Freelancer" style="stroke: #A80036; stroke-width: 2.0999999999999996;" width="147" x="1773.8" y="484.4"/><ellipse cx="1803.62" cy="506.8" fill="#ADD1B2" rx="15.4" ry="15.4" style="stroke: #A80036; stroke-width: 1.4;"/><path d="M1806.42,501.9 Q1806.7044,501.2 1807.0325,500.85 Q1807.3606,500.5 1807.7325,500.5 Q1808.3887,500.5 1808.8044,500.8937 Q1809.22,501.2875 1809.22,502.2062 L1809.22,504.3937 Q1809.22,505.3125 1808.8262,505.7062 Q1808.4325,506.1 1807.82,506.1 Q1807.2731,506.1 1806.9231,505.8594 Q1806.5731,505.6188 1806.42,504.9844 Q1806.3544,504.5469 1806.1137,504.3063 Q1805.6762,503.8469 1804.8887,503.5844 Q1804.1012,503.3 1803.3137,503.3 Q1802.3294,503.3 1801.4981,503.6937 Q1800.6887,504.0875 1800.0544,504.9625 Q1799.42,505.8375 1799.42,507.0406 L1799.42,508.3312 Q1799.42,509.775 1800.6012,510.7375 Q1801.7825,511.7 1803.8825,511.7 Q1805.1294,511.7 1806.0044,511.4156 Q1806.5075,511.2625 1807.0762,510.7594 Q1807.4481,510.475 1807.645,510.3875 Q1807.8419,510.3 1808.0825,510.3 Q1808.5419,510.3 1808.87,510.6719 Q1809.22,511.0219 1809.22,511.525 Q1809.22,512.0063 1808.7387,512.575 Q1808.0387,513.4063 1806.9231,513.8656 Q1805.4575,514.5 1803.6637,514.5 Q1801.5637,514.5 1799.8794,513.6687 Q1798.5231,513.0125 1797.5606,511.5906 Q1796.62,510.1688 1796.62,508.4844 L1796.62,506.9531 Q1796.62,505.2031 1797.4512,503.6719 Q1798.3044,502.1406 1799.77,501.3312 Q1801.2575,500.5 1802.92,500.5 Q1803.9262,500.5 1804.8012,500.85 Q1805.6762,501.2 1806.42,501.9 Z "/><text fill="#000000" font-family="sans-serif" font-size="16.8" lengthAdjust="spacingAndGlyphs" textLength="82.6" x="1825.18" y="513.6742">Freelancer</text><line style="stroke: #A80036; stroke-width: 2.0999999999999996;" x1="1775.2" x2="1919.4" y1="529.2" y2="529.2"/><text fill="#000000" font-family="sans-serif" font-size="15.4" lengthAdjust="spacingAndGlyphs" textLength="130.2" x="1782.2" y="550.7865">-String freelancerId</text><text fill="#000000" font-family="sans-serif" font-size="15.4" lengthAdjust="spacingAndGlyphs" textLength="85.4" x="1782.2" y="570.1568">-String name</text><text fill="#000000" font-family="sans-serif" font-size="15.4" lengthAdjust="spacingAndGlyphs" textLength="88.2" x="1782.2" y="589.5271">-String lvlExp</text><text fill="#000000" font-family="sans-serif" font-size="15.4" lengthAdjust="spacingAndGlyphs" textLength="82.6" x="1782.2" y="608.8975">-String email</text><text fill="#000000" font-family="sans-serif" font-size="15.4" lengthAdjust="spacingAndGlyphs" textLength="65.8" x="1782.2" y="628.2678">-String nif</text><text fill="#000000" font-family="sans-serif" font-size="15.4" lengthAdjust="spacingAndGlyphs" textLength="77" x="1782.2" y="647.6381">-String iban</text><text fill="#000000" font-family="sans-serif" font-size="15.4" lengthAdjust="spacingAndGlyphs" textLength="105" x="1782.2" y="667.0084">-String address</text><text fill="#000000" font-family="sans-serif" font-size="15.4" lengthAdjust="spacingAndGlyphs" textLength="100.8" x="1782.2" y="686.3787">-String country</text><!--MD5=[f483d6e5de34a60207b28a5563be5e8b]
class Collaborator--><rect fill="#FEFECE" filter="url(#fp5oo4p86ciaw)" height="133.4813" id="Collaborator" style="stroke: #A80036; stroke-width: 2.0999999999999996;" width="140" x="1019.2" y="208.6"/><ellipse cx="1040.2" cy="231" fill="#ADD1B2" rx="15.4" ry="15.4" style="stroke: #A80036; stroke-width: 1.4;"/><path d="M1043,226.1 Q1043.2844,225.4 1043.6125,225.05 Q1043.9406,224.7 1044.3125,224.7 Q1044.9688,224.7 1045.3844,225.0937 Q1045.8,225.4875 1045.8,226.4062 L1045.8,228.5937 Q1045.8,229.5125 1045.4063,229.9062 Q1045.0125,230.3 1044.4,230.3 Q1043.8531,230.3 1043.5031,230.0594 Q1043.1531,229.8188 1043,229.1844 Q1042.9344,228.7469 1042.6938,228.5063 Q1042.2563,228.0469 1041.4688,227.7844 Q1040.6812,227.5 1039.8938,227.5 Q1038.9094,227.5 1038.0781,227.8937 Q1037.2688,228.2875 1036.6344,229.1625 Q1036,230.0375 1036,231.2406 L1036,232.5312 Q1036,233.975 1037.1812,234.9375 Q1038.3625,235.9 1040.4625,235.9 Q1041.7094,235.9 1042.5844,235.6156 Q1043.0875,235.4625 1043.6563,234.9594 Q1044.0281,234.675 1044.225,234.5875 Q1044.4219,234.5 1044.6625,234.5 Q1045.1219,234.5 1045.45,234.8719 Q1045.8,235.2219 1045.8,235.725 Q1045.8,236.2062 1045.3188,236.775 Q1044.6187,237.6063 1043.5031,238.0656 Q1042.0375,238.7 1040.2437,238.7 Q1038.1438,238.7 1036.4594,237.8687 Q1035.1031,237.2125 1034.1406,235.7906 Q1033.2,234.3687 1033.2,232.6844 L1033.2,231.1531 Q1033.2,229.4031 1034.0313,227.8719 Q1034.8844,226.3406 1036.35,225.5312 Q1037.8375,224.7 1039.5,224.7 Q1040.5063,224.7 1041.3813,225.05 Q1042.2563,225.4 1043,226.1 Z "/><text fill="#000000" font-family="sans-serif" font-size="16.8" lengthAdjust="spacingAndGlyphs" textLength="95.2" x="1059.8" y="237.8742">Collaborator</text><line style="stroke: #A80036; stroke-width: 2.0999999999999996;" x1="1020.6" x2="1157.8" y1="253.4" y2="253.4"/><text fill="#000000" font-family="sans-serif" font-size="15.4" lengthAdjust="spacingAndGlyphs" textLength="85.4" x="1027.6" y="274.9865">-String name</text><text fill="#000000" font-family="sans-serif" font-size="15.4" lengthAdjust="spacingAndGlyphs" textLength="103.6" x="1027.6" y="294.3568">-String function</text><text fill="#000000" font-family="sans-serif" font-size="15.4" lengthAdjust="spacingAndGlyphs" textLength="114.8" x="1027.6" y="313.7271">-String telephone</text><text fill="#000000" font-family="sans-serif" font-size="15.4" lengthAdjust="spacingAndGlyphs" textLength="82.6" x="1027.6" y="333.0975">-String email</text><!--MD5=[3fd616f346a44cd59a91eb10b19e157c]
class User--><rect fill="#FEFECE" filter="url(#fp5oo4p86ciaw)" height="114.1109" id="User" style="stroke: #A80036; stroke-width: 2.0999999999999996;" width="135.8" x="1439.2" y="178.5"/><ellipse cx="1484.14" cy="200.9" fill="#ADD1B2" rx="15.4" ry="15.4" style="stroke: #A80036; stroke-width: 1.4;"/><path d="M1486.94,196 Q1487.2244,195.3 1487.5525,194.95 Q1487.8806,194.6 1488.2525,194.6 Q1488.9087,194.6 1489.3244,194.9937 Q1489.74,195.3875 1489.74,196.3062 L1489.74,198.4937 Q1489.74,199.4125 1489.3462,199.8062 Q1488.9525,200.2 1488.34,200.2 Q1487.7931,200.2 1487.4431,199.9594 Q1487.0931,199.7188 1486.94,199.0844 Q1486.8744,198.6469 1486.6337,198.4063 Q1486.1962,197.9469 1485.4087,197.6844 Q1484.6212,197.4 1483.8337,197.4 Q1482.8494,197.4 1482.0181,197.7938 Q1481.2087,198.1875 1480.5744,199.0625 Q1479.94,199.9375 1479.94,201.1406 L1479.94,202.4312 Q1479.94,203.875 1481.1212,204.8375 Q1482.3025,205.8 1484.4025,205.8 Q1485.6494,205.8 1486.5244,205.5156 Q1487.0275,205.3625 1487.5962,204.8594 Q1487.9681,204.575 1488.165,204.4875 Q1488.3619,204.4 1488.6025,204.4 Q1489.0619,204.4 1489.39,204.7719 Q1489.74,205.1219 1489.74,205.625 Q1489.74,206.1063 1489.2587,206.675 Q1488.5587,207.5063 1487.4431,207.9656 Q1485.9775,208.6 1484.1837,208.6 Q1482.0837,208.6 1480.3994,207.7687 Q1479.0431,207.1125 1478.0806,205.6906 Q1477.14,204.2687 1477.14,202.5844 L1477.14,201.0531 Q1477.14,199.3031 1477.9712,197.7719 Q1478.8244,196.2406 1480.29,195.4312 Q1481.7775,194.6 1483.44,194.6 Q1484.4462,194.6 1485.3212,194.95 Q1486.1962,195.3 1486.94,196 Z "/><text fill="#000000" font-family="sans-serif" font-size="16.8" lengthAdjust="spacingAndGlyphs" textLength="37.8" x="1509.06" y="207.7742">User</text><line style="stroke: #A80036; stroke-width: 2.0999999999999996;" x1="1440.6" x2="1573.6" y1="223.3" y2="223.3"/><text fill="#000000" font-family="sans-serif" font-size="15.4" lengthAdjust="spacingAndGlyphs" textLength="85.4" x="1447.6" y="244.8865">-String nome</text><text fill="#000000" font-family="sans-serif" font-size="15.4" lengthAdjust="spacingAndGlyphs" textLength="82.6" x="1447.6" y="264.2568">-String email</text><text fill="#000000" font-family="sans-serif" font-size="15.4" lengthAdjust="spacingAndGlyphs" textLength="119" x="1447.6" y="283.6271">-String password</text><!--MD5=[03dcba4cf8fb1a884adf843655d65df1]
class Plataform--><rect fill="#FEFECE" filter="url(#fp5oo4p86ciaw)" height="75.3703" id="Plataform" style="stroke: #A80036; stroke-width: 2.0999999999999996;" width="142.8" x="8.4" y="521.5"/><ellipse cx="40.11" cy="543.9" fill="#ADD1B2" rx="15.4" ry="15.4" style="stroke: #A80036; stroke-width: 1.4;"/><path d="M42.91,539 Q43.1944,538.3 43.5225,537.95 Q43.8506,537.6 44.2225,537.6 Q44.8788,537.6 45.2944,537.9938 Q45.71,538.3875 45.71,539.3063 L45.71,541.4938 Q45.71,542.4125 45.3163,542.8063 Q44.9225,543.2 44.31,543.2 Q43.7631,543.2 43.4131,542.9594 Q43.0631,542.7188 42.91,542.0844 Q42.8444,541.6469 42.6038,541.4063 Q42.1663,540.9469 41.3788,540.6844 Q40.5912,540.4 39.8037,540.4 Q38.8194,540.4 37.9881,540.7937 Q37.1787,541.1875 36.5444,542.0625 Q35.91,542.9375 35.91,544.1406 L35.91,545.4313 Q35.91,546.875 37.0912,547.8375 Q38.2725,548.8 40.3725,548.8 Q41.6194,548.8 42.4944,548.5156 Q42.9975,548.3625 43.5663,547.8594 Q43.9381,547.575 44.135,547.4875 Q44.3319,547.4 44.5725,547.4 Q45.0319,547.4 45.36,547.7719 Q45.71,548.1219 45.71,548.625 Q45.71,549.1062 45.2288,549.675 Q44.5287,550.5062 43.4131,550.9656 Q41.9475,551.6 40.1537,551.6 Q38.0537,551.6 36.3694,550.7688 Q35.0131,550.1125 34.0506,548.6906 Q33.11,547.2688 33.11,545.5844 L33.11,544.0531 Q33.11,542.3031 33.9413,540.7719 Q34.7944,539.2406 36.26,538.4313 Q37.7475,537.6 39.41,537.6 Q40.4163,537.6 41.2913,537.95 Q42.1663,538.3 42.91,539 Z "/><text fill="#000000" font-family="sans-serif" font-size="16.8" lengthAdjust="spacingAndGlyphs" textLength="74.2" x="62.09" y="550.7742">Plataform</text><line style="stroke: #A80036; stroke-width: 2.0999999999999996;" x1="9.8" x2="149.8" y1="566.3" y2="566.3"/><text fill="#000000" font-family="sans-serif" font-size="15.4" lengthAdjust="spacingAndGlyphs" textLength="126" x="16.8" y="587.8865">-String designation</text><!--MD5=[86c7c362de55a38b660185a1328fe18d]
class Organization--><rect fill="#FEFECE" filter="url(#fp5oo4p86ciaw)" height="133.4813" id="Organization" style="stroke: #A80036; stroke-width: 2.0999999999999996;" width="187.6" x="355.6" y="180.6"/><ellipse cx="397.39" cy="203" fill="#ADD1B2" rx="15.4" ry="15.4" style="stroke: #A80036; stroke-width: 1.4;"/><path d="M400.19,198.1 Q400.4744,197.4 400.8025,197.05 Q401.1306,196.7 401.5025,196.7 Q402.1588,196.7 402.5744,197.0938 Q402.99,197.4875 402.99,198.4063 L402.99,200.5938 Q402.99,201.5125 402.5963,201.9063 Q402.2025,202.3 401.59,202.3 Q401.0431,202.3 400.6931,202.0594 Q400.3431,201.8188 400.19,201.1844 Q400.1244,200.7469 399.8838,200.5063 Q399.4463,200.0469 398.6588,199.7844 Q397.8713,199.5 397.0838,199.5 Q396.0994,199.5 395.2681,199.8937 Q394.4588,200.2875 393.8244,201.1625 Q393.19,202.0375 393.19,203.2406 L393.19,204.5313 Q393.19,205.975 394.3713,206.9375 Q395.5525,207.9 397.6525,207.9 Q398.8994,207.9 399.7744,207.6156 Q400.2775,207.4625 400.8463,206.9594 Q401.2181,206.675 401.415,206.5875 Q401.6119,206.5 401.8525,206.5 Q402.3119,206.5 402.64,206.8719 Q402.99,207.2219 402.99,207.725 Q402.99,208.2062 402.5088,208.775 Q401.8088,209.6063 400.6931,210.0656 Q399.2275,210.7 397.4338,210.7 Q395.3338,210.7 393.6494,209.8687 Q392.2931,209.2125 391.3306,207.7906 Q390.39,206.3687 390.39,204.6844 L390.39,203.1531 Q390.39,201.4031 391.2213,199.8719 Q392.0744,198.3406 393.54,197.5313 Q395.0275,196.7 396.69,196.7 Q397.6963,196.7 398.5713,197.05 Q399.4463,197.4 400.19,198.1 Z "/><text fill="#000000" font-family="sans-serif" font-size="16.8" lengthAdjust="spacingAndGlyphs" textLength="96.6" x="421.61" y="209.8742">Organization</text><line style="stroke: #A80036; stroke-width: 2.0999999999999996;" x1="357" x2="541.8" y1="225.4" y2="225.4"/><text fill="#000000" font-family="sans-serif" font-size="15.4" lengthAdjust="spacingAndGlyphs" textLength="85.4" x="364" y="246.9865">-String name</text><text fill="#000000" font-family="sans-serif" font-size="15.4" lengthAdjust="spacingAndGlyphs" textLength="70" x="364" y="266.3568">-String NIF</text><text fill="#000000" font-family="sans-serif" font-size="15.4" lengthAdjust="spacingAndGlyphs" textLength="170.8" x="364" y="285.7271">-Collaborator collaborator</text><text fill="#000000" font-family="sans-serif" font-size="15.4" lengthAdjust="spacingAndGlyphs" textLength="127.4" x="364" y="305.0975">-Manager manager</text><!--MD5=[b24ed8d4ae84bae9290d9aab401637c7]
class Manager--><rect fill="#FEFECE" filter="url(#fp5oo4p86ciaw)" height="94.7406" id="Manager" style="stroke: #A80036; stroke-width: 2.0999999999999996;" width="112" x="691.6" y="77.7"/><ellipse cx="712.6" cy="100.1" fill="#ADD1B2" rx="15.4" ry="15.4" style="stroke: #A80036; stroke-width: 1.4;"/><path d="M715.4,95.2 Q715.6844,94.5 716.0125,94.15 Q716.3406,93.8 716.7125,93.8 Q717.3688,93.8 717.7844,94.1938 Q718.2,94.5875 718.2,95.5063 L718.2,97.6938 Q718.2,98.6125 717.8063,99.0063 Q717.4125,99.4 716.8,99.4 Q716.2531,99.4 715.9031,99.1594 Q715.5531,98.9187 715.4,98.2844 Q715.3344,97.8469 715.0938,97.6062 Q714.6563,97.1469 713.8688,96.8844 Q713.0813,96.6 712.2937,96.6 Q711.3094,96.6 710.4781,96.9937 Q709.6687,97.3875 709.0344,98.2625 Q708.4,99.1375 708.4,100.3406 L708.4,101.6313 Q708.4,103.075 709.5813,104.0375 Q710.7625,105 712.8625,105 Q714.1094,105 714.9844,104.7156 Q715.4875,104.5625 716.0563,104.0594 Q716.4281,103.775 716.625,103.6875 Q716.8219,103.6 717.0625,103.6 Q717.5219,103.6 717.85,103.9719 Q718.2,104.3219 718.2,104.825 Q718.2,105.3062 717.7188,105.875 Q717.0188,106.7063 715.9031,107.1656 Q714.4375,107.8 712.6438,107.8 Q710.5437,107.8 708.8594,106.9688 Q707.5031,106.3125 706.5406,104.8906 Q705.6,103.4688 705.6,101.7844 L705.6,100.2531 Q705.6,98.5031 706.4313,96.9719 Q707.2844,95.4406 708.75,94.6313 Q710.2375,93.8 711.9,93.8 Q712.9063,93.8 713.7813,94.15 Q714.6563,94.5 715.4,95.2 Z "/><text fill="#000000" font-family="sans-serif" font-size="16.8" lengthAdjust="spacingAndGlyphs" textLength="67.2" x="732.2" y="106.9742">Manager</text><line style="stroke: #A80036; stroke-width: 2.0999999999999996;" x1="693" x2="802.2" y1="122.5" y2="122.5"/><text fill="#000000" font-family="sans-serif" font-size="15.4" lengthAdjust="spacingAndGlyphs" textLength="85.4" x="700" y="144.0865">-String name</text><text fill="#000000" font-family="sans-serif" font-size="15.4" lengthAdjust="spacingAndGlyphs" textLength="82.6" x="700" y="163.4568">-String email</text><!--MD5=[69e497c3067133575d4453703547b8fd]
link Plataform to Organization--><path d="M125.8102,521.3306 C186.333,469.8162 295.4182,376.9696 369.7316,313.7176 " fill="none" id="Plataform-Organization" style="stroke: #A80036; stroke-width: 1.4;"/><text fill="#000000" font-family="sans-serif" font-size="18.2" lengthAdjust="spacingAndGlyphs" textLength="99.4" x="194.6" y="359.7932">has registed</text><polygon fill="#000000" points="298.2,350.2461,306.6,354.4461,298.2,358.6461,298.2,350.2461" style="stroke: #000000; stroke-width: 1.4;"/><text fill="#000000" font-family="sans-serif" font-size="18.2" lengthAdjust="spacingAndGlyphs" textLength="9.8" x="125.5169" y="506.5368">1</text><text fill="#000000" font-family="sans-serif" font-size="18.2" lengthAdjust="spacingAndGlyphs" textLength="7" x="350.5162" y="344.041">*</text><!--MD5=[45817597bcd7048073a670d966abfd17]
link Organization to Collaborator--><path d="M543.4254,251.1712 C672.6496,256.851 904.0808,267.0248 1019.0642,272.0788 " fill="none" id="Organization-Collaborator" style="stroke: #A80036; stroke-width: 1.4;"/><text fill="#000000" font-family="sans-serif" font-size="18.2" lengthAdjust="spacingAndGlyphs" textLength="105" x="686" y="251.9932">has manager</text><polygon fill="#000000" points="795.2,242.4461,803.6,246.6461,795.2,250.8461,795.2,242.4461" style="stroke: #000000; stroke-width: 1.4;"/><text fill="#000000" font-family="sans-serif" font-size="18.2" lengthAdjust="spacingAndGlyphs" textLength="9.8" x="554.2454" y="271.7352">1</text><text fill="#000000" font-family="sans-serif" font-size="18.2" lengthAdjust="spacingAndGlyphs" textLength="9.8" x="998.2433" y="292.174">1</text><!--MD5=[45817597bcd7048073a670d966abfd17]
link Organization to Collaborator--><path d="M505.5498,180.4208 C547.309,135.149 609.1596,79.0986 677.6,53.9 C735.9898,32.4016 759.003,32.9728 817.6,53.9 C903.2394,84.483 981.2852,155.1704 1031.2358,208.4642 " fill="none" id="Organization-Collaborator-1" style="stroke: #A80036; stroke-width: 1.4;"/><text fill="#000000" font-family="sans-serif" font-size="18.2" lengthAdjust="spacingAndGlyphs" textLength="29.4" x="723.8" y="32.1932">has</text><polygon fill="#000000" points="757.4,22.6461,765.8,26.8461,757.4,31.0461,757.4,22.6461" style="stroke: #000000; stroke-width: 1.4;"/><text fill="#000000" font-family="sans-serif" font-size="18.2" lengthAdjust="spacingAndGlyphs" textLength="9.8" x="503.2771" y="165.4763">1</text><text fill="#000000" font-family="sans-serif" font-size="18.2" lengthAdjust="spacingAndGlyphs" textLength="28" x="992.6661" y="193.526">1..*</text><!--MD5=[b4b6c1ff9c803d8207b36238c02005ea]
link Freelancer to Task--><path d="M1773.576,583.0562 C1609.748,566.4001 1198.2334,520.6166 859.6,450.1 C846.0256,447.2734 831.6056,443.8994 817.817,440.4876 " fill="none" id="Freelancer-Task" style="stroke: #A80036; stroke-width: 1.4;"/><polygon fill="#000000" points="1212.4,495.8461,1204,500.0461,1212.4,504.2461,1212.4,495.8461" style="stroke: #000000; stroke-width: 1.4;"/><text fill="#000000" font-family="sans-serif" font-size="18.2" lengthAdjust="spacingAndGlyphs" textLength="141.4" x="1220.8" y="505.3932">finishes/executes</text><text fill="#000000" font-family="sans-serif" font-size="18.2" lengthAdjust="spacingAndGlyphs" textLength="9.8" x="1752.7195" y="602.5992">1</text><text fill="#000000" font-family="sans-serif" font-size="18.2" lengthAdjust="spacingAndGlyphs" textLength="28" x="828.6073" y="437.9171">1..*</text><!--MD5=[f24cbd698439a42b2d62cde440643418]
link Task to PaymentTransaction--><path d="M817.9248,431.1748 C831.705,432.6434 846.0942,433.9328 859.6,434.7 C1052.5102,445.6536 1278.3288,439.3312 1405.4348,434.0224 " fill="none" id="Task-PaymentTransaction" style="stroke: #A80036; stroke-width: 1.4;"/><text fill="#000000" font-family="sans-serif" font-size="18.2" lengthAdjust="spacingAndGlyphs" textLength="78.4" x="1040.9" y="433.9932">is paid by</text><polygon fill="#000000" points="1123.5,424.4461,1131.9,428.6461,1123.5,432.8461,1123.5,424.4461" style="stroke: #000000; stroke-width: 1.4;"/><text fill="#000000" font-family="sans-serif" font-size="18.2" lengthAdjust="spacingAndGlyphs" textLength="9.8" x="828.9734" y="453.0635">1</text><text fill="#000000" font-family="sans-serif" font-size="18.2" lengthAdjust="spacingAndGlyphs" textLength="9.8" x="1384.6453" y="454.6024">1</text><!--MD5=[f6802b286771c18a16ea4be983074371]
link PaymentTransaction to Freelancer--><path d="M1608.824,476.9688 C1661.66,502.1814 1725.262,532.5348 1773.282,555.45 " fill="none" id="PaymentTransaction-Freelancer" style="stroke: #A80036; stroke-width: 1.4;"/><text fill="#000000" font-family="sans-serif" font-size="18.2" lengthAdjust="spacingAndGlyphs" textLength="60.2" x="1652" y="494.1932">pays to</text><polygon fill="#000000" points="1716.4,484.6461,1724.8,488.8461,1716.4,493.0461,1716.4,484.6461" style="stroke: #000000; stroke-width: 1.4;"/><text fill="#000000" font-family="sans-serif" font-size="18.2" lengthAdjust="spacingAndGlyphs" textLength="9.8" x="1619.8196" y="501.9777">1</text><text fill="#000000" font-family="sans-serif" font-size="18.2" lengthAdjust="spacingAndGlyphs" textLength="9.8" x="1752.8774" y="571.2545">1</text><!--MD5=[c32d3c60a61e5638fef4971a1b3a8306]
link Collaborator to PaymentTransaction--><path d="M1159.6116,300.7032 C1226.6982,325.591 1329.3238,363.6654 1405.4194,391.8964 " fill="none" id="Collaborator-PaymentTransaction" style="stroke: #A80036; stroke-width: 1.4;"/><text fill="#000000" font-family="sans-serif" font-size="18.2" lengthAdjust="spacingAndGlyphs" textLength="60.2" x="1243.2" y="310.7932">creates</text><polygon fill="#000000" points="1307.6,301.2461,1316,305.4461,1307.6,309.6461,1307.6,301.2461" style="stroke: #000000; stroke-width: 1.4;"/><text fill="#000000" font-family="sans-serif" font-size="18.2" lengthAdjust="spacingAndGlyphs" textLength="9.8" x="1170.2023" y="324.7726">1</text><text fill="#000000" font-family="sans-serif" font-size="18.2" lengthAdjust="spacingAndGlyphs" textLength="28" x="1366.3936" y="408.3335">1..*</text><!--MD5=[4078351e3988aa35b1504a42837f2ab1]
link Organization to Task--><path d="M543.4562,301.9912 C586.7708,327.6518 637.4578,357.679 677.3144,381.2914 " fill="none" id="Organization-Task" style="stroke: #A80036; stroke-width: 1.4;"/><text fill="#000000" font-family="sans-serif" font-size="18.2" lengthAdjust="spacingAndGlyphs" textLength="29.4" x="586.6" y="323.3932">has</text><polygon fill="#000000" points="620.2,313.8461,628.6,318.0461,620.2,322.2461,620.2,313.8461" style="stroke: #000000; stroke-width: 1.4;"/><text fill="#000000" font-family="sans-serif" font-size="18.2" lengthAdjust="spacingAndGlyphs" textLength="9.8" x="554.2795" y="328.1137">1</text><text fill="#000000" font-family="sans-serif" font-size="18.2" lengthAdjust="spacingAndGlyphs" textLength="7" x="659.4771" y="395.8535">*</text><!--MD5=[392f7804293287fa5662caa616132930]
link Task to Collaborator--><path d="M817.6952,380.6544 C831.3662,373.0692 845.7736,365.5288 859.6,359.1 C911.6618,334.8926 972.8124,312.6984 1018.7016,297.2102 " fill="none" id="Task-Collaborator" style="stroke: #A80036; stroke-width: 1.4;"/><text fill="#000000" font-family="sans-serif" font-size="18.2" lengthAdjust="spacingAndGlyphs" textLength="96.6" x="861" y="306.5932">specified by</text><polygon fill="#000000" points="961.8,297.0461,970.2,301.2461,961.8,305.4461,961.8,297.0461" style="stroke: #000000; stroke-width: 1.4;"/><text fill="#000000" font-family="sans-serif" font-size="18.2" lengthAdjust="spacingAndGlyphs" textLength="7" x="828.9645" y="394.9346">*</text><text fill="#000000" font-family="sans-serif" font-size="18.2" lengthAdjust="spacingAndGlyphs" textLength="9.8" x="998.2987" y="320.7884">1</text><!--MD5=[f919d21ae7a75ef5ececc535e09d5009]
link Collaborator to Task--><path d="M1041.7274,341.6266 C1023.9908,362.2472 1001.9758,382.8552 977.2,395.5 C927.9956,420.6132 865.2378,426.3392 817.9948,426.3042 " fill="none" id="Collaborator-Task" style="stroke: #A80036; stroke-width: 1.4;"/><polygon fill="#000000" points="880.6,381.0461,872.2,385.2461,880.6,389.4461,880.6,381.0461" style="stroke: #000000; stroke-width: 1.4;"/><text fill="#000000" font-family="sans-serif" font-size="18.2" lengthAdjust="spacingAndGlyphs" textLength="77" x="889" y="390.5932">publishes</text><text fill="#000000" font-family="sans-serif" font-size="18.2" lengthAdjust="spacingAndGlyphs" textLength="9.8" x="1024.2352" y="371.9367">1</text><text fill="#000000" font-family="sans-serif" font-size="18.2" lengthAdjust="spacingAndGlyphs" textLength="28" x="828.8079" y="421.9164">1..*</text><!--MD5=[04ce0ecdab38a3951889ff50c232570f]
link Collaborator to User--><path d="M1159.6116,268.583 C1237.0722,261.268 1361.913,249.4786 1438.584,242.2378 " fill="none" id="Collaborator-User" style="stroke: #A80036; stroke-width: 1.4;"/><text fill="#000000" font-family="sans-serif" font-size="18.2" lengthAdjust="spacingAndGlyphs" textLength="68.6" x="1239" y="243.5932">acts like</text><polygon fill="#000000" points="1311.8,234.0461,1320.2,238.2461,1311.8,242.4461,1311.8,234.0461" style="stroke: #000000; stroke-width: 1.4;"/><text fill="#000000" font-family="sans-serif" font-size="18.2" lengthAdjust="spacingAndGlyphs" textLength="30.8" x="1170.6062" y="288.0769">0..1</text><text fill="#000000" font-family="sans-serif" font-size="18.2" lengthAdjust="spacingAndGlyphs" textLength="9.8" x="1418.001" y="263.7936">1</text><!--MD5=[b84222977e65b0051251f49c6eaf9537]
link Plataform to Freelancer--><path d="M145.6783,597.3093 C217.0854,635.7396 336.8414,689.5 448,689.5 C448,689.5 448,689.5 1508.5,689.5 C1602.846,689.5 1706.208,653.2954 1773.338,624.5863 " fill="none" id="Plataform-Freelancer" style="stroke: #A80036; stroke-width: 1.4;"/><text fill="#000000" font-family="sans-serif" font-size="18.2" lengthAdjust="spacingAndGlyphs" textLength="74.2" x="872.2" y="684.5932">has/uses</text><polygon fill="#000000" points="950.6,675.0461,959,679.2461,950.6,683.4461,950.6,675.0461" style="stroke: #000000; stroke-width: 1.4;"/><text fill="#000000" font-family="sans-serif" font-size="18.2" lengthAdjust="spacingAndGlyphs" textLength="9.8" x="149.2173" y="627.046">1</text><text fill="#000000" font-family="sans-serif" font-size="18.2" lengthAdjust="spacingAndGlyphs" textLength="28" x="1734.6176" y="649.1042">1..*</text><!--MD5=[bc039f41cf0b27fadee5cae63fc6e1fe]
link Organization to Manager--><path d="M543.4562,208.8954 C592.0166,188.8726 649.8408,165.0306 691.285,147.9422 " fill="none" id="Organization-Manager" style="stroke: #A80036; stroke-width: 1.4;"/><text fill="#000000" font-family="sans-serif" font-size="18.2" lengthAdjust="spacingAndGlyphs" textLength="29.4" x="586.6" y="166.5932">has</text><polygon fill="#000000" points="620.2,157.0461,628.6,161.2461,620.2,165.4461,620.2,157.0461" style="stroke: #000000; stroke-width: 1.4;"/><text fill="#000000" font-family="sans-serif" font-size="18.2" lengthAdjust="spacingAndGlyphs" textLength="9.8" x="554.2795" y="224.8355">1</text><text fill="#000000" font-family="sans-serif" font-size="18.2" lengthAdjust="spacingAndGlyphs" textLength="9.8" x="670.5811" y="172.9483">1</text><!--MD5=[ef83b24b3308983892920eeca7e28fb0]
@startuml
hide methods
left to right direction
skinparam classAttributeIconSize 0

class Task{
-String TaskId
-String description
-String duration
-String cost
-String category
}

class PaymentTransaction{
-String transId
-String endDate
-Integer delay
-String descQualityOfWork
-Double amountPay
-Date dateToPay
}

class Freelancer{
-String freelancerId
-String name
-String lvlExp
-String email
-String nif
-String iban
-String address
-String country
}

class Collaborator{
-String name
-String function
-String telephone
-String email
}

class User{
-String nome
-String email
-String password
}

class Plataform{
-String designation
}

class Organization{
-String name
-String NIF
-Collaborator collaborator
-Manager manager
}


class Manager{
-String name
-String email
}

Plataform "1" - - "*" Organization : has registed >
Organization "1" - - "1" Collaborator : has manager >
Organization "1" - - "1..*" Collaborator : has >
Freelancer "1" - - "1..*" Task : finishes/executes >
Task "1" - - "1" PaymentTransaction : is paid by >
PaymentTransaction "1" - - "1" Freelancer : pays to >
Collaborator "1" - - "1..*" PaymentTransaction : creates >
Organization "1" - - "*" Task :  has >
Task "*" - - "1" Collaborator : specified by >
Collaborator "1" - - "1..*" Task : publishes >
Collaborator "0..1" - - "1" User : acts like >
Plataform "1" - - "1..*" Freelancer : has/uses >
Organization "1" - - "1" Manager : has >



@enduml

PlantUML version 1.2020.09(Sun May 10 11:51:06 BST 2020)
(GPL source distribution)
Java Runtime: OpenJDK Runtime Environment
JVM: OpenJDK 64-Bit Server VM
Java Version: 11.0.7+10-b765.53
Operating System: Windows 10
Default Encoding: Cp1252
Language: pt
Country: PT
--></g></svg>