<?xml version="1.0" encoding="UTF-8" standalone="no"?><svg xmlns="http://www.w3.org/2000/svg" xmlns:xlink="http://www.w3.org/1999/xlink" contentScriptType="application/ecmascript" contentStyleType="text/css" height="1587.6px" preserveAspectRatio="none" style="width:793px;height:1587px;" version="1.1" viewBox="0 0 793 1587" width="793.8px" zoomAndPan="magnify"><defs><filter height="300%" id="f714pnju0rwnj" width="300%" x="-1" y="-1"><feGaussianBlur result="blurOut" stdDeviation="2.8"/><feColorMatrix in="blurOut" result="blurOut2" type="matrix" values="0 0 0 0 0 0 0 0 0 0 0 0 0 0 0 0 0 0 .4 0"/><feOffset dx="5.6" dy="5.6" in="blurOut2" result="blurOut3"/><feBlend in="SourceGraphic" in2="blurOut3" mode="normal"/></filter></defs><g><!--MD5=[39adcd81df9383c364d924f3f2251e2b]
class CollaboratorPaymentStatisticsUI--><rect fill="#FEFECE" filter="url(#f714pnju0rwnj)" height="67.2" id="CollaboratorPaymentStatisticsUI" style="stroke: #A80036; stroke-width: 2.0999999999999996;" width="294" x="394.8" y="11.2"/><ellipse cx="415.8" cy="33.6" fill="#ADD1B2" rx="15.4" ry="15.4" style="stroke: #A80036; stroke-width: 1.4;"/><path d="M418.6,28.7 Q418.8844,28 419.2125,27.65 Q419.5406,27.3 419.9125,27.3 Q420.5687,27.3 420.9844,27.6937 Q421.4,28.0875 421.4,29.0062 L421.4,31.1937 Q421.4,32.1125 421.0062,32.5063 Q420.6125,32.9 420,32.9 Q419.4531,32.9 419.1031,32.6594 Q418.7531,32.4187 418.6,31.7844 Q418.5344,31.3469 418.2938,31.1063 Q417.8563,30.6469 417.0687,30.3844 Q416.2813,30.1 415.4938,30.1 Q414.5094,30.1 413.6781,30.4938 Q412.8688,30.8875 412.2344,31.7625 Q411.6,32.6375 411.6,33.8406 L411.6,35.1312 Q411.6,36.575 412.7813,37.5375 Q413.9625,38.5 416.0625,38.5 Q417.3094,38.5 418.1844,38.2156 Q418.6875,38.0625 419.2562,37.5594 Q419.6281,37.275 419.825,37.1875 Q420.0219,37.1 420.2625,37.1 Q420.7219,37.1 421.05,37.4719 Q421.4,37.8219 421.4,38.325 Q421.4,38.8063 420.9188,39.375 Q420.2188,40.2063 419.1031,40.6656 Q417.6375,41.3 415.8438,41.3 Q413.7438,41.3 412.0594,40.4688 Q410.7031,39.8125 409.7406,38.3906 Q408.8,36.9688 408.8,35.2844 L408.8,33.7531 Q408.8,32.0031 409.6312,30.4719 Q410.4844,28.9406 411.95,28.1312 Q413.4375,27.3 415.1,27.3 Q416.1063,27.3 416.9813,27.65 Q417.8563,28 418.6,28.7 Z "/><text fill="#000000" font-family="sans-serif" font-size="16.8" lengthAdjust="spacingAndGlyphs" textLength="249.2" x="435.4" y="40.4742">CollaboratorPaymentStatisticsUI</text><line style="stroke: #A80036; stroke-width: 2.0999999999999996;" x1="396.2" x2="687.4" y1="56" y2="56"/><line style="stroke: #A80036; stroke-width: 2.0999999999999996;" x1="396.2" x2="687.4" y1="67.2" y2="67.2"/><!--MD5=[03b67737dcf1a3882c51ed6ff85959e0]
class CollaboratorStatisticsController--><rect fill="#FEFECE" filter="url(#f714pnju0rwnj)" height="144.6812" id="CollaboratorStatisticsController" style="stroke: #A80036; stroke-width: 2.0999999999999996;" width="285.6" x="394.8" y="163.8"/><ellipse cx="415.8" cy="186.2" fill="#ADD1B2" rx="15.4" ry="15.4" style="stroke: #A80036; stroke-width: 1.4;"/><path d="M418.6,181.3 Q418.8844,180.6 419.2125,180.25 Q419.5406,179.9 419.9125,179.9 Q420.5687,179.9 420.9844,180.2938 Q421.4,180.6875 421.4,181.6063 L421.4,183.7938 Q421.4,184.7125 421.0062,185.1063 Q420.6125,185.5 420,185.5 Q419.4531,185.5 419.1031,185.2594 Q418.7531,185.0187 418.6,184.3844 Q418.5344,183.9469 418.2938,183.7062 Q417.8563,183.2469 417.0687,182.9844 Q416.2813,182.7 415.4938,182.7 Q414.5094,182.7 413.6781,183.0938 Q412.8688,183.4875 412.2344,184.3625 Q411.6,185.2375 411.6,186.4406 L411.6,187.7313 Q411.6,189.175 412.7813,190.1375 Q413.9625,191.1 416.0625,191.1 Q417.3094,191.1 418.1844,190.8156 Q418.6875,190.6625 419.2562,190.1594 Q419.6281,189.875 419.825,189.7875 Q420.0219,189.7 420.2625,189.7 Q420.7219,189.7 421.05,190.0719 Q421.4,190.4219 421.4,190.925 Q421.4,191.4063 420.9188,191.975 Q420.2188,192.8062 419.1031,193.2656 Q417.6375,193.9 415.8438,193.9 Q413.7438,193.9 412.0594,193.0688 Q410.7031,192.4125 409.7406,190.9906 Q408.8,189.5688 408.8,187.8844 L408.8,186.3531 Q408.8,184.6031 409.6312,183.0719 Q410.4844,181.5406 411.95,180.7313 Q413.4375,179.9 415.1,179.9 Q416.1063,179.9 416.9813,180.25 Q417.8563,180.6 418.6,181.3 Z "/><text fill="#000000" font-family="sans-serif" font-size="16.8" lengthAdjust="spacingAndGlyphs" textLength="240.8" x="435.4" y="193.0742">CollaboratorStatisticsController</text><line style="stroke: #A80036; stroke-width: 2.0999999999999996;" x1="396.2" x2="679" y1="208.6" y2="208.6"/><line style="stroke: #A80036; stroke-width: 2.0999999999999996;" x1="396.2" x2="679" y1="219.8" y2="219.8"/><text fill="#000000" font-family="sans-serif" font-size="15.4" lengthAdjust="spacingAndGlyphs" textLength="126" x="403.2" y="241.3865">+getOrganization()</text><text fill="#000000" font-family="sans-serif" font-size="15.4" lengthAdjust="spacingAndGlyphs" textLength="145.6" x="403.2" y="260.7568">+getListFreelancers()</text><text fill="#000000" font-family="sans-serif" font-size="15.4" lengthAdjust="spacingAndGlyphs" textLength="144.2" x="403.2" y="280.1271">+getTransactionList()</text><text fill="#000000" font-family="sans-serif" font-size="15.4" lengthAdjust="spacingAndGlyphs" textLength="201.6" x="403.2" y="299.4975">+getOpition(freelancer,option)</text><!--MD5=[d6be9fe95adff84248275973f7cecef0]
class ManagerPaymentStatisticsUI--><rect fill="#FEFECE" filter="url(#f714pnju0rwnj)" height="67.2" id="ManagerPaymentStatisticsUI" style="stroke: #A80036; stroke-width: 2.0999999999999996;" width="266" x="79.8" y="11.2"/><ellipse cx="100.8" cy="33.6" fill="#ADD1B2" rx="15.4" ry="15.4" style="stroke: #A80036; stroke-width: 1.4;"/><path d="M103.6,28.7 Q103.8844,28 104.2125,27.65 Q104.5406,27.3 104.9125,27.3 Q105.5688,27.3 105.9844,27.6937 Q106.4,28.0875 106.4,29.0062 L106.4,31.1937 Q106.4,32.1125 106.0063,32.5063 Q105.6125,32.9 105,32.9 Q104.4531,32.9 104.1031,32.6594 Q103.7531,32.4187 103.6,31.7844 Q103.5344,31.3469 103.2937,31.1063 Q102.8562,30.6469 102.0688,30.3844 Q101.2813,30.1 100.4937,30.1 Q99.5094,30.1 98.6781,30.4938 Q97.8687,30.8875 97.2344,31.7625 Q96.6,32.6375 96.6,33.8406 L96.6,35.1312 Q96.6,36.575 97.7813,37.5375 Q98.9625,38.5 101.0625,38.5 Q102.3094,38.5 103.1844,38.2156 Q103.6875,38.0625 104.2563,37.5594 Q104.6281,37.275 104.825,37.1875 Q105.0219,37.1 105.2625,37.1 Q105.7219,37.1 106.05,37.4719 Q106.4,37.8219 106.4,38.325 Q106.4,38.8063 105.9187,39.375 Q105.2188,40.2063 104.1031,40.6656 Q102.6375,41.3 100.8438,41.3 Q98.7437,41.3 97.0594,40.4688 Q95.7031,39.8125 94.7406,38.3906 Q93.8,36.9688 93.8,35.2844 L93.8,33.7531 Q93.8,32.0031 94.6313,30.4719 Q95.4844,28.9406 96.95,28.1312 Q98.4375,27.3 100.1,27.3 Q101.1062,27.3 101.9812,27.65 Q102.8562,28 103.6,28.7 Z "/><text fill="#000000" font-family="sans-serif" font-size="16.8" lengthAdjust="spacingAndGlyphs" textLength="221.2" x="120.4" y="40.4742">ManagerPaymentStatisticsUI</text><line style="stroke: #A80036; stroke-width: 2.0999999999999996;" x1="81.2" x2="344.4" y1="56" y2="56"/><line style="stroke: #A80036; stroke-width: 2.0999999999999996;" x1="81.2" x2="344.4" y1="67.2" y2="67.2"/><!--MD5=[6b84b6d43cb0247a62b9b0b3bf940416]
class ManagerStatisticsController--><rect fill="#FEFECE" filter="url(#f714pnju0rwnj)" height="144.6812" id="ManagerStatisticsController" style="stroke: #A80036; stroke-width: 2.0999999999999996;" width="257.6" x="85.4" y="163.8"/><ellipse cx="106.4" cy="186.2" fill="#ADD1B2" rx="15.4" ry="15.4" style="stroke: #A80036; stroke-width: 1.4;"/><path d="M109.2,181.3 Q109.4844,180.6 109.8125,180.25 Q110.1406,179.9 110.5125,179.9 Q111.1687,179.9 111.5844,180.2938 Q112,180.6875 112,181.6063 L112,183.7938 Q112,184.7125 111.6062,185.1063 Q111.2125,185.5 110.6,185.5 Q110.0531,185.5 109.7031,185.2594 Q109.3531,185.0187 109.2,184.3844 Q109.1344,183.9469 108.8938,183.7062 Q108.4563,183.2469 107.6687,182.9844 Q106.8813,182.7 106.0938,182.7 Q105.1094,182.7 104.2781,183.0938 Q103.4688,183.4875 102.8344,184.3625 Q102.2,185.2375 102.2,186.4406 L102.2,187.7313 Q102.2,189.175 103.3813,190.1375 Q104.5625,191.1 106.6625,191.1 Q107.9094,191.1 108.7844,190.8156 Q109.2875,190.6625 109.8562,190.1594 Q110.2281,189.875 110.425,189.7875 Q110.6219,189.7 110.8625,189.7 Q111.3219,189.7 111.65,190.0719 Q112,190.4219 112,190.925 Q112,191.4063 111.5188,191.975 Q110.8188,192.8062 109.7031,193.2656 Q108.2375,193.9 106.4438,193.9 Q104.3438,193.9 102.6594,193.0688 Q101.3031,192.4125 100.3406,190.9906 Q99.4,189.5688 99.4,187.8844 L99.4,186.3531 Q99.4,184.6031 100.2312,183.0719 Q101.0844,181.5406 102.55,180.7313 Q104.0375,179.9 105.7,179.9 Q106.7063,179.9 107.5813,180.25 Q108.4563,180.6 109.2,181.3 Z "/><text fill="#000000" font-family="sans-serif" font-size="16.8" lengthAdjust="spacingAndGlyphs" textLength="212.8" x="126" y="193.0742">ManagerStatisticsController</text><line style="stroke: #A80036; stroke-width: 2.0999999999999996;" x1="86.8" x2="341.6" y1="208.6" y2="208.6"/><line style="stroke: #A80036; stroke-width: 2.0999999999999996;" x1="86.8" x2="341.6" y1="219.8" y2="219.8"/><text fill="#000000" font-family="sans-serif" font-size="15.4" lengthAdjust="spacingAndGlyphs" textLength="126" x="93.8" y="241.3865">+getOrganization()</text><text fill="#000000" font-family="sans-serif" font-size="15.4" lengthAdjust="spacingAndGlyphs" textLength="145.6" x="93.8" y="260.7568">+getListFreelancers()</text><text fill="#000000" font-family="sans-serif" font-size="15.4" lengthAdjust="spacingAndGlyphs" textLength="144.2" x="93.8" y="280.1271">+getTransactionList()</text><text fill="#000000" font-family="sans-serif" font-size="15.4" lengthAdjust="spacingAndGlyphs" textLength="201.6" x="93.8" y="299.4975">+getOpition(freelancer,option)</text><!--MD5=[3fd616f346a44cd59a91eb10b19e157c]
class User--><rect fill="#FEFECE" filter="url(#f714pnju0rwnj)" height="86.5703" id="User" style="stroke: #A80036; stroke-width: 2.0999999999999996;" width="123.2" x="8.4" y="422.1"/><ellipse cx="47.67" cy="444.5" fill="#ADD1B2" rx="15.4" ry="15.4" style="stroke: #A80036; stroke-width: 1.4;"/><path d="M50.47,439.6 Q50.7544,438.9 51.0825,438.55 Q51.4106,438.2 51.7825,438.2 Q52.4387,438.2 52.8544,438.5938 Q53.27,438.9875 53.27,439.9063 L53.27,442.0938 Q53.27,443.0125 52.8762,443.4063 Q52.4825,443.8 51.87,443.8 Q51.3231,443.8 50.9731,443.5594 Q50.6231,443.3187 50.47,442.6844 Q50.4044,442.2469 50.1637,442.0062 Q49.7262,441.5469 48.9387,441.2844 Q48.1512,441 47.3637,441 Q46.3794,441 45.5481,441.3937 Q44.7387,441.7875 44.1044,442.6625 Q43.47,443.5375 43.47,444.7406 L43.47,446.0313 Q43.47,447.475 44.6512,448.4375 Q45.8325,449.4 47.9325,449.4 Q49.1794,449.4 50.0544,449.1156 Q50.5575,448.9625 51.1262,448.4594 Q51.4981,448.175 51.695,448.0875 Q51.8919,448 52.1325,448 Q52.5919,448 52.92,448.3719 Q53.27,448.7219 53.27,449.225 Q53.27,449.7062 52.7887,450.275 Q52.0887,451.1063 50.9731,451.5656 Q49.5075,452.2 47.7137,452.2 Q45.6137,452.2 43.9294,451.3688 Q42.5731,450.7125 41.6106,449.2906 Q40.67,447.8688 40.67,446.1844 L40.67,444.6531 Q40.67,442.9031 41.5012,441.3719 Q42.3544,439.8406 43.82,439.0313 Q45.3075,438.2 46.97,438.2 Q47.9762,438.2 48.8512,438.55 Q49.7262,438.9 50.47,439.6 Z "/><text fill="#000000" font-family="sans-serif" font-size="16.8" lengthAdjust="spacingAndGlyphs" textLength="37.8" x="71.33" y="451.3742">User</text><line style="stroke: #A80036; stroke-width: 2.0999999999999996;" x1="9.8" x2="130.2" y1="466.9" y2="466.9"/><line style="stroke: #A80036; stroke-width: 2.0999999999999996;" x1="9.8" x2="130.2" y1="478.1" y2="478.1"/><text fill="#000000" font-family="sans-serif" font-size="15.4" lengthAdjust="spacingAndGlyphs" textLength="106.4" x="16.8" y="499.6865">+getUserEmail()</text><!--MD5=[380d12a68ed0046a60f31008a02875d0]
class AplicacaoPOT--><rect fill="#FEFECE" filter="url(#f714pnju0rwnj)" height="105.9406" id="AplicacaoPOT" style="stroke: #A80036; stroke-width: 2.0999999999999996;" width="162.4" x="616" y="412.3"/><ellipse cx="641.41" cy="434.7" fill="#ADD1B2" rx="15.4" ry="15.4" style="stroke: #A80036; stroke-width: 1.4;"/><path d="M644.21,429.8 Q644.4944,429.1 644.8225,428.75 Q645.1506,428.4 645.5225,428.4 Q646.1787,428.4 646.5944,428.7938 Q647.01,429.1875 647.01,430.1063 L647.01,432.2938 Q647.01,433.2125 646.6162,433.6063 Q646.2225,434 645.61,434 Q645.0631,434 644.7131,433.7594 Q644.3631,433.5187 644.21,432.8844 Q644.1444,432.4469 643.9038,432.2062 Q643.4663,431.7469 642.6787,431.4844 Q641.8912,431.2 641.1037,431.2 Q640.1194,431.2 639.2881,431.5938 Q638.4787,431.9875 637.8444,432.8625 Q637.21,433.7375 637.21,434.9406 L637.21,436.2313 Q637.21,437.675 638.3912,438.6375 Q639.5725,439.6 641.6725,439.6 Q642.9194,439.6 643.7944,439.3156 Q644.2975,439.1625 644.8662,438.6594 Q645.2381,438.375 645.435,438.2875 Q645.6319,438.2 645.8725,438.2 Q646.3319,438.2 646.66,438.5719 Q647.01,438.9219 647.01,439.425 Q647.01,439.9063 646.5288,440.475 Q645.8287,441.3063 644.7131,441.7656 Q643.2475,442.4 641.4537,442.4 Q639.3537,442.4 637.6694,441.5687 Q636.3131,440.9125 635.3506,439.4906 Q634.41,438.0687 634.41,436.3844 L634.41,434.8531 Q634.41,433.1031 635.2412,431.5719 Q636.0944,430.0406 637.56,429.2313 Q639.0475,428.4 640.71,428.4 Q641.7163,428.4 642.5913,428.75 Q643.4663,429.1 644.21,429.8 Z "/><text fill="#000000" font-family="sans-serif" font-size="16.8" lengthAdjust="spacingAndGlyphs" textLength="107.8" x="661.99" y="441.5742">AplicacaoPOT</text><line style="stroke: #A80036; stroke-width: 2.0999999999999996;" x1="617.4" x2="777" y1="457.1" y2="457.1"/><line style="stroke: #A80036; stroke-width: 2.0999999999999996;" x1="617.4" x2="777" y1="468.3" y2="468.3"/><text fill="#000000" font-family="sans-serif" font-size="15.4" lengthAdjust="spacingAndGlyphs" textLength="98" x="624.4" y="489.8865">+getInstance()</text><text fill="#000000" font-family="sans-serif" font-size="15.4" lengthAdjust="spacingAndGlyphs" textLength="145.6" x="624.4" y="509.2568">+getCurrentSession()</text><!--MD5=[99b8db98afdc2c8404e39242ef4c1e65]
class Platform--><rect fill="#FEFECE" filter="url(#f714pnju0rwnj)" height="144.6812" id="Platform" style="stroke: #A80036; stroke-width: 2.0999999999999996;" width="385" x="181.3" y="393.4"/><ellipse cx="335.65" cy="415.8" fill="#ADD1B2" rx="15.4" ry="15.4" style="stroke: #A80036; stroke-width: 1.4;"/><path d="M338.45,410.9 Q338.7344,410.2 339.0625,409.85 Q339.3906,409.5 339.7625,409.5 Q340.4188,409.5 340.8344,409.8937 Q341.25,410.2875 341.25,411.2062 L341.25,413.3937 Q341.25,414.3125 340.8563,414.7062 Q340.4625,415.1 339.85,415.1 Q339.3031,415.1 338.9531,414.8594 Q338.6031,414.6188 338.45,413.9844 Q338.3844,413.5469 338.1437,413.3063 Q337.7062,412.8469 336.9188,412.5844 Q336.1312,412.3 335.3438,412.3 Q334.3594,412.3 333.5281,412.6937 Q332.7188,413.0875 332.0844,413.9625 Q331.45,414.8375 331.45,416.0406 L331.45,417.3312 Q331.45,418.775 332.6312,419.7375 Q333.8125,420.7 335.9125,420.7 Q337.1594,420.7 338.0344,420.4156 Q338.5375,420.2625 339.1063,419.7594 Q339.4781,419.475 339.675,419.3875 Q339.8719,419.3 340.1125,419.3 Q340.5719,419.3 340.9,419.6719 Q341.25,420.0219 341.25,420.525 Q341.25,421.0062 340.7687,421.575 Q340.0687,422.4063 338.9531,422.8656 Q337.4875,423.5 335.6937,423.5 Q333.5938,423.5 331.9094,422.6688 Q330.5531,422.0125 329.5906,420.5906 Q328.65,419.1688 328.65,417.4844 L328.65,415.9531 Q328.65,414.2031 329.4813,412.6719 Q330.3344,411.1406 331.8,410.3312 Q333.2875,409.5 334.95,409.5 Q335.9562,409.5 336.8312,409.85 Q337.7062,410.2 338.45,410.9 Z "/><text fill="#000000" font-family="sans-serif" font-size="16.8" lengthAdjust="spacingAndGlyphs" textLength="64.4" x="364.35" y="422.6742">Platform</text><line style="stroke: #A80036; stroke-width: 2.0999999999999996;" x1="182.7" x2="564.9" y1="438.2" y2="438.2"/><line style="stroke: #A80036; stroke-width: 2.0999999999999996;" x1="182.7" x2="564.9" y1="449.4" y2="449.4"/><text fill="#000000" font-family="sans-serif" font-size="15.4" lengthAdjust="spacingAndGlyphs" textLength="168" x="189.7" y="470.9865">+getRegistOrganization()</text><text fill="#000000" font-family="sans-serif" font-size="15.4" lengthAdjust="spacingAndGlyphs" textLength="155.4" x="189.7" y="490.3568">+getRegistFreelancer()</text><text fill="#000000" font-family="sans-serif" font-size="15.4" lengthAdjust="spacingAndGlyphs" textLength="282.8" x="189.7" y="509.7271">+meanPaymnetsByFreelancer(freelancer)</text><text fill="#000000" font-family="sans-serif" font-size="15.4" lengthAdjust="spacingAndGlyphs" textLength="368.2" x="189.7" y="529.0975">+standardDeviationPaymentsByFreelancer(freelancer)</text><!--MD5=[eba5144af5135a87840971fc4358c553]
class RegistFreelancer--><rect fill="#FEFECE" filter="url(#f714pnju0rwnj)" height="86.5703" id="RegistFreelancer" style="stroke: #A80036; stroke-width: 2.0999999999999996;" width="177.8" x="231.7" y="646.8"/><ellipse cx="252.7" cy="669.2" fill="#ADD1B2" rx="15.4" ry="15.4" style="stroke: #A80036; stroke-width: 1.4;"/><path d="M255.5,664.3 Q255.7844,663.6 256.1125,663.25 Q256.4406,662.9 256.8125,662.9 Q257.4688,662.9 257.8844,663.2937 Q258.3,663.6875 258.3,664.6062 L258.3,666.7937 Q258.3,667.7125 257.9063,668.1062 Q257.5125,668.5 256.9,668.5 Q256.3531,668.5 256.0031,668.2594 Q255.6531,668.0188 255.5,667.3844 Q255.4344,666.9469 255.1938,666.7063 Q254.7563,666.2469 253.9687,665.9844 Q253.1812,665.7 252.3937,665.7 Q251.4094,665.7 250.5781,666.0938 Q249.7687,666.4875 249.1344,667.3625 Q248.5,668.2375 248.5,669.4406 L248.5,670.7312 Q248.5,672.175 249.6812,673.1375 Q250.8625,674.1 252.9625,674.1 Q254.2094,674.1 255.0844,673.8156 Q255.5875,673.6625 256.1563,673.1594 Q256.5281,672.875 256.725,672.7875 Q256.9219,672.7 257.1625,672.7 Q257.6219,672.7 257.95,673.0719 Q258.3,673.4219 258.3,673.925 Q258.3,674.4063 257.8187,674.975 Q257.1188,675.8063 256.0031,676.2656 Q254.5375,676.9 252.7437,676.9 Q250.6437,676.9 248.9594,676.0687 Q247.6031,675.4125 246.6406,673.9906 Q245.7,672.5687 245.7,670.8844 L245.7,669.3531 Q245.7,667.6031 246.5312,666.0719 Q247.3844,664.5406 248.85,663.7312 Q250.3375,662.9 252,662.9 Q253.0063,662.9 253.8813,663.25 Q254.7563,663.6 255.5,664.3 Z "/><text fill="#000000" font-family="sans-serif" font-size="16.8" lengthAdjust="spacingAndGlyphs" textLength="133" x="272.3" y="676.0742">RegistFreelancer</text><line style="stroke: #A80036; stroke-width: 2.0999999999999996;" x1="233.1" x2="408.1" y1="691.6" y2="691.6"/><line style="stroke: #A80036; stroke-width: 2.0999999999999996;" x1="233.1" x2="408.1" y1="702.8" y2="702.8"/><text fill="#000000" font-family="sans-serif" font-size="15.4" lengthAdjust="spacingAndGlyphs" textLength="137.2" x="240.1" y="724.3865">+getFreelancerList()</text><!--MD5=[86c7c362de55a38b660185a1328fe18d]
class Organization--><rect fill="#FEFECE" filter="url(#f714pnju0rwnj)" height="164.0516" id="Organization" style="stroke: #A80036; stroke-width: 2.0999999999999996;" width="218.4" x="445.2" y="842.8"/><ellipse cx="500.85" cy="865.2" fill="#ADD1B2" rx="15.4" ry="15.4" style="stroke: #A80036; stroke-width: 1.4;"/><path d="M503.65,860.3 Q503.9344,859.6 504.2625,859.25 Q504.5906,858.9 504.9625,858.9 Q505.6188,858.9 506.0344,859.2937 Q506.45,859.6875 506.45,860.6062 L506.45,862.7937 Q506.45,863.7125 506.0563,864.1062 Q505.6625,864.5 505.05,864.5 Q504.5031,864.5 504.1531,864.2594 Q503.8031,864.0188 503.65,863.3844 Q503.5844,862.9469 503.3437,862.7063 Q502.9062,862.2469 502.1188,861.9844 Q501.3312,861.7 500.5438,861.7 Q499.5594,861.7 498.7281,862.0938 Q497.9188,862.4875 497.2844,863.3625 Q496.65,864.2375 496.65,865.4406 L496.65,866.7312 Q496.65,868.175 497.8312,869.1375 Q499.0125,870.1 501.1125,870.1 Q502.3594,870.1 503.2344,869.8156 Q503.7375,869.6625 504.3063,869.1594 Q504.6781,868.875 504.875,868.7875 Q505.0719,868.7 505.3125,868.7 Q505.7719,868.7 506.1,869.0719 Q506.45,869.4219 506.45,869.925 Q506.45,870.4063 505.9687,870.975 Q505.2687,871.8063 504.1531,872.2656 Q502.6875,872.9 500.8937,872.9 Q498.7938,872.9 497.1094,872.0687 Q495.7531,871.4125 494.7906,869.9906 Q493.85,868.5687 493.85,866.8844 L493.85,865.3531 Q493.85,863.6031 494.6813,862.0719 Q495.5344,860.5406 497,859.7312 Q498.4875,858.9 500.15,858.9 Q501.1562,858.9 502.0312,859.25 Q502.9062,859.6 503.65,860.3 Z "/><text fill="#000000" font-family="sans-serif" font-size="16.8" lengthAdjust="spacingAndGlyphs" textLength="96.6" x="528.15" y="872.0742">Organization</text><line style="stroke: #A80036; stroke-width: 2.0999999999999996;" x1="446.6" x2="662.2" y1="887.6" y2="887.6"/><text fill="#000000" font-family="sans-serif" font-size="15.4" lengthAdjust="spacingAndGlyphs" textLength="85.4" x="453.6" y="909.1865">-String name</text><text fill="#000000" font-family="sans-serif" font-size="15.4" lengthAdjust="spacingAndGlyphs" textLength="70" x="453.6" y="928.5568">-String NIF</text><text fill="#000000" font-family="sans-serif" font-size="15.4" lengthAdjust="spacingAndGlyphs" textLength="170.8" x="453.6" y="947.9271">-Collaborator collaborator</text><text fill="#000000" font-family="sans-serif" font-size="15.4" lengthAdjust="spacingAndGlyphs" textLength="127.4" x="453.6" y="967.2975">-Manager manager</text><line style="stroke: #A80036; stroke-width: 2.0999999999999996;" x1="446.6" x2="662.2" y1="976.2812" y2="976.2812"/><text fill="#000000" font-family="sans-serif" font-size="15.4" lengthAdjust="spacingAndGlyphs" textLength="201.6" x="453.6" y="997.8678">+getPaymentTransactionList()</text><!--MD5=[ba54b1997298830925be59f10364c919]
class PaymentTransactionList--><rect fill="#FEFECE" filter="url(#f714pnju0rwnj)" height="105.9406" id="PaymentTransactionList" style="stroke: #A80036; stroke-width: 2.0999999999999996;" width="231" x="438.9" y="1115.8"/><ellipse cx="459.9" cy="1138.2" fill="#ADD1B2" rx="15.4" ry="15.4" style="stroke: #A80036; stroke-width: 1.4;"/><path d="M462.7,1133.3 Q462.9844,1132.6 463.3125,1132.25 Q463.6406,1131.9 464.0125,1131.9 Q464.6688,1131.9 465.0844,1132.2937 Q465.5,1132.6875 465.5,1133.6062 L465.5,1135.7937 Q465.5,1136.7125 465.1063,1137.1062 Q464.7125,1137.5 464.1,1137.5 Q463.5531,1137.5 463.2031,1137.2594 Q462.8531,1137.0188 462.7,1136.3844 Q462.6344,1135.9469 462.3937,1135.7063 Q461.9562,1135.2469 461.1688,1134.9844 Q460.3812,1134.7 459.5937,1134.7 Q458.6094,1134.7 457.7781,1135.0938 Q456.9687,1135.4875 456.3344,1136.3625 Q455.7,1137.2375 455.7,1138.4406 L455.7,1139.7312 Q455.7,1141.175 456.8812,1142.1375 Q458.0625,1143.1 460.1625,1143.1 Q461.4094,1143.1 462.2844,1142.8156 Q462.7875,1142.6625 463.3563,1142.1594 Q463.7281,1141.875 463.925,1141.7875 Q464.1219,1141.7 464.3625,1141.7 Q464.8219,1141.7 465.15,1142.0719 Q465.5,1142.4219 465.5,1142.925 Q465.5,1143.4063 465.0187,1143.975 Q464.3187,1144.8062 463.2031,1145.2656 Q461.7375,1145.9 459.9437,1145.9 Q457.8437,1145.9 456.1594,1145.0688 Q454.8031,1144.4125 453.8406,1142.9906 Q452.9,1141.5688 452.9,1139.8844 L452.9,1138.3531 Q452.9,1136.6031 453.7313,1135.0719 Q454.5844,1133.5406 456.05,1132.7312 Q457.5375,1131.9 459.2,1131.9 Q460.2062,1131.9 461.0812,1132.25 Q461.9562,1132.6 462.7,1133.3 Z "/><text fill="#000000" font-family="sans-serif" font-size="16.8" lengthAdjust="spacingAndGlyphs" textLength="186.2" x="479.5" y="1145.0742">PaymentTransactionList</text><line style="stroke: #A80036; stroke-width: 2.0999999999999996;" x1="440.3" x2="668.5" y1="1160.6" y2="1160.6"/><line style="stroke: #A80036; stroke-width: 2.0999999999999996;" x1="440.3" x2="668.5" y1="1171.8" y2="1171.8"/><text fill="#000000" font-family="sans-serif" font-size="15.4" lengthAdjust="spacingAndGlyphs" textLength="177.8" x="447.3" y="1193.3865">+getPaymentTransaction()</text><text fill="#000000" font-family="sans-serif" font-size="15.4" lengthAdjust="spacingAndGlyphs" textLength="119" x="447.3" y="1212.7568">+getTotalDelays()</text><!--MD5=[b645a18afb25b7e5623af7186d8eb36f]
class PaymentTransaction--><rect fill="#FEFECE" filter="url(#f714pnju0rwnj)" height="241.5328" id="PaymentTransaction" style="stroke: #A80036; stroke-width: 2.0999999999999996;" width="203" x="452.9" y="1331.4"/><ellipse cx="473.9" cy="1353.8" fill="#ADD1B2" rx="15.4" ry="15.4" style="stroke: #A80036; stroke-width: 1.4;"/><path d="M476.7,1348.9 Q476.9844,1348.2 477.3125,1347.85 Q477.6406,1347.5 478.0125,1347.5 Q478.6688,1347.5 479.0844,1347.8938 Q479.5,1348.2875 479.5,1349.2063 L479.5,1351.3938 Q479.5,1352.3125 479.1063,1352.7063 Q478.7125,1353.1 478.1,1353.1 Q477.5531,1353.1 477.2031,1352.8594 Q476.8531,1352.6187 476.7,1351.9844 Q476.6344,1351.5469 476.3937,1351.3062 Q475.9562,1350.8469 475.1688,1350.5844 Q474.3812,1350.3 473.5937,1350.3 Q472.6094,1350.3 471.7781,1350.6938 Q470.9687,1351.0875 470.3344,1351.9625 Q469.7,1352.8375 469.7,1354.0406 L469.7,1355.3313 Q469.7,1356.775 470.8812,1357.7375 Q472.0625,1358.7 474.1625,1358.7 Q475.4094,1358.7 476.2844,1358.4156 Q476.7875,1358.2625 477.3563,1357.7594 Q477.7281,1357.475 477.925,1357.3875 Q478.1219,1357.3 478.3625,1357.3 Q478.8219,1357.3 479.15,1357.6719 Q479.5,1358.0219 479.5,1358.525 Q479.5,1359.0063 479.0187,1359.575 Q478.3187,1360.4063 477.2031,1360.8656 Q475.7375,1361.5 473.9437,1361.5 Q471.8437,1361.5 470.1594,1360.6687 Q468.8031,1360.0125 467.8406,1358.5906 Q466.9,1357.1687 466.9,1355.4844 L466.9,1353.9531 Q466.9,1352.2031 467.7313,1350.6719 Q468.5844,1349.1406 470.05,1348.3313 Q471.5375,1347.5 473.2,1347.5 Q474.2062,1347.5 475.0812,1347.85 Q475.9562,1348.2 476.7,1348.9 Z "/><text fill="#000000" font-family="sans-serif" font-size="16.8" lengthAdjust="spacingAndGlyphs" textLength="158.2" x="493.5" y="1360.6742">PaymentTransaction</text><line style="stroke: #A80036; stroke-width: 2.0999999999999996;" x1="454.3" x2="654.5" y1="1376.2" y2="1376.2"/><text fill="#000000" font-family="sans-serif" font-size="15.4" lengthAdjust="spacingAndGlyphs" textLength="96.6" x="461.3" y="1397.7865">-String transID</text><text fill="#000000" font-family="sans-serif" font-size="15.4" lengthAdjust="spacingAndGlyphs" textLength="96.6" x="461.3" y="1417.1568">-Date endDate</text><text fill="#000000" font-family="sans-serif" font-size="15.4" lengthAdjust="spacingAndGlyphs" textLength="82.6" x="461.3" y="1436.5271">-doble delay</text><text fill="#000000" font-family="sans-serif" font-size="15.4" lengthAdjust="spacingAndGlyphs" textLength="180.6" x="461.3" y="1455.8975">-String descQualityOfWork</text><text fill="#000000" font-family="sans-serif" font-size="15.4" lengthAdjust="spacingAndGlyphs" textLength="128.8" x="461.3" y="1475.2678">-double amountPay</text><text fill="#000000" font-family="sans-serif" font-size="15.4" lengthAdjust="spacingAndGlyphs" textLength="152.6" x="461.3" y="1494.6381">-Freelancer freelancer</text><text fill="#000000" font-family="sans-serif" font-size="15.4" lengthAdjust="spacingAndGlyphs" textLength="70" x="461.3" y="1514.0084">-Task task</text><line style="stroke: #A80036; stroke-width: 2.0999999999999996;" x1="454.3" x2="654.5" y1="1522.9922" y2="1522.9922"/><text fill="#000000" font-family="sans-serif" font-size="15.4" lengthAdjust="spacingAndGlyphs" textLength="78.4" x="461.3" y="1544.5787">+getDelay()</text><text fill="#000000" font-family="sans-serif" font-size="15.4" lengthAdjust="spacingAndGlyphs" textLength="142.8" x="461.3" y="1563.949">+calculateTaskCost()</text><!--MD5=[e09e0019787cf83947156283bb671e06]
class RegistOrganization--><rect fill="#FEFECE" filter="url(#f714pnju0rwnj)" height="67.2" id="RegistOrganization" style="stroke: #A80036; stroke-width: 2.0999999999999996;" width="191.8" x="458.5" y="656.6"/><ellipse cx="479.5" cy="679" fill="#ADD1B2" rx="15.4" ry="15.4" style="stroke: #A80036; stroke-width: 1.4;"/><path d="M482.3,674.1 Q482.5844,673.4 482.9125,673.05 Q483.2406,672.7 483.6125,672.7 Q484.2687,672.7 484.6844,673.0938 Q485.1,673.4875 485.1,674.4063 L485.1,676.5938 Q485.1,677.5125 484.7062,677.9063 Q484.3125,678.3 483.7,678.3 Q483.1531,678.3 482.8031,678.0594 Q482.4531,677.8187 482.3,677.1844 Q482.2344,676.7469 481.9938,676.5062 Q481.5563,676.0469 480.7687,675.7844 Q479.9813,675.5 479.1937,675.5 Q478.2094,675.5 477.3781,675.8938 Q476.5687,676.2875 475.9344,677.1625 Q475.3,678.0375 475.3,679.2406 L475.3,680.5313 Q475.3,681.975 476.4813,682.9375 Q477.6625,683.9 479.7625,683.9 Q481.0094,683.9 481.8844,683.6156 Q482.3875,683.4625 482.9562,682.9594 Q483.3281,682.675 483.525,682.5875 Q483.7219,682.5 483.9625,682.5 Q484.4219,682.5 484.75,682.8719 Q485.1,683.2219 485.1,683.725 Q485.1,684.2063 484.6188,684.775 Q483.9188,685.6062 482.8031,686.0656 Q481.3375,686.7 479.5438,686.7 Q477.4437,686.7 475.7594,685.8688 Q474.4031,685.2125 473.4406,683.7906 Q472.5,682.3688 472.5,680.6844 L472.5,679.1531 Q472.5,677.4031 473.3312,675.8719 Q474.1844,674.3406 475.65,673.5313 Q477.1375,672.7 478.8,672.7 Q479.8063,672.7 480.6813,673.05 Q481.5563,673.4 482.3,674.1 Z "/><text fill="#000000" font-family="sans-serif" font-size="16.8" lengthAdjust="spacingAndGlyphs" textLength="147" x="499.1" y="685.8742">RegistOrganization</text><line style="stroke: #A80036; stroke-width: 2.0999999999999996;" x1="459.9" x2="648.9" y1="701.4" y2="701.4"/><line style="stroke: #A80036; stroke-width: 2.0999999999999996;" x1="459.9" x2="648.9" y1="712.6" y2="712.6"/><!--MD5=[55bf778c71849097fea505755a7dcf85]
link CollaboratorPaymentStatisticsUI to CollaboratorStatisticsController--><path d="M541.0776,78.568 C540.6016,99.904 539.9576,128.828 539.3514,155.96 " fill="none" id="CollaboratorPaymentStatisticsUI-&gt;CollaboratorStatisticsController" style="stroke: #A80036; stroke-width: 1.4; stroke-dasharray: 7.0,7.0;"/><polygon fill="#A80036" points="539.182,163.562,545.0685,151.0933,539.342,156.5638,533.8715,150.8373,539.182,163.562" style="stroke: #A80036; stroke-width: 1.4;"/><!--MD5=[65aeea1897068d5cd04d4762e94d81f7]
link CollaboratorStatisticsController to AplicacaoPOT--><path d="M587.6612,308.4382 C609.8582,339.9816 635.6378,376.6168 656.6098,406.4186 " fill="none" id="CollaboratorStatisticsController-&gt;AplicacaoPOT" style="stroke: #A80036; stroke-width: 1.4; stroke-dasharray: 7.0,7.0;"/><polygon fill="#A80036" points="660.737,412.2846,658.0646,398.7577,656.7081,406.5602,648.9056,405.2038,660.737,412.2846" style="stroke: #A80036; stroke-width: 1.4;"/><!--MD5=[209ca9584492d2f2acdcc682f6695353]
link CollaboratorStatisticsController to User--><path d="M394.5746,296.5802 C385.1778,300.4512 375.8552,304.2844 366.8,308 C273.5852,346.2452 243.4824,342.041 156.8,393.4 C145.2311,400.2544 133.5754,408.5676 122.7248,417.0516 " fill="none" id="CollaboratorStatisticsController-&gt;User" style="stroke: #A80036; stroke-width: 1.4; stroke-dasharray: 7.0,7.0;"/><polygon fill="#A80036" points="116.7853,421.7738,130.1333,418.3166,122.2649,417.4178,123.1637,409.5494,116.7853,421.7738" style="stroke: #A80036; stroke-width: 1.4;"/><!--MD5=[456f56f7e4af3a94c8ca2c443005e7db]
link CollaboratorStatisticsController to Platform--><path d="M486.2214,308.4382 C468.0788,333.5598 447.6038,361.9098 429.1476,387.4654 " fill="none" id="CollaboratorStatisticsController-&gt;Platform" style="stroke: #A80036; stroke-width: 1.4; stroke-dasharray: 7.0,7.0;"/><polygon fill="#A80036" points="424.9952,393.2138,436.9123,386.2781,429.0937,387.5391,427.8328,379.7205,424.9952,393.2138" style="stroke: #A80036; stroke-width: 1.4;"/><!--MD5=[4671e899716b0dcf633e499c71dc2f16]
link Platform to RegistOrganization--><path d="M431.4394,537.7204 C461.9552,575.2138 498.2208,619.773 523.425,650.741 " fill="none" id="Platform-&gt;RegistOrganization" style="stroke: #A80036; stroke-width: 1.4;"/><polygon fill="#A80036" points="527.9988,656.3606,524.3905,643.0527,523.581,650.9308,515.7029,650.1212,527.9988,656.3606" style="stroke: #A80036; stroke-width: 1.4;"/><text fill="#000000" font-family="sans-serif" font-size="18.2" lengthAdjust="spacingAndGlyphs" textLength="29.4" x="487.2" y="599.8932">has</text><polygon fill="#000000" points="495.6,612.2922,499.8,620.6922,504,612.2922,495.6,612.2922" style="stroke: #000000; stroke-width: 1.4;"/><text fill="#000000" font-family="sans-serif" font-size="18.2" lengthAdjust="spacingAndGlyphs" textLength="9.8" x="429.0559" y="568.3453">1</text><text fill="#000000" font-family="sans-serif" font-size="18.2" lengthAdjust="spacingAndGlyphs" textLength="9.8" x="510.1779" y="641.3755">1</text><!--MD5=[b2767384522f615c85a28d92ddf7f4b1]
link RegistOrganization to Organization--><path d="M554.4,723.8168 C554.4,752.6134 554.4,796.1716 554.4,835.247 " fill="none" id="RegistOrganization-&gt;Organization" style="stroke: #A80036; stroke-width: 1.4;"/><polygon fill="#A80036" points="554.4,842.4864,560,829.8864,554.4,835.4864,548.8,829.8864,554.4,842.4864" style="stroke: #A80036; stroke-width: 1.4;"/><text fill="#000000" font-family="sans-serif" font-size="18.2" lengthAdjust="spacingAndGlyphs" textLength="29.4" x="555.8" y="795.8932">has</text><polygon fill="#000000" points="564.2,808.2922,568.4,816.6922,572.6,808.2922,564.2,808.2922" style="stroke: #000000; stroke-width: 1.4;"/><text fill="#000000" font-family="sans-serif" font-size="18.2" lengthAdjust="spacingAndGlyphs" textLength="9.8" x="543.4056" y="753.694">1</text><text fill="#000000" font-family="sans-serif" font-size="18.2" lengthAdjust="spacingAndGlyphs" textLength="28" x="524.6938" y="827.6094">1..*</text><!--MD5=[322d55b5ad1658b7791494cedb432ac7]
link Organization to PaymentTransactionList--><path d="M554.4,1007.188 C554.4,1040.298 554.4,1077.8838 554.4,1108.3464 " fill="none" id="Organization-&gt;PaymentTransactionList" style="stroke: #A80036; stroke-width: 1.4;"/><polygon fill="#A80036" points="554.4,1115.5284,560,1102.9284,554.4,1108.5284,548.8,1102.9284,554.4,1115.5284" style="stroke: #A80036; stroke-width: 1.4;"/><text fill="#000000" font-family="sans-serif" font-size="18.2" lengthAdjust="spacingAndGlyphs" textLength="29.4" x="555.8" y="1068.8932">has</text><polygon fill="#000000" points="564.2,1081.2922,568.4,1089.6922,572.6,1081.2922,564.2,1081.2922" style="stroke: #000000; stroke-width: 1.4;"/><text fill="#000000" font-family="sans-serif" font-size="18.2" lengthAdjust="spacingAndGlyphs" textLength="9.8" x="544.0334" y="1036.9278">1</text><text fill="#000000" font-family="sans-serif" font-size="18.2" lengthAdjust="spacingAndGlyphs" textLength="9.8" x="543.7272" y="1100.5867">1</text><!--MD5=[ad9e6b825fedf9daad488846d3a92887]
link PaymentTransactionList to PaymentTransaction--><path d="M554.4,1222.5402 C554.4,1251.2262 554.4,1288.182 554.4,1323.98 " fill="none" id="PaymentTransactionList-&gt;PaymentTransaction" style="stroke: #A80036; stroke-width: 1.4;"/><polygon fill="#A80036" points="554.4,1331.1214,560,1318.5214,554.4,1324.1214,548.8,1318.5214,554.4,1331.1214" style="stroke: #A80036; stroke-width: 1.4;"/><text fill="#000000" font-family="sans-serif" font-size="18.2" lengthAdjust="spacingAndGlyphs" textLength="29.4" x="555.8" y="1284.4932">has</text><polygon fill="#000000" points="564.2,1296.8922,568.4,1305.2922,572.6,1296.8922,564.2,1296.8922" style="stroke: #000000; stroke-width: 1.4;"/><text fill="#000000" font-family="sans-serif" font-size="18.2" lengthAdjust="spacingAndGlyphs" textLength="9.8" x="543.8191" y="1251.8272">1</text><text fill="#000000" font-family="sans-serif" font-size="18.2" lengthAdjust="spacingAndGlyphs" textLength="7" x="547.0992" y="1316.2709">*</text><!--MD5=[736896ddd0b2c15ea62844344f935c15]
link Platform to RegistFreelancer--><path d="M356.8208,537.7204 C348.8814,570.8346 339.6218,609.4592 332.4524,639.3646 " fill="none" id="Platform-&gt;RegistFreelancer" style="stroke: #A80036; stroke-width: 1.4;"/><polygon fill="#A80036" points="330.7696,646.3828,339.1533,635.4359,332.4018,639.5758,328.262,632.8243,330.7696,646.3828" style="stroke: #A80036; stroke-width: 1.4;"/><text fill="#000000" font-family="sans-serif" font-size="18.2" lengthAdjust="spacingAndGlyphs" textLength="29.4" x="347.2" y="599.8932">has</text><polygon fill="#000000" points="355.6,612.2922,359.8,620.6922,364,612.2922,355.6,612.2922" style="stroke: #000000; stroke-width: 1.4;"/><text fill="#000000" font-family="sans-serif" font-size="18.2" lengthAdjust="spacingAndGlyphs" textLength="9.8" x="343.944" y="568.3453">1</text><text fill="#000000" font-family="sans-serif" font-size="18.2" lengthAdjust="spacingAndGlyphs" textLength="9.8" x="322.0565" y="631.6031">1</text><!--MD5=[2cd50cd3bf8dc1ce8b6e280eec93f1b7]
link ManagerPaymentStatisticsUI to ManagerStatisticsController--><path d="M213.0408,78.568 C213.199,99.904 213.4146,128.828 213.6162,155.96 " fill="none" id="ManagerPaymentStatisticsUI-&gt;ManagerStatisticsController" style="stroke: #A80036; stroke-width: 1.4; stroke-dasharray: 7.0,7.0;"/><polygon fill="#A80036" points="213.6722,163.562,219.2001,150.9302,213.6322,156.5621,208.0003,150.9942,213.6722,163.562" style="stroke: #A80036; stroke-width: 1.4;"/><!--MD5=[b4e65ad353449ac56db8493d8c17af66]
link ManagerStatisticsController to AplicacaoPOT--><path d="M343.2604,296.709 C352.149,300.587 360.9914,304.3838 369.6,308 C466.7586,348.8156 497.2016,344.9726 590.8,393.4 C599.6032,397.9542 608.5744,403.0726 617.3874,408.4206 " fill="none" id="ManagerStatisticsController-&gt;AplicacaoPOT" style="stroke: #A80036; stroke-width: 1.4; stroke-dasharray: 7.0,7.0;"/><polygon fill="#A80036" points="623.4592,412.1544,615.6592,400.7843,617.4963,408.4878,609.7927,410.3249,623.4592,412.1544" style="stroke: #A80036; stroke-width: 1.4;"/><!--MD5=[ceaa7c7c3e8c5cd642bba1dbd477bfdc]
link ManagerStatisticsController to User--><path d="M168.9702,308.4382 C146.8239,343.2702 120.731,384.3098 100.8984,415.5018 " fill="none" id="ManagerStatisticsController-&gt;User" style="stroke: #A80036; stroke-width: 1.4; stroke-dasharray: 7.0,7.0;"/><polygon fill="#A80036" points="97.0185,421.6044,108.5048,413.9766,100.7745,415.6974,99.0537,407.967,97.0185,421.6044" style="stroke: #A80036; stroke-width: 1.4;"/><!--MD5=[0bc5e53807bea9adc9d11e2b6282e69a]
link ManagerStatisticsController to Platform--><path d="M264.2612,308.4382 C281.9376,333.5598 301.8876,361.9098 319.872,387.4654 " fill="none" id="ManagerStatisticsController-&gt;Platform" style="stroke: #A80036; stroke-width: 1.4; stroke-dasharray: 7.0,7.0;"/><polygon fill="#A80036" points="323.9166,393.2138,321.2451,379.6867,319.8881,387.4892,312.0857,386.1322,323.9166,393.2138" style="stroke: #A80036; stroke-width: 1.4;"/><!--MD5=[7d095f9c38a1000e5734f57cbb5f3135]
@startuml
skinparam classAttributeIconSize 0

class CollaboratorPaymentStatisticsUI{

}

class CollaboratorStatisticsController{
+getOrganization()
+getListFreelancers()
+getTransactionList()
+getOpition(freelancer,option)
}

class ManagerPaymentStatisticsUI{

}

class ManagerStatisticsController{
+getOrganization()
+getListFreelancers()
+getTransactionList()
+getOpition(freelancer,option)
}

class User{
+getUserEmail()
}

class AplicacaoPOT{
+getInstance()
+getCurrentSession()
}

class Platform{
+getRegistOrganization()
+getRegistFreelancer()
+meanPaymnetsByFreelancer(freelancer)
+standardDeviationPaymentsByFreelancer(freelancer)
}

class RegistFreelancer{
+getFreelancerList()
}


class Organization{
-String name
-String NIF
-Collaborator collaborator
-Manager manager
+getPaymentTransactionList()
}

class PaymentTransactionList{
+getPaymentTransaction()
+getTotalDelays()
}

class PaymentTransaction{
-String transID
-Date endDate
-doble delay
-String descQualityOfWork
-double amountPay
-Freelancer freelancer
-Task task
+getDelay()
+calculateTaskCost()
}

CollaboratorPaymentStatisticsUI ..> CollaboratorStatisticsController
CollaboratorStatisticsController ..> AplicacaoPOT
CollaboratorStatisticsController ..> User
CollaboratorStatisticsController ..> Platform
Platform "1" - -> "1" RegistOrganization : has >
RegistOrganization "1" - -> "1..*" Organization : has >
Organization "1" - -> "1" PaymentTransactionList : has >
PaymentTransactionList "1" - -> "*" PaymentTransaction : has >
Platform "1" - -> "1" RegistFreelancer : has >
ManagerPaymentStatisticsUI ..> ManagerStatisticsController
ManagerStatisticsController ..> AplicacaoPOT
ManagerStatisticsController ..> User
ManagerStatisticsController ..> Platform
@enduml

PlantUML version 1.2020.09(Sun May 10 11:51:06 BST 2020)
(GPL source distribution)
Java Runtime: OpenJDK Runtime Environment
JVM: OpenJDK 64-Bit Server VM
Java Version: 11.0.7+10-b765.53
Operating System: Windows 10
Default Encoding: Cp1252
Language: pt
Country: PT
--></g></svg>