<?xml version="1.0" encoding="UTF-8" standalone="no"?><svg xmlns="http://www.w3.org/2000/svg" xmlns:xlink="http://www.w3.org/1999/xlink" contentScriptType="application/ecmascript" contentStyleType="text/css" height="1607.2px" preserveAspectRatio="none" style="width:740px;height:1607px;" version="1.1" viewBox="0 0 740 1607" width="740.6px" zoomAndPan="magnify"><defs><filter height="300%" id="f10ieyvwfqo7km" width="300%" x="-1" y="-1"><feGaussianBlur result="blurOut" stdDeviation="2.8"/><feColorMatrix in="blurOut" result="blurOut2" type="matrix" values="0 0 0 0 0 0 0 0 0 0 0 0 0 0 0 0 0 0 .4 0"/><feOffset dx="5.6" dy="5.6" in="blurOut2" result="blurOut3"/><feBlend in="SourceGraphic" in2="blurOut3" mode="normal"/></filter></defs><g><!--MD5=[38693514a296d210c75eb592dcb891e0]
class CollaboratorStatisticsUI--><rect fill="#FEFECE" filter="url(#f10ieyvwfqo7km)" height="67.2" id="CollaboratorStatisticsUI" style="stroke: #A80036; stroke-width: 2.0999999999999996;" width="226.8" x="82.6" y="11.2"/><ellipse cx="103.6" cy="33.6" fill="#ADD1B2" rx="15.4" ry="15.4" style="stroke: #A80036; stroke-width: 1.4;"/><path d="M106.4,28.7 Q106.6844,28 107.0125,27.65 Q107.3406,27.3 107.7125,27.3 Q108.3687,27.3 108.7844,27.6937 Q109.2,28.0875 109.2,29.0062 L109.2,31.1937 Q109.2,32.1125 108.8062,32.5063 Q108.4125,32.9 107.8,32.9 Q107.2531,32.9 106.9031,32.6594 Q106.5531,32.4187 106.4,31.7844 Q106.3344,31.3469 106.0938,31.1063 Q105.6563,30.6469 104.8687,30.3844 Q104.0813,30.1 103.2937,30.1 Q102.3094,30.1 101.4781,30.4938 Q100.6687,30.8875 100.0344,31.7625 Q99.4,32.6375 99.4,33.8406 L99.4,35.1312 Q99.4,36.575 100.5813,37.5375 Q101.7625,38.5 103.8625,38.5 Q105.1094,38.5 105.9844,38.2156 Q106.4875,38.0625 107.0562,37.5594 Q107.4281,37.275 107.625,37.1875 Q107.8219,37.1 108.0625,37.1 Q108.5219,37.1 108.85,37.4719 Q109.2,37.8219 109.2,38.325 Q109.2,38.8063 108.7188,39.375 Q108.0188,40.2063 106.9031,40.6656 Q105.4375,41.3 103.6438,41.3 Q101.5437,41.3 99.8594,40.4688 Q98.5031,39.8125 97.5406,38.3906 Q96.6,36.9688 96.6,35.2844 L96.6,33.7531 Q96.6,32.0031 97.4312,30.4719 Q98.2844,28.9406 99.75,28.1312 Q101.2375,27.3 102.9,27.3 Q103.9063,27.3 104.7813,27.65 Q105.6563,28 106.4,28.7 Z "/><text fill="#000000" font-family="sans-serif" font-size="16.8" lengthAdjust="spacingAndGlyphs" textLength="182" x="123.2" y="40.4742">CollaboratorStatisticsUI</text><line style="stroke: #A80036; stroke-width: 2.0999999999999996;" x1="84" x2="308" y1="56" y2="56"/><line style="stroke: #A80036; stroke-width: 2.0999999999999996;" x1="84" x2="308" y1="67.2" y2="67.2"/><!--MD5=[87a1bf3ff759a15c472a2c852e43f743]
class ManagerStatisticsUI--><rect fill="#FEFECE" filter="url(#f10ieyvwfqo7km)" height="67.2" id="ManagerStatisticsUI" style="stroke: #A80036; stroke-width: 2.0999999999999996;" width="198.8" x="417.2" y="11.2"/><ellipse cx="438.2" cy="33.6" fill="#ADD1B2" rx="15.4" ry="15.4" style="stroke: #A80036; stroke-width: 1.4;"/><path d="M441,28.7 Q441.2844,28 441.6125,27.65 Q441.9406,27.3 442.3125,27.3 Q442.9688,27.3 443.3844,27.6937 Q443.8,28.0875 443.8,29.0062 L443.8,31.1937 Q443.8,32.1125 443.4063,32.5063 Q443.0125,32.9 442.4,32.9 Q441.8531,32.9 441.5031,32.6594 Q441.1531,32.4187 441,31.7844 Q440.9344,31.3469 440.6937,31.1063 Q440.2562,30.6469 439.4688,30.3844 Q438.6813,30.1 437.8937,30.1 Q436.9094,30.1 436.0781,30.4938 Q435.2687,30.8875 434.6344,31.7625 Q434,32.6375 434,33.8406 L434,35.1312 Q434,36.575 435.1813,37.5375 Q436.3625,38.5 438.4625,38.5 Q439.7094,38.5 440.5844,38.2156 Q441.0875,38.0625 441.6563,37.5594 Q442.0281,37.275 442.225,37.1875 Q442.4219,37.1 442.6625,37.1 Q443.1219,37.1 443.45,37.4719 Q443.8,37.8219 443.8,38.325 Q443.8,38.8063 443.3187,39.375 Q442.6188,40.2063 441.5031,40.6656 Q440.0375,41.3 438.2438,41.3 Q436.1437,41.3 434.4594,40.4688 Q433.1031,39.8125 432.1406,38.3906 Q431.2,36.9688 431.2,35.2844 L431.2,33.7531 Q431.2,32.0031 432.0313,30.4719 Q432.8844,28.9406 434.35,28.1312 Q435.8375,27.3 437.5,27.3 Q438.5062,27.3 439.3812,27.65 Q440.2562,28 441,28.7 Z "/><text fill="#000000" font-family="sans-serif" font-size="16.8" lengthAdjust="spacingAndGlyphs" textLength="154" x="457.8" y="40.4742">ManagerStatisticsUI</text><line style="stroke: #A80036; stroke-width: 2.0999999999999996;" x1="418.6" x2="614.6" y1="56" y2="56"/><line style="stroke: #A80036; stroke-width: 2.0999999999999996;" x1="418.6" x2="614.6" y1="67.2" y2="67.2"/><!--MD5=[6b84b6d43cb0247a62b9b0b3bf940416]
class ManagerStatisticsController--><rect fill="#FEFECE" filter="url(#f10ieyvwfqo7km)" height="144.6812" id="ManagerStatisticsController" style="stroke: #A80036; stroke-width: 2.0999999999999996;" width="257.6" x="387.8" y="163.8"/><ellipse cx="408.8" cy="186.2" fill="#ADD1B2" rx="15.4" ry="15.4" style="stroke: #A80036; stroke-width: 1.4;"/><path d="M411.6,181.3 Q411.8844,180.6 412.2125,180.25 Q412.5406,179.9 412.9125,179.9 Q413.5687,179.9 413.9844,180.2938 Q414.4,180.6875 414.4,181.6063 L414.4,183.7938 Q414.4,184.7125 414.0062,185.1063 Q413.6125,185.5 413,185.5 Q412.4531,185.5 412.1031,185.2594 Q411.7531,185.0187 411.6,184.3844 Q411.5344,183.9469 411.2938,183.7062 Q410.8563,183.2469 410.0687,182.9844 Q409.2813,182.7 408.4938,182.7 Q407.5094,182.7 406.6781,183.0938 Q405.8688,183.4875 405.2344,184.3625 Q404.6,185.2375 404.6,186.4406 L404.6,187.7313 Q404.6,189.175 405.7813,190.1375 Q406.9625,191.1 409.0625,191.1 Q410.3094,191.1 411.1844,190.8156 Q411.6875,190.6625 412.2562,190.1594 Q412.6281,189.875 412.825,189.7875 Q413.0219,189.7 413.2625,189.7 Q413.7219,189.7 414.05,190.0719 Q414.4,190.4219 414.4,190.925 Q414.4,191.4063 413.9188,191.975 Q413.2188,192.8062 412.1031,193.2656 Q410.6375,193.9 408.8438,193.9 Q406.7438,193.9 405.0594,193.0688 Q403.7031,192.4125 402.7406,190.9906 Q401.8,189.5688 401.8,187.8844 L401.8,186.3531 Q401.8,184.6031 402.6312,183.0719 Q403.4844,181.5406 404.95,180.7313 Q406.4375,179.9 408.1,179.9 Q409.1063,179.9 409.9813,180.25 Q410.8563,180.6 411.6,181.3 Z "/><text fill="#000000" font-family="sans-serif" font-size="16.8" lengthAdjust="spacingAndGlyphs" textLength="212.8" x="428.4" y="193.0742">ManagerStatisticsController</text><line style="stroke: #A80036; stroke-width: 2.0999999999999996;" x1="389.2" x2="644" y1="208.6" y2="208.6"/><line style="stroke: #A80036; stroke-width: 2.0999999999999996;" x1="389.2" x2="644" y1="219.8" y2="219.8"/><text fill="#000000" font-family="sans-serif" font-size="15.4" lengthAdjust="spacingAndGlyphs" textLength="126" x="396.2" y="241.3865">+getOrganization()</text><text fill="#000000" font-family="sans-serif" font-size="15.4" lengthAdjust="spacingAndGlyphs" textLength="145.6" x="396.2" y="260.7568">+getListFreelancers()</text><text fill="#000000" font-family="sans-serif" font-size="15.4" lengthAdjust="spacingAndGlyphs" textLength="144.2" x="396.2" y="280.1271">+getTransactionList()</text><text fill="#000000" font-family="sans-serif" font-size="15.4" lengthAdjust="spacingAndGlyphs" textLength="201.6" x="396.2" y="299.4975">+getOpition(freelancer,option)</text><!--MD5=[03b67737dcf1a3882c51ed6ff85959e0]
class CollaboratorStatisticsController--><rect fill="#FEFECE" filter="url(#f10ieyvwfqo7km)" height="144.6812" id="CollaboratorStatisticsController" style="stroke: #A80036; stroke-width: 2.0999999999999996;" width="285.6" x="53.2" y="163.8"/><ellipse cx="74.2" cy="186.2" fill="#ADD1B2" rx="15.4" ry="15.4" style="stroke: #A80036; stroke-width: 1.4;"/><path d="M77,181.3 Q77.2844,180.6 77.6125,180.25 Q77.9406,179.9 78.3125,179.9 Q78.9688,179.9 79.3844,180.2938 Q79.8,180.6875 79.8,181.6063 L79.8,183.7938 Q79.8,184.7125 79.4063,185.1063 Q79.0125,185.5 78.4,185.5 Q77.8531,185.5 77.5031,185.2594 Q77.1531,185.0187 77,184.3844 Q76.9344,183.9469 76.6938,183.7062 Q76.2563,183.2469 75.4688,182.9844 Q74.6812,182.7 73.8938,182.7 Q72.9094,182.7 72.0781,183.0938 Q71.2688,183.4875 70.6344,184.3625 Q70,185.2375 70,186.4406 L70,187.7313 Q70,189.175 71.1812,190.1375 Q72.3625,191.1 74.4625,191.1 Q75.7094,191.1 76.5844,190.8156 Q77.0875,190.6625 77.6563,190.1594 Q78.0281,189.875 78.225,189.7875 Q78.4219,189.7 78.6625,189.7 Q79.1219,189.7 79.45,190.0719 Q79.8,190.4219 79.8,190.925 Q79.8,191.4063 79.3188,191.975 Q78.6187,192.8062 77.5031,193.2656 Q76.0375,193.9 74.2437,193.9 Q72.1438,193.9 70.4594,193.0688 Q69.1031,192.4125 68.1406,190.9906 Q67.2,189.5688 67.2,187.8844 L67.2,186.3531 Q67.2,184.6031 68.0313,183.0719 Q68.8844,181.5406 70.35,180.7313 Q71.8375,179.9 73.5,179.9 Q74.5063,179.9 75.3813,180.25 Q76.2563,180.6 77,181.3 Z "/><text fill="#000000" font-family="sans-serif" font-size="16.8" lengthAdjust="spacingAndGlyphs" textLength="240.8" x="93.8" y="193.0742">CollaboratorStatisticsController</text><line style="stroke: #A80036; stroke-width: 2.0999999999999996;" x1="54.6" x2="337.4" y1="208.6" y2="208.6"/><line style="stroke: #A80036; stroke-width: 2.0999999999999996;" x1="54.6" x2="337.4" y1="219.8" y2="219.8"/><text fill="#000000" font-family="sans-serif" font-size="15.4" lengthAdjust="spacingAndGlyphs" textLength="126" x="61.6" y="241.3865">+getOrganization()</text><text fill="#000000" font-family="sans-serif" font-size="15.4" lengthAdjust="spacingAndGlyphs" textLength="145.6" x="61.6" y="260.7568">+getListFreelancers()</text><text fill="#000000" font-family="sans-serif" font-size="15.4" lengthAdjust="spacingAndGlyphs" textLength="144.2" x="61.6" y="280.1271">+getTransactionList()</text><text fill="#000000" font-family="sans-serif" font-size="15.4" lengthAdjust="spacingAndGlyphs" textLength="201.6" x="61.6" y="299.4975">+getOpition(freelancer,option)</text><!--MD5=[3fd616f346a44cd59a91eb10b19e157c]
class User--><rect fill="#FEFECE" filter="url(#f10ieyvwfqo7km)" height="86.5703" id="User" style="stroke: #A80036; stroke-width: 2.0999999999999996;" width="123.2" x="8.4" y="441.7"/><ellipse cx="47.67" cy="464.1" fill="#ADD1B2" rx="15.4" ry="15.4" style="stroke: #A80036; stroke-width: 1.4;"/><path d="M50.47,459.2 Q50.7544,458.5 51.0825,458.15 Q51.4106,457.8 51.7825,457.8 Q52.4387,457.8 52.8544,458.1937 Q53.27,458.5875 53.27,459.5062 L53.27,461.6937 Q53.27,462.6125 52.8762,463.0062 Q52.4825,463.4 51.87,463.4 Q51.3231,463.4 50.9731,463.1594 Q50.6231,462.9188 50.47,462.2844 Q50.4044,461.8469 50.1637,461.6063 Q49.7262,461.1469 48.9387,460.8844 Q48.1512,460.6 47.3637,460.6 Q46.3794,460.6 45.5481,460.9938 Q44.7387,461.3875 44.1044,462.2625 Q43.47,463.1375 43.47,464.3406 L43.47,465.6312 Q43.47,467.075 44.6512,468.0375 Q45.8325,469 47.9325,469 Q49.1794,469 50.0544,468.7156 Q50.5575,468.5625 51.1262,468.0594 Q51.4981,467.775 51.695,467.6875 Q51.8919,467.6 52.1325,467.6 Q52.5919,467.6 52.92,467.9719 Q53.27,468.3219 53.27,468.825 Q53.27,469.3063 52.7887,469.875 Q52.0887,470.7062 50.9731,471.1656 Q49.5075,471.8 47.7137,471.8 Q45.6137,471.8 43.9294,470.9687 Q42.5731,470.3125 41.6106,468.8906 Q40.67,467.4687 40.67,465.7844 L40.67,464.2531 Q40.67,462.5031 41.5012,460.9719 Q42.3544,459.4406 43.82,458.6312 Q45.3075,457.8 46.97,457.8 Q47.9762,457.8 48.8512,458.15 Q49.7262,458.5 50.47,459.2 Z "/><text fill="#000000" font-family="sans-serif" font-size="16.8" lengthAdjust="spacingAndGlyphs" textLength="37.8" x="71.33" y="470.9742">User</text><line style="stroke: #A80036; stroke-width: 2.0999999999999996;" x1="9.8" x2="130.2" y1="486.5" y2="486.5"/><line style="stroke: #A80036; stroke-width: 2.0999999999999996;" x1="9.8" x2="130.2" y1="497.7" y2="497.7"/><text fill="#000000" font-family="sans-serif" font-size="15.4" lengthAdjust="spacingAndGlyphs" textLength="106.4" x="16.8" y="519.2865">+getUserEmail()</text><!--MD5=[380d12a68ed0046a60f31008a02875d0]
class AplicacaoPOT--><rect fill="#FEFECE" filter="url(#f10ieyvwfqo7km)" height="105.9406" id="AplicacaoPOT" style="stroke: #A80036; stroke-width: 2.0999999999999996;" width="162.4" x="562.8" y="431.9"/><ellipse cx="588.21" cy="454.3" fill="#ADD1B2" rx="15.4" ry="15.4" style="stroke: #A80036; stroke-width: 1.4;"/><path d="M591.01,449.4 Q591.2944,448.7 591.6225,448.35 Q591.9506,448 592.3225,448 Q592.9787,448 593.3944,448.3937 Q593.81,448.7875 593.81,449.7062 L593.81,451.8937 Q593.81,452.8125 593.4162,453.2062 Q593.0225,453.6 592.41,453.6 Q591.8631,453.6 591.5131,453.3594 Q591.1631,453.1188 591.01,452.4844 Q590.9444,452.0469 590.7037,451.8063 Q590.2662,451.3469 589.4787,451.0844 Q588.6913,450.8 587.9038,450.8 Q586.9194,450.8 586.0881,451.1937 Q585.2788,451.5875 584.6444,452.4625 Q584.01,453.3375 584.01,454.5406 L584.01,455.8312 Q584.01,457.275 585.1913,458.2375 Q586.3725,459.2 588.4725,459.2 Q589.7194,459.2 590.5944,458.9156 Q591.0975,458.7625 591.6662,458.2594 Q592.0381,457.975 592.235,457.8875 Q592.4319,457.8 592.6725,457.8 Q593.1319,457.8 593.46,458.1719 Q593.81,458.5219 593.81,459.025 Q593.81,459.5062 593.3287,460.075 Q592.6288,460.9062 591.5131,461.3656 Q590.0475,462 588.2538,462 Q586.1538,462 584.4694,461.1688 Q583.1131,460.5125 582.1506,459.0906 Q581.21,457.6688 581.21,455.9844 L581.21,454.4531 Q581.21,452.7031 582.0412,451.1719 Q582.8944,449.6406 584.36,448.8312 Q585.8475,448 587.51,448 Q588.5162,448 589.3912,448.35 Q590.2662,448.7 591.01,449.4 Z "/><text fill="#000000" font-family="sans-serif" font-size="16.8" lengthAdjust="spacingAndGlyphs" textLength="107.8" x="608.79" y="461.1742">AplicacaoPOT</text><line style="stroke: #A80036; stroke-width: 2.0999999999999996;" x1="564.2" x2="723.8" y1="476.7" y2="476.7"/><line style="stroke: #A80036; stroke-width: 2.0999999999999996;" x1="564.2" x2="723.8" y1="487.9" y2="487.9"/><text fill="#000000" font-family="sans-serif" font-size="15.4" lengthAdjust="spacingAndGlyphs" textLength="98" x="571.2" y="509.4865">+getInstance()</text><text fill="#000000" font-family="sans-serif" font-size="15.4" lengthAdjust="spacingAndGlyphs" textLength="145.6" x="571.2" y="528.8568">+getCurrentSession()</text><!--MD5=[99b8db98afdc2c8404e39242ef4c1e65]
class Platform--><rect fill="#FEFECE" filter="url(#f10ieyvwfqo7km)" height="183.4219" id="Platform" style="stroke: #A80036; stroke-width: 2.0999999999999996;" width="331.8" x="181.3" y="393.4"/><ellipse cx="309.05" cy="415.8" fill="#ADD1B2" rx="15.4" ry="15.4" style="stroke: #A80036; stroke-width: 1.4;"/><path d="M311.85,410.9 Q312.1344,410.2 312.4625,409.85 Q312.7906,409.5 313.1625,409.5 Q313.8187,409.5 314.2344,409.8937 Q314.65,410.2875 314.65,411.2062 L314.65,413.3937 Q314.65,414.3125 314.2562,414.7062 Q313.8625,415.1 313.25,415.1 Q312.7031,415.1 312.3531,414.8594 Q312.0031,414.6188 311.85,413.9844 Q311.7844,413.5469 311.5438,413.3063 Q311.1063,412.8469 310.3187,412.5844 Q309.5313,412.3 308.7438,412.3 Q307.7594,412.3 306.9281,412.6937 Q306.1188,413.0875 305.4844,413.9625 Q304.85,414.8375 304.85,416.0406 L304.85,417.3312 Q304.85,418.775 306.0313,419.7375 Q307.2125,420.7 309.3125,420.7 Q310.5594,420.7 311.4344,420.4156 Q311.9375,420.2625 312.5062,419.7594 Q312.8781,419.475 313.075,419.3875 Q313.2719,419.3 313.5125,419.3 Q313.9719,419.3 314.3,419.6719 Q314.65,420.0219 314.65,420.525 Q314.65,421.0062 314.1688,421.575 Q313.4688,422.4063 312.3531,422.8656 Q310.8875,423.5 309.0938,423.5 Q306.9938,423.5 305.3094,422.6688 Q303.9531,422.0125 302.9906,420.5906 Q302.05,419.1688 302.05,417.4844 L302.05,415.9531 Q302.05,414.2031 302.8812,412.6719 Q303.7344,411.1406 305.2,410.3312 Q306.6875,409.5 308.35,409.5 Q309.3563,409.5 310.2313,409.85 Q311.1063,410.2 311.85,410.9 Z "/><text fill="#000000" font-family="sans-serif" font-size="16.8" lengthAdjust="spacingAndGlyphs" textLength="64.4" x="337.75" y="422.6742">Platform</text><line style="stroke: #A80036; stroke-width: 2.0999999999999996;" x1="182.7" x2="511.7" y1="438.2" y2="438.2"/><line style="stroke: #A80036; stroke-width: 2.0999999999999996;" x1="182.7" x2="511.7" y1="449.4" y2="449.4"/><text fill="#000000" font-family="sans-serif" font-size="15.4" lengthAdjust="spacingAndGlyphs" textLength="168" x="189.7" y="470.9865">+getRegistOrganization()</text><text fill="#000000" font-family="sans-serif" font-size="15.4" lengthAdjust="spacingAndGlyphs" textLength="155.4" x="189.7" y="490.3568">+getRegistFreelancer()</text><text fill="#000000" font-family="sans-serif" font-size="15.4" lengthAdjust="spacingAndGlyphs" textLength="217" x="189.7" y="509.7271">+meanByFreelancer(freelancer)</text><text fill="#000000" font-family="sans-serif" font-size="15.4" lengthAdjust="spacingAndGlyphs" textLength="302.4" x="189.7" y="529.0975">+standardDeviationByFreelancer(freelancer)</text><text fill="#000000" font-family="sans-serif" font-size="15.4" lengthAdjust="spacingAndGlyphs" textLength="159.6" x="189.7" y="548.4678">+meanByOrganization()</text><text fill="#000000" font-family="sans-serif" font-size="15.4" lengthAdjust="spacingAndGlyphs" textLength="315" x="189.7" y="567.8381">+standardDeviationByOrganization(freelancer)</text><!--MD5=[eba5144af5135a87840971fc4358c553]
class RegistFreelancer--><rect fill="#FEFECE" filter="url(#f10ieyvwfqo7km)" height="86.5703" id="RegistFreelancer" style="stroke: #A80036; stroke-width: 2.0999999999999996;" width="177.8" x="142.1" y="686"/><ellipse cx="163.1" cy="708.4" fill="#ADD1B2" rx="15.4" ry="15.4" style="stroke: #A80036; stroke-width: 1.4;"/><path d="M165.9,703.5 Q166.1844,702.8 166.5125,702.45 Q166.8406,702.1 167.2125,702.1 Q167.8687,702.1 168.2844,702.4938 Q168.7,702.8875 168.7,703.8063 L168.7,705.9938 Q168.7,706.9125 168.3062,707.3063 Q167.9125,707.7 167.3,707.7 Q166.7531,707.7 166.4031,707.4594 Q166.0531,707.2188 165.9,706.5844 Q165.8344,706.1469 165.5938,705.9063 Q165.1563,705.4469 164.3687,705.1844 Q163.5812,704.9 162.7938,704.9 Q161.8094,704.9 160.9781,705.2937 Q160.1688,705.6875 159.5344,706.5625 Q158.9,707.4375 158.9,708.6406 L158.9,709.9313 Q158.9,711.375 160.0812,712.3375 Q161.2625,713.3 163.3625,713.3 Q164.6094,713.3 165.4844,713.0156 Q165.9875,712.8625 166.5562,712.3594 Q166.9281,712.075 167.125,711.9875 Q167.3219,711.9 167.5625,711.9 Q168.0219,711.9 168.35,712.2719 Q168.7,712.6219 168.7,713.125 Q168.7,713.6062 168.2188,714.175 Q167.5187,715.0062 166.4031,715.4656 Q164.9375,716.1 163.1437,716.1 Q161.0438,716.1 159.3594,715.2688 Q158.0031,714.6125 157.0406,713.1906 Q156.1,711.7688 156.1,710.0844 L156.1,708.5531 Q156.1,706.8031 156.9312,705.2719 Q157.7844,703.7406 159.25,702.9313 Q160.7375,702.1 162.4,702.1 Q163.4063,702.1 164.2813,702.45 Q165.1563,702.8 165.9,703.5 Z "/><text fill="#000000" font-family="sans-serif" font-size="16.8" lengthAdjust="spacingAndGlyphs" textLength="133" x="182.7" y="715.2742">RegistFreelancer</text><line style="stroke: #A80036; stroke-width: 2.0999999999999996;" x1="143.5" x2="318.5" y1="730.8" y2="730.8"/><line style="stroke: #A80036; stroke-width: 2.0999999999999996;" x1="143.5" x2="318.5" y1="742" y2="742"/><text fill="#000000" font-family="sans-serif" font-size="15.4" lengthAdjust="spacingAndGlyphs" textLength="137.2" x="150.5" y="763.5865">+getFreelancerList()</text><!--MD5=[86c7c362de55a38b660185a1328fe18d]
class Organization--><rect fill="#FEFECE" filter="url(#f10ieyvwfqo7km)" height="164.0516" id="Organization" style="stroke: #A80036; stroke-width: 2.0999999999999996;" width="218.4" x="355.6" y="882"/><ellipse cx="411.25" cy="904.4" fill="#ADD1B2" rx="15.4" ry="15.4" style="stroke: #A80036; stroke-width: 1.4;"/><path d="M414.05,899.5 Q414.3344,898.8 414.6625,898.45 Q414.9906,898.1 415.3625,898.1 Q416.0187,898.1 416.4344,898.4938 Q416.85,898.8875 416.85,899.8063 L416.85,901.9938 Q416.85,902.9125 416.4562,903.3063 Q416.0625,903.7 415.45,903.7 Q414.9031,903.7 414.5531,903.4594 Q414.2031,903.2187 414.05,902.5844 Q413.9844,902.1469 413.7438,901.9062 Q413.3063,901.4469 412.5187,901.1844 Q411.7313,900.9 410.9437,900.9 Q409.9594,900.9 409.1281,901.2937 Q408.3187,901.6875 407.6844,902.5625 Q407.05,903.4375 407.05,904.6406 L407.05,905.9313 Q407.05,907.375 408.2313,908.3375 Q409.4125,909.3 411.5125,909.3 Q412.7594,909.3 413.6344,909.0156 Q414.1375,908.8625 414.7062,908.3594 Q415.0781,908.075 415.275,907.9875 Q415.4719,907.9 415.7125,907.9 Q416.1719,907.9 416.5,908.2719 Q416.85,908.6219 416.85,909.125 Q416.85,909.6062 416.3688,910.175 Q415.6688,911.0062 414.5531,911.4656 Q413.0875,912.1 411.2938,912.1 Q409.1937,912.1 407.5094,911.2688 Q406.1531,910.6125 405.1906,909.1906 Q404.25,907.7688 404.25,906.0844 L404.25,904.5531 Q404.25,902.8031 405.0812,901.2719 Q405.9344,899.7406 407.4,898.9313 Q408.8875,898.1 410.55,898.1 Q411.5563,898.1 412.4313,898.45 Q413.3063,898.8 414.05,899.5 Z "/><text fill="#000000" font-family="sans-serif" font-size="16.8" lengthAdjust="spacingAndGlyphs" textLength="96.6" x="438.55" y="911.2742">Organization</text><line style="stroke: #A80036; stroke-width: 2.0999999999999996;" x1="357" x2="572.6" y1="926.8" y2="926.8"/><text fill="#000000" font-family="sans-serif" font-size="15.4" lengthAdjust="spacingAndGlyphs" textLength="85.4" x="364" y="948.3865">-String name</text><text fill="#000000" font-family="sans-serif" font-size="15.4" lengthAdjust="spacingAndGlyphs" textLength="70" x="364" y="967.7568">-String NIF</text><text fill="#000000" font-family="sans-serif" font-size="15.4" lengthAdjust="spacingAndGlyphs" textLength="170.8" x="364" y="987.1271">-Collaborator collaborator</text><text fill="#000000" font-family="sans-serif" font-size="15.4" lengthAdjust="spacingAndGlyphs" textLength="127.4" x="364" y="1006.4975">-Manager manager</text><line style="stroke: #A80036; stroke-width: 2.0999999999999996;" x1="357" x2="572.6" y1="1015.4812" y2="1015.4812"/><text fill="#000000" font-family="sans-serif" font-size="15.4" lengthAdjust="spacingAndGlyphs" textLength="201.6" x="364" y="1037.0678">+getPaymentTransactionList()</text><!--MD5=[ba54b1997298830925be59f10364c919]
class PaymentTransactionList--><rect fill="#FEFECE" filter="url(#f10ieyvwfqo7km)" height="105.9406" id="PaymentTransactionList" style="stroke: #A80036; stroke-width: 2.0999999999999996;" width="231" x="349.3" y="1155"/><ellipse cx="370.3" cy="1177.4" fill="#ADD1B2" rx="15.4" ry="15.4" style="stroke: #A80036; stroke-width: 1.4;"/><path d="M373.1,1172.5 Q373.3844,1171.8 373.7125,1171.45 Q374.0406,1171.1 374.4125,1171.1 Q375.0687,1171.1 375.4844,1171.4937 Q375.9,1171.8875 375.9,1172.8062 L375.9,1174.9937 Q375.9,1175.9125 375.5062,1176.3062 Q375.1125,1176.7 374.5,1176.7 Q373.9531,1176.7 373.6031,1176.4594 Q373.2531,1176.2188 373.1,1175.5844 Q373.0344,1175.1469 372.7938,1174.9063 Q372.3563,1174.4469 371.5687,1174.1844 Q370.7813,1173.9 369.9938,1173.9 Q369.0094,1173.9 368.1781,1174.2937 Q367.3688,1174.6875 366.7344,1175.5625 Q366.1,1176.4375 366.1,1177.6406 L366.1,1178.9312 Q366.1,1180.375 367.2813,1181.3375 Q368.4625,1182.3 370.5625,1182.3 Q371.8094,1182.3 372.6844,1182.0156 Q373.1875,1181.8625 373.7562,1181.3594 Q374.1281,1181.075 374.325,1180.9875 Q374.5219,1180.9 374.7625,1180.9 Q375.2219,1180.9 375.55,1181.2719 Q375.9,1181.6219 375.9,1182.125 Q375.9,1182.6062 375.4188,1183.175 Q374.7188,1184.0063 373.6031,1184.4656 Q372.1375,1185.1 370.3438,1185.1 Q368.2438,1185.1 366.5594,1184.2688 Q365.2031,1183.6125 364.2406,1182.1906 Q363.3,1180.7688 363.3,1179.0844 L363.3,1177.5531 Q363.3,1175.8031 364.1312,1174.2719 Q364.9844,1172.7406 366.45,1171.9312 Q367.9375,1171.1 369.6,1171.1 Q370.6063,1171.1 371.4813,1171.45 Q372.3563,1171.8 373.1,1172.5 Z "/><text fill="#000000" font-family="sans-serif" font-size="16.8" lengthAdjust="spacingAndGlyphs" textLength="186.2" x="389.9" y="1184.2742">PaymentTransactionList</text><line style="stroke: #A80036; stroke-width: 2.0999999999999996;" x1="350.7" x2="578.9" y1="1199.8" y2="1199.8"/><line style="stroke: #A80036; stroke-width: 2.0999999999999996;" x1="350.7" x2="578.9" y1="1211" y2="1211"/><text fill="#000000" font-family="sans-serif" font-size="15.4" lengthAdjust="spacingAndGlyphs" textLength="177.8" x="357.7" y="1232.5865">+getPaymentTransaction()</text><text fill="#000000" font-family="sans-serif" font-size="15.4" lengthAdjust="spacingAndGlyphs" textLength="119" x="357.7" y="1251.9568">+getTotalDelays()</text><!--MD5=[b645a18afb25b7e5623af7186d8eb36f]
class PaymentTransaction--><rect fill="#FEFECE" filter="url(#f10ieyvwfqo7km)" height="222.1625" id="PaymentTransaction" style="stroke: #A80036; stroke-width: 2.0999999999999996;" width="203" x="363.3" y="1370.6"/><ellipse cx="384.3" cy="1393" fill="#ADD1B2" rx="15.4" ry="15.4" style="stroke: #A80036; stroke-width: 1.4;"/><path d="M387.1,1388.1 Q387.3844,1387.4 387.7125,1387.05 Q388.0406,1386.7 388.4125,1386.7 Q389.0687,1386.7 389.4844,1387.0938 Q389.9,1387.4875 389.9,1388.4063 L389.9,1390.5938 Q389.9,1391.5125 389.5062,1391.9063 Q389.1125,1392.3 388.5,1392.3 Q387.9531,1392.3 387.6031,1392.0594 Q387.2531,1391.8188 387.1,1391.1844 Q387.0344,1390.7469 386.7938,1390.5063 Q386.3563,1390.0469 385.5687,1389.7844 Q384.7813,1389.5 383.9938,1389.5 Q383.0094,1389.5 382.1781,1389.8938 Q381.3688,1390.2875 380.7344,1391.1625 Q380.1,1392.0375 380.1,1393.2406 L380.1,1394.5313 Q380.1,1395.975 381.2813,1396.9375 Q382.4625,1397.9 384.5625,1397.9 Q385.8094,1397.9 386.6844,1397.6156 Q387.1875,1397.4625 387.7562,1396.9594 Q388.1281,1396.675 388.325,1396.5875 Q388.5219,1396.5 388.7625,1396.5 Q389.2219,1396.5 389.55,1396.8719 Q389.9,1397.2219 389.9,1397.725 Q389.9,1398.2063 389.4188,1398.775 Q388.7188,1399.6062 387.6031,1400.0656 Q386.1375,1400.7 384.3438,1400.7 Q382.2438,1400.7 380.5594,1399.8687 Q379.2031,1399.2125 378.2406,1397.7906 Q377.3,1396.3687 377.3,1394.6844 L377.3,1393.1531 Q377.3,1391.4031 378.1312,1389.8719 Q378.9844,1388.3406 380.45,1387.5313 Q381.9375,1386.7 383.6,1386.7 Q384.6063,1386.7 385.4813,1387.05 Q386.3563,1387.4 387.1,1388.1 Z "/><text fill="#000000" font-family="sans-serif" font-size="16.8" lengthAdjust="spacingAndGlyphs" textLength="158.2" x="403.9" y="1399.8742">PaymentTransaction</text><line style="stroke: #A80036; stroke-width: 2.0999999999999996;" x1="364.7" x2="564.9" y1="1415.4" y2="1415.4"/><text fill="#000000" font-family="sans-serif" font-size="15.4" lengthAdjust="spacingAndGlyphs" textLength="96.6" x="371.7" y="1436.9865">-String transID</text><text fill="#000000" font-family="sans-serif" font-size="15.4" lengthAdjust="spacingAndGlyphs" textLength="96.6" x="371.7" y="1456.3568">-Date endDate</text><text fill="#000000" font-family="sans-serif" font-size="15.4" lengthAdjust="spacingAndGlyphs" textLength="82.6" x="371.7" y="1475.7271">-doble delay</text><text fill="#000000" font-family="sans-serif" font-size="15.4" lengthAdjust="spacingAndGlyphs" textLength="180.6" x="371.7" y="1495.0975">-String descQualityOfWork</text><text fill="#000000" font-family="sans-serif" font-size="15.4" lengthAdjust="spacingAndGlyphs" textLength="128.8" x="371.7" y="1514.4678">-double amountPay</text><text fill="#000000" font-family="sans-serif" font-size="15.4" lengthAdjust="spacingAndGlyphs" textLength="152.6" x="371.7" y="1533.8381">-Freelancer freelancer</text><text fill="#000000" font-family="sans-serif" font-size="15.4" lengthAdjust="spacingAndGlyphs" textLength="70" x="371.7" y="1553.2084">-Task task</text><line style="stroke: #A80036; stroke-width: 2.0999999999999996;" x1="364.7" x2="564.9" y1="1562.1922" y2="1562.1922"/><text fill="#000000" font-family="sans-serif" font-size="15.4" lengthAdjust="spacingAndGlyphs" textLength="78.4" x="371.7" y="1583.7787">+getDelay()</text><!--MD5=[e09e0019787cf83947156283bb671e06]
class RegistOrganization--><rect fill="#FEFECE" filter="url(#f10ieyvwfqo7km)" height="67.2" id="RegistOrganization" style="stroke: #A80036; stroke-width: 2.0999999999999996;" width="191.8" x="368.9" y="695.8"/><ellipse cx="389.9" cy="718.2" fill="#ADD1B2" rx="15.4" ry="15.4" style="stroke: #A80036; stroke-width: 1.4;"/><path d="M392.7,713.3 Q392.9844,712.6 393.3125,712.25 Q393.6406,711.9 394.0125,711.9 Q394.6688,711.9 395.0844,712.2937 Q395.5,712.6875 395.5,713.6062 L395.5,715.7937 Q395.5,716.7125 395.1063,717.1062 Q394.7125,717.5 394.1,717.5 Q393.5531,717.5 393.2031,717.2594 Q392.8531,717.0188 392.7,716.3844 Q392.6344,715.9469 392.3937,715.7063 Q391.9562,715.2469 391.1688,714.9844 Q390.3812,714.7 389.5938,714.7 Q388.6094,714.7 387.7781,715.0938 Q386.9688,715.4875 386.3344,716.3625 Q385.7,717.2375 385.7,718.4406 L385.7,719.7312 Q385.7,721.175 386.8812,722.1375 Q388.0625,723.1 390.1625,723.1 Q391.4094,723.1 392.2844,722.8156 Q392.7875,722.6625 393.3563,722.1594 Q393.7281,721.875 393.925,721.7875 Q394.1219,721.7 394.3625,721.7 Q394.8219,721.7 395.15,722.0719 Q395.5,722.4219 395.5,722.925 Q395.5,723.4063 395.0187,723.975 Q394.3187,724.8063 393.2031,725.2656 Q391.7375,725.9 389.9437,725.9 Q387.8438,725.9 386.1594,725.0687 Q384.8031,724.4125 383.8406,722.9906 Q382.9,721.5687 382.9,719.8844 L382.9,718.3531 Q382.9,716.6031 383.7313,715.0719 Q384.5844,713.5406 386.05,712.7312 Q387.5375,711.9 389.2,711.9 Q390.2062,711.9 391.0812,712.25 Q391.9562,712.6 392.7,713.3 Z "/><text fill="#000000" font-family="sans-serif" font-size="16.8" lengthAdjust="spacingAndGlyphs" textLength="147" x="409.5" y="725.0742">RegistOrganization</text><line style="stroke: #A80036; stroke-width: 2.0999999999999996;" x1="370.3" x2="559.3" y1="740.6" y2="740.6"/><line style="stroke: #A80036; stroke-width: 2.0999999999999996;" x1="370.3" x2="559.3" y1="751.8" y2="751.8"/><!--MD5=[1a69486e649481c6a7bf2380648aa9e6]
link CollaboratorStatisticsUI to CollaboratorStatisticsController--><path d="M196,78.568 C196,99.904 196,128.828 196,155.96 " fill="none" id="CollaboratorStatisticsUI-&gt;CollaboratorStatisticsController" style="stroke: #A80036; stroke-width: 1.4; stroke-dasharray: 7.0,7.0;"/><polygon fill="#A80036" points="196,163.562,201.6,150.962,196,156.562,190.4,150.962,196,163.562" style="stroke: #A80036; stroke-width: 1.4;"/><!--MD5=[65aeea1897068d5cd04d4762e94d81f7]
link CollaboratorStatisticsController to AplicacaoPOT--><path d="M339.0408,297.9746 C415.9792,331.5326 502.1744,370.8838 537.6,393.4 C552.944,403.1524 568.4336,414.946 582.666,426.7466 " fill="none" id="CollaboratorStatisticsController-&gt;AplicacaoPOT" style="stroke: #A80036; stroke-width: 1.4; stroke-dasharray: 7.0,7.0;"/><polygon fill="#A80036" points="588.2646,431.4408,582.2081,419.0538,582.9008,426.943,575.0116,427.6358,588.2646,431.4408" style="stroke: #A80036; stroke-width: 1.4;"/><!--MD5=[209ca9584492d2f2acdcc682f6695353]
link CollaboratorStatisticsController to User--><path d="M159.5552,308.5684 C138.8237,349.111 113.3955,398.8376 94.9388,434.931 " fill="none" id="CollaboratorStatisticsController-&gt;User" style="stroke: #A80036; stroke-width: 1.4; stroke-dasharray: 7.0,7.0;"/><polygon fill="#A80036" points="91.5762,441.5068,102.2999,432.8394,94.764,435.2748,92.3287,427.7389,91.5762,441.5068" style="stroke: #A80036; stroke-width: 1.4;"/><!--MD5=[456f56f7e4af3a94c8ca2c443005e7db]
link CollaboratorStatisticsController to Platform--><path d="M239.7332,308.5684 C254.688,332.9396 271.6798,360.6302 287.6664,386.6814 " fill="none" id="CollaboratorStatisticsController-&gt;Platform" style="stroke: #A80036; stroke-width: 1.4; stroke-dasharray: 7.0,7.0;"/><polygon fill="#A80036" points="291.7068,393.267,289.8901,379.5988,288.0458,387.3007,280.344,385.4564,291.7068,393.267" style="stroke: #A80036; stroke-width: 1.4;"/><!--MD5=[4671e899716b0dcf633e499c71dc2f16]
link Platform to RegistOrganization--><path d="M391.3238,577.1122 C410.1076,615.6864 431.0264,658.6426 445.7236,688.8266 " fill="none" id="Platform-&gt;RegistOrganization" style="stroke: #A80036; stroke-width: 1.4;"/><polygon fill="#A80036" points="448.9492,695.4472,448.4692,681.6672,445.8853,689.1534,438.3991,686.5694,448.9492,695.4472" style="stroke: #A80036; stroke-width: 1.4;"/><text fill="#000000" font-family="sans-serif" font-size="18.2" lengthAdjust="spacingAndGlyphs" textLength="29.4" x="425.6" y="639.0932">has</text><polygon fill="#000000" points="434,651.4922,438.2,659.8922,442.4,651.4922,434,651.4922" style="stroke: #000000; stroke-width: 1.4;"/><text fill="#000000" font-family="sans-serif" font-size="18.2" lengthAdjust="spacingAndGlyphs" textLength="9.8" x="385.5688" y="606.6734">1</text><text fill="#000000" font-family="sans-serif" font-size="18.2" lengthAdjust="spacingAndGlyphs" textLength="9.8" x="433.8318" y="680.433">1</text><!--MD5=[b2767384522f615c85a28d92ddf7f4b1]
link RegistOrganization to Organization--><path d="M464.8,763.0168 C464.8,791.8134 464.8,835.3716 464.8,874.447 " fill="none" id="RegistOrganization-&gt;Organization" style="stroke: #A80036; stroke-width: 1.4;"/><polygon fill="#A80036" points="464.8,881.6864,470.4,869.0864,464.8,874.6864,459.2,869.0864,464.8,881.6864" style="stroke: #A80036; stroke-width: 1.4;"/><text fill="#000000" font-family="sans-serif" font-size="18.2" lengthAdjust="spacingAndGlyphs" textLength="29.4" x="466.2" y="835.0932">has</text><polygon fill="#000000" points="474.6,847.4922,478.8,855.8922,483,847.4922,474.6,847.4922" style="stroke: #000000; stroke-width: 1.4;"/><text fill="#000000" font-family="sans-serif" font-size="18.2" lengthAdjust="spacingAndGlyphs" textLength="9.8" x="453.8056" y="792.894">1</text><text fill="#000000" font-family="sans-serif" font-size="18.2" lengthAdjust="spacingAndGlyphs" textLength="28" x="435.0938" y="866.8094">1..*</text><!--MD5=[322d55b5ad1658b7791494cedb432ac7]
link Organization to PaymentTransactionList--><path d="M464.8,1046.388 C464.8,1079.498 464.8,1117.0838 464.8,1147.5464 " fill="none" id="Organization-&gt;PaymentTransactionList" style="stroke: #A80036; stroke-width: 1.4;"/><polygon fill="#A80036" points="464.8,1154.7284,470.4,1142.1284,464.8,1147.7284,459.2,1142.1284,464.8,1154.7284" style="stroke: #A80036; stroke-width: 1.4;"/><text fill="#000000" font-family="sans-serif" font-size="18.2" lengthAdjust="spacingAndGlyphs" textLength="29.4" x="466.2" y="1108.0932">has</text><polygon fill="#000000" points="474.6,1120.4922,478.8,1128.8922,483,1120.4922,474.6,1120.4922" style="stroke: #000000; stroke-width: 1.4;"/><text fill="#000000" font-family="sans-serif" font-size="18.2" lengthAdjust="spacingAndGlyphs" textLength="9.8" x="454.4334" y="1076.1278">1</text><text fill="#000000" font-family="sans-serif" font-size="18.2" lengthAdjust="spacingAndGlyphs" textLength="9.8" x="454.1272" y="1139.7867">1</text><!--MD5=[ad9e6b825fedf9daad488846d3a92887]
link PaymentTransactionList to PaymentTransaction--><path d="M464.8,1261.8326 C464.8,1290.66 464.8,1327.6998 464.8,1363.0708 " fill="none" id="PaymentTransactionList-&gt;PaymentTransaction" style="stroke: #A80036; stroke-width: 1.4;"/><polygon fill="#A80036" points="464.8,1370.1198,470.4,1357.5198,464.8,1363.1198,459.2,1357.5198,464.8,1370.1198" style="stroke: #A80036; stroke-width: 1.4;"/><text fill="#000000" font-family="sans-serif" font-size="18.2" lengthAdjust="spacingAndGlyphs" textLength="29.4" x="466.2" y="1323.6932">has</text><polygon fill="#000000" points="474.6,1336.0922,478.8,1344.4922,483,1336.0922,474.6,1336.0922" style="stroke: #000000; stroke-width: 1.4;"/><text fill="#000000" font-family="sans-serif" font-size="18.2" lengthAdjust="spacingAndGlyphs" textLength="9.8" x="454.2191" y="1291.1343">1</text><text fill="#000000" font-family="sans-serif" font-size="18.2" lengthAdjust="spacingAndGlyphs" textLength="7" x="457.4773" y="1355.3186">*</text><!--MD5=[736896ddd0b2c15ea62844344f935c15]
link Platform to RegistFreelancer--><path d="M303.6012,577.1122 C286.9566,611.7048 268.6166,649.8212 254.534,679.0896 " fill="none" id="Platform-&gt;RegistFreelancer" style="stroke: #A80036; stroke-width: 1.4;"/><polygon fill="#A80036" points="251.4134,685.573,261.9214,676.6454,254.4475,679.2647,251.8282,671.7908,251.4134,685.573" style="stroke: #A80036; stroke-width: 1.4;"/><text fill="#000000" font-family="sans-serif" font-size="18.2" lengthAdjust="spacingAndGlyphs" textLength="29.4" x="284.2" y="639.0932">has</text><polygon fill="#000000" points="292.6,651.4922,296.8,659.8922,301,651.4922,292.6,651.4922" style="stroke: #000000; stroke-width: 1.4;"/><text fill="#000000" font-family="sans-serif" font-size="18.2" lengthAdjust="spacingAndGlyphs" textLength="9.8" x="288.7998" y="606.6734">1</text><text fill="#000000" font-family="sans-serif" font-size="18.2" lengthAdjust="spacingAndGlyphs" textLength="9.8" x="244.813" y="670.7913">1</text><!--MD5=[01e620b54921b5d9ff03677e0b05145c]
link ManagerStatisticsUI to ManagerStatisticsController--><path d="M516.6,78.568 C516.6,99.904 516.6,128.828 516.6,155.96 " fill="none" id="ManagerStatisticsUI-&gt;ManagerStatisticsController" style="stroke: #A80036; stroke-width: 1.4; stroke-dasharray: 7.0,7.0;"/><polygon fill="#A80036" points="516.6,163.562,522.2,150.962,516.6,156.562,511,150.962,516.6,163.562" style="stroke: #A80036; stroke-width: 1.4;"/><!--MD5=[b4e65ad353449ac56db8493d8c17af66]
link ManagerStatisticsController to AplicacaoPOT--><path d="M553.4494,308.5684 C572.6126,345.632 595.7448,390.3718 613.8314,425.3536 " fill="none" id="ManagerStatisticsController-&gt;AplicacaoPOT" style="stroke: #A80036; stroke-width: 1.4; stroke-dasharray: 7.0,7.0;"/><polygon fill="#A80036" points="617.148,431.767,616.3371,418.0025,613.9338,425.5486,606.3877,423.1452,617.148,431.767" style="stroke: #A80036; stroke-width: 1.4;"/><!--MD5=[ceaa7c7c3e8c5cd642bba1dbd477bfdc]
link ManagerStatisticsController to User--><path d="M387.7762,296.8672 C379.2712,300.6682 370.8222,304.4076 362.6,308 C271.852,347.6438 238.574,337.5456 156.8,393.4 C139.5282,405.1978 122.9816,420.8778 109.0536,435.8564 " fill="none" id="ManagerStatisticsController-&gt;User" style="stroke: #A80036; stroke-width: 1.4; stroke-dasharray: 7.0,7.0;"/><polygon fill="#A80036" points="104.0441,441.336,116.6796,435.8166,108.7679,436.1702,108.4143,428.2585,104.0441,441.336" style="stroke: #A80036; stroke-width: 1.4;"/><!--MD5=[0bc5e53807bea9adc9d11e2b6282e69a]
link ManagerStatisticsController to Platform--><path d="M467.6028,308.5684 C450.7048,333.1468 431.4884,361.0992 413.4452,387.3436 " fill="none" id="ManagerStatisticsController-&gt;Platform" style="stroke: #A80036; stroke-width: 1.4; stroke-dasharray: 7.0,7.0;"/><polygon fill="#A80036" points="409.3726,393.267,421.1259,386.0573,413.3386,387.4989,411.897,379.7117,409.3726,393.267" style="stroke: #A80036; stroke-width: 1.4;"/><!--MD5=[436cc8f9d9309398c922355f7ded5577]
@startuml
skinparam classAttributeIconSize 0

class CollaboratorStatisticsUI{

}

class ManagerStatisticsUI{

}

class ManagerStatisticsController{
+getOrganization()
+getListFreelancers()
+getTransactionList()
+getOpition(freelancer,option)
}
class CollaboratorStatisticsController{
+getOrganization()
+getListFreelancers()
+getTransactionList()
+getOpition(freelancer,option)
}

class User{
+getUserEmail()
}

class AplicacaoPOT{
+getInstance()
+getCurrentSession()
}

class Platform{
+getRegistOrganization()
+getRegistFreelancer()
+meanByFreelancer(freelancer)
+standardDeviationByFreelancer(freelancer)
+meanByOrganization()
+standardDeviationByOrganization(freelancer)
}

class RegistFreelancer{
+getFreelancerList()
}


class Organization{
-String name
-String NIF
-Collaborator collaborator
-Manager manager
+getPaymentTransactionList()
}

class PaymentTransactionList{
+getPaymentTransaction()
+getTotalDelays()
}

class PaymentTransaction{
-String transID
-Date endDate
-doble delay
-String descQualityOfWork
-double amountPay
-Freelancer freelancer
-Task task
+getDelay()
}

CollaboratorStatisticsUI ..> CollaboratorStatisticsController
CollaboratorStatisticsController ..> AplicacaoPOT
CollaboratorStatisticsController ..> User
CollaboratorStatisticsController ..> Platform
Platform "1" - -> "1" RegistOrganization : has >
RegistOrganization "1" - -> "1..*" Organization : has >
Organization "1" - -> "1" PaymentTransactionList : has >
PaymentTransactionList "1" - -> "*" PaymentTransaction : has >
Platform "1" - -> "1" RegistFreelancer : has >
ManagerStatisticsUI ..> ManagerStatisticsController
ManagerStatisticsController ..> AplicacaoPOT
ManagerStatisticsController ..> User
ManagerStatisticsController ..> Platform

@enduml

PlantUML version 1.2020.09(Sun May 10 11:51:06 BST 2020)
(GPL source distribution)
Java Runtime: OpenJDK Runtime Environment
JVM: OpenJDK 64-Bit Server VM
Java Version: 11.0.7+10-b765.53
Operating System: Windows 10
Default Encoding: Cp1252
Language: pt
Country: PT
--></g></svg>