<?xml version="1.0" encoding="UTF-8" standalone="no"?><svg xmlns="http://www.w3.org/2000/svg" xmlns:xlink="http://www.w3.org/1999/xlink" contentScriptType="application/ecmascript" contentStyleType="text/css" height="628.6px" preserveAspectRatio="none" style="width:1936px;height:628px;" version="1.1" viewBox="0 0 1936 628" width="1936.2px" zoomAndPan="magnify"><defs><filter height="300%" id="f13nd1fww0u9bf" width="300%" x="-1" y="-1"><feGaussianBlur result="blurOut" stdDeviation="2.8"/><feColorMatrix in="blurOut" result="blurOut2" type="matrix" values="0 0 0 0 0 0 0 0 0 0 0 0 0 0 0 0 0 0 .4 0"/><feOffset dx="5.6" dy="5.6" in="blurOut2" result="blurOut3"/><feBlend in="SourceGraphic" in2="blurOut3" mode="normal"/></filter></defs><g><!--MD5=[b34797a66dc35cbf1d65f7e3ca75530e]
class Task--><rect fill="#FEFECE" filter="url(#f13nd1fww0u9bf)" height="152.8516" id="Task" style="stroke: #A80036; stroke-width: 2.0999999999999996;" width="140" x="677.6" y="264.6"/><ellipse cx="724.43" cy="287" fill="#ADD1B2" rx="15.4" ry="15.4" style="stroke: #A80036; stroke-width: 1.4;"/><path d="M727.23,282.1 Q727.5144,281.4 727.8425,281.05 Q728.1706,280.7 728.5425,280.7 Q729.1988,280.7 729.6144,281.0938 Q730.03,281.4875 730.03,282.4063 L730.03,284.5938 Q730.03,285.5125 729.6363,285.9063 Q729.2425,286.3 728.63,286.3 Q728.0831,286.3 727.7331,286.0594 Q727.3831,285.8187 727.23,285.1844 Q727.1644,284.7469 726.9238,284.5062 Q726.4863,284.0469 725.6988,283.7844 Q724.9113,283.5 724.1238,283.5 Q723.1394,283.5 722.3081,283.8937 Q721.4988,284.2875 720.8644,285.1625 Q720.23,286.0375 720.23,287.2406 L720.23,288.5313 Q720.23,289.975 721.4113,290.9375 Q722.5925,291.9 724.6925,291.9 Q725.9394,291.9 726.8144,291.6156 Q727.3175,291.4625 727.8863,290.9594 Q728.2581,290.675 728.455,290.5875 Q728.6519,290.5 728.8925,290.5 Q729.3519,290.5 729.68,290.8719 Q730.03,291.2219 730.03,291.725 Q730.03,292.2062 729.5488,292.775 Q728.8488,293.6063 727.7331,294.0656 Q726.2675,294.7 724.4738,294.7 Q722.3738,294.7 720.6894,293.8688 Q719.3331,293.2125 718.3706,291.7906 Q717.43,290.3688 717.43,288.6844 L717.43,287.1531 Q717.43,285.4031 718.2613,283.8719 Q719.1144,282.3406 720.58,281.5313 Q722.0675,280.7 723.73,280.7 Q724.7363,280.7 725.6113,281.05 Q726.4863,281.4 727.23,282.1 Z "/><text fill="#000000" font-family="sans-serif" font-size="16.8" lengthAdjust="spacingAndGlyphs" textLength="37.8" x="749.77" y="293.8742">Task</text><line style="stroke: #A80036; stroke-width: 2.0999999999999996;" x1="679" x2="816.2" y1="309.4" y2="309.4"/><text fill="#000000" font-family="sans-serif" font-size="15.4" lengthAdjust="spacingAndGlyphs" textLength="92.4" x="686" y="330.9865">-String TaskId</text><text fill="#000000" font-family="sans-serif" font-size="15.4" lengthAdjust="spacingAndGlyphs" textLength="123.2" x="686" y="350.3568">-String description</text><text fill="#000000" font-family="sans-serif" font-size="15.4" lengthAdjust="spacingAndGlyphs" textLength="103.6" x="686" y="369.7271">-String duration</text><text fill="#000000" font-family="sans-serif" font-size="15.4" lengthAdjust="spacingAndGlyphs" textLength="78.4" x="686" y="389.0975">-String cost</text><text fill="#000000" font-family="sans-serif" font-size="15.4" lengthAdjust="spacingAndGlyphs" textLength="109.2" x="686" y="408.4678">-String category</text><!--MD5=[b645a18afb25b7e5623af7186d8eb36f]
class PaymentTransaction--><rect fill="#FEFECE" filter="url(#f13nd1fww0u9bf)" height="152.8516" id="PaymentTransaction" style="stroke: #A80036; stroke-width: 2.0999999999999996;" width="203" x="1405.6" y="254.8"/><ellipse cx="1426.6" cy="277.2" fill="#ADD1B2" rx="15.4" ry="15.4" style="stroke: #A80036; stroke-width: 1.4;"/><path d="M1429.4,272.3 Q1429.6844,271.6 1430.0125,271.25 Q1430.3406,270.9 1430.7125,270.9 Q1431.3687,270.9 1431.7844,271.2938 Q1432.2,271.6875 1432.2,272.6063 L1432.2,274.7938 Q1432.2,275.7125 1431.8062,276.1063 Q1431.4125,276.5 1430.8,276.5 Q1430.2531,276.5 1429.9031,276.2594 Q1429.5531,276.0187 1429.4,275.3844 Q1429.3344,274.9469 1429.0938,274.7062 Q1428.6563,274.2469 1427.8687,273.9844 Q1427.0813,273.7 1426.2937,273.7 Q1425.3094,273.7 1424.4781,274.0938 Q1423.6687,274.4875 1423.0344,275.3625 Q1422.4,276.2375 1422.4,277.4406 L1422.4,278.7313 Q1422.4,280.175 1423.5813,281.1375 Q1424.7625,282.1 1426.8625,282.1 Q1428.1094,282.1 1428.9844,281.8156 Q1429.4875,281.6625 1430.0562,281.1594 Q1430.4281,280.875 1430.625,280.7875 Q1430.8219,280.7 1431.0625,280.7 Q1431.5219,280.7 1431.85,281.0719 Q1432.2,281.4219 1432.2,281.925 Q1432.2,282.4063 1431.7188,282.975 Q1431.0188,283.8063 1429.9031,284.2656 Q1428.4375,284.9 1426.6438,284.9 Q1424.5437,284.9 1422.8594,284.0687 Q1421.5031,283.4125 1420.5406,281.9906 Q1419.6,280.5687 1419.6,278.8844 L1419.6,277.3531 Q1419.6,275.6031 1420.4312,274.0719 Q1421.2844,272.5406 1422.75,271.7313 Q1424.2375,270.9 1425.9,270.9 Q1426.9063,270.9 1427.7813,271.25 Q1428.6563,271.6 1429.4,272.3 Z "/><text fill="#000000" font-family="sans-serif" font-size="16.8" lengthAdjust="spacingAndGlyphs" textLength="158.2" x="1446.2" y="284.0742">PaymentTransaction</text><line style="stroke: #A80036; stroke-width: 2.0999999999999996;" x1="1407" x2="1607.2" y1="299.6" y2="299.6"/><text fill="#000000" font-family="sans-serif" font-size="15.4" lengthAdjust="spacingAndGlyphs" textLength="95.2" x="1414" y="321.1865">-String transId</text><text fill="#000000" font-family="sans-serif" font-size="15.4" lengthAdjust="spacingAndGlyphs" textLength="105" x="1414" y="340.5568">-String endDate</text><text fill="#000000" font-family="sans-serif" font-size="15.4" lengthAdjust="spacingAndGlyphs" textLength="92.4" x="1414" y="359.9271">-Integer delay</text><text fill="#000000" font-family="sans-serif" font-size="15.4" lengthAdjust="spacingAndGlyphs" textLength="180.6" x="1414" y="379.2975">-String descQualityOfWork</text><text fill="#000000" font-family="sans-serif" font-size="15.4" lengthAdjust="spacingAndGlyphs" textLength="130.2" x="1414" y="398.6678">-Double amountPay</text><!--MD5=[b24ed8d4ae84bae9290d9aab401637c7]
class Manager--><rect fill="#FEFECE" filter="url(#f13nd1fww0u9bf)" height="94.7406" id="Manager" style="stroke: #A80036; stroke-width: 2.0999999999999996;" width="112" x="1033.2" y="11.9"/><ellipse cx="1054.2" cy="34.3" fill="#ADD1B2" rx="15.4" ry="15.4" style="stroke: #A80036; stroke-width: 1.4;"/><path d="M1057,29.4 Q1057.2844,28.7 1057.6125,28.35 Q1057.9406,28 1058.3125,28 Q1058.9688,28 1059.3844,28.3937 Q1059.8,28.7875 1059.8,29.7062 L1059.8,31.8937 Q1059.8,32.8125 1059.4063,33.2063 Q1059.0125,33.6 1058.4,33.6 Q1057.8531,33.6 1057.5031,33.3594 Q1057.1531,33.1188 1057,32.4844 Q1056.9344,32.0469 1056.6938,31.8063 Q1056.2563,31.3469 1055.4688,31.0844 Q1054.6812,30.8 1053.8938,30.8 Q1052.9094,30.8 1052.0781,31.1937 Q1051.2688,31.5875 1050.6344,32.4625 Q1050,33.3375 1050,34.5406 L1050,35.8313 Q1050,37.275 1051.1812,38.2375 Q1052.3625,39.2 1054.4625,39.2 Q1055.7094,39.2 1056.5844,38.9156 Q1057.0875,38.7625 1057.6563,38.2594 Q1058.0281,37.975 1058.225,37.8875 Q1058.4219,37.8 1058.6625,37.8 Q1059.1219,37.8 1059.45,38.1719 Q1059.8,38.5219 1059.8,39.025 Q1059.8,39.5062 1059.3188,40.075 Q1058.6187,40.9063 1057.5031,41.3656 Q1056.0375,42 1054.2437,42 Q1052.1438,42 1050.4594,41.1687 Q1049.1031,40.5125 1048.1406,39.0906 Q1047.2,37.6687 1047.2,35.9844 L1047.2,34.4531 Q1047.2,32.7031 1048.0313,31.1719 Q1048.8844,29.6406 1050.35,28.8312 Q1051.8375,28 1053.5,28 Q1054.5063,28 1055.3813,28.35 Q1056.2563,28.7 1057,29.4 Z "/><text fill="#000000" font-family="sans-serif" font-size="16.8" lengthAdjust="spacingAndGlyphs" textLength="67.2" x="1073.8" y="41.1742">Manager</text><line style="stroke: #A80036; stroke-width: 2.0999999999999996;" x1="1034.6" x2="1143.8" y1="56.7" y2="56.7"/><text fill="#000000" font-family="sans-serif" font-size="15.4" lengthAdjust="spacingAndGlyphs" textLength="85.4" x="1041.6" y="78.2865">-String name</text><text fill="#000000" font-family="sans-serif" font-size="15.4" lengthAdjust="spacingAndGlyphs" textLength="77" x="1041.6" y="97.6568">-Sting email</text><!--MD5=[1f687b5315377fe49fca59b457947463]
class Freelancer--><rect fill="#FEFECE" filter="url(#f13nd1fww0u9bf)" height="210.9625" id="Freelancer" style="stroke: #A80036; stroke-width: 2.0999999999999996;" width="147" x="1773.8" y="403.2"/><ellipse cx="1803.62" cy="425.6" fill="#ADD1B2" rx="15.4" ry="15.4" style="stroke: #A80036; stroke-width: 1.4;"/><path d="M1806.42,420.7 Q1806.7044,420 1807.0325,419.65 Q1807.3606,419.3 1807.7325,419.3 Q1808.3887,419.3 1808.8044,419.6937 Q1809.22,420.0875 1809.22,421.0062 L1809.22,423.1937 Q1809.22,424.1125 1808.8262,424.5062 Q1808.4325,424.9 1807.82,424.9 Q1807.2731,424.9 1806.9231,424.6594 Q1806.5731,424.4188 1806.42,423.7844 Q1806.3544,423.3469 1806.1137,423.1063 Q1805.6762,422.6469 1804.8887,422.3844 Q1804.1012,422.1 1803.3137,422.1 Q1802.3294,422.1 1801.4981,422.4938 Q1800.6887,422.8875 1800.0544,423.7625 Q1799.42,424.6375 1799.42,425.8406 L1799.42,427.1312 Q1799.42,428.575 1800.6012,429.5375 Q1801.7825,430.5 1803.8825,430.5 Q1805.1294,430.5 1806.0044,430.2156 Q1806.5075,430.0625 1807.0762,429.5594 Q1807.4481,429.275 1807.645,429.1875 Q1807.8419,429.1 1808.0825,429.1 Q1808.5419,429.1 1808.87,429.4719 Q1809.22,429.8219 1809.22,430.325 Q1809.22,430.8063 1808.7387,431.375 Q1808.0387,432.2062 1806.9231,432.6656 Q1805.4575,433.3 1803.6637,433.3 Q1801.5637,433.3 1799.8794,432.4688 Q1798.5231,431.8125 1797.5606,430.3906 Q1796.62,428.9688 1796.62,427.2844 L1796.62,425.7531 Q1796.62,424.0031 1797.4512,422.4719 Q1798.3044,420.9406 1799.77,420.1312 Q1801.2575,419.3 1802.92,419.3 Q1803.9262,419.3 1804.8012,419.65 Q1805.6762,420 1806.42,420.7 Z "/><text fill="#000000" font-family="sans-serif" font-size="16.8" lengthAdjust="spacingAndGlyphs" textLength="82.6" x="1825.18" y="432.4742">Freelancer</text><line style="stroke: #A80036; stroke-width: 2.0999999999999996;" x1="1775.2" x2="1919.4" y1="448" y2="448"/><text fill="#000000" font-family="sans-serif" font-size="15.4" lengthAdjust="spacingAndGlyphs" textLength="130.2" x="1782.2" y="469.5865">-String freelancerId</text><text fill="#000000" font-family="sans-serif" font-size="15.4" lengthAdjust="spacingAndGlyphs" textLength="85.4" x="1782.2" y="488.9568">-String name</text><text fill="#000000" font-family="sans-serif" font-size="15.4" lengthAdjust="spacingAndGlyphs" textLength="88.2" x="1782.2" y="508.3271">-String lvlExp</text><text fill="#000000" font-family="sans-serif" font-size="15.4" lengthAdjust="spacingAndGlyphs" textLength="82.6" x="1782.2" y="527.6975">-String email</text><text fill="#000000" font-family="sans-serif" font-size="15.4" lengthAdjust="spacingAndGlyphs" textLength="65.8" x="1782.2" y="547.0678">-String nif</text><text fill="#000000" font-family="sans-serif" font-size="15.4" lengthAdjust="spacingAndGlyphs" textLength="77" x="1782.2" y="566.4381">-String iban</text><text fill="#000000" font-family="sans-serif" font-size="15.4" lengthAdjust="spacingAndGlyphs" textLength="105" x="1782.2" y="585.8084">-String address</text><text fill="#000000" font-family="sans-serif" font-size="15.4" lengthAdjust="spacingAndGlyphs" textLength="100.8" x="1782.2" y="605.1787">-String country</text><!--MD5=[f483d6e5de34a60207b28a5563be5e8b]
class Collaborator--><rect fill="#FEFECE" filter="url(#f13nd1fww0u9bf)" height="133.4813" id="Collaborator" style="stroke: #A80036; stroke-width: 2.0999999999999996;" width="140" x="1019.2" y="156.8"/><ellipse cx="1040.2" cy="179.2" fill="#ADD1B2" rx="15.4" ry="15.4" style="stroke: #A80036; stroke-width: 1.4;"/><path d="M1043,174.3 Q1043.2844,173.6 1043.6125,173.25 Q1043.9406,172.9 1044.3125,172.9 Q1044.9688,172.9 1045.3844,173.2938 Q1045.8,173.6875 1045.8,174.6063 L1045.8,176.7938 Q1045.8,177.7125 1045.4063,178.1063 Q1045.0125,178.5 1044.4,178.5 Q1043.8531,178.5 1043.5031,178.2594 Q1043.1531,178.0187 1043,177.3844 Q1042.9344,176.9469 1042.6938,176.7062 Q1042.2563,176.2469 1041.4688,175.9844 Q1040.6812,175.7 1039.8938,175.7 Q1038.9094,175.7 1038.0781,176.0938 Q1037.2688,176.4875 1036.6344,177.3625 Q1036,178.2375 1036,179.4406 L1036,180.7313 Q1036,182.175 1037.1812,183.1375 Q1038.3625,184.1 1040.4625,184.1 Q1041.7094,184.1 1042.5844,183.8156 Q1043.0875,183.6625 1043.6563,183.1594 Q1044.0281,182.875 1044.225,182.7875 Q1044.4219,182.7 1044.6625,182.7 Q1045.1219,182.7 1045.45,183.0719 Q1045.8,183.4219 1045.8,183.925 Q1045.8,184.4063 1045.3188,184.975 Q1044.6187,185.8062 1043.5031,186.2656 Q1042.0375,186.9 1040.2437,186.9 Q1038.1438,186.9 1036.4594,186.0688 Q1035.1031,185.4125 1034.1406,183.9906 Q1033.2,182.5688 1033.2,180.8844 L1033.2,179.3531 Q1033.2,177.6031 1034.0313,176.0719 Q1034.8844,174.5406 1036.35,173.7313 Q1037.8375,172.9 1039.5,172.9 Q1040.5063,172.9 1041.3813,173.25 Q1042.2563,173.6 1043,174.3 Z "/><text fill="#000000" font-family="sans-serif" font-size="16.8" lengthAdjust="spacingAndGlyphs" textLength="95.2" x="1059.8" y="186.0742">Collaborator</text><line style="stroke: #A80036; stroke-width: 2.0999999999999996;" x1="1020.6" x2="1157.8" y1="201.6" y2="201.6"/><text fill="#000000" font-family="sans-serif" font-size="15.4" lengthAdjust="spacingAndGlyphs" textLength="85.4" x="1027.6" y="223.1865">-String name</text><text fill="#000000" font-family="sans-serif" font-size="15.4" lengthAdjust="spacingAndGlyphs" textLength="103.6" x="1027.6" y="242.5568">-String function</text><text fill="#000000" font-family="sans-serif" font-size="15.4" lengthAdjust="spacingAndGlyphs" textLength="114.8" x="1027.6" y="261.9271">-String telephone</text><text fill="#000000" font-family="sans-serif" font-size="15.4" lengthAdjust="spacingAndGlyphs" textLength="82.6" x="1027.6" y="281.2975">-String email</text><!--MD5=[3fd616f346a44cd59a91eb10b19e157c]
class User--><rect fill="#FEFECE" filter="url(#f13nd1fww0u9bf)" height="114.1109" id="User" style="stroke: #A80036; stroke-width: 2.0999999999999996;" width="135.8" x="1439.2" y="46.9"/><ellipse cx="1484.14" cy="69.3" fill="#ADD1B2" rx="15.4" ry="15.4" style="stroke: #A80036; stroke-width: 1.4;"/><path d="M1486.94,64.4 Q1487.2244,63.7 1487.5525,63.35 Q1487.8806,63 1488.2525,63 Q1488.9087,63 1489.3244,63.3938 Q1489.74,63.7875 1489.74,64.7063 L1489.74,66.8938 Q1489.74,67.8125 1489.3462,68.2063 Q1488.9525,68.6 1488.34,68.6 Q1487.7931,68.6 1487.4431,68.3594 Q1487.0931,68.1187 1486.94,67.4844 Q1486.8744,67.0469 1486.6337,66.8062 Q1486.1962,66.3469 1485.4087,66.0844 Q1484.6212,65.8 1483.8337,65.8 Q1482.8494,65.8 1482.0181,66.1938 Q1481.2087,66.5875 1480.5744,67.4625 Q1479.94,68.3375 1479.94,69.5406 L1479.94,70.8313 Q1479.94,72.275 1481.1212,73.2375 Q1482.3025,74.2 1484.4025,74.2 Q1485.6494,74.2 1486.5244,73.9156 Q1487.0275,73.7625 1487.5962,73.2594 Q1487.9681,72.975 1488.165,72.8875 Q1488.3619,72.8 1488.6025,72.8 Q1489.0619,72.8 1489.39,73.1719 Q1489.74,73.5219 1489.74,74.025 Q1489.74,74.5063 1489.2587,75.075 Q1488.5587,75.9063 1487.4431,76.3656 Q1485.9775,77 1484.1837,77 Q1482.0837,77 1480.3994,76.1687 Q1479.0431,75.5125 1478.0806,74.0906 Q1477.14,72.6687 1477.14,70.9844 L1477.14,69.4531 Q1477.14,67.7031 1477.9712,66.1719 Q1478.8244,64.6406 1480.29,63.8313 Q1481.7775,63 1483.44,63 Q1484.4462,63 1485.3212,63.35 Q1486.1962,63.7 1486.94,64.4 Z "/><text fill="#000000" font-family="sans-serif" font-size="16.8" lengthAdjust="spacingAndGlyphs" textLength="37.8" x="1509.06" y="76.1742">User</text><line style="stroke: #A80036; stroke-width: 2.0999999999999996;" x1="1440.6" x2="1573.6" y1="91.7" y2="91.7"/><text fill="#000000" font-family="sans-serif" font-size="15.4" lengthAdjust="spacingAndGlyphs" textLength="85.4" x="1447.6" y="113.2865">-String nome</text><text fill="#000000" font-family="sans-serif" font-size="15.4" lengthAdjust="spacingAndGlyphs" textLength="82.6" x="1447.6" y="132.6568">-String email</text><text fill="#000000" font-family="sans-serif" font-size="15.4" lengthAdjust="spacingAndGlyphs" textLength="119" x="1447.6" y="152.0271">-String password</text><!--MD5=[03dcba4cf8fb1a884adf843655d65df1]
class Plataform--><rect fill="#FEFECE" filter="url(#f13nd1fww0u9bf)" height="75.3703" id="Plataform" style="stroke: #A80036; stroke-width: 2.0999999999999996;" width="142.8" x="8.4" y="440.3"/><ellipse cx="40.11" cy="462.7" fill="#ADD1B2" rx="15.4" ry="15.4" style="stroke: #A80036; stroke-width: 1.4;"/><path d="M42.91,457.8 Q43.1944,457.1 43.5225,456.75 Q43.8506,456.4 44.2225,456.4 Q44.8788,456.4 45.2944,456.7938 Q45.71,457.1875 45.71,458.1063 L45.71,460.2938 Q45.71,461.2125 45.3163,461.6063 Q44.9225,462 44.31,462 Q43.7631,462 43.4131,461.7594 Q43.0631,461.5187 42.91,460.8844 Q42.8444,460.4469 42.6038,460.2062 Q42.1663,459.7469 41.3788,459.4844 Q40.5912,459.2 39.8037,459.2 Q38.8194,459.2 37.9881,459.5937 Q37.1787,459.9875 36.5444,460.8625 Q35.91,461.7375 35.91,462.9406 L35.91,464.2313 Q35.91,465.675 37.0912,466.6375 Q38.2725,467.6 40.3725,467.6 Q41.6194,467.6 42.4944,467.3156 Q42.9975,467.1625 43.5663,466.6594 Q43.9381,466.375 44.135,466.2875 Q44.3319,466.2 44.5725,466.2 Q45.0319,466.2 45.36,466.5719 Q45.71,466.9219 45.71,467.425 Q45.71,467.9062 45.2288,468.475 Q44.5287,469.3063 43.4131,469.7656 Q41.9475,470.4 40.1537,470.4 Q38.0537,470.4 36.3694,469.5687 Q35.0131,468.9125 34.0506,467.4906 Q33.11,466.0687 33.11,464.3844 L33.11,462.8531 Q33.11,461.1031 33.9413,459.5719 Q34.7944,458.0406 36.26,457.2313 Q37.7475,456.4 39.41,456.4 Q40.4163,456.4 41.2913,456.75 Q42.1663,457.1 42.91,457.8 Z "/><text fill="#000000" font-family="sans-serif" font-size="16.8" lengthAdjust="spacingAndGlyphs" textLength="74.2" x="62.09" y="469.5742">Plataform</text><line style="stroke: #A80036; stroke-width: 2.0999999999999996;" x1="9.8" x2="149.8" y1="485.1" y2="485.1"/><text fill="#000000" font-family="sans-serif" font-size="15.4" lengthAdjust="spacingAndGlyphs" textLength="126" x="16.8" y="506.6865">-String designation</text><!--MD5=[86c7c362de55a38b660185a1328fe18d]
class Organization--><rect fill="#FEFECE" filter="url(#f13nd1fww0u9bf)" height="133.4813" id="Organization" style="stroke: #A80036; stroke-width: 2.0999999999999996;" width="187.6" x="355.6" y="99.4"/><ellipse cx="397.39" cy="121.8" fill="#ADD1B2" rx="15.4" ry="15.4" style="stroke: #A80036; stroke-width: 1.4;"/><path d="M400.19,116.9 Q400.4744,116.2 400.8025,115.85 Q401.1306,115.5 401.5025,115.5 Q402.1588,115.5 402.5744,115.8938 Q402.99,116.2875 402.99,117.2063 L402.99,119.3938 Q402.99,120.3125 402.5963,120.7063 Q402.2025,121.1 401.59,121.1 Q401.0431,121.1 400.6931,120.8594 Q400.3431,120.6187 400.19,119.9844 Q400.1244,119.5469 399.8838,119.3062 Q399.4463,118.8469 398.6588,118.5844 Q397.8713,118.3 397.0838,118.3 Q396.0994,118.3 395.2681,118.6938 Q394.4588,119.0875 393.8244,119.9625 Q393.19,120.8375 393.19,122.0406 L393.19,123.3313 Q393.19,124.775 394.3713,125.7375 Q395.5525,126.7 397.6525,126.7 Q398.8994,126.7 399.7744,126.4156 Q400.2775,126.2625 400.8463,125.7594 Q401.2181,125.475 401.415,125.3875 Q401.6119,125.3 401.8525,125.3 Q402.3119,125.3 402.64,125.6719 Q402.99,126.0219 402.99,126.525 Q402.99,127.0063 402.5088,127.575 Q401.8088,128.4063 400.6931,128.8656 Q399.2275,129.5 397.4338,129.5 Q395.3338,129.5 393.6494,128.6688 Q392.2931,128.0125 391.3306,126.5906 Q390.39,125.1687 390.39,123.4844 L390.39,121.9531 Q390.39,120.2031 391.2213,118.6719 Q392.0744,117.1406 393.54,116.3313 Q395.0275,115.5 396.69,115.5 Q397.6963,115.5 398.5713,115.85 Q399.4463,116.2 400.19,116.9 Z "/><text fill="#000000" font-family="sans-serif" font-size="16.8" lengthAdjust="spacingAndGlyphs" textLength="96.6" x="421.61" y="128.6742">Organization</text><line style="stroke: #A80036; stroke-width: 2.0999999999999996;" x1="357" x2="541.8" y1="144.2" y2="144.2"/><text fill="#000000" font-family="sans-serif" font-size="15.4" lengthAdjust="spacingAndGlyphs" textLength="85.4" x="364" y="165.7865">-String name</text><text fill="#000000" font-family="sans-serif" font-size="15.4" lengthAdjust="spacingAndGlyphs" textLength="70" x="364" y="185.1568">-String NIF</text><text fill="#000000" font-family="sans-serif" font-size="15.4" lengthAdjust="spacingAndGlyphs" textLength="170.8" x="364" y="204.5271">-Collaborator collaborator</text><text fill="#000000" font-family="sans-serif" font-size="15.4" lengthAdjust="spacingAndGlyphs" textLength="127.4" x="364" y="223.8975">-Manager manager</text><!--MD5=[69e497c3067133575d4453703547b8fd]
link Plataform to Organization--><path d="M125.8102,440.1306 C186.333,388.6162 295.4182,295.7696 369.7316,232.5176 " fill="none" id="Plataform-Organization" style="stroke: #A80036; stroke-width: 1.4;"/><text fill="#000000" font-family="sans-serif" font-size="18.2" lengthAdjust="spacingAndGlyphs" textLength="99.4" x="194.6" y="278.5932">has registed</text><polygon fill="#000000" points="298.2,269.0461,306.6,273.2461,298.2,277.4461,298.2,269.0461" style="stroke: #000000; stroke-width: 1.4;"/><text fill="#000000" font-family="sans-serif" font-size="18.2" lengthAdjust="spacingAndGlyphs" textLength="9.8" x="125.5169" y="425.3368">1</text><text fill="#000000" font-family="sans-serif" font-size="18.2" lengthAdjust="spacingAndGlyphs" textLength="7" x="350.5162" y="262.841">*</text><!--MD5=[45817597bcd7048073a670d966abfd17]
link Organization to Collaborator--><path d="M543.424,137.1594 C651.168,108.7268 832.72,76.4834 977.2,129.5 C993.9818,135.6586 1009.9614,145.6154 1024.2946,156.7902 " fill="none" id="Organization-Collaborator" style="stroke: #A80036; stroke-width: 1.4;"/><text fill="#000000" font-family="sans-serif" font-size="18.2" lengthAdjust="spacingAndGlyphs" textLength="105" x="686" y="95.1932">has manager</text><polygon fill="#000000" points="795.2,85.6461,803.6,89.8461,795.2,94.0461,795.2,85.6461" style="stroke: #000000; stroke-width: 1.4;"/><text fill="#000000" font-family="sans-serif" font-size="18.2" lengthAdjust="spacingAndGlyphs" textLength="9.8" x="554.2438" y="154.1347">1</text><text fill="#000000" font-family="sans-serif" font-size="18.2" lengthAdjust="spacingAndGlyphs" textLength="9.8" x="1003.8056" y="141.3849">1</text><!--MD5=[45817597bcd7048073a670d966abfd17]
link Organization to Collaborator--><path d="M543.2336,170.9596 C648.5094,177.2022 825.5744,189.161 977.2,206.5 C990.7072,208.0442 1005.0964,210 1018.8766,212.0272 " fill="none" id="Organization-Collaborator-1" style="stroke: #A80036; stroke-width: 1.4;"/><text fill="#000000" font-family="sans-serif" font-size="18.2" lengthAdjust="spacingAndGlyphs" textLength="29.4" x="723.8" y="174.9932">has</text><polygon fill="#000000" points="757.4,165.4461,765.8,169.6461,757.4,173.8461,757.4,165.4461" style="stroke: #000000; stroke-width: 1.4;"/><text fill="#000000" font-family="sans-serif" font-size="18.2" lengthAdjust="spacingAndGlyphs" textLength="9.8" x="554.6497" y="191.7334">1</text><text fill="#000000" font-family="sans-serif" font-size="18.2" lengthAdjust="spacingAndGlyphs" textLength="28" x="980.0727" y="230.9117">1..*</text><!--MD5=[b4b6c1ff9c803d8207b36238c02005ea]
link Freelancer to Task--><path d="M1773.24,499.9665 C1609.58,479.4744 1199.7776,426.0984 859.6,364.7 C846.0704,362.2584 831.67,359.3716 817.887,356.468 " fill="none" id="Freelancer-Task" style="stroke: #A80036; stroke-width: 1.4;"/><polygon fill="#000000" points="1212.4,406.2461,1204,410.4461,1212.4,414.6461,1212.4,406.2461" style="stroke: #000000; stroke-width: 1.4;"/><text fill="#000000" font-family="sans-serif" font-size="18.2" lengthAdjust="spacingAndGlyphs" textLength="141.4" x="1220.8" y="415.7932">finishes/executes</text><text fill="#000000" font-family="sans-serif" font-size="18.2" lengthAdjust="spacingAndGlyphs" textLength="9.8" x="1752.8297" y="519.2266">1</text><text fill="#000000" font-family="sans-serif" font-size="18.2" lengthAdjust="spacingAndGlyphs" textLength="28" x="828.6863" y="353.5362">1..*</text><!--MD5=[f24cbd698439a42b2d62cde440643418]
link Task to PaymentTransaction--><path d="M817.9654,347.9588 C831.7414,349.1012 846.1194,350.1036 859.6,350.7 C962.6162,355.2556 1190.0448,358.7556 1363.6,347.9 C1377.1128,347.0544 1391.3116,345.8084 1405.2934,344.3692 " fill="none" id="Task-PaymentTransaction" style="stroke: #A80036; stroke-width: 1.4;"/><text fill="#000000" font-family="sans-serif" font-size="18.2" lengthAdjust="spacingAndGlyphs" textLength="78.4" x="1040.9" y="348.5932">is paid by</text><polygon fill="#000000" points="1123.5,339.0461,1131.9,343.2461,1123.5,347.4461,1123.5,339.0461" style="stroke: #000000; stroke-width: 1.4;"/><text fill="#000000" font-family="sans-serif" font-size="18.2" lengthAdjust="spacingAndGlyphs" textLength="9.8" x="829.02" y="369.5514">1</text><text fill="#000000" font-family="sans-serif" font-size="18.2" lengthAdjust="spacingAndGlyphs" textLength="9.8" x="1384.4893" y="365.7982">1</text><!--MD5=[f6802b286771c18a16ea4be983074371]
link PaymentTransaction to Freelancer--><path d="M1608.824,383.964 C1661.66,411.8072 1725.262,445.3274 1773.282,470.6352 " fill="none" id="PaymentTransaction-Freelancer" style="stroke: #A80036; stroke-width: 1.4;"/><text fill="#000000" font-family="sans-serif" font-size="18.2" lengthAdjust="spacingAndGlyphs" textLength="60.2" x="1652" y="403.1932">pays to</text><polygon fill="#000000" points="1716.4,393.6461,1724.8,397.8461,1716.4,402.0461,1716.4,393.6461" style="stroke: #000000; stroke-width: 1.4;"/><text fill="#000000" font-family="sans-serif" font-size="18.2" lengthAdjust="spacingAndGlyphs" textLength="9.8" x="1619.8196" y="409.4762">1</text><text fill="#000000" font-family="sans-serif" font-size="18.2" lengthAdjust="spacingAndGlyphs" textLength="9.8" x="1752.8774" y="485.954">1</text><!--MD5=[c32d3c60a61e5638fef4971a1b3a8306]
link Collaborator to PaymentTransaction--><path d="M1159.4492,285.992 C1172.5364,295.0388 1186.6988,303.1504 1201.2,308.7 C1266.0536,333.5178 1344.2688,338.8014 1405.1884,338.044 " fill="none" id="Collaborator-PaymentTransaction" style="stroke: #A80036; stroke-width: 1.4;"/><text fill="#000000" font-family="sans-serif" font-size="18.2" lengthAdjust="spacingAndGlyphs" textLength="60.2" x="1243.2" y="303.7932">creates</text><polygon fill="#000000" points="1307.6,294.2461,1316,298.4461,1307.6,302.6461,1307.6,294.2461" style="stroke: #000000; stroke-width: 1.4;"/><text fill="#000000" font-family="sans-serif" font-size="18.2" lengthAdjust="spacingAndGlyphs" textLength="9.8" x="1170.4867" y="315.7389">1</text><text fill="#000000" font-family="sans-serif" font-size="18.2" lengthAdjust="spacingAndGlyphs" textLength="28" x="1366.5028" y="334.1559">1..*</text><!--MD5=[4078351e3988aa35b1504a42837f2ab1]
link Organization to Task--><path d="M543.4562,220.7912 C586.7708,246.4518 637.4578,276.479 677.3144,300.0914 " fill="none" id="Organization-Task" style="stroke: #A80036; stroke-width: 1.4;"/><text fill="#000000" font-family="sans-serif" font-size="18.2" lengthAdjust="spacingAndGlyphs" textLength="29.4" x="586.6" y="242.1932">has</text><polygon fill="#000000" points="620.2,232.6461,628.6,236.8461,620.2,241.0461,620.2,232.6461" style="stroke: #000000; stroke-width: 1.4;"/><text fill="#000000" font-family="sans-serif" font-size="18.2" lengthAdjust="spacingAndGlyphs" textLength="9.8" x="554.2795" y="246.9137">1</text><text fill="#000000" font-family="sans-serif" font-size="18.2" lengthAdjust="spacingAndGlyphs" textLength="7" x="659.4771" y="314.6535">*</text><!--MD5=[392f7804293287fa5662caa616132930]
link Task to Collaborator--><path d="M817.7246,297.808 C831.271,290.4552 845.6252,283.4216 859.6,277.9 C911.3146,257.4656 972.7578,243.299 1018.8542,234.5266 " fill="none" id="Task-Collaborator" style="stroke: #A80036; stroke-width: 1.4;"/><text fill="#000000" font-family="sans-serif" font-size="18.2" lengthAdjust="spacingAndGlyphs" textLength="96.6" x="861" y="237.9932">specified by</text><polygon fill="#000000" points="961.8,228.4461,970.2,232.6461,961.8,236.8461,961.8,228.4461" style="stroke: #000000; stroke-width: 1.4;"/><text fill="#000000" font-family="sans-serif" font-size="18.2" lengthAdjust="spacingAndGlyphs" textLength="7" x="828.9984" y="311.8361">*</text><text fill="#000000" font-family="sans-serif" font-size="18.2" lengthAdjust="spacingAndGlyphs" textLength="9.8" x="998.0025" y="256.7145">1</text><!--MD5=[f919d21ae7a75ef5ececc535e09d5009]
link Collaborator to Task--><path d="M1019.193,289.5676 C1006.0778,299.2668 991.844,308.07 977.2,314.3 C926.7342,335.7718 864.647,341.852 817.9808,342.8796 " fill="none" id="Collaborator-Task" style="stroke: #A80036; stroke-width: 1.4;"/><polygon fill="#000000" points="880.6,299.8461,872.2,304.0461,880.6,308.2461,880.6,299.8461" style="stroke: #000000; stroke-width: 1.4;"/><text fill="#000000" font-family="sans-serif" font-size="18.2" lengthAdjust="spacingAndGlyphs" textLength="77" x="889" y="309.3932">publishes</text><text fill="#000000" font-family="sans-serif" font-size="18.2" lengthAdjust="spacingAndGlyphs" textLength="9.8" x="998.391" y="319.8396">1</text><text fill="#000000" font-family="sans-serif" font-size="18.2" lengthAdjust="spacingAndGlyphs" textLength="28" x="828.7921" y="338.2068">1..*</text><!--MD5=[04ce0ecdab38a3951889ff50c232570f]
link Collaborator to User--><path d="M1159.7012,237.9174 C1216.3508,246.7542 1297.6502,252.1078 1363.6,227.5 C1399.391,214.1454 1432.144,187.264 1457.176,162.0094 " fill="none" id="Collaborator-User" style="stroke: #A80036; stroke-width: 1.4;"/><text fill="#000000" font-family="sans-serif" font-size="18.2" lengthAdjust="spacingAndGlyphs" textLength="68.6" x="1239" y="222.5932">acts like</text><polygon fill="#000000" points="1311.8,213.0461,1320.2,217.2461,1311.8,221.4461,1311.8,213.0461" style="stroke: #000000; stroke-width: 1.4;"/><text fill="#000000" font-family="sans-serif" font-size="18.2" lengthAdjust="spacingAndGlyphs" textLength="30.8" x="1170.1704" y="259.9577">0..1</text><text fill="#000000" font-family="sans-serif" font-size="18.2" lengthAdjust="spacingAndGlyphs" textLength="9.8" x="1439.3237" y="191.1104">1</text><!--MD5=[b84222977e65b0051251f49c6eaf9537]
link Plataform to Freelancer--><path d="M145.6783,516.1093 C217.0854,554.5396 336.8414,608.3 448,608.3 C448,608.3 448,608.3 1508.5,608.3 C1602.846,608.3 1706.208,572.0954 1773.338,543.3863 " fill="none" id="Plataform-Freelancer" style="stroke: #A80036; stroke-width: 1.4;"/><text fill="#000000" font-family="sans-serif" font-size="18.2" lengthAdjust="spacingAndGlyphs" textLength="74.2" x="872.2" y="603.3932">has/uses</text><polygon fill="#000000" points="950.6,593.8461,959,598.0461,950.6,602.2461,950.6,593.8461" style="stroke: #000000; stroke-width: 1.4;"/><text fill="#000000" font-family="sans-serif" font-size="18.2" lengthAdjust="spacingAndGlyphs" textLength="9.8" x="149.2173" y="545.846">1</text><text fill="#000000" font-family="sans-serif" font-size="18.2" lengthAdjust="spacingAndGlyphs" textLength="28" x="1734.6176" y="567.9042">1..*</text><!--MD5=[bc039f41cf0b27fadee5cae63fc6e1fe]
link Organization to Manager--><path d="M543.5388,104.7088 C557.1622,97.2566 571.2952,90.3098 585.2,84.7 C737.7216,23.1644 937.706,38.5028 1032.8752,50.9306 " fill="none" id="Organization-Manager" style="stroke: #A80036; stroke-width: 1.4;"/><text fill="#000000" font-family="sans-serif" font-size="18.2" lengthAdjust="spacingAndGlyphs" textLength="29.4" x="723.8" y="34.9932">has</text><polygon fill="#000000" points="757.4,25.4461,765.8,29.6461,757.4,33.8461,757.4,25.4461" style="stroke: #000000; stroke-width: 1.4;"/><text fill="#000000" font-family="sans-serif" font-size="18.2" lengthAdjust="spacingAndGlyphs" textLength="9.8" x="554.3712" y="118.1348">1</text><text fill="#000000" font-family="sans-serif" font-size="18.2" lengthAdjust="spacingAndGlyphs" textLength="9.8" x="1012.1695" y="70.3771">1</text><!--MD5=[6eb6e197a729f6ec2412743e0bdbca1d]
link Manager to User--><path d="M1145.2938,65.4024 C1220.9162,73.5644 1357.2888,88.2826 1438.864,97.0858 " fill="none" id="Manager-User" style="stroke: #A80036; stroke-width: 1.4;"/><text fill="#000000" font-family="sans-serif" font-size="18.2" lengthAdjust="spacingAndGlyphs" textLength="68.6" x="1239" y="65.7932">acts like</text><polygon fill="#000000" points="1311.8,56.2461,1320.2,60.4461,1311.8,64.6461,1311.8,56.2461" style="stroke: #000000; stroke-width: 1.4;"/><text fill="#000000" font-family="sans-serif" font-size="18.2" lengthAdjust="spacingAndGlyphs" textLength="9.8" x="1156.5395" y="87.5365">1</text><text fill="#000000" font-family="sans-serif" font-size="18.2" lengthAdjust="spacingAndGlyphs" textLength="9.8" x="1418.3222" y="116.6511">1</text><!--MD5=[07c33ebd6bf1a7067fcb1cdb0e1b530a]
link Manager to PaymentTransaction--><path d="M1145.6592,93.0986 C1163.1942,103.3816 1182.818,114.4612 1201.2,123.9 C1271.5654,160.0298 1297.8518,152.726 1363.6,196.7 C1388.2974,213.2186 1412.712,234.1458 1434.16,254.5396 " fill="none" id="Manager-PaymentTransaction" style="stroke: #A80036; stroke-width: 1.4;"/><text fill="#000000" font-family="sans-serif" font-size="18.2" lengthAdjust="spacingAndGlyphs" textLength="140" x="1203.3" y="118.9932">chooses the date</text><polygon fill="#000000" points="1347.5,109.4461,1355.9,113.6461,1347.5,117.8461,1347.5,109.4461" style="stroke: #000000; stroke-width: 1.4;"/><text fill="#000000" font-family="sans-serif" font-size="18.2" lengthAdjust="spacingAndGlyphs" textLength="9.8" x="1156.5888" y="120.0563">1</text><text fill="#000000" font-family="sans-serif" font-size="18.2" lengthAdjust="spacingAndGlyphs" textLength="28" x="1395.0129" y="239.8039">1..*</text><!--MD5=[b904d7f92ec1d614f03f50b6cb792508]
@startuml
hide methods
left to right direction
skinparam classAttributeIconSize 0

class Task{
-String TaskId
-String description
-String duration
-String cost
-String category
}

class PaymentTransaction{
-String transId
-String endDate
-Integer delay
-String descQualityOfWork
-Double amountPay
}

class Manager{
-String name
-Sting email
}

class Freelancer{
-String freelancerId
-String name
-String lvlExp
-String email
-String nif
-String iban
-String address
-String country
}

class Collaborator{
-String name
-String function
-String telephone
-String email
}

class User{
-String nome
-String email
-String password
}

class Plataform{
-String designation
}

class Organization{
-String name
-String NIF
-Collaborator collaborator
-Manager manager
}

Plataform "1" - - "*" Organization : has registed >
Organization "1" - - "1" Collaborator : has manager >
Organization "1" - - "1..*" Collaborator : has >
Freelancer "1" - - "1..*" Task : finishes/executes >
Task "1" - - "1" PaymentTransaction : is paid by >
PaymentTransaction "1" - - "1" Freelancer : pays to >
Collaborator "1" - - "1..*" PaymentTransaction : creates >
Organization "1" - - "*" Task :  has >
Task "*" - - "1" Collaborator : specified by >
Collaborator "1" - - "1..*" Task : publishes >
Collaborator "0..1" - - "1" User : acts like >
Plataform "1" - - "1..*" Freelancer : has/uses >
Organization "1" - - "1" Manager : has >
Manager "1" - - "1" User : acts like >
Manager "1" - - "1..*" PaymentTransaction : chooses the date >
@enduml

PlantUML version 1.2020.09(Sun May 10 11:51:06 BST 2020)
(GPL source distribution)
Java Runtime: OpenJDK Runtime Environment
JVM: OpenJDK 64-Bit Server VM
Java Version: 11.0.7+10-b765.53
Operating System: Windows 10
Default Encoding: Cp1252
Language: pt
Country: PT
--></g></svg>