<?xml version="1.0" encoding="UTF-8" standalone="no"?><svg xmlns="http://www.w3.org/2000/svg" xmlns:xlink="http://www.w3.org/1999/xlink" contentScriptType="application/ecmascript" contentStyleType="text/css" height="628.6px" preserveAspectRatio="none" style="width:1889px;height:628px;" version="1.1" viewBox="0 0 1889 628" width="1890px" zoomAndPan="magnify"><defs><filter height="300%" id="f1qjz9feop78af" width="300%" x="-1" y="-1"><feGaussianBlur result="blurOut" stdDeviation="2.8"/><feColorMatrix in="blurOut" result="blurOut2" type="matrix" values="0 0 0 0 0 0 0 0 0 0 0 0 0 0 0 0 0 0 .4 0"/><feOffset dx="5.6" dy="5.6" in="blurOut2" result="blurOut3"/><feBlend in="SourceGraphic" in2="blurOut3" mode="normal"/></filter></defs><g><!--MD5=[b34797a66dc35cbf1d65f7e3ca75530e]
class Task--><rect fill="#FEFECE" filter="url(#f1qjz9feop78af)" height="152.8516" id="Task" style="stroke: #A80036; stroke-width: 2.0999999999999996;" width="140" x="631.4" y="264.6"/><ellipse cx="678.23" cy="287" fill="#ADD1B2" rx="15.4" ry="15.4" style="stroke: #A80036; stroke-width: 1.4;"/><path d="M681.03,282.1 Q681.3144,281.4 681.6425,281.05 Q681.9706,280.7 682.3425,280.7 Q682.9988,280.7 683.4144,281.0938 Q683.83,281.4875 683.83,282.4063 L683.83,284.5938 Q683.83,285.5125 683.4363,285.9063 Q683.0425,286.3 682.43,286.3 Q681.8831,286.3 681.5331,286.0594 Q681.1831,285.8187 681.03,285.1844 Q680.9644,284.7469 680.7238,284.5062 Q680.2863,284.0469 679.4988,283.7844 Q678.7113,283.5 677.9237,283.5 Q676.9394,283.5 676.1081,283.8937 Q675.2987,284.2875 674.6644,285.1625 Q674.03,286.0375 674.03,287.2406 L674.03,288.5313 Q674.03,289.975 675.2113,290.9375 Q676.3925,291.9 678.4925,291.9 Q679.7394,291.9 680.6144,291.6156 Q681.1175,291.4625 681.6863,290.9594 Q682.0581,290.675 682.255,290.5875 Q682.4519,290.5 682.6925,290.5 Q683.1519,290.5 683.48,290.8719 Q683.83,291.2219 683.83,291.725 Q683.83,292.2062 683.3488,292.775 Q682.6488,293.6063 681.5331,294.0656 Q680.0675,294.7 678.2738,294.7 Q676.1737,294.7 674.4894,293.8688 Q673.1331,293.2125 672.1706,291.7906 Q671.23,290.3688 671.23,288.6844 L671.23,287.1531 Q671.23,285.4031 672.0613,283.8719 Q672.9144,282.3406 674.38,281.5313 Q675.8675,280.7 677.53,280.7 Q678.5363,280.7 679.4113,281.05 Q680.2863,281.4 681.03,282.1 Z "/><text fill="#000000" font-family="sans-serif" font-size="16.8" lengthAdjust="spacingAndGlyphs" textLength="37.8" x="703.57" y="293.8742">Task</text><line style="stroke: #A80036; stroke-width: 2.0999999999999996;" x1="632.8" x2="770" y1="309.4" y2="309.4"/><text fill="#000000" font-family="sans-serif" font-size="15.4" lengthAdjust="spacingAndGlyphs" textLength="92.4" x="639.8" y="330.9865">-String TaskId</text><text fill="#000000" font-family="sans-serif" font-size="15.4" lengthAdjust="spacingAndGlyphs" textLength="123.2" x="639.8" y="350.3568">-String description</text><text fill="#000000" font-family="sans-serif" font-size="15.4" lengthAdjust="spacingAndGlyphs" textLength="103.6" x="639.8" y="369.7271">-String duration</text><text fill="#000000" font-family="sans-serif" font-size="15.4" lengthAdjust="spacingAndGlyphs" textLength="78.4" x="639.8" y="389.0975">-String cost</text><text fill="#000000" font-family="sans-serif" font-size="15.4" lengthAdjust="spacingAndGlyphs" textLength="109.2" x="639.8" y="408.4678">-String category</text><!--MD5=[b645a18afb25b7e5623af7186d8eb36f]
class PaymentTransaction--><rect fill="#FEFECE" filter="url(#f1qjz9feop78af)" height="152.8516" id="PaymentTransaction" style="stroke: #A80036; stroke-width: 2.0999999999999996;" width="203" x="1359.4" y="254.8"/><ellipse cx="1380.4" cy="277.2" fill="#ADD1B2" rx="15.4" ry="15.4" style="stroke: #A80036; stroke-width: 1.4;"/><path d="M1383.2,272.3 Q1383.4844,271.6 1383.8125,271.25 Q1384.1406,270.9 1384.5125,270.9 Q1385.1687,270.9 1385.5844,271.2938 Q1386,271.6875 1386,272.6063 L1386,274.7938 Q1386,275.7125 1385.6062,276.1063 Q1385.2125,276.5 1384.6,276.5 Q1384.0531,276.5 1383.7031,276.2594 Q1383.3531,276.0187 1383.2,275.3844 Q1383.1344,274.9469 1382.8938,274.7062 Q1382.4563,274.2469 1381.6687,273.9844 Q1380.8813,273.7 1380.0938,273.7 Q1379.1094,273.7 1378.2781,274.0938 Q1377.4688,274.4875 1376.8344,275.3625 Q1376.2,276.2375 1376.2,277.4406 L1376.2,278.7313 Q1376.2,280.175 1377.3813,281.1375 Q1378.5625,282.1 1380.6625,282.1 Q1381.9094,282.1 1382.7844,281.8156 Q1383.2875,281.6625 1383.8562,281.1594 Q1384.2281,280.875 1384.425,280.7875 Q1384.6219,280.7 1384.8625,280.7 Q1385.3219,280.7 1385.65,281.0719 Q1386,281.4219 1386,281.925 Q1386,282.4063 1385.5188,282.975 Q1384.8188,283.8063 1383.7031,284.2656 Q1382.2375,284.9 1380.4438,284.9 Q1378.3438,284.9 1376.6594,284.0687 Q1375.3031,283.4125 1374.3406,281.9906 Q1373.4,280.5687 1373.4,278.8844 L1373.4,277.3531 Q1373.4,275.6031 1374.2312,274.0719 Q1375.0844,272.5406 1376.55,271.7313 Q1378.0375,270.9 1379.7,270.9 Q1380.7063,270.9 1381.5813,271.25 Q1382.4563,271.6 1383.2,272.3 Z "/><text fill="#000000" font-family="sans-serif" font-size="16.8" lengthAdjust="spacingAndGlyphs" textLength="158.2" x="1400" y="284.0742">PaymentTransaction</text><line style="stroke: #A80036; stroke-width: 2.0999999999999996;" x1="1360.8" x2="1561" y1="299.6" y2="299.6"/><text fill="#000000" font-family="sans-serif" font-size="15.4" lengthAdjust="spacingAndGlyphs" textLength="95.2" x="1367.8" y="321.1865">-String transId</text><text fill="#000000" font-family="sans-serif" font-size="15.4" lengthAdjust="spacingAndGlyphs" textLength="105" x="1367.8" y="340.5568">-String endDate</text><text fill="#000000" font-family="sans-serif" font-size="15.4" lengthAdjust="spacingAndGlyphs" textLength="92.4" x="1367.8" y="359.9271">-Integer delay</text><text fill="#000000" font-family="sans-serif" font-size="15.4" lengthAdjust="spacingAndGlyphs" textLength="180.6" x="1367.8" y="379.2975">-String descQualityOfWork</text><text fill="#000000" font-family="sans-serif" font-size="15.4" lengthAdjust="spacingAndGlyphs" textLength="130.2" x="1367.8" y="398.6678">-Double amountPay</text><!--MD5=[b24ed8d4ae84bae9290d9aab401637c7]
class Manager--><rect fill="#FEFECE" filter="url(#f1qjz9feop78af)" height="94.7406" id="Manager" style="stroke: #A80036; stroke-width: 2.0999999999999996;" width="112" x="987" y="11.9"/><ellipse cx="1008" cy="34.3" fill="#ADD1B2" rx="15.4" ry="15.4" style="stroke: #A80036; stroke-width: 1.4;"/><path d="M1010.8,29.4 Q1011.0844,28.7 1011.4125,28.35 Q1011.7406,28 1012.1125,28 Q1012.7688,28 1013.1844,28.3937 Q1013.6,28.7875 1013.6,29.7062 L1013.6,31.8937 Q1013.6,32.8125 1013.2063,33.2063 Q1012.8125,33.6 1012.2,33.6 Q1011.6531,33.6 1011.3031,33.3594 Q1010.9531,33.1188 1010.8,32.4844 Q1010.7344,32.0469 1010.4938,31.8063 Q1010.0563,31.3469 1009.2688,31.0844 Q1008.4812,30.8 1007.6937,30.8 Q1006.7094,30.8 1005.8781,31.1937 Q1005.0687,31.5875 1004.4344,32.4625 Q1003.8,33.3375 1003.8,34.5406 L1003.8,35.8313 Q1003.8,37.275 1004.9812,38.2375 Q1006.1625,39.2 1008.2625,39.2 Q1009.5094,39.2 1010.3844,38.9156 Q1010.8875,38.7625 1011.4563,38.2594 Q1011.8281,37.975 1012.025,37.8875 Q1012.2219,37.8 1012.4625,37.8 Q1012.9219,37.8 1013.25,38.1719 Q1013.6,38.5219 1013.6,39.025 Q1013.6,39.5062 1013.1188,40.075 Q1012.4187,40.9063 1011.3031,41.3656 Q1009.8375,42 1008.0437,42 Q1005.9437,42 1004.2594,41.1687 Q1002.9031,40.5125 1001.9406,39.0906 Q1001,37.6687 1001,35.9844 L1001,34.4531 Q1001,32.7031 1001.8313,31.1719 Q1002.6844,29.6406 1004.15,28.8312 Q1005.6375,28 1007.3,28 Q1008.3063,28 1009.1813,28.35 Q1010.0563,28.7 1010.8,29.4 Z "/><text fill="#000000" font-family="sans-serif" font-size="16.8" lengthAdjust="spacingAndGlyphs" textLength="67.2" x="1027.6" y="41.1742">Manager</text><line style="stroke: #A80036; stroke-width: 2.0999999999999996;" x1="988.4" x2="1097.6" y1="56.7" y2="56.7"/><text fill="#000000" font-family="sans-serif" font-size="15.4" lengthAdjust="spacingAndGlyphs" textLength="85.4" x="995.4" y="78.2865">-String name</text><text fill="#000000" font-family="sans-serif" font-size="15.4" lengthAdjust="spacingAndGlyphs" textLength="77" x="995.4" y="97.6568">-Sting email</text><!--MD5=[1f687b5315377fe49fca59b457947463]
class Freelancer--><rect fill="#FEFECE" filter="url(#f1qjz9feop78af)" height="210.9625" id="Freelancer" style="stroke: #A80036; stroke-width: 2.0999999999999996;" width="147" x="1727.6" y="403.2"/><ellipse cx="1757.42" cy="425.6" fill="#ADD1B2" rx="15.4" ry="15.4" style="stroke: #A80036; stroke-width: 1.4;"/><path d="M1760.22,420.7 Q1760.5044,420 1760.8325,419.65 Q1761.1606,419.3 1761.5325,419.3 Q1762.1887,419.3 1762.6044,419.6937 Q1763.02,420.0875 1763.02,421.0062 L1763.02,423.1937 Q1763.02,424.1125 1762.6262,424.5062 Q1762.2325,424.9 1761.62,424.9 Q1761.0731,424.9 1760.7231,424.6594 Q1760.3731,424.4188 1760.22,423.7844 Q1760.1544,423.3469 1759.9138,423.1063 Q1759.4763,422.6469 1758.6887,422.3844 Q1757.9013,422.1 1757.1137,422.1 Q1756.1294,422.1 1755.2981,422.4938 Q1754.4887,422.8875 1753.8544,423.7625 Q1753.22,424.6375 1753.22,425.8406 L1753.22,427.1312 Q1753.22,428.575 1754.4013,429.5375 Q1755.5825,430.5 1757.6825,430.5 Q1758.9294,430.5 1759.8044,430.2156 Q1760.3075,430.0625 1760.8762,429.5594 Q1761.2481,429.275 1761.445,429.1875 Q1761.6419,429.1 1761.8825,429.1 Q1762.3419,429.1 1762.67,429.4719 Q1763.02,429.8219 1763.02,430.325 Q1763.02,430.8063 1762.5388,431.375 Q1761.8388,432.2062 1760.7231,432.6656 Q1759.2575,433.3 1757.4638,433.3 Q1755.3637,433.3 1753.6794,432.4688 Q1752.3231,431.8125 1751.3606,430.3906 Q1750.42,428.9688 1750.42,427.2844 L1750.42,425.7531 Q1750.42,424.0031 1751.2512,422.4719 Q1752.1044,420.9406 1753.57,420.1312 Q1755.0575,419.3 1756.72,419.3 Q1757.7263,419.3 1758.6013,419.65 Q1759.4763,420 1760.22,420.7 Z "/><text fill="#000000" font-family="sans-serif" font-size="16.8" lengthAdjust="spacingAndGlyphs" textLength="82.6" x="1778.98" y="432.4742">Freelancer</text><line style="stroke: #A80036; stroke-width: 2.0999999999999996;" x1="1729" x2="1873.2" y1="448" y2="448"/><text fill="#000000" font-family="sans-serif" font-size="15.4" lengthAdjust="spacingAndGlyphs" textLength="130.2" x="1736" y="469.5865">-String freelancerId</text><text fill="#000000" font-family="sans-serif" font-size="15.4" lengthAdjust="spacingAndGlyphs" textLength="85.4" x="1736" y="488.9568">-String name</text><text fill="#000000" font-family="sans-serif" font-size="15.4" lengthAdjust="spacingAndGlyphs" textLength="88.2" x="1736" y="508.3271">-String lvlExp</text><text fill="#000000" font-family="sans-serif" font-size="15.4" lengthAdjust="spacingAndGlyphs" textLength="82.6" x="1736" y="527.6975">-String email</text><text fill="#000000" font-family="sans-serif" font-size="15.4" lengthAdjust="spacingAndGlyphs" textLength="65.8" x="1736" y="547.0678">-String nif</text><text fill="#000000" font-family="sans-serif" font-size="15.4" lengthAdjust="spacingAndGlyphs" textLength="77" x="1736" y="566.4381">-String iban</text><text fill="#000000" font-family="sans-serif" font-size="15.4" lengthAdjust="spacingAndGlyphs" textLength="105" x="1736" y="585.8084">-String address</text><text fill="#000000" font-family="sans-serif" font-size="15.4" lengthAdjust="spacingAndGlyphs" textLength="100.8" x="1736" y="605.1787">-String country</text><!--MD5=[f483d6e5de34a60207b28a5563be5e8b]
class Collaborator--><rect fill="#FEFECE" filter="url(#f1qjz9feop78af)" height="133.4813" id="Collaborator" style="stroke: #A80036; stroke-width: 2.0999999999999996;" width="140" x="973" y="156.8"/><ellipse cx="994" cy="179.2" fill="#ADD1B2" rx="15.4" ry="15.4" style="stroke: #A80036; stroke-width: 1.4;"/><path d="M996.8,174.3 Q997.0844,173.6 997.4125,173.25 Q997.7406,172.9 998.1125,172.9 Q998.7688,172.9 999.1844,173.2938 Q999.6,173.6875 999.6,174.6063 L999.6,176.7938 Q999.6,177.7125 999.2063,178.1063 Q998.8125,178.5 998.2,178.5 Q997.6531,178.5 997.3031,178.2594 Q996.9531,178.0187 996.8,177.3844 Q996.7344,176.9469 996.4938,176.7062 Q996.0563,176.2469 995.2688,175.9844 Q994.4812,175.7 993.6937,175.7 Q992.7094,175.7 991.8781,176.0938 Q991.0687,176.4875 990.4344,177.3625 Q989.8,178.2375 989.8,179.4406 L989.8,180.7313 Q989.8,182.175 990.9812,183.1375 Q992.1625,184.1 994.2625,184.1 Q995.5094,184.1 996.3844,183.8156 Q996.8875,183.6625 997.4563,183.1594 Q997.8281,182.875 998.025,182.7875 Q998.2219,182.7 998.4625,182.7 Q998.9219,182.7 999.25,183.0719 Q999.6,183.4219 999.6,183.925 Q999.6,184.4063 999.1188,184.975 Q998.4187,185.8062 997.3031,186.2656 Q995.8375,186.9 994.0437,186.9 Q991.9437,186.9 990.2594,186.0688 Q988.9031,185.4125 987.9406,183.9906 Q987,182.5688 987,180.8844 L987,179.3531 Q987,177.6031 987.8313,176.0719 Q988.6844,174.5406 990.15,173.7313 Q991.6375,172.9 993.3,172.9 Q994.3063,172.9 995.1813,173.25 Q996.0563,173.6 996.8,174.3 Z "/><text fill="#000000" font-family="sans-serif" font-size="16.8" lengthAdjust="spacingAndGlyphs" textLength="95.2" x="1013.6" y="186.0742">Collaborator</text><line style="stroke: #A80036; stroke-width: 2.0999999999999996;" x1="974.4" x2="1111.6" y1="201.6" y2="201.6"/><text fill="#000000" font-family="sans-serif" font-size="15.4" lengthAdjust="spacingAndGlyphs" textLength="85.4" x="981.4" y="223.1865">-String name</text><text fill="#000000" font-family="sans-serif" font-size="15.4" lengthAdjust="spacingAndGlyphs" textLength="103.6" x="981.4" y="242.5568">-String function</text><text fill="#000000" font-family="sans-serif" font-size="15.4" lengthAdjust="spacingAndGlyphs" textLength="114.8" x="981.4" y="261.9271">-String telephone</text><text fill="#000000" font-family="sans-serif" font-size="15.4" lengthAdjust="spacingAndGlyphs" textLength="82.6" x="981.4" y="281.2975">-String email</text><!--MD5=[3fd616f346a44cd59a91eb10b19e157c]
class User--><rect fill="#FEFECE" filter="url(#f1qjz9feop78af)" height="114.1109" id="User" style="stroke: #A80036; stroke-width: 2.0999999999999996;" width="135.8" x="1393" y="46.9"/><ellipse cx="1437.94" cy="69.3" fill="#ADD1B2" rx="15.4" ry="15.4" style="stroke: #A80036; stroke-width: 1.4;"/><path d="M1440.74,64.4 Q1441.0244,63.7 1441.3525,63.35 Q1441.6806,63 1442.0525,63 Q1442.7087,63 1443.1244,63.3938 Q1443.54,63.7875 1443.54,64.7063 L1443.54,66.8938 Q1443.54,67.8125 1443.1462,68.2063 Q1442.7525,68.6 1442.14,68.6 Q1441.5931,68.6 1441.2431,68.3594 Q1440.8931,68.1187 1440.74,67.4844 Q1440.6744,67.0469 1440.4337,66.8062 Q1439.9962,66.3469 1439.2087,66.0844 Q1438.4212,65.8 1437.6337,65.8 Q1436.6494,65.8 1435.8181,66.1938 Q1435.0087,66.5875 1434.3744,67.4625 Q1433.74,68.3375 1433.74,69.5406 L1433.74,70.8313 Q1433.74,72.275 1434.9212,73.2375 Q1436.1025,74.2 1438.2025,74.2 Q1439.4494,74.2 1440.3244,73.9156 Q1440.8275,73.7625 1441.3962,73.2594 Q1441.7681,72.975 1441.965,72.8875 Q1442.1619,72.8 1442.4025,72.8 Q1442.8619,72.8 1443.19,73.1719 Q1443.54,73.5219 1443.54,74.025 Q1443.54,74.5063 1443.0587,75.075 Q1442.3587,75.9063 1441.2431,76.3656 Q1439.7775,77 1437.9837,77 Q1435.8837,77 1434.1994,76.1687 Q1432.8431,75.5125 1431.8806,74.0906 Q1430.94,72.6687 1430.94,70.9844 L1430.94,69.4531 Q1430.94,67.7031 1431.7712,66.1719 Q1432.6244,64.6406 1434.09,63.8313 Q1435.5775,63 1437.24,63 Q1438.2462,63 1439.1212,63.35 Q1439.9962,63.7 1440.74,64.4 Z "/><text fill="#000000" font-family="sans-serif" font-size="16.8" lengthAdjust="spacingAndGlyphs" textLength="37.8" x="1462.86" y="76.1742">User</text><line style="stroke: #A80036; stroke-width: 2.0999999999999996;" x1="1394.4" x2="1527.4" y1="91.7" y2="91.7"/><text fill="#000000" font-family="sans-serif" font-size="15.4" lengthAdjust="spacingAndGlyphs" textLength="85.4" x="1401.4" y="113.2865">-String nome</text><text fill="#000000" font-family="sans-serif" font-size="15.4" lengthAdjust="spacingAndGlyphs" textLength="82.6" x="1401.4" y="132.6568">-String email</text><text fill="#000000" font-family="sans-serif" font-size="15.4" lengthAdjust="spacingAndGlyphs" textLength="119" x="1401.4" y="152.0271">-String password</text><!--MD5=[03dcba4cf8fb1a884adf843655d65df1]
class Plataform--><rect fill="#FEFECE" filter="url(#f1qjz9feop78af)" height="75.3703" id="Plataform" style="stroke: #A80036; stroke-width: 2.0999999999999996;" width="142.8" x="8.4" y="440.3"/><ellipse cx="40.11" cy="462.7" fill="#ADD1B2" rx="15.4" ry="15.4" style="stroke: #A80036; stroke-width: 1.4;"/><path d="M42.91,457.8 Q43.1944,457.1 43.5225,456.75 Q43.8506,456.4 44.2225,456.4 Q44.8788,456.4 45.2944,456.7938 Q45.71,457.1875 45.71,458.1063 L45.71,460.2938 Q45.71,461.2125 45.3163,461.6063 Q44.9225,462 44.31,462 Q43.7631,462 43.4131,461.7594 Q43.0631,461.5187 42.91,460.8844 Q42.8444,460.4469 42.6038,460.2062 Q42.1663,459.7469 41.3788,459.4844 Q40.5912,459.2 39.8037,459.2 Q38.8194,459.2 37.9881,459.5937 Q37.1787,459.9875 36.5444,460.8625 Q35.91,461.7375 35.91,462.9406 L35.91,464.2313 Q35.91,465.675 37.0912,466.6375 Q38.2725,467.6 40.3725,467.6 Q41.6194,467.6 42.4944,467.3156 Q42.9975,467.1625 43.5663,466.6594 Q43.9381,466.375 44.135,466.2875 Q44.3319,466.2 44.5725,466.2 Q45.0319,466.2 45.36,466.5719 Q45.71,466.9219 45.71,467.425 Q45.71,467.9062 45.2288,468.475 Q44.5287,469.3063 43.4131,469.7656 Q41.9475,470.4 40.1537,470.4 Q38.0537,470.4 36.3694,469.5687 Q35.0131,468.9125 34.0506,467.4906 Q33.11,466.0687 33.11,464.3844 L33.11,462.8531 Q33.11,461.1031 33.9413,459.5719 Q34.7944,458.0406 36.26,457.2313 Q37.7475,456.4 39.41,456.4 Q40.4163,456.4 41.2913,456.75 Q42.1663,457.1 42.91,457.8 Z "/><text fill="#000000" font-family="sans-serif" font-size="16.8" lengthAdjust="spacingAndGlyphs" textLength="74.2" x="62.09" y="469.5742">Plataform</text><line style="stroke: #A80036; stroke-width: 2.0999999999999996;" x1="9.8" x2="149.8" y1="485.1" y2="485.1"/><text fill="#000000" font-family="sans-serif" font-size="15.4" lengthAdjust="spacingAndGlyphs" textLength="126" x="16.8" y="506.6865">-String designation</text><!--MD5=[86c7c362de55a38b660185a1328fe18d]
class Organization--><rect fill="#FEFECE" filter="url(#f1qjz9feop78af)" height="152.8516" id="Organization" style="stroke: #A80036; stroke-width: 2.0999999999999996;" width="141.4" x="355.6" y="89.6"/><ellipse cx="376.6" cy="112" fill="#ADD1B2" rx="15.4" ry="15.4" style="stroke: #A80036; stroke-width: 1.4;"/><path d="M379.4,107.1 Q379.6844,106.4 380.0125,106.05 Q380.3406,105.7 380.7125,105.7 Q381.3688,105.7 381.7844,106.0938 Q382.2,106.4875 382.2,107.4063 L382.2,109.5938 Q382.2,110.5125 381.8063,110.9063 Q381.4125,111.3 380.8,111.3 Q380.2531,111.3 379.9031,111.0594 Q379.5531,110.8188 379.4,110.1844 Q379.3344,109.7469 379.0938,109.5063 Q378.6563,109.0469 377.8688,108.7844 Q377.0812,108.5 376.2938,108.5 Q375.3094,108.5 374.4781,108.8938 Q373.6688,109.2875 373.0344,110.1625 Q372.4,111.0375 372.4,112.2406 L372.4,113.5312 Q372.4,114.975 373.5812,115.9375 Q374.7625,116.9 376.8625,116.9 Q378.1094,116.9 378.9844,116.6156 Q379.4875,116.4625 380.0563,115.9594 Q380.4281,115.675 380.625,115.5875 Q380.8219,115.5 381.0625,115.5 Q381.5219,115.5 381.85,115.8719 Q382.2,116.2219 382.2,116.725 Q382.2,117.2063 381.7188,117.775 Q381.0187,118.6062 379.9031,119.0656 Q378.4375,119.7 376.6437,119.7 Q374.5438,119.7 372.8594,118.8687 Q371.5031,118.2125 370.5406,116.7906 Q369.6,115.3687 369.6,113.6844 L369.6,112.1531 Q369.6,110.4031 370.4313,108.8719 Q371.2844,107.3406 372.75,106.5313 Q374.2375,105.7 375.9,105.7 Q376.9063,105.7 377.7813,106.05 Q378.6563,106.4 379.4,107.1 Z "/><text fill="#000000" font-family="sans-serif" font-size="16.8" lengthAdjust="spacingAndGlyphs" textLength="96.6" x="396.2" y="118.8742">Organization</text><line style="stroke: #A80036; stroke-width: 2.0999999999999996;" x1="357" x2="495.6" y1="134.4" y2="134.4"/><text fill="#000000" font-family="sans-serif" font-size="15.4" lengthAdjust="spacingAndGlyphs" textLength="85.4" x="364" y="155.9865">-String name</text><text fill="#000000" font-family="sans-serif" font-size="15.4" lengthAdjust="spacingAndGlyphs" textLength="65.8" x="364" y="175.3568">-String nif</text><text fill="#000000" font-family="sans-serif" font-size="15.4" lengthAdjust="spacingAndGlyphs" textLength="103.6" x="364" y="194.7271">-String website</text><text fill="#000000" font-family="sans-serif" font-size="15.4" lengthAdjust="spacingAndGlyphs" textLength="114.8" x="364" y="214.0975">-String telephone</text><text fill="#000000" font-family="sans-serif" font-size="15.4" lengthAdjust="spacingAndGlyphs" textLength="82.6" x="364" y="233.4678">-String email</text><!--MD5=[69e497c3067133575d4453703547b8fd]
link Plataform to Organization--><path d="M123.3443,439.8184 C181.0634,387.3884 285.4558,292.565 354.9854,229.4082 " fill="none" id="Plataform-Organization" style="stroke: #A80036; stroke-width: 1.4;"/><text fill="#000000" font-family="sans-serif" font-size="18.2" lengthAdjust="spacingAndGlyphs" textLength="99.4" x="194.6" y="270.1932">has registed</text><polygon fill="#000000" points="298.2,260.6461,306.6,264.8461,298.2,269.0461,298.2,260.6461" style="stroke: #000000; stroke-width: 1.4;"/><text fill="#000000" font-family="sans-serif" font-size="18.2" lengthAdjust="spacingAndGlyphs" textLength="9.8" x="122.4808" y="424.9524">1</text><text fill="#000000" font-family="sans-serif" font-size="18.2" lengthAdjust="spacingAndGlyphs" textLength="7" x="337.4646" y="258.8241">*</text><!--MD5=[45817597bcd7048073a670d966abfd17]
link Organization to Collaborator--><path d="M497.525,139.3602 C511.0952,135.2638 525.3472,131.6756 539,129.5 C711.0516,102.081 767.4422,69.482 931,129.5 C947.7818,135.6586 963.7614,145.6154 978.0946,156.7902 " fill="none" id="Organization-Collaborator" style="stroke: #A80036; stroke-width: 1.4;"/><text fill="#000000" font-family="sans-serif" font-size="18.2" lengthAdjust="spacingAndGlyphs" textLength="105" x="639.8" y="89.5932">has manager</text><polygon fill="#000000" points="749,80.0461,757.4,84.2461,749,88.4461,749,80.0461" style="stroke: #000000; stroke-width: 1.4;"/><text fill="#000000" font-family="sans-serif" font-size="18.2" lengthAdjust="spacingAndGlyphs" textLength="9.8" x="508.2301" y="156.1131">1</text><text fill="#000000" font-family="sans-serif" font-size="18.2" lengthAdjust="spacingAndGlyphs" textLength="9.8" x="957.6056" y="141.3849">1</text><!--MD5=[45817597bcd7048073a670d966abfd17]
link Organization to Collaborator--><path d="M497.0504,169.9474 C594.2496,175.973 776.4386,188.5492 931,206.5 C944.5044,208.068 958.8936,210.035 972.6724,212.065 " fill="none" id="Organization-Collaborator-1" style="stroke: #A80036; stroke-width: 1.4;"/><text fill="#000000" font-family="sans-serif" font-size="18.2" lengthAdjust="spacingAndGlyphs" textLength="29.4" x="677.6" y="173.5932">has</text><polygon fill="#000000" points="711.2,164.0461,719.6,168.2461,711.2,172.4461,711.2,164.0461" style="stroke: #000000; stroke-width: 1.4;"/><text fill="#000000" font-family="sans-serif" font-size="18.2" lengthAdjust="spacingAndGlyphs" textLength="9.8" x="508.1616" y="191.0977">1</text><text fill="#000000" font-family="sans-serif" font-size="18.2" lengthAdjust="spacingAndGlyphs" textLength="28" x="933.8679" y="230.9544">1..*</text><!--MD5=[b4b6c1ff9c803d8207b36238c02005ea]
link Freelancer to Task--><path d="M1727.04,499.9665 C1563.38,479.4744 1153.5776,426.0984 813.4,364.7 C799.8704,362.2584 785.47,359.3716 771.687,356.468 " fill="none" id="Freelancer-Task" style="stroke: #A80036; stroke-width: 1.4;"/><polygon fill="#000000" points="1166.2,406.2461,1157.8,410.4461,1166.2,414.6461,1166.2,406.2461" style="stroke: #000000; stroke-width: 1.4;"/><text fill="#000000" font-family="sans-serif" font-size="18.2" lengthAdjust="spacingAndGlyphs" textLength="141.4" x="1174.6" y="415.7932">finishes/executes</text><text fill="#000000" font-family="sans-serif" font-size="18.2" lengthAdjust="spacingAndGlyphs" textLength="9.8" x="1706.6297" y="519.2266">1</text><text fill="#000000" font-family="sans-serif" font-size="18.2" lengthAdjust="spacingAndGlyphs" textLength="28" x="782.4863" y="353.5362">1..*</text><!--MD5=[f24cbd698439a42b2d62cde440643418]
link Task to PaymentTransaction--><path d="M771.7654,347.9588 C785.5414,349.1012 799.9194,350.1036 813.4,350.7 C916.4162,355.2556 1143.8448,358.7556 1317.4,347.9 C1330.9128,347.0544 1345.1116,345.8084 1359.0934,344.3692 " fill="none" id="Task-PaymentTransaction" style="stroke: #A80036; stroke-width: 1.4;"/><text fill="#000000" font-family="sans-serif" font-size="18.2" lengthAdjust="spacingAndGlyphs" textLength="78.4" x="994.7" y="348.5932">is paid by</text><polygon fill="#000000" points="1077.3,339.0461,1085.7,343.2461,1077.3,347.4461,1077.3,339.0461" style="stroke: #000000; stroke-width: 1.4;"/><text fill="#000000" font-family="sans-serif" font-size="18.2" lengthAdjust="spacingAndGlyphs" textLength="9.8" x="782.82" y="369.5514">1</text><text fill="#000000" font-family="sans-serif" font-size="18.2" lengthAdjust="spacingAndGlyphs" textLength="9.8" x="1338.2893" y="365.7982">1</text><!--MD5=[f6802b286771c18a16ea4be983074371]
link PaymentTransaction to Freelancer--><path d="M1562.624,383.964 C1615.46,411.8072 1679.062,445.3274 1727.082,470.6352 " fill="none" id="PaymentTransaction-Freelancer" style="stroke: #A80036; stroke-width: 1.4;"/><text fill="#000000" font-family="sans-serif" font-size="18.2" lengthAdjust="spacingAndGlyphs" textLength="60.2" x="1605.8" y="403.1932">pays to</text><polygon fill="#000000" points="1670.2,393.6461,1678.6,397.8461,1670.2,402.0461,1670.2,393.6461" style="stroke: #000000; stroke-width: 1.4;"/><text fill="#000000" font-family="sans-serif" font-size="18.2" lengthAdjust="spacingAndGlyphs" textLength="9.8" x="1573.6196" y="409.4762">1</text><text fill="#000000" font-family="sans-serif" font-size="18.2" lengthAdjust="spacingAndGlyphs" textLength="9.8" x="1706.6774" y="485.954">1</text><!--MD5=[c32d3c60a61e5638fef4971a1b3a8306]
link Collaborator to PaymentTransaction--><path d="M1113.2492,285.992 C1126.3364,295.0388 1140.4988,303.1504 1155,308.7 C1219.8536,333.5178 1298.0688,338.8014 1358.9884,338.044 " fill="none" id="Collaborator-PaymentTransaction" style="stroke: #A80036; stroke-width: 1.4;"/><text fill="#000000" font-family="sans-serif" font-size="18.2" lengthAdjust="spacingAndGlyphs" textLength="60.2" x="1197" y="303.7932">creates</text><polygon fill="#000000" points="1261.4,294.2461,1269.8,298.4461,1261.4,302.6461,1261.4,294.2461" style="stroke: #000000; stroke-width: 1.4;"/><text fill="#000000" font-family="sans-serif" font-size="18.2" lengthAdjust="spacingAndGlyphs" textLength="9.8" x="1124.2867" y="315.7389">1</text><text fill="#000000" font-family="sans-serif" font-size="18.2" lengthAdjust="spacingAndGlyphs" textLength="28" x="1320.3028" y="334.1559">1..*</text><!--MD5=[4078351e3988aa35b1504a42837f2ab1]
link Organization to Task--><path d="M497.1176,210.5124 C538.2426,236.943 590.1616,270.3092 631.1816,296.6726 " fill="none" id="Organization-Task" style="stroke: #A80036; stroke-width: 1.4;"/><text fill="#000000" font-family="sans-serif" font-size="18.2" lengthAdjust="spacingAndGlyphs" textLength="29.4" x="540.4" y="232.3932">has</text><polygon fill="#000000" points="574,222.8461,582.4,227.0461,574,231.2461,574,222.8461" style="stroke: #000000; stroke-width: 1.4;"/><text fill="#000000" font-family="sans-serif" font-size="18.2" lengthAdjust="spacingAndGlyphs" textLength="9.8" x="508.2386" y="237.6207">1</text><text fill="#000000" font-family="sans-serif" font-size="18.2" lengthAdjust="spacingAndGlyphs" textLength="7" x="613.3542" y="310.7325">*</text><!--MD5=[392f7804293287fa5662caa616132930]
link Task to Collaborator--><path d="M771.5246,297.808 C785.071,290.4552 799.4252,283.4216 813.4,277.9 C865.1146,257.4656 926.5578,243.299 972.6542,234.5266 " fill="none" id="Task-Collaborator" style="stroke: #A80036; stroke-width: 1.4;"/><text fill="#000000" font-family="sans-serif" font-size="18.2" lengthAdjust="spacingAndGlyphs" textLength="96.6" x="814.8" y="237.9932">specified by</text><polygon fill="#000000" points="915.6,228.4461,924,232.6461,915.6,236.8461,915.6,228.4461" style="stroke: #000000; stroke-width: 1.4;"/><text fill="#000000" font-family="sans-serif" font-size="18.2" lengthAdjust="spacingAndGlyphs" textLength="7" x="782.7984" y="311.8361">*</text><text fill="#000000" font-family="sans-serif" font-size="18.2" lengthAdjust="spacingAndGlyphs" textLength="9.8" x="951.8025" y="256.7145">1</text><!--MD5=[f919d21ae7a75ef5ececc535e09d5009]
link Collaborator to Task--><path d="M972.993,289.5676 C959.8778,299.2668 945.644,308.07 931,314.3 C880.5342,335.7718 818.447,341.852 771.7808,342.8796 " fill="none" id="Collaborator-Task" style="stroke: #A80036; stroke-width: 1.4;"/><polygon fill="#000000" points="834.4,299.8461,826,304.0461,834.4,308.2461,834.4,299.8461" style="stroke: #000000; stroke-width: 1.4;"/><text fill="#000000" font-family="sans-serif" font-size="18.2" lengthAdjust="spacingAndGlyphs" textLength="77" x="842.8" y="309.3932">publishes</text><text fill="#000000" font-family="sans-serif" font-size="18.2" lengthAdjust="spacingAndGlyphs" textLength="9.8" x="952.191" y="319.8396">1</text><text fill="#000000" font-family="sans-serif" font-size="18.2" lengthAdjust="spacingAndGlyphs" textLength="28" x="782.5921" y="338.2068">1..*</text><!--MD5=[04ce0ecdab38a3951889ff50c232570f]
link Collaborator to User--><path d="M1113.5012,237.9174 C1170.1508,246.7542 1251.4502,252.1078 1317.4,227.5 C1353.191,214.1454 1385.9482,187.264 1410.976,162.0094 " fill="none" id="Collaborator-User" style="stroke: #A80036; stroke-width: 1.4;"/><text fill="#000000" font-family="sans-serif" font-size="18.2" lengthAdjust="spacingAndGlyphs" textLength="68.6" x="1192.8" y="222.5932">acts like</text><polygon fill="#000000" points="1265.6,213.0461,1274,217.2461,1265.6,221.4461,1265.6,213.0461" style="stroke: #000000; stroke-width: 1.4;"/><text fill="#000000" font-family="sans-serif" font-size="18.2" lengthAdjust="spacingAndGlyphs" textLength="30.8" x="1123.9704" y="259.9577">0..1</text><text fill="#000000" font-family="sans-serif" font-size="18.2" lengthAdjust="spacingAndGlyphs" textLength="9.8" x="1393.1157" y="191.1104">1</text><!--MD5=[b84222977e65b0051251f49c6eaf9537]
link Plataform to Freelancer--><path d="M141.3084,516.1093 C207.9504,554.5396 319.935,608.3 424.9,608.3 C424.9,608.3 424.9,608.3 1462.3,608.3 C1556.646,608.3 1660.008,572.0954 1727.138,543.3863 " fill="none" id="Plataform-Freelancer" style="stroke: #A80036; stroke-width: 1.4;"/><text fill="#000000" font-family="sans-serif" font-size="18.2" lengthAdjust="spacingAndGlyphs" textLength="74.2" x="826" y="603.3932">has/uses</text><polygon fill="#000000" points="904.4,593.8461,912.8,598.0461,904.4,602.2461,904.4,593.8461" style="stroke: #000000; stroke-width: 1.4;"/><text fill="#000000" font-family="sans-serif" font-size="18.2" lengthAdjust="spacingAndGlyphs" textLength="9.8" x="143.8915" y="545.846">1</text><text fill="#000000" font-family="sans-serif" font-size="18.2" lengthAdjust="spacingAndGlyphs" textLength="28" x="1688.4176" y="567.9042">1..*</text><!--MD5=[bc039f41cf0b27fadee5cae63fc6e1fe]
link Organization to Manager--><path d="M497.0938,113.47 C510.5842,104.566 524.9188,95.9378 539,88.9 C577.7212,69.5478 588.6706,65.0342 631.4,58.1 C757.2306,37.681 907.6438,46.501 986.7438,53.6536 " fill="none" id="Organization-Manager" style="stroke: #A80036; stroke-width: 1.4;"/><text fill="#000000" font-family="sans-serif" font-size="18.2" lengthAdjust="spacingAndGlyphs" textLength="29.4" x="677.6" y="40.5932">has</text><polygon fill="#000000" points="711.2,31.0461,719.6,35.2461,711.2,39.4461,711.2,31.0461" style="stroke: #000000; stroke-width: 1.4;"/><text fill="#000000" font-family="sans-serif" font-size="18.2" lengthAdjust="spacingAndGlyphs" textLength="9.8" x="508.2113" y="126.3252">1</text><text fill="#000000" font-family="sans-serif" font-size="18.2" lengthAdjust="spacingAndGlyphs" textLength="9.8" x="966.0504" y="73.5851">1</text><!--MD5=[6eb6e197a729f6ec2412743e0bdbca1d]
link Manager to User--><path d="M1099.0938,65.4024 C1174.7162,73.5644 1311.0888,88.2826 1392.6598,97.0858 " fill="none" id="Manager-User" style="stroke: #A80036; stroke-width: 1.4;"/><text fill="#000000" font-family="sans-serif" font-size="18.2" lengthAdjust="spacingAndGlyphs" textLength="68.6" x="1192.8" y="65.7932">acts like</text><polygon fill="#000000" points="1265.6,56.2461,1274,60.4461,1265.6,64.6461,1265.6,56.2461" style="stroke: #000000; stroke-width: 1.4;"/><text fill="#000000" font-family="sans-serif" font-size="18.2" lengthAdjust="spacingAndGlyphs" textLength="9.8" x="1110.3395" y="87.5365">1</text><text fill="#000000" font-family="sans-serif" font-size="18.2" lengthAdjust="spacingAndGlyphs" textLength="9.8" x="1372.1173" y="116.6511">1</text><!--MD5=[07c33ebd6bf1a7067fcb1cdb0e1b530a]
link Manager to PaymentTransaction--><path d="M1099.4592,93.0986 C1116.9942,103.3816 1136.618,114.4612 1155,123.9 C1225.3654,160.0298 1251.6518,152.726 1317.4,196.7 C1342.0974,213.2186 1366.5134,234.1458 1387.953,254.5396 " fill="none" id="Manager-PaymentTransaction" style="stroke: #A80036; stroke-width: 1.4;"/><text fill="#000000" font-family="sans-serif" font-size="18.2" lengthAdjust="spacingAndGlyphs" textLength="140" x="1157.1" y="118.9932">chooses the date</text><polygon fill="#000000" points="1301.3,109.4461,1309.7,113.6461,1301.3,117.8461,1301.3,109.4461" style="stroke: #000000; stroke-width: 1.4;"/><text fill="#000000" font-family="sans-serif" font-size="18.2" lengthAdjust="spacingAndGlyphs" textLength="9.8" x="1110.3888" y="120.0563">1</text><text fill="#000000" font-family="sans-serif" font-size="18.2" lengthAdjust="spacingAndGlyphs" textLength="28" x="1348.8129" y="239.8039">1..*</text><!--MD5=[bc71cd65e2cce0dd78e2c3ecec719245]
@startuml
hide methods
left to right direction
skinparam classAttributeIconSize 0

class Task{
-String TaskId
-String description
-String duration
-String cost
-String category
}

class PaymentTransaction{
-String transId
-String endDate
-Integer delay
-String descQualityOfWork
-Double amountPay
}

class Manager{
-String name
-Sting email
}

class Freelancer{
-String freelancerId
-String name
-String lvlExp
-String email
-String nif
-String iban
-String address
-String country
}

class Collaborator{
-String name
-String function
-String telephone
-String email
}

class User{
-String nome
-String email
-String password
}

class Plataform{
-String designation
}

class Organization{
-String name
-String nif
-String website
-String telephone
-String email
}

Plataform "1" - - "*" Organization : has registed >
Organization "1" - - "1" Collaborator : has manager >
Organization "1" - - "1..*" Collaborator : has >
Freelancer "1" - - "1..*" Task : finishes/executes >
Task "1" - - "1" PaymentTransaction : is paid by >
PaymentTransaction "1" - - "1" Freelancer : pays to >
Collaborator "1" - - "1..*" PaymentTransaction : creates >
Organization "1" - - "*" Task :  has >
Task "*" - - "1" Collaborator : specified by >
Collaborator "1" - - "1..*" Task : publishes >
Collaborator "0..1" - - "1" User : acts like >
Plataform "1" - - "1..*" Freelancer : has/uses >
Organization "1" - - "1" Manager : has >
Manager "1" - - "1" User : acts like >
Manager "1" - - "1..*" PaymentTransaction : chooses the date >
@enduml

PlantUML version 1.2020.09(Sun May 10 11:51:06 BST 2020)
(GPL source distribution)
Java Runtime: OpenJDK Runtime Environment
JVM: OpenJDK 64-Bit Server VM
Java Version: 11.0.7+10-b765.53
Operating System: Windows 10
Default Encoding: Cp1252
Language: pt
Country: PT
--></g></svg>